%TF.GenerationSoftware,KiCad,Pcbnew,(6.0.9)*%
%TF.CreationDate,2022-11-19T22:55:32-05:00*%
%TF.ProjectId,Sensor_Board_2x16,53656e73-6f72-45f4-926f-6172645f3278,rev?*%
%TF.SameCoordinates,PX1728520PY19b87b58*%
%TF.FileFunction,Copper,L2,Bot*%
%TF.FilePolarity,Positive*%
%FSLAX46Y46*%
G04 Gerber Fmt 4.6, Leading zero omitted, Abs format (unit mm)*
G04 Created by KiCad (PCBNEW (6.0.9)) date 2022-11-19 22:55:32*
%MOMM*%
%LPD*%
G01*
G04 APERTURE LIST*
%TA.AperFunction,Profile*%
%ADD10C,0.200000*%
%TD*%
%TA.AperFunction,ComponentPad*%
%ADD11C,2.100000*%
%TD*%
%TA.AperFunction,ComponentPad*%
%ADD12C,1.524000*%
%TD*%
%TA.AperFunction,Conductor*%
%ADD13C,0.250000*%
%TD*%
G04 APERTURE END LIST*
D10*
X0Y406400000D02*
X50800000Y406400000D01*
X50800000Y406400000D02*
X50800000Y0D01*
X50800000Y0D02*
X0Y0D01*
X0Y0D02*
X0Y406400000D01*
D11*
%TO.P,J15,1,1*%
%TO.N,Net-(J15-Pad1)*%
X44805600Y141383660D03*
%TO.P,J15,2,2*%
%TO.N,Net-(J15-Pad2)*%
X44805600Y137883660D03*
%TD*%
%TO.P,J1,1,1*%
%TO.N,Net-(J10-Pad1)*%
X4000600Y378101800D03*
%TO.P,J1,2,2*%
%TO.N,Net-(J10-Pad2)*%
X4000600Y374601800D03*
%TD*%
D12*
%TO.P,S3,1*%
%TO.N,Net-(S1-Pad1)*%
X38367600Y299924554D03*
%TO.P,S3,2*%
%TO.N,Net-(J12-Pad2)*%
X11497600Y273054554D03*
%TD*%
D11*
%TO.P,J10,1,1*%
%TO.N,Net-(J10-Pad1)*%
X44805600Y378129800D03*
%TO.P,J10,2,2*%
%TO.N,Net-(J10-Pad2)*%
X44805600Y374629800D03*
%TD*%
D12*
%TO.P,S8,1*%
%TO.N,Net-(S1-Pad1)*%
X38367600Y62330600D03*
%TO.P,S8,2*%
%TO.N,Net-(J17-Pad2)*%
X11497600Y35460600D03*
%TD*%
%TO.P,S2,1*%
%TO.N,Net-(S1-Pad1)*%
X38367600Y347665175D03*
%TO.P,S2,2*%
%TO.N,Net-(J11-Pad2)*%
X11497600Y320795175D03*
%TD*%
D11*
%TO.P,J5,1,1*%
%TO.N,Net-(J14-Pad1)*%
X4229200Y188704888D03*
%TO.P,J5,2,2*%
%TO.N,Net-(J14-Pad2)*%
X4229200Y185204888D03*
%TD*%
%TO.P,J13,1,1*%
%TO.N,Net-(J13-Pad1)*%
X44805600Y236082116D03*
%TO.P,J13,2,2*%
%TO.N,Net-(J13-Pad2)*%
X44805600Y232582116D03*
%TD*%
D12*
%TO.P,S5,1*%
%TO.N,Net-(S1-Pad1)*%
X38367600Y205115270D03*
%TO.P,S5,2*%
%TO.N,Net-(J14-Pad2)*%
X11497600Y178245270D03*
%TD*%
D11*
%TO.P,J8,1,1*%
%TO.N,Net-(J17-Pad1)*%
X4229200Y46657200D03*
%TO.P,J8,2,2*%
%TO.N,Net-(J17-Pad2)*%
X4229200Y43157200D03*
%TD*%
D12*
%TO.P,S4,1*%
%TO.N,Net-(S1-Pad1)*%
X38367600Y252631905D03*
%TO.P,S4,2*%
%TO.N,Net-(J13-Pad2)*%
X11497600Y225761905D03*
%TD*%
D11*
%TO.P,J3,1,1*%
%TO.N,Net-(J12-Pad1)*%
X4229200Y283403344D03*
%TO.P,J3,2,2*%
%TO.N,Net-(J12-Pad2)*%
X4229200Y279903344D03*
%TD*%
%TO.P,J7,1,1*%
%TO.N,Net-(J16-Pad1)*%
X4229200Y94006432D03*
%TO.P,J7,2,2*%
%TO.N,Net-(J16-Pad2)*%
X4229200Y90506432D03*
%TD*%
%TO.P,J11,1,1*%
%TO.N,Net-(J11-Pad1)*%
X44805600Y330780572D03*
%TO.P,J11,2,2*%
%TO.N,Net-(J11-Pad2)*%
X44805600Y327280572D03*
%TD*%
%TO.P,J2,1,1*%
%TO.N,Net-(J11-Pad1)*%
X4229200Y330752572D03*
%TO.P,J2,2,2*%
%TO.N,Net-(J11-Pad2)*%
X4229200Y327252572D03*
%TD*%
D12*
%TO.P,S6,1*%
%TO.N,Net-(S1-Pad1)*%
X38367600Y157598635D03*
%TO.P,S6,2*%
%TO.N,Net-(J15-Pad2)*%
X11497600Y130728635D03*
%TD*%
%TO.P,S1,1*%
%TO.N,Net-(S1-Pad1)*%
X38367600Y393780600D03*
%TO.P,S1,2*%
%TO.N,Net-(J10-Pad2)*%
X11497600Y366910600D03*
%TD*%
D11*
%TO.P,J12,1,1*%
%TO.N,Net-(J12-Pad1)*%
X44805600Y283431344D03*
%TO.P,J12,2,2*%
%TO.N,Net-(J12-Pad2)*%
X44805600Y279931344D03*
%TD*%
%TO.P,J16,1,1*%
%TO.N,Net-(J16-Pad1)*%
X44805600Y94034432D03*
%TO.P,J16,2,2*%
%TO.N,Net-(J16-Pad2)*%
X44805600Y90534432D03*
%TD*%
%TO.P,J6,1,1*%
%TO.N,Net-(J15-Pad1)*%
X4229200Y141355660D03*
%TO.P,J6,2,2*%
%TO.N,Net-(J15-Pad2)*%
X4229200Y137855660D03*
%TD*%
D12*
%TO.P,S7,1*%
%TO.N,Net-(S1-Pad1)*%
X38367600Y110082000D03*
%TO.P,S7,2*%
%TO.N,Net-(J16-Pad2)*%
X11497600Y83212000D03*
%TD*%
D11*
%TO.P,J9,1,1*%
%TO.N,Net-(S1-Pad1)*%
X34826000Y5346800D03*
%TO.P,J9,2,2*%
X38326000Y5346800D03*
%TD*%
%TO.P,J14,1,1*%
%TO.N,Net-(J14-Pad1)*%
X44805600Y188732888D03*
%TO.P,J14,2,2*%
%TO.N,Net-(J14-Pad2)*%
X44805600Y185232888D03*
%TD*%
%TO.P,J17,1,1*%
%TO.N,Net-(J17-Pad1)*%
X44805600Y46685200D03*
%TO.P,J17,2,2*%
%TO.N,Net-(J17-Pad2)*%
X44805600Y43185200D03*
%TD*%
%TO.P,J4,1,1*%
%TO.N,Net-(J13-Pad1)*%
X4229200Y236054116D03*
%TO.P,J4,2,2*%
%TO.N,Net-(J13-Pad2)*%
X4229200Y232554116D03*
%TD*%
D13*
%TO.N,Net-(J10-Pad2)*%
X44785400Y374650000D02*
X44805600Y374629800D01*
X4048800Y374650000D02*
X44785400Y374650000D01*
X11497600Y366910600D02*
X19242200Y374655200D01*
X4000600Y374601800D02*
X4048800Y374650000D01*
%TO.N,Net-(J11-Pad2)*%
X17933972Y327231547D02*
X11497600Y320795175D01*
X44805600Y327280572D02*
X44780200Y327305972D01*
X17933972Y327305972D02*
X17880572Y327252572D01*
X44780200Y327305972D02*
X17933972Y327305972D01*
X17880572Y327252572D02*
X4229200Y327252572D01*
X17933972Y327305972D02*
X17933972Y327231547D01*
%TO.N,Net-(J12-Pad2)*%
X18336744Y279893698D02*
X11497600Y273054554D01*
X18283344Y279903344D02*
X4229200Y279903344D01*
X44805600Y279931344D02*
X44780200Y279956744D01*
X18336744Y279956744D02*
X18283344Y279903344D01*
X44780200Y279956744D02*
X18336744Y279956744D01*
X18336744Y279956744D02*
X18336744Y279893698D01*
%TO.N,Net-(J13-Pad2)*%
X18217484Y232607516D02*
X44780200Y232607516D01*
X4229200Y232554116D02*
X18164084Y232554116D01*
X18164084Y232554116D02*
X18217484Y232607516D01*
X18217484Y232607516D02*
X18217484Y232481789D01*
X44780200Y232607516D02*
X44805600Y232582116D01*
X18217484Y232481789D02*
X11497600Y225761905D01*
%TO.N,Net-(J14-Pad2)*%
X18354888Y185232888D02*
X18329488Y185258288D01*
X44805600Y185232888D02*
X18354888Y185232888D01*
X18329488Y185258288D02*
X18276088Y185204888D01*
X18276088Y185204888D02*
X4229200Y185204888D01*
X18329488Y185077158D02*
X11497600Y178245270D01*
X18329488Y185258288D02*
X18329488Y185077158D01*
%TO.N,Net-(J15-Pad2)*%
X18501540Y137855660D02*
X4229200Y137855660D01*
X18554940Y137909060D02*
X18501540Y137855660D01*
X44780200Y137909060D02*
X18554940Y137909060D01*
X18554940Y137785975D02*
X11497600Y130728635D01*
X18554940Y137909060D02*
X18554940Y137785975D01*
X44805600Y137883660D02*
X44780200Y137909060D01*
%TO.N,Net-(J16-Pad2)*%
X44805600Y90534432D02*
X44780200Y90559832D01*
X44780200Y90559832D02*
X18787168Y90559832D01*
X18787168Y90559832D02*
X18787168Y90501568D01*
X18787168Y90501568D02*
X11497600Y83212000D01*
X4282600Y90559832D02*
X4229200Y90506432D01*
X18787168Y90559832D02*
X4282600Y90559832D01*
%TO.N,Net-(J17-Pad1)*%
X44780200Y46710600D02*
X44805600Y46685200D01*
X4282600Y46710600D02*
X44780200Y46710600D01*
X4229200Y46657200D02*
X4282600Y46710600D01*
%TO.N,Net-(J17-Pad2)*%
X4282600Y43210600D02*
X4229200Y43157200D01*
X44780200Y43210600D02*
X19197200Y43210600D01*
X19197200Y43210600D02*
X19197200Y43160200D01*
X19197200Y43160200D02*
X11497600Y35460600D01*
X19197200Y43210600D02*
X4282600Y43210600D01*
X44805600Y43185200D02*
X44780200Y43210600D01*
%TO.N,Net-(J10-Pad1)*%
X44780200Y378155200D02*
X4054000Y378155200D01*
X44805600Y378129800D02*
X44780200Y378155200D01*
X4054000Y378155200D02*
X4000600Y378101800D01*
%TO.N,Net-(J11-Pad1)*%
X4229200Y330752572D02*
X44777600Y330752572D01*
X44777600Y330752572D02*
X44805600Y330780572D01*
%TO.N,Net-(J12-Pad1)*%
X4229200Y283403344D02*
X44777600Y283403344D01*
X44777600Y283403344D02*
X44805600Y283431344D01*
%TO.N,Net-(J13-Pad1)*%
X44805600Y236082116D02*
X44777600Y236054116D01*
X44777600Y236054116D02*
X4229200Y236054116D01*
%TO.N,Net-(J14-Pad1)*%
X4229200Y188704888D02*
X44777600Y188704888D01*
X44777600Y188704888D02*
X44805600Y188732888D01*
%TO.N,Net-(J15-Pad1)*%
X44780200Y141409060D02*
X44805600Y141383660D01*
X4282600Y141409060D02*
X44780200Y141409060D01*
X4229200Y141355660D02*
X4282600Y141409060D01*
%TO.N,Net-(J16-Pad1)*%
X4282600Y94059832D02*
X44780200Y94059832D01*
X4229200Y94006432D02*
X4282600Y94059832D01*
X44780200Y94059832D02*
X44805600Y94034432D01*
%TD*%
M02*
