M48
; DRILL file {KiCad (6.0.9)} date Sat Nov 19 22:55:35 2022
; FORMAT={3:3/ absolute / metric / suppress trailing zeros}
; #@! TF.CreationDate,2022-11-19T22:55:35-05:00
; #@! TF.GenerationSoftware,Kicad,Pcbnew,(6.0.9)
; #@! TF.FileFunction,MixedPlating,1,2
FMAT,2
METRIC,LZ
; #@! TA.AperFunction,Plated,PTH,ComponentDrill
T1C0.762
; #@! TA.AperFunction,Plated,PTH,ComponentDrill
T2C1.400
%
G90
G05
T1
X011498Y366911
X011498Y320795
X011498Y273055
X011498Y225762
X011498Y178245
X011498Y130729
X011498Y083212
X011498Y035461
X038368Y393781
X038368Y347665
X038368Y299925
X038368Y252632
X038368Y205115
X038368Y157599
X038368Y110082
X038368Y062331
T2
X004001Y378102
X004001Y374602
X004229Y330753
X004229Y327253
X004229Y283403
X004229Y279903
X004229Y236054
X004229Y232554
X004229Y188705
X004229Y185205
X004229Y141356
X004229Y137856
X004229Y094006
X004229Y090506
X004229Y046657
X004229Y043157
X034826Y005347
X038326Y005347
X044806Y37813
X044806Y37463
X044806Y330781
X044806Y327281
X044806Y283431
X044806Y279931
X044806Y236082
X044806Y232582
X044806Y188733
X044806Y185233
X044806Y141384
X044806Y137884
X044806Y094034
X044806Y090534
X044806Y046685
X044806Y043185
T0
M30
