%TF.GenerationSoftware,KiCad,Pcbnew,(6.0.9)*%
%TF.CreationDate,2022-11-19T22:55:32-05:00*%
%TF.ProjectId,Sensor_Board_2x16,53656e73-6f72-45f4-926f-6172645f3278,rev?*%
%TF.SameCoordinates,PX1728520PY19b87b58*%
%TF.FileFunction,Soldermask,Top*%
%TF.FilePolarity,Negative*%
%FSLAX46Y46*%
G04 Gerber Fmt 4.6, Leading zero omitted, Abs format (unit mm)*
G04 Created by KiCad (PCBNEW (6.0.9)) date 2022-11-19 22:55:32*
%MOMM*%
%LPD*%
G01*
G04 APERTURE LIST*
%TA.AperFunction,Profile*%
%ADD10C,0.200000*%
%TD*%
%ADD11C,2.404800*%
%ADD12C,1.828800*%
G04 APERTURE END LIST*
D10*
X0Y406400000D02*
X50800000Y406400000D01*
X50800000Y406400000D02*
X50800000Y0D01*
X50800000Y0D02*
X0Y0D01*
X0Y0D02*
X0Y406400000D01*
X0Y406400000D02*
X50800000Y406400000D01*
X50800000Y406400000D02*
X50800000Y0D01*
X50800000Y0D02*
X0Y0D01*
X0Y0D02*
X0Y406400000D01*
D11*
%TO.C,J15*%
X44805600Y141383660D03*
X44805600Y137883660D03*
%TD*%
%TO.C,J1*%
X4000600Y378101800D03*
X4000600Y374601800D03*
%TD*%
D12*
%TO.C,S3*%
X38367600Y299924554D03*
X11497600Y273054554D03*
%TD*%
D11*
%TO.C,J10*%
X44805600Y378129800D03*
X44805600Y374629800D03*
%TD*%
D12*
%TO.C,S8*%
X38367600Y62330600D03*
X11497600Y35460600D03*
%TD*%
%TO.C,S2*%
X38367600Y347665175D03*
X11497600Y320795175D03*
%TD*%
D11*
%TO.C,J5*%
X4229200Y188704888D03*
X4229200Y185204888D03*
%TD*%
%TO.C,J13*%
X44805600Y236082116D03*
X44805600Y232582116D03*
%TD*%
D12*
%TO.C,S5*%
X38367600Y205115270D03*
X11497600Y178245270D03*
%TD*%
D11*
%TO.C,J8*%
X4229200Y46657200D03*
X4229200Y43157200D03*
%TD*%
D12*
%TO.C,S4*%
X38367600Y252631905D03*
X11497600Y225761905D03*
%TD*%
D11*
%TO.C,J3*%
X4229200Y283403344D03*
X4229200Y279903344D03*
%TD*%
%TO.C,J7*%
X4229200Y94006432D03*
X4229200Y90506432D03*
%TD*%
%TO.C,J11*%
X44805600Y330780572D03*
X44805600Y327280572D03*
%TD*%
%TO.C,J2*%
X4229200Y330752572D03*
X4229200Y327252572D03*
%TD*%
D12*
%TO.C,S6*%
X38367600Y157598635D03*
X11497600Y130728635D03*
%TD*%
%TO.C,S1*%
X38367600Y393780600D03*
X11497600Y366910600D03*
%TD*%
D11*
%TO.C,J12*%
X44805600Y283431344D03*
X44805600Y279931344D03*
%TD*%
%TO.C,J16*%
X44805600Y94034432D03*
X44805600Y90534432D03*
%TD*%
%TO.C,J6*%
X4229200Y141355660D03*
X4229200Y137855660D03*
%TD*%
D12*
%TO.C,S7*%
X38367600Y110082000D03*
X11497600Y83212000D03*
%TD*%
D11*
%TO.C,J9*%
X34826000Y5346800D03*
X38326000Y5346800D03*
%TD*%
%TO.C,J14*%
X44805600Y188732888D03*
X44805600Y185232888D03*
%TD*%
%TO.C,J17*%
X44805600Y46685200D03*
X44805600Y43185200D03*
%TD*%
%TO.C,J4*%
X4229200Y236054116D03*
X4229200Y232554116D03*
%TD*%
M02*
