%TF.GenerationSoftware,KiCad,Pcbnew,(6.0.7)*%
%TF.CreationDate,2022-10-28T04:49:53-04:00*%
%TF.ProjectId,Top_Level,546f705f-4c65-4766-956c-2e6b69636164,rev?*%
%TF.SameCoordinates,PX33ef500PY821a7e8*%
%TF.FileFunction,Soldermask,Top*%
%TF.FilePolarity,Negative*%
%FSLAX46Y46*%
G04 Gerber Fmt 4.6, Leading zero omitted, Abs format (unit mm)*
G04 Created by KiCad (PCBNEW (6.0.7)) date 2022-10-28 04:49:53*
%MOMM*%
%LPD*%
G01*
G04 APERTURE LIST*
G04 Aperture macros list*
%AMRoundRect*
0 Rectangle with rounded corners*
0 $1 Rounding radius*
0 $2 $3 $4 $5 $6 $7 $8 $9 X,Y pos of 4 corners*
0 Add a 4 corners polygon primitive as box body*
4,1,4,$2,$3,$4,$5,$6,$7,$8,$9,$2,$3,0*
0 Add four circle primitives for the rounded corners*
1,1,$1+$1,$2,$3*
1,1,$1+$1,$4,$5*
1,1,$1+$1,$6,$7*
1,1,$1+$1,$8,$9*
0 Add four rect primitives between the rounded corners*
20,1,$1+$1,$2,$3,$4,$5,0*
20,1,$1+$1,$4,$5,$6,$7,0*
20,1,$1+$1,$6,$7,$8,$9,0*
20,1,$1+$1,$8,$9,$2,$3,0*%
G04 Aperture macros list end*
%ADD10C,0.100000*%
%ADD11O,2.004800X2.004800*%
%ADD12RoundRect,0.152400X0.850000X-0.850000X0.850000X0.850000X-0.850000X0.850000X-0.850000X-0.850000X0*%
%ADD13RoundRect,0.152400X-0.600000X0.600000X-0.600000X-0.600000X0.600000X-0.600000X0.600000X0.600000X0*%
%ADD14RoundRect,0.152400X0.327800X0.400000X-0.327800X0.400000X-0.327800X-0.400000X0.327800X-0.400000X0*%
%ADD15RoundRect,0.152400X-0.152400X0.635000X-0.152400X-0.635000X0.152400X-0.635000X0.152400X0.635000X0*%
%ADD16RoundRect,0.152400X-1.519999X1.170000X-1.519999X-1.170000X1.519999X-1.170000X1.519999X1.170000X0*%
%ADD17C,3.104800*%
%ADD18C,1.704800*%
%ADD19C,2.404800*%
%ADD20RoundRect,0.152400X-0.375000X0.300000X-0.375000X-0.300000X0.375000X-0.300000X0.375000X0.300000X0*%
%ADD21RoundRect,0.152400X-0.800000X0.400000X-0.800000X-0.400000X0.800000X-0.400000X0.800000X0.400000X0*%
%ADD22RoundRect,0.152400X-0.400000X-0.800000X0.400000X-0.800000X0.400000X0.800000X-0.400000X0.800000X0*%
%ADD23RoundRect,0.152400X0.500000X0.700000X-0.500000X0.700000X-0.500000X-0.700000X0.500000X-0.700000X0*%
%ADD24RoundRect,0.152400X1.360000X-0.510000X1.360000X0.510000X-1.360000X0.510000X-1.360000X-0.510000X0*%
%ADD25C,1.727200*%
%ADD26C,3.073400*%
%ADD27RoundRect,0.152400X0.800000X-0.400000X0.800000X0.400000X-0.800000X0.400000X-0.800000X-0.400000X0*%
%ADD28RoundRect,0.152400X-1.012500X-1.012500X1.012500X-1.012500X1.012500X1.012500X-1.012500X1.012500X0*%
%ADD29C,2.329800*%
%ADD30C,1.654800*%
%ADD31C,1.904800*%
%ADD32RoundRect,0.152400X0.165100X-0.355600X0.165100X0.355600X-0.165100X0.355600X-0.165100X-0.355600X0*%
%ADD33RoundRect,0.152400X-0.400000X0.327800X-0.400000X-0.327800X0.400000X-0.327800X0.400000X0.327800X0*%
%ADD34RoundRect,0.152400X0.700000X-0.500000X0.700000X0.500000X-0.700000X0.500000X-0.700000X-0.500000X0*%
%ADD35RoundRect,0.152400X7.500000X-7.500000X7.500000X7.500000X-7.500000X7.500000X-7.500000X-7.500000X0*%
%ADD36RoundRect,0.152400X1.012500X1.012500X-1.012500X1.012500X-1.012500X-1.012500X1.012500X-1.012500X0*%
%ADD37RoundRect,0.152400X0.475000X-0.375000X0.475000X0.375000X-0.475000X0.375000X-0.475000X-0.375000X0*%
%ADD38RoundRect,0.152400X1.675000X-0.625000X1.675000X0.625000X-1.675000X0.625000X-1.675000X-0.625000X0*%
%ADD39RoundRect,0.152400X-0.510000X-1.360000X0.510000X-1.360000X0.510000X1.360000X-0.510000X1.360000X0*%
%ADD40RoundRect,0.152400X0.225000X0.737500X-0.225000X0.737500X-0.225000X-0.737500X0.225000X-0.737500X0*%
%ADD41RoundRect,0.152400X-0.350000X-0.650000X0.350000X-0.650000X0.350000X0.650000X-0.350000X0.650000X0*%
%ADD42RoundRect,0.152400X0.800000X1.225000X-0.800000X1.225000X-0.800000X-1.225000X0.800000X-1.225000X0*%
%ADD43RoundRect,0.152400X0.400000X0.800000X-0.400000X0.800000X-0.400000X-0.800000X0.400000X-0.800000X0*%
%ADD44RoundRect,0.152400X0.625000X1.675000X-0.625000X1.675000X-0.625000X-1.675000X0.625000X-1.675000X0*%
%ADD45RoundRect,0.152400X-0.355600X-0.165100X0.355600X-0.165100X0.355600X0.165100X-0.355600X0.165100X0*%
%ADD46RoundRect,0.152400X0.535000X1.080000X-0.535000X1.080000X-0.535000X-1.080000X0.535000X-1.080000X0*%
%ADD47RoundRect,0.152400X5.400000X-0.955000X5.400000X0.955000X-5.400000X0.955000X-5.400000X-0.955000X0*%
%ADD48RoundRect,0.152400X4.165000X-2.540000X4.165000X2.540000X-4.165000X2.540000X-4.165000X-2.540000X0*%
%ADD49RoundRect,0.152400X-0.749300X1.955800X-0.749300X-1.955800X0.749300X-1.955800X0.749300X1.955800X0*%
%ADD50RoundRect,0.152400X-0.165100X0.355600X-0.165100X-0.355600X0.165100X-0.355600X0.165100X0.355600X0*%
%ADD51RoundRect,0.152400X-1.485900X-0.279400X1.485900X-0.279400X1.485900X0.279400X-1.485900X0.279400X0*%
%ADD52RoundRect,0.152400X-1.750000X0.800000X-1.750000X-0.800000X1.750000X-0.800000X1.750000X0.800000X0*%
%ADD53RoundRect,0.152400X-5.956300X-1.485900X5.956300X-1.485900X5.956300X1.485900X-5.956300X1.485900X0*%
%ADD54RoundRect,0.152400X-1.360000X0.510000X-1.360000X-0.510000X1.360000X-0.510000X1.360000X0.510000X0*%
%ADD55RoundRect,0.152400X0.700000X-0.525000X0.700000X0.525000X-0.700000X0.525000X-0.700000X-0.525000X0*%
%ADD56RoundRect,0.152400X0.300000X0.375000X-0.300000X0.375000X-0.300000X-0.375000X0.300000X-0.375000X0*%
%ADD57O,1.904800X1.904800*%
%ADD58RoundRect,0.152400X-0.210000X-0.230000X0.210000X-0.230000X0.210000X0.230000X-0.210000X0.230000X0*%
%ADD59RoundRect,0.152400X-1.650000X1.225000X-1.650000X-1.225000X1.650000X-1.225000X1.650000X1.225000X0*%
%ADD60C,2.104800*%
%ADD61RoundRect,0.152400X-0.327800X-0.400000X0.327800X-0.400000X0.327800X0.400000X-0.327800X0.400000X0*%
%ADD62RoundRect,0.152400X2.654300X-1.397000X2.654300X1.397000X-2.654300X1.397000X-2.654300X-1.397000X0*%
%ADD63RoundRect,0.152400X0.400000X-0.327800X0.400000X0.327800X-0.400000X0.327800X-0.400000X-0.327800X0*%
%ADD64RoundRect,0.152400X-1.320800X0.596900X-1.320800X-0.596900X1.320800X-0.596900X1.320800X0.596900X0*%
%ADD65RoundRect,0.152400X0.230000X-0.210000X0.230000X0.210000X-0.230000X0.210000X-0.230000X-0.210000X0*%
%ADD66RoundRect,0.152400X-0.230000X0.210000X-0.230000X-0.210000X0.230000X-0.210000X0.230000X0.210000X0*%
%ADD67RoundRect,0.152400X0.355600X0.165100X-0.355600X0.165100X-0.355600X-0.165100X0.355600X-0.165100X0*%
%ADD68RoundRect,0.152400X0.749300X-1.955800X0.749300X1.955800X-0.749300X1.955800X-0.749300X-1.955800X0*%
%ADD69RoundRect,0.152400X-0.800000X-1.225000X0.800000X-1.225000X0.800000X1.225000X-0.800000X1.225000X0*%
%ADD70RoundRect,0.152400X0.785000X1.410000X-0.785000X1.410000X-0.785000X-1.410000X0.785000X-1.410000X0*%
%ADD71RoundRect,0.152400X0.150000X0.237500X-0.150000X0.237500X-0.150000X-0.237500X0.150000X-0.237500X0*%
%ADD72RoundRect,0.152400X0.375000X-0.300000X0.375000X0.300000X-0.375000X0.300000X-0.375000X-0.300000X0*%
%ADD73RoundRect,0.152400X-5.232400X-5.435600X5.232400X-5.435600X5.232400X5.435600X-5.232400X5.435600X0*%
%ADD74RoundRect,0.152400X-0.508000X-1.346200X0.508000X-1.346200X0.508000X1.346200X-0.508000X1.346200X0*%
%ADD75C,5.344800*%
%ADD76C,4.369800*%
%ADD77C,4.639800*%
%ADD78C,1.104800*%
%ADD79C,1.804800*%
%ADD80C,1.304800*%
G04 APERTURE END LIST*
%TO.C,IC1*%
G36*
X51291899Y39889300D02*
G01*
X51011899Y39889300D01*
X51011899Y40389300D01*
X51291899Y40389300D01*
X51291899Y39889300D01*
G37*
D10*
X51291899Y39889300D02*
X51011899Y39889300D01*
X51011899Y40389300D01*
X51291899Y40389300D01*
X51291899Y39889300D01*
G36*
X47971901Y39889300D02*
G01*
X47691901Y39889300D01*
X47691901Y40389300D01*
X47971901Y40389300D01*
X47971901Y39889300D01*
G37*
X47971901Y39889300D02*
X47691901Y39889300D01*
X47691901Y40389300D01*
X47971901Y40389300D01*
X47971901Y39889300D01*
%TO.C,IC3*%
G36*
X72184081Y39563400D02*
G01*
X71904081Y39563400D01*
X71904081Y40063400D01*
X72184081Y40063400D01*
X72184081Y39563400D01*
G37*
X72184081Y39563400D02*
X71904081Y39563400D01*
X71904081Y40063400D01*
X72184081Y40063400D01*
X72184081Y39563400D01*
G36*
X68864083Y39563400D02*
G01*
X68584083Y39563400D01*
X68584083Y40063400D01*
X68864083Y40063400D01*
X68864083Y39563400D01*
G37*
X68864083Y39563400D02*
X68584083Y39563400D01*
X68584083Y40063400D01*
X68864083Y40063400D01*
X68864083Y39563400D01*
%TO.C,IC2*%
G36*
X104808401Y40325400D02*
G01*
X104528401Y40325400D01*
X104528401Y40825400D01*
X104808401Y40825400D01*
X104808401Y40325400D01*
G37*
X104808401Y40325400D02*
X104528401Y40325400D01*
X104528401Y40825400D01*
X104808401Y40825400D01*
X104808401Y40325400D01*
G36*
X108128399Y40325400D02*
G01*
X107848399Y40325400D01*
X107848399Y40825400D01*
X108128399Y40825400D01*
X108128399Y40325400D01*
G37*
X108128399Y40325400D02*
X107848399Y40325400D01*
X107848399Y40825400D01*
X108128399Y40825400D01*
X108128399Y40325400D01*
%TO.C,IC1*%
G36*
X51291899Y39889300D02*
G01*
X51011899Y39889300D01*
X51011899Y40389300D01*
X51291899Y40389300D01*
X51291899Y39889300D01*
G37*
X51291899Y39889300D02*
X51011899Y39889300D01*
X51011899Y40389300D01*
X51291899Y40389300D01*
X51291899Y39889300D01*
G36*
X47971901Y39889300D02*
G01*
X47691901Y39889300D01*
X47691901Y40389300D01*
X47971901Y40389300D01*
X47971901Y39889300D01*
G37*
X47971901Y39889300D02*
X47691901Y39889300D01*
X47691901Y40389300D01*
X47971901Y40389300D01*
X47971901Y39889300D01*
%TO.C,IC3*%
G36*
X72184081Y39563400D02*
G01*
X71904081Y39563400D01*
X71904081Y40063400D01*
X72184081Y40063400D01*
X72184081Y39563400D01*
G37*
X72184081Y39563400D02*
X71904081Y39563400D01*
X71904081Y40063400D01*
X72184081Y40063400D01*
X72184081Y39563400D01*
G36*
X68864083Y39563400D02*
G01*
X68584083Y39563400D01*
X68584083Y40063400D01*
X68864083Y40063400D01*
X68864083Y39563400D01*
G37*
X68864083Y39563400D02*
X68584083Y39563400D01*
X68584083Y40063400D01*
X68864083Y40063400D01*
X68864083Y39563400D01*
%TO.C,IC2*%
G36*
X104808401Y40325400D02*
G01*
X104528401Y40325400D01*
X104528401Y40825400D01*
X104808401Y40825400D01*
X104808401Y40325400D01*
G37*
X104808401Y40325400D02*
X104528401Y40325400D01*
X104528401Y40825400D01*
X104808401Y40825400D01*
X104808401Y40325400D01*
G36*
X108128399Y40325400D02*
G01*
X107848399Y40325400D01*
X107848399Y40825400D01*
X108128399Y40825400D01*
X108128399Y40325400D01*
G37*
X108128399Y40325400D02*
X107848399Y40325400D01*
X107848399Y40825400D01*
X108128399Y40825400D01*
X108128399Y40325400D01*
%TD*%
D11*
%TO.C,J5-J7*%
X127914400Y24683400D03*
X127914400Y27223400D03*
X125374400Y24683400D03*
X125374400Y27223400D03*
X122834400Y24683400D03*
X122834400Y27223400D03*
X120294400Y24683400D03*
X120294400Y27223400D03*
X117754400Y24683400D03*
X117754400Y27223400D03*
X115214400Y24683400D03*
X115214400Y27223400D03*
X112674400Y24683400D03*
X112674400Y27223400D03*
X110134400Y24683400D03*
X110134400Y27223400D03*
X107594400Y24683400D03*
X107594400Y27223400D03*
X105054400Y24683400D03*
D12*
X105054400Y27223400D03*
%TD*%
%TO.C,J1-J3*%
X41554400Y27223400D03*
D11*
X41554400Y24683400D03*
X44094400Y27223400D03*
X44094400Y24683400D03*
X46634400Y27223400D03*
X46634400Y24683400D03*
X49174400Y27223400D03*
X49174400Y24683400D03*
X51714400Y27223400D03*
X51714400Y24683400D03*
X54254400Y27223400D03*
X54254400Y24683400D03*
X56794400Y27223400D03*
X56794400Y24683400D03*
X59334400Y27223400D03*
X59334400Y24683400D03*
X61874400Y27223400D03*
X61874400Y24683400D03*
X64414400Y27223400D03*
X64414400Y24683400D03*
%TD*%
D12*
%TO.C,J4-J2*%
X41554400Y70403400D03*
D11*
X41554400Y67863400D03*
X44094400Y70403400D03*
X44094400Y67863400D03*
X46634400Y70403400D03*
X46634400Y67863400D03*
X49174400Y70403400D03*
X49174400Y67863400D03*
X51714400Y70403400D03*
X51714400Y67863400D03*
X54254400Y70403400D03*
X54254400Y67863400D03*
X56794400Y70403400D03*
X56794400Y67863400D03*
X59334400Y70403400D03*
X59334400Y67863400D03*
X61874400Y70403400D03*
X61874400Y67863400D03*
X64414400Y70403400D03*
X64414400Y67863400D03*
%TD*%
D12*
%TO.C,J8-J6*%
X105054400Y70403400D03*
D11*
X105054400Y67863400D03*
X107594400Y70403400D03*
X107594400Y67863400D03*
X110134400Y70403400D03*
X110134400Y67863400D03*
X112674400Y70403400D03*
X112674400Y67863400D03*
X115214400Y70403400D03*
X115214400Y67863400D03*
X117754400Y70403400D03*
X117754400Y67863400D03*
X120294400Y70403400D03*
X120294400Y67863400D03*
X122834400Y70403400D03*
X122834400Y67863400D03*
X125374400Y70403400D03*
X125374400Y67863400D03*
X127914400Y70403400D03*
X127914400Y67863400D03*
%TD*%
D13*
%TO.C,D2*%
X135153400Y63579400D03*
X135153400Y61479400D03*
%TD*%
D14*
%TO.C,C5*%
X54891700Y46070200D03*
X53236100Y46070200D03*
%TD*%
D13*
%TO.C,D1*%
X135137460Y12037313D03*
X135137460Y9937313D03*
%TD*%
D15*
%TO.C,IC1*%
X53716974Y43111100D03*
X53066963Y43111100D03*
X52416951Y43111100D03*
X51766940Y43111100D03*
X51116928Y43111100D03*
X50466917Y43111100D03*
X49816906Y43111100D03*
X49166894Y43111100D03*
X48516883Y43111100D03*
X47866872Y43111100D03*
X47216860Y43111100D03*
X46566849Y43111100D03*
X45916837Y43111100D03*
X45266826Y43111100D03*
X45266826Y37167500D03*
X45916837Y37167500D03*
X46566849Y37167500D03*
X47216860Y37167500D03*
X47866872Y37167500D03*
X48516883Y37167500D03*
X49166894Y37167500D03*
X49816906Y37167500D03*
X50466917Y37167500D03*
X51116928Y37167500D03*
X51766940Y37167500D03*
X52416951Y37167500D03*
X53066963Y37167500D03*
X53716974Y37167500D03*
D16*
X49491900Y40139300D03*
%TD*%
D15*
%TO.C,IC3*%
X74609156Y42785200D03*
X73959145Y42785200D03*
X73309133Y42785200D03*
X72659122Y42785200D03*
X72009110Y42785200D03*
X71359099Y42785200D03*
X70709088Y42785200D03*
X70059076Y42785200D03*
X69409065Y42785200D03*
X68759054Y42785200D03*
X68109042Y42785200D03*
X67459031Y42785200D03*
X66809019Y42785200D03*
X66159008Y42785200D03*
X66159008Y36841600D03*
X66809019Y36841600D03*
X67459031Y36841600D03*
X68109042Y36841600D03*
X68759054Y36841600D03*
X69409065Y36841600D03*
X70059076Y36841600D03*
X70709088Y36841600D03*
X71359099Y36841600D03*
X72009110Y36841600D03*
X72659122Y36841600D03*
X73309133Y36841600D03*
X73959145Y36841600D03*
X74609156Y36841600D03*
D16*
X70384082Y39813400D03*
%TD*%
D15*
%TO.C,IC2*%
X110553474Y43547200D03*
X109903463Y43547200D03*
X109253451Y43547200D03*
X108603440Y43547200D03*
X107953428Y43547200D03*
X107303417Y43547200D03*
X106653406Y43547200D03*
X106003394Y43547200D03*
X105353383Y43547200D03*
X104703372Y43547200D03*
X104053360Y43547200D03*
X103403349Y43547200D03*
X102753337Y43547200D03*
X102103326Y43547200D03*
X102103326Y37603600D03*
X102753337Y37603600D03*
X103403349Y37603600D03*
X104053360Y37603600D03*
X104703372Y37603600D03*
X105353383Y37603600D03*
X106003394Y37603600D03*
X106653406Y37603600D03*
X107303417Y37603600D03*
X107953428Y37603600D03*
X108603440Y37603600D03*
X109253451Y37603600D03*
X109903463Y37603600D03*
X110553474Y37603600D03*
D16*
X106328400Y40575400D03*
%TD*%
D17*
%TO.C,TP3*%
X40411400Y31826200D03*
%TD*%
%TO.C,TP2*%
X36271200Y31369000D03*
%TD*%
%TO.C,TP5*%
X78130400Y76708000D03*
%TD*%
%TO.C,TP6*%
X78130400Y81737200D03*
%TD*%
%TO.C,TP1*%
X75692000Y25044400D03*
%TD*%
D18*
%TO.C,JP2*%
X111531400Y56667400D03*
X111531400Y54127400D03*
%TD*%
D17*
%TO.C,TP15*%
X135915400Y5379400D03*
%TD*%
D19*
%TO.C,J21*%
X42979400Y4851400D03*
X46479400Y4851400D03*
%TD*%
D20*
%TO.C,R74*%
X47438400Y10947400D03*
X46338400Y10947400D03*
%TD*%
D21*
%TO.C,R14*%
X112599400Y37955400D03*
X112599400Y35555400D03*
%TD*%
D19*
%TO.C,J9*%
X110543400Y4851400D03*
X114043400Y4851400D03*
%TD*%
D22*
%TO.C,R64*%
X99685367Y78257400D03*
X102085367Y78257400D03*
%TD*%
D23*
%TO.C,R52*%
X31394400Y28473400D03*
X29494400Y28473400D03*
%TD*%
D24*
%TO.C,C13*%
X88925400Y11195400D03*
X88925400Y13995400D03*
%TD*%
D25*
%TO.C,J6*%
X159944400Y84323499D03*
X159944400Y86823499D03*
X159944400Y88823500D03*
X159944400Y91323500D03*
D26*
X162654400Y81253500D03*
X162654400Y94393499D03*
%TD*%
D21*
%TO.C,R11*%
X100003122Y45297212D03*
X100003122Y42897212D03*
%TD*%
D27*
%TO.C,R13*%
X102335400Y33469400D03*
X102335400Y35869400D03*
%TD*%
D21*
%TO.C,R45*%
X10618400Y29339400D03*
X10618400Y26939400D03*
%TD*%
D18*
%TO.C,JP15*%
X28620400Y74193400D03*
X31160400Y74193400D03*
%TD*%
D28*
%TO.C,J18*%
X21443392Y84736514D03*
D29*
X25253392Y84736514D03*
X29063392Y84736514D03*
X32873392Y84736514D03*
%TD*%
D24*
%TO.C,C39*%
X65839400Y11195400D03*
X65839400Y13995400D03*
%TD*%
D30*
%TO.C,LED1*%
X24536400Y30546400D03*
X23736400Y29276400D03*
X24536400Y28006400D03*
X23736400Y26736400D03*
%TD*%
D31*
%TO.C,C28*%
X153187400Y22631400D03*
X153187400Y20131400D03*
%TD*%
D32*
%TO.C,U12*%
X96799400Y11264900D03*
X96799400Y12661900D03*
%TD*%
D33*
%TO.C,C35*%
X148869400Y85201200D03*
X148869400Y83545600D03*
%TD*%
D28*
%TO.C,J4*%
X44239400Y92309400D03*
D29*
X48049400Y92309400D03*
X51859400Y92309400D03*
X55669400Y92309400D03*
%TD*%
D20*
%TO.C,R17*%
X92523400Y10947400D03*
X91423400Y10947400D03*
%TD*%
D18*
%TO.C,JP20*%
X60604400Y19817400D03*
X60604400Y17277400D03*
%TD*%
D22*
%TO.C,R67*%
X27736814Y80320856D03*
X30136814Y80320856D03*
%TD*%
D29*
%TO.C,J16*%
X16096153Y84736514D03*
X12286153Y84736514D03*
X8476153Y84736514D03*
D28*
X4666153Y84736514D03*
%TD*%
D22*
%TO.C,R63*%
X19903916Y80320856D03*
X22303916Y80320856D03*
%TD*%
D34*
%TO.C,R54*%
X92415863Y81928712D03*
X92415863Y83828712D03*
%TD*%
D35*
%TO.C,HS1*%
X125374400Y45003400D03*
%TD*%
D36*
%TO.C,J14*%
X32089153Y94191050D03*
D29*
X28279153Y94191050D03*
X24469153Y94191050D03*
X20659153Y94191050D03*
%TD*%
D37*
%TO.C,R43*%
X135153400Y65997400D03*
X135153400Y67697400D03*
%TD*%
D38*
%TO.C,R25*%
X16154400Y62069400D03*
X16154400Y68069400D03*
%TD*%
D24*
%TO.C,C16*%
X76987400Y11195400D03*
X76987400Y13995400D03*
%TD*%
D39*
%TO.C,C31*%
X8531400Y31795400D03*
X11331400Y31795400D03*
%TD*%
%TO.C,C15*%
X8404400Y64287400D03*
X11204400Y64287400D03*
%TD*%
D40*
%TO.C,IC5*%
X36093179Y86234991D03*
X36743179Y86234991D03*
X37393179Y86234991D03*
X38043179Y86234991D03*
X38693179Y86234991D03*
X39343179Y86234991D03*
X39993179Y86234991D03*
X40643179Y86234991D03*
X40643179Y92110991D03*
X39993179Y92110991D03*
X39343179Y92110991D03*
X38693179Y92110991D03*
X38043179Y92110991D03*
X37393179Y92110991D03*
X36743179Y92110991D03*
X36093179Y92110991D03*
%TD*%
D41*
%TO.C,R35*%
X74260082Y48584300D03*
X76160082Y48584300D03*
%TD*%
D21*
%TO.C,R24*%
X10618400Y61851400D03*
X10618400Y59451400D03*
%TD*%
D42*
%TO.C,D3*%
X151663400Y27359400D03*
X151663400Y31659400D03*
%TD*%
D17*
%TO.C,TP7*%
X91008200Y30048200D03*
%TD*%
D18*
%TO.C,JP10*%
X127807400Y21381400D03*
X130347400Y21381400D03*
%TD*%
%TO.C,JP13*%
X105181400Y21087400D03*
X105181400Y18547400D03*
%TD*%
D39*
%TO.C,C14*%
X8658400Y48031400D03*
X11458400Y48031400D03*
%TD*%
D43*
%TO.C,R6*%
X47480400Y34644400D03*
X45080400Y34644400D03*
%TD*%
D38*
%TO.C,R31*%
X18186400Y15587400D03*
X18186400Y21587400D03*
%TD*%
D44*
%TO.C,R79*%
X68938400Y19329400D03*
X62938400Y19329400D03*
%TD*%
D45*
%TO.C,U11*%
X8724900Y34843400D03*
X10121900Y34843400D03*
%TD*%
D33*
%TO.C,C34*%
X38599410Y83010042D03*
X38599410Y81354442D03*
%TD*%
D22*
%TO.C,R81*%
X57472400Y14428400D03*
X59872400Y14428400D03*
%TD*%
%TO.C,R75*%
X46197400Y14428400D03*
X48597400Y14428400D03*
%TD*%
D18*
%TO.C,JP8*%
X116639400Y21087400D03*
X116639400Y18547400D03*
%TD*%
D44*
%TO.C,R28*%
X80241400Y19329400D03*
X74241400Y19329400D03*
%TD*%
D20*
%TO.C,R26*%
X80839400Y10947400D03*
X79739400Y10947400D03*
%TD*%
D28*
%TO.C,J19*%
X101069863Y82966400D03*
D29*
X104879863Y82966400D03*
X108689863Y82966400D03*
X112499863Y82966400D03*
%TD*%
D18*
%TO.C,JP18*%
X49428400Y20071400D03*
X49428400Y17531400D03*
%TD*%
D20*
%TO.C,R71*%
X35754400Y10947400D03*
X34654400Y10947400D03*
%TD*%
D46*
%TO.C,IC4*%
X146681400Y54596400D03*
X144981400Y54596400D03*
X143281400Y54596400D03*
X141581400Y54596400D03*
X139881400Y54596400D03*
D47*
X143281400Y41381400D03*
D48*
X143281400Y44876400D03*
%TD*%
D19*
%TO.C,J23*%
X54203400Y4851400D03*
X57703400Y4851400D03*
%TD*%
D18*
%TO.C,JP11*%
X135153400Y72923400D03*
X135153400Y70383400D03*
%TD*%
D22*
%TO.C,R72*%
X34612400Y14428400D03*
X37012400Y14428400D03*
%TD*%
D24*
%TO.C,C37*%
X32156400Y11195400D03*
X32156400Y13995400D03*
%TD*%
D23*
%TO.C,R50*%
X31394400Y30759400D03*
X29494400Y30759400D03*
%TD*%
D49*
%TO.C,C30*%
X162331400Y75578650D03*
X162331400Y66485450D03*
%TD*%
D22*
%TO.C,R48*%
X102684400Y14428400D03*
X105084400Y14428400D03*
%TD*%
D17*
%TO.C,TP4*%
X96367600Y29768800D03*
%TD*%
D24*
%TO.C,C32*%
X100101400Y11195400D03*
X100101400Y13995400D03*
%TD*%
D44*
%TO.C,R19*%
X91925400Y19329400D03*
X85925400Y19329400D03*
%TD*%
D50*
%TO.C,U13*%
X94907100Y83743800D03*
X94907100Y82346800D03*
%TD*%
D17*
%TO.C,TP14*%
X171348400Y75717400D03*
%TD*%
D20*
%TO.C,R32*%
X114649400Y10947400D03*
X113549400Y10947400D03*
%TD*%
D32*
%TO.C,U17*%
X63045400Y11264900D03*
X63045400Y12661900D03*
%TD*%
D51*
%TO.C,U7*%
X3251200Y19309400D03*
X8483600Y16809400D03*
X3251200Y14309400D03*
%TD*%
D22*
%TO.C,R57*%
X7621153Y80320856D03*
X10021153Y80320856D03*
%TD*%
D45*
%TO.C,U4*%
X8890000Y51092100D03*
X10287000Y51092100D03*
%TD*%
D28*
%TO.C,J3*%
X61003400Y92309400D03*
D29*
X64813400Y92309400D03*
X68623400Y92309400D03*
X72433400Y92309400D03*
%TD*%
D52*
%TO.C,C2*%
X41617900Y39688200D03*
X41617900Y35688200D03*
%TD*%
D22*
%TO.C,R18*%
X91381400Y14428400D03*
X93781400Y14428400D03*
%TD*%
D14*
%TO.C,C23*%
X75275882Y45790300D03*
X73620282Y45790300D03*
%TD*%
D22*
%TO.C,R70*%
X111140011Y78257400D03*
X113540011Y78257400D03*
%TD*%
D53*
%TO.C,L2*%
X146964400Y76410500D03*
X146964400Y61373700D03*
%TD*%
D14*
%TO.C,C26*%
X141569200Y57957400D03*
X139913600Y57957400D03*
%TD*%
D54*
%TO.C,C17*%
X12217400Y18971400D03*
X12217400Y16171400D03*
%TD*%
D55*
%TO.C,R12*%
X98046122Y43247212D03*
X98046122Y45147212D03*
%TD*%
D56*
%TO.C,R23*%
X8661400Y59947400D03*
X8661400Y61047400D03*
%TD*%
D44*
%TO.C,R73*%
X35791400Y19329400D03*
X29791400Y19329400D03*
%TD*%
%TO.C,R34*%
X114051400Y19329400D03*
X108051400Y19329400D03*
%TD*%
D31*
%TO.C,C19*%
X62484000Y48940400D03*
X62484000Y51440400D03*
%TD*%
%TO.C,R16*%
X117754400Y15265400D03*
D57*
X127914400Y15265400D03*
%TD*%
D21*
%TO.C,R30*%
X13412400Y14353400D03*
X13412400Y11953400D03*
%TD*%
D32*
%TO.C,U16*%
X40693400Y11264900D03*
X40693400Y12661900D03*
%TD*%
D20*
%TO.C,R77*%
X69437400Y10947400D03*
X68337400Y10947400D03*
%TD*%
D58*
%TO.C,C21*%
X76733400Y54223400D03*
X76733400Y53563400D03*
%TD*%
D18*
%TO.C,JP12*%
X15753400Y26969400D03*
X13213400Y26969400D03*
%TD*%
D43*
%TO.C,R41*%
X76944400Y34898400D03*
X74544400Y34898400D03*
%TD*%
D59*
%TO.C,R42*%
X134645400Y20783400D03*
X134645400Y15883400D03*
%TD*%
D22*
%TO.C,R33*%
X113253400Y14428400D03*
X115653400Y14428400D03*
%TD*%
D60*
%TO.C,S2*%
X4851400Y66295400D03*
X4851400Y59895400D03*
%TD*%
D19*
%TO.C,J2*%
X149405400Y90431400D03*
X152905400Y90431400D03*
%TD*%
D44*
%TO.C,R49*%
X102847400Y19329400D03*
X96847400Y19329400D03*
%TD*%
D18*
%TO.C,JP14*%
X27056400Y23393400D03*
X24516400Y23393400D03*
%TD*%
D61*
%TO.C,C25*%
X139913600Y21381400D03*
X141569200Y21381400D03*
%TD*%
D60*
%TO.C,S1*%
X4851400Y49785400D03*
X4851400Y43385400D03*
%TD*%
D62*
%TO.C,L1*%
X146075400Y5163500D03*
X146075400Y15247300D03*
%TD*%
D63*
%TO.C,C33*%
X90576400Y86510100D03*
X90576400Y88165700D03*
%TD*%
D29*
%TO.C,J12*%
X3886153Y94191050D03*
X7696153Y94191050D03*
X11506153Y94191050D03*
D36*
X15316153Y94191050D03*
%TD*%
D64*
%TO.C,R9*%
X108714122Y52884012D03*
X108714122Y48210412D03*
%TD*%
D18*
%TO.C,JP4*%
X15753400Y42971400D03*
X13213400Y42971400D03*
%TD*%
D55*
%TO.C,R5*%
X41071800Y42255400D03*
X41071800Y44155400D03*
%TD*%
D64*
%TO.C,R3*%
X47713900Y52979000D03*
X47713900Y48305400D03*
%TD*%
D18*
%TO.C,JP16*%
X94894400Y73705400D03*
X94894400Y76245400D03*
%TD*%
%TO.C,JP5*%
X15753400Y59481400D03*
X13213400Y59481400D03*
%TD*%
D23*
%TO.C,R51*%
X31394400Y26441400D03*
X29494400Y26441400D03*
%TD*%
D28*
%TO.C,J17*%
X117570863Y82966400D03*
D29*
X121380863Y82966400D03*
X125190863Y82966400D03*
X129000863Y82966400D03*
%TD*%
D50*
%TO.C,U14*%
X40669367Y82911067D03*
X40669367Y81514067D03*
%TD*%
D31*
%TO.C,C1*%
X42379900Y48630200D03*
X42379900Y51130200D03*
%TD*%
%TO.C,C27*%
X160553400Y58231400D03*
X160553400Y60731400D03*
%TD*%
D41*
%TO.C,R1*%
X54129900Y49118200D03*
X56029900Y49118200D03*
%TD*%
D18*
%TO.C,JP9*%
X74701400Y56667400D03*
X74701400Y54127400D03*
%TD*%
D17*
%TO.C,TP10*%
X169951400Y23413400D03*
%TD*%
D45*
%TO.C,U1*%
X124294900Y18841400D03*
X125691900Y18841400D03*
%TD*%
D22*
%TO.C,R69*%
X31730189Y80320856D03*
X34130189Y80320856D03*
%TD*%
D21*
%TO.C,R38*%
X64213082Y44096300D03*
X64213082Y41696300D03*
%TD*%
D65*
%TO.C,C10*%
X101602122Y46229212D03*
X102262122Y46229212D03*
%TD*%
D17*
%TO.C,TP9*%
X80264000Y30581600D03*
%TD*%
D21*
%TO.C,R4*%
X43230800Y44376200D03*
X43230800Y41976200D03*
%TD*%
D66*
%TO.C,C3*%
X56933900Y51404200D03*
X56273900Y51404200D03*
%TD*%
D44*
%TO.C,R82*%
X57917400Y19329400D03*
X51917400Y19329400D03*
%TD*%
D45*
%TO.C,U8*%
X11772900Y21127400D03*
X13169900Y21127400D03*
%TD*%
D18*
%TO.C,JP7*%
X18166400Y12471400D03*
X15626400Y12471400D03*
%TD*%
D67*
%TO.C,U2*%
X121246900Y18821400D03*
X119849900Y18821400D03*
%TD*%
D68*
%TO.C,C29*%
X159283400Y5658800D03*
X159283400Y14752000D03*
%TD*%
D19*
%TO.C,J7*%
X87937400Y4851400D03*
X91437400Y4851400D03*
%TD*%
D56*
%TO.C,R20*%
X8661400Y43183400D03*
X8661400Y44283400D03*
%TD*%
D17*
%TO.C,TP12*%
X169951400Y15285400D03*
%TD*%
D22*
%TO.C,R61*%
X15597304Y80320856D03*
X17997304Y80320856D03*
%TD*%
D43*
%TO.C,R7*%
X56370400Y34898400D03*
X53970400Y34898400D03*
%TD*%
D65*
%TO.C,C22*%
X65990082Y45536300D03*
X66650082Y45536300D03*
%TD*%
D38*
%TO.C,R46*%
X16154400Y29557400D03*
X16154400Y35557400D03*
%TD*%
D64*
%TO.C,R37*%
X67844082Y53207100D03*
X67844082Y48533500D03*
%TD*%
D17*
%TO.C,TP11*%
X169951400Y7356135D03*
%TD*%
D18*
%TO.C,JP1*%
X54038500Y56667400D03*
X54038500Y54127400D03*
%TD*%
D24*
%TO.C,C38*%
X43586400Y11195400D03*
X43586400Y13995400D03*
%TD*%
D64*
%TO.C,R10*%
X105412122Y52884012D03*
X105412122Y48210412D03*
%TD*%
D38*
%TO.C,R22*%
X16154400Y45285400D03*
X16154400Y51285400D03*
%TD*%
D17*
%TO.C,TP8*%
X85674200Y30302200D03*
%TD*%
D52*
%TO.C,C8*%
X98554122Y40609212D03*
X98554122Y36609212D03*
%TD*%
D68*
%TO.C,C36*%
X139725400Y84278150D03*
X139725400Y93371350D03*
%TD*%
D18*
%TO.C,JP6*%
X82575400Y21087400D03*
X82575400Y18547400D03*
%TD*%
D31*
%TO.C,R15*%
X117754400Y11963400D03*
D57*
X127914400Y11963400D03*
%TD*%
D31*
%TO.C,C7*%
X99062122Y50059212D03*
X99062122Y52559212D03*
%TD*%
D40*
%TO.C,IC6*%
X92172863Y86544712D03*
X92822863Y86544712D03*
X93472863Y86544712D03*
X94122863Y86544712D03*
X94772863Y86544712D03*
X95422863Y86544712D03*
X96072863Y86544712D03*
X96722863Y86544712D03*
X96722863Y92420712D03*
X96072863Y92420712D03*
X95422863Y92420712D03*
X94772863Y92420712D03*
X94122863Y92420712D03*
X93472863Y92420712D03*
X92822863Y92420712D03*
X92172863Y92420712D03*
%TD*%
D52*
%TO.C,C20*%
X62510082Y39154300D03*
X62510082Y35154300D03*
%TD*%
D18*
%TO.C,JP3*%
X94259400Y21087400D03*
X94259400Y18547400D03*
%TD*%
D22*
%TO.C,R66*%
X103469761Y78257400D03*
X105869761Y78257400D03*
%TD*%
D20*
%TO.C,R80*%
X59023400Y10947400D03*
X57923400Y10947400D03*
%TD*%
D22*
%TO.C,R78*%
X68295400Y14428400D03*
X70695400Y14428400D03*
%TD*%
D58*
%TO.C,C12*%
X112016122Y44273212D03*
X112016122Y43613212D03*
%TD*%
D69*
%TO.C,D4*%
X151663400Y51471400D03*
X151663400Y47171400D03*
%TD*%
D24*
%TO.C,C18*%
X110797400Y11195400D03*
X110797400Y13995400D03*
%TD*%
D22*
%TO.C,R58*%
X120204823Y78257400D03*
X122604823Y78257400D03*
%TD*%
D41*
%TO.C,R8*%
X111828122Y49023212D03*
X113728122Y49023212D03*
%TD*%
D19*
%TO.C,J1*%
X121973400Y4851400D03*
X125473400Y4851400D03*
%TD*%
D45*
%TO.C,U5*%
X8890000Y67348100D03*
X10287000Y67348100D03*
%TD*%
D70*
%TO.C,F1*%
X167926400Y34838700D03*
X158006400Y34838700D03*
X158006400Y28778700D03*
X167926400Y28778700D03*
%TD*%
D22*
%TO.C,R60*%
X124090920Y78257400D03*
X126490920Y78257400D03*
%TD*%
%TO.C,R68*%
X107317863Y78257400D03*
X109717863Y78257400D03*
%TD*%
D64*
%TO.C,R2*%
X51015900Y52979000D03*
X51015900Y48305400D03*
%TD*%
D71*
%TO.C,IC7*%
X146337400Y85211400D03*
X146837400Y85211400D03*
X147337400Y85211400D03*
X147337400Y83535400D03*
X146837400Y83535400D03*
X146337400Y83535400D03*
%TD*%
D19*
%TO.C,J22*%
X65359400Y4851400D03*
X68859400Y4851400D03*
%TD*%
D32*
%TO.C,U9*%
X108102400Y11264900D03*
X108102400Y12661900D03*
%TD*%
D72*
%TO.C,R47*%
X102726400Y10947400D03*
X103826400Y10947400D03*
%TD*%
D19*
%TO.C,J11*%
X99113400Y4851400D03*
X102613400Y4851400D03*
%TD*%
D22*
%TO.C,R55*%
X3837541Y80320856D03*
X6237541Y80320856D03*
%TD*%
D24*
%TO.C,C40*%
X55016400Y11195400D03*
X55016400Y13995400D03*
%TD*%
D65*
%TO.C,C4*%
X44843900Y45562200D03*
X45503900Y45562200D03*
%TD*%
D32*
%TO.C,U18*%
X51714400Y11264900D03*
X51714400Y12661900D03*
%TD*%
D28*
%TO.C,J5*%
X77758400Y92309400D03*
D29*
X81568400Y92309400D03*
X85378400Y92309400D03*
X89188400Y92309400D03*
%TD*%
D22*
%TO.C,R62*%
X128022077Y78257400D03*
X130422077Y78257400D03*
%TD*%
D60*
%TO.C,S3*%
X4851400Y33529400D03*
X4851400Y27129400D03*
%TD*%
D73*
%TO.C,U10*%
X143281400Y32811400D03*
D74*
X146685000Y24531000D03*
X144983200Y24531000D03*
X143281400Y24531000D03*
X141579600Y24531000D03*
X139877800Y24531000D03*
%TD*%
D32*
%TO.C,U6*%
X74180700Y11264900D03*
X74180700Y12661900D03*
%TD*%
D22*
%TO.C,R56*%
X116426222Y78257400D03*
X118826222Y78257400D03*
%TD*%
D58*
%TO.C,C6*%
X55079900Y43860200D03*
X55079900Y43200200D03*
%TD*%
D36*
%TO.C,J15*%
X111719863Y92556400D03*
D29*
X107909863Y92556400D03*
X104099863Y92556400D03*
X100289863Y92556400D03*
%TD*%
D21*
%TO.C,R21*%
X10618400Y45341400D03*
X10618400Y42941400D03*
%TD*%
D65*
%TO.C,C9*%
X113614400Y51587400D03*
X114274400Y51587400D03*
%TD*%
D14*
%TO.C,C11*%
X111827922Y46229212D03*
X110172322Y46229212D03*
%TD*%
D18*
%TO.C,JP19*%
X71272400Y21087400D03*
X71272400Y18547400D03*
%TD*%
D19*
%TO.C,J20*%
X31803400Y4851400D03*
X35303400Y4851400D03*
%TD*%
D27*
%TO.C,R40*%
X66267400Y32961400D03*
X66267400Y35361400D03*
%TD*%
D34*
%TO.C,R53*%
X36423566Y81160976D03*
X36423566Y83060976D03*
%TD*%
D55*
%TO.C,R39*%
X62002082Y42046300D03*
X62002082Y43946300D03*
%TD*%
D22*
%TO.C,R59*%
X11623625Y80320856D03*
X14023625Y80320856D03*
%TD*%
D44*
%TO.C,R76*%
X46487400Y19329400D03*
X40487400Y19329400D03*
%TD*%
D32*
%TO.C,U3*%
X86017100Y11264900D03*
X86017100Y12661900D03*
%TD*%
%TO.C,U15*%
X29362400Y11264900D03*
X29362400Y12661900D03*
%TD*%
D58*
%TO.C,C24*%
X75972082Y43834300D03*
X75972082Y43174300D03*
%TD*%
D19*
%TO.C,J8*%
X76507400Y4851400D03*
X80007400Y4851400D03*
%TD*%
D56*
%TO.C,R29*%
X11455400Y12703400D03*
X11455400Y13803400D03*
%TD*%
%TO.C,R44*%
X8661400Y27181400D03*
X8661400Y28281400D03*
%TD*%
D64*
%TO.C,R36*%
X71146082Y53207100D03*
X71146082Y48533500D03*
%TD*%
D18*
%TO.C,JP17*%
X38252400Y19817400D03*
X38252400Y17277400D03*
%TD*%
D22*
%TO.C,R27*%
X79443400Y14428400D03*
X81843400Y14428400D03*
%TD*%
D35*
%TO.C,HS2*%
X28346400Y48539400D03*
%TD*%
D22*
%TO.C,R65*%
X23947613Y80320856D03*
X26347613Y80320856D03*
%TD*%
D28*
%TO.C,J13*%
X117570863Y91156400D03*
D29*
X121380863Y91156400D03*
X125190863Y91156400D03*
X129000863Y91156400D03*
%TD*%
D75*
%TO.C,J10*%
X158947400Y47035400D03*
D76*
X164947400Y47035400D03*
D77*
X165947400Y51535400D03*
X165947400Y42535400D03*
%TD*%
D17*
%TO.C,TP13*%
X162077400Y21127400D03*
%TD*%
D78*
X72415400Y45770800D03*
X69330582Y46101000D03*
X66116200Y29489400D03*
X33909000Y58750200D03*
X35458400Y59207400D03*
X134010400Y53365400D03*
D79*
X106250322Y40664300D03*
X102211722Y40664300D03*
X110898522Y40664300D03*
D78*
X68732400Y24866600D03*
X71170800Y27203400D03*
X111683800Y30480000D03*
X109347000Y30480000D03*
X104876600Y31267400D03*
X106527600Y33045400D03*
X67157600Y26187400D03*
X69494400Y32791400D03*
D79*
X34188400Y42519600D03*
X31292800Y51562000D03*
X25628600Y45567600D03*
X25679400Y51562000D03*
X31292800Y45567600D03*
X22885400Y54432200D03*
X28524200Y54432200D03*
X22885400Y48437800D03*
X34188400Y54432200D03*
X34188400Y48437800D03*
X22885400Y42519600D03*
X28524200Y48437800D03*
X28524200Y42519600D03*
D78*
X44157900Y46324200D03*
X100840122Y47245212D03*
X97180400Y83591400D03*
D79*
X125374400Y45237400D03*
X65989882Y39719700D03*
X131038600Y45237400D03*
X131038600Y51231800D03*
X125374400Y51231800D03*
D78*
X65050082Y46298300D03*
X148869400Y82067400D03*
X33426400Y78079600D03*
D79*
X140436600Y35757800D03*
X119735600Y51231800D03*
D80*
X40551604Y84400035D03*
D79*
X125374400Y39319200D03*
X119735600Y39319200D03*
X119735600Y45237400D03*
X146075400Y35757800D03*
X53784500Y40177400D03*
D78*
X122834400Y16535400D03*
D79*
X140436600Y29839600D03*
X143179800Y45917800D03*
X128143000Y42367200D03*
X146075400Y29839600D03*
X49593500Y40177400D03*
X70485682Y39719700D03*
X140436600Y48788000D03*
X74676682Y39719700D03*
D78*
X76733400Y52115400D03*
D79*
X122529600Y48361600D03*
X45097700Y40177400D03*
X140436600Y42869800D03*
D78*
X132486400Y87147400D03*
D79*
X143179800Y32887600D03*
D78*
X29870400Y23393400D03*
D79*
X122478800Y42367200D03*
X128143000Y48361600D03*
X146075400Y48788000D03*
X146075400Y42869800D03*
X131038600Y39319200D03*
D78*
X45034200Y33070800D03*
X55270400Y33299400D03*
X112599400Y36676400D03*
X102260400Y34569400D03*
X90322400Y74955400D03*
X130962400Y73939400D03*
X134010400Y58191400D03*
X31648400Y67843400D03*
X19964400Y68097400D03*
X31648400Y66319400D03*
X51777900Y45308200D03*
X39796400Y58211400D03*
X38760400Y58191400D03*
X51777900Y46578200D03*
X36220400Y58445400D03*
X50253900Y45308200D03*
X50253900Y46578200D03*
X48729900Y45308200D03*
X34716400Y57957400D03*
X48729900Y46578200D03*
X38780400Y54909400D03*
X47205900Y46578200D03*
X37744400Y54889400D03*
X47205900Y45308200D03*
X41808400Y37871400D03*
X62636400Y37109400D03*
X98704400Y38887400D03*
X57810400Y34814095D03*
X47548800Y31304900D03*
X58826400Y58191400D03*
X58826400Y55143400D03*
X67767200Y33045400D03*
X48412400Y33045400D03*
X104546400Y36093400D03*
X57810400Y55143400D03*
X57810400Y58191400D03*
X108714122Y45721212D03*
X100355400Y60497400D03*
X99593400Y61259400D03*
X108676622Y46737212D03*
X107190122Y46483212D03*
X87909400Y87929400D03*
X107190122Y45467212D03*
X98577400Y60497400D03*
X87909400Y86659400D03*
X97815400Y61259400D03*
X105412122Y46483212D03*
X95529400Y61259400D03*
X86639400Y84881400D03*
X86639400Y86151400D03*
X105412122Y45467212D03*
X96291400Y60497400D03*
X94767400Y60243400D03*
X103888122Y45721212D03*
X94005400Y61005400D03*
X103888122Y46737212D03*
X110358400Y35660400D03*
X72415400Y61259400D03*
X72415400Y60243400D03*
X72416082Y46806300D03*
X71145400Y61259400D03*
X71145400Y86913400D03*
X70764400Y47142400D03*
X71145400Y88183400D03*
X70739000Y46075600D03*
X71145400Y60243400D03*
X69367400Y84881400D03*
X69367400Y86151400D03*
X69367400Y61259400D03*
X69368082Y47060300D03*
X69367400Y60243400D03*
X67589400Y61259400D03*
X67590082Y46044300D03*
X67590082Y47060300D03*
X67589400Y60243400D03*
X64414400Y32283400D03*
X70510400Y32791400D03*
X71526400Y32791400D03*
X100609400Y28600400D03*
X74676000Y33324800D03*
X75844400Y34823400D03*
X66192400Y34315400D03*
X129184400Y18821400D03*
X101498400Y25933400D03*
X43078400Y85115400D03*
X43078400Y83845400D03*
X42570400Y82829400D03*
X109880400Y86385400D03*
X110642400Y81051400D03*
X109880400Y90703400D03*
X110642400Y75971400D03*
X106324400Y85877400D03*
X106832400Y81051400D03*
X106324400Y89941400D03*
X106832400Y75971400D03*
X103022400Y85877400D03*
X103022400Y81051400D03*
X103022400Y75971400D03*
X96164400Y90195400D03*
X132486400Y80797400D03*
X145948400Y82321400D03*
X133756400Y80035400D03*
X146964400Y82067400D03*
X89814400Y55143400D03*
X88544400Y55143400D03*
X91084400Y55143400D03*
X63398400Y31521400D03*
X114452400Y55143400D03*
X115780400Y55143400D03*
X117246400Y55143400D03*
G36*
X58424362Y11331251D02*
G01*
X58461434Y11306480D01*
X58507694Y11315683D01*
X58520365Y11328354D01*
X58522297Y11328872D01*
X58523711Y11327458D01*
X58523442Y11325829D01*
X58509486Y11304942D01*
X58498000Y11247201D01*
X58498000Y10647599D01*
X58509486Y10589858D01*
X58525212Y10566323D01*
X58525343Y10564327D01*
X58523680Y10563216D01*
X58522438Y10563549D01*
X58485366Y10588320D01*
X58439106Y10579117D01*
X58426435Y10566446D01*
X58424503Y10565928D01*
X58423089Y10567342D01*
X58423358Y10568971D01*
X58437314Y10589858D01*
X58448800Y10647599D01*
X58448800Y11247201D01*
X58437314Y11304942D01*
X58421588Y11328477D01*
X58421457Y11330473D01*
X58423120Y11331584D01*
X58424362Y11331251D01*
G37*
G36*
X80240362Y11331251D02*
G01*
X80277434Y11306480D01*
X80323694Y11315683D01*
X80336365Y11328354D01*
X80338297Y11328872D01*
X80339711Y11327458D01*
X80339442Y11325829D01*
X80325486Y11304942D01*
X80314000Y11247201D01*
X80314000Y10647599D01*
X80325486Y10589858D01*
X80341212Y10566323D01*
X80341343Y10564327D01*
X80339680Y10563216D01*
X80338438Y10563549D01*
X80301366Y10588320D01*
X80255106Y10579117D01*
X80242435Y10566446D01*
X80240503Y10565928D01*
X80239089Y10567342D01*
X80239358Y10568971D01*
X80253314Y10589858D01*
X80264800Y10647599D01*
X80264800Y11247201D01*
X80253314Y11304942D01*
X80237588Y11328477D01*
X80237457Y11330473D01*
X80239120Y11331584D01*
X80240362Y11331251D01*
G37*
G36*
X35155362Y11331251D02*
G01*
X35192434Y11306480D01*
X35238694Y11315683D01*
X35251365Y11328354D01*
X35253297Y11328872D01*
X35254711Y11327458D01*
X35254442Y11325829D01*
X35240486Y11304942D01*
X35229000Y11247201D01*
X35229000Y10647599D01*
X35240486Y10589858D01*
X35256212Y10566323D01*
X35256343Y10564327D01*
X35254680Y10563216D01*
X35253438Y10563549D01*
X35216366Y10588320D01*
X35170106Y10579117D01*
X35157435Y10566446D01*
X35155503Y10565928D01*
X35154089Y10567342D01*
X35154358Y10568971D01*
X35168314Y10589858D01*
X35179800Y10647599D01*
X35179800Y11247201D01*
X35168314Y11304942D01*
X35152588Y11328477D01*
X35152457Y11330473D01*
X35154120Y11331584D01*
X35155362Y11331251D01*
G37*
G36*
X114050362Y11331251D02*
G01*
X114087434Y11306480D01*
X114133694Y11315683D01*
X114146365Y11328354D01*
X114148297Y11328872D01*
X114149711Y11327458D01*
X114149442Y11325829D01*
X114135486Y11304942D01*
X114124000Y11247201D01*
X114124000Y10647599D01*
X114135486Y10589858D01*
X114151212Y10566323D01*
X114151343Y10564327D01*
X114149680Y10563216D01*
X114148438Y10563549D01*
X114111366Y10588320D01*
X114065106Y10579117D01*
X114052435Y10566446D01*
X114050503Y10565928D01*
X114049089Y10567342D01*
X114049358Y10568971D01*
X114063314Y10589858D01*
X114074800Y10647599D01*
X114074800Y11247201D01*
X114063314Y11304942D01*
X114047588Y11328477D01*
X114047457Y11330473D01*
X114049120Y11331584D01*
X114050362Y11331251D01*
G37*
G36*
X91924362Y11331251D02*
G01*
X91961434Y11306480D01*
X92007694Y11315683D01*
X92020365Y11328354D01*
X92022297Y11328872D01*
X92023711Y11327458D01*
X92023442Y11325829D01*
X92009486Y11304942D01*
X91998000Y11247201D01*
X91998000Y10647599D01*
X92009486Y10589858D01*
X92025212Y10566323D01*
X92025343Y10564327D01*
X92023680Y10563216D01*
X92022438Y10563549D01*
X91985366Y10588320D01*
X91939106Y10579117D01*
X91926435Y10566446D01*
X91924503Y10565928D01*
X91923089Y10567342D01*
X91923358Y10568971D01*
X91937314Y10589858D01*
X91948800Y10647599D01*
X91948800Y11247201D01*
X91937314Y11304942D01*
X91921588Y11328477D01*
X91921457Y11330473D01*
X91923120Y11331584D01*
X91924362Y11331251D01*
G37*
G36*
X46839362Y11331251D02*
G01*
X46876434Y11306480D01*
X46922694Y11315683D01*
X46935365Y11328354D01*
X46937297Y11328872D01*
X46938711Y11327458D01*
X46938442Y11325829D01*
X46924486Y11304942D01*
X46913000Y11247201D01*
X46913000Y10647599D01*
X46924486Y10589858D01*
X46940212Y10566323D01*
X46940343Y10564327D01*
X46938680Y10563216D01*
X46937438Y10563549D01*
X46900366Y10588320D01*
X46854106Y10579117D01*
X46841435Y10566446D01*
X46839503Y10565928D01*
X46838089Y10567342D01*
X46838358Y10568971D01*
X46852314Y10589858D01*
X46863800Y10647599D01*
X46863800Y11247201D01*
X46852314Y11304942D01*
X46836588Y11328477D01*
X46836457Y11330473D01*
X46838120Y11331584D01*
X46839362Y11331251D01*
G37*
G36*
X68838362Y11331251D02*
G01*
X68875434Y11306480D01*
X68921694Y11315683D01*
X68934365Y11328354D01*
X68936297Y11328872D01*
X68937711Y11327458D01*
X68937442Y11325829D01*
X68923486Y11304942D01*
X68912000Y11247201D01*
X68912000Y10647599D01*
X68923486Y10589858D01*
X68939212Y10566323D01*
X68939343Y10564327D01*
X68937680Y10563216D01*
X68936438Y10563549D01*
X68899366Y10588320D01*
X68853106Y10579117D01*
X68840435Y10566446D01*
X68838503Y10565928D01*
X68837089Y10567342D01*
X68837358Y10568971D01*
X68851314Y10589858D01*
X68862800Y10647599D01*
X68862800Y11247201D01*
X68851314Y11304942D01*
X68835588Y11328477D01*
X68835457Y11330473D01*
X68837120Y11331584D01*
X68838362Y11331251D01*
G37*
G36*
X103227362Y11331251D02*
G01*
X103264434Y11306480D01*
X103310694Y11315683D01*
X103323365Y11328354D01*
X103325297Y11328872D01*
X103326711Y11327458D01*
X103326442Y11325829D01*
X103312486Y11304942D01*
X103301000Y11247201D01*
X103301000Y10647599D01*
X103312486Y10589858D01*
X103328212Y10566323D01*
X103328343Y10564327D01*
X103326680Y10563216D01*
X103325438Y10563549D01*
X103288366Y10588320D01*
X103242106Y10579117D01*
X103229435Y10566446D01*
X103227503Y10565928D01*
X103226089Y10567342D01*
X103226358Y10568971D01*
X103240314Y10589858D01*
X103251800Y10647599D01*
X103251800Y11247201D01*
X103240314Y11304942D01*
X103224588Y11328477D01*
X103224457Y11330473D01*
X103226120Y11331584D01*
X103227362Y11331251D01*
G37*
G36*
X11839584Y13303680D02*
G01*
X11839251Y13302438D01*
X11814480Y13265366D01*
X11823683Y13219106D01*
X11836354Y13206435D01*
X11836872Y13204503D01*
X11835458Y13203089D01*
X11833829Y13203358D01*
X11812942Y13217314D01*
X11755201Y13228800D01*
X11155599Y13228800D01*
X11097858Y13217314D01*
X11074323Y13201588D01*
X11072327Y13201457D01*
X11071216Y13203120D01*
X11071549Y13204362D01*
X11096320Y13241434D01*
X11087117Y13287694D01*
X11074446Y13300365D01*
X11073928Y13302297D01*
X11075342Y13303711D01*
X11076971Y13303442D01*
X11097858Y13289486D01*
X11155599Y13278000D01*
X11755201Y13278000D01*
X11812942Y13289486D01*
X11836477Y13305212D01*
X11838473Y13305343D01*
X11839584Y13303680D01*
G37*
G36*
X9045584Y27781680D02*
G01*
X9045251Y27780438D01*
X9020480Y27743366D01*
X9029683Y27697106D01*
X9042354Y27684435D01*
X9042872Y27682503D01*
X9041458Y27681089D01*
X9039829Y27681358D01*
X9018942Y27695314D01*
X8961201Y27706800D01*
X8361599Y27706800D01*
X8303858Y27695314D01*
X8280323Y27679588D01*
X8278327Y27679457D01*
X8277216Y27681120D01*
X8277549Y27682362D01*
X8302320Y27719434D01*
X8293117Y27765694D01*
X8280446Y27778365D01*
X8279928Y27780297D01*
X8281342Y27781711D01*
X8282971Y27781442D01*
X8303858Y27767486D01*
X8361599Y27756000D01*
X8961201Y27756000D01*
X9018942Y27767486D01*
X9042477Y27783212D01*
X9044473Y27783343D01*
X9045584Y27781680D01*
G37*
G36*
X67221783Y33007683D02*
G01*
X67235572Y32902950D01*
X67290554Y32770210D01*
X67364951Y32673254D01*
X67365212Y32671271D01*
X67363625Y32670053D01*
X67362018Y32670557D01*
X67348040Y32683276D01*
X67347726Y32683639D01*
X67334566Y32703223D01*
X67295107Y32729439D01*
X67249090Y32720161D01*
X67222931Y32680787D01*
X67221791Y32669060D01*
X67220628Y32667432D01*
X67218637Y32667626D01*
X67217800Y32669253D01*
X67217800Y33007422D01*
X67218800Y33009154D01*
X67220800Y33009154D01*
X67221783Y33007683D01*
G37*
G36*
X67368759Y33423621D02*
G01*
X67368383Y33422018D01*
X67290554Y33320590D01*
X67235572Y33187850D01*
X67221783Y33083117D01*
X67220565Y33081530D01*
X67218582Y33081791D01*
X67217800Y33083378D01*
X67217800Y33361201D01*
X67211707Y33391831D01*
X67212350Y33393725D01*
X67214312Y33394115D01*
X67215332Y33393332D01*
X67240101Y33356263D01*
X67286157Y33347102D01*
X67324715Y33372213D01*
X67355396Y33415869D01*
X67355717Y33416226D01*
X67365481Y33424743D01*
X67367444Y33425128D01*
X67368759Y33423621D01*
G37*
G36*
X45289302Y33693000D02*
G01*
X45289302Y33691000D01*
X45288335Y33690152D01*
X45244202Y33671872D01*
X45226238Y33628502D01*
X45244306Y33584880D01*
X45258925Y33574083D01*
X45271192Y33567588D01*
X45272255Y33565893D01*
X45271319Y33564126D01*
X45269491Y33563972D01*
X45176650Y33602428D01*
X45034200Y33621183D01*
X44891750Y33602428D01*
X44801241Y33564938D01*
X44799258Y33565199D01*
X44798493Y33567047D01*
X44799559Y33568563D01*
X44809451Y33573669D01*
X44840030Y33609854D01*
X44836101Y33656632D01*
X44800042Y33687104D01*
X44781291Y33690024D01*
X44779734Y33691278D01*
X44780041Y33693255D01*
X44781599Y33694000D01*
X45287570Y33694000D01*
X45289302Y33693000D01*
G37*
G36*
X74931102Y33947000D02*
G01*
X74931102Y33945000D01*
X74930135Y33944152D01*
X74886002Y33925872D01*
X74868038Y33882502D01*
X74886106Y33838880D01*
X74900725Y33828083D01*
X74912992Y33821588D01*
X74914055Y33819893D01*
X74913119Y33818126D01*
X74911291Y33817972D01*
X74818450Y33856428D01*
X74676000Y33875183D01*
X74533550Y33856428D01*
X74443041Y33818938D01*
X74441058Y33819199D01*
X74440293Y33821047D01*
X74441359Y33822563D01*
X74451251Y33827669D01*
X74481830Y33863854D01*
X74477901Y33910632D01*
X74441842Y33941104D01*
X74423091Y33944024D01*
X74421534Y33945278D01*
X74421841Y33947255D01*
X74423399Y33948000D01*
X74929370Y33948000D01*
X74931102Y33947000D01*
G37*
G36*
X101907498Y34152385D02*
G01*
X101985210Y34092754D01*
X102117950Y34037772D01*
X102224202Y34023783D01*
X102225789Y34022565D01*
X102225528Y34020582D01*
X102223941Y34019800D01*
X101883914Y34019800D01*
X101882182Y34020800D01*
X101882182Y34022800D01*
X101883149Y34023648D01*
X101927282Y34041928D01*
X101945236Y34085273D01*
X101924989Y34131069D01*
X101904934Y34149319D01*
X101904326Y34151224D01*
X101905672Y34152703D01*
X101907498Y34152385D01*
G37*
G36*
X102611175Y34146970D02*
G01*
X102610491Y34145188D01*
X102595425Y34132321D01*
X102573918Y34090111D01*
X102588424Y34045466D01*
X102630599Y34023977D01*
X102635142Y34023798D01*
X102636833Y34022731D01*
X102636754Y34020733D01*
X102635063Y34019800D01*
X102296859Y34019800D01*
X102295127Y34020800D01*
X102295127Y34022800D01*
X102296598Y34023783D01*
X102402850Y34037772D01*
X102535590Y34092754D01*
X102607974Y34148296D01*
X102609957Y34148557D01*
X102611175Y34146970D01*
G37*
G36*
X76393218Y34788528D02*
G01*
X76394000Y34786941D01*
X76394000Y34449295D01*
X76393000Y34447563D01*
X76391000Y34447563D01*
X76390152Y34448530D01*
X76371872Y34492663D01*
X76328502Y34510627D01*
X76284812Y34492531D01*
X76278512Y34485114D01*
X76252302Y34448640D01*
X76251977Y34448286D01*
X76244382Y34441799D01*
X76242415Y34441435D01*
X76241116Y34442955D01*
X76241496Y34444538D01*
X76321046Y34548210D01*
X76376028Y34680950D01*
X76390017Y34787202D01*
X76391235Y34788789D01*
X76393218Y34788528D01*
G37*
G36*
X76247853Y35200490D02*
G01*
X76259742Y35189897D01*
X76260060Y35189537D01*
X76277592Y35164027D01*
X76317323Y35138225D01*
X76363241Y35147985D01*
X76388990Y35187634D01*
X76390008Y35198716D01*
X76391163Y35200349D01*
X76393154Y35200166D01*
X76394000Y35198533D01*
X76394000Y34859859D01*
X76393000Y34858127D01*
X76391000Y34858127D01*
X76390017Y34859598D01*
X76376028Y34965850D01*
X76321046Y35098590D01*
X76244936Y35197779D01*
X76244675Y35199762D01*
X76246262Y35200980D01*
X76247853Y35200490D01*
G37*
G36*
X112246495Y36259387D02*
G01*
X112324210Y36199754D01*
X112456950Y36144772D01*
X112599400Y36126017D01*
X112741850Y36144772D01*
X112874590Y36199754D01*
X112946975Y36255297D01*
X112948958Y36255558D01*
X112950176Y36253971D01*
X112949492Y36252189D01*
X112909837Y36218321D01*
X112888330Y36176111D01*
X112902836Y36131466D01*
X112945011Y36109977D01*
X112949554Y36109798D01*
X112951245Y36108731D01*
X112951166Y36106733D01*
X112949475Y36105800D01*
X112248269Y36105800D01*
X112246537Y36106800D01*
X112246537Y36108800D01*
X112247504Y36109648D01*
X112291637Y36127928D01*
X112309601Y36171298D01*
X112291531Y36214925D01*
X112279859Y36223640D01*
X112279710Y36223764D01*
X112243931Y36256321D01*
X112243323Y36258226D01*
X112244669Y36259705D01*
X112246495Y36259387D01*
G37*
G36*
X70335044Y37564034D02*
G01*
X70372116Y37539263D01*
X70418376Y37548466D01*
X70431047Y37561137D01*
X70432979Y37561655D01*
X70434393Y37560241D01*
X70434124Y37558612D01*
X70417774Y37534142D01*
X70406288Y37476401D01*
X70406288Y36206799D01*
X70417774Y36149058D01*
X70435894Y36121940D01*
X70436025Y36119944D01*
X70434362Y36118833D01*
X70433120Y36119166D01*
X70396048Y36143937D01*
X70349788Y36134734D01*
X70337117Y36122063D01*
X70335185Y36121545D01*
X70333771Y36122959D01*
X70334040Y36124588D01*
X70350390Y36149058D01*
X70361876Y36206799D01*
X70361876Y37476401D01*
X70350390Y37534142D01*
X70332270Y37561260D01*
X70332139Y37563256D01*
X70333802Y37564367D01*
X70335044Y37564034D01*
G37*
G36*
X72935090Y37564034D02*
G01*
X72972162Y37539263D01*
X73018422Y37548466D01*
X73031090Y37561134D01*
X73033022Y37561652D01*
X73034436Y37560238D01*
X73034167Y37558609D01*
X73017819Y37534142D01*
X73006333Y37476401D01*
X73006333Y36206799D01*
X73017819Y36149058D01*
X73035938Y36121940D01*
X73036069Y36119944D01*
X73034406Y36118833D01*
X73033164Y36119166D01*
X72996095Y36143937D01*
X72949835Y36134735D01*
X72937163Y36122063D01*
X72935231Y36121545D01*
X72933817Y36122959D01*
X72934086Y36124588D01*
X72950436Y36149058D01*
X72961922Y36206799D01*
X72961922Y37476401D01*
X72950436Y37534142D01*
X72932316Y37561260D01*
X72932185Y37563256D01*
X72933848Y37564367D01*
X72935090Y37564034D01*
G37*
G36*
X74235113Y37564034D02*
G01*
X74272185Y37539263D01*
X74318445Y37548466D01*
X74331113Y37561134D01*
X74333045Y37561652D01*
X74334459Y37560238D01*
X74334190Y37558609D01*
X74317842Y37534142D01*
X74306356Y37476401D01*
X74306356Y36206799D01*
X74317842Y36149058D01*
X74335961Y36121940D01*
X74336092Y36119944D01*
X74334429Y36118833D01*
X74333187Y36119166D01*
X74296118Y36143937D01*
X74249858Y36134735D01*
X74237186Y36122063D01*
X74235254Y36121545D01*
X74233840Y36122959D01*
X74234109Y36124588D01*
X74250459Y36149058D01*
X74261945Y36206799D01*
X74261945Y37476401D01*
X74250459Y37534142D01*
X74232339Y37561260D01*
X74232208Y37563256D01*
X74233871Y37564367D01*
X74235113Y37564034D01*
G37*
G36*
X70985056Y37564034D02*
G01*
X71022128Y37539263D01*
X71068388Y37548466D01*
X71081056Y37561134D01*
X71082988Y37561652D01*
X71084402Y37560238D01*
X71084133Y37558609D01*
X71067785Y37534142D01*
X71056299Y37476401D01*
X71056299Y36206799D01*
X71067785Y36149058D01*
X71085904Y36121940D01*
X71086035Y36119944D01*
X71084372Y36118833D01*
X71083130Y36119166D01*
X71046061Y36143937D01*
X70999801Y36134735D01*
X70987129Y36122063D01*
X70985197Y36121545D01*
X70983783Y36122959D01*
X70984052Y36124588D01*
X71000402Y36149058D01*
X71011888Y36206799D01*
X71011888Y37476401D01*
X71000402Y37534142D01*
X70982282Y37561260D01*
X70982151Y37563256D01*
X70983814Y37564367D01*
X70985056Y37564034D01*
G37*
G36*
X66434976Y37564034D02*
G01*
X66472048Y37539263D01*
X66518308Y37548466D01*
X66530976Y37561134D01*
X66532908Y37561652D01*
X66534322Y37560238D01*
X66534053Y37558609D01*
X66517705Y37534142D01*
X66506219Y37476401D01*
X66506219Y36206799D01*
X66517705Y36149058D01*
X66535824Y36121940D01*
X66535955Y36119944D01*
X66534292Y36118833D01*
X66533050Y36119166D01*
X66495981Y36143937D01*
X66449721Y36134735D01*
X66437049Y36122063D01*
X66435117Y36121545D01*
X66433703Y36122959D01*
X66433972Y36124588D01*
X66450322Y36149058D01*
X66461808Y36206799D01*
X66461808Y37476401D01*
X66450322Y37534142D01*
X66432202Y37561260D01*
X66432071Y37563256D01*
X66433734Y37564367D01*
X66434976Y37564034D01*
G37*
G36*
X67734999Y37564034D02*
G01*
X67772071Y37539263D01*
X67818331Y37548466D01*
X67830999Y37561134D01*
X67832931Y37561652D01*
X67834345Y37560238D01*
X67834076Y37558609D01*
X67817728Y37534142D01*
X67806242Y37476401D01*
X67806242Y36206799D01*
X67817728Y36149058D01*
X67835847Y36121940D01*
X67835978Y36119944D01*
X67834315Y36118833D01*
X67833073Y36119166D01*
X67796004Y36143937D01*
X67749744Y36134735D01*
X67737072Y36122063D01*
X67735140Y36121545D01*
X67733726Y36122959D01*
X67733995Y36124588D01*
X67750345Y36149058D01*
X67761831Y36206799D01*
X67761831Y37476401D01*
X67750345Y37534142D01*
X67732225Y37561260D01*
X67732094Y37563256D01*
X67733757Y37564367D01*
X67734999Y37564034D01*
G37*
G36*
X69035022Y37564034D02*
G01*
X69072094Y37539263D01*
X69118354Y37548466D01*
X69131022Y37561134D01*
X69132954Y37561652D01*
X69134368Y37560238D01*
X69134099Y37558609D01*
X69117751Y37534142D01*
X69106265Y37476401D01*
X69106265Y36206799D01*
X69117751Y36149058D01*
X69135870Y36121940D01*
X69136001Y36119944D01*
X69134338Y36118833D01*
X69133096Y36119166D01*
X69096027Y36143937D01*
X69049767Y36134735D01*
X69037095Y36122063D01*
X69035163Y36121545D01*
X69033749Y36122959D01*
X69034018Y36124588D01*
X69050368Y36149058D01*
X69061854Y36206799D01*
X69061854Y37476401D01*
X69050368Y37534142D01*
X69032248Y37561260D01*
X69032117Y37563256D01*
X69033780Y37564367D01*
X69035022Y37564034D01*
G37*
G36*
X72285078Y37564034D02*
G01*
X72322150Y37539263D01*
X72368410Y37548466D01*
X72381081Y37561137D01*
X72383013Y37561655D01*
X72384427Y37560241D01*
X72384158Y37558612D01*
X72367808Y37534142D01*
X72356322Y37476401D01*
X72356322Y36206799D01*
X72367808Y36149058D01*
X72385928Y36121940D01*
X72386059Y36119944D01*
X72384396Y36118833D01*
X72383154Y36119166D01*
X72346082Y36143937D01*
X72299822Y36134734D01*
X72287151Y36122063D01*
X72285219Y36121545D01*
X72283805Y36122959D01*
X72284074Y36124588D01*
X72300424Y36149058D01*
X72311910Y36206799D01*
X72311910Y37476401D01*
X72300424Y37534142D01*
X72282304Y37561260D01*
X72282173Y37563256D01*
X72283836Y37564367D01*
X72285078Y37564034D01*
G37*
G36*
X68385010Y37564034D02*
G01*
X68422082Y37539263D01*
X68468342Y37548466D01*
X68481013Y37561137D01*
X68482945Y37561655D01*
X68484359Y37560241D01*
X68484090Y37558612D01*
X68467740Y37534142D01*
X68456254Y37476401D01*
X68456254Y36206799D01*
X68467740Y36149058D01*
X68485860Y36121940D01*
X68485991Y36119944D01*
X68484328Y36118833D01*
X68483086Y36119166D01*
X68446014Y36143937D01*
X68399754Y36134734D01*
X68387083Y36122063D01*
X68385151Y36121545D01*
X68383737Y36122959D01*
X68384006Y36124588D01*
X68400356Y36149058D01*
X68411842Y36206799D01*
X68411842Y37476401D01*
X68400356Y37534142D01*
X68382236Y37561260D01*
X68382105Y37563256D01*
X68383768Y37564367D01*
X68385010Y37564034D01*
G37*
G36*
X69685033Y37564034D02*
G01*
X69722105Y37539263D01*
X69768365Y37548466D01*
X69781033Y37561134D01*
X69782965Y37561652D01*
X69784379Y37560238D01*
X69784110Y37558609D01*
X69767762Y37534142D01*
X69756276Y37476401D01*
X69756276Y36206799D01*
X69767762Y36149058D01*
X69785881Y36121940D01*
X69786012Y36119944D01*
X69784349Y36118833D01*
X69783107Y36119166D01*
X69746038Y36143937D01*
X69699778Y36134735D01*
X69687106Y36122063D01*
X69685174Y36121545D01*
X69683760Y36122959D01*
X69684029Y36124588D01*
X69700379Y36149058D01*
X69711865Y36206799D01*
X69711865Y37476401D01*
X69700379Y37534142D01*
X69682259Y37561260D01*
X69682128Y37563256D01*
X69683791Y37564367D01*
X69685033Y37564034D01*
G37*
G36*
X67084987Y37564034D02*
G01*
X67122059Y37539263D01*
X67168319Y37548466D01*
X67180990Y37561137D01*
X67182922Y37561655D01*
X67184336Y37560241D01*
X67184067Y37558612D01*
X67167717Y37534142D01*
X67156231Y37476401D01*
X67156231Y36206799D01*
X67167717Y36149058D01*
X67185837Y36121940D01*
X67185968Y36119944D01*
X67184305Y36118833D01*
X67183063Y36119166D01*
X67145991Y36143937D01*
X67099731Y36134734D01*
X67087060Y36122063D01*
X67085128Y36121545D01*
X67083714Y36122959D01*
X67083983Y36124588D01*
X67100333Y36149058D01*
X67111819Y36206799D01*
X67111819Y37476401D01*
X67100333Y37534142D01*
X67082213Y37561260D01*
X67082082Y37563256D01*
X67083745Y37564367D01*
X67084987Y37564034D01*
G37*
G36*
X71635067Y37564034D02*
G01*
X71672139Y37539263D01*
X71718399Y37548466D01*
X71731067Y37561134D01*
X71732999Y37561652D01*
X71734413Y37560238D01*
X71734144Y37558609D01*
X71717796Y37534142D01*
X71706310Y37476401D01*
X71706310Y36206799D01*
X71717796Y36149058D01*
X71735915Y36121940D01*
X71736046Y36119944D01*
X71734383Y36118833D01*
X71733141Y36119166D01*
X71696072Y36143937D01*
X71649812Y36134735D01*
X71637140Y36122063D01*
X71635208Y36121545D01*
X71633794Y36122959D01*
X71634063Y36124588D01*
X71650413Y36149058D01*
X71661899Y36206799D01*
X71661899Y37476401D01*
X71650413Y37534142D01*
X71632293Y37561260D01*
X71632162Y37563256D01*
X71633825Y37564367D01*
X71635067Y37564034D01*
G37*
G36*
X73585101Y37564034D02*
G01*
X73622173Y37539263D01*
X73668433Y37548466D01*
X73681104Y37561137D01*
X73683036Y37561655D01*
X73684450Y37560241D01*
X73684181Y37558612D01*
X73667831Y37534142D01*
X73656345Y37476401D01*
X73656345Y36206799D01*
X73667831Y36149058D01*
X73685951Y36121940D01*
X73686082Y36119944D01*
X73684419Y36118833D01*
X73683177Y36119166D01*
X73646105Y36143937D01*
X73599845Y36134734D01*
X73587174Y36122063D01*
X73585242Y36121545D01*
X73583828Y36122959D01*
X73584097Y36124588D01*
X73600447Y36149058D01*
X73611933Y36206799D01*
X73611933Y37476401D01*
X73600447Y37534142D01*
X73582327Y37561260D01*
X73582196Y37563256D01*
X73583859Y37564367D01*
X73585101Y37564034D01*
G37*
G36*
X48142840Y37889934D02*
G01*
X48179912Y37865163D01*
X48226172Y37874366D01*
X48238840Y37887034D01*
X48240772Y37887552D01*
X48242186Y37886138D01*
X48241917Y37884509D01*
X48225569Y37860042D01*
X48214083Y37802301D01*
X48214083Y36532699D01*
X48225569Y36474958D01*
X48243688Y36447840D01*
X48243819Y36445844D01*
X48242156Y36444733D01*
X48240914Y36445066D01*
X48203845Y36469837D01*
X48157585Y36460635D01*
X48144913Y36447963D01*
X48142981Y36447445D01*
X48141567Y36448859D01*
X48141836Y36450488D01*
X48158186Y36474958D01*
X48169672Y36532699D01*
X48169672Y37802301D01*
X48158186Y37860042D01*
X48140066Y37887160D01*
X48139935Y37889156D01*
X48141598Y37890267D01*
X48142840Y37889934D01*
G37*
G36*
X46842817Y37889934D02*
G01*
X46879889Y37865163D01*
X46926149Y37874366D01*
X46938817Y37887034D01*
X46940749Y37887552D01*
X46942163Y37886138D01*
X46941894Y37884509D01*
X46925546Y37860042D01*
X46914060Y37802301D01*
X46914060Y36532699D01*
X46925546Y36474958D01*
X46943665Y36447840D01*
X46943796Y36445844D01*
X46942133Y36444733D01*
X46940891Y36445066D01*
X46903822Y36469837D01*
X46857562Y36460635D01*
X46844890Y36447963D01*
X46842958Y36447445D01*
X46841544Y36448859D01*
X46841813Y36450488D01*
X46858163Y36474958D01*
X46869649Y36532699D01*
X46869649Y37802301D01*
X46858163Y37860042D01*
X46840043Y37887160D01*
X46839912Y37889156D01*
X46841575Y37890267D01*
X46842817Y37889934D01*
G37*
G36*
X51392896Y37889934D02*
G01*
X51429968Y37865163D01*
X51476228Y37874366D01*
X51488899Y37887037D01*
X51490831Y37887555D01*
X51492245Y37886141D01*
X51491976Y37884512D01*
X51475626Y37860042D01*
X51464140Y37802301D01*
X51464140Y36532699D01*
X51475626Y36474958D01*
X51493746Y36447840D01*
X51493877Y36445844D01*
X51492214Y36444733D01*
X51490972Y36445066D01*
X51453900Y36469837D01*
X51407640Y36460634D01*
X51394969Y36447963D01*
X51393037Y36447445D01*
X51391623Y36448859D01*
X51391892Y36450488D01*
X51408242Y36474958D01*
X51419728Y36532699D01*
X51419728Y37802301D01*
X51408242Y37860042D01*
X51390122Y37887160D01*
X51389991Y37889156D01*
X51391654Y37890267D01*
X51392896Y37889934D01*
G37*
G36*
X52692919Y37889934D02*
G01*
X52729991Y37865163D01*
X52776251Y37874366D01*
X52788922Y37887037D01*
X52790854Y37887555D01*
X52792268Y37886141D01*
X52791999Y37884512D01*
X52775649Y37860042D01*
X52764163Y37802301D01*
X52764163Y36532699D01*
X52775649Y36474958D01*
X52793769Y36447840D01*
X52793900Y36445844D01*
X52792237Y36444733D01*
X52790995Y36445066D01*
X52753923Y36469837D01*
X52707663Y36460634D01*
X52694992Y36447963D01*
X52693060Y36447445D01*
X52691646Y36448859D01*
X52691915Y36450488D01*
X52708265Y36474958D01*
X52719751Y36532699D01*
X52719751Y37802301D01*
X52708265Y37860042D01*
X52690145Y37887160D01*
X52690014Y37889156D01*
X52691677Y37890267D01*
X52692919Y37889934D01*
G37*
G36*
X53342931Y37889934D02*
G01*
X53380003Y37865163D01*
X53426263Y37874366D01*
X53438931Y37887034D01*
X53440863Y37887552D01*
X53442277Y37886138D01*
X53442008Y37884509D01*
X53425660Y37860042D01*
X53414174Y37802301D01*
X53414174Y36532699D01*
X53425660Y36474958D01*
X53443779Y36447840D01*
X53443910Y36445844D01*
X53442247Y36444733D01*
X53441005Y36445066D01*
X53403936Y36469837D01*
X53357676Y36460635D01*
X53345004Y36447963D01*
X53343072Y36447445D01*
X53341658Y36448859D01*
X53341927Y36450488D01*
X53358277Y36474958D01*
X53369763Y36532699D01*
X53369763Y37802301D01*
X53358277Y37860042D01*
X53340157Y37887160D01*
X53340026Y37889156D01*
X53341689Y37890267D01*
X53342931Y37889934D01*
G37*
G36*
X50742885Y37889934D02*
G01*
X50779957Y37865163D01*
X50826217Y37874366D01*
X50838885Y37887034D01*
X50840817Y37887552D01*
X50842231Y37886138D01*
X50841962Y37884509D01*
X50825614Y37860042D01*
X50814128Y37802301D01*
X50814128Y36532699D01*
X50825614Y36474958D01*
X50843733Y36447840D01*
X50843864Y36445844D01*
X50842201Y36444733D01*
X50840959Y36445066D01*
X50803890Y36469837D01*
X50757630Y36460635D01*
X50744958Y36447963D01*
X50743026Y36447445D01*
X50741612Y36448859D01*
X50741881Y36450488D01*
X50758231Y36474958D01*
X50769717Y36532699D01*
X50769717Y37802301D01*
X50758231Y37860042D01*
X50740111Y37887160D01*
X50739980Y37889156D01*
X50741643Y37890267D01*
X50742885Y37889934D01*
G37*
G36*
X45542794Y37889934D02*
G01*
X45579866Y37865163D01*
X45626126Y37874366D01*
X45638794Y37887034D01*
X45640726Y37887552D01*
X45642140Y37886138D01*
X45641871Y37884509D01*
X45625523Y37860042D01*
X45614037Y37802301D01*
X45614037Y36532699D01*
X45625523Y36474958D01*
X45643642Y36447840D01*
X45643773Y36445844D01*
X45642110Y36444733D01*
X45640868Y36445066D01*
X45603799Y36469837D01*
X45557539Y36460635D01*
X45544867Y36447963D01*
X45542935Y36447445D01*
X45541521Y36448859D01*
X45541790Y36450488D01*
X45558140Y36474958D01*
X45569626Y36532699D01*
X45569626Y37802301D01*
X45558140Y37860042D01*
X45540020Y37887160D01*
X45539889Y37889156D01*
X45541552Y37890267D01*
X45542794Y37889934D01*
G37*
G36*
X48792851Y37889934D02*
G01*
X48829923Y37865163D01*
X48876183Y37874366D01*
X48888851Y37887034D01*
X48890783Y37887552D01*
X48892197Y37886138D01*
X48891928Y37884509D01*
X48875580Y37860042D01*
X48864094Y37802301D01*
X48864094Y36532699D01*
X48875580Y36474958D01*
X48893699Y36447840D01*
X48893830Y36445844D01*
X48892167Y36444733D01*
X48890925Y36445066D01*
X48853856Y36469837D01*
X48807596Y36460635D01*
X48794924Y36447963D01*
X48792992Y36447445D01*
X48791578Y36448859D01*
X48791847Y36450488D01*
X48808197Y36474958D01*
X48819683Y36532699D01*
X48819683Y37802301D01*
X48808197Y37860042D01*
X48790077Y37887160D01*
X48789946Y37889156D01*
X48791609Y37890267D01*
X48792851Y37889934D01*
G37*
G36*
X50092874Y37889934D02*
G01*
X50129946Y37865163D01*
X50176206Y37874366D01*
X50188874Y37887034D01*
X50190806Y37887552D01*
X50192220Y37886138D01*
X50191951Y37884509D01*
X50175603Y37860042D01*
X50164117Y37802301D01*
X50164117Y36532699D01*
X50175603Y36474958D01*
X50193722Y36447840D01*
X50193853Y36445844D01*
X50192190Y36444733D01*
X50190948Y36445066D01*
X50153879Y36469837D01*
X50107619Y36460635D01*
X50094947Y36447963D01*
X50093015Y36447445D01*
X50091601Y36448859D01*
X50091870Y36450488D01*
X50108220Y36474958D01*
X50119706Y36532699D01*
X50119706Y37802301D01*
X50108220Y37860042D01*
X50090100Y37887160D01*
X50089969Y37889156D01*
X50091632Y37890267D01*
X50092874Y37889934D01*
G37*
G36*
X47492828Y37889934D02*
G01*
X47529900Y37865163D01*
X47576160Y37874366D01*
X47588831Y37887037D01*
X47590763Y37887555D01*
X47592177Y37886141D01*
X47591908Y37884512D01*
X47575558Y37860042D01*
X47564072Y37802301D01*
X47564072Y36532699D01*
X47575558Y36474958D01*
X47593678Y36447840D01*
X47593809Y36445844D01*
X47592146Y36444733D01*
X47590904Y36445066D01*
X47553832Y36469837D01*
X47507572Y36460634D01*
X47494901Y36447963D01*
X47492969Y36447445D01*
X47491555Y36448859D01*
X47491824Y36450488D01*
X47508174Y36474958D01*
X47519660Y36532699D01*
X47519660Y37802301D01*
X47508174Y37860042D01*
X47490054Y37887160D01*
X47489923Y37889156D01*
X47491586Y37890267D01*
X47492828Y37889934D01*
G37*
G36*
X52042908Y37889934D02*
G01*
X52079980Y37865163D01*
X52126240Y37874366D01*
X52138908Y37887034D01*
X52140840Y37887552D01*
X52142254Y37886138D01*
X52141985Y37884509D01*
X52125637Y37860042D01*
X52114151Y37802301D01*
X52114151Y36532699D01*
X52125637Y36474958D01*
X52143756Y36447840D01*
X52143887Y36445844D01*
X52142224Y36444733D01*
X52140982Y36445066D01*
X52103913Y36469837D01*
X52057653Y36460635D01*
X52044981Y36447963D01*
X52043049Y36447445D01*
X52041635Y36448859D01*
X52041904Y36450488D01*
X52058254Y36474958D01*
X52069740Y36532699D01*
X52069740Y37802301D01*
X52058254Y37860042D01*
X52040134Y37887160D01*
X52040003Y37889156D01*
X52041666Y37890267D01*
X52042908Y37889934D01*
G37*
G36*
X49442862Y37889934D02*
G01*
X49479934Y37865163D01*
X49526194Y37874366D01*
X49538865Y37887037D01*
X49540797Y37887555D01*
X49542211Y37886141D01*
X49541942Y37884512D01*
X49525592Y37860042D01*
X49514106Y37802301D01*
X49514106Y36532699D01*
X49525592Y36474958D01*
X49543712Y36447840D01*
X49543843Y36445844D01*
X49542180Y36444733D01*
X49540938Y36445066D01*
X49503866Y36469837D01*
X49457606Y36460634D01*
X49444935Y36447963D01*
X49443003Y36447445D01*
X49441589Y36448859D01*
X49441858Y36450488D01*
X49458208Y36474958D01*
X49469694Y36532699D01*
X49469694Y37802301D01*
X49458208Y37860042D01*
X49440088Y37887160D01*
X49439957Y37889156D01*
X49441620Y37890267D01*
X49442862Y37889934D01*
G37*
G36*
X46192805Y37889934D02*
G01*
X46229877Y37865163D01*
X46276137Y37874366D01*
X46288808Y37887037D01*
X46290740Y37887555D01*
X46292154Y37886141D01*
X46291885Y37884512D01*
X46275535Y37860042D01*
X46264049Y37802301D01*
X46264049Y36532699D01*
X46275535Y36474958D01*
X46293655Y36447840D01*
X46293786Y36445844D01*
X46292123Y36444733D01*
X46290881Y36445066D01*
X46253809Y36469837D01*
X46207549Y36460634D01*
X46194878Y36447963D01*
X46192946Y36447445D01*
X46191532Y36448859D01*
X46191801Y36450488D01*
X46208151Y36474958D01*
X46219637Y36532699D01*
X46219637Y37802301D01*
X46208151Y37860042D01*
X46190031Y37887160D01*
X46189900Y37889156D01*
X46191563Y37890267D01*
X46192805Y37889934D01*
G37*
G36*
X106929374Y38326034D02*
G01*
X106966446Y38301263D01*
X107012706Y38310466D01*
X107025374Y38323134D01*
X107027306Y38323652D01*
X107028720Y38322238D01*
X107028451Y38320609D01*
X107012103Y38296142D01*
X107000617Y38238401D01*
X107000617Y36968799D01*
X107012103Y36911058D01*
X107030222Y36883940D01*
X107030353Y36881944D01*
X107028690Y36880833D01*
X107027448Y36881166D01*
X106990379Y36905937D01*
X106944119Y36896735D01*
X106931447Y36884063D01*
X106929515Y36883545D01*
X106928101Y36884959D01*
X106928370Y36886588D01*
X106944720Y36911058D01*
X106956206Y36968799D01*
X106956206Y38238401D01*
X106944720Y38296142D01*
X106926600Y38323260D01*
X106926469Y38325256D01*
X106928132Y38326367D01*
X106929374Y38326034D01*
G37*
G36*
X104329328Y38326034D02*
G01*
X104366400Y38301263D01*
X104412660Y38310466D01*
X104425331Y38323137D01*
X104427263Y38323655D01*
X104428677Y38322241D01*
X104428408Y38320612D01*
X104412058Y38296142D01*
X104400572Y38238401D01*
X104400572Y36968799D01*
X104412058Y36911058D01*
X104430178Y36883940D01*
X104430309Y36881944D01*
X104428646Y36880833D01*
X104427404Y36881166D01*
X104390332Y36905937D01*
X104344072Y36896734D01*
X104331401Y36884063D01*
X104329469Y36883545D01*
X104328055Y36884959D01*
X104328324Y36886588D01*
X104344674Y36911058D01*
X104356160Y36968799D01*
X104356160Y38238401D01*
X104344674Y38296142D01*
X104326554Y38323260D01*
X104326423Y38325256D01*
X104328086Y38326367D01*
X104329328Y38326034D01*
G37*
G36*
X103029305Y38326034D02*
G01*
X103066377Y38301263D01*
X103112637Y38310466D01*
X103125308Y38323137D01*
X103127240Y38323655D01*
X103128654Y38322241D01*
X103128385Y38320612D01*
X103112035Y38296142D01*
X103100549Y38238401D01*
X103100549Y36968799D01*
X103112035Y36911058D01*
X103130155Y36883940D01*
X103130286Y36881944D01*
X103128623Y36880833D01*
X103127381Y36881166D01*
X103090309Y36905937D01*
X103044049Y36896734D01*
X103031378Y36884063D01*
X103029446Y36883545D01*
X103028032Y36884959D01*
X103028301Y36886588D01*
X103044651Y36911058D01*
X103056137Y36968799D01*
X103056137Y38238401D01*
X103044651Y38296142D01*
X103026531Y38323260D01*
X103026400Y38325256D01*
X103028063Y38326367D01*
X103029305Y38326034D01*
G37*
G36*
X103679317Y38326034D02*
G01*
X103716389Y38301263D01*
X103762649Y38310466D01*
X103775317Y38323134D01*
X103777249Y38323652D01*
X103778663Y38322238D01*
X103778394Y38320609D01*
X103762046Y38296142D01*
X103750560Y38238401D01*
X103750560Y36968799D01*
X103762046Y36911058D01*
X103780165Y36883940D01*
X103780296Y36881944D01*
X103778633Y36880833D01*
X103777391Y36881166D01*
X103740322Y36905937D01*
X103694062Y36896735D01*
X103681390Y36884063D01*
X103679458Y36883545D01*
X103678044Y36884959D01*
X103678313Y36886588D01*
X103694663Y36911058D01*
X103706149Y36968799D01*
X103706149Y38238401D01*
X103694663Y38296142D01*
X103676543Y38323260D01*
X103676412Y38325256D01*
X103678075Y38326367D01*
X103679317Y38326034D01*
G37*
G36*
X105629351Y38326034D02*
G01*
X105666423Y38301263D01*
X105712683Y38310466D01*
X105725351Y38323134D01*
X105727283Y38323652D01*
X105728697Y38322238D01*
X105728428Y38320609D01*
X105712080Y38296142D01*
X105700594Y38238401D01*
X105700594Y36968799D01*
X105712080Y36911058D01*
X105730199Y36883940D01*
X105730330Y36881944D01*
X105728667Y36880833D01*
X105727425Y36881166D01*
X105690356Y36905937D01*
X105644096Y36896735D01*
X105631424Y36884063D01*
X105629492Y36883545D01*
X105628078Y36884959D01*
X105628347Y36886588D01*
X105644697Y36911058D01*
X105656183Y36968799D01*
X105656183Y38238401D01*
X105644697Y38296142D01*
X105626577Y38323260D01*
X105626446Y38325256D01*
X105628109Y38326367D01*
X105629351Y38326034D01*
G37*
G36*
X107579385Y38326034D02*
G01*
X107616457Y38301263D01*
X107662717Y38310466D01*
X107675385Y38323134D01*
X107677317Y38323652D01*
X107678731Y38322238D01*
X107678462Y38320609D01*
X107662114Y38296142D01*
X107650628Y38238401D01*
X107650628Y36968799D01*
X107662114Y36911058D01*
X107680233Y36883940D01*
X107680364Y36881944D01*
X107678701Y36880833D01*
X107677459Y36881166D01*
X107640390Y36905937D01*
X107594130Y36896735D01*
X107581458Y36884063D01*
X107579526Y36883545D01*
X107578112Y36884959D01*
X107578381Y36886588D01*
X107594731Y36911058D01*
X107606217Y36968799D01*
X107606217Y38238401D01*
X107594731Y38296142D01*
X107576611Y38323260D01*
X107576480Y38325256D01*
X107578143Y38326367D01*
X107579385Y38326034D01*
G37*
G36*
X109529419Y38326034D02*
G01*
X109566491Y38301263D01*
X109612751Y38310466D01*
X109625422Y38323137D01*
X109627354Y38323655D01*
X109628768Y38322241D01*
X109628499Y38320612D01*
X109612149Y38296142D01*
X109600663Y38238401D01*
X109600663Y36968799D01*
X109612149Y36911058D01*
X109630269Y36883940D01*
X109630400Y36881944D01*
X109628737Y36880833D01*
X109627495Y36881166D01*
X109590423Y36905937D01*
X109544163Y36896734D01*
X109531492Y36884063D01*
X109529560Y36883545D01*
X109528146Y36884959D01*
X109528415Y36886588D01*
X109544765Y36911058D01*
X109556251Y36968799D01*
X109556251Y38238401D01*
X109544765Y38296142D01*
X109526645Y38323260D01*
X109526514Y38325256D01*
X109528177Y38326367D01*
X109529419Y38326034D01*
G37*
G36*
X106279362Y38326034D02*
G01*
X106316434Y38301263D01*
X106362694Y38310466D01*
X106375365Y38323137D01*
X106377297Y38323655D01*
X106378711Y38322241D01*
X106378442Y38320612D01*
X106362092Y38296142D01*
X106350606Y38238401D01*
X106350606Y36968799D01*
X106362092Y36911058D01*
X106380212Y36883940D01*
X106380343Y36881944D01*
X106378680Y36880833D01*
X106377438Y36881166D01*
X106340366Y36905937D01*
X106294106Y36896734D01*
X106281435Y36884063D01*
X106279503Y36883545D01*
X106278089Y36884959D01*
X106278358Y36886588D01*
X106294708Y36911058D01*
X106306194Y36968799D01*
X106306194Y38238401D01*
X106294708Y38296142D01*
X106276588Y38323260D01*
X106276457Y38325256D01*
X106278120Y38326367D01*
X106279362Y38326034D01*
G37*
G36*
X108879408Y38326034D02*
G01*
X108916480Y38301263D01*
X108962740Y38310466D01*
X108975408Y38323134D01*
X108977340Y38323652D01*
X108978754Y38322238D01*
X108978485Y38320609D01*
X108962137Y38296142D01*
X108950651Y38238401D01*
X108950651Y36968799D01*
X108962137Y36911058D01*
X108980256Y36883940D01*
X108980387Y36881944D01*
X108978724Y36880833D01*
X108977482Y36881166D01*
X108940413Y36905937D01*
X108894153Y36896735D01*
X108881481Y36884063D01*
X108879549Y36883545D01*
X108878135Y36884959D01*
X108878404Y36886588D01*
X108894754Y36911058D01*
X108906240Y36968799D01*
X108906240Y38238401D01*
X108894754Y38296142D01*
X108876634Y38323260D01*
X108876503Y38325256D01*
X108878166Y38326367D01*
X108879408Y38326034D01*
G37*
G36*
X110179431Y38326034D02*
G01*
X110216503Y38301263D01*
X110262763Y38310466D01*
X110275431Y38323134D01*
X110277363Y38323652D01*
X110278777Y38322238D01*
X110278508Y38320609D01*
X110262160Y38296142D01*
X110250674Y38238401D01*
X110250674Y36968799D01*
X110262160Y36911058D01*
X110280279Y36883940D01*
X110280410Y36881944D01*
X110278747Y36880833D01*
X110277505Y36881166D01*
X110240436Y36905937D01*
X110194176Y36896735D01*
X110181504Y36884063D01*
X110179572Y36883545D01*
X110178158Y36884959D01*
X110178427Y36886588D01*
X110194777Y36911058D01*
X110206263Y36968799D01*
X110206263Y38238401D01*
X110194777Y38296142D01*
X110176657Y38323260D01*
X110176526Y38325256D01*
X110178189Y38326367D01*
X110179431Y38326034D01*
G37*
G36*
X102379294Y38326034D02*
G01*
X102416366Y38301263D01*
X102462626Y38310466D01*
X102475294Y38323134D01*
X102477226Y38323652D01*
X102478640Y38322238D01*
X102478371Y38320609D01*
X102462023Y38296142D01*
X102450537Y38238401D01*
X102450537Y36968799D01*
X102462023Y36911058D01*
X102480142Y36883940D01*
X102480273Y36881944D01*
X102478610Y36880833D01*
X102477368Y36881166D01*
X102440299Y36905937D01*
X102394039Y36896735D01*
X102381367Y36884063D01*
X102379435Y36883545D01*
X102378021Y36884959D01*
X102378290Y36886588D01*
X102394640Y36911058D01*
X102406126Y36968799D01*
X102406126Y38238401D01*
X102394640Y38296142D01*
X102376520Y38323260D01*
X102376389Y38325256D01*
X102378052Y38326367D01*
X102379294Y38326034D01*
G37*
G36*
X104979340Y38326034D02*
G01*
X105016412Y38301263D01*
X105062672Y38310466D01*
X105075340Y38323134D01*
X105077272Y38323652D01*
X105078686Y38322238D01*
X105078417Y38320609D01*
X105062069Y38296142D01*
X105050583Y38238401D01*
X105050583Y36968799D01*
X105062069Y36911058D01*
X105080188Y36883940D01*
X105080319Y36881944D01*
X105078656Y36880833D01*
X105077414Y36881166D01*
X105040345Y36905937D01*
X104994085Y36896735D01*
X104981413Y36884063D01*
X104979481Y36883545D01*
X104978067Y36884959D01*
X104978336Y36886588D01*
X104994686Y36911058D01*
X105006172Y36968799D01*
X105006172Y38238401D01*
X104994686Y38296142D01*
X104976566Y38323260D01*
X104976435Y38325256D01*
X104978098Y38326367D01*
X104979340Y38326034D01*
G37*
G36*
X108229396Y38326034D02*
G01*
X108266468Y38301263D01*
X108312728Y38310466D01*
X108325399Y38323137D01*
X108327331Y38323655D01*
X108328745Y38322241D01*
X108328476Y38320612D01*
X108312126Y38296142D01*
X108300640Y38238401D01*
X108300640Y36968799D01*
X108312126Y36911058D01*
X108330246Y36883940D01*
X108330377Y36881944D01*
X108328714Y36880833D01*
X108327472Y36881166D01*
X108290400Y36905937D01*
X108244140Y36896734D01*
X108231469Y36884063D01*
X108229537Y36883545D01*
X108228123Y36884959D01*
X108228392Y36886588D01*
X108244742Y36911058D01*
X108256228Y36968799D01*
X108256228Y38238401D01*
X108244742Y38296142D01*
X108226622Y38323260D01*
X108226491Y38325256D01*
X108228154Y38326367D01*
X108229396Y38326034D01*
G37*
G36*
X71635067Y43507634D02*
G01*
X71672139Y43482863D01*
X71718399Y43492066D01*
X71731067Y43504734D01*
X71732999Y43505252D01*
X71734413Y43503838D01*
X71734144Y43502209D01*
X71717796Y43477742D01*
X71706310Y43420001D01*
X71706310Y42150399D01*
X71717796Y42092658D01*
X71735915Y42065540D01*
X71736046Y42063544D01*
X71734383Y42062433D01*
X71733141Y42062766D01*
X71696072Y42087537D01*
X71649812Y42078335D01*
X71637140Y42065663D01*
X71635208Y42065145D01*
X71633794Y42066559D01*
X71634063Y42068188D01*
X71650413Y42092658D01*
X71661899Y42150399D01*
X71661899Y43420001D01*
X71650413Y43477742D01*
X71632293Y43504860D01*
X71632162Y43506856D01*
X71633825Y43507967D01*
X71635067Y43507634D01*
G37*
G36*
X73585101Y43507634D02*
G01*
X73622173Y43482863D01*
X73668433Y43492066D01*
X73681104Y43504737D01*
X73683036Y43505255D01*
X73684450Y43503841D01*
X73684181Y43502212D01*
X73667831Y43477742D01*
X73656345Y43420001D01*
X73656345Y42150399D01*
X73667831Y42092658D01*
X73685951Y42065540D01*
X73686082Y42063544D01*
X73684419Y42062433D01*
X73683177Y42062766D01*
X73646105Y42087537D01*
X73599845Y42078334D01*
X73587174Y42065663D01*
X73585242Y42065145D01*
X73583828Y42066559D01*
X73584097Y42068188D01*
X73600447Y42092658D01*
X73611933Y42150399D01*
X73611933Y43420001D01*
X73600447Y43477742D01*
X73582327Y43504860D01*
X73582196Y43506856D01*
X73583859Y43507967D01*
X73585101Y43507634D01*
G37*
G36*
X72935090Y43507634D02*
G01*
X72972162Y43482863D01*
X73018422Y43492066D01*
X73031090Y43504734D01*
X73033022Y43505252D01*
X73034436Y43503838D01*
X73034167Y43502209D01*
X73017819Y43477742D01*
X73006333Y43420001D01*
X73006333Y42150399D01*
X73017819Y42092658D01*
X73035938Y42065540D01*
X73036069Y42063544D01*
X73034406Y42062433D01*
X73033164Y42062766D01*
X72996095Y42087537D01*
X72949835Y42078335D01*
X72937163Y42065663D01*
X72935231Y42065145D01*
X72933817Y42066559D01*
X72934086Y42068188D01*
X72950436Y42092658D01*
X72961922Y42150399D01*
X72961922Y43420001D01*
X72950436Y43477742D01*
X72932316Y43504860D01*
X72932185Y43506856D01*
X72933848Y43507967D01*
X72935090Y43507634D01*
G37*
G36*
X67084987Y43507634D02*
G01*
X67122059Y43482863D01*
X67168319Y43492066D01*
X67180990Y43504737D01*
X67182922Y43505255D01*
X67184336Y43503841D01*
X67184067Y43502212D01*
X67167717Y43477742D01*
X67156231Y43420001D01*
X67156231Y42150399D01*
X67167717Y42092658D01*
X67185837Y42065540D01*
X67185968Y42063544D01*
X67184305Y42062433D01*
X67183063Y42062766D01*
X67145991Y42087537D01*
X67099731Y42078334D01*
X67087060Y42065663D01*
X67085128Y42065145D01*
X67083714Y42066559D01*
X67083983Y42068188D01*
X67100333Y42092658D01*
X67111819Y42150399D01*
X67111819Y43420001D01*
X67100333Y43477742D01*
X67082213Y43504860D01*
X67082082Y43506856D01*
X67083745Y43507967D01*
X67084987Y43507634D01*
G37*
G36*
X70985056Y43507634D02*
G01*
X71022128Y43482863D01*
X71068388Y43492066D01*
X71081056Y43504734D01*
X71082988Y43505252D01*
X71084402Y43503838D01*
X71084133Y43502209D01*
X71067785Y43477742D01*
X71056299Y43420001D01*
X71056299Y42150399D01*
X71067785Y42092658D01*
X71085904Y42065540D01*
X71086035Y42063544D01*
X71084372Y42062433D01*
X71083130Y42062766D01*
X71046061Y42087537D01*
X70999801Y42078335D01*
X70987129Y42065663D01*
X70985197Y42065145D01*
X70983783Y42066559D01*
X70984052Y42068188D01*
X71000402Y42092658D01*
X71011888Y42150399D01*
X71011888Y43420001D01*
X71000402Y43477742D01*
X70982282Y43504860D01*
X70982151Y43506856D01*
X70983814Y43507967D01*
X70985056Y43507634D01*
G37*
G36*
X69685033Y43507634D02*
G01*
X69722105Y43482863D01*
X69768365Y43492066D01*
X69781033Y43504734D01*
X69782965Y43505252D01*
X69784379Y43503838D01*
X69784110Y43502209D01*
X69767762Y43477742D01*
X69756276Y43420001D01*
X69756276Y42150399D01*
X69767762Y42092658D01*
X69785881Y42065540D01*
X69786012Y42063544D01*
X69784349Y42062433D01*
X69783107Y42062766D01*
X69746038Y42087537D01*
X69699778Y42078335D01*
X69687106Y42065663D01*
X69685174Y42065145D01*
X69683760Y42066559D01*
X69684029Y42068188D01*
X69700379Y42092658D01*
X69711865Y42150399D01*
X69711865Y43420001D01*
X69700379Y43477742D01*
X69682259Y43504860D01*
X69682128Y43506856D01*
X69683791Y43507967D01*
X69685033Y43507634D01*
G37*
G36*
X72285078Y43507634D02*
G01*
X72322150Y43482863D01*
X72368410Y43492066D01*
X72381081Y43504737D01*
X72383013Y43505255D01*
X72384427Y43503841D01*
X72384158Y43502212D01*
X72367808Y43477742D01*
X72356322Y43420001D01*
X72356322Y42150399D01*
X72367808Y42092658D01*
X72385928Y42065540D01*
X72386059Y42063544D01*
X72384396Y42062433D01*
X72383154Y42062766D01*
X72346082Y42087537D01*
X72299822Y42078334D01*
X72287151Y42065663D01*
X72285219Y42065145D01*
X72283805Y42066559D01*
X72284074Y42068188D01*
X72300424Y42092658D01*
X72311910Y42150399D01*
X72311910Y43420001D01*
X72300424Y43477742D01*
X72282304Y43504860D01*
X72282173Y43506856D01*
X72283836Y43507967D01*
X72285078Y43507634D01*
G37*
G36*
X74235113Y43507634D02*
G01*
X74272185Y43482863D01*
X74318445Y43492066D01*
X74331113Y43504734D01*
X74333045Y43505252D01*
X74334459Y43503838D01*
X74334190Y43502209D01*
X74317842Y43477742D01*
X74306356Y43420001D01*
X74306356Y42150399D01*
X74317842Y42092658D01*
X74335961Y42065540D01*
X74336092Y42063544D01*
X74334429Y42062433D01*
X74333187Y42062766D01*
X74296118Y42087537D01*
X74249858Y42078335D01*
X74237186Y42065663D01*
X74235254Y42065145D01*
X74233840Y42066559D01*
X74234109Y42068188D01*
X74250459Y42092658D01*
X74261945Y42150399D01*
X74261945Y43420001D01*
X74250459Y43477742D01*
X74232339Y43504860D01*
X74232208Y43506856D01*
X74233871Y43507967D01*
X74235113Y43507634D01*
G37*
G36*
X66434976Y43507634D02*
G01*
X66472048Y43482863D01*
X66518308Y43492066D01*
X66530976Y43504734D01*
X66532908Y43505252D01*
X66534322Y43503838D01*
X66534053Y43502209D01*
X66517705Y43477742D01*
X66506219Y43420001D01*
X66506219Y42150399D01*
X66517705Y42092658D01*
X66535824Y42065540D01*
X66535955Y42063544D01*
X66534292Y42062433D01*
X66533050Y42062766D01*
X66495981Y42087537D01*
X66449721Y42078335D01*
X66437049Y42065663D01*
X66435117Y42065145D01*
X66433703Y42066559D01*
X66433972Y42068188D01*
X66450322Y42092658D01*
X66461808Y42150399D01*
X66461808Y43420001D01*
X66450322Y43477742D01*
X66432202Y43504860D01*
X66432071Y43506856D01*
X66433734Y43507967D01*
X66434976Y43507634D01*
G37*
G36*
X69035022Y43507634D02*
G01*
X69072094Y43482863D01*
X69118354Y43492066D01*
X69131022Y43504734D01*
X69132954Y43505252D01*
X69134368Y43503838D01*
X69134099Y43502209D01*
X69117751Y43477742D01*
X69106265Y43420001D01*
X69106265Y42150399D01*
X69117751Y42092658D01*
X69135870Y42065540D01*
X69136001Y42063544D01*
X69134338Y42062433D01*
X69133096Y42062766D01*
X69096027Y42087537D01*
X69049767Y42078335D01*
X69037095Y42065663D01*
X69035163Y42065145D01*
X69033749Y42066559D01*
X69034018Y42068188D01*
X69050368Y42092658D01*
X69061854Y42150399D01*
X69061854Y43420001D01*
X69050368Y43477742D01*
X69032248Y43504860D01*
X69032117Y43506856D01*
X69033780Y43507967D01*
X69035022Y43507634D01*
G37*
G36*
X70335044Y43507634D02*
G01*
X70372116Y43482863D01*
X70418376Y43492066D01*
X70431047Y43504737D01*
X70432979Y43505255D01*
X70434393Y43503841D01*
X70434124Y43502212D01*
X70417774Y43477742D01*
X70406288Y43420001D01*
X70406288Y42150399D01*
X70417774Y42092658D01*
X70435894Y42065540D01*
X70436025Y42063544D01*
X70434362Y42062433D01*
X70433120Y42062766D01*
X70396048Y42087537D01*
X70349788Y42078334D01*
X70337117Y42065663D01*
X70335185Y42065145D01*
X70333771Y42066559D01*
X70334040Y42068188D01*
X70350390Y42092658D01*
X70361876Y42150399D01*
X70361876Y43420001D01*
X70350390Y43477742D01*
X70332270Y43504860D01*
X70332139Y43506856D01*
X70333802Y43507967D01*
X70335044Y43507634D01*
G37*
G36*
X68385010Y43507634D02*
G01*
X68422082Y43482863D01*
X68468342Y43492066D01*
X68481013Y43504737D01*
X68482945Y43505255D01*
X68484359Y43503841D01*
X68484090Y43502212D01*
X68467740Y43477742D01*
X68456254Y43420001D01*
X68456254Y42150399D01*
X68467740Y42092658D01*
X68485860Y42065540D01*
X68485991Y42063544D01*
X68484328Y42062433D01*
X68483086Y42062766D01*
X68446014Y42087537D01*
X68399754Y42078334D01*
X68387083Y42065663D01*
X68385151Y42065145D01*
X68383737Y42066559D01*
X68384006Y42068188D01*
X68400356Y42092658D01*
X68411842Y42150399D01*
X68411842Y43420001D01*
X68400356Y43477742D01*
X68382236Y43504860D01*
X68382105Y43506856D01*
X68383768Y43507967D01*
X68385010Y43507634D01*
G37*
G36*
X67734999Y43507634D02*
G01*
X67772071Y43482863D01*
X67818331Y43492066D01*
X67830999Y43504734D01*
X67832931Y43505252D01*
X67834345Y43503838D01*
X67834076Y43502209D01*
X67817728Y43477742D01*
X67806242Y43420001D01*
X67806242Y42150399D01*
X67817728Y42092658D01*
X67835847Y42065540D01*
X67835978Y42063544D01*
X67834315Y42062433D01*
X67833073Y42062766D01*
X67796004Y42087537D01*
X67749744Y42078335D01*
X67737072Y42065663D01*
X67735140Y42065145D01*
X67733726Y42066559D01*
X67733995Y42068188D01*
X67750345Y42092658D01*
X67761831Y42150399D01*
X67761831Y43420001D01*
X67750345Y43477742D01*
X67732225Y43504860D01*
X67732094Y43506856D01*
X67733757Y43507967D01*
X67734999Y43507634D01*
G37*
G36*
X48792851Y43833534D02*
G01*
X48829923Y43808763D01*
X48876183Y43817966D01*
X48888851Y43830634D01*
X48890783Y43831152D01*
X48892197Y43829738D01*
X48891928Y43828109D01*
X48875580Y43803642D01*
X48864094Y43745901D01*
X48864094Y42476299D01*
X48875580Y42418558D01*
X48893699Y42391440D01*
X48893830Y42389444D01*
X48892167Y42388333D01*
X48890925Y42388666D01*
X48853856Y42413437D01*
X48807596Y42404235D01*
X48794924Y42391563D01*
X48792992Y42391045D01*
X48791578Y42392459D01*
X48791847Y42394088D01*
X48808197Y42418558D01*
X48819683Y42476299D01*
X48819683Y43745901D01*
X48808197Y43803642D01*
X48790077Y43830760D01*
X48789946Y43832756D01*
X48791609Y43833867D01*
X48792851Y43833534D01*
G37*
G36*
X45542794Y43833534D02*
G01*
X45579866Y43808763D01*
X45626126Y43817966D01*
X45638794Y43830634D01*
X45640726Y43831152D01*
X45642140Y43829738D01*
X45641871Y43828109D01*
X45625523Y43803642D01*
X45614037Y43745901D01*
X45614037Y42476299D01*
X45625523Y42418558D01*
X45643642Y42391440D01*
X45643773Y42389444D01*
X45642110Y42388333D01*
X45640868Y42388666D01*
X45603799Y42413437D01*
X45557539Y42404235D01*
X45544867Y42391563D01*
X45542935Y42391045D01*
X45541521Y42392459D01*
X45541790Y42394088D01*
X45558140Y42418558D01*
X45569626Y42476299D01*
X45569626Y43745901D01*
X45558140Y43803642D01*
X45540020Y43830760D01*
X45539889Y43832756D01*
X45541552Y43833867D01*
X45542794Y43833534D01*
G37*
G36*
X48142840Y43833534D02*
G01*
X48179912Y43808763D01*
X48226172Y43817966D01*
X48238840Y43830634D01*
X48240772Y43831152D01*
X48242186Y43829738D01*
X48241917Y43828109D01*
X48225569Y43803642D01*
X48214083Y43745901D01*
X48214083Y42476299D01*
X48225569Y42418558D01*
X48243688Y42391440D01*
X48243819Y42389444D01*
X48242156Y42388333D01*
X48240914Y42388666D01*
X48203845Y42413437D01*
X48157585Y42404235D01*
X48144913Y42391563D01*
X48142981Y42391045D01*
X48141567Y42392459D01*
X48141836Y42394088D01*
X48158186Y42418558D01*
X48169672Y42476299D01*
X48169672Y43745901D01*
X48158186Y43803642D01*
X48140066Y43830760D01*
X48139935Y43832756D01*
X48141598Y43833867D01*
X48142840Y43833534D01*
G37*
G36*
X46842817Y43833534D02*
G01*
X46879889Y43808763D01*
X46926149Y43817966D01*
X46938817Y43830634D01*
X46940749Y43831152D01*
X46942163Y43829738D01*
X46941894Y43828109D01*
X46925546Y43803642D01*
X46914060Y43745901D01*
X46914060Y42476299D01*
X46925546Y42418558D01*
X46943665Y42391440D01*
X46943796Y42389444D01*
X46942133Y42388333D01*
X46940891Y42388666D01*
X46903822Y42413437D01*
X46857562Y42404235D01*
X46844890Y42391563D01*
X46842958Y42391045D01*
X46841544Y42392459D01*
X46841813Y42394088D01*
X46858163Y42418558D01*
X46869649Y42476299D01*
X46869649Y43745901D01*
X46858163Y43803642D01*
X46840043Y43830760D01*
X46839912Y43832756D01*
X46841575Y43833867D01*
X46842817Y43833534D01*
G37*
G36*
X46192805Y43833534D02*
G01*
X46229877Y43808763D01*
X46276137Y43817966D01*
X46288808Y43830637D01*
X46290740Y43831155D01*
X46292154Y43829741D01*
X46291885Y43828112D01*
X46275535Y43803642D01*
X46264049Y43745901D01*
X46264049Y42476299D01*
X46275535Y42418558D01*
X46293655Y42391440D01*
X46293786Y42389444D01*
X46292123Y42388333D01*
X46290881Y42388666D01*
X46253809Y42413437D01*
X46207549Y42404234D01*
X46194878Y42391563D01*
X46192946Y42391045D01*
X46191532Y42392459D01*
X46191801Y42394088D01*
X46208151Y42418558D01*
X46219637Y42476299D01*
X46219637Y43745901D01*
X46208151Y43803642D01*
X46190031Y43830760D01*
X46189900Y43832756D01*
X46191563Y43833867D01*
X46192805Y43833534D01*
G37*
G36*
X47492828Y43833534D02*
G01*
X47529900Y43808763D01*
X47576160Y43817966D01*
X47588831Y43830637D01*
X47590763Y43831155D01*
X47592177Y43829741D01*
X47591908Y43828112D01*
X47575558Y43803642D01*
X47564072Y43745901D01*
X47564072Y42476299D01*
X47575558Y42418558D01*
X47593678Y42391440D01*
X47593809Y42389444D01*
X47592146Y42388333D01*
X47590904Y42388666D01*
X47553832Y42413437D01*
X47507572Y42404234D01*
X47494901Y42391563D01*
X47492969Y42391045D01*
X47491555Y42392459D01*
X47491824Y42394088D01*
X47508174Y42418558D01*
X47519660Y42476299D01*
X47519660Y43745901D01*
X47508174Y43803642D01*
X47490054Y43830760D01*
X47489923Y43832756D01*
X47491586Y43833867D01*
X47492828Y43833534D01*
G37*
G36*
X49442862Y43833534D02*
G01*
X49479934Y43808763D01*
X49526194Y43817966D01*
X49538865Y43830637D01*
X49540797Y43831155D01*
X49542211Y43829741D01*
X49541942Y43828112D01*
X49525592Y43803642D01*
X49514106Y43745901D01*
X49514106Y42476299D01*
X49525592Y42418558D01*
X49543712Y42391440D01*
X49543843Y42389444D01*
X49542180Y42388333D01*
X49540938Y42388666D01*
X49503866Y42413437D01*
X49457606Y42404234D01*
X49444935Y42391563D01*
X49443003Y42391045D01*
X49441589Y42392459D01*
X49441858Y42394088D01*
X49458208Y42418558D01*
X49469694Y42476299D01*
X49469694Y43745901D01*
X49458208Y43803642D01*
X49440088Y43830760D01*
X49439957Y43832756D01*
X49441620Y43833867D01*
X49442862Y43833534D01*
G37*
G36*
X50742885Y43833534D02*
G01*
X50779957Y43808763D01*
X50826217Y43817966D01*
X50838885Y43830634D01*
X50840817Y43831152D01*
X50842231Y43829738D01*
X50841962Y43828109D01*
X50825614Y43803642D01*
X50814128Y43745901D01*
X50814128Y42476299D01*
X50825614Y42418558D01*
X50843733Y42391440D01*
X50843864Y42389444D01*
X50842201Y42388333D01*
X50840959Y42388666D01*
X50803890Y42413437D01*
X50757630Y42404235D01*
X50744958Y42391563D01*
X50743026Y42391045D01*
X50741612Y42392459D01*
X50741881Y42394088D01*
X50758231Y42418558D01*
X50769717Y42476299D01*
X50769717Y43745901D01*
X50758231Y43803642D01*
X50740111Y43830760D01*
X50739980Y43832756D01*
X50741643Y43833867D01*
X50742885Y43833534D01*
G37*
G36*
X50092874Y43833534D02*
G01*
X50129946Y43808763D01*
X50176206Y43817966D01*
X50188874Y43830634D01*
X50190806Y43831152D01*
X50192220Y43829738D01*
X50191951Y43828109D01*
X50175603Y43803642D01*
X50164117Y43745901D01*
X50164117Y42476299D01*
X50175603Y42418558D01*
X50193722Y42391440D01*
X50193853Y42389444D01*
X50192190Y42388333D01*
X50190948Y42388666D01*
X50153879Y42413437D01*
X50107619Y42404235D01*
X50094947Y42391563D01*
X50093015Y42391045D01*
X50091601Y42392459D01*
X50091870Y42394088D01*
X50108220Y42418558D01*
X50119706Y42476299D01*
X50119706Y43745901D01*
X50108220Y43803642D01*
X50090100Y43830760D01*
X50089969Y43832756D01*
X50091632Y43833867D01*
X50092874Y43833534D01*
G37*
G36*
X52692919Y43833534D02*
G01*
X52729991Y43808763D01*
X52776251Y43817966D01*
X52788922Y43830637D01*
X52790854Y43831155D01*
X52792268Y43829741D01*
X52791999Y43828112D01*
X52775649Y43803642D01*
X52764163Y43745901D01*
X52764163Y42476299D01*
X52775649Y42418558D01*
X52793769Y42391440D01*
X52793900Y42389444D01*
X52792237Y42388333D01*
X52790995Y42388666D01*
X52753923Y42413437D01*
X52707663Y42404234D01*
X52694992Y42391563D01*
X52693060Y42391045D01*
X52691646Y42392459D01*
X52691915Y42394088D01*
X52708265Y42418558D01*
X52719751Y42476299D01*
X52719751Y43745901D01*
X52708265Y43803642D01*
X52690145Y43830760D01*
X52690014Y43832756D01*
X52691677Y43833867D01*
X52692919Y43833534D01*
G37*
G36*
X51392896Y43833534D02*
G01*
X51429968Y43808763D01*
X51476228Y43817966D01*
X51488899Y43830637D01*
X51490831Y43831155D01*
X51492245Y43829741D01*
X51491976Y43828112D01*
X51475626Y43803642D01*
X51464140Y43745901D01*
X51464140Y42476299D01*
X51475626Y42418558D01*
X51493746Y42391440D01*
X51493877Y42389444D01*
X51492214Y42388333D01*
X51490972Y42388666D01*
X51453900Y42413437D01*
X51407640Y42404234D01*
X51394969Y42391563D01*
X51393037Y42391045D01*
X51391623Y42392459D01*
X51391892Y42394088D01*
X51408242Y42418558D01*
X51419728Y42476299D01*
X51419728Y43745901D01*
X51408242Y43803642D01*
X51390122Y43830760D01*
X51389991Y43832756D01*
X51391654Y43833867D01*
X51392896Y43833534D01*
G37*
G36*
X52042908Y43833534D02*
G01*
X52079980Y43808763D01*
X52126240Y43817966D01*
X52138908Y43830634D01*
X52140840Y43831152D01*
X52142254Y43829738D01*
X52141985Y43828109D01*
X52125637Y43803642D01*
X52114151Y43745901D01*
X52114151Y42476299D01*
X52125637Y42418558D01*
X52143756Y42391440D01*
X52143887Y42389444D01*
X52142224Y42388333D01*
X52140982Y42388666D01*
X52103913Y42413437D01*
X52057653Y42404235D01*
X52044981Y42391563D01*
X52043049Y42391045D01*
X52041635Y42392459D01*
X52041904Y42394088D01*
X52058254Y42418558D01*
X52069740Y42476299D01*
X52069740Y43745901D01*
X52058254Y43803642D01*
X52040134Y43830760D01*
X52040003Y43832756D01*
X52041666Y43833867D01*
X52042908Y43833534D01*
G37*
G36*
X53342931Y43833534D02*
G01*
X53380003Y43808763D01*
X53426263Y43817966D01*
X53438931Y43830634D01*
X53440863Y43831152D01*
X53442277Y43829738D01*
X53442008Y43828109D01*
X53425660Y43803642D01*
X53414174Y43745901D01*
X53414174Y42476299D01*
X53425660Y42418558D01*
X53443779Y42391440D01*
X53443910Y42389444D01*
X53442247Y42388333D01*
X53441005Y42388666D01*
X53403936Y42413437D01*
X53357676Y42404235D01*
X53345004Y42391563D01*
X53343072Y42391045D01*
X53341658Y42392459D01*
X53341927Y42394088D01*
X53358277Y42418558D01*
X53369763Y42476299D01*
X53369763Y43745901D01*
X53358277Y43803642D01*
X53340157Y43830760D01*
X53340026Y43832756D01*
X53341689Y43833867D01*
X53342931Y43833534D01*
G37*
G36*
X110179431Y44269634D02*
G01*
X110216503Y44244863D01*
X110262763Y44254066D01*
X110275431Y44266734D01*
X110277363Y44267252D01*
X110278777Y44265838D01*
X110278508Y44264209D01*
X110262160Y44239742D01*
X110250674Y44182001D01*
X110250674Y42912399D01*
X110262160Y42854658D01*
X110280279Y42827540D01*
X110280410Y42825544D01*
X110278747Y42824433D01*
X110277505Y42824766D01*
X110240436Y42849537D01*
X110194176Y42840335D01*
X110181504Y42827663D01*
X110179572Y42827145D01*
X110178158Y42828559D01*
X110178427Y42830188D01*
X110194777Y42854658D01*
X110206263Y42912399D01*
X110206263Y44182001D01*
X110194777Y44239742D01*
X110176657Y44266860D01*
X110176526Y44268856D01*
X110178189Y44269967D01*
X110179431Y44269634D01*
G37*
G36*
X107579385Y44269634D02*
G01*
X107616457Y44244863D01*
X107662717Y44254066D01*
X107675385Y44266734D01*
X107677317Y44267252D01*
X107678731Y44265838D01*
X107678462Y44264209D01*
X107662114Y44239742D01*
X107650628Y44182001D01*
X107650628Y42912399D01*
X107662114Y42854658D01*
X107680233Y42827540D01*
X107680364Y42825544D01*
X107678701Y42824433D01*
X107677459Y42824766D01*
X107640390Y42849537D01*
X107594130Y42840335D01*
X107581458Y42827663D01*
X107579526Y42827145D01*
X107578112Y42828559D01*
X107578381Y42830188D01*
X107594731Y42854658D01*
X107606217Y42912399D01*
X107606217Y44182001D01*
X107594731Y44239742D01*
X107576611Y44266860D01*
X107576480Y44268856D01*
X107578143Y44269967D01*
X107579385Y44269634D01*
G37*
G36*
X105629351Y44269634D02*
G01*
X105666423Y44244863D01*
X105712683Y44254066D01*
X105725351Y44266734D01*
X105727283Y44267252D01*
X105728697Y44265838D01*
X105728428Y44264209D01*
X105712080Y44239742D01*
X105700594Y44182001D01*
X105700594Y42912399D01*
X105712080Y42854658D01*
X105730199Y42827540D01*
X105730330Y42825544D01*
X105728667Y42824433D01*
X105727425Y42824766D01*
X105690356Y42849537D01*
X105644096Y42840335D01*
X105631424Y42827663D01*
X105629492Y42827145D01*
X105628078Y42828559D01*
X105628347Y42830188D01*
X105644697Y42854658D01*
X105656183Y42912399D01*
X105656183Y44182001D01*
X105644697Y44239742D01*
X105626577Y44266860D01*
X105626446Y44268856D01*
X105628109Y44269967D01*
X105629351Y44269634D01*
G37*
G36*
X102379294Y44269634D02*
G01*
X102416366Y44244863D01*
X102462626Y44254066D01*
X102475294Y44266734D01*
X102477226Y44267252D01*
X102478640Y44265838D01*
X102478371Y44264209D01*
X102462023Y44239742D01*
X102450537Y44182001D01*
X102450537Y42912399D01*
X102462023Y42854658D01*
X102480142Y42827540D01*
X102480273Y42825544D01*
X102478610Y42824433D01*
X102477368Y42824766D01*
X102440299Y42849537D01*
X102394039Y42840335D01*
X102381367Y42827663D01*
X102379435Y42827145D01*
X102378021Y42828559D01*
X102378290Y42830188D01*
X102394640Y42854658D01*
X102406126Y42912399D01*
X102406126Y44182001D01*
X102394640Y44239742D01*
X102376520Y44266860D01*
X102376389Y44268856D01*
X102378052Y44269967D01*
X102379294Y44269634D01*
G37*
G36*
X104979340Y44269634D02*
G01*
X105016412Y44244863D01*
X105062672Y44254066D01*
X105075340Y44266734D01*
X105077272Y44267252D01*
X105078686Y44265838D01*
X105078417Y44264209D01*
X105062069Y44239742D01*
X105050583Y44182001D01*
X105050583Y42912399D01*
X105062069Y42854658D01*
X105080188Y42827540D01*
X105080319Y42825544D01*
X105078656Y42824433D01*
X105077414Y42824766D01*
X105040345Y42849537D01*
X104994085Y42840335D01*
X104981413Y42827663D01*
X104979481Y42827145D01*
X104978067Y42828559D01*
X104978336Y42830188D01*
X104994686Y42854658D01*
X105006172Y42912399D01*
X105006172Y44182001D01*
X104994686Y44239742D01*
X104976566Y44266860D01*
X104976435Y44268856D01*
X104978098Y44269967D01*
X104979340Y44269634D01*
G37*
G36*
X104329328Y44269634D02*
G01*
X104366400Y44244863D01*
X104412660Y44254066D01*
X104425331Y44266737D01*
X104427263Y44267255D01*
X104428677Y44265841D01*
X104428408Y44264212D01*
X104412058Y44239742D01*
X104400572Y44182001D01*
X104400572Y42912399D01*
X104412058Y42854658D01*
X104430178Y42827540D01*
X104430309Y42825544D01*
X104428646Y42824433D01*
X104427404Y42824766D01*
X104390332Y42849537D01*
X104344072Y42840334D01*
X104331401Y42827663D01*
X104329469Y42827145D01*
X104328055Y42828559D01*
X104328324Y42830188D01*
X104344674Y42854658D01*
X104356160Y42912399D01*
X104356160Y44182001D01*
X104344674Y44239742D01*
X104326554Y44266860D01*
X104326423Y44268856D01*
X104328086Y44269967D01*
X104329328Y44269634D01*
G37*
G36*
X106929374Y44269634D02*
G01*
X106966446Y44244863D01*
X107012706Y44254066D01*
X107025374Y44266734D01*
X107027306Y44267252D01*
X107028720Y44265838D01*
X107028451Y44264209D01*
X107012103Y44239742D01*
X107000617Y44182001D01*
X107000617Y42912399D01*
X107012103Y42854658D01*
X107030222Y42827540D01*
X107030353Y42825544D01*
X107028690Y42824433D01*
X107027448Y42824766D01*
X106990379Y42849537D01*
X106944119Y42840335D01*
X106931447Y42827663D01*
X106929515Y42827145D01*
X106928101Y42828559D01*
X106928370Y42830188D01*
X106944720Y42854658D01*
X106956206Y42912399D01*
X106956206Y44182001D01*
X106944720Y44239742D01*
X106926600Y44266860D01*
X106926469Y44268856D01*
X106928132Y44269967D01*
X106929374Y44269634D01*
G37*
G36*
X103679317Y44269634D02*
G01*
X103716389Y44244863D01*
X103762649Y44254066D01*
X103775317Y44266734D01*
X103777249Y44267252D01*
X103778663Y44265838D01*
X103778394Y44264209D01*
X103762046Y44239742D01*
X103750560Y44182001D01*
X103750560Y42912399D01*
X103762046Y42854658D01*
X103780165Y42827540D01*
X103780296Y42825544D01*
X103778633Y42824433D01*
X103777391Y42824766D01*
X103740322Y42849537D01*
X103694062Y42840335D01*
X103681390Y42827663D01*
X103679458Y42827145D01*
X103678044Y42828559D01*
X103678313Y42830188D01*
X103694663Y42854658D01*
X103706149Y42912399D01*
X103706149Y44182001D01*
X103694663Y44239742D01*
X103676543Y44266860D01*
X103676412Y44268856D01*
X103678075Y44269967D01*
X103679317Y44269634D01*
G37*
G36*
X106279362Y44269634D02*
G01*
X106316434Y44244863D01*
X106362694Y44254066D01*
X106375365Y44266737D01*
X106377297Y44267255D01*
X106378711Y44265841D01*
X106378442Y44264212D01*
X106362092Y44239742D01*
X106350606Y44182001D01*
X106350606Y42912399D01*
X106362092Y42854658D01*
X106380212Y42827540D01*
X106380343Y42825544D01*
X106378680Y42824433D01*
X106377438Y42824766D01*
X106340366Y42849537D01*
X106294106Y42840334D01*
X106281435Y42827663D01*
X106279503Y42827145D01*
X106278089Y42828559D01*
X106278358Y42830188D01*
X106294708Y42854658D01*
X106306194Y42912399D01*
X106306194Y44182001D01*
X106294708Y44239742D01*
X106276588Y44266860D01*
X106276457Y44268856D01*
X106278120Y44269967D01*
X106279362Y44269634D01*
G37*
G36*
X103029305Y44269634D02*
G01*
X103066377Y44244863D01*
X103112637Y44254066D01*
X103125308Y44266737D01*
X103127240Y44267255D01*
X103128654Y44265841D01*
X103128385Y44264212D01*
X103112035Y44239742D01*
X103100549Y44182001D01*
X103100549Y42912399D01*
X103112035Y42854658D01*
X103130155Y42827540D01*
X103130286Y42825544D01*
X103128623Y42824433D01*
X103127381Y42824766D01*
X103090309Y42849537D01*
X103044049Y42840334D01*
X103031378Y42827663D01*
X103029446Y42827145D01*
X103028032Y42828559D01*
X103028301Y42830188D01*
X103044651Y42854658D01*
X103056137Y42912399D01*
X103056137Y44182001D01*
X103044651Y44239742D01*
X103026531Y44266860D01*
X103026400Y44268856D01*
X103028063Y44269967D01*
X103029305Y44269634D01*
G37*
G36*
X108229396Y44269634D02*
G01*
X108266468Y44244863D01*
X108312728Y44254066D01*
X108325399Y44266737D01*
X108327331Y44267255D01*
X108328745Y44265841D01*
X108328476Y44264212D01*
X108312126Y44239742D01*
X108300640Y44182001D01*
X108300640Y42912399D01*
X108312126Y42854658D01*
X108330246Y42827540D01*
X108330377Y42825544D01*
X108328714Y42824433D01*
X108327472Y42824766D01*
X108290400Y42849537D01*
X108244140Y42840334D01*
X108231469Y42827663D01*
X108229537Y42827145D01*
X108228123Y42828559D01*
X108228392Y42830188D01*
X108244742Y42854658D01*
X108256228Y42912399D01*
X108256228Y44182001D01*
X108244742Y44239742D01*
X108226622Y44266860D01*
X108226491Y44268856D01*
X108228154Y44269967D01*
X108229396Y44269634D01*
G37*
G36*
X108879408Y44269634D02*
G01*
X108916480Y44244863D01*
X108962740Y44254066D01*
X108975408Y44266734D01*
X108977340Y44267252D01*
X108978754Y44265838D01*
X108978485Y44264209D01*
X108962137Y44239742D01*
X108950651Y44182001D01*
X108950651Y42912399D01*
X108962137Y42854658D01*
X108980256Y42827540D01*
X108980387Y42825544D01*
X108978724Y42824433D01*
X108977482Y42824766D01*
X108940413Y42849537D01*
X108894153Y42840335D01*
X108881481Y42827663D01*
X108879549Y42827145D01*
X108878135Y42828559D01*
X108878404Y42830188D01*
X108894754Y42854658D01*
X108906240Y42912399D01*
X108906240Y44182001D01*
X108894754Y44239742D01*
X108876634Y44266860D01*
X108876503Y44268856D01*
X108878166Y44269967D01*
X108879408Y44269634D01*
G37*
G36*
X109529419Y44269634D02*
G01*
X109566491Y44244863D01*
X109612751Y44254066D01*
X109625422Y44266737D01*
X109627354Y44267255D01*
X109628768Y44265841D01*
X109628499Y44264212D01*
X109612149Y44239742D01*
X109600663Y44182001D01*
X109600663Y42912399D01*
X109612149Y42854658D01*
X109630269Y42827540D01*
X109630400Y42825544D01*
X109628737Y42824433D01*
X109627495Y42824766D01*
X109590423Y42849537D01*
X109544163Y42840334D01*
X109531492Y42827663D01*
X109529560Y42827145D01*
X109528146Y42828559D01*
X109528415Y42830188D01*
X109544765Y42854658D01*
X109556251Y42912399D01*
X109556251Y44182001D01*
X109544765Y44239742D01*
X109526645Y44266860D01*
X109526514Y44268856D01*
X109528177Y44269967D01*
X109529419Y44269634D01*
G37*
G36*
X9045584Y43783680D02*
G01*
X9045251Y43782438D01*
X9020480Y43745366D01*
X9029683Y43699106D01*
X9042354Y43686435D01*
X9042872Y43684503D01*
X9041458Y43683089D01*
X9039829Y43683358D01*
X9018942Y43697314D01*
X8961201Y43708800D01*
X8361599Y43708800D01*
X8303858Y43697314D01*
X8280323Y43681588D01*
X8278327Y43681457D01*
X8277216Y43683120D01*
X8277549Y43684362D01*
X8302320Y43721434D01*
X8293117Y43767694D01*
X8280446Y43780365D01*
X8279928Y43782297D01*
X8281342Y43783711D01*
X8282971Y43783442D01*
X8303858Y43769486D01*
X8361599Y43758000D01*
X8961201Y43758000D01*
X9018942Y43769486D01*
X9042477Y43785212D01*
X9044473Y43785343D01*
X9045584Y43783680D01*
G37*
G36*
X165603179Y44954869D02*
G01*
X165603686Y44952934D01*
X165603076Y44951958D01*
X165570498Y44923388D01*
X165567428Y44876546D01*
X165598430Y44841195D01*
X165637737Y44836020D01*
X165639324Y44834802D01*
X165639063Y44832819D01*
X165637866Y44832075D01*
X165347483Y44774314D01*
X165258847Y44744226D01*
X165256885Y44744616D01*
X165256242Y44746510D01*
X165256885Y44747624D01*
X165292537Y44778890D01*
X165295607Y44825732D01*
X165264557Y44861139D01*
X165233243Y44867367D01*
X165145470Y44861614D01*
X165143676Y44862499D01*
X165143545Y44864495D01*
X165145099Y44865596D01*
X165356432Y44891170D01*
X165601249Y44955397D01*
X165603179Y44954869D01*
G37*
G36*
X67046676Y45991309D02*
G01*
X67058454Y45901850D01*
X67113436Y45769110D01*
X67187833Y45672154D01*
X67188094Y45670171D01*
X67186507Y45668953D01*
X67184900Y45669457D01*
X67170922Y45682176D01*
X67170608Y45682540D01*
X67147248Y45717303D01*
X67107788Y45743520D01*
X67061771Y45734242D01*
X67035612Y45694868D01*
X67034473Y45683151D01*
X67033310Y45681523D01*
X67031319Y45681717D01*
X67030482Y45683344D01*
X67030482Y45746101D01*
X67018996Y45803842D01*
X66986403Y45852621D01*
X66954384Y45874016D01*
X66953499Y45875810D01*
X66954610Y45877473D01*
X66955885Y45877641D01*
X66999615Y45868942D01*
X67038688Y45895051D01*
X67048736Y45936197D01*
X67042705Y45990829D01*
X67043509Y45992660D01*
X67045497Y45992879D01*
X67046676Y45991309D01*
G37*
G36*
X44619146Y46024011D02*
G01*
X44619245Y46022789D01*
X44608783Y45978187D01*
X44633569Y45938211D01*
X44669921Y45926504D01*
X44671263Y45925021D01*
X44670650Y45923117D01*
X44669308Y45922600D01*
X44614099Y45922600D01*
X44556358Y45911114D01*
X44507579Y45878521D01*
X44474986Y45829742D01*
X44463500Y45772001D01*
X44463500Y45760541D01*
X44462500Y45758809D01*
X44460500Y45758809D01*
X44459652Y45759776D01*
X44441370Y45803911D01*
X44397833Y45821945D01*
X44370161Y45815377D01*
X44345761Y45803106D01*
X44345309Y45802943D01*
X44323972Y45798056D01*
X44322060Y45798645D01*
X44321613Y45800594D01*
X44322760Y45801854D01*
X44433090Y45847554D01*
X44547079Y45935021D01*
X44615711Y46024464D01*
X44617559Y46025229D01*
X44619146Y46024011D01*
G37*
G36*
X70973671Y47785200D02*
G01*
X70973671Y47783200D01*
X70972704Y47782352D01*
X70928569Y47764071D01*
X70910605Y47720701D01*
X70928623Y47677201D01*
X70957220Y47660989D01*
X70962684Y47659617D01*
X70963133Y47659445D01*
X71001391Y47639189D01*
X71002454Y47637494D01*
X71001518Y47635727D01*
X70999690Y47635573D01*
X70906850Y47674028D01*
X70764400Y47692783D01*
X70621950Y47674028D01*
X70531440Y47636538D01*
X70529457Y47636799D01*
X70528692Y47638647D01*
X70529758Y47640163D01*
X70576145Y47664105D01*
X70575942Y47664499D01*
X70576036Y47666497D01*
X70576543Y47667034D01*
X70606301Y47688653D01*
X70613646Y47735016D01*
X70585975Y47773104D01*
X70553463Y47782275D01*
X70552068Y47783708D01*
X70552610Y47785633D01*
X70554006Y47786200D01*
X70971939Y47786200D01*
X70973671Y47785200D01*
G37*
G36*
X165347483Y49296486D02*
G01*
X165637937Y49238710D01*
X165639441Y49237391D01*
X165639051Y49235429D01*
X165637937Y49234786D01*
X165591432Y49225538D01*
X165565351Y49186507D01*
X165574523Y49140391D01*
X165605908Y49116309D01*
X165606673Y49114461D01*
X165605455Y49112874D01*
X165604142Y49112799D01*
X165401252Y49170594D01*
X165169087Y49203635D01*
X165167513Y49204869D01*
X165167795Y49206849D01*
X165169500Y49207611D01*
X165233109Y49203442D01*
X165277968Y49218670D01*
X165298731Y49260772D01*
X165283593Y49305365D01*
X165257261Y49322959D01*
X165256376Y49324753D01*
X165257487Y49326416D01*
X165259015Y49326516D01*
X165347483Y49296486D01*
G37*
G36*
X34427345Y58567842D02*
G01*
X34427614Y58565878D01*
X34419107Y58544717D01*
X34419603Y58497345D01*
X34453111Y58464531D01*
X34504614Y58466961D01*
X34523089Y58476496D01*
X34523539Y58476664D01*
X34547734Y58482473D01*
X34549652Y58481905D01*
X34550119Y58479960D01*
X34548966Y58478680D01*
X34441210Y58434046D01*
X34327221Y58346579D01*
X34239754Y58232590D01*
X34205213Y58149201D01*
X34203626Y58147983D01*
X34201778Y58148748D01*
X34201502Y58150693D01*
X34206715Y58164061D01*
X34205723Y58211426D01*
X34171864Y58243896D01*
X34121550Y58241523D01*
X34096861Y58229105D01*
X34096409Y58228942D01*
X34075068Y58224054D01*
X34073156Y58224643D01*
X34072709Y58226592D01*
X34073856Y58227852D01*
X34184190Y58273554D01*
X34298179Y58361021D01*
X34385646Y58475010D01*
X34423910Y58567389D01*
X34425497Y58568607D01*
X34427345Y58567842D01*
G37*
G36*
X9045584Y60547680D02*
G01*
X9045251Y60546438D01*
X9020480Y60509366D01*
X9029683Y60463106D01*
X9042354Y60450435D01*
X9042872Y60448503D01*
X9041458Y60447089D01*
X9039829Y60447358D01*
X9018942Y60461314D01*
X8961201Y60472800D01*
X8361599Y60472800D01*
X8303858Y60461314D01*
X8280323Y60445588D01*
X8278327Y60445457D01*
X8277216Y60447120D01*
X8277549Y60448362D01*
X8302320Y60485434D01*
X8293117Y60531694D01*
X8280446Y60544365D01*
X8279928Y60546297D01*
X8281342Y60547711D01*
X8282971Y60547442D01*
X8303858Y60533486D01*
X8361599Y60522000D01*
X8961201Y60522000D01*
X9018942Y60533486D01*
X9042477Y60549212D01*
X9044473Y60549343D01*
X9045584Y60547680D01*
G37*
G36*
X42632441Y83530219D02*
G01*
X42689221Y83456221D01*
X42803210Y83368754D01*
X42935950Y83313772D01*
X43040774Y83299971D01*
X43042361Y83298753D01*
X43042100Y83296770D01*
X43040482Y83295988D01*
X43035211Y83296071D01*
X42991164Y83278631D01*
X42972483Y83235460D01*
X42983341Y83199495D01*
X43018371Y83148526D01*
X43018528Y83146532D01*
X43016880Y83145399D01*
X43015136Y83146175D01*
X42959579Y83218579D01*
X42845590Y83306046D01*
X42712850Y83361028D01*
X42605367Y83375179D01*
X42603780Y83376397D01*
X42604041Y83378380D01*
X42605638Y83379162D01*
X42614024Y83379118D01*
X42657887Y83397018D01*
X42676066Y83440265D01*
X42660454Y83475832D01*
X42660673Y83477820D01*
X42661170Y83478296D01*
X42662098Y83478919D01*
X42629194Y83527886D01*
X42629058Y83529881D01*
X42630718Y83530996D01*
X42632441Y83530219D01*
G37*
M02*
