%TF.GenerationSoftware,KiCad,Pcbnew,(6.0.7)*%
%TF.CreationDate,2022-10-28T20:50:29-04:00*%
%TF.ProjectId,Top_Level,546f705f-4c65-4766-956c-2e6b69636164,rev?*%
%TF.SameCoordinates,PX33ef500PY821a7e8*%
%TF.FileFunction,Copper,L1,Top*%
%TF.FilePolarity,Positive*%
%FSLAX46Y46*%
G04 Gerber Fmt 4.6, Leading zero omitted, Abs format (unit mm)*
G04 Created by KiCad (PCBNEW (6.0.7)) date 2022-10-28 20:50:29*
%MOMM*%
%LPD*%
G01*
G04 APERTURE LIST*
%TA.AperFunction,Profile*%
%ADD10C,0.279400*%
%TD*%
%TA.AperFunction,SMDPad,CuDef*%
%ADD11R,0.800000X1.600000*%
%TD*%
%TA.AperFunction,SMDPad,CuDef*%
%ADD12R,1.600000X2.450000*%
%TD*%
%TA.AperFunction,SMDPad,CuDef*%
%ADD13R,1.498600X3.911600*%
%TD*%
%TA.AperFunction,ComponentPad*%
%ADD14C,1.400000*%
%TD*%
%TA.AperFunction,ComponentPad*%
%ADD15C,2.800000*%
%TD*%
%TA.AperFunction,SMDPad,CuDef*%
%ADD16R,2.720000X1.020000*%
%TD*%
%TA.AperFunction,SMDPad,CuDef*%
%ADD17R,1.600000X0.800000*%
%TD*%
%TA.AperFunction,ComponentPad*%
%ADD18C,2.100000*%
%TD*%
%TA.AperFunction,SMDPad,CuDef*%
%ADD19R,2.641600X1.193800*%
%TD*%
%TA.AperFunction,SMDPad,CuDef*%
%ADD20R,0.450000X1.475000*%
%TD*%
%TA.AperFunction,SMDPad,CuDef*%
%ADD21R,0.700000X1.300000*%
%TD*%
%TA.AperFunction,SMDPad,CuDef*%
%ADD22R,0.711200X0.330200*%
%TD*%
%TA.AperFunction,SMDPad,CuDef*%
%ADD23R,1.570000X2.820000*%
%TD*%
%TA.AperFunction,SMDPad,CuDef*%
%ADD24R,0.330200X0.711200*%
%TD*%
%TA.AperFunction,SMDPad,CuDef*%
%ADD25R,1.400000X1.000000*%
%TD*%
%TA.AperFunction,SMDPad,CuDef*%
%ADD26R,0.420000X0.460000*%
%TD*%
%TA.AperFunction,SMDPad,CuDef*%
%ADD27R,0.300000X0.475000*%
%TD*%
%TA.AperFunction,SMDPad,CuDef*%
%ADD28R,0.655600X0.800000*%
%TD*%
%TA.AperFunction,ComponentPad*%
%ADD29C,1.600000*%
%TD*%
%TA.AperFunction,SMDPad,CuDef*%
%ADD30R,3.350000X1.250000*%
%TD*%
%TA.AperFunction,SMDPad,CuDef*%
%ADD31R,1.000000X1.400000*%
%TD*%
%TA.AperFunction,ComponentPad*%
%ADD32R,2.025000X2.025000*%
%TD*%
%TA.AperFunction,ComponentPad*%
%ADD33C,2.025000*%
%TD*%
%TA.AperFunction,SMDPad,CuDef*%
%ADD34R,15.000000X15.000000*%
%TD*%
%TA.AperFunction,ComponentPad*%
%ADD35R,1.700000X1.700000*%
%TD*%
%TA.AperFunction,ComponentPad*%
%ADD36O,1.700000X1.700000*%
%TD*%
%TA.AperFunction,SMDPad,CuDef*%
%ADD37R,0.800000X0.655600*%
%TD*%
%TA.AperFunction,SMDPad,CuDef*%
%ADD38R,1.250000X3.350000*%
%TD*%
%TA.AperFunction,SMDPad,CuDef*%
%ADD39R,3.500000X1.600000*%
%TD*%
%TA.AperFunction,SMDPad,CuDef*%
%ADD40R,0.750000X0.600000*%
%TD*%
%TA.AperFunction,SMDPad,CuDef*%
%ADD41R,1.200000X1.200000*%
%TD*%
%TA.AperFunction,ComponentPad*%
%ADD42C,1.200000*%
%TD*%
%TA.AperFunction,SMDPad,CuDef*%
%ADD43R,1.400000X1.050000*%
%TD*%
%TA.AperFunction,ComponentPad*%
%ADD44O,1.600000X1.600000*%
%TD*%
%TA.AperFunction,SMDPad,CuDef*%
%ADD45R,0.460000X0.420000*%
%TD*%
%TA.AperFunction,ComponentPad*%
%ADD46C,5.040000*%
%TD*%
%TA.AperFunction,ComponentPad*%
%ADD47C,4.065000*%
%TD*%
%TA.AperFunction,ComponentPad*%
%ADD48C,4.335000*%
%TD*%
%TA.AperFunction,ComponentPad*%
%ADD49C,1.800000*%
%TD*%
%TA.AperFunction,SMDPad,CuDef*%
%ADD50R,1.016000X2.692400*%
%TD*%
%TA.AperFunction,SMDPad,CuDef*%
%ADD51R,10.464800X10.871200*%
%TD*%
%TA.AperFunction,SMDPad,CuDef*%
%ADD52R,0.600000X0.750000*%
%TD*%
%TA.AperFunction,SMDPad,CuDef*%
%ADD53R,0.304800X1.270000*%
%TD*%
%TA.AperFunction,SMDPad,CuDef*%
%ADD54R,3.039999X2.340000*%
%TD*%
%TA.AperFunction,SMDPad,CuDef*%
%ADD55R,1.020000X2.720000*%
%TD*%
%TA.AperFunction,SMDPad,CuDef*%
%ADD56R,11.912600X2.971800*%
%TD*%
%TA.AperFunction,ComponentPad*%
%ADD57C,1.422400*%
%TD*%
%TA.AperFunction,ComponentPad*%
%ADD58C,2.768600*%
%TD*%
%TA.AperFunction,SMDPad,CuDef*%
%ADD59R,2.971800X0.558800*%
%TD*%
%TA.AperFunction,SMDPad,CuDef*%
%ADD60R,3.300000X2.450000*%
%TD*%
%TA.AperFunction,SMDPad,CuDef*%
%ADD61R,0.950000X0.750000*%
%TD*%
%TA.AperFunction,SMDPad,CuDef*%
%ADD62R,1.070000X2.160000*%
%TD*%
%TA.AperFunction,SMDPad,CuDef*%
%ADD63R,10.800000X1.910000*%
%TD*%
%TA.AperFunction,SMDPad,CuDef*%
%ADD64R,8.330000X5.080000*%
%TD*%
%TA.AperFunction,SMDPad,CuDef*%
%ADD65R,5.308600X2.794000*%
%TD*%
%TA.AperFunction,ViaPad*%
%ADD66C,1.500000*%
%TD*%
%TA.AperFunction,ViaPad*%
%ADD67C,0.800000*%
%TD*%
%TA.AperFunction,ViaPad*%
%ADD68C,1.000000*%
%TD*%
%TA.AperFunction,ViaPad*%
%ADD69C,0.889000*%
%TD*%
%TA.AperFunction,Conductor*%
%ADD70C,0.250000*%
%TD*%
%TA.AperFunction,Conductor*%
%ADD71C,1.000000*%
%TD*%
%TA.AperFunction,Conductor*%
%ADD72C,0.400000*%
%TD*%
%TA.AperFunction,Conductor*%
%ADD73C,0.600000*%
%TD*%
%TA.AperFunction,Conductor*%
%ADD74C,0.200000*%
%TD*%
%TA.AperFunction,Conductor*%
%ADD75C,0.300000*%
%TD*%
G04 APERTURE END LIST*
D10*
X0Y25400D02*
X173990000Y25400D01*
X173990000Y25400D02*
X173990000Y97815400D01*
X173990000Y97815400D02*
X0Y97815400D01*
X0Y97815400D02*
X0Y25400D01*
D11*
%TO.P,R61,1*%
%TO.N,Net-(J16-Pad4)*%
X15571904Y80300856D03*
%TO.P,R61,2*%
%TO.N,GND*%
X17971904Y80300856D03*
%TD*%
D12*
%TO.P,D3,1*%
%TO.N,Net-(D3-Pad1)*%
X151638000Y27339400D03*
%TO.P,D3,2*%
%TO.N,GND*%
X151638000Y31639400D03*
%TD*%
D13*
%TO.P,C36,1*%
%TO.N,+5V*%
X139700000Y84258150D03*
%TO.P,C36,2*%
%TO.N,GND*%
X139700000Y93351350D03*
%TD*%
D14*
%TO.P,JP13,1,A*%
%TO.N,+3.3V*%
X105156000Y21067400D03*
%TO.P,JP13,2,B*%
%TO.N,Net-(JP13-Pad2)*%
X105156000Y18527400D03*
%TD*%
D15*
%TO.P,TP14,1,1*%
%TO.N,Net-(C30-Pad1)*%
X171323000Y75697400D03*
%TD*%
D16*
%TO.P,C32,1*%
%TO.N,GND*%
X100076000Y11175400D03*
%TO.P,C32,2*%
%TO.N,Net-(C32-Pad2)*%
X100076000Y13975400D03*
%TD*%
D17*
%TO.P,R11,1*%
%TO.N,Net-(IC2-Pad12)*%
X99977722Y45277212D03*
%TO.P,R11,2*%
%TO.N,GND*%
X99977722Y42877212D03*
%TD*%
D11*
%TO.P,R48,1*%
%TO.N,Net-(C32-Pad2)*%
X102659000Y14408400D03*
%TO.P,R48,2*%
%TO.N,Net-(JP13-Pad2)*%
X105059000Y14408400D03*
%TD*%
D18*
%TO.P,J8,1,1*%
%TO.N,GND*%
X76482000Y4831400D03*
%TO.P,J8,2,2*%
%TO.N,Net-(J8-Pad2)*%
X79982000Y4831400D03*
%TD*%
D19*
%TO.P,R2,1*%
%TO.N,GND*%
X50990500Y52959000D03*
%TO.P,R2,2*%
%TO.N,Net-(IC1-Pad6)*%
X50990500Y48285400D03*
%TD*%
D20*
%TO.P,IC5,1,A4_CHANNEL_IN/OUT*%
%TO.N,Net-(IC5-Pad1)*%
X36067779Y86214991D03*
%TO.P,IC5,2,A6_CHANNEL_IN/OUT*%
%TO.N,Net-(IC5-Pad2)*%
X36717779Y86214991D03*
%TO.P,IC5,3,COM_OUT/IN_A*%
%TO.N,Net-(IC5-Pad3)*%
X37367779Y86214991D03*
%TO.P,IC5,4,A7_CHANNEL_IN/OUT*%
%TO.N,Net-(IC5-Pad4)*%
X38017779Y86214991D03*
%TO.P,IC5,5,A5_CHANNEL_IN/OUT*%
%TO.N,Net-(IC5-Pad5)*%
X38667779Y86214991D03*
%TO.P,IC5,6,~{E}*%
%TO.N,GND*%
X39317779Y86214991D03*
%TO.P,IC5,7,VEE*%
X39967779Y86214991D03*
%TO.P,IC5,8,GND*%
X40617779Y86214991D03*
%TO.P,IC5,9,S2_ADDRESS_SELECT*%
%TO.N,DEMUX_S2*%
X40617779Y92090991D03*
%TO.P,IC5,10,S1_ADDRESS_SELECT*%
%TO.N,DEMUX_S1*%
X39967779Y92090991D03*
%TO.P,IC5,11,S0_ADDRESS_SELECT*%
%TO.N,DEMUX_S0*%
X39317779Y92090991D03*
%TO.P,IC5,12,A3_CHANNEL_IN/OUT*%
%TO.N,Net-(IC5-Pad12)*%
X38667779Y92090991D03*
%TO.P,IC5,13,A0_CHANNEL_IN/OUT*%
%TO.N,Net-(IC5-Pad13)*%
X38017779Y92090991D03*
%TO.P,IC5,14,A1_CHANNEL_IN/OUT*%
%TO.N,Net-(IC5-Pad14)*%
X37367779Y92090991D03*
%TO.P,IC5,15,A2_CHANNEL_IN/OUT*%
%TO.N,Net-(IC5-Pad15)*%
X36717779Y92090991D03*
%TO.P,IC5,16,VCC*%
%TO.N,+3.3V*%
X36067779Y92090991D03*
%TD*%
D11*
%TO.P,R75,1*%
%TO.N,Net-(C38-Pad2)*%
X46172000Y14408400D03*
%TO.P,R75,2*%
%TO.N,Net-(JP18-Pad2)*%
X48572000Y14408400D03*
%TD*%
D21*
%TO.P,R35,1*%
%TO.N,Net-(C19-Pad1)*%
X74234682Y48564300D03*
%TO.P,R35,2*%
%TO.N,Net-(C23-Pad1)*%
X76134682Y48564300D03*
%TD*%
D18*
%TO.P,J9,1,1*%
%TO.N,GND*%
X110518000Y4831400D03*
%TO.P,J9,2,2*%
%TO.N,Net-(J9-Pad2)*%
X114018000Y4831400D03*
%TD*%
D22*
%TO.P,U8,1,1*%
%TO.N,GND*%
X11747500Y21107400D03*
%TO.P,U8,2,2*%
%TO.N,COLOR_OUT*%
X13144500Y21107400D03*
%TD*%
D23*
%TO.P,F1,1,1*%
%TO.N,Net-(F1-Pad1)*%
X167901000Y34818700D03*
%TO.P,F1,2,2*%
%TO.N,+24V*%
X157981000Y34818700D03*
%TO.P,F1,3,3*%
X157981000Y28758700D03*
%TO.P,F1,4,4*%
%TO.N,Net-(F1-Pad1)*%
X167901000Y28758700D03*
%TD*%
D15*
%TO.P,TP4,1,1*%
%TO.N,Z_ENABLE*%
X96342200Y29748800D03*
%TD*%
D18*
%TO.P,J2,1,1*%
%TO.N,/Electromagnet1/OUT1*%
X149380000Y90411400D03*
%TO.P,J2,2,2*%
%TO.N,/Electromagnet1/OUT2*%
X152880000Y90411400D03*
%TD*%
D24*
%TO.P,U15,1,1*%
%TO.N,GND*%
X29337000Y11244900D03*
%TO.P,U15,2,2*%
%TO.N,NEXT_TURN_OUT*%
X29337000Y12641900D03*
%TD*%
D22*
%TO.P,U2,1,1*%
%TO.N,GND*%
X121221500Y18801400D03*
%TO.P,U2,2,2*%
%TO.N,U3TX*%
X119824500Y18801400D03*
%TD*%
D25*
%TO.P,R54,1*%
%TO.N,Net-(JP16-Pad2)*%
X92390463Y81908712D03*
%TO.P,R54,2*%
%TO.N,Net-(IC6-Pad3)*%
X92390463Y83808712D03*
%TD*%
D13*
%TO.P,C30,1*%
%TO.N,Net-(C30-Pad1)*%
X162306000Y75558650D03*
%TO.P,C30,2*%
%TO.N,GND*%
X162306000Y66465450D03*
%TD*%
D26*
%TO.P,C21,1*%
%TO.N,Net-(C19-Pad1)*%
X76708000Y54203400D03*
%TO.P,C21,2*%
%TO.N,GND*%
X76708000Y53543400D03*
%TD*%
D24*
%TO.P,U14,1,1*%
%TO.N,GND*%
X40643967Y82891067D03*
%TO.P,U14,2,2*%
%TO.N,Net-(JP15-Pad2)*%
X40643967Y81494067D03*
%TD*%
D26*
%TO.P,C12,1*%
%TO.N,Net-(C12-Pad1)*%
X111990722Y44253212D03*
%TO.P,C12,2*%
%TO.N,Net-(C12-Pad2)*%
X111990722Y43593212D03*
%TD*%
D14*
%TO.P,JP19,1,A*%
%TO.N,+3.3V*%
X71247000Y21067400D03*
%TO.P,JP19,2,B*%
%TO.N,Net-(JP19-Pad2)*%
X71247000Y18527400D03*
%TD*%
D27*
%TO.P,IC7,1,IN1*%
%TO.N,MAG_IN2*%
X146312000Y83515400D03*
%TO.P,IC7,2,IN2*%
%TO.N,MAG_IN1*%
X146812000Y83515400D03*
%TO.P,IC7,3,GND*%
%TO.N,GND*%
X147312000Y83515400D03*
%TO.P,IC7,4,OUT2*%
%TO.N,/Electromagnet1/OUT2*%
X147312000Y85191400D03*
%TO.P,IC7,5,VM*%
%TO.N,+5V*%
X146812000Y85191400D03*
%TO.P,IC7,6,OUT1*%
%TO.N,/Electromagnet1/OUT1*%
X146312000Y85191400D03*
%TD*%
D21*
%TO.P,R8,1*%
%TO.N,Net-(C10-Pad2)*%
X111802722Y49003212D03*
%TO.P,R8,2*%
%TO.N,Net-(C11-Pad1)*%
X113702722Y49003212D03*
%TD*%
D28*
%TO.P,C25,1*%
%TO.N,+24V*%
X139888200Y21361400D03*
%TO.P,C25,2*%
%TO.N,GND*%
X141543800Y21361400D03*
%TD*%
D15*
%TO.P,TP12,1,1*%
%TO.N,GND*%
X169926000Y15265400D03*
%TD*%
D29*
%TO.P,C28,1*%
%TO.N,+24V*%
X153162000Y22611400D03*
%TO.P,C28,2*%
%TO.N,GND*%
X153162000Y20111400D03*
%TD*%
D30*
%TO.P,R22,1*%
%TO.N,Net-(C14-Pad2)*%
X16129000Y45265400D03*
%TO.P,R22,2*%
%TO.N,RESET_OUT*%
X16129000Y51265400D03*
%TD*%
D14*
%TO.P,JP16,1,A*%
%TO.N,MUX_OUT*%
X94869000Y73685400D03*
%TO.P,JP16,2,B*%
%TO.N,Net-(JP16-Pad2)*%
X94869000Y76225400D03*
%TD*%
D24*
%TO.P,U12,1,1*%
%TO.N,GND*%
X96774000Y11244900D03*
%TO.P,U12,2,2*%
%TO.N,LS_X_OUT*%
X96774000Y12641900D03*
%TD*%
D11*
%TO.P,R62,1*%
%TO.N,Net-(J17-Pad4)*%
X127996677Y78237400D03*
%TO.P,R62,2*%
%TO.N,GND*%
X130396677Y78237400D03*
%TD*%
D31*
%TO.P,R51,1*%
%TO.N,LED_G*%
X31369000Y26421400D03*
%TO.P,R51,2*%
%TO.N,Net-(LED1-Pad4)*%
X29469000Y26421400D03*
%TD*%
D32*
%TO.P,J16,1,1*%
%TO.N,Net-(J16-Pad1)*%
X4640753Y84716514D03*
D33*
%TO.P,J16,2,2*%
%TO.N,Net-(J16-Pad2)*%
X8450753Y84716514D03*
%TO.P,J16,3,3*%
%TO.N,Net-(J16-Pad3)*%
X12260753Y84716514D03*
%TO.P,J16,4,4*%
%TO.N,Net-(J16-Pad4)*%
X16070753Y84716514D03*
%TD*%
D19*
%TO.P,R36,1*%
%TO.N,GND*%
X71120682Y53187100D03*
%TO.P,R36,2*%
%TO.N,Net-(IC3-Pad6)*%
X71120682Y48513500D03*
%TD*%
D32*
%TO.P,J15,1,1*%
%TO.N,Net-(IC6-Pad15)*%
X111694463Y92536400D03*
D33*
%TO.P,J15,2,2*%
%TO.N,Net-(IC6-Pad14)*%
X107884463Y92536400D03*
%TO.P,J15,3,3*%
%TO.N,Net-(IC6-Pad13)*%
X104074463Y92536400D03*
%TO.P,J15,4,4*%
%TO.N,Net-(IC6-Pad12)*%
X100264463Y92536400D03*
%TD*%
D34*
%TO.P,HS1,1*%
%TO.N,GND*%
X125349000Y44983400D03*
%TD*%
D22*
%TO.P,U5,1,1*%
%TO.N,GND*%
X8864600Y67328100D03*
%TO.P,U5,2,2*%
%TO.N,HOME_OUT*%
X10261600Y67328100D03*
%TD*%
D14*
%TO.P,JP11,1,A*%
%TO.N,+5V*%
X135128000Y72903400D03*
%TO.P,JP11,2,B*%
%TO.N,Net-(C30-Pad1)*%
X135128000Y70363400D03*
%TD*%
D19*
%TO.P,R10,1*%
%TO.N,GND*%
X105386722Y52864012D03*
%TO.P,R10,2*%
%TO.N,Net-(IC2-Pad9)*%
X105386722Y48190412D03*
%TD*%
D35*
%TO.P,J5-J7,1,Pin_1*%
%TO.N,N/C*%
X105029000Y27203400D03*
D36*
%TO.P,J5-J7,2,Pin_2*%
%TO.N,+3.3V*%
X105029000Y24663400D03*
%TO.P,J5-J7,3,Pin_3*%
%TO.N,GND*%
X107569000Y27203400D03*
%TO.P,J5-J7,4,Pin_4*%
%TO.N,X_HOME*%
X107569000Y24663400D03*
%TO.P,J5-J7,5,Pin_5*%
%TO.N,Z_FAULT*%
X110109000Y27203400D03*
%TO.P,J5-J7,6,Pin_6*%
%TO.N,/MSP432E401Y/PP_0*%
X110109000Y24663400D03*
%TO.P,J5-J7,7,Pin_7*%
%TO.N,Z_HOME*%
X112649000Y27203400D03*
%TO.P,J5-J7,8,Pin_8*%
%TO.N,CAPTURE_OUT*%
X112649000Y24663400D03*
%TO.P,J5-J7,9,Pin_9*%
%TO.N,LS_Z_OUT*%
X115189000Y27203400D03*
%TO.P,J5-J7,10,Pin_10*%
%TO.N,/MSP432E401Y/PD_4*%
X115189000Y24663400D03*
%TO.P,J5-J7,11,Pin_11*%
%TO.N,LS_Y_OUT*%
X117729000Y27203400D03*
%TO.P,J5-J7,12,Pin_12*%
%TO.N,/MSP432E401Y/PD_5*%
X117729000Y24663400D03*
%TO.P,J5-J7,13,Pin_13*%
%TO.N,LS_X_OUT*%
X120269000Y27203400D03*
%TO.P,J5-J7,14,Pin_14*%
%TO.N,/MSP432E401Y/PQ_0*%
X120269000Y24663400D03*
%TO.P,J5-J7,15,Pin_15*%
%TO.N,/MSP432E401Y/PK_3*%
X122809000Y27203400D03*
%TO.P,J5-J7,16,Pin_16*%
%TO.N,Z_DIR*%
X122809000Y24663400D03*
%TO.P,J5-J7,17,Pin_17*%
%TO.N,U3RX*%
X125349000Y27203400D03*
%TO.P,J5-J7,18,Pin_18*%
%TO.N,Z_ENABLE*%
X125349000Y24663400D03*
%TO.P,J5-J7,19,Pin_19*%
%TO.N,U3TX*%
X127889000Y27203400D03*
%TO.P,J5-J7,20,Pin_20*%
%TO.N,Z_STEP*%
X127889000Y24663400D03*
%TD*%
D30*
%TO.P,R31,1*%
%TO.N,Net-(C17-Pad2)*%
X18161000Y15567400D03*
%TO.P,R31,2*%
%TO.N,COLOR_OUT*%
X18161000Y21567400D03*
%TD*%
D32*
%TO.P,J12,1,1*%
%TO.N,Net-(IC5-Pad5)*%
X15290753Y94171050D03*
D33*
%TO.P,J12,2,2*%
%TO.N,Net-(IC5-Pad4)*%
X11480753Y94171050D03*
%TO.P,J12,3,3*%
%TO.N,Net-(IC5-Pad2)*%
X7670753Y94171050D03*
%TO.P,J12,4,4*%
%TO.N,Net-(IC5-Pad1)*%
X3860753Y94171050D03*
%TD*%
D16*
%TO.P,C16,1*%
%TO.N,GND*%
X76962000Y11175400D03*
%TO.P,C16,2*%
%TO.N,Net-(C16-Pad2)*%
X76962000Y13975400D03*
%TD*%
D32*
%TO.P,J17,1,1*%
%TO.N,Net-(J17-Pad1)*%
X117545463Y82946400D03*
D33*
%TO.P,J17,2,2*%
%TO.N,Net-(J17-Pad2)*%
X121355463Y82946400D03*
%TO.P,J17,3,3*%
%TO.N,Net-(J17-Pad3)*%
X125165463Y82946400D03*
%TO.P,J17,4,4*%
%TO.N,Net-(J17-Pad4)*%
X128975463Y82946400D03*
%TD*%
D24*
%TO.P,U3,1,1*%
%TO.N,GND*%
X85991700Y11244900D03*
%TO.P,U3,2,2*%
%TO.N,LS_Y_OUT*%
X85991700Y12641900D03*
%TD*%
D18*
%TO.P,J23,1,1*%
%TO.N,GND*%
X54178000Y4831400D03*
%TO.P,J23,2,2*%
%TO.N,Net-(J23-Pad2)*%
X57678000Y4831400D03*
%TD*%
D30*
%TO.P,R46,1*%
%TO.N,Net-(C31-Pad2)*%
X16129000Y29537400D03*
%TO.P,R46,2*%
%TO.N,START_OUT*%
X16129000Y35537400D03*
%TD*%
D11*
%TO.P,R68,1*%
%TO.N,Net-(J19-Pad3)*%
X107292463Y78237400D03*
%TO.P,R68,2*%
%TO.N,GND*%
X109692463Y78237400D03*
%TD*%
%TO.P,R63,1*%
%TO.N,Net-(J18-Pad1)*%
X19878516Y80300856D03*
%TO.P,R63,2*%
%TO.N,GND*%
X22278516Y80300856D03*
%TD*%
D16*
%TO.P,C13,1*%
%TO.N,GND*%
X88900000Y11175400D03*
%TO.P,C13,2*%
%TO.N,Net-(C13-Pad2)*%
X88900000Y13975400D03*
%TD*%
D37*
%TO.P,C35,1*%
%TO.N,+5V*%
X148844000Y85181200D03*
%TO.P,C35,2*%
%TO.N,GND*%
X148844000Y83525600D03*
%TD*%
D29*
%TO.P,C27,1*%
%TO.N,+24V*%
X160528000Y58211400D03*
%TO.P,C27,2*%
%TO.N,GND*%
X160528000Y60711400D03*
%TD*%
D11*
%TO.P,R72,1*%
%TO.N,Net-(C37-Pad2)*%
X34587000Y14408400D03*
%TO.P,R72,2*%
%TO.N,Net-(JP17-Pad2)*%
X36987000Y14408400D03*
%TD*%
D38*
%TO.P,R82,1*%
%TO.N,Net-(C40-Pad2)*%
X57892000Y19309400D03*
%TO.P,R82,2*%
%TO.N,FP_1_OUT*%
X51892000Y19309400D03*
%TD*%
D35*
%TO.P,J4-J2,1,Pin_1*%
%TO.N,GND*%
X41529000Y70383400D03*
D36*
%TO.P,J4-J2,2,Pin_2*%
%TO.N,RESET_OUT*%
X41529000Y67843400D03*
%TO.P,J4-J2,3,Pin_3*%
%TO.N,HOME_OUT*%
X44069000Y70383400D03*
%TO.P,J4-J2,4,Pin_4*%
%TO.N,START_OUT*%
X44069000Y67843400D03*
%TO.P,J4-J2,5,Pin_5*%
%TO.N,/MSP432E401Y/PH_2*%
X46609000Y70383400D03*
%TO.P,J4-J2,6,Pin_6*%
%TO.N,Y_HOME*%
X46609000Y67843400D03*
%TO.P,J4-J2,7,Pin_7*%
%TO.N,/MSP432E401Y/PH_3*%
X49149000Y70383400D03*
%TO.P,J4-J2,8,Pin_8*%
%TO.N,Y_FAULT*%
X49149000Y67843400D03*
%TO.P,J4-J2,9,Pin_9*%
%TO.N,/MSP432E401Y/RST*%
X51689000Y70383400D03*
%TO.P,J4-J2,10,Pin_10*%
%TO.N,/MSP432E401Y/PL_4*%
X51689000Y67843400D03*
%TO.P,J4-J2,11,Pin_11*%
%TO.N,DEMUX_S0*%
X54229000Y70383400D03*
%TO.P,J4-J2,12,Pin_12*%
%TO.N,/MSP432E401Y/PL_5*%
X54229000Y67843400D03*
%TO.P,J4-J2,13,Pin_13*%
%TO.N,DEMUX_S1*%
X56769000Y70383400D03*
%TO.P,J4-J2,14,Pin_14*%
%TO.N,/MSP432E401Y/PL_0*%
X56769000Y67843400D03*
%TO.P,J4-J2,15,Pin_15*%
%TO.N,DEMUX_S2*%
X59309000Y70383400D03*
%TO.P,J4-J2,16,Pin_16*%
%TO.N,/MSP432E401Y/PL_1*%
X59309000Y67843400D03*
%TO.P,J4-J2,17,Pin_17*%
%TO.N,/MSP432E401Y/PN_3*%
X61849000Y70383400D03*
%TO.P,J4-J2,18,Pin_18*%
%TO.N,/MSP432E401Y/PL_2*%
X61849000Y67843400D03*
%TO.P,J4-J2,19,Pin_19*%
%TO.N,/MSP432E401Y/PP_2*%
X64389000Y70383400D03*
%TO.P,J4-J2,20,Pin_20*%
%TO.N,/MSP432E401Y/PL_3*%
X64389000Y67843400D03*
%TD*%
D22*
%TO.P,U4,1,1*%
%TO.N,GND*%
X8864600Y51072100D03*
%TO.P,U4,2,2*%
%TO.N,RESET_OUT*%
X10261600Y51072100D03*
%TD*%
D39*
%TO.P,C2,1*%
%TO.N,GND*%
X41592500Y39668200D03*
%TO.P,C2,2*%
%TO.N,Net-(C2-Pad2)*%
X41592500Y35668200D03*
%TD*%
D14*
%TO.P,JP3,1,A*%
%TO.N,+3.3V*%
X94234000Y21067400D03*
%TO.P,JP3,2,B*%
%TO.N,Net-(JP3-Pad2)*%
X94234000Y18527400D03*
%TD*%
D22*
%TO.P,U11,1,1*%
%TO.N,GND*%
X8699500Y34823400D03*
%TO.P,U11,2,2*%
%TO.N,START_OUT*%
X10096500Y34823400D03*
%TD*%
D37*
%TO.P,C34,1*%
%TO.N,GND*%
X38574010Y82990042D03*
%TO.P,C34,2*%
%TO.N,+3.3V*%
X38574010Y81334442D03*
%TD*%
D35*
%TO.P,J1-J3,1,Pin_1*%
%TO.N,/MSP432E401Y/+5V*%
X41529000Y27203400D03*
D36*
%TO.P,J1-J3,2,Pin_2*%
%TO.N,+3.3V*%
X41529000Y24663400D03*
%TO.P,J1-J3,3,Pin_3*%
%TO.N,GND*%
X44069000Y27203400D03*
%TO.P,J1-J3,4,Pin_4*%
%TO.N,LED_G*%
X44069000Y24663400D03*
%TO.P,J1-J3,5,Pin_5*%
%TO.N,XYZ_RESET*%
X46609000Y27203400D03*
%TO.P,J1-J3,6,Pin_6*%
%TO.N,LED_R*%
X46609000Y24663400D03*
%TO.P,J1-J3,7,Pin_7*%
%TO.N,XYZ_DECAY*%
X49149000Y27203400D03*
%TO.P,J1-J3,8,Pin_8*%
%TO.N,LED_B*%
X49149000Y24663400D03*
%TO.P,J1-J3,9,Pin_9*%
%TO.N,Y_DIR*%
X51689000Y27203400D03*
%TO.P,J1-J3,10,Pin_10*%
%TO.N,COLOR_OUT*%
X51689000Y24663400D03*
%TO.P,J1-J3,11,Pin_11*%
%TO.N,Y_ENABLE*%
X54229000Y27203400D03*
%TO.P,J1-J3,12,Pin_12*%
%TO.N,NEXT_TURN_OUT*%
X54229000Y24663400D03*
%TO.P,J1-J3,13,Pin_13*%
%TO.N,Y_STEP*%
X56769000Y27203400D03*
%TO.P,J1-J3,14,Pin_14*%
%TO.N,X_FAULT*%
X56769000Y24663400D03*
%TO.P,J1-J3,15,Pin_15*%
%TO.N,XY_MS0*%
X59309000Y27203400D03*
%TO.P,J1-J3,16,Pin_16*%
%TO.N,X_STEP*%
X59309000Y24663400D03*
%TO.P,J1-J3,17,Pin_17*%
%TO.N,XY_MS1*%
X61849000Y27203400D03*
%TO.P,J1-J3,18,Pin_18*%
%TO.N,X_ENABLE*%
X61849000Y24663400D03*
%TO.P,J1-J3,19,Pin_19*%
%TO.N,XY_MS2*%
X64389000Y27203400D03*
%TO.P,J1-J3,20,Pin_20*%
%TO.N,X_DIR*%
X64389000Y24663400D03*
%TD*%
D40*
%TO.P,R32,1*%
%TO.N,Net-(J9-Pad2)*%
X114624000Y10927400D03*
%TO.P,R32,2*%
%TO.N,Net-(C18-Pad2)*%
X113524000Y10927400D03*
%TD*%
D14*
%TO.P,JP5,1,A*%
%TO.N,+3.3V*%
X15728000Y59461400D03*
%TO.P,JP5,2,B*%
%TO.N,Net-(JP5-Pad2)*%
X13188000Y59461400D03*
%TD*%
D17*
%TO.P,R21,1*%
%TO.N,Net-(C14-Pad2)*%
X10593000Y45321400D03*
%TO.P,R21,2*%
%TO.N,Net-(JP4-Pad2)*%
X10593000Y42921400D03*
%TD*%
D15*
%TO.P,TP3,1,1*%
%TO.N,Y_DIR*%
X40386000Y31806200D03*
%TD*%
D17*
%TO.P,R14,1*%
%TO.N,Net-(C8-Pad2)*%
X112574000Y37935400D03*
%TO.P,R14,2*%
%TO.N,Z_HOME*%
X112574000Y35535400D03*
%TD*%
D12*
%TO.P,D4,1*%
%TO.N,Net-(D4-Pad1)*%
X151638000Y51451400D03*
%TO.P,D4,2*%
%TO.N,GND*%
X151638000Y47151400D03*
%TD*%
D15*
%TO.P,TP8,1,1*%
%TO.N,X_STEP*%
X85648800Y30282200D03*
%TD*%
D32*
%TO.P,J3,1,1*%
%TO.N,/StepperDriver1/2B*%
X60978000Y92289400D03*
D33*
%TO.P,J3,2,2*%
%TO.N,/StepperDriver1/2A*%
X64788000Y92289400D03*
%TO.P,J3,3,3*%
%TO.N,/StepperDriver1/1B*%
X68598000Y92289400D03*
%TO.P,J3,4,4*%
%TO.N,/StepperDriver1/1A*%
X72408000Y92289400D03*
%TD*%
D41*
%TO.P,D2,1*%
%TO.N,Net-(D2-Pad1)*%
X135128000Y63559400D03*
%TO.P,D2,2*%
%TO.N,GND*%
X135128000Y61459400D03*
%TD*%
D15*
%TO.P,TP2,1,1*%
%TO.N,Y_STEP*%
X36245800Y31349000D03*
%TD*%
D39*
%TO.P,C20,1*%
%TO.N,GND*%
X62484682Y39134300D03*
%TO.P,C20,2*%
%TO.N,Net-(C20-Pad2)*%
X62484682Y35134300D03*
%TD*%
D11*
%TO.P,R65,1*%
%TO.N,Net-(J18-Pad2)*%
X23922213Y80300856D03*
%TO.P,R65,2*%
%TO.N,GND*%
X26322213Y80300856D03*
%TD*%
D14*
%TO.P,JP12,1,A*%
%TO.N,+3.3V*%
X15728000Y26949400D03*
%TO.P,JP12,2,B*%
%TO.N,Net-(JP12-Pad2)*%
X13188000Y26949400D03*
%TD*%
%TO.P,JP10,1,A*%
%TO.N,+3.3V*%
X127782000Y21361400D03*
%TO.P,JP10,2,B*%
%TO.N,Net-(C29-Pad1)*%
X130322000Y21361400D03*
%TD*%
D42*
%TO.P,LED1,1,ANODE_BLUE*%
%TO.N,Net-(LED1-Pad1)*%
X24511000Y30526400D03*
%TO.P,LED1,2,ANODE_RED*%
%TO.N,Net-(LED1-Pad2)*%
X23711000Y29256400D03*
%TO.P,LED1,3,COMMON_CATHODE*%
%TO.N,Net-(JP14-Pad2)*%
X24511000Y27986400D03*
%TO.P,LED1,4,ANODE_GREEN*%
%TO.N,Net-(LED1-Pad4)*%
X23711000Y26716400D03*
%TD*%
D40*
%TO.P,R80,1*%
%TO.N,Net-(J23-Pad2)*%
X58998000Y10927400D03*
%TO.P,R80,2*%
%TO.N,Net-(C40-Pad2)*%
X57898000Y10927400D03*
%TD*%
D30*
%TO.P,R25,1*%
%TO.N,Net-(C15-Pad2)*%
X16129000Y62049400D03*
%TO.P,R25,2*%
%TO.N,HOME_OUT*%
X16129000Y68049400D03*
%TD*%
D17*
%TO.P,R4,1*%
%TO.N,Net-(IC1-Pad12)*%
X43205400Y44356200D03*
%TO.P,R4,2*%
%TO.N,GND*%
X43205400Y41956200D03*
%TD*%
D31*
%TO.P,R50,1*%
%TO.N,LED_B*%
X31369000Y30739400D03*
%TO.P,R50,2*%
%TO.N,Net-(LED1-Pad1)*%
X29469000Y30739400D03*
%TD*%
D24*
%TO.P,U16,1,1*%
%TO.N,GND*%
X40668000Y11244900D03*
%TO.P,U16,2,2*%
%TO.N,FP_2_OUT*%
X40668000Y12641900D03*
%TD*%
D32*
%TO.P,J13,1,1*%
%TO.N,Net-(IC6-Pad5)*%
X117545463Y91136400D03*
D33*
%TO.P,J13,2,2*%
%TO.N,Net-(IC6-Pad4)*%
X121355463Y91136400D03*
%TO.P,J13,3,3*%
%TO.N,Net-(IC6-Pad2)*%
X125165463Y91136400D03*
%TO.P,J13,4,4*%
%TO.N,Net-(IC6-Pad1)*%
X128975463Y91136400D03*
%TD*%
D20*
%TO.P,IC6,1,A4_CHANNEL_IN/OUT*%
%TO.N,Net-(IC6-Pad1)*%
X92147463Y86524712D03*
%TO.P,IC6,2,A6_CHANNEL_IN/OUT*%
%TO.N,Net-(IC6-Pad2)*%
X92797463Y86524712D03*
%TO.P,IC6,3,COM_OUT/IN_A*%
%TO.N,Net-(IC6-Pad3)*%
X93447463Y86524712D03*
%TO.P,IC6,4,A7_CHANNEL_IN/OUT*%
%TO.N,Net-(IC6-Pad4)*%
X94097463Y86524712D03*
%TO.P,IC6,5,A5_CHANNEL_IN/OUT*%
%TO.N,Net-(IC6-Pad5)*%
X94747463Y86524712D03*
%TO.P,IC6,6,~{E}*%
%TO.N,GND*%
X95397463Y86524712D03*
%TO.P,IC6,7,VEE*%
X96047463Y86524712D03*
%TO.P,IC6,8,GND*%
X96697463Y86524712D03*
%TO.P,IC6,9,S2_ADDRESS_SELECT*%
%TO.N,MUX_S2*%
X96697463Y92400712D03*
%TO.P,IC6,10,S1_ADDRESS_SELECT*%
%TO.N,MUX_S1*%
X96047463Y92400712D03*
%TO.P,IC6,11,S0_ADDRESS_SELECT*%
%TO.N,MUX_S0*%
X95397463Y92400712D03*
%TO.P,IC6,12,A3_CHANNEL_IN/OUT*%
%TO.N,Net-(IC6-Pad12)*%
X94747463Y92400712D03*
%TO.P,IC6,13,A0_CHANNEL_IN/OUT*%
%TO.N,Net-(IC6-Pad13)*%
X94097463Y92400712D03*
%TO.P,IC6,14,A1_CHANNEL_IN/OUT*%
%TO.N,Net-(IC6-Pad14)*%
X93447463Y92400712D03*
%TO.P,IC6,15,A2_CHANNEL_IN/OUT*%
%TO.N,Net-(IC6-Pad15)*%
X92797463Y92400712D03*
%TO.P,IC6,16,VCC*%
%TO.N,+3.3V*%
X92147463Y92400712D03*
%TD*%
D43*
%TO.P,R39,1*%
%TO.N,Net-(C20-Pad2)*%
X61976682Y42026300D03*
%TO.P,R39,2*%
%TO.N,Net-(IC3-Pad12)*%
X61976682Y43926300D03*
%TD*%
D28*
%TO.P,C5,1*%
%TO.N,Net-(C5-Pad1)*%
X54866300Y46050200D03*
%TO.P,C5,2*%
%TO.N,Net-(C1-Pad1)*%
X53210700Y46050200D03*
%TD*%
D34*
%TO.P,HS2,1*%
%TO.N,GND*%
X28321000Y48519400D03*
%TD*%
D14*
%TO.P,JP17,1,A*%
%TO.N,+3.3V*%
X38227000Y19797400D03*
%TO.P,JP17,2,B*%
%TO.N,Net-(JP17-Pad2)*%
X38227000Y17257400D03*
%TD*%
D15*
%TO.P,TP10,1,1*%
%TO.N,GND*%
X169926000Y23393400D03*
%TD*%
D17*
%TO.P,R13,1*%
%TO.N,Z_FAULT*%
X102310000Y33449400D03*
%TO.P,R13,2*%
%TO.N,Net-(C8-Pad2)*%
X102310000Y35849400D03*
%TD*%
D29*
%TO.P,R16,1*%
%TO.N,U3TX*%
X117729000Y15245400D03*
D44*
%TO.P,R16,2*%
%TO.N,/PiConnector1/Rx_Pi*%
X127889000Y15245400D03*
%TD*%
D45*
%TO.P,C9,1*%
%TO.N,Net-(C10-Pad2)*%
X113589000Y51567400D03*
%TO.P,C9,2*%
%TO.N,GND*%
X114249000Y51567400D03*
%TD*%
%TO.P,C4,1*%
%TO.N,GND*%
X44818500Y45542200D03*
%TO.P,C4,2*%
%TO.N,Net-(C1-Pad1)*%
X45478500Y45542200D03*
%TD*%
D46*
%TO.P,J10,1,1*%
%TO.N,Net-(F1-Pad1)*%
X158922000Y47015400D03*
D47*
%TO.P,J10,2,2*%
%TO.N,GND*%
X164922000Y47015400D03*
D48*
%TO.P,J10,3,3*%
%TO.N,unconnected-(J10-Pad3)*%
X165922000Y51515400D03*
%TO.P,J10,4,4*%
%TO.N,unconnected-(J10-Pad4)*%
X165922000Y42515400D03*
%TD*%
D49*
%TO.P,S2,1,COM*%
%TO.N,GND*%
X4826000Y66275400D03*
%TO.P,S2,2,NO*%
%TO.N,Net-(R23-Pad1)*%
X4826000Y59875400D03*
%TD*%
D16*
%TO.P,C39,1*%
%TO.N,GND*%
X65814000Y11175400D03*
%TO.P,C39,2*%
%TO.N,Net-(C39-Pad2)*%
X65814000Y13975400D03*
%TD*%
D17*
%TO.P,R38,1*%
%TO.N,Net-(IC3-Pad12)*%
X64187682Y44076300D03*
%TO.P,R38,2*%
%TO.N,GND*%
X64187682Y41676300D03*
%TD*%
D16*
%TO.P,C18,1*%
%TO.N,GND*%
X110772000Y11175400D03*
%TO.P,C18,2*%
%TO.N,Net-(C18-Pad2)*%
X110772000Y13975400D03*
%TD*%
D26*
%TO.P,C24,1*%
%TO.N,Net-(C24-Pad1)*%
X75946682Y43814300D03*
%TO.P,C24,2*%
%TO.N,Net-(C24-Pad2)*%
X75946682Y43154300D03*
%TD*%
D50*
%TO.P,U10,1,VIN*%
%TO.N,+24V*%
X139852400Y24511000D03*
%TO.P,U10,2,OUT*%
%TO.N,Net-(D3-Pad1)*%
X141554200Y24511000D03*
%TO.P,U10,3,GND*%
%TO.N,GND*%
X143256000Y24511000D03*
%TO.P,U10,4,FB*%
%TO.N,Net-(D3-Pad1)*%
X144957800Y24511000D03*
%TO.P,U10,5,\u002AON/OFF*%
%TO.N,GND*%
X146659600Y24511000D03*
D51*
%TO.P,U10,6,TAB*%
X143256000Y32791400D03*
%TD*%
D35*
%TO.P,J8-J6,1,Pin_1*%
%TO.N,GND*%
X105029000Y70383400D03*
D36*
%TO.P,J8-J6,2,Pin_2*%
%TO.N,MUX_OUT*%
X105029000Y67843400D03*
%TO.P,J8-J6,3,Pin_3*%
%TO.N,MUX_S0*%
X107569000Y70383400D03*
%TO.P,J8-J6,4,Pin_4*%
%TO.N,/MSP432E401Y/PK_4*%
X107569000Y67843400D03*
%TO.P,J8-J6,5,Pin_5*%
%TO.N,MUX_S1*%
X110109000Y70383400D03*
%TO.P,J8-J6,6,Pin_6*%
%TO.N,/MSP432E401Y/PK_5*%
X110109000Y67843400D03*
%TO.P,J8-J6,7,Pin_7*%
%TO.N,MUX_S2*%
X112649000Y70383400D03*
%TO.P,J8-J6,8,Pin_8*%
%TO.N,FP_2_OUT*%
X112649000Y67843400D03*
%TO.P,J8-J6,9,Pin_9*%
%TO.N,N/C*%
X115189000Y70383400D03*
%TO.P,J8-J6,10,Pin_10*%
%TO.N,FP_1_OUT*%
X115189000Y67843400D03*
%TO.P,J8-J6,11,Pin_11*%
%TO.N,MAG_IN2*%
X117729000Y70383400D03*
%TO.P,J8-J6,12,Pin_12*%
%TO.N,FP_3_OUT*%
X117729000Y67843400D03*
%TO.P,J8-J6,13,Pin_13*%
%TO.N,MAG_IN1*%
X120269000Y70383400D03*
%TO.P,J8-J6,14,Pin_14*%
%TO.N,Z_MS2*%
X120269000Y67843400D03*
%TO.P,J8-J6,15,Pin_15*%
%TO.N,/MSP432E401Y/PP_3*%
X122809000Y70383400D03*
%TO.P,J8-J6,16,Pin_16*%
%TO.N,Z_MS1*%
X122809000Y67843400D03*
%TO.P,J8-J6,17,Pin_17*%
%TO.N,/MSP432E401Y/PQ_1*%
X125349000Y70383400D03*
%TO.P,J8-J6,18,Pin_18*%
%TO.N,Z_MS0*%
X125349000Y67843400D03*
%TO.P,J8-J6,19,Pin_19*%
%TO.N,/MSP432E401Y/PM_6*%
X127889000Y70383400D03*
%TO.P,J8-J6,20,Pin_20*%
%TO.N,/MSP432E401Y/PK_7*%
X127889000Y67843400D03*
%TD*%
D39*
%TO.P,C8,1*%
%TO.N,GND*%
X98528722Y40589212D03*
%TO.P,C8,2*%
%TO.N,Net-(C8-Pad2)*%
X98528722Y36589212D03*
%TD*%
D29*
%TO.P,C7,1*%
%TO.N,Net-(C10-Pad2)*%
X99036722Y50039212D03*
%TO.P,C7,2*%
%TO.N,GND*%
X99036722Y52539212D03*
%TD*%
D15*
%TO.P,TP7,1,1*%
%TO.N,X_ENABLE*%
X90982800Y30028200D03*
%TD*%
D40*
%TO.P,R17,1*%
%TO.N,Net-(J7-Pad2)*%
X92498000Y10927400D03*
%TO.P,R17,2*%
%TO.N,Net-(C13-Pad2)*%
X91398000Y10927400D03*
%TD*%
D41*
%TO.P,D1,1*%
%TO.N,Net-(D1-Pad1)*%
X135112060Y12017313D03*
%TO.P,D1,2*%
%TO.N,GND*%
X135112060Y9917313D03*
%TD*%
D11*
%TO.P,R78,1*%
%TO.N,Net-(C39-Pad2)*%
X68270000Y14408400D03*
%TO.P,R78,2*%
%TO.N,Net-(JP19-Pad2)*%
X70670000Y14408400D03*
%TD*%
D13*
%TO.P,C29,1*%
%TO.N,Net-(C29-Pad1)*%
X159258000Y5638800D03*
%TO.P,C29,2*%
%TO.N,GND*%
X159258000Y14732000D03*
%TD*%
D17*
%TO.P,R30,1*%
%TO.N,Net-(C17-Pad2)*%
X13387000Y14333400D03*
%TO.P,R30,2*%
%TO.N,Net-(JP7-Pad2)*%
X13387000Y11933400D03*
%TD*%
D52*
%TO.P,R20,1*%
%TO.N,Net-(R20-Pad1)*%
X8636000Y43163400D03*
%TO.P,R20,2*%
%TO.N,Net-(C14-Pad2)*%
X8636000Y44263400D03*
%TD*%
D38*
%TO.P,R49,1*%
%TO.N,Net-(C32-Pad2)*%
X102822000Y19309400D03*
%TO.P,R49,2*%
%TO.N,LS_X_OUT*%
X96822000Y19309400D03*
%TD*%
D40*
%TO.P,R26,1*%
%TO.N,Net-(J8-Pad2)*%
X80814000Y10927400D03*
%TO.P,R26,2*%
%TO.N,Net-(C16-Pad2)*%
X79714000Y10927400D03*
%TD*%
D11*
%TO.P,R64,1*%
%TO.N,Net-(J19-Pad1)*%
X99659967Y78237400D03*
%TO.P,R64,2*%
%TO.N,GND*%
X102059967Y78237400D03*
%TD*%
D14*
%TO.P,JP1,1,A*%
%TO.N,+24V*%
X54013100Y56647400D03*
%TO.P,JP1,2,B*%
%TO.N,Net-(C1-Pad1)*%
X54013100Y54107400D03*
%TD*%
%TO.P,JP7,1,A*%
%TO.N,+3.3V*%
X18141000Y12451400D03*
%TO.P,JP7,2,B*%
%TO.N,Net-(JP7-Pad2)*%
X15601000Y12451400D03*
%TD*%
D40*
%TO.P,R71,1*%
%TO.N,Net-(J20-Pad2)*%
X35729000Y10927400D03*
%TO.P,R71,2*%
%TO.N,Net-(C37-Pad2)*%
X34629000Y10927400D03*
%TD*%
D14*
%TO.P,JP2,1,A*%
%TO.N,+24V*%
X111506000Y56647400D03*
%TO.P,JP2,2,B*%
%TO.N,Net-(C10-Pad2)*%
X111506000Y54107400D03*
%TD*%
D53*
%TO.P,IC2,1,CP1*%
%TO.N,Net-(C12-Pad2)*%
X110528074Y43527200D03*
%TO.P,IC2,2,CP2*%
%TO.N,Net-(C12-Pad1)*%
X109878063Y43527200D03*
%TO.P,IC2,3,VCP*%
%TO.N,Net-(C11-Pad1)*%
X109228051Y43527200D03*
%TO.P,IC2,4,VMA*%
%TO.N,Net-(C10-Pad2)*%
X108578040Y43527200D03*
%TO.P,IC2,5,AOUT1*%
%TO.N,/StepperDriver3/1A*%
X107928028Y43527200D03*
%TO.P,IC2,6,ISENA*%
%TO.N,Net-(IC2-Pad6)*%
X107278017Y43527200D03*
%TO.P,IC2,7,AOUT2*%
%TO.N,/StepperDriver3/2A*%
X106628006Y43527200D03*
%TO.P,IC2,8,BOUT2*%
%TO.N,/StepperDriver3/2B*%
X105977994Y43527200D03*
%TO.P,IC2,9,ISENB*%
%TO.N,Net-(IC2-Pad9)*%
X105327983Y43527200D03*
%TO.P,IC2,10,BOUT1*%
%TO.N,/StepperDriver3/1B*%
X104677972Y43527200D03*
%TO.P,IC2,11,VMB*%
%TO.N,Net-(C10-Pad2)*%
X104027960Y43527200D03*
%TO.P,IC2,12,AVREF*%
%TO.N,Net-(IC2-Pad12)*%
X103377949Y43527200D03*
%TO.P,IC2,13,BVREF*%
X102727937Y43527200D03*
%TO.P,IC2,14,GND_1*%
%TO.N,GND*%
X102077926Y43527200D03*
%TO.P,IC2,15,V3P3OUT*%
%TO.N,Net-(C8-Pad2)*%
X102077926Y37583600D03*
%TO.P,IC2,16,NRESET*%
%TO.N,XYZ_RESET*%
X102727937Y37583600D03*
%TO.P,IC2,17,NSLEEP*%
X103377949Y37583600D03*
%TO.P,IC2,18,NFAULT*%
%TO.N,Z_FAULT*%
X104027960Y37583600D03*
%TO.P,IC2,19,DECAY*%
%TO.N,XYZ_DECAY*%
X104677972Y37583600D03*
%TO.P,IC2,20,DIR*%
%TO.N,Z_DIR*%
X105327983Y37583600D03*
%TO.P,IC2,21,NENBL*%
%TO.N,Z_ENABLE*%
X105977994Y37583600D03*
%TO.P,IC2,22,STEP*%
%TO.N,Z_STEP*%
X106628006Y37583600D03*
%TO.P,IC2,23,NC*%
%TO.N,unconnected-(IC2-Pad23)*%
X107278017Y37583600D03*
%TO.P,IC2,24,MODE0*%
%TO.N,Z_MS0*%
X107928028Y37583600D03*
%TO.P,IC2,25,MODE1*%
%TO.N,Z_MS1*%
X108578040Y37583600D03*
%TO.P,IC2,26,MODE2*%
%TO.N,Z_MS2*%
X109228051Y37583600D03*
%TO.P,IC2,27,NHOME*%
%TO.N,Z_HOME*%
X109878063Y37583600D03*
%TO.P,IC2,28,GND_2*%
%TO.N,GND*%
X110528074Y37583600D03*
D54*
%TO.P,IC2,29,EPAD*%
X106303000Y40555400D03*
%TD*%
D15*
%TO.P,TP6,1,1*%
%TO.N,N/C*%
X78105000Y81717200D03*
%TD*%
D16*
%TO.P,C17,1*%
%TO.N,GND*%
X12192000Y18951400D03*
%TO.P,C17,2*%
%TO.N,Net-(C17-Pad2)*%
X12192000Y16151400D03*
%TD*%
D15*
%TO.P,TP5,1,1*%
%TO.N,N/C*%
X78105000Y76688000D03*
%TD*%
D11*
%TO.P,R6,1*%
%TO.N,Y_FAULT*%
X47455000Y34624400D03*
%TO.P,R6,2*%
%TO.N,Net-(C2-Pad2)*%
X45055000Y34624400D03*
%TD*%
D32*
%TO.P,J19,1,1*%
%TO.N,Net-(J19-Pad1)*%
X101044463Y82946400D03*
D33*
%TO.P,J19,2,2*%
%TO.N,Net-(J19-Pad2)*%
X104854463Y82946400D03*
%TO.P,J19,3,3*%
%TO.N,Net-(J19-Pad3)*%
X108664463Y82946400D03*
%TO.P,J19,4,4*%
%TO.N,Net-(J19-Pad4)*%
X112474463Y82946400D03*
%TD*%
D18*
%TO.P,J11,1,1*%
%TO.N,GND*%
X99088000Y4831400D03*
%TO.P,J11,2,2*%
%TO.N,Net-(J11-Pad2)*%
X102588000Y4831400D03*
%TD*%
D16*
%TO.P,C38,1*%
%TO.N,GND*%
X43561000Y11175400D03*
%TO.P,C38,2*%
%TO.N,Net-(C38-Pad2)*%
X43561000Y13975400D03*
%TD*%
D38*
%TO.P,R28,1*%
%TO.N,Net-(C16-Pad2)*%
X80216000Y19309400D03*
%TO.P,R28,2*%
%TO.N,LS_Z_OUT*%
X74216000Y19309400D03*
%TD*%
D29*
%TO.P,C1,1*%
%TO.N,Net-(C1-Pad1)*%
X42354500Y48610200D03*
%TO.P,C1,2*%
%TO.N,GND*%
X42354500Y51110200D03*
%TD*%
D55*
%TO.P,C31,1*%
%TO.N,GND*%
X8506000Y31775400D03*
%TO.P,C31,2*%
%TO.N,Net-(C31-Pad2)*%
X11306000Y31775400D03*
%TD*%
D43*
%TO.P,R12,1*%
%TO.N,Net-(C8-Pad2)*%
X98020722Y43227212D03*
%TO.P,R12,2*%
%TO.N,Net-(IC2-Pad12)*%
X98020722Y45127212D03*
%TD*%
D37*
%TO.P,C33,1*%
%TO.N,GND*%
X90551000Y86490100D03*
%TO.P,C33,2*%
%TO.N,+3.3V*%
X90551000Y88145700D03*
%TD*%
D56*
%TO.P,L2,1,1*%
%TO.N,Net-(C30-Pad1)*%
X146939000Y76390500D03*
%TO.P,L2,2,2*%
%TO.N,Net-(D4-Pad1)*%
X146939000Y61353700D03*
%TD*%
D24*
%TO.P,U18,1,1*%
%TO.N,GND*%
X51689000Y11244900D03*
%TO.P,U18,2,2*%
%TO.N,FP_1_OUT*%
X51689000Y12641900D03*
%TD*%
D40*
%TO.P,R47,1*%
%TO.N,Net-(J11-Pad2)*%
X102701000Y10927400D03*
%TO.P,R47,2*%
%TO.N,Net-(C32-Pad2)*%
X103801000Y10927400D03*
%TD*%
D32*
%TO.P,J14,1,1*%
%TO.N,Net-(IC5-Pad15)*%
X32063753Y94171050D03*
D33*
%TO.P,J14,2,2*%
%TO.N,Net-(IC5-Pad14)*%
X28253753Y94171050D03*
%TO.P,J14,3,3*%
%TO.N,Net-(IC5-Pad13)*%
X24443753Y94171050D03*
%TO.P,J14,4,4*%
%TO.N,Net-(IC5-Pad12)*%
X20633753Y94171050D03*
%TD*%
D11*
%TO.P,R69,1*%
%TO.N,Net-(J18-Pad4)*%
X31704789Y80300856D03*
%TO.P,R69,2*%
%TO.N,GND*%
X34104789Y80300856D03*
%TD*%
D17*
%TO.P,R45,1*%
%TO.N,Net-(C31-Pad2)*%
X10593000Y29319400D03*
%TO.P,R45,2*%
%TO.N,Net-(JP12-Pad2)*%
X10593000Y26919400D03*
%TD*%
D11*
%TO.P,R66,1*%
%TO.N,Net-(J19-Pad2)*%
X103444361Y78237400D03*
%TO.P,R66,2*%
%TO.N,GND*%
X105844361Y78237400D03*
%TD*%
D28*
%TO.P,C23,1*%
%TO.N,Net-(C23-Pad1)*%
X75250482Y45770300D03*
%TO.P,C23,2*%
%TO.N,Net-(C19-Pad1)*%
X73594882Y45770300D03*
%TD*%
D52*
%TO.P,R29,1*%
%TO.N,Net-(R29-Pad1)*%
X11430000Y12683400D03*
%TO.P,R29,2*%
%TO.N,Net-(C17-Pad2)*%
X11430000Y13783400D03*
%TD*%
D15*
%TO.P,TP11,1,1*%
%TO.N,GND*%
X169926000Y7336135D03*
%TD*%
D38*
%TO.P,R19,1*%
%TO.N,Net-(C13-Pad2)*%
X91900000Y19309400D03*
%TO.P,R19,2*%
%TO.N,LS_Y_OUT*%
X85900000Y19309400D03*
%TD*%
D45*
%TO.P,C10,1*%
%TO.N,GND*%
X101576722Y46209212D03*
%TO.P,C10,2*%
%TO.N,Net-(C10-Pad2)*%
X102236722Y46209212D03*
%TD*%
D17*
%TO.P,R24,1*%
%TO.N,Net-(C15-Pad2)*%
X10593000Y61831400D03*
%TO.P,R24,2*%
%TO.N,Net-(JP5-Pad2)*%
X10593000Y59431400D03*
%TD*%
D38*
%TO.P,R79,1*%
%TO.N,Net-(C39-Pad2)*%
X68913000Y19309400D03*
%TO.P,R79,2*%
%TO.N,FP_3_OUT*%
X62913000Y19309400D03*
%TD*%
D11*
%TO.P,R59,1*%
%TO.N,Net-(J16-Pad3)*%
X11598225Y80300856D03*
%TO.P,R59,2*%
%TO.N,GND*%
X13998225Y80300856D03*
%TD*%
%TO.P,R18,1*%
%TO.N,Net-(C13-Pad2)*%
X91356000Y14408400D03*
%TO.P,R18,2*%
%TO.N,Net-(JP3-Pad2)*%
X93756000Y14408400D03*
%TD*%
D38*
%TO.P,R73,1*%
%TO.N,Net-(C37-Pad2)*%
X35766000Y19309400D03*
%TO.P,R73,2*%
%TO.N,NEXT_TURN_OUT*%
X29766000Y19309400D03*
%TD*%
D11*
%TO.P,R41,1*%
%TO.N,Net-(C20-Pad2)*%
X76919000Y34878400D03*
%TO.P,R41,2*%
%TO.N,X_HOME*%
X74519000Y34878400D03*
%TD*%
D55*
%TO.P,C15,1*%
%TO.N,GND*%
X8379000Y64267400D03*
%TO.P,C15,2*%
%TO.N,Net-(C15-Pad2)*%
X11179000Y64267400D03*
%TD*%
D31*
%TO.P,R52,1*%
%TO.N,LED_R*%
X31369000Y28453400D03*
%TO.P,R52,2*%
%TO.N,Net-(LED1-Pad2)*%
X29469000Y28453400D03*
%TD*%
D24*
%TO.P,U13,1,1*%
%TO.N,GND*%
X94881700Y83723800D03*
%TO.P,U13,2,2*%
%TO.N,Net-(JP16-Pad2)*%
X94881700Y82326800D03*
%TD*%
D19*
%TO.P,R37,1*%
%TO.N,GND*%
X67818682Y53187100D03*
%TO.P,R37,2*%
%TO.N,Net-(IC3-Pad9)*%
X67818682Y48513500D03*
%TD*%
D24*
%TO.P,U9,1,1*%
%TO.N,GND*%
X108077000Y11244900D03*
%TO.P,U9,2,2*%
%TO.N,CAPTURE_OUT*%
X108077000Y12641900D03*
%TD*%
D45*
%TO.P,C22,1*%
%TO.N,GND*%
X65964682Y45516300D03*
%TO.P,C22,2*%
%TO.N,Net-(C19-Pad1)*%
X66624682Y45516300D03*
%TD*%
D28*
%TO.P,C11,1*%
%TO.N,Net-(C11-Pad1)*%
X111802522Y46209212D03*
%TO.P,C11,2*%
%TO.N,Net-(C10-Pad2)*%
X110146922Y46209212D03*
%TD*%
D49*
%TO.P,S1,1,COM*%
%TO.N,GND*%
X4826000Y49765400D03*
%TO.P,S1,2,NO*%
%TO.N,Net-(R20-Pad1)*%
X4826000Y43365400D03*
%TD*%
D32*
%TO.P,J5,1,1*%
%TO.N,/StepperDriver3/2B*%
X77733000Y92289400D03*
D33*
%TO.P,J5,2,2*%
%TO.N,/StepperDriver3/2A*%
X81543000Y92289400D03*
%TO.P,J5,3,3*%
%TO.N,/StepperDriver3/1B*%
X85353000Y92289400D03*
%TO.P,J5,4,4*%
%TO.N,/StepperDriver3/1A*%
X89163000Y92289400D03*
%TD*%
D29*
%TO.P,R15,1*%
%TO.N,U3RX*%
X117729000Y11943400D03*
D44*
%TO.P,R15,2*%
%TO.N,/PiConnector1/Tx_Pi*%
X127889000Y11943400D03*
%TD*%
D11*
%TO.P,R55,1*%
%TO.N,Net-(J16-Pad1)*%
X3812141Y80300856D03*
%TO.P,R55,2*%
%TO.N,GND*%
X6212141Y80300856D03*
%TD*%
%TO.P,R57,1*%
%TO.N,Net-(J16-Pad2)*%
X7595753Y80300856D03*
%TO.P,R57,2*%
%TO.N,GND*%
X9995753Y80300856D03*
%TD*%
D57*
%TO.P,J6,1,VBUS*%
%TO.N,+5V*%
X159919000Y84303499D03*
%TO.P,J6,2,D-*%
%TO.N,unconnected-(J6-Pad2)*%
X159919000Y86803499D03*
%TO.P,J6,3,D+*%
%TO.N,unconnected-(J6-Pad3)*%
X159919000Y88803500D03*
%TO.P,J6,4,GND*%
%TO.N,GND*%
X159919000Y91303500D03*
D58*
%TO.P,J6,5,Shield*%
X162629000Y81233500D03*
%TO.P,J6,6,MOUNT*%
%TO.N,unconnected-(J6-Pad6)*%
X162629000Y94373499D03*
%TD*%
D49*
%TO.P,S3,1,COM*%
%TO.N,GND*%
X4826000Y33509400D03*
%TO.P,S3,2,NO*%
%TO.N,Net-(R44-Pad1)*%
X4826000Y27109400D03*
%TD*%
D24*
%TO.P,U6,1,1*%
%TO.N,GND*%
X74155300Y11244900D03*
%TO.P,U6,2,2*%
%TO.N,LS_Z_OUT*%
X74155300Y12641900D03*
%TD*%
D55*
%TO.P,C14,1*%
%TO.N,GND*%
X8633000Y48011400D03*
%TO.P,C14,2*%
%TO.N,Net-(C14-Pad2)*%
X11433000Y48011400D03*
%TD*%
D52*
%TO.P,R44,1*%
%TO.N,Net-(R44-Pad1)*%
X8636000Y27161400D03*
%TO.P,R44,2*%
%TO.N,Net-(C31-Pad2)*%
X8636000Y28261400D03*
%TD*%
D38*
%TO.P,R34,1*%
%TO.N,Net-(C18-Pad2)*%
X114026000Y19309400D03*
%TO.P,R34,2*%
%TO.N,CAPTURE_OUT*%
X108026000Y19309400D03*
%TD*%
D11*
%TO.P,R60,1*%
%TO.N,Net-(J17-Pad3)*%
X124065520Y78237400D03*
%TO.P,R60,2*%
%TO.N,GND*%
X126465520Y78237400D03*
%TD*%
D15*
%TO.P,TP15,1,1*%
%TO.N,Net-(C29-Pad1)*%
X135890000Y5359400D03*
%TD*%
D40*
%TO.P,R74,1*%
%TO.N,Net-(J21-Pad2)*%
X47413000Y10927400D03*
%TO.P,R74,2*%
%TO.N,Net-(C38-Pad2)*%
X46313000Y10927400D03*
%TD*%
D14*
%TO.P,JP4,1,A*%
%TO.N,+3.3V*%
X15728000Y42951400D03*
%TO.P,JP4,2,B*%
%TO.N,Net-(JP4-Pad2)*%
X13188000Y42951400D03*
%TD*%
D11*
%TO.P,R56,1*%
%TO.N,Net-(J17-Pad1)*%
X116400822Y78237400D03*
%TO.P,R56,2*%
%TO.N,GND*%
X118800822Y78237400D03*
%TD*%
%TO.P,R81,1*%
%TO.N,Net-(C40-Pad2)*%
X57447000Y14408400D03*
%TO.P,R81,2*%
%TO.N,Net-(JP20-Pad2)*%
X59847000Y14408400D03*
%TD*%
%TO.P,R70,1*%
%TO.N,Net-(J19-Pad4)*%
X111114611Y78237400D03*
%TO.P,R70,2*%
%TO.N,GND*%
X113514611Y78237400D03*
%TD*%
D21*
%TO.P,R1,1*%
%TO.N,Net-(C1-Pad1)*%
X54104500Y49098200D03*
%TO.P,R1,2*%
%TO.N,Net-(C5-Pad1)*%
X56004500Y49098200D03*
%TD*%
D59*
%TO.P,U7,1,1*%
%TO.N,GND*%
X3225800Y19289400D03*
%TO.P,U7,2,2*%
%TO.N,Net-(R29-Pad1)*%
X8458200Y16789400D03*
%TO.P,U7,3,3*%
%TO.N,unconnected-(U7-Pad3)*%
X3225800Y14289400D03*
%TD*%
D11*
%TO.P,R7,1*%
%TO.N,Net-(C2-Pad2)*%
X56345000Y34878400D03*
%TO.P,R7,2*%
%TO.N,Y_HOME*%
X53945000Y34878400D03*
%TD*%
D45*
%TO.P,C3,1*%
%TO.N,Net-(C1-Pad1)*%
X56908500Y51384200D03*
%TO.P,C3,2*%
%TO.N,GND*%
X56248500Y51384200D03*
%TD*%
D15*
%TO.P,TP1,1,1*%
%TO.N,Y_ENABLE*%
X75666600Y25024400D03*
%TD*%
D53*
%TO.P,IC3,1,CP1*%
%TO.N,Net-(C24-Pad2)*%
X74583756Y42765200D03*
%TO.P,IC3,2,CP2*%
%TO.N,Net-(C24-Pad1)*%
X73933745Y42765200D03*
%TO.P,IC3,3,VCP*%
%TO.N,Net-(C23-Pad1)*%
X73283733Y42765200D03*
%TO.P,IC3,4,VMA*%
%TO.N,Net-(C19-Pad1)*%
X72633722Y42765200D03*
%TO.P,IC3,5,AOUT1*%
%TO.N,/StepperDriver1/1A*%
X71983710Y42765200D03*
%TO.P,IC3,6,ISENA*%
%TO.N,Net-(IC3-Pad6)*%
X71333699Y42765200D03*
%TO.P,IC3,7,AOUT2*%
%TO.N,/StepperDriver1/2A*%
X70683688Y42765200D03*
%TO.P,IC3,8,BOUT2*%
%TO.N,/StepperDriver1/2B*%
X70033676Y42765200D03*
%TO.P,IC3,9,ISENB*%
%TO.N,Net-(IC3-Pad9)*%
X69383665Y42765200D03*
%TO.P,IC3,10,BOUT1*%
%TO.N,/StepperDriver1/1B*%
X68733654Y42765200D03*
%TO.P,IC3,11,VMB*%
%TO.N,Net-(C19-Pad1)*%
X68083642Y42765200D03*
%TO.P,IC3,12,AVREF*%
%TO.N,Net-(IC3-Pad12)*%
X67433631Y42765200D03*
%TO.P,IC3,13,BVREF*%
X66783619Y42765200D03*
%TO.P,IC3,14,GND_1*%
%TO.N,GND*%
X66133608Y42765200D03*
%TO.P,IC3,15,V3P3OUT*%
%TO.N,Net-(C20-Pad2)*%
X66133608Y36821600D03*
%TO.P,IC3,16,NRESET*%
%TO.N,XYZ_RESET*%
X66783619Y36821600D03*
%TO.P,IC3,17,NSLEEP*%
X67433631Y36821600D03*
%TO.P,IC3,18,NFAULT*%
%TO.N,X_FAULT*%
X68083642Y36821600D03*
%TO.P,IC3,19,DECAY*%
%TO.N,XYZ_DECAY*%
X68733654Y36821600D03*
%TO.P,IC3,20,DIR*%
%TO.N,X_DIR*%
X69383665Y36821600D03*
%TO.P,IC3,21,NENBL*%
%TO.N,X_ENABLE*%
X70033676Y36821600D03*
%TO.P,IC3,22,STEP*%
%TO.N,X_STEP*%
X70683688Y36821600D03*
%TO.P,IC3,23,NC*%
%TO.N,unconnected-(IC3-Pad23)*%
X71333699Y36821600D03*
%TO.P,IC3,24,MODE0*%
%TO.N,XY_MS0*%
X71983710Y36821600D03*
%TO.P,IC3,25,MODE1*%
%TO.N,XY_MS1*%
X72633722Y36821600D03*
%TO.P,IC3,26,MODE2*%
%TO.N,XY_MS2*%
X73283733Y36821600D03*
%TO.P,IC3,27,NHOME*%
%TO.N,X_HOME*%
X73933745Y36821600D03*
%TO.P,IC3,28,GND_2*%
%TO.N,GND*%
X74583756Y36821600D03*
D54*
%TO.P,IC3,29,EPAD*%
X70358682Y39793400D03*
%TD*%
D19*
%TO.P,R3,1*%
%TO.N,GND*%
X47688500Y52959000D03*
%TO.P,R3,2*%
%TO.N,Net-(IC1-Pad9)*%
X47688500Y48285400D03*
%TD*%
D60*
%TO.P,R42,1*%
%TO.N,Net-(C29-Pad1)*%
X134620000Y20763400D03*
%TO.P,R42,2*%
%TO.N,Net-(D1-Pad1)*%
X134620000Y15863400D03*
%TD*%
D15*
%TO.P,TP9,1,1*%
%TO.N,X_DIR*%
X80238600Y30561600D03*
%TD*%
D25*
%TO.P,R53,1*%
%TO.N,Net-(JP15-Pad2)*%
X36398166Y81140976D03*
%TO.P,R53,2*%
%TO.N,Net-(IC5-Pad3)*%
X36398166Y83040976D03*
%TD*%
D16*
%TO.P,C40,1*%
%TO.N,GND*%
X54991000Y11175400D03*
%TO.P,C40,2*%
%TO.N,Net-(C40-Pad2)*%
X54991000Y13975400D03*
%TD*%
D11*
%TO.P,R33,1*%
%TO.N,Net-(C18-Pad2)*%
X113228000Y14408400D03*
%TO.P,R33,2*%
%TO.N,Net-(JP8-Pad2)*%
X115628000Y14408400D03*
%TD*%
D18*
%TO.P,J20,1,1*%
%TO.N,GND*%
X31778000Y4831400D03*
%TO.P,J20,2,2*%
%TO.N,Net-(J20-Pad2)*%
X35278000Y4831400D03*
%TD*%
D19*
%TO.P,R9,1*%
%TO.N,GND*%
X108688722Y52864012D03*
%TO.P,R9,2*%
%TO.N,Net-(IC2-Pad6)*%
X108688722Y48190412D03*
%TD*%
D14*
%TO.P,JP8,1,A*%
%TO.N,+3.3V*%
X116614000Y21067400D03*
%TO.P,JP8,2,B*%
%TO.N,Net-(JP8-Pad2)*%
X116614000Y18527400D03*
%TD*%
D16*
%TO.P,C37,1*%
%TO.N,GND*%
X32131000Y11175400D03*
%TO.P,C37,2*%
%TO.N,Net-(C37-Pad2)*%
X32131000Y13975400D03*
%TD*%
D61*
%TO.P,R43,1*%
%TO.N,Net-(D2-Pad1)*%
X135128000Y65977400D03*
%TO.P,R43,2*%
%TO.N,Net-(C30-Pad1)*%
X135128000Y67677400D03*
%TD*%
D40*
%TO.P,R77,1*%
%TO.N,Net-(J22-Pad2)*%
X69412000Y10927400D03*
%TO.P,R77,2*%
%TO.N,Net-(C39-Pad2)*%
X68312000Y10927400D03*
%TD*%
D32*
%TO.P,J4,1,1*%
%TO.N,/StepperDriver2/2B*%
X44214000Y92289400D03*
D33*
%TO.P,J4,2,2*%
%TO.N,/StepperDriver2/2A*%
X48024000Y92289400D03*
%TO.P,J4,3,3*%
%TO.N,/StepperDriver2/1B*%
X51834000Y92289400D03*
%TO.P,J4,4,4*%
%TO.N,/StepperDriver2/1A*%
X55644000Y92289400D03*
%TD*%
D14*
%TO.P,JP6,1,A*%
%TO.N,+3.3V*%
X82550000Y21067400D03*
%TO.P,JP6,2,B*%
%TO.N,Net-(JP6-Pad2)*%
X82550000Y18527400D03*
%TD*%
D18*
%TO.P,J22,1,1*%
%TO.N,GND*%
X65334000Y4831400D03*
%TO.P,J22,2,2*%
%TO.N,Net-(J22-Pad2)*%
X68834000Y4831400D03*
%TD*%
D15*
%TO.P,TP13,1,1*%
%TO.N,Net-(F1-Pad1)*%
X162052000Y21107400D03*
%TD*%
D62*
%TO.P,IC4,1,VIN*%
%TO.N,+24V*%
X146656000Y54576400D03*
%TO.P,IC4,2,OUTPUT*%
%TO.N,Net-(D4-Pad1)*%
X144956000Y54576400D03*
%TO.P,IC4,3,GROUND*%
%TO.N,GND*%
X143256000Y54576400D03*
%TO.P,IC4,4,FEEDBACK*%
%TO.N,Net-(D4-Pad1)*%
X141556000Y54576400D03*
%TO.P,IC4,5,~{ON}/OFF*%
%TO.N,GND*%
X139856000Y54576400D03*
D63*
%TO.P,IC4,6,GND_1*%
X143256000Y41361400D03*
D64*
%TO.P,IC4,7,GND_2*%
X143256000Y44856400D03*
%TD*%
D17*
%TO.P,R40,1*%
%TO.N,X_FAULT*%
X66242000Y32941400D03*
%TO.P,R40,2*%
%TO.N,Net-(C20-Pad2)*%
X66242000Y35341400D03*
%TD*%
D18*
%TO.P,J7,1,1*%
%TO.N,GND*%
X87912000Y4831400D03*
%TO.P,J7,2,2*%
%TO.N,Net-(J7-Pad2)*%
X91412000Y4831400D03*
%TD*%
D11*
%TO.P,R27,1*%
%TO.N,Net-(C16-Pad2)*%
X79418000Y14408400D03*
%TO.P,R27,2*%
%TO.N,Net-(JP6-Pad2)*%
X81818000Y14408400D03*
%TD*%
%TO.P,R67,1*%
%TO.N,Net-(J18-Pad3)*%
X27711414Y80300856D03*
%TO.P,R67,2*%
%TO.N,GND*%
X30111414Y80300856D03*
%TD*%
D65*
%TO.P,L1,1,1*%
%TO.N,Net-(C29-Pad1)*%
X146050000Y5143500D03*
%TO.P,L1,2,2*%
%TO.N,Net-(D3-Pad1)*%
X146050000Y15227300D03*
%TD*%
D14*
%TO.P,JP9,1,A*%
%TO.N,+24V*%
X74676000Y56647400D03*
%TO.P,JP9,2,B*%
%TO.N,Net-(C19-Pad1)*%
X74676000Y54107400D03*
%TD*%
%TO.P,JP20,1,A*%
%TO.N,+3.3V*%
X60579000Y19797400D03*
%TO.P,JP20,2,B*%
%TO.N,Net-(JP20-Pad2)*%
X60579000Y17257400D03*
%TD*%
%TO.P,JP18,1,A*%
%TO.N,+3.3V*%
X49403000Y20051400D03*
%TO.P,JP18,2,B*%
%TO.N,Net-(JP18-Pad2)*%
X49403000Y17511400D03*
%TD*%
D22*
%TO.P,U1,1,1*%
%TO.N,GND*%
X124269500Y18821400D03*
%TO.P,U1,2,2*%
%TO.N,U3RX*%
X125666500Y18821400D03*
%TD*%
D18*
%TO.P,J21,1,1*%
%TO.N,GND*%
X42954000Y4831400D03*
%TO.P,J21,2,2*%
%TO.N,Net-(J21-Pad2)*%
X46454000Y4831400D03*
%TD*%
D11*
%TO.P,R58,1*%
%TO.N,Net-(J17-Pad2)*%
X120179423Y78237400D03*
%TO.P,R58,2*%
%TO.N,GND*%
X122579423Y78237400D03*
%TD*%
D53*
%TO.P,IC1,1,CP1*%
%TO.N,Net-(C6-Pad2)*%
X53691574Y43091100D03*
%TO.P,IC1,2,CP2*%
%TO.N,Net-(C6-Pad1)*%
X53041563Y43091100D03*
%TO.P,IC1,3,VCP*%
%TO.N,Net-(C5-Pad1)*%
X52391551Y43091100D03*
%TO.P,IC1,4,VMA*%
%TO.N,Net-(C1-Pad1)*%
X51741540Y43091100D03*
%TO.P,IC1,5,AOUT1*%
%TO.N,/StepperDriver2/1A*%
X51091528Y43091100D03*
%TO.P,IC1,6,ISENA*%
%TO.N,Net-(IC1-Pad6)*%
X50441517Y43091100D03*
%TO.P,IC1,7,AOUT2*%
%TO.N,/StepperDriver2/2A*%
X49791506Y43091100D03*
%TO.P,IC1,8,BOUT2*%
%TO.N,/StepperDriver2/2B*%
X49141494Y43091100D03*
%TO.P,IC1,9,ISENB*%
%TO.N,Net-(IC1-Pad9)*%
X48491483Y43091100D03*
%TO.P,IC1,10,BOUT1*%
%TO.N,/StepperDriver2/1B*%
X47841472Y43091100D03*
%TO.P,IC1,11,VMB*%
%TO.N,Net-(C1-Pad1)*%
X47191460Y43091100D03*
%TO.P,IC1,12,AVREF*%
%TO.N,Net-(IC1-Pad12)*%
X46541449Y43091100D03*
%TO.P,IC1,13,BVREF*%
X45891437Y43091100D03*
%TO.P,IC1,14,GND_1*%
%TO.N,GND*%
X45241426Y43091100D03*
%TO.P,IC1,15,V3P3OUT*%
%TO.N,Net-(C2-Pad2)*%
X45241426Y37147500D03*
%TO.P,IC1,16,NRESET*%
%TO.N,XYZ_RESET*%
X45891437Y37147500D03*
%TO.P,IC1,17,NSLEEP*%
X46541449Y37147500D03*
%TO.P,IC1,18,NFAULT*%
%TO.N,Y_FAULT*%
X47191460Y37147500D03*
%TO.P,IC1,19,DECAY*%
%TO.N,XYZ_DECAY*%
X47841472Y37147500D03*
%TO.P,IC1,20,DIR*%
%TO.N,Y_DIR*%
X48491483Y37147500D03*
%TO.P,IC1,21,NENBL*%
%TO.N,Y_ENABLE*%
X49141494Y37147500D03*
%TO.P,IC1,22,STEP*%
%TO.N,Y_STEP*%
X49791506Y37147500D03*
%TO.P,IC1,23,NC*%
%TO.N,unconnected-(IC1-Pad23)*%
X50441517Y37147500D03*
%TO.P,IC1,24,MODE0*%
%TO.N,XY_MS0*%
X51091528Y37147500D03*
%TO.P,IC1,25,MODE1*%
%TO.N,XY_MS1*%
X51741540Y37147500D03*
%TO.P,IC1,26,MODE2*%
%TO.N,XY_MS2*%
X52391551Y37147500D03*
%TO.P,IC1,27,NHOME*%
%TO.N,Y_HOME*%
X53041563Y37147500D03*
%TO.P,IC1,28,GND_2*%
%TO.N,GND*%
X53691574Y37147500D03*
D54*
%TO.P,IC1,29,EPAD*%
X49466500Y40119300D03*
%TD*%
D24*
%TO.P,U17,1,1*%
%TO.N,GND*%
X63020000Y11244900D03*
%TO.P,U17,2,2*%
%TO.N,FP_3_OUT*%
X63020000Y12641900D03*
%TD*%
D18*
%TO.P,J1,1,1*%
%TO.N,/PiConnector1/Rx_Pi*%
X121948000Y4831400D03*
%TO.P,J1,2,2*%
%TO.N,/PiConnector1/Tx_Pi*%
X125448000Y4831400D03*
%TD*%
D28*
%TO.P,C26,1*%
%TO.N,+24V*%
X141543800Y57937400D03*
%TO.P,C26,2*%
%TO.N,GND*%
X139888200Y57937400D03*
%TD*%
D14*
%TO.P,JP14,1,A*%
%TO.N,GND*%
X27031000Y23373400D03*
%TO.P,JP14,2,B*%
%TO.N,Net-(JP14-Pad2)*%
X24491000Y23373400D03*
%TD*%
D26*
%TO.P,C6,1*%
%TO.N,Net-(C6-Pad1)*%
X55054500Y43840200D03*
%TO.P,C6,2*%
%TO.N,Net-(C6-Pad2)*%
X55054500Y43180200D03*
%TD*%
D52*
%TO.P,R23,1*%
%TO.N,Net-(R23-Pad1)*%
X8636000Y59927400D03*
%TO.P,R23,2*%
%TO.N,Net-(C15-Pad2)*%
X8636000Y61027400D03*
%TD*%
D29*
%TO.P,C19,1*%
%TO.N,Net-(C19-Pad1)*%
X62458600Y48920400D03*
%TO.P,C19,2*%
%TO.N,GND*%
X62458600Y51420400D03*
%TD*%
D38*
%TO.P,R76,1*%
%TO.N,Net-(C38-Pad2)*%
X46462000Y19309400D03*
%TO.P,R76,2*%
%TO.N,FP_2_OUT*%
X40462000Y19309400D03*
%TD*%
D43*
%TO.P,R5,1*%
%TO.N,Net-(C2-Pad2)*%
X41046400Y42235400D03*
%TO.P,R5,2*%
%TO.N,Net-(IC1-Pad12)*%
X41046400Y44135400D03*
%TD*%
D14*
%TO.P,JP15,1,A*%
%TO.N,+3.3V*%
X28595000Y74173400D03*
%TO.P,JP15,2,B*%
%TO.N,Net-(JP15-Pad2)*%
X31135000Y74173400D03*
%TD*%
D32*
%TO.P,J18,1,1*%
%TO.N,Net-(J18-Pad1)*%
X21417992Y84716514D03*
D33*
%TO.P,J18,2,2*%
%TO.N,Net-(J18-Pad2)*%
X25227992Y84716514D03*
%TO.P,J18,3,3*%
%TO.N,Net-(J18-Pad3)*%
X29037992Y84716514D03*
%TO.P,J18,4,4*%
%TO.N,Net-(J18-Pad4)*%
X32847992Y84716514D03*
%TD*%
D66*
%TO.N,GND*%
X146050000Y48768000D03*
X70460282Y39699700D03*
X119710200Y39299200D03*
X125349000Y51211800D03*
X22860000Y42499600D03*
X74651282Y39699700D03*
D67*
X109321600Y30460000D03*
X76708000Y52095400D03*
D66*
X125349000Y39299200D03*
D68*
X40526204Y84380035D03*
D66*
X25603200Y45547600D03*
D67*
X148844000Y82047400D03*
D66*
X131013200Y51211800D03*
X45072300Y40157400D03*
X110873122Y40644300D03*
X128117600Y48341600D03*
X49568100Y40157400D03*
X125349000Y45217400D03*
X131013200Y45217400D03*
X140411200Y48768000D03*
X65964482Y39699700D03*
X146050000Y42849800D03*
X146050000Y35737800D03*
X28498800Y42499600D03*
D67*
X100814722Y47225212D03*
D66*
X31267400Y45547600D03*
X34163000Y48417800D03*
X25654000Y51542000D03*
D67*
X111658400Y30460000D03*
D66*
X122453400Y42347200D03*
D67*
X132461000Y87127400D03*
D66*
X131013200Y39299200D03*
X119710200Y45217400D03*
D67*
X44132500Y46304200D03*
D66*
X22860000Y54412200D03*
X34163000Y54412200D03*
X28498800Y48417800D03*
X143154400Y32867600D03*
D67*
X33401000Y78059600D03*
D66*
X22860000Y48417800D03*
X143154400Y45897800D03*
X119710200Y51211800D03*
X140411200Y35737800D03*
D67*
X122809000Y16515400D03*
D66*
X31267400Y51542000D03*
X146050000Y29819600D03*
X102186322Y40644300D03*
D67*
X65024682Y46278300D03*
X29845000Y23373400D03*
D66*
X28498800Y54412200D03*
X34163000Y42499600D03*
X122504200Y48341600D03*
X140411200Y42849800D03*
X140411200Y29819600D03*
X53759100Y40157400D03*
X106224922Y40644300D03*
D67*
X97155000Y83571400D03*
D66*
X128117600Y42347200D03*
D67*
%TO.N,Net-(C2-Pad2)*%
X45008800Y33050800D03*
X55245000Y33279400D03*
%TO.N,Net-(C8-Pad2)*%
X112574000Y36656400D03*
X102235000Y34549400D03*
%TO.N,+3.3V*%
X90297000Y74935400D03*
X130937000Y73919400D03*
X133985000Y53345400D03*
X133985000Y58171400D03*
%TO.N,RESET_OUT*%
X31623000Y67823400D03*
%TO.N,HOME_OUT*%
X19939000Y68077400D03*
%TO.N,START_OUT*%
X31623000Y66299400D03*
%TO.N,/StepperDriver2/1A*%
X38735000Y58171400D03*
X51752500Y46558200D03*
X40747000Y58171400D03*
%TO.N,/StepperDriver2/2A*%
X36703000Y57886600D03*
X35433000Y59187400D03*
X50228500Y46558200D03*
%TO.N,/StepperDriver2/2B*%
X35458400Y57206200D03*
X48704500Y46558200D03*
X33883600Y58730200D03*
%TO.N,/StepperDriver2/1B*%
X47180500Y46558200D03*
X37719000Y54869400D03*
X39629400Y54869400D03*
%TO.N,XYZ_RESET*%
X98679000Y38867400D03*
X41783000Y37851400D03*
X62611000Y37089400D03*
%TO.N,Y_FAULT*%
X47523400Y31284900D03*
X58801000Y58171400D03*
X57785000Y34794095D03*
X58801000Y55123400D03*
%TO.N,XYZ_DECAY*%
X104521000Y36073400D03*
X67741800Y33025400D03*
X48387000Y33025400D03*
%TO.N,Y_ENABLE*%
X69138800Y24841200D03*
%TO.N,Y_HOME*%
X57785000Y55123400D03*
X57785000Y58171400D03*
%TO.N,/StepperDriver3/1A*%
X108651222Y46717212D03*
X99568000Y61239400D03*
X101117400Y59791600D03*
%TO.N,/StepperDriver3/2A*%
X107164722Y46463212D03*
X87884000Y87909400D03*
X99288600Y59766200D03*
X87884000Y85242400D03*
X97790000Y61239400D03*
%TO.N,/StepperDriver3/2B*%
X86563200Y84048600D03*
X105386722Y46463212D03*
X86614000Y86131400D03*
X97180400Y59715400D03*
X95504000Y61239400D03*
%TO.N,/StepperDriver3/1B*%
X95402400Y59512200D03*
X103862722Y46717212D03*
X93980000Y60985400D03*
%TO.N,Z_ENABLE*%
X104851200Y31247400D03*
X106502200Y33025400D03*
%TO.N,Z_HOME*%
X110333000Y35640400D03*
%TO.N,/StepperDriver1/1A*%
X72415400Y59359800D03*
D69*
X72390000Y46964600D03*
D67*
X72390000Y61239400D03*
%TO.N,/StepperDriver1/2A*%
X70891400Y86487000D03*
X70891400Y61239400D03*
D69*
X70764400Y46939200D03*
D67*
X70891400Y88188800D03*
X70891400Y59385200D03*
%TO.N,/StepperDriver1/2B*%
X69316600Y59385200D03*
D69*
X69342000Y46939200D03*
D67*
X69342000Y84251800D03*
X69342000Y61239400D03*
X69342000Y86055200D03*
%TO.N,/StepperDriver1/1B*%
X67564000Y61239400D03*
D69*
X67589400Y46939200D03*
D67*
X67564000Y59410600D03*
%TO.N,X_FAULT*%
X64389000Y32263400D03*
%TO.N,X_DIR*%
X69469000Y32771400D03*
%TO.N,X_ENABLE*%
X67132200Y26167400D03*
X70485000Y30734000D03*
X71145400Y27183400D03*
%TO.N,X_STEP*%
X71501000Y32207200D03*
%TO.N,X_HOME*%
X100584000Y28580400D03*
X74676000Y32771400D03*
%TO.N,Net-(C20-Pad2)*%
X75819000Y34803400D03*
X66167000Y34295400D03*
%TO.N,U3RX*%
X129159000Y18801400D03*
%TO.N,LS_Z_OUT*%
X101473000Y25913400D03*
%TO.N,DEMUX_S2*%
X43103800Y86283800D03*
%TO.N,DEMUX_S1*%
X43103800Y84582000D03*
%TO.N,DEMUX_S0*%
X42545000Y82809400D03*
%TO.N,MUX_S2*%
X109855000Y90683400D03*
X110617000Y81031400D03*
X109855000Y86365400D03*
X110617000Y75951400D03*
%TO.N,MUX_S1*%
X106299000Y89921400D03*
X106299000Y85857400D03*
X106807000Y81031400D03*
X106807000Y75951400D03*
%TO.N,MUX_S0*%
X102997000Y75951400D03*
X102997000Y81031400D03*
X102997000Y85857400D03*
X96139000Y90175400D03*
%TO.N,MAG_IN2*%
X145923000Y82301400D03*
X132461000Y80777400D03*
%TO.N,MAG_IN1*%
X146761200Y80619600D03*
X133731000Y80015400D03*
%TO.N,FP_1_OUT*%
X90322400Y55118000D03*
%TO.N,FP_2_OUT*%
X88519000Y55118000D03*
%TO.N,FP_3_OUT*%
X92303600Y55118000D03*
%TO.N,XY_MS1*%
X66116200Y28829000D03*
%TO.N,XY_MS0*%
X64897000Y29895800D03*
%TO.N,Z_MS2*%
X113715800Y55219600D03*
%TO.N,Z_MS1*%
X115755000Y55123400D03*
%TO.N,Z_MS0*%
X118389400Y55168800D03*
%TD*%
D70*
%TO.N,GND*%
X102059967Y76888433D02*
X102235000Y76713400D01*
X138650000Y57937400D02*
X135128000Y61459400D01*
X6212141Y80300856D02*
X6212141Y78324459D01*
X17673636Y78800964D02*
X18313400Y78161200D01*
D71*
X101803000Y41027622D02*
X101803000Y43493400D01*
D70*
X162629000Y88593500D02*
X162629000Y81233500D01*
X97155000Y83571400D02*
X97155000Y78892367D01*
D72*
X143256000Y54576400D02*
X143256000Y51562000D01*
D70*
X45839700Y51110200D02*
X47688500Y52959000D01*
X42354500Y51110200D02*
X45839700Y51110200D01*
X102235000Y76713400D02*
X106045000Y76713400D01*
X8633000Y50840500D02*
X8864600Y51072100D01*
D72*
X162052000Y62235400D02*
X160528000Y60711400D01*
D70*
X139856000Y54576400D02*
X139856000Y57905200D01*
X122579423Y76942977D02*
X122809000Y76713400D01*
X105061922Y52539212D02*
X105386722Y52864012D01*
D72*
X139856000Y54576400D02*
X139856000Y49323200D01*
D70*
X32131000Y11175400D02*
X32131000Y5184400D01*
X96047463Y86524712D02*
X96697463Y86524712D01*
D71*
X44966500Y40263200D02*
X44966500Y43057300D01*
X110875000Y40644300D02*
X110803000Y40572300D01*
D70*
X100076000Y11175400D02*
X100076000Y5819400D01*
X146659600Y25349200D02*
X143256000Y28752800D01*
X112395000Y55377400D02*
X110109000Y55377400D01*
X106045000Y76713400D02*
X109855000Y76713400D01*
X88900000Y11175400D02*
X88900000Y5819400D01*
X71120682Y53187100D02*
X67818682Y53187100D01*
D71*
X110873122Y40644300D02*
X110803000Y40574178D01*
D70*
X10185400Y78161200D02*
X14249400Y78161200D01*
X4826000Y66275400D02*
X6834000Y64267400D01*
X105844361Y76914039D02*
X106045000Y76713400D01*
X113665000Y76713400D02*
X118999000Y76713400D01*
X63020000Y11244900D02*
X65744500Y11244900D01*
X47688500Y52959000D02*
X50990500Y52959000D01*
X110109000Y55377400D02*
X108688722Y53957122D01*
X54921500Y11244900D02*
X54991000Y11175400D01*
X13998225Y80300856D02*
X13998225Y78412375D01*
X6580000Y48011400D02*
X8633000Y48011400D01*
X148814900Y31639400D02*
X151638000Y31639400D01*
D71*
X102186322Y40644300D02*
X101803000Y41027622D01*
X143256000Y46088300D02*
X143256000Y44856400D01*
D70*
X114249000Y53523400D02*
X112395000Y55377400D01*
X8633000Y48011400D02*
X8633000Y50840500D01*
X65202682Y46278300D02*
X65964682Y45516300D01*
D71*
X153878600Y20111400D02*
X159258000Y14732000D01*
D70*
X18313400Y78161200D02*
X22631400Y78161200D01*
X95397463Y86524712D02*
X96047463Y86524712D01*
X138684950Y93351350D02*
X132461000Y87127400D01*
X52705000Y55377400D02*
X50990500Y53662900D01*
X121221500Y18801400D02*
X122809000Y18801400D01*
X143256000Y23073600D02*
X143256000Y24511000D01*
X74155300Y11244900D02*
X76892500Y11244900D01*
X50990500Y53662900D02*
X50990500Y52959000D01*
D71*
X110803000Y40574178D02*
X110803000Y37617400D01*
D70*
X100076000Y5819400D02*
X99088000Y4831400D01*
X110772000Y11175400D02*
X110772000Y5085400D01*
D72*
X143256000Y51562000D02*
X146050000Y48768000D01*
D70*
X42954000Y4831400D02*
X42954000Y10568400D01*
X39317779Y83733811D02*
X39879980Y83733811D01*
D72*
X151638000Y47151400D02*
X145551000Y47151400D01*
D70*
X90551000Y83798175D02*
X91365463Y82983712D01*
X56248500Y54373900D02*
X55245000Y55377400D01*
X14249400Y78161200D02*
X18313400Y78161200D01*
X99977722Y42877212D02*
X101800722Y42877212D01*
X122809000Y18801400D02*
X122809000Y16515400D01*
X32061500Y11244900D02*
X32131000Y11175400D01*
X9995753Y80300856D02*
X9995753Y78350847D01*
X3225800Y19289400D02*
X1549400Y20965800D01*
X148833800Y83515400D02*
X148844000Y83525600D01*
X4826000Y49765400D02*
X6580000Y48011400D01*
X108688722Y52864012D02*
X105386722Y52864012D01*
X96697463Y86524712D02*
X96697463Y84028937D01*
D71*
X65858682Y39805500D02*
X65858682Y42731400D01*
D70*
X39317779Y83733811D02*
X39317779Y86214991D01*
X26695400Y78161200D02*
X30505400Y78161200D01*
D71*
X74786145Y39564837D02*
X74786145Y36821600D01*
D70*
X90551000Y86490100D02*
X90551000Y83798175D01*
X98528722Y40589212D02*
X102131234Y40589212D01*
X34104789Y78763389D02*
X34104789Y80300856D01*
X147574000Y32880300D02*
X148814900Y31639400D01*
X11747500Y19395900D02*
X12192000Y18951400D01*
X6560000Y31775400D02*
X4826000Y33509400D01*
X33401000Y78059600D02*
X34104789Y78763389D01*
X17971904Y80524990D02*
X17673636Y80226722D01*
X64187682Y41676300D02*
X64803582Y41676300D01*
X44583100Y39668200D02*
X45072300Y40157400D01*
X97002600Y83723800D02*
X97155000Y83571400D01*
X101800722Y42877212D02*
X101803000Y42879490D01*
X135112060Y9917313D02*
X154443313Y9917313D01*
X3225800Y19289400D02*
X11854000Y19289400D01*
X76482000Y10695400D02*
X76962000Y11175400D01*
X30505400Y78161200D02*
X33299400Y78161200D01*
X102131234Y40589212D02*
X102186322Y40644300D01*
X76892500Y11244900D02*
X76962000Y11175400D01*
X22278516Y78514084D02*
X22631400Y78161200D01*
X101576722Y46463212D02*
X100814722Y47225212D01*
X62484682Y39134300D02*
X65399082Y39134300D01*
X65399082Y39134300D02*
X65964482Y39699700D01*
X118800822Y78237400D02*
X118800822Y76911578D01*
X8699500Y34823400D02*
X8699500Y31968900D01*
X11854000Y19289400D02*
X12192000Y18951400D01*
D72*
X162052000Y66465450D02*
X162052000Y62235400D01*
D70*
X54991000Y11175400D02*
X54991000Y5644400D01*
X101576722Y46209212D02*
X101576722Y46463212D01*
X66051982Y51420400D02*
X67818682Y53187100D01*
X40160523Y82891067D02*
X39317779Y83733811D01*
X76482000Y4831400D02*
X76482000Y10695400D01*
X109321600Y30460000D02*
X111658400Y30460000D01*
X118800822Y76911578D02*
X118999000Y76713400D01*
D72*
X143256000Y51562000D02*
X143205200Y51562000D01*
D70*
X113514611Y78237400D02*
X113514611Y76863789D01*
D72*
X143205200Y51562000D02*
X140411200Y48768000D01*
D71*
X74651282Y39699700D02*
X74786145Y39564837D01*
D70*
X65744500Y11244900D02*
X65814000Y11175400D01*
D71*
X143256000Y32791400D02*
X143256000Y41361400D01*
D70*
X9995753Y78350847D02*
X10185400Y78161200D01*
X100006500Y11244900D02*
X100076000Y11175400D01*
X44818500Y45618200D02*
X44132500Y46304200D01*
X109692463Y76875937D02*
X109855000Y76713400D01*
X13998225Y78412375D02*
X14249400Y78161200D01*
X39317779Y86214991D02*
X40617779Y86214991D01*
X1549400Y20965800D02*
X1549400Y30232800D01*
X8864600Y64753000D02*
X8379000Y64267400D01*
X114249000Y51567400D02*
X114249000Y53523400D01*
X39879980Y83733811D02*
X40526204Y84380035D01*
X65814000Y5311400D02*
X65334000Y4831400D01*
X126619000Y76713400D02*
X128872677Y76713400D01*
X94881700Y83723800D02*
X97002600Y83723800D01*
X44818500Y45542200D02*
X44818500Y45618200D01*
X43865400Y41956200D02*
X44966500Y43057300D01*
X118999000Y76713400D02*
X122809000Y76713400D01*
X159919000Y91303500D02*
X162629000Y88593500D01*
X91365463Y82983712D02*
X94141612Y82983712D01*
X96697463Y84028937D02*
X97155000Y83571400D01*
X29337000Y11244900D02*
X32061500Y11244900D01*
D72*
X139856000Y49323200D02*
X140411200Y48768000D01*
D70*
X11747500Y21107400D02*
X11747500Y19395900D01*
X41592500Y39668200D02*
X44583100Y39668200D01*
X143256000Y28752800D02*
X143256000Y32791400D01*
X6375400Y78161200D02*
X10185400Y78161200D01*
X124249500Y18801400D02*
X124269500Y18821400D01*
X147312000Y83515400D02*
X148833800Y83515400D01*
X30111414Y80300856D02*
X30111414Y78555186D01*
X113514611Y76863789D02*
X113665000Y76713400D01*
X126465520Y78237400D02*
X126465520Y76866880D01*
X94141612Y82983712D02*
X94881700Y83723800D01*
X110702500Y11244900D02*
X110772000Y11175400D01*
X65024682Y46278300D02*
X65202682Y46278300D01*
X8864600Y67328100D02*
X8864600Y64753000D01*
X96774000Y11244900D02*
X100006500Y11244900D01*
X43491500Y11244900D02*
X43561000Y11175400D01*
X1549400Y30232800D02*
X4826000Y33509400D01*
X33299400Y78161200D02*
X33401000Y78059600D01*
X88830500Y11244900D02*
X88900000Y11175400D01*
X108688722Y53957122D02*
X108688722Y52864012D01*
X128872677Y76713400D02*
X130396677Y78237400D01*
X88900000Y5819400D02*
X87912000Y4831400D01*
X110772000Y5085400D02*
X110518000Y4831400D01*
X6212141Y78324459D02*
X6375400Y78161200D01*
X139856000Y57905200D02*
X139888200Y57937400D01*
X65814000Y11175400D02*
X65814000Y5311400D01*
D71*
X53966500Y39950000D02*
X53966500Y37181300D01*
D70*
X32131000Y5184400D02*
X31778000Y4831400D01*
X62458600Y51420400D02*
X66051982Y51420400D01*
D71*
X153162000Y20111400D02*
X153878600Y20111400D01*
D70*
X85991700Y11244900D02*
X88830500Y11244900D01*
X54991000Y5644400D02*
X54178000Y4831400D01*
X108077000Y11244900D02*
X110702500Y11244900D01*
X43549500Y41956200D02*
X43865400Y41956200D01*
X8506000Y31775400D02*
X6560000Y31775400D01*
X102059967Y78237400D02*
X102059967Y76888433D01*
X56248500Y51384200D02*
X56248500Y54373900D01*
X97155000Y78892367D02*
X99333967Y76713400D01*
X148844000Y83525600D02*
X148844000Y82047400D01*
D71*
X53759100Y40157400D02*
X53966500Y39950000D01*
D70*
X30111414Y78555186D02*
X30505400Y78161200D01*
X8699500Y31968900D02*
X8506000Y31775400D01*
X122809000Y76713400D02*
X126619000Y76713400D01*
X154443313Y9917313D02*
X159258000Y14732000D01*
X109692463Y78237400D02*
X109692463Y76875937D01*
X105844361Y78237400D02*
X105844361Y76914039D01*
D71*
X65964482Y39699700D02*
X65858682Y39805500D01*
D70*
X42954000Y10568400D02*
X43561000Y11175400D01*
X139888200Y57937400D02*
X138650000Y57937400D01*
D71*
X45072300Y40157400D02*
X44966500Y40263200D01*
D70*
X6834000Y64267400D02*
X8379000Y64267400D01*
X141543800Y21361400D02*
X143256000Y23073600D01*
X143256000Y24511000D02*
X143256000Y32791400D01*
X126465520Y76866880D02*
X126619000Y76713400D01*
X51689000Y11244900D02*
X54921500Y11244900D01*
X64803582Y41676300D02*
X65858682Y42731400D01*
X27031000Y23373400D02*
X29845000Y23373400D01*
X26322213Y78534387D02*
X26695400Y78161200D01*
X38574010Y82990042D02*
X39317779Y83733811D01*
X55245000Y55377400D02*
X52705000Y55377400D01*
X40643967Y82891067D02*
X40160523Y82891067D01*
X122579423Y78237400D02*
X122579423Y76942977D01*
X99036722Y52539212D02*
X105061922Y52539212D01*
X109855000Y76713400D02*
X113665000Y76713400D01*
X26322213Y80300856D02*
X26322213Y78534387D01*
X122809000Y18801400D02*
X124249500Y18801400D01*
X40668000Y11244900D02*
X43491500Y11244900D01*
X139700000Y93351350D02*
X138684950Y93351350D01*
X76708000Y53543400D02*
X76708000Y52095400D01*
X22631400Y78161200D02*
X26695400Y78161200D01*
X145551000Y47151400D02*
X143256000Y44856400D01*
X22278516Y80300856D02*
X22278516Y78514084D01*
X99333967Y76713400D02*
X102235000Y76713400D01*
X17673636Y80226722D02*
X17673636Y78800964D01*
X146659600Y24511000D02*
X146659600Y25349200D01*
D71*
%TO.N,+24V*%
X149716722Y12086657D02*
X141418269Y12086657D01*
X136017000Y54107400D02*
X133477000Y56647400D01*
X141418269Y12086657D02*
X139881821Y13623105D01*
X150756857Y13126792D02*
X149716722Y12086657D01*
X150756857Y21380328D02*
X150756857Y13126792D01*
X156728851Y58219107D02*
X156736558Y58211400D01*
X157981000Y28758700D02*
X157981000Y34818700D01*
X73571100Y56647400D02*
X54013100Y56647400D01*
X157981000Y25027937D02*
X157981000Y28758700D01*
X139881821Y13623105D02*
X139888200Y13629484D01*
X153162000Y22611400D02*
X151987929Y22611400D01*
X157981000Y34818700D02*
X157981000Y37509234D01*
X139852400Y24511000D02*
X139419477Y24511000D01*
X145612977Y57937400D02*
X141543800Y57937400D01*
X155564463Y22611400D02*
X157981000Y25027937D01*
X133477000Y56647400D02*
X111506000Y56647400D01*
X153162000Y22611400D02*
X155564463Y22611400D01*
X146656000Y54576400D02*
X153086144Y54576400D01*
X146656000Y56894377D02*
X145612977Y57937400D01*
X154702615Y40787619D02*
X154702615Y56192871D01*
X139888200Y13629484D02*
X139888200Y21361400D01*
X139888200Y24475200D02*
X139852400Y24511000D01*
X139888200Y21361400D02*
X139888200Y24475200D01*
X111506000Y56647400D02*
X74676000Y56647400D01*
X157981000Y37509234D02*
X154702615Y40787619D01*
X151987929Y22611400D02*
X150756857Y21380328D01*
X136017000Y27913477D02*
X136017000Y54107400D01*
X139419477Y24511000D02*
X136017000Y27913477D01*
X156736558Y58211400D02*
X160528000Y58211400D01*
X154702615Y56192871D02*
X156728851Y58219107D01*
X146656000Y54576400D02*
X146656000Y56894377D01*
X153086144Y54576400D02*
X154702615Y56192871D01*
D70*
%TO.N,Net-(C2-Pad2)*%
X39033200Y35668200D02*
X41592500Y35668200D01*
X45008800Y33050800D02*
X45008800Y34578200D01*
X38100000Y41173400D02*
X38100000Y36601400D01*
X41046400Y42235400D02*
X39162000Y42235400D01*
X56345000Y34379400D02*
X55245000Y33279400D01*
X45008800Y34578200D02*
X45055000Y34624400D01*
X44011200Y35668200D02*
X45055000Y34624400D01*
X45241426Y36122826D02*
X45055000Y35936400D01*
X39162000Y42235400D02*
X38100000Y41173400D01*
X56345000Y34878400D02*
X56345000Y34379400D01*
X45055000Y35936400D02*
X45055000Y34624400D01*
X38100000Y36601400D02*
X39033200Y35668200D01*
X41592500Y35668200D02*
X44011200Y35668200D01*
X45241426Y37147500D02*
X45241426Y36122826D01*
%TO.N,Net-(C6-Pad1)*%
X53041500Y44019800D02*
X53041500Y43057300D01*
X53341900Y44320200D02*
X53041500Y44019800D01*
X55054500Y43840200D02*
X55054500Y43860200D01*
X54594500Y44320200D02*
X53341900Y44320200D01*
X55054500Y43860200D02*
X54594500Y44320200D01*
%TO.N,Net-(C6-Pad2)*%
X55054500Y43180200D02*
X53814400Y43180200D01*
X53814400Y43180200D02*
X53691500Y43057300D01*
%TO.N,Net-(C8-Pad2)*%
X96024188Y36589212D02*
X98528722Y36589212D01*
X98020722Y43227212D02*
X95779812Y43227212D01*
X102310000Y35849400D02*
X101844000Y35849400D01*
X101079812Y36589212D02*
X98528722Y36589212D01*
X95250000Y42697400D02*
X95250000Y37363400D01*
X102235000Y34549400D02*
X102235000Y35774400D01*
X95779812Y43227212D02*
X95250000Y42697400D01*
X102235000Y35774400D02*
X102310000Y35849400D01*
X102077926Y36081474D02*
X102310000Y35849400D01*
X102077926Y37583600D02*
X102077926Y36081474D01*
X101092000Y36601400D02*
X101079812Y36589212D01*
X101844000Y35849400D02*
X101092000Y36601400D01*
X95250000Y37363400D02*
X96024188Y36589212D01*
X112574000Y37935400D02*
X112574000Y36656400D01*
%TO.N,Net-(C12-Pad1)*%
X110087118Y44556816D02*
X111687118Y44556816D01*
X109878000Y43493400D02*
X109878000Y44347698D01*
X109878000Y44347698D02*
X110087118Y44556816D01*
X111687118Y44556816D02*
X111990722Y44253212D01*
%TO.N,Net-(C10-Pad2)*%
X108578000Y44320490D02*
X110146922Y45889412D01*
D72*
X113589000Y52024400D02*
X111506000Y54107400D01*
X109342812Y50039212D02*
X99036722Y50039212D01*
D70*
X110146922Y46209212D02*
X111802722Y47865012D01*
D72*
X111802722Y49003212D02*
X113589000Y50789490D01*
X110378812Y49003212D02*
X111802722Y49003212D01*
X109342812Y50039212D02*
X110378812Y49003212D01*
D70*
X102236722Y46209212D02*
X102236722Y46839212D01*
X102236722Y46057212D02*
X102236722Y46209212D01*
D72*
X113589000Y51567400D02*
X113589000Y52024400D01*
X113589000Y50789490D02*
X113589000Y51567400D01*
D70*
X110146922Y45889412D02*
X110146922Y46209212D01*
X104028000Y43493400D02*
X104028000Y44265934D01*
X108578000Y43493400D02*
X108578000Y44320490D01*
X111802722Y47865012D02*
X111802722Y49003212D01*
X102236722Y46839212D02*
X99036722Y50039212D01*
X104028000Y44265934D02*
X102236722Y46057212D01*
%TO.N,Net-(C12-Pad2)*%
X111890910Y43493400D02*
X111990722Y43593212D01*
X110528000Y43493400D02*
X111890910Y43493400D01*
%TO.N,Net-(C13-Pad2)*%
X91356000Y18765400D02*
X91900000Y19309400D01*
X88900000Y13975400D02*
X90923000Y13975400D01*
X91398000Y14366400D02*
X91356000Y14408400D01*
X90923000Y13975400D02*
X91356000Y14408400D01*
X91398000Y10927400D02*
X91398000Y14366400D01*
X91356000Y14408400D02*
X91356000Y18765400D01*
%TO.N,Net-(C14-Pad2)*%
X11433000Y48011400D02*
X11433000Y46161400D01*
X9694000Y45321400D02*
X8636000Y44263400D01*
X10593000Y45321400D02*
X16073000Y45321400D01*
X16073000Y45321400D02*
X16129000Y45265400D01*
X11433000Y46161400D02*
X10593000Y45321400D01*
X10593000Y45321400D02*
X9694000Y45321400D01*
%TO.N,Net-(C15-Pad2)*%
X11179000Y64267400D02*
X11179000Y62417400D01*
X11179000Y62417400D02*
X10593000Y61831400D01*
X16129000Y62049400D02*
X10811000Y62049400D01*
X10811000Y62049400D02*
X10593000Y61831400D01*
X8636000Y61027400D02*
X9789000Y61027400D01*
X9789000Y61027400D02*
X10593000Y61831400D01*
%TO.N,Net-(C16-Pad2)*%
X80216000Y19309400D02*
X80216000Y15206400D01*
X79714000Y14112400D02*
X79418000Y14408400D01*
X80216000Y15206400D02*
X79418000Y14408400D01*
X79714000Y10927400D02*
X79714000Y14112400D01*
X78985000Y13975400D02*
X79418000Y14408400D01*
X76962000Y13975400D02*
X78985000Y13975400D01*
%TO.N,+3.3V*%
X36067779Y89225882D02*
X36625606Y88668055D01*
X41401848Y80230009D02*
X40674040Y79502201D01*
X89789000Y87383700D02*
X89789000Y75443400D01*
X40924224Y87439861D02*
X41401848Y86962237D01*
X37825007Y88668055D02*
X39053201Y87439861D01*
X36067779Y92090991D02*
X36067779Y89225882D01*
X127782000Y21361400D02*
X132334000Y25913400D01*
X39053201Y87439861D02*
X40924224Y87439861D01*
X38574010Y79987406D02*
X38574010Y81334442D01*
X133985000Y58171400D02*
X130937000Y61219400D01*
X30373000Y72395400D02*
X30373000Y71907400D01*
X17907000Y59441400D02*
X17887000Y59461400D01*
X130937000Y61219400D02*
X130937000Y73919400D01*
X38574010Y81334442D02*
X38574010Y79346410D01*
X40674040Y79502201D02*
X39059215Y79502201D01*
X133985000Y27564400D02*
X133985000Y53345400D01*
X41401848Y86962237D02*
X41401848Y80230009D01*
X90551000Y88145700D02*
X89789000Y87383700D01*
X31135000Y71907400D02*
X30373000Y71907400D01*
X28595000Y74173400D02*
X30373000Y72395400D01*
X36625606Y88668055D02*
X37825007Y88668055D01*
X92147463Y89996163D02*
X90297000Y88145700D01*
X17887000Y59461400D02*
X15728000Y59461400D01*
X132334000Y25913400D02*
X133985000Y27564400D01*
X38574010Y79346410D02*
X31135000Y71907400D01*
X89789000Y75443400D02*
X90297000Y74935400D01*
X39059215Y79502201D02*
X38574010Y79987406D01*
X30373000Y71907400D02*
X17907000Y59441400D01*
X92147463Y92400712D02*
X92147463Y89996163D01*
%TO.N,RESET_OUT*%
X16129000Y51265400D02*
X16129000Y55885400D01*
X15935700Y51072100D02*
X16129000Y51265400D01*
X16129000Y55885400D02*
X28067000Y67823400D01*
X10261600Y51072100D02*
X15935700Y51072100D01*
X28067000Y67823400D02*
X31623000Y67823400D01*
%TO.N,HOME_OUT*%
X19911000Y68049400D02*
X19939000Y68077400D01*
X15407700Y67328100D02*
X16129000Y68049400D01*
X16129000Y68049400D02*
X19911000Y68049400D01*
X10261600Y67328100D02*
X15407700Y67328100D01*
%TO.N,Net-(C18-Pad2)*%
X113524000Y10927400D02*
X113524000Y14112400D01*
X113524000Y14112400D02*
X113228000Y14408400D01*
X110772000Y13975400D02*
X112795000Y13975400D01*
X112795000Y13975400D02*
X113228000Y14408400D01*
X113228000Y18511400D02*
X114026000Y19309400D01*
X113228000Y14408400D02*
X113228000Y18511400D01*
%TO.N,START_OUT*%
X19177000Y57409400D02*
X28067000Y66299400D01*
X10096500Y34823400D02*
X15415000Y34823400D01*
X16129000Y36073400D02*
X19177000Y39121400D01*
X19177000Y39121400D02*
X19177000Y57409400D01*
X16129000Y35537400D02*
X16129000Y36073400D01*
X15415000Y34823400D02*
X16129000Y35537400D01*
X28067000Y66299400D02*
X31623000Y66299400D01*
D72*
%TO.N,/StepperDriver2/1A*%
X38735000Y58171400D02*
X40747000Y58171400D01*
D73*
X38735000Y58171400D02*
X38735000Y71780400D01*
X40640000Y73685400D02*
X45974000Y73685400D01*
D72*
X51091500Y44383433D02*
X51752500Y45044433D01*
D73*
X55644000Y83355400D02*
X55644000Y92289400D01*
X38735000Y71780400D02*
X40640000Y73685400D01*
D72*
X51752500Y45044433D02*
X51752500Y46558200D01*
X51091500Y43057300D02*
X51091500Y44383433D01*
D73*
X45974000Y73685400D02*
X55644000Y83355400D01*
D70*
%TO.N,Net-(IC1-Pad6)*%
X50441500Y43057300D02*
X50441500Y44485200D01*
X50441500Y44485200D02*
X50519500Y44563200D01*
X50519500Y44563200D02*
X50528805Y44563200D01*
X50528805Y44563200D02*
X50990500Y45024895D01*
X50990500Y45024895D02*
X50990500Y48285400D01*
D73*
%TO.N,/StepperDriver2/2A*%
X35433000Y59156600D02*
X36703000Y57886600D01*
X35433000Y59187400D02*
X35433000Y59156600D01*
D72*
X50228500Y45288200D02*
X50228500Y46558200D01*
X49791500Y43057300D02*
X49791500Y44851200D01*
D73*
X41910000Y76733400D02*
X48024000Y82847400D01*
X35433000Y59187400D02*
X35433000Y72796400D01*
D72*
X49791500Y44851200D02*
X50228500Y45288200D01*
D73*
X48024000Y82847400D02*
X48024000Y92289400D01*
X35433000Y72796400D02*
X39370000Y76733400D01*
X39370000Y76733400D02*
X41910000Y76733400D01*
%TO.N,/StepperDriver2/2B*%
X33909000Y58755600D02*
X35458400Y57206200D01*
X44214000Y80561400D02*
X44214000Y92289400D01*
X33909000Y58755600D02*
X33909000Y73304400D01*
D72*
X49141500Y43057300D02*
X49141500Y44851200D01*
D73*
X33909000Y73304400D02*
X38608000Y78003400D01*
X41656000Y78003400D02*
X44214000Y80561400D01*
D72*
X48704500Y45288200D02*
X48704500Y46558200D01*
X49141500Y44851200D02*
X48704500Y45288200D01*
D73*
X38608000Y78003400D02*
X41656000Y78003400D01*
D70*
%TO.N,Net-(IC1-Pad9)*%
X47979500Y44987895D02*
X47979500Y47994400D01*
X48491500Y44475895D02*
X47979500Y44987895D01*
X47979500Y47994400D02*
X47688500Y48285400D01*
X48491500Y43057300D02*
X48491500Y44475895D01*
D73*
%TO.N,/StepperDriver2/1B*%
X37719000Y72796400D02*
X40132000Y75209400D01*
X37719000Y54869400D02*
X37719000Y72796400D01*
D72*
X47841500Y44119200D02*
X47180500Y44780200D01*
X37719000Y54869400D02*
X39629400Y54869400D01*
D73*
X40132000Y75209400D02*
X43942000Y75209400D01*
D72*
X47841500Y43057300D02*
X47841500Y44119200D01*
D73*
X51834000Y83101400D02*
X51834000Y92289400D01*
X43942000Y75209400D02*
X51834000Y83101400D01*
D72*
X47180500Y44780200D02*
X47180500Y46558200D01*
D70*
%TO.N,Net-(IC1-Pad12)*%
X45891500Y44019800D02*
X45891500Y43057300D01*
X41742500Y44356200D02*
X41592500Y44206200D01*
X43549500Y44356200D02*
X45555100Y44356200D01*
X46541500Y43057300D02*
X45891500Y43057300D01*
X45555100Y44356200D02*
X45891500Y44019800D01*
X43549500Y44356200D02*
X41742500Y44356200D01*
%TO.N,XYZ_RESET*%
X67433631Y37304200D02*
X66866431Y37871400D01*
X103378000Y38125400D02*
X102616000Y38887400D01*
X46541449Y37147500D02*
X46541449Y37630100D01*
X42311000Y38379400D02*
X41783000Y37851400D01*
X46541449Y37630100D02*
X45792149Y38379400D01*
X46541449Y33092951D02*
X46609000Y33025400D01*
X46541449Y37147500D02*
X46541449Y33092951D01*
X67433631Y36821600D02*
X67433631Y37304200D01*
X45891500Y37181300D02*
X46541500Y37181300D01*
X45891500Y37181300D02*
X45878518Y37168318D01*
X102728000Y37617400D02*
X103378000Y37617400D01*
X102616000Y38887400D02*
X98699000Y38887400D01*
X98699000Y38887400D02*
X98679000Y38867400D01*
X66783619Y36821600D02*
X67433631Y36821600D01*
X103378000Y37617400D02*
X103378000Y38125400D01*
X103403279Y37592121D02*
X103378000Y37617400D01*
X63393000Y37871400D02*
X62611000Y37089400D01*
X66866431Y37871400D02*
X63393000Y37871400D01*
X46609000Y33025400D02*
X46609000Y27203400D01*
X45792149Y38379400D02*
X42311000Y38379400D01*
%TO.N,Y_FAULT*%
X58547000Y35556095D02*
X57785000Y34794095D01*
X58801000Y58171400D02*
X58801000Y58191400D01*
X47191460Y35841140D02*
X47455000Y35577600D01*
X47191460Y37147500D02*
X47191460Y35841140D01*
X58801000Y58191400D02*
X49149000Y67843400D01*
X47455000Y34624400D02*
X47455000Y31353300D01*
X58547000Y54869400D02*
X58547000Y35556095D01*
X47455000Y31353300D02*
X47523400Y31284900D01*
X47455000Y35577600D02*
X47455000Y34624400D01*
X58801000Y55123400D02*
X58547000Y54869400D01*
%TO.N,XYZ_DECAY*%
X48387000Y33025400D02*
X48387000Y27965400D01*
X67741800Y33025400D02*
X68733654Y34017254D01*
X48387000Y35542400D02*
X47841472Y36087928D01*
X48387000Y27965400D02*
X49149000Y27203400D01*
X47841472Y36087928D02*
X47841472Y37147500D01*
X48387000Y33025400D02*
X48387000Y35542400D01*
X104677972Y37583600D02*
X104677972Y36230372D01*
X104677972Y36230372D02*
X104521000Y36073400D01*
X68733654Y34017254D02*
X68733654Y36821600D01*
%TO.N,Y_DIR*%
X49149000Y29723400D02*
X49169000Y29723400D01*
X48491483Y36222917D02*
X49149000Y35565400D01*
X48491483Y37147500D02*
X48491483Y36222917D01*
X49149000Y35565400D02*
X49149000Y29723400D01*
X49169000Y29723400D02*
X51689000Y27203400D01*
%TO.N,Y_ENABLE*%
X51435000Y28453400D02*
X52979000Y28453400D01*
X49141494Y36209302D02*
X49657000Y35693796D01*
X64685701Y26028400D02*
X55404000Y26028400D01*
X49657000Y30231400D02*
X51435000Y28453400D01*
X55404000Y26028400D02*
X54229000Y27203400D01*
X52979000Y28453400D02*
X54229000Y27203400D01*
X69138800Y24841200D02*
X65872901Y24841200D01*
X65872901Y24841200D02*
X64685701Y26028400D01*
X49141494Y37147500D02*
X49141494Y36209302D01*
X49657000Y35693796D02*
X49657000Y30231400D01*
%TO.N,Y_STEP*%
X49791506Y36195686D02*
X50165000Y35822192D01*
X49791506Y37147500D02*
X49791506Y36195686D01*
X50165000Y35822192D02*
X50165000Y30739400D01*
X51689000Y29215400D02*
X54757000Y29215400D01*
X54757000Y29215400D02*
X56769000Y27203400D01*
X50165000Y30739400D02*
X51689000Y29215400D01*
%TO.N,Y_HOME*%
X58039000Y40899400D02*
X58039000Y54869400D01*
X56281000Y58171400D02*
X46609000Y67843400D01*
X53945000Y34878400D02*
X58039000Y38972400D01*
X58039000Y38972400D02*
X58039000Y40899400D01*
X53041563Y37147500D02*
X53041563Y35781837D01*
X57785000Y58171400D02*
X56281000Y58171400D01*
X58039000Y54869400D02*
X57785000Y55123400D01*
X53041563Y35781837D02*
X53945000Y34878400D01*
D72*
%TO.N,/StepperDriver3/1A*%
X89154000Y75463400D02*
X89163000Y75472400D01*
X107928000Y44442723D02*
X108688722Y45203445D01*
X108688722Y46679712D02*
X108651222Y46717212D01*
D73*
X101117400Y59791600D02*
X101015800Y59791600D01*
X89163000Y75472400D02*
X89163000Y92289400D01*
D72*
X108688722Y45203445D02*
X108688722Y46679712D01*
D73*
X99568000Y61239400D02*
X89154000Y71653400D01*
X101015800Y59791600D02*
X99568000Y61239400D01*
X89154000Y71653400D02*
X89154000Y75463400D01*
D72*
X107928000Y43493400D02*
X107928000Y44442723D01*
D70*
%TO.N,Net-(IC2-Pad6)*%
X107926722Y45183907D02*
X107926722Y47428412D01*
X107278000Y44535185D02*
X107926722Y45183907D01*
X107926722Y47428412D02*
X108688722Y48190412D01*
X107278000Y43493400D02*
X107278000Y44535185D01*
D72*
%TO.N,/StepperDriver3/2A*%
X106628000Y44910490D02*
X107164722Y45447212D01*
X106628000Y43493400D02*
X106628000Y44910490D01*
D73*
X99263200Y59766200D02*
X97790000Y61239400D01*
X87884000Y71145400D02*
X97790000Y61239400D01*
D72*
X107164722Y45447212D02*
X107164722Y46463212D01*
D73*
X99288600Y59766200D02*
X99263200Y59766200D01*
X87884000Y87909400D02*
X87884000Y71145400D01*
%TO.N,/StepperDriver3/2B*%
X97180400Y59715400D02*
X97028000Y59715400D01*
D72*
X105978000Y44855934D02*
X105386722Y45447212D01*
D73*
X95504000Y61239400D02*
X86614000Y70129400D01*
X97028000Y59715400D02*
X95504000Y61239400D01*
D72*
X105386722Y45447212D02*
X105386722Y46463212D01*
D73*
X86614000Y86131400D02*
X86614000Y70129400D01*
D72*
X105978000Y43493400D02*
X105978000Y44855934D01*
D70*
%TO.N,Net-(IC2-Pad9)*%
X105328000Y44480900D02*
X104624722Y45184178D01*
X104624722Y47428412D02*
X105386722Y48190412D01*
X104624722Y45184178D02*
X104624722Y47428412D01*
X105328000Y43493400D02*
X105328000Y44480900D01*
D73*
%TO.N,/StepperDriver3/1B*%
X93980000Y60985400D02*
X85344000Y69621400D01*
X95402400Y59563000D02*
X93980000Y60985400D01*
X85353000Y70900400D02*
X85353000Y92289400D01*
D72*
X85344000Y70891400D02*
X85353000Y70900400D01*
X103862722Y45203716D02*
X104678000Y44388438D01*
D73*
X85344000Y69621400D02*
X85344000Y70891400D01*
D72*
X103862722Y45701212D02*
X103862722Y46717212D01*
X103862722Y45701212D02*
X103862722Y45203716D01*
D73*
X95402400Y59512200D02*
X95402400Y59563000D01*
D72*
X104678000Y44388438D02*
X104678000Y43493400D01*
D70*
%TO.N,Net-(IC2-Pad12)*%
X98020722Y45127212D02*
X99827722Y45127212D01*
X102728000Y44455900D02*
X102728000Y43493400D01*
X99977722Y45277212D02*
X101906688Y45277212D01*
X99827722Y45127212D02*
X99977722Y45277212D01*
X103378000Y43493400D02*
X102728000Y43493400D01*
X101906688Y45277212D02*
X102728000Y44455900D01*
%TO.N,Z_FAULT*%
X102310000Y33449400D02*
X103863000Y33449400D01*
X104027960Y37583600D02*
X104027960Y36605665D01*
X103505000Y36082705D02*
X103505000Y33807400D01*
X103505000Y33807400D02*
X103863000Y33449400D01*
X103863000Y33449400D02*
X110109000Y27203400D01*
X104027960Y36605665D02*
X103505000Y36082705D01*
%TO.N,Z_DIR*%
X109045396Y28903400D02*
X108951298Y28997498D01*
X121534722Y28559278D02*
X121190600Y28903400D01*
X121534722Y25937678D02*
X121534722Y28559278D01*
X105327983Y32620813D02*
X108951298Y28997498D01*
X121190600Y28903400D02*
X109045396Y28903400D01*
X105327983Y37583600D02*
X105327983Y32620813D01*
X122809000Y24663400D02*
X121534722Y25937678D01*
%TO.N,Z_ENABLE*%
X105977994Y37583600D02*
X105977994Y35378406D01*
X106502200Y33025400D02*
X108331000Y33025400D01*
X109212800Y32143600D02*
X119530501Y32143600D01*
X119530501Y32143600D02*
X124079000Y27595101D01*
X124079000Y25933400D02*
X125349000Y24663400D01*
X104851200Y31247400D02*
X103632000Y30028200D01*
X124079000Y27595101D02*
X124079000Y25933400D01*
X105977994Y35378406D02*
X108458000Y32898400D01*
X108331000Y33025400D02*
X108458000Y32898400D01*
X108458000Y32898400D02*
X109212800Y32143600D01*
X103632000Y30028200D02*
X96088200Y30028200D01*
%TO.N,Z_STEP*%
X129687000Y24663400D02*
X127889000Y24663400D01*
X106628006Y37583600D02*
X106628006Y35490394D01*
X131191000Y28453400D02*
X131191000Y26167400D01*
X109524800Y32593600D02*
X127050800Y32593600D01*
X106628006Y35490394D02*
X109524800Y32593600D01*
X127050800Y32593600D02*
X131191000Y28453400D01*
X131191000Y26167400D02*
X129687000Y24663400D01*
%TO.N,Z_HOME*%
X109878063Y36095337D02*
X109878063Y37583600D01*
X112469000Y35640400D02*
X112574000Y35535400D01*
X110333000Y35640400D02*
X112469000Y35640400D01*
X109878063Y36095337D02*
X110333000Y35640400D01*
D73*
%TO.N,/StepperDriver1/1A*%
X72390000Y61239400D02*
X72390000Y92303600D01*
D72*
X71983682Y45389882D02*
X72390000Y45796200D01*
D73*
X72415400Y59359800D02*
X72415400Y61214000D01*
D72*
X71983682Y42731400D02*
X71983682Y45389882D01*
X72390000Y45796200D02*
X72390000Y46964600D01*
D70*
%TO.N,Net-(IC3-Pad6)*%
X71333699Y45650394D02*
X71602600Y45919295D01*
X71602600Y45919295D02*
X71602600Y48031582D01*
X71333699Y42765200D02*
X71333699Y45650394D01*
X71602600Y48031582D02*
X71120682Y48513500D01*
D73*
%TO.N,/StepperDriver1/2A*%
X70891400Y61239400D02*
X70891400Y88188800D01*
D72*
X70683688Y46858488D02*
X70683688Y42765200D01*
D73*
X70891400Y59385200D02*
X70891400Y61239400D01*
%TO.N,/StepperDriver1/2B*%
X69316600Y59385200D02*
X69316600Y61214000D01*
X69316600Y61214000D02*
X69342000Y61239400D01*
D72*
X70033682Y44952118D02*
X69342000Y45643800D01*
X70033682Y44952118D02*
X70033682Y42731400D01*
X69342000Y45643800D02*
X69342000Y46939200D01*
D73*
X69342000Y61239400D02*
X69342000Y86055200D01*
D70*
%TO.N,Net-(IC3-Pad9)*%
X67818682Y48513500D02*
X68453000Y47879182D01*
X68453000Y45791016D02*
X69383682Y44860334D01*
X68453000Y47879182D02*
X68453000Y45791016D01*
X69383682Y44860334D02*
X69383682Y42731400D01*
D73*
%TO.N,/StepperDriver1/1B*%
X67564000Y59410600D02*
X67564000Y61239400D01*
D72*
X67564682Y45516300D02*
X67564682Y45720682D01*
X67564682Y46914482D02*
X67564682Y45720682D01*
X68733682Y44347300D02*
X67818682Y45262300D01*
X67818682Y45262300D02*
X67564682Y45516300D01*
D73*
X67564000Y91255400D02*
X68598000Y92289400D01*
D72*
X67589400Y46939200D02*
X67564682Y46914482D01*
D73*
X67564000Y61239400D02*
X67564000Y91255400D01*
D72*
X68733682Y42731400D02*
X68733682Y44347300D01*
D70*
%TO.N,Net-(IC3-Pad12)*%
X66401282Y44076300D02*
X66783682Y43693900D01*
X66783682Y43693900D02*
X66783682Y42731400D01*
X61976682Y43926300D02*
X64037682Y43926300D01*
X67433682Y42731400D02*
X66783682Y42731400D01*
X64037682Y43926300D02*
X64187682Y44076300D01*
X64187682Y44076300D02*
X66401282Y44076300D01*
%TO.N,X_FAULT*%
X67437000Y34136400D02*
X66242000Y32941400D01*
X66242000Y32941400D02*
X65067000Y32941400D01*
X68083642Y36821600D02*
X68083642Y35459347D01*
X68083642Y35459347D02*
X67437000Y34812705D01*
X67437000Y34812705D02*
X67437000Y34136400D01*
X65067000Y32941400D02*
X64389000Y32263400D01*
%TO.N,X_DIR*%
X69383665Y32856735D02*
X69383665Y36821600D01*
X69469000Y32771400D02*
X69383665Y32856735D01*
%TO.N,X_ENABLE*%
X70485000Y34812705D02*
X70033676Y35264029D01*
X70033676Y35264029D02*
X70033676Y36821600D01*
X71145400Y27183400D02*
X70129400Y26167400D01*
X70129400Y26167400D02*
X67132200Y26167400D01*
X70485000Y30734000D02*
X70485000Y34812705D01*
%TO.N,X_STEP*%
X71501000Y34812705D02*
X70683688Y35630017D01*
X71501000Y32207200D02*
X71501000Y34812705D01*
X70683688Y35630017D02*
X70683688Y36821600D01*
%TO.N,X_HOME*%
X74519000Y35595400D02*
X74519000Y34878400D01*
X74676000Y33426400D02*
X74519000Y33583400D01*
X106319000Y25913400D02*
X107569000Y24663400D01*
X73933745Y36821600D02*
X73933745Y36180655D01*
X74676000Y32771400D02*
X74676000Y33426400D01*
X100584000Y28580400D02*
X103251000Y25913400D01*
X74519000Y33583400D02*
X74519000Y34878400D01*
X103251000Y25913400D02*
X106319000Y25913400D01*
X73933745Y36180655D02*
X74519000Y35595400D01*
%TO.N,Net-(C17-Pad2)*%
X13387000Y14333400D02*
X16927000Y14333400D01*
X12837000Y13783400D02*
X13387000Y14333400D01*
X11430000Y13783400D02*
X12837000Y13783400D01*
X12192000Y15528400D02*
X13387000Y14333400D01*
X12192000Y16151400D02*
X12192000Y15528400D01*
X16927000Y14333400D02*
X18161000Y15567400D01*
D72*
%TO.N,Net-(C19-Pad1)*%
X74676000Y54107400D02*
X74676000Y49005618D01*
X74676000Y54107400D02*
X71140000Y50571400D01*
X71140000Y50571400D02*
X66212400Y50571400D01*
D70*
X72633682Y44809100D02*
X73594882Y45770300D01*
D72*
X74676000Y49005618D02*
X74234682Y48564300D01*
D70*
X68083682Y42731400D02*
X68083682Y44057300D01*
D72*
X66212400Y50571400D02*
X64561400Y48920400D01*
D70*
X64240682Y48330300D02*
X63048700Y48330300D01*
X63048700Y48330300D02*
X62458600Y48920400D01*
X64240682Y48330300D02*
X66624682Y45946300D01*
X66624682Y45946300D02*
X66624682Y45516300D01*
D72*
X74772000Y54203400D02*
X76708000Y54203400D01*
D70*
X73594882Y45770300D02*
X73594882Y47924500D01*
X73594882Y47924500D02*
X74234682Y48564300D01*
D72*
X64561400Y48920400D02*
X62458600Y48920400D01*
D70*
X68083682Y44057300D02*
X66624682Y45516300D01*
X72633682Y42731400D02*
X72633682Y44809100D01*
D72*
X74676000Y54107400D02*
X74772000Y54203400D01*
D70*
%TO.N,Net-(C20-Pad2)*%
X61976682Y42026300D02*
X60542900Y42026300D01*
X66242000Y35341400D02*
X62691782Y35341400D01*
X60395100Y35134300D02*
X62484682Y35134300D01*
X66167000Y34295400D02*
X66167000Y35266400D01*
X59436000Y40919400D02*
X59436000Y36093400D01*
X60542900Y42026300D02*
X59436000Y40919400D01*
X59436000Y36093400D02*
X60395100Y35134300D01*
X75819000Y34803400D02*
X76844000Y34803400D01*
X66167000Y35266400D02*
X66242000Y35341400D01*
X76844000Y34803400D02*
X76919000Y34878400D01*
X66133608Y35449792D02*
X66242000Y35341400D01*
X62691782Y35341400D02*
X62484682Y35134300D01*
X66133608Y36821600D02*
X66133608Y35449792D01*
%TO.N,Net-(C24-Pad1)*%
X73933682Y42731400D02*
X73933682Y43693900D01*
X74033682Y43793900D02*
X75814482Y43793900D01*
X75814482Y43793900D02*
X75899082Y43709300D01*
X73933682Y43693900D02*
X74033682Y43793900D01*
%TO.N,Net-(C24-Pad2)*%
X75523782Y42731400D02*
X75946682Y43154300D01*
X74583682Y42731400D02*
X75523782Y42731400D01*
%TO.N,Net-(C29-Pad1)*%
X130322000Y21361400D02*
X134022000Y21361400D01*
X145834100Y5359400D02*
X146050000Y5143500D01*
X134022000Y21361400D02*
X134620000Y20763400D01*
X146050000Y5143500D02*
X158762700Y5143500D01*
X132645000Y8604400D02*
X132645000Y18788400D01*
X135890000Y5359400D02*
X132645000Y8604400D01*
X132645000Y18788400D02*
X134620000Y20763400D01*
X135890000Y5359400D02*
X145834100Y5359400D01*
X158762700Y5143500D02*
X159258000Y5638800D01*
D72*
%TO.N,Net-(C30-Pad1)*%
X171184250Y75558650D02*
X171323000Y75697400D01*
X162306000Y75558650D02*
X171184250Y75558650D01*
X146939000Y76390500D02*
X140911900Y70363400D01*
X162306000Y75558650D02*
X147770850Y75558650D01*
D70*
X135128000Y67677400D02*
X135128000Y70363400D01*
D72*
X147770850Y75558650D02*
X146939000Y76390500D01*
X140911900Y70363400D02*
X135128000Y70363400D01*
D70*
%TO.N,Net-(C31-Pad2)*%
X10593000Y31062400D02*
X11306000Y31775400D01*
X10593000Y29319400D02*
X10593000Y31062400D01*
X9535000Y28261400D02*
X10593000Y29319400D01*
X16129000Y29537400D02*
X10811000Y29537400D01*
X8636000Y28261400D02*
X9535000Y28261400D01*
X10811000Y29537400D02*
X10593000Y29319400D01*
%TO.N,Net-(C32-Pad2)*%
X100076000Y13975400D02*
X102226000Y13975400D01*
X102659000Y14408400D02*
X102659000Y19146400D01*
X102226000Y13975400D02*
X102659000Y14408400D01*
X102659000Y19146400D02*
X102822000Y19309400D01*
X103801000Y13266400D02*
X102659000Y14408400D01*
X103801000Y10927400D02*
X103801000Y13266400D01*
%TO.N,Net-(C1-Pad1)*%
X56908500Y50924200D02*
X56332500Y50348200D01*
X54104500Y46944000D02*
X53210700Y46050200D01*
X54013100Y49189600D02*
X54104500Y49098200D01*
X45847000Y50043400D02*
X44413800Y48610200D01*
X51741500Y44019800D02*
X53210700Y45489000D01*
X45676038Y45542200D02*
X45478500Y45542200D01*
X54104500Y49098200D02*
X53159300Y50043400D01*
X56908500Y51384200D02*
X56908500Y50924200D01*
X54013100Y54107400D02*
X54013100Y51046700D01*
X54013100Y51046700D02*
X54013100Y49189600D01*
X53210700Y45489000D02*
X53210700Y46050200D01*
X47191500Y44026738D02*
X45676038Y45542200D01*
X51741500Y43057300D02*
X51741500Y44019800D01*
X45478500Y46482200D02*
X45478500Y45542200D01*
X43350500Y48610200D02*
X45478500Y46482200D01*
X44413800Y48610200D02*
X42354500Y48610200D01*
X53159300Y50043400D02*
X45847000Y50043400D01*
X54104500Y49098200D02*
X54104500Y46944000D01*
X42354500Y48610200D02*
X43350500Y48610200D01*
X54711600Y50348200D02*
X54013100Y51046700D01*
X47191500Y43057300D02*
X47191500Y44026738D01*
X56332500Y50348200D02*
X54711600Y50348200D01*
%TO.N,Net-(C5-Pad1)*%
X52391500Y43057300D02*
X52391500Y44019800D01*
X54421900Y46050200D02*
X54866300Y46050200D01*
X54866300Y47960000D02*
X56004500Y49098200D01*
X54866300Y46050200D02*
X54866300Y47960000D01*
X52391500Y44019800D02*
X54421900Y46050200D01*
%TO.N,Net-(C37-Pad2)*%
X34154000Y13975400D02*
X34587000Y14408400D01*
X35766000Y15587400D02*
X34587000Y14408400D01*
X34629000Y14366400D02*
X34587000Y14408400D01*
X35766000Y19309400D02*
X35766000Y15587400D01*
X32131000Y13975400D02*
X34154000Y13975400D01*
X34629000Y10927400D02*
X34629000Y14366400D01*
%TO.N,U3RX*%
X119262305Y11943400D02*
X125666500Y18347595D01*
X117729000Y11943400D02*
X119262305Y11943400D01*
X125666500Y18821400D02*
X129139000Y18821400D01*
X129139000Y18821400D02*
X129159000Y18801400D01*
X125666500Y18347595D02*
X125666500Y18821400D01*
%TO.N,Net-(C38-Pad2)*%
X46313000Y10927400D02*
X46313000Y14267400D01*
X46313000Y14267400D02*
X46172000Y14408400D01*
X46172000Y19019400D02*
X46462000Y19309400D01*
X45739000Y13975400D02*
X46172000Y14408400D01*
X46172000Y14408400D02*
X46172000Y19019400D01*
X43561000Y13975400D02*
X45739000Y13975400D01*
%TO.N,U3TX*%
X124079000Y20833400D02*
X122047000Y20833400D01*
X117729000Y16705900D02*
X119824500Y18801400D01*
X126619000Y23373400D02*
X124079000Y20833400D01*
X120015000Y18801400D02*
X119824500Y18801400D01*
X126619000Y25933400D02*
X126619000Y23373400D01*
X117729000Y15245400D02*
X117729000Y16705900D01*
X122047000Y20833400D02*
X120015000Y18801400D01*
X127889000Y27203400D02*
X126619000Y25933400D01*
%TO.N,LS_Y_OUT*%
X108839000Y25055101D02*
X109761497Y25977598D01*
X88011000Y19309400D02*
X91821000Y23119400D01*
X85900000Y19309400D02*
X88011000Y19309400D01*
X108839000Y23119400D02*
X108839000Y25055101D01*
X85900000Y19309400D02*
X85900000Y12733600D01*
X111379000Y26621699D02*
X111379000Y28453400D01*
X116479000Y28453400D02*
X117729000Y27203400D01*
X109761497Y25977598D02*
X110734899Y25977598D01*
X111379000Y28453400D02*
X116479000Y28453400D01*
X91821000Y23119400D02*
X108839000Y23119400D01*
X85900000Y12733600D02*
X85991700Y12641900D01*
X110734899Y25977598D02*
X111379000Y26621699D01*
%TO.N,Net-(D1-Pad1)*%
X135112060Y15371340D02*
X134620000Y15863400D01*
X135112060Y12017313D02*
X135112060Y15371340D01*
D74*
%TO.N,+5V*%
X146609750Y84258150D02*
X147920950Y84258150D01*
D72*
X135128000Y72903400D02*
X135128000Y79686150D01*
X135128000Y72903400D02*
X135128000Y74046400D01*
D70*
X146812000Y84460400D02*
X146609750Y84258150D01*
D72*
X140335000Y79253400D02*
X154868901Y79253400D01*
D70*
X146812000Y85191400D02*
X146812000Y84460400D01*
D72*
X135128000Y79686150D02*
X139700000Y84258150D01*
X154868901Y79253400D02*
X159919000Y84303499D01*
X135128000Y74046400D02*
X140335000Y79253400D01*
D74*
X139700000Y84258150D02*
X146609750Y84258150D01*
X147920950Y84258150D02*
X148844000Y85181200D01*
D70*
%TO.N,Net-(D2-Pad1)*%
X135128000Y63559400D02*
X135128000Y65977400D01*
%TO.N,Net-(LED1-Pad2)*%
X25760000Y29256400D02*
X26563000Y28453400D01*
X23711000Y29256400D02*
X25760000Y29256400D01*
X29469000Y28453400D02*
X26563000Y28453400D01*
%TO.N,Net-(LED1-Pad4)*%
X24006000Y26421400D02*
X23711000Y26716400D01*
X29469000Y26421400D02*
X24006000Y26421400D01*
%TO.N,LS_Z_OUT*%
X74216000Y12702600D02*
X74155300Y12641900D01*
X74216000Y19309400D02*
X74216000Y12702600D01*
X83439000Y25913400D02*
X76835000Y19309400D01*
X76835000Y19309400D02*
X74216000Y19309400D01*
X101473000Y25913400D02*
X83439000Y25913400D01*
%TO.N,LS_X_OUT*%
X109960604Y22611400D02*
X100124000Y22611400D01*
X96822000Y12689900D02*
X96774000Y12641900D01*
X111379000Y24029796D02*
X109960604Y22611400D01*
X111379000Y25151400D02*
X111379000Y24029796D01*
X120269000Y27203400D02*
X118904000Y25838400D01*
X118904000Y25838400D02*
X112066000Y25838400D01*
X96822000Y19309400D02*
X96822000Y12689900D01*
X100124000Y22611400D02*
X96822000Y19309400D01*
X112066000Y25838400D02*
X111379000Y25151400D01*
%TO.N,Net-(D3-Pad1)*%
X146050000Y16660413D02*
X146050000Y15227300D01*
X149122359Y24823759D02*
X149122359Y19732772D01*
X140813890Y20137569D02*
X145724158Y15227300D01*
X149122359Y19732772D02*
X146050000Y16660413D01*
X141554200Y24511000D02*
X140813890Y23770690D01*
X151638000Y27339400D02*
X149122359Y24823759D01*
X140813890Y23770690D02*
X140813890Y20137569D01*
X144957800Y16319500D02*
X144957800Y24511000D01*
X146050000Y15227300D02*
X144957800Y16319500D01*
X145724158Y15227300D02*
X146050000Y15227300D01*
%TO.N,/PiConnector1/Rx_Pi*%
X127889000Y15245400D02*
X121948000Y9304400D01*
X121948000Y9304400D02*
X121948000Y4831400D01*
%TO.N,/PiConnector1/Tx_Pi*%
X127889000Y7272400D02*
X125448000Y4831400D01*
X127889000Y11943400D02*
X127889000Y7272400D01*
%TO.N,Net-(D4-Pad1)*%
X141556000Y56097470D02*
X141556000Y56116717D01*
D72*
X141556000Y56097470D02*
X141903104Y56444574D01*
X144956000Y54576400D02*
X144956000Y53398011D01*
D75*
X141556000Y56116717D02*
X140693800Y56978917D01*
X140693800Y58737957D02*
X143309543Y61353700D01*
D72*
X144348546Y56444574D02*
X144956000Y55837120D01*
X141556000Y54576400D02*
X141556000Y56097470D01*
D75*
X140693800Y56978917D02*
X140693800Y58737957D01*
D70*
X143309543Y61353700D02*
X146939000Y61353700D01*
D72*
X141903104Y56444574D02*
X144348546Y56444574D01*
X144956000Y55837120D02*
X144956000Y54576400D01*
X144956000Y53398011D02*
X146902611Y51451400D01*
X146902611Y51451400D02*
X151638000Y51451400D01*
D71*
%TO.N,Net-(F1-Pad1)*%
X162052000Y21107400D02*
X167901000Y26956400D01*
X167901000Y28758700D02*
X167901000Y34818700D01*
X165781049Y34818700D02*
X158922000Y41677749D01*
X158922000Y41677749D02*
X158922000Y47015400D01*
X167901000Y26956400D02*
X167901000Y28758700D01*
X167901000Y34818700D02*
X165781049Y34818700D01*
D70*
%TO.N,Net-(IC5-Pad1)*%
X3860753Y94171050D02*
X3860753Y89819847D01*
X33782092Y86797200D02*
X34364301Y86214991D01*
X3860753Y89819847D02*
X6883400Y86797200D01*
X34364301Y86214991D02*
X36067779Y86214991D01*
X6883400Y86797200D02*
X33782092Y86797200D01*
%TO.N,Net-(IC5-Pad2)*%
X36717779Y86214991D02*
X36717779Y87177491D01*
X9087991Y87305200D02*
X36590070Y87305200D01*
X36590070Y87305200D02*
X36717779Y87177491D01*
X7670753Y88722438D02*
X9087991Y87305200D01*
X7670753Y94171050D02*
X7670753Y88722438D01*
%TO.N,Net-(R20-Pad1)*%
X8636000Y43163400D02*
X5028000Y43163400D01*
X5028000Y43163400D02*
X4826000Y43365400D01*
%TO.N,Net-(R23-Pad1)*%
X8584000Y59875400D02*
X8636000Y59927400D01*
X4826000Y59875400D02*
X8584000Y59875400D01*
%TO.N,Net-(IC5-Pad3)*%
X36398166Y84380115D02*
X37367779Y85349728D01*
X37367779Y85349728D02*
X37367779Y86214991D01*
X36398166Y83040976D02*
X36398166Y84380115D01*
%TO.N,Net-(IC5-Pad4)*%
X11480753Y94171050D02*
X11480753Y89027047D01*
X12752600Y87755200D02*
X36776466Y87755200D01*
X36776466Y87755200D02*
X36789811Y87741855D01*
X11480753Y89027047D02*
X12752600Y87755200D01*
X36789811Y87741855D02*
X37478415Y87741855D01*
X38017779Y87202491D02*
X38017779Y86214991D01*
X37478415Y87741855D02*
X38017779Y87202491D01*
%TO.N,Net-(IC5-Pad5)*%
X37638611Y88218055D02*
X38667779Y87188887D01*
X36439210Y88218055D02*
X37638611Y88218055D01*
X16027400Y88321200D02*
X36336065Y88321200D01*
X38667779Y87188887D02*
X38667779Y86214991D01*
X15290753Y94171050D02*
X15290753Y89057847D01*
X36336065Y88321200D02*
X36439210Y88218055D01*
X15290753Y89057847D02*
X16027400Y88321200D01*
%TO.N,DEMUX_S2*%
X40617779Y89050818D02*
X40878736Y88789861D01*
X40878736Y88789861D02*
X41483412Y88789861D01*
X41483412Y88789861D02*
X43103800Y87169473D01*
X40617779Y92090991D02*
X40617779Y89050818D01*
X43103800Y87169473D02*
X43103800Y86283800D01*
%TO.N,DEMUX_S1*%
X41297016Y88339861D02*
X40272229Y88339861D01*
X39967779Y88644311D02*
X39967779Y92090991D01*
X40272229Y88339861D02*
X39967779Y88644311D01*
X43103800Y84582000D02*
X42301848Y85383952D01*
X42301848Y87335029D02*
X41297016Y88339861D01*
X42301848Y85383952D02*
X42301848Y87335029D01*
%TO.N,DEMUX_S0*%
X39317779Y92090991D02*
X39317779Y88389431D01*
X41851848Y83502552D02*
X42545000Y82809400D01*
X41851848Y87148633D02*
X41851848Y83502552D01*
X39817349Y87889861D02*
X41110620Y87889861D01*
X41110620Y87889861D02*
X41851848Y87148633D01*
X39317779Y88389431D02*
X39817349Y87889861D01*
%TO.N,LED_R*%
X38989000Y25913400D02*
X36449000Y28453400D01*
X46609000Y24663400D02*
X45359000Y25913400D01*
X36449000Y28453400D02*
X31369000Y28453400D01*
X45359000Y25913400D02*
X38989000Y25913400D01*
%TO.N,Net-(IC5-Pad12)*%
X22947453Y96484750D02*
X22871253Y96408550D01*
X35261520Y96484750D02*
X22947453Y96484750D01*
X38667779Y92090991D02*
X38667779Y93078491D01*
X38667779Y93078491D02*
X35261520Y96484750D01*
X22871253Y96408550D02*
X20633753Y94171050D01*
%TO.N,Net-(IC5-Pad13)*%
X26307453Y96034750D02*
X26231253Y95958550D01*
X26231253Y95958550D02*
X24443753Y94171050D01*
X38017779Y92090991D02*
X38017779Y93078491D01*
X35061520Y96034750D02*
X26307453Y96034750D01*
X38017779Y93078491D02*
X35061520Y96034750D01*
%TO.N,Net-(IC5-Pad14)*%
X34861520Y95584750D02*
X29667453Y95584750D01*
X37367779Y92090991D02*
X37367779Y93078491D01*
X37367779Y93078491D02*
X34861520Y95584750D01*
X29591253Y95508550D02*
X28253753Y94171050D01*
X29667453Y95584750D02*
X29591253Y95508550D01*
%TO.N,LED_B*%
X45434000Y26716699D02*
X46237299Y25913400D01*
X46237299Y25913400D02*
X47899000Y25913400D01*
X43998101Y28936000D02*
X45434000Y27500101D01*
X33040000Y30739400D02*
X34843400Y28936000D01*
X31369000Y30739400D02*
X33040000Y30739400D01*
X45434000Y27500101D02*
X45434000Y26716699D01*
X47899000Y25913400D02*
X49149000Y24663400D01*
X34843400Y28936000D02*
X43998101Y28936000D01*
%TO.N,LED_G*%
X40182800Y23373400D02*
X36626800Y26929400D01*
X42779000Y23373400D02*
X40182800Y23373400D01*
X44069000Y24663400D02*
X42779000Y23373400D01*
X31877000Y26929400D02*
X31369000Y26421400D01*
X36626800Y26929400D02*
X31877000Y26929400D01*
%TO.N,Net-(IC5-Pad15)*%
X36717779Y92090991D02*
X36717779Y93078491D01*
X36717779Y93078491D02*
X35549020Y94247250D01*
X35549020Y94247250D02*
X31657353Y94247250D01*
%TO.N,Net-(IC6-Pad1)*%
X125747651Y94364212D02*
X116329812Y94364212D01*
X93602463Y89150712D02*
X92136463Y87684712D01*
X128975463Y91136400D02*
X125747651Y94364212D01*
X111116312Y89150712D02*
X93602463Y89150712D01*
X92147463Y87673712D02*
X92136463Y87684712D01*
X116329812Y94364212D02*
X111116312Y89150712D01*
X92147463Y86524712D02*
X92147463Y87673712D01*
%TO.N,Net-(IC6-Pad2)*%
X125165463Y91136400D02*
X122387651Y93914212D01*
X111428312Y88700712D02*
X94010963Y88700712D01*
X122387651Y93914212D02*
X116641812Y93914212D01*
X116641812Y93914212D02*
X111428312Y88700712D01*
X94010963Y88700712D02*
X92797463Y87487212D01*
X92797463Y87487212D02*
X92797463Y86524712D01*
%TO.N,Net-(IC6-Pad3)*%
X93447463Y86524712D02*
X93447463Y84865712D01*
X93447463Y84865712D02*
X92390463Y83808712D01*
%TO.N,Net-(IC6-Pad4)*%
X116953812Y93464212D02*
X111682312Y88192712D01*
X111682312Y88192712D02*
X94777963Y88192712D01*
X94777963Y88192712D02*
X94097463Y87512212D01*
X94097463Y86524712D02*
X94097463Y87512212D01*
X121355463Y91136400D02*
X119027651Y93464212D01*
X119027651Y93464212D02*
X116953812Y93464212D01*
%TO.N,Net-(IC6-Pad5)*%
X94747463Y87487212D02*
X94747463Y86524712D01*
X116555151Y91136400D02*
X113103463Y87684712D01*
X113103463Y87684712D02*
X94944963Y87684712D01*
X94944963Y87684712D02*
X94747463Y87487212D01*
X117545463Y91136400D02*
X116555151Y91136400D01*
%TO.N,MUX_S2*%
X98425000Y90683400D02*
X103251000Y90683400D01*
X110617000Y81031400D02*
X110617000Y84333400D01*
X103251000Y90683400D02*
X109855000Y90683400D01*
X110617000Y75951400D02*
X110617000Y72415400D01*
X109855000Y85095400D02*
X109855000Y86365400D01*
X110617000Y84333400D02*
X109855000Y85095400D01*
X96697463Y92400712D02*
X98414775Y90683400D01*
X110617000Y72415400D02*
X112649000Y70383400D01*
X98414775Y90683400D02*
X98425000Y90683400D01*
%TO.N,MUX_S1*%
X106807000Y75951400D02*
X106807000Y73685400D01*
X106807000Y84587400D02*
X106807000Y81031400D01*
X97663000Y89921400D02*
X106299000Y89921400D01*
X106299000Y85095400D02*
X106807000Y84587400D01*
X96047463Y91536937D02*
X97663000Y89921400D01*
X106299000Y85857400D02*
X106299000Y85095400D01*
X96047463Y92400712D02*
X96047463Y91536937D01*
X106807000Y73685400D02*
X110109000Y70383400D01*
%TO.N,MUX_S0*%
X95397463Y90916937D02*
X96139000Y90175400D01*
X102997000Y75951400D02*
X102997000Y74955400D01*
X102997000Y85857400D02*
X102997000Y81031400D01*
X102997000Y74955400D02*
X107569000Y70383400D01*
X95397463Y92400712D02*
X95397463Y90916937D01*
%TO.N,Net-(IC6-Pad12)*%
X95647963Y94288712D02*
X94747463Y93388212D01*
X98512151Y94288712D02*
X95647963Y94288712D01*
X94747463Y93388212D02*
X94747463Y92400712D01*
X100264463Y92536400D02*
X98512151Y94288712D01*
%TO.N,Net-(IC6-Pad13)*%
X94097463Y93162712D02*
X94097463Y94150212D01*
X101306151Y95304712D02*
X95251963Y95304712D01*
X94097463Y94150212D02*
X95251963Y95304712D01*
X104074463Y92536400D02*
X101306151Y95304712D01*
%TO.N,Net-(IC6-Pad14)*%
X95074255Y95763400D02*
X104657463Y95763400D01*
X104657463Y95763400D02*
X107884463Y92536400D01*
X93447463Y94136608D02*
X95074255Y95763400D01*
X93447463Y93162712D02*
X93447463Y94136608D01*
%TO.N,Net-(IC6-Pad15)*%
X108017463Y96213400D02*
X94887859Y96213400D01*
X92797463Y94123004D02*
X92797463Y92400712D01*
X111694463Y92536400D02*
X108017463Y96213400D01*
X94887859Y96213400D02*
X92797463Y94123004D01*
%TO.N,MAG_IN2*%
X132461000Y80777400D02*
X132461000Y78237400D01*
X132461000Y78237400D02*
X129921000Y75697400D01*
X123043000Y75697400D02*
X117729000Y70383400D01*
X146312000Y82690400D02*
X145923000Y82301400D01*
X146312000Y83515400D02*
X146312000Y82690400D01*
X129921000Y75697400D02*
X123043000Y75697400D01*
%TO.N,MAG_IN1*%
X146812000Y80670400D02*
X146812000Y83515400D01*
X130175000Y75189400D02*
X125075000Y75189400D01*
X133731000Y80015400D02*
X133731000Y78745400D01*
X146761200Y80619600D02*
X146812000Y80670400D01*
X133731000Y78745400D02*
X130175000Y75189400D01*
X125075000Y75189400D02*
X120269000Y70383400D01*
%TO.N,/Electromagnet1/OUT2*%
X147387000Y86403324D02*
X147387000Y85191400D01*
X152880000Y90411400D02*
X151395076Y90411400D01*
X151395076Y90411400D02*
X147387000Y86403324D01*
%TO.N,/Electromagnet1/OUT1*%
X146312000Y87343400D02*
X149380000Y90411400D01*
X146312000Y85191400D02*
X146312000Y87343400D01*
%TO.N,MUX_OUT*%
X94869000Y73685400D02*
X100711000Y67843400D01*
X100711000Y67843400D02*
X105029000Y67843400D01*
%TO.N,Net-(J7-Pad2)*%
X92498000Y5917400D02*
X92498000Y10927400D01*
X91412000Y4831400D02*
X92498000Y5917400D01*
%TO.N,Net-(J9-Pad2)*%
X114624000Y5437400D02*
X114624000Y10927400D01*
X114018000Y4831400D02*
X114624000Y5437400D01*
%TO.N,CAPTURE_OUT*%
X108077000Y12641900D02*
X108077000Y19258400D01*
X108026000Y19309400D02*
X108026000Y20040400D01*
X108026000Y20040400D02*
X112649000Y24663400D01*
X108077000Y19258400D02*
X108026000Y19309400D01*
%TO.N,Net-(J8-Pad2)*%
X80814000Y10927400D02*
X80814000Y5663400D01*
X80814000Y5663400D02*
X79982000Y4831400D01*
%TO.N,FP_1_OUT*%
X51892000Y19309400D02*
X51892000Y12844900D01*
X57277000Y21849400D02*
X67874200Y21849400D01*
X51892000Y12844900D02*
X51689000Y12641900D01*
X72771000Y26746200D02*
X72771000Y27183400D01*
X51892000Y19309400D02*
X54737000Y19309400D01*
X90322400Y44734800D02*
X90322400Y55118000D01*
X54737000Y19309400D02*
X57277000Y21849400D01*
X67874200Y21849400D02*
X72771000Y26746200D01*
X72771000Y27183400D02*
X90322400Y44734800D01*
%TO.N,FP_2_OUT*%
X57090604Y22299400D02*
X67663800Y22299400D01*
X40462000Y19309400D02*
X43307000Y19309400D01*
X43307000Y19309400D02*
X45593000Y21595400D01*
X40668000Y19103400D02*
X40462000Y19309400D01*
X72161400Y27210196D02*
X88519000Y43567796D01*
X45593000Y21595400D02*
X56386604Y21595400D01*
X72161400Y26797000D02*
X72161400Y27210196D01*
X88519000Y43567796D02*
X88519000Y55123400D01*
X56386604Y21595400D02*
X57090604Y22299400D01*
X40668000Y12641900D02*
X40668000Y19103400D01*
X67663800Y22299400D02*
X72161400Y26797000D01*
%TO.N,FP_3_OUT*%
X92303600Y45954000D02*
X92303600Y55118000D01*
X62913000Y19309400D02*
X66116200Y19309400D01*
X66116200Y19309400D02*
X73329800Y26523000D01*
X63020000Y19202400D02*
X62913000Y19309400D01*
X73329800Y26523000D02*
X73329800Y26980200D01*
X73329800Y26980200D02*
X92303600Y45954000D01*
X63020000Y12641900D02*
X63020000Y19202400D01*
%TO.N,Net-(J17-Pad1)*%
X117545463Y82946400D02*
X117545463Y79382041D01*
X117545463Y79382041D02*
X116400822Y78237400D01*
%TO.N,Net-(J17-Pad2)*%
X121355463Y82946400D02*
X121355463Y79413440D01*
X121355463Y79413440D02*
X120179423Y78237400D01*
%TO.N,Net-(J17-Pad3)*%
X125165463Y82946400D02*
X125165463Y79337343D01*
X125165463Y79337343D02*
X124065520Y78237400D01*
%TO.N,Net-(J17-Pad4)*%
X128975463Y79216186D02*
X127996677Y78237400D01*
X128975463Y82946400D02*
X128975463Y79216186D01*
%TO.N,Net-(JP3-Pad2)*%
X93756000Y14408400D02*
X93756000Y18049400D01*
X93756000Y18049400D02*
X94234000Y18527400D01*
%TO.N,Net-(JP4-Pad2)*%
X13158000Y42921400D02*
X13188000Y42951400D01*
X10593000Y42921400D02*
X13158000Y42921400D01*
%TO.N,Net-(JP5-Pad2)*%
X10593000Y59431400D02*
X13158000Y59431400D01*
X13158000Y59431400D02*
X13188000Y59461400D01*
%TO.N,Net-(JP6-Pad2)*%
X81818000Y17795400D02*
X82550000Y18527400D01*
X81818000Y14408400D02*
X81818000Y17795400D01*
%TO.N,COLOR_OUT*%
X17701000Y21107400D02*
X18161000Y21567400D01*
X51689000Y24663400D02*
X49521000Y22495400D01*
X13144500Y21107400D02*
X17701000Y21107400D01*
X18512000Y21918400D02*
X18161000Y21567400D01*
X45220208Y22495400D02*
X44643208Y21918400D01*
X49521000Y22495400D02*
X45220208Y22495400D01*
X44643208Y21918400D02*
X18512000Y21918400D01*
%TO.N,NEXT_TURN_OUT*%
X53917000Y22045400D02*
X45406604Y22045400D01*
X29337000Y18880400D02*
X29766000Y19309400D01*
X54229000Y22357400D02*
X53917000Y22045400D01*
X54229000Y24663400D02*
X54229000Y22357400D01*
X32131000Y19309400D02*
X29766000Y19309400D01*
X29337000Y12641900D02*
X29337000Y18880400D01*
X34290000Y21468400D02*
X32131000Y19309400D01*
X45406604Y22045400D02*
X44829604Y21468400D01*
X44829604Y21468400D02*
X34290000Y21468400D01*
%TO.N,Net-(JP12-Pad2)*%
X10593000Y26919400D02*
X13158000Y26919400D01*
X13158000Y26919400D02*
X13188000Y26949400D01*
%TO.N,Net-(LED1-Pad1)*%
X24724000Y30739400D02*
X24511000Y30526400D01*
X29469000Y30739400D02*
X24724000Y30739400D01*
%TO.N,Net-(J11-Pad2)*%
X102588000Y10814400D02*
X102701000Y10927400D01*
X102588000Y4831400D02*
X102588000Y10814400D01*
%TO.N,Net-(JP13-Pad2)*%
X105059000Y18430400D02*
X105156000Y18527400D01*
X105059000Y14408400D02*
X105059000Y18430400D01*
%TO.N,Net-(JP14-Pad2)*%
X22225000Y27183400D02*
X22225000Y25639400D01*
X22225000Y27183400D02*
X23028000Y27986400D01*
X22225000Y25639400D02*
X24491000Y23373400D01*
X23028000Y27986400D02*
X24511000Y27986400D01*
%TO.N,Net-(J18-Pad1)*%
X21417992Y81840332D02*
X19878516Y80300856D01*
X21417992Y84716514D02*
X21417992Y81840332D01*
%TO.N,Net-(J18-Pad2)*%
X25227992Y81606635D02*
X23922213Y80300856D01*
X25227992Y84716514D02*
X25227992Y81606635D01*
%TO.N,Net-(J18-Pad3)*%
X29037992Y84716514D02*
X29037992Y81627434D01*
X29037992Y81627434D02*
X27711414Y80300856D01*
%TO.N,Net-(J18-Pad4)*%
X32847992Y81444059D02*
X31704789Y80300856D01*
X32847992Y84716514D02*
X32847992Y81444059D01*
%TO.N,Net-(J19-Pad1)*%
X101044463Y82946400D02*
X101044463Y79621896D01*
X101044463Y79621896D02*
X99659967Y78237400D01*
%TO.N,Net-(J19-Pad2)*%
X104854463Y79647502D02*
X103444361Y78237400D01*
X104854463Y82946400D02*
X104854463Y79647502D01*
%TO.N,Net-(J19-Pad3)*%
X108664463Y82946400D02*
X108664463Y79609400D01*
X108664463Y79609400D02*
X107292463Y78237400D01*
%TO.N,Net-(J19-Pad4)*%
X112474463Y79597252D02*
X111114611Y78237400D01*
X112474463Y82946400D02*
X112474463Y79597252D01*
%TO.N,Net-(C11-Pad1)*%
X109228000Y43493400D02*
X109228000Y44334094D01*
X111802522Y46209212D02*
X111802522Y47103012D01*
X110341118Y45447212D02*
X111040522Y45447212D01*
X111040522Y45447212D02*
X111802522Y46209212D01*
X111802522Y47103012D02*
X113702722Y49003212D01*
X109228000Y44334094D02*
X110341118Y45447212D01*
%TO.N,Net-(J20-Pad2)*%
X35729000Y5282400D02*
X35278000Y4831400D01*
X35729000Y10927400D02*
X35729000Y5282400D01*
%TO.N,Net-(C23-Pad1)*%
X75250482Y45770300D02*
X75250482Y47680100D01*
X73283682Y43803500D02*
X75250482Y45770300D01*
X75250482Y47680100D02*
X76134682Y48564300D01*
X73283682Y42731400D02*
X73283682Y43803500D01*
%TO.N,Net-(C39-Pad2)*%
X65814000Y13975400D02*
X67837000Y13975400D01*
X68312000Y10927400D02*
X68312000Y14366400D01*
X68270000Y18666400D02*
X68913000Y19309400D01*
X68312000Y14366400D02*
X68270000Y14408400D01*
X67837000Y13975400D02*
X68270000Y14408400D01*
X68270000Y14408400D02*
X68270000Y18666400D01*
%TO.N,Net-(J21-Pad2)*%
X47413000Y5790400D02*
X47413000Y10927400D01*
X46454000Y4831400D02*
X47413000Y5790400D01*
%TO.N,Net-(J22-Pad2)*%
X68834000Y4831400D02*
X69412000Y5409400D01*
X69412000Y5409400D02*
X69412000Y10927400D01*
%TO.N,Net-(J23-Pad2)*%
X58998000Y6151400D02*
X58998000Y10927400D01*
X57678000Y4831400D02*
X58998000Y6151400D01*
%TO.N,Net-(C40-Pad2)*%
X57447000Y18864400D02*
X57892000Y19309400D01*
X57447000Y14408400D02*
X57447000Y18864400D01*
X57898000Y10927400D02*
X57898000Y13957400D01*
X57898000Y13957400D02*
X57447000Y14408400D01*
X57014000Y13975400D02*
X57447000Y14408400D01*
X54991000Y13975400D02*
X57014000Y13975400D01*
%TO.N,Net-(JP7-Pad2)*%
X15083000Y11933400D02*
X15601000Y12451400D01*
X13387000Y11933400D02*
X15083000Y11933400D01*
%TO.N,Net-(JP8-Pad2)*%
X115628000Y17541400D02*
X116614000Y18527400D01*
X115628000Y14408400D02*
X115628000Y17541400D01*
%TO.N,Net-(JP15-Pad2)*%
X37719000Y82047400D02*
X40090634Y82047400D01*
X36398166Y79436566D02*
X36398166Y81140976D01*
X40090634Y82047400D02*
X40643967Y81494067D01*
X36398166Y79436566D02*
X31135000Y74173400D01*
X36812576Y81140976D02*
X37719000Y82047400D01*
X36398166Y81140976D02*
X36812576Y81140976D01*
%TO.N,Net-(JP16-Pad2)*%
X94881700Y76238100D02*
X94869000Y76225400D01*
X94881700Y82326800D02*
X94881700Y76238100D01*
X92390463Y81908712D02*
X94463612Y81908712D01*
X94463612Y81908712D02*
X94881700Y82326800D01*
%TO.N,Net-(JP17-Pad2)*%
X38227000Y17257400D02*
X38227000Y15648400D01*
X38227000Y15648400D02*
X36987000Y14408400D01*
%TO.N,Net-(JP18-Pad2)*%
X48572000Y16680400D02*
X49403000Y17511400D01*
X48572000Y14408400D02*
X48572000Y16680400D01*
%TO.N,Net-(JP19-Pad2)*%
X70670000Y14408400D02*
X70670000Y17950400D01*
X70670000Y17950400D02*
X71247000Y18527400D01*
%TO.N,Net-(JP20-Pad2)*%
X59847000Y16525400D02*
X60579000Y17257400D01*
X59847000Y14408400D02*
X59847000Y16525400D01*
%TO.N,Net-(R29-Pad1)*%
X10880000Y12683400D02*
X8458200Y15105200D01*
X8458200Y15105200D02*
X8458200Y16789400D01*
X11430000Y12683400D02*
X10880000Y12683400D01*
%TO.N,Net-(R44-Pad1)*%
X4878000Y27161400D02*
X4826000Y27109400D01*
X8636000Y27161400D02*
X4878000Y27161400D01*
%TO.N,XY_MS2*%
X60853000Y30739400D02*
X64389000Y27203400D01*
X70053200Y27203400D02*
X64389000Y27203400D01*
X73283733Y35814667D02*
X73533000Y35565400D01*
X52391551Y37147500D02*
X52391551Y31713249D01*
X73533000Y30683200D02*
X70053200Y27203400D01*
X53365400Y30739400D02*
X60853000Y30739400D01*
X73283733Y36821600D02*
X73283733Y35814667D01*
X73533000Y35565400D02*
X73533000Y30683200D01*
X52391551Y31713249D02*
X53365400Y30739400D01*
%TO.N,XY_MS1*%
X51741540Y31423460D02*
X52933600Y30231400D01*
X72633722Y35577074D02*
X72633722Y36821600D01*
X73025000Y31064200D02*
X73025000Y35185796D01*
X52933600Y30231400D02*
X58821000Y30231400D01*
X73025000Y35185796D02*
X72633722Y35577074D01*
X66167000Y28778200D02*
X70739000Y28778200D01*
X51741540Y37147500D02*
X51741540Y31423460D01*
X58821000Y30231400D02*
X61849000Y27203400D01*
X70739000Y28778200D02*
X73025000Y31064200D01*
X66116200Y28829000D02*
X66167000Y28778200D01*
%TO.N,XY_MS0*%
X57023000Y29489400D02*
X59309000Y27203400D01*
X72517000Y31419800D02*
X72517000Y35057400D01*
X70993000Y29895800D02*
X72517000Y31419800D01*
X51091528Y31184472D02*
X52552600Y29723400D01*
X56769000Y29723400D02*
X57003000Y29489400D01*
X51091528Y37147500D02*
X51091528Y31184472D01*
X52552600Y29723400D02*
X56769000Y29723400D01*
X64897000Y29895800D02*
X70993000Y29895800D01*
X71983710Y35590690D02*
X71983710Y36821600D01*
X57003000Y29489400D02*
X57023000Y29489400D01*
X72517000Y35057400D02*
X71983710Y35590690D01*
%TO.N,Z_MS2*%
X115305000Y36443400D02*
X113157000Y34295400D01*
X113715800Y55194200D02*
X115305000Y53605000D01*
X113157000Y34295400D02*
X109855000Y34295400D01*
X115305000Y53605000D02*
X115305000Y36443400D01*
X109855000Y34295400D02*
X109228051Y34922349D01*
X109228051Y34922349D02*
X109228051Y37583600D01*
%TO.N,Z_MS1*%
X108578040Y34935964D02*
X109668604Y33845400D01*
X108578040Y35940694D02*
X108578040Y34935964D01*
X115755000Y36257004D02*
X115755000Y55123400D01*
X109668604Y33845400D02*
X113343396Y33845400D01*
X113343396Y33845400D02*
X115755000Y36257004D01*
X108578040Y37583600D02*
X108578040Y35940694D01*
%TO.N,Z_MS0*%
X118389400Y55168800D02*
X116205000Y52984400D01*
X116205000Y35565400D02*
X113919000Y33279400D01*
X113919000Y33279400D02*
X109598208Y33279400D01*
X116205000Y52984400D02*
X116205000Y35565400D01*
X109598208Y33279400D02*
X107928028Y34949580D01*
X107928028Y34949580D02*
X107928028Y37583600D01*
%TO.N,Net-(J16-Pad1)*%
X4675788Y83799017D02*
X5504400Y84627629D01*
X4640753Y81129468D02*
X3812141Y80300856D01*
X4640753Y84716514D02*
X4640753Y81129468D01*
%TO.N,Net-(J16-Pad2)*%
X8459400Y83772629D02*
X9314400Y84627629D01*
X8450753Y84716514D02*
X8450753Y81155856D01*
X8450753Y81155856D02*
X7595753Y80300856D01*
%TO.N,Net-(J16-Pad3)*%
X12260753Y84716514D02*
X12260753Y80963384D01*
X12260753Y80963384D02*
X11598225Y80300856D01*
%TO.N,Net-(J16-Pad4)*%
X16070753Y84716514D02*
X16070753Y80799705D01*
X16070753Y80799705D02*
X15571904Y80300856D01*
%TD*%
M02*
