%TF.GenerationSoftware,KiCad,Pcbnew,(6.0.9)*%
%TF.CreationDate,2022-11-21T22:39:26-05:00*%
%TF.ProjectId,Sensor_Board_2x8,53656e73-6f72-45f4-926f-6172645f3278,rev?*%
%TF.SameCoordinates,PX1728520PY19b87b58*%
%TF.FileFunction,Legend,Top*%
%TF.FilePolarity,Positive*%
%FSLAX46Y46*%
G04 Gerber Fmt 4.6, Leading zero omitted, Abs format (unit mm)*
G04 Created by KiCad (PCBNEW (6.0.9)) date 2022-11-21 22:39:26*
%MOMM*%
%LPD*%
G01*
G04 APERTURE LIST*
%TA.AperFunction,Profile*%
%ADD10C,0.200000*%
%TD*%
%ADD11C,0.150000*%
%ADD12C,0.254000*%
%ADD13C,0.100000*%
G04 APERTURE END LIST*
D10*
X0Y0D02*
X95260000Y0D01*
X95260000Y0D02*
X95260000Y406400000D01*
X95260000Y406400000D02*
X0Y406400000D01*
X0Y406400000D02*
X0Y0D01*
D11*
%TO.C,*%
%TO.C,REF\u002A\u002A*%
X85426666Y403197620D02*
X85093333Y403673810D01*
X84855238Y403197620D02*
X84855238Y404197620D01*
X85236190Y404197620D01*
X85331428Y404150000D01*
X85379047Y404102381D01*
X85426666Y404007143D01*
X85426666Y403864286D01*
X85379047Y403769048D01*
X85331428Y403721429D01*
X85236190Y403673810D01*
X84855238Y403673810D01*
X85855238Y403721429D02*
X86188571Y403721429D01*
X86331428Y403197620D02*
X85855238Y403197620D01*
X85855238Y404197620D01*
X86331428Y404197620D01*
X87093333Y403721429D02*
X86760000Y403721429D01*
X86760000Y403197620D02*
X86760000Y404197620D01*
X87236190Y404197620D01*
X87760000Y404197620D02*
X87760000Y403959524D01*
X87521904Y404054762D02*
X87760000Y403959524D01*
X87998095Y404054762D01*
X87617142Y403769048D02*
X87760000Y403959524D01*
X87902857Y403769048D01*
X88521904Y404197620D02*
X88521904Y403959524D01*
X88283809Y404054762D02*
X88521904Y403959524D01*
X88760000Y404054762D01*
X88379047Y403769048D02*
X88521904Y403959524D01*
X88664761Y403769048D01*
X7166666Y403197620D02*
X6833333Y403673810D01*
X6595238Y403197620D02*
X6595238Y404197620D01*
X6976190Y404197620D01*
X7071428Y404150000D01*
X7119047Y404102381D01*
X7166666Y404007143D01*
X7166666Y403864286D01*
X7119047Y403769048D01*
X7071428Y403721429D01*
X6976190Y403673810D01*
X6595238Y403673810D01*
X7595238Y403721429D02*
X7928571Y403721429D01*
X8071428Y403197620D02*
X7595238Y403197620D01*
X7595238Y404197620D01*
X8071428Y404197620D01*
X8833333Y403721429D02*
X8500000Y403721429D01*
X8500000Y403197620D02*
X8500000Y404197620D01*
X8976190Y404197620D01*
X9500000Y404197620D02*
X9500000Y403959524D01*
X9261904Y404054762D02*
X9500000Y403959524D01*
X9738095Y404054762D01*
X9357142Y403769048D02*
X9500000Y403959524D01*
X9642857Y403769048D01*
X10261904Y404197620D02*
X10261904Y403959524D01*
X10023809Y404054762D02*
X10261904Y403959524D01*
X10500000Y404054762D01*
X10119047Y403769048D02*
X10261904Y403959524D01*
X10404761Y403769048D01*
X7166666Y13797620D02*
X6833333Y14273810D01*
X6595238Y13797620D02*
X6595238Y14797620D01*
X6976190Y14797620D01*
X7071428Y14750000D01*
X7119047Y14702381D01*
X7166666Y14607143D01*
X7166666Y14464286D01*
X7119047Y14369048D01*
X7071428Y14321429D01*
X6976190Y14273810D01*
X6595238Y14273810D01*
X7595238Y14321429D02*
X7928571Y14321429D01*
X8071428Y13797620D02*
X7595238Y13797620D01*
X7595238Y14797620D01*
X8071428Y14797620D01*
X8833333Y14321429D02*
X8500000Y14321429D01*
X8500000Y13797620D02*
X8500000Y14797620D01*
X8976190Y14797620D01*
X9500000Y14797620D02*
X9500000Y14559524D01*
X9261904Y14654762D02*
X9500000Y14559524D01*
X9738095Y14654762D01*
X9357142Y14369048D02*
X9500000Y14559524D01*
X9642857Y14369048D01*
X10261904Y14797620D02*
X10261904Y14559524D01*
X10023809Y14654762D02*
X10261904Y14559524D01*
X10500000Y14654762D01*
X10119047Y14369048D02*
X10261904Y14559524D01*
X10404761Y14369048D01*
D12*
%TO.C,J15*%
X83114123Y180059393D02*
X84021266Y180059393D01*
X84202695Y179998917D01*
X84323647Y179877965D01*
X84384123Y179696536D01*
X84384123Y179575584D01*
X84384123Y181329393D02*
X84384123Y180603679D01*
X84384123Y180966536D02*
X83114123Y180966536D01*
X83295552Y180845584D01*
X83416504Y180724631D01*
X83476980Y180603679D01*
X83114123Y182478441D02*
X83114123Y181873679D01*
X83718885Y181813203D01*
X83658409Y181873679D01*
X83597933Y181994631D01*
X83597933Y182297012D01*
X83658409Y182417965D01*
X83718885Y182478441D01*
X83839838Y182538917D01*
X84142219Y182538917D01*
X84263171Y182478441D01*
X84323647Y182417965D01*
X84384123Y182297012D01*
X84384123Y181994631D01*
X84323647Y181873679D01*
X84263171Y181813203D01*
%TO.C,J1*%
X10556723Y369908667D02*
X11463866Y369908667D01*
X11645295Y369848191D01*
X11766247Y369727239D01*
X11826723Y369545810D01*
X11826723Y369424858D01*
X11826723Y371178667D02*
X11826723Y370452953D01*
X11826723Y370815810D02*
X10556723Y370815810D01*
X10738152Y370694858D01*
X10859104Y370573905D01*
X10919580Y370452953D01*
D11*
%TO.C,S3*%
X20240295Y268284839D02*
X20383152Y268237220D01*
X20621247Y268237220D01*
X20716485Y268284839D01*
X20764104Y268332458D01*
X20811723Y268427696D01*
X20811723Y268522934D01*
X20764104Y268618172D01*
X20716485Y268665791D01*
X20621247Y268713410D01*
X20430771Y268761029D01*
X20335533Y268808648D01*
X20287914Y268856267D01*
X20240295Y268951505D01*
X20240295Y269046743D01*
X20287914Y269141981D01*
X20335533Y269189600D01*
X20430771Y269237220D01*
X20668866Y269237220D01*
X20811723Y269189600D01*
X21145057Y269237220D02*
X21764104Y269237220D01*
X21430771Y268856267D01*
X21573628Y268856267D01*
X21668866Y268808648D01*
X21716485Y268761029D01*
X21764104Y268665791D01*
X21764104Y268427696D01*
X21716485Y268332458D01*
X21668866Y268284839D01*
X21573628Y268237220D01*
X21287914Y268237220D01*
X21192676Y268284839D01*
X21145057Y268332458D01*
%TO.C,S15*%
X67394104Y77764839D02*
X67536961Y77717220D01*
X67775057Y77717220D01*
X67870295Y77764839D01*
X67917914Y77812458D01*
X67965533Y77907696D01*
X67965533Y78002934D01*
X67917914Y78098172D01*
X67870295Y78145791D01*
X67775057Y78193410D01*
X67584580Y78241029D01*
X67489342Y78288648D01*
X67441723Y78336267D01*
X67394104Y78431505D01*
X67394104Y78526743D01*
X67441723Y78621981D01*
X67489342Y78669600D01*
X67584580Y78717220D01*
X67822676Y78717220D01*
X67965533Y78669600D01*
X68917914Y77717220D02*
X68346485Y77717220D01*
X68632200Y77717220D02*
X68632200Y78717220D01*
X68536961Y78574362D01*
X68441723Y78479124D01*
X68346485Y78431505D01*
X69822676Y78717220D02*
X69346485Y78717220D01*
X69298866Y78241029D01*
X69346485Y78288648D01*
X69441723Y78336267D01*
X69679819Y78336267D01*
X69775057Y78288648D01*
X69822676Y78241029D01*
X69870295Y78145791D01*
X69870295Y77907696D01*
X69822676Y77812458D01*
X69775057Y77764839D01*
X69679819Y77717220D01*
X69441723Y77717220D01*
X69346485Y77764839D01*
X69298866Y77812458D01*
%TO.C,S10*%
X67394104Y315914839D02*
X67536961Y315867220D01*
X67775057Y315867220D01*
X67870295Y315914839D01*
X67917914Y315962458D01*
X67965533Y316057696D01*
X67965533Y316152934D01*
X67917914Y316248172D01*
X67870295Y316295791D01*
X67775057Y316343410D01*
X67584580Y316391029D01*
X67489342Y316438648D01*
X67441723Y316486267D01*
X67394104Y316581505D01*
X67394104Y316676743D01*
X67441723Y316771981D01*
X67489342Y316819600D01*
X67584580Y316867220D01*
X67822676Y316867220D01*
X67965533Y316819600D01*
X68917914Y315867220D02*
X68346485Y315867220D01*
X68632200Y315867220D02*
X68632200Y316867220D01*
X68536961Y316724362D01*
X68441723Y316629124D01*
X68346485Y316581505D01*
X69536961Y316867220D02*
X69632200Y316867220D01*
X69727438Y316819600D01*
X69775057Y316771981D01*
X69822676Y316676743D01*
X69870295Y316486267D01*
X69870295Y316248172D01*
X69822676Y316057696D01*
X69775057Y315962458D01*
X69727438Y315914839D01*
X69632200Y315867220D01*
X69536961Y315867220D01*
X69441723Y315914839D01*
X69394104Y315962458D01*
X69346485Y316057696D01*
X69298866Y316248172D01*
X69298866Y316486267D01*
X69346485Y316676743D01*
X69394104Y316771981D01*
X69441723Y316819600D01*
X69536961Y316867220D01*
%TO.C,S8*%
X20240295Y30134839D02*
X20383152Y30087220D01*
X20621247Y30087220D01*
X20716485Y30134839D01*
X20764104Y30182458D01*
X20811723Y30277696D01*
X20811723Y30372934D01*
X20764104Y30468172D01*
X20716485Y30515791D01*
X20621247Y30563410D01*
X20430771Y30611029D01*
X20335533Y30658648D01*
X20287914Y30706267D01*
X20240295Y30801505D01*
X20240295Y30896743D01*
X20287914Y30991981D01*
X20335533Y31039600D01*
X20430771Y31087220D01*
X20668866Y31087220D01*
X20811723Y31039600D01*
X21383152Y30658648D02*
X21287914Y30706267D01*
X21240295Y30753886D01*
X21192676Y30849124D01*
X21192676Y30896743D01*
X21240295Y30991981D01*
X21287914Y31039600D01*
X21383152Y31087220D01*
X21573628Y31087220D01*
X21668866Y31039600D01*
X21716485Y30991981D01*
X21764104Y30896743D01*
X21764104Y30849124D01*
X21716485Y30753886D01*
X21668866Y30706267D01*
X21573628Y30658648D01*
X21383152Y30658648D01*
X21287914Y30611029D01*
X21240295Y30563410D01*
X21192676Y30468172D01*
X21192676Y30277696D01*
X21240295Y30182458D01*
X21287914Y30134839D01*
X21383152Y30087220D01*
X21573628Y30087220D01*
X21668866Y30134839D01*
X21716485Y30182458D01*
X21764104Y30277696D01*
X21764104Y30468172D01*
X21716485Y30563410D01*
X21668866Y30611029D01*
X21573628Y30658648D01*
D12*
%TO.C,J13*%
X83114123Y274757849D02*
X84021266Y274757849D01*
X84202695Y274697373D01*
X84323647Y274576421D01*
X84384123Y274394992D01*
X84384123Y274274040D01*
X84384123Y276027849D02*
X84384123Y275302135D01*
X84384123Y275664992D02*
X83114123Y275664992D01*
X83295552Y275544040D01*
X83416504Y275423087D01*
X83476980Y275302135D01*
X83114123Y276451183D02*
X83114123Y277237373D01*
X83597933Y276814040D01*
X83597933Y276995468D01*
X83658409Y277116421D01*
X83718885Y277176897D01*
X83839838Y277237373D01*
X84142219Y277237373D01*
X84263171Y277176897D01*
X84323647Y277116421D01*
X84384123Y276995468D01*
X84384123Y276632611D01*
X84323647Y276511659D01*
X84263171Y276451183D01*
%TO.C,J18*%
X83114123Y38011705D02*
X84021266Y38011705D01*
X84202695Y37951229D01*
X84323647Y37830277D01*
X84384123Y37648848D01*
X84384123Y37527896D01*
X84384123Y39281705D02*
X84384123Y38555991D01*
X84384123Y38918848D02*
X83114123Y38918848D01*
X83295552Y38797896D01*
X83416504Y38676943D01*
X83476980Y38555991D01*
X83658409Y40007420D02*
X83597933Y39886467D01*
X83537457Y39825991D01*
X83416504Y39765515D01*
X83356028Y39765515D01*
X83235076Y39825991D01*
X83174600Y39886467D01*
X83114123Y40007420D01*
X83114123Y40249324D01*
X83174600Y40370277D01*
X83235076Y40430753D01*
X83356028Y40491229D01*
X83416504Y40491229D01*
X83537457Y40430753D01*
X83597933Y40370277D01*
X83658409Y40249324D01*
X83658409Y40007420D01*
X83718885Y39886467D01*
X83779361Y39825991D01*
X83900314Y39765515D01*
X84142219Y39765515D01*
X84263171Y39825991D01*
X84323647Y39886467D01*
X84384123Y40007420D01*
X84384123Y40249324D01*
X84323647Y40370277D01*
X84263171Y40430753D01*
X84142219Y40491229D01*
X83900314Y40491229D01*
X83779361Y40430753D01*
X83718885Y40370277D01*
X83658409Y40249324D01*
%TO.C,J11*%
X83114123Y369456305D02*
X84021266Y369456305D01*
X84202695Y369395829D01*
X84323647Y369274877D01*
X84384123Y369093448D01*
X84384123Y368972496D01*
X84384123Y370726305D02*
X84384123Y370000591D01*
X84384123Y370363448D02*
X83114123Y370363448D01*
X83295552Y370242496D01*
X83416504Y370121543D01*
X83476980Y370000591D01*
X84384123Y371935829D02*
X84384123Y371210115D01*
X84384123Y371572972D02*
X83114123Y371572972D01*
X83295552Y371452020D01*
X83416504Y371331067D01*
X83476980Y371210115D01*
D11*
%TO.C,S14*%
X67394104Y125394839D02*
X67536961Y125347220D01*
X67775057Y125347220D01*
X67870295Y125394839D01*
X67917914Y125442458D01*
X67965533Y125537696D01*
X67965533Y125632934D01*
X67917914Y125728172D01*
X67870295Y125775791D01*
X67775057Y125823410D01*
X67584580Y125871029D01*
X67489342Y125918648D01*
X67441723Y125966267D01*
X67394104Y126061505D01*
X67394104Y126156743D01*
X67441723Y126251981D01*
X67489342Y126299600D01*
X67584580Y126347220D01*
X67822676Y126347220D01*
X67965533Y126299600D01*
X68917914Y125347220D02*
X68346485Y125347220D01*
X68632200Y125347220D02*
X68632200Y126347220D01*
X68536961Y126204362D01*
X68441723Y126109124D01*
X68346485Y126061505D01*
X69775057Y126013886D02*
X69775057Y125347220D01*
X69536961Y126394839D02*
X69298866Y125680553D01*
X69917914Y125680553D01*
%TO.C,S2*%
X20240295Y315914839D02*
X20383152Y315867220D01*
X20621247Y315867220D01*
X20716485Y315914839D01*
X20764104Y315962458D01*
X20811723Y316057696D01*
X20811723Y316152934D01*
X20764104Y316248172D01*
X20716485Y316295791D01*
X20621247Y316343410D01*
X20430771Y316391029D01*
X20335533Y316438648D01*
X20287914Y316486267D01*
X20240295Y316581505D01*
X20240295Y316676743D01*
X20287914Y316771981D01*
X20335533Y316819600D01*
X20430771Y316867220D01*
X20668866Y316867220D01*
X20811723Y316819600D01*
X21192676Y316771981D02*
X21240295Y316819600D01*
X21335533Y316867220D01*
X21573628Y316867220D01*
X21668866Y316819600D01*
X21716485Y316771981D01*
X21764104Y316676743D01*
X21764104Y316581505D01*
X21716485Y316438648D01*
X21145057Y315867220D01*
X21764104Y315867220D01*
D12*
%TO.C,J5*%
X10556723Y180511755D02*
X11463866Y180511755D01*
X11645295Y180451279D01*
X11766247Y180330327D01*
X11826723Y180148898D01*
X11826723Y180027946D01*
X10556723Y181721279D02*
X10556723Y181116517D01*
X11161485Y181056041D01*
X11101009Y181116517D01*
X11040533Y181237469D01*
X11040533Y181539850D01*
X11101009Y181660803D01*
X11161485Y181721279D01*
X11282438Y181781755D01*
X11584819Y181781755D01*
X11705771Y181721279D01*
X11766247Y181660803D01*
X11826723Y181539850D01*
X11826723Y181237469D01*
X11766247Y181116517D01*
X11705771Y181056041D01*
%TO.C,J17*%
X83114123Y85360937D02*
X84021266Y85360937D01*
X84202695Y85300461D01*
X84323647Y85179509D01*
X84384123Y84998080D01*
X84384123Y84877128D01*
X84384123Y86630937D02*
X84384123Y85905223D01*
X84384123Y86268080D02*
X83114123Y86268080D01*
X83295552Y86147128D01*
X83416504Y86026175D01*
X83476980Y85905223D01*
X83114123Y87054271D02*
X83114123Y87900937D01*
X84384123Y87356652D01*
D11*
%TO.C,S5*%
X20240295Y173024839D02*
X20383152Y172977220D01*
X20621247Y172977220D01*
X20716485Y173024839D01*
X20764104Y173072458D01*
X20811723Y173167696D01*
X20811723Y173262934D01*
X20764104Y173358172D01*
X20716485Y173405791D01*
X20621247Y173453410D01*
X20430771Y173501029D01*
X20335533Y173548648D01*
X20287914Y173596267D01*
X20240295Y173691505D01*
X20240295Y173786743D01*
X20287914Y173881981D01*
X20335533Y173929600D01*
X20430771Y173977220D01*
X20668866Y173977220D01*
X20811723Y173929600D01*
X21716485Y173977220D02*
X21240295Y173977220D01*
X21192676Y173501029D01*
X21240295Y173548648D01*
X21335533Y173596267D01*
X21573628Y173596267D01*
X21668866Y173548648D01*
X21716485Y173501029D01*
X21764104Y173405791D01*
X21764104Y173167696D01*
X21716485Y173072458D01*
X21668866Y173024839D01*
X21573628Y172977220D01*
X21335533Y172977220D01*
X21240295Y173024839D01*
X21192676Y173072458D01*
D12*
%TO.C,J8*%
X10556723Y38464067D02*
X11463866Y38464067D01*
X11645295Y38403591D01*
X11766247Y38282639D01*
X11826723Y38101210D01*
X11826723Y37980258D01*
X11101009Y39250258D02*
X11040533Y39129305D01*
X10980057Y39068829D01*
X10859104Y39008353D01*
X10798628Y39008353D01*
X10677676Y39068829D01*
X10617200Y39129305D01*
X10556723Y39250258D01*
X10556723Y39492162D01*
X10617200Y39613115D01*
X10677676Y39673591D01*
X10798628Y39734067D01*
X10859104Y39734067D01*
X10980057Y39673591D01*
X11040533Y39613115D01*
X11101009Y39492162D01*
X11101009Y39250258D01*
X11161485Y39129305D01*
X11221961Y39068829D01*
X11342914Y39008353D01*
X11584819Y39008353D01*
X11705771Y39068829D01*
X11766247Y39129305D01*
X11826723Y39250258D01*
X11826723Y39492162D01*
X11766247Y39613115D01*
X11705771Y39673591D01*
X11584819Y39734067D01*
X11342914Y39734067D01*
X11221961Y39673591D01*
X11161485Y39613115D01*
X11101009Y39492162D01*
D11*
%TO.C,S11*%
X67394104Y268284839D02*
X67536961Y268237220D01*
X67775057Y268237220D01*
X67870295Y268284839D01*
X67917914Y268332458D01*
X67965533Y268427696D01*
X67965533Y268522934D01*
X67917914Y268618172D01*
X67870295Y268665791D01*
X67775057Y268713410D01*
X67584580Y268761029D01*
X67489342Y268808648D01*
X67441723Y268856267D01*
X67394104Y268951505D01*
X67394104Y269046743D01*
X67441723Y269141981D01*
X67489342Y269189600D01*
X67584580Y269237220D01*
X67822676Y269237220D01*
X67965533Y269189600D01*
X68917914Y268237220D02*
X68346485Y268237220D01*
X68632200Y268237220D02*
X68632200Y269237220D01*
X68536961Y269094362D01*
X68441723Y268999124D01*
X68346485Y268951505D01*
X69870295Y268237220D02*
X69298866Y268237220D01*
X69584580Y268237220D02*
X69584580Y269237220D01*
X69489342Y269094362D01*
X69394104Y268999124D01*
X69298866Y268951505D01*
%TO.C,S4*%
X20240295Y220654839D02*
X20383152Y220607220D01*
X20621247Y220607220D01*
X20716485Y220654839D01*
X20764104Y220702458D01*
X20811723Y220797696D01*
X20811723Y220892934D01*
X20764104Y220988172D01*
X20716485Y221035791D01*
X20621247Y221083410D01*
X20430771Y221131029D01*
X20335533Y221178648D01*
X20287914Y221226267D01*
X20240295Y221321505D01*
X20240295Y221416743D01*
X20287914Y221511981D01*
X20335533Y221559600D01*
X20430771Y221607220D01*
X20668866Y221607220D01*
X20811723Y221559600D01*
X21668866Y221273886D02*
X21668866Y220607220D01*
X21430771Y221654839D02*
X21192676Y220940553D01*
X21811723Y220940553D01*
D12*
%TO.C,J10*%
X64277704Y12125477D02*
X64277704Y11218334D01*
X64217228Y11036905D01*
X64096276Y10915953D01*
X63914847Y10855477D01*
X63793895Y10855477D01*
X65547704Y10855477D02*
X64821990Y10855477D01*
X65184847Y10855477D02*
X65184847Y12125477D01*
X65063895Y11944048D01*
X64942942Y11823096D01*
X64821990Y11762620D01*
X66333895Y12125477D02*
X66454847Y12125477D01*
X66575800Y12065000D01*
X66636276Y12004524D01*
X66696752Y11883572D01*
X66757228Y11641667D01*
X66757228Y11339286D01*
X66696752Y11097381D01*
X66636276Y10976429D01*
X66575800Y10915953D01*
X66454847Y10855477D01*
X66333895Y10855477D01*
X66212942Y10915953D01*
X66152466Y10976429D01*
X66091990Y11097381D01*
X66031514Y11339286D01*
X66031514Y11641667D01*
X66091990Y11883572D01*
X66152466Y12004524D01*
X66212942Y12065000D01*
X66333895Y12125477D01*
%TO.C,J3*%
X10556723Y275210211D02*
X11463866Y275210211D01*
X11645295Y275149735D01*
X11766247Y275028783D01*
X11826723Y274847354D01*
X11826723Y274726402D01*
X10556723Y275694021D02*
X10556723Y276480211D01*
X11040533Y276056878D01*
X11040533Y276238306D01*
X11101009Y276359259D01*
X11161485Y276419735D01*
X11282438Y276480211D01*
X11584819Y276480211D01*
X11705771Y276419735D01*
X11766247Y276359259D01*
X11826723Y276238306D01*
X11826723Y275875449D01*
X11766247Y275754497D01*
X11705771Y275694021D01*
%TO.C,J7*%
X10556723Y85813299D02*
X11463866Y85813299D01*
X11645295Y85752823D01*
X11766247Y85631871D01*
X11826723Y85450442D01*
X11826723Y85329490D01*
X10556723Y86297109D02*
X10556723Y87143775D01*
X11826723Y86599490D01*
%TO.C,J16*%
X83114123Y132710165D02*
X84021266Y132710165D01*
X84202695Y132649689D01*
X84323647Y132528737D01*
X84384123Y132347308D01*
X84384123Y132226356D01*
X84384123Y133980165D02*
X84384123Y133254451D01*
X84384123Y133617308D02*
X83114123Y133617308D01*
X83295552Y133496356D01*
X83416504Y133375403D01*
X83476980Y133254451D01*
X83114123Y135068737D02*
X83114123Y134826832D01*
X83174600Y134705880D01*
X83235076Y134645403D01*
X83416504Y134524451D01*
X83658409Y134463975D01*
X84142219Y134463975D01*
X84263171Y134524451D01*
X84323647Y134584927D01*
X84384123Y134705880D01*
X84384123Y134947784D01*
X84323647Y135068737D01*
X84263171Y135129213D01*
X84142219Y135189689D01*
X83839838Y135189689D01*
X83718885Y135129213D01*
X83658409Y135068737D01*
X83597933Y134947784D01*
X83597933Y134705880D01*
X83658409Y134584927D01*
X83718885Y134524451D01*
X83839838Y134463975D01*
%TO.C,J2*%
X10556723Y322559439D02*
X11463866Y322559439D01*
X11645295Y322498963D01*
X11766247Y322378011D01*
X11826723Y322196582D01*
X11826723Y322075630D01*
X10677676Y323103725D02*
X10617200Y323164201D01*
X10556723Y323285153D01*
X10556723Y323587534D01*
X10617200Y323708487D01*
X10677676Y323768963D01*
X10798628Y323829439D01*
X10919580Y323829439D01*
X11101009Y323768963D01*
X11826723Y323043249D01*
X11826723Y323829439D01*
D11*
%TO.C,S6*%
X20240295Y125394839D02*
X20383152Y125347220D01*
X20621247Y125347220D01*
X20716485Y125394839D01*
X20764104Y125442458D01*
X20811723Y125537696D01*
X20811723Y125632934D01*
X20764104Y125728172D01*
X20716485Y125775791D01*
X20621247Y125823410D01*
X20430771Y125871029D01*
X20335533Y125918648D01*
X20287914Y125966267D01*
X20240295Y126061505D01*
X20240295Y126156743D01*
X20287914Y126251981D01*
X20335533Y126299600D01*
X20430771Y126347220D01*
X20668866Y126347220D01*
X20811723Y126299600D01*
X21668866Y126347220D02*
X21478390Y126347220D01*
X21383152Y126299600D01*
X21335533Y126251981D01*
X21240295Y126109124D01*
X21192676Y125918648D01*
X21192676Y125537696D01*
X21240295Y125442458D01*
X21287914Y125394839D01*
X21383152Y125347220D01*
X21573628Y125347220D01*
X21668866Y125394839D01*
X21716485Y125442458D01*
X21764104Y125537696D01*
X21764104Y125775791D01*
X21716485Y125871029D01*
X21668866Y125918648D01*
X21573628Y125966267D01*
X21383152Y125966267D01*
X21287914Y125918648D01*
X21240295Y125871029D01*
X21192676Y125775791D01*
%TO.C,S1*%
X20240295Y363544839D02*
X20383152Y363497220D01*
X20621247Y363497220D01*
X20716485Y363544839D01*
X20764104Y363592458D01*
X20811723Y363687696D01*
X20811723Y363782934D01*
X20764104Y363878172D01*
X20716485Y363925791D01*
X20621247Y363973410D01*
X20430771Y364021029D01*
X20335533Y364068648D01*
X20287914Y364116267D01*
X20240295Y364211505D01*
X20240295Y364306743D01*
X20287914Y364401981D01*
X20335533Y364449600D01*
X20430771Y364497220D01*
X20668866Y364497220D01*
X20811723Y364449600D01*
X21764104Y363497220D02*
X21192676Y363497220D01*
X21478390Y363497220D02*
X21478390Y364497220D01*
X21383152Y364354362D01*
X21287914Y364259124D01*
X21192676Y364211505D01*
%TO.C,S9*%
X67870295Y363544839D02*
X68013152Y363497220D01*
X68251247Y363497220D01*
X68346485Y363544839D01*
X68394104Y363592458D01*
X68441723Y363687696D01*
X68441723Y363782934D01*
X68394104Y363878172D01*
X68346485Y363925791D01*
X68251247Y363973410D01*
X68060771Y364021029D01*
X67965533Y364068648D01*
X67917914Y364116267D01*
X67870295Y364211505D01*
X67870295Y364306743D01*
X67917914Y364401981D01*
X67965533Y364449600D01*
X68060771Y364497220D01*
X68298866Y364497220D01*
X68441723Y364449600D01*
X68917914Y363497220D02*
X69108390Y363497220D01*
X69203628Y363544839D01*
X69251247Y363592458D01*
X69346485Y363735315D01*
X69394104Y363925791D01*
X69394104Y364306743D01*
X69346485Y364401981D01*
X69298866Y364449600D01*
X69203628Y364497220D01*
X69013152Y364497220D01*
X68917914Y364449600D01*
X68870295Y364401981D01*
X68822676Y364306743D01*
X68822676Y364068648D01*
X68870295Y363973410D01*
X68917914Y363925791D01*
X69013152Y363878172D01*
X69203628Y363878172D01*
X69298866Y363925791D01*
X69346485Y363973410D01*
X69394104Y364068648D01*
D12*
%TO.C,J6*%
X10556723Y133162527D02*
X11463866Y133162527D01*
X11645295Y133102051D01*
X11766247Y132981099D01*
X11826723Y132799670D01*
X11826723Y132678718D01*
X10556723Y134311575D02*
X10556723Y134069670D01*
X10617200Y133948718D01*
X10677676Y133888241D01*
X10859104Y133767289D01*
X11101009Y133706813D01*
X11584819Y133706813D01*
X11705771Y133767289D01*
X11766247Y133827765D01*
X11826723Y133948718D01*
X11826723Y134190622D01*
X11766247Y134311575D01*
X11705771Y134372051D01*
X11584819Y134432527D01*
X11282438Y134432527D01*
X11161485Y134372051D01*
X11101009Y134311575D01*
X11040533Y134190622D01*
X11040533Y133948718D01*
X11101009Y133827765D01*
X11161485Y133767289D01*
X11282438Y133706813D01*
D11*
%TO.C,S7*%
X20240295Y77764839D02*
X20383152Y77717220D01*
X20621247Y77717220D01*
X20716485Y77764839D01*
X20764104Y77812458D01*
X20811723Y77907696D01*
X20811723Y78002934D01*
X20764104Y78098172D01*
X20716485Y78145791D01*
X20621247Y78193410D01*
X20430771Y78241029D01*
X20335533Y78288648D01*
X20287914Y78336267D01*
X20240295Y78431505D01*
X20240295Y78526743D01*
X20287914Y78621981D01*
X20335533Y78669600D01*
X20430771Y78717220D01*
X20668866Y78717220D01*
X20811723Y78669600D01*
X21145057Y78717220D02*
X21811723Y78717220D01*
X21383152Y77717220D01*
D12*
%TO.C,J9*%
X33033466Y11947677D02*
X33033466Y11040534D01*
X32972990Y10859105D01*
X32852038Y10738153D01*
X32670609Y10677677D01*
X32549657Y10677677D01*
X33698704Y10677677D02*
X33940609Y10677677D01*
X34061561Y10738153D01*
X34122038Y10798629D01*
X34242990Y10980058D01*
X34303466Y11221962D01*
X34303466Y11705772D01*
X34242990Y11826724D01*
X34182514Y11887200D01*
X34061561Y11947677D01*
X33819657Y11947677D01*
X33698704Y11887200D01*
X33638228Y11826724D01*
X33577752Y11705772D01*
X33577752Y11403391D01*
X33638228Y11282439D01*
X33698704Y11221962D01*
X33819657Y11161486D01*
X34061561Y11161486D01*
X34182514Y11221962D01*
X34242990Y11282439D01*
X34303466Y11403391D01*
%TO.C,J12*%
X83114123Y322107077D02*
X84021266Y322107077D01*
X84202695Y322046601D01*
X84323647Y321925649D01*
X84384123Y321744220D01*
X84384123Y321623268D01*
X84384123Y323377077D02*
X84384123Y322651363D01*
X84384123Y323014220D02*
X83114123Y323014220D01*
X83295552Y322893268D01*
X83416504Y322772315D01*
X83476980Y322651363D01*
X83235076Y323860887D02*
X83174600Y323921363D01*
X83114123Y324042315D01*
X83114123Y324344696D01*
X83174600Y324465649D01*
X83235076Y324526125D01*
X83356028Y324586601D01*
X83476980Y324586601D01*
X83658409Y324526125D01*
X84384123Y323800411D01*
X84384123Y324586601D01*
%TO.C,J14*%
X83114123Y227408621D02*
X84021266Y227408621D01*
X84202695Y227348145D01*
X84323647Y227227193D01*
X84384123Y227045764D01*
X84384123Y226924812D01*
X84384123Y228678621D02*
X84384123Y227952907D01*
X84384123Y228315764D02*
X83114123Y228315764D01*
X83295552Y228194812D01*
X83416504Y228073859D01*
X83476980Y227952907D01*
X83537457Y229767193D02*
X84384123Y229767193D01*
X83053647Y229464812D02*
X83960790Y229162431D01*
X83960790Y229948621D01*
D11*
%TO.C,S13*%
X67394104Y173024839D02*
X67536961Y172977220D01*
X67775057Y172977220D01*
X67870295Y173024839D01*
X67917914Y173072458D01*
X67965533Y173167696D01*
X67965533Y173262934D01*
X67917914Y173358172D01*
X67870295Y173405791D01*
X67775057Y173453410D01*
X67584580Y173501029D01*
X67489342Y173548648D01*
X67441723Y173596267D01*
X67394104Y173691505D01*
X67394104Y173786743D01*
X67441723Y173881981D01*
X67489342Y173929600D01*
X67584580Y173977220D01*
X67822676Y173977220D01*
X67965533Y173929600D01*
X68917914Y172977220D02*
X68346485Y172977220D01*
X68632200Y172977220D02*
X68632200Y173977220D01*
X68536961Y173834362D01*
X68441723Y173739124D01*
X68346485Y173691505D01*
X69251247Y173977220D02*
X69870295Y173977220D01*
X69536961Y173596267D01*
X69679819Y173596267D01*
X69775057Y173548648D01*
X69822676Y173501029D01*
X69870295Y173405791D01*
X69870295Y173167696D01*
X69822676Y173072458D01*
X69775057Y173024839D01*
X69679819Y172977220D01*
X69394104Y172977220D01*
X69298866Y173024839D01*
X69251247Y173072458D01*
%TO.C,S16*%
X67394104Y30134839D02*
X67536961Y30087220D01*
X67775057Y30087220D01*
X67870295Y30134839D01*
X67917914Y30182458D01*
X67965533Y30277696D01*
X67965533Y30372934D01*
X67917914Y30468172D01*
X67870295Y30515791D01*
X67775057Y30563410D01*
X67584580Y30611029D01*
X67489342Y30658648D01*
X67441723Y30706267D01*
X67394104Y30801505D01*
X67394104Y30896743D01*
X67441723Y30991981D01*
X67489342Y31039600D01*
X67584580Y31087220D01*
X67822676Y31087220D01*
X67965533Y31039600D01*
X68917914Y30087220D02*
X68346485Y30087220D01*
X68632200Y30087220D02*
X68632200Y31087220D01*
X68536961Y30944362D01*
X68441723Y30849124D01*
X68346485Y30801505D01*
X69775057Y31087220D02*
X69584580Y31087220D01*
X69489342Y31039600D01*
X69441723Y30991981D01*
X69346485Y30849124D01*
X69298866Y30658648D01*
X69298866Y30277696D01*
X69346485Y30182458D01*
X69394104Y30134839D01*
X69489342Y30087220D01*
X69679819Y30087220D01*
X69775057Y30134839D01*
X69822676Y30182458D01*
X69870295Y30277696D01*
X69870295Y30515791D01*
X69822676Y30611029D01*
X69775057Y30658648D01*
X69679819Y30706267D01*
X69489342Y30706267D01*
X69394104Y30658648D01*
X69346485Y30611029D01*
X69298866Y30515791D01*
D12*
%TO.C,J4*%
X10556723Y227860983D02*
X11463866Y227860983D01*
X11645295Y227800507D01*
X11766247Y227679555D01*
X11826723Y227498126D01*
X11826723Y227377174D01*
X10980057Y229010031D02*
X11826723Y229010031D01*
X10496247Y228707650D02*
X11403390Y228405269D01*
X11403390Y229191459D01*
D11*
%TO.C,S12*%
X67394104Y220654839D02*
X67536961Y220607220D01*
X67775057Y220607220D01*
X67870295Y220654839D01*
X67917914Y220702458D01*
X67965533Y220797696D01*
X67965533Y220892934D01*
X67917914Y220988172D01*
X67870295Y221035791D01*
X67775057Y221083410D01*
X67584580Y221131029D01*
X67489342Y221178648D01*
X67441723Y221226267D01*
X67394104Y221321505D01*
X67394104Y221416743D01*
X67441723Y221511981D01*
X67489342Y221559600D01*
X67584580Y221607220D01*
X67822676Y221607220D01*
X67965533Y221559600D01*
X68917914Y220607220D02*
X68346485Y220607220D01*
X68632200Y220607220D02*
X68632200Y221607220D01*
X68536961Y221464362D01*
X68441723Y221369124D01*
X68346485Y221321505D01*
X69298866Y221511981D02*
X69346485Y221559600D01*
X69441723Y221607220D01*
X69679819Y221607220D01*
X69775057Y221559600D01*
X69822676Y221511981D01*
X69870295Y221416743D01*
X69870295Y221321505D01*
X69822676Y221178648D01*
X69251247Y220607220D01*
X69870295Y220607220D01*
D13*
%TO.C,J15*%
X93442000Y185290088D02*
X93442000Y176890088D01*
X86242000Y176890088D02*
X86242000Y185290088D01*
X93442000Y176890088D02*
X86242000Y176890088D01*
X86242000Y185290088D02*
X93442000Y185290088D01*
%TO.C,J1*%
X1441800Y374687000D02*
X8641800Y374687000D01*
X8641800Y374687000D02*
X8641800Y366287000D01*
X1441800Y366287000D02*
X1441800Y374687000D01*
X8641800Y366287000D02*
X1441800Y366287000D01*
%TO.C,J13*%
X93442000Y279988544D02*
X93442000Y271588544D01*
X93442000Y271588544D02*
X86242000Y271588544D01*
X86242000Y271588544D02*
X86242000Y279988544D01*
X86242000Y279988544D02*
X93442000Y279988544D01*
%TO.C,J18*%
X93442000Y34842400D02*
X86242000Y34842400D01*
X86242000Y34842400D02*
X86242000Y43242400D01*
X86242000Y43242400D02*
X93442000Y43242400D01*
X93442000Y43242400D02*
X93442000Y34842400D01*
%TO.C,J11*%
X93442000Y366287000D02*
X86242000Y366287000D01*
X93442000Y374687000D02*
X93442000Y366287000D01*
X86242000Y366287000D02*
X86242000Y374687000D01*
X86242000Y374687000D02*
X93442000Y374687000D01*
%TO.C,J5*%
X1441800Y176890088D02*
X1441800Y185290088D01*
X8641800Y185290088D02*
X8641800Y176890088D01*
X8641800Y176890088D02*
X1441800Y176890088D01*
X1441800Y185290088D02*
X8641800Y185290088D01*
%TO.C,J17*%
X86242000Y82191632D02*
X86242000Y90591632D01*
X93442000Y90591632D02*
X93442000Y82191632D01*
X86242000Y90591632D02*
X93442000Y90591632D01*
X93442000Y82191632D02*
X86242000Y82191632D01*
%TO.C,J8*%
X8641800Y34842400D02*
X1441800Y34842400D01*
X1441800Y34842400D02*
X1441800Y43242400D01*
X8641800Y43242400D02*
X8641800Y34842400D01*
X1441800Y43242400D02*
X8641800Y43242400D01*
%TO.C,J10*%
X61103200Y1861000D02*
X61103200Y9061000D01*
X69503200Y1861000D02*
X61103200Y1861000D01*
X69503200Y9061000D02*
X69503200Y1861000D01*
X61103200Y9061000D02*
X69503200Y9061000D01*
%TO.C,J3*%
X8641800Y271588544D02*
X1441800Y271588544D01*
X1441800Y279988544D02*
X8641800Y279988544D01*
X1441800Y271588544D02*
X1441800Y279988544D01*
X8641800Y279988544D02*
X8641800Y271588544D01*
%TO.C,J7*%
X8641800Y90591632D02*
X8641800Y82191632D01*
X1441800Y82191632D02*
X1441800Y90591632D01*
X1441800Y90591632D02*
X8641800Y90591632D01*
X8641800Y82191632D02*
X1441800Y82191632D01*
%TO.C,J16*%
X93442000Y129540860D02*
X86242000Y129540860D01*
X86242000Y137940860D02*
X93442000Y137940860D01*
X93442000Y137940860D02*
X93442000Y129540860D01*
X86242000Y129540860D02*
X86242000Y137940860D01*
%TO.C,J2*%
X8641800Y327337772D02*
X8641800Y318937772D01*
X1441800Y318937772D02*
X1441800Y327337772D01*
X8641800Y318937772D02*
X1441800Y318937772D01*
X1441800Y327337772D02*
X8641800Y327337772D01*
%TO.C,J6*%
X1441800Y129540860D02*
X1441800Y137940860D01*
X8641800Y137940860D02*
X8641800Y129540860D01*
X8641800Y129540860D02*
X1441800Y129540860D01*
X1441800Y137940860D02*
X8641800Y137940860D01*
%TO.C,J9*%
X29256800Y9061000D02*
X37656800Y9061000D01*
X29256800Y1861000D02*
X29256800Y9061000D01*
X37656800Y9061000D02*
X37656800Y1861000D01*
X37656800Y1861000D02*
X29256800Y1861000D01*
%TO.C,J12*%
X86242000Y318937772D02*
X86242000Y327337772D01*
X93442000Y327337772D02*
X93442000Y318937772D01*
X86242000Y327337772D02*
X93442000Y327337772D01*
X93442000Y318937772D02*
X86242000Y318937772D01*
%TO.C,J14*%
X86242000Y232639316D02*
X93442000Y232639316D01*
X93442000Y224239316D02*
X86242000Y224239316D01*
X93442000Y232639316D02*
X93442000Y224239316D01*
X86242000Y224239316D02*
X86242000Y232639316D01*
%TO.C,J4*%
X1441800Y224239316D02*
X1441800Y232639316D01*
X1441800Y232639316D02*
X8641800Y232639316D01*
X8641800Y224239316D02*
X1441800Y224239316D01*
X8641800Y232639316D02*
X8641800Y224239316D01*
%TD*%
M02*
