%TF.GenerationSoftware,KiCad,Pcbnew,(6.0.9)*%
%TF.CreationDate,2022-11-21T22:39:26-05:00*%
%TF.ProjectId,Sensor_Board_2x8,53656e73-6f72-45f4-926f-6172645f3278,rev?*%
%TF.SameCoordinates,PX1728520PY19b87b58*%
%TF.FileFunction,Copper,L1,Top*%
%TF.FilePolarity,Positive*%
%FSLAX46Y46*%
G04 Gerber Fmt 4.6, Leading zero omitted, Abs format (unit mm)*
G04 Created by KiCad (PCBNEW (6.0.9)) date 2022-11-21 22:39:26*
%MOMM*%
%LPD*%
G01*
G04 APERTURE LIST*
%TA.AperFunction,Profile*%
%ADD10C,0.200000*%
%TD*%
%TA.AperFunction,ComponentPad*%
%ADD11C,9.500000*%
%TD*%
%TA.AperFunction,ComponentPad*%
%ADD12C,2.100000*%
%TD*%
%TA.AperFunction,Conductor*%
%ADD13C,0.762000*%
%TD*%
G04 APERTURE END LIST*
D10*
X0Y0D02*
X95260000Y0D01*
X95260000Y0D02*
X95260000Y406400000D01*
X95260000Y406400000D02*
X0Y406400000D01*
X0Y406400000D02*
X0Y0D01*
D11*
%TO.P,,1*%
%TO.N,N/C*%
X86760000Y8500000D03*
%TD*%
%TO.P,REF\u002A\u002A,1*%
%TO.N,N/C*%
X86760000Y397900000D03*
%TD*%
%TO.P,REF\u002A\u002A,1*%
%TO.N,N/C*%
X8500000Y397900000D03*
%TD*%
%TO.P,REF\u002A\u002A,1*%
%TO.N,N/C*%
X8500000Y8500000D03*
%TD*%
D12*
%TO.P,J15,1,1*%
%TO.N,Net-(J15-Pad1)*%
X89042000Y182840088D03*
%TO.P,J15,2,2*%
%TO.N,Net-(J15-Pad2)*%
X89042000Y179340088D03*
%TD*%
%TO.P,J1,1,1*%
%TO.N,Net-(J1-Pad1)*%
X4241800Y372237000D03*
%TO.P,J1,2,2*%
%TO.N,Net-(J1-Pad2)*%
X4241800Y368737000D03*
%TD*%
%TO.P,S3,1*%
%TO.N,Net-(J9-Pad1)*%
X35197600Y288092000D03*
%TO.P,S3,2*%
%TO.N,Net-(J13-Pad2)*%
X8327600Y261222000D03*
%TD*%
%TO.P,S15,1*%
%TO.N,Net-(J10-Pad1)*%
X82827600Y97572000D03*
%TO.P,S15,2*%
%TO.N,Net-(J17-Pad2)*%
X55957600Y70702000D03*
%TD*%
%TO.P,S10,1*%
%TO.N,Net-(J10-Pad1)*%
X82827600Y335722000D03*
%TO.P,S10,2*%
%TO.N,Net-(J12-Pad2)*%
X55957600Y308852000D03*
%TD*%
%TO.P,S8,1*%
%TO.N,Net-(J9-Pad1)*%
X35197600Y49942000D03*
%TO.P,S8,2*%
%TO.N,Net-(J18-Pad2)*%
X8327600Y23072000D03*
%TD*%
%TO.P,J13,1,1*%
%TO.N,Net-(J13-Pad1)*%
X89042000Y277538544D03*
%TO.P,J13,2,2*%
%TO.N,Net-(J13-Pad2)*%
X89042000Y274038544D03*
%TD*%
%TO.P,J18,1,1*%
%TO.N,Net-(J18-Pad1)*%
X89042000Y40792400D03*
%TO.P,J18,2,2*%
%TO.N,Net-(J18-Pad2)*%
X89042000Y37292400D03*
%TD*%
%TO.P,J11,1,1*%
%TO.N,Net-(J1-Pad1)*%
X89042000Y372237000D03*
%TO.P,J11,2,2*%
%TO.N,Net-(J1-Pad2)*%
X89042000Y368737000D03*
%TD*%
%TO.P,S14,1*%
%TO.N,Net-(J10-Pad1)*%
X82827600Y145202000D03*
%TO.P,S14,2*%
%TO.N,Net-(J16-Pad2)*%
X55957600Y118332000D03*
%TD*%
%TO.P,S2,1*%
%TO.N,Net-(J9-Pad1)*%
X35197600Y335722000D03*
%TO.P,S2,2*%
%TO.N,Net-(J12-Pad2)*%
X8327600Y308852000D03*
%TD*%
%TO.P,J5,1,1*%
%TO.N,Net-(J15-Pad1)*%
X4241800Y182840088D03*
%TO.P,J5,2,2*%
%TO.N,Net-(J15-Pad2)*%
X4241800Y179340088D03*
%TD*%
%TO.P,J17,1,1*%
%TO.N,Net-(J17-Pad1)*%
X89042000Y88141632D03*
%TO.P,J17,2,2*%
%TO.N,Net-(J17-Pad2)*%
X89042000Y84641632D03*
%TD*%
%TO.P,S5,1*%
%TO.N,Net-(J9-Pad1)*%
X35197600Y192832000D03*
%TO.P,S5,2*%
%TO.N,Net-(J15-Pad2)*%
X8327600Y165962000D03*
%TD*%
%TO.P,J8,1,1*%
%TO.N,Net-(J18-Pad1)*%
X4241800Y40792400D03*
%TO.P,J8,2,2*%
%TO.N,Net-(J18-Pad2)*%
X4241800Y37292400D03*
%TD*%
%TO.P,S11,1*%
%TO.N,Net-(J10-Pad1)*%
X82827600Y288092000D03*
%TO.P,S11,2*%
%TO.N,Net-(J13-Pad2)*%
X55957600Y261222000D03*
%TD*%
%TO.P,S4,1*%
%TO.N,Net-(J9-Pad1)*%
X35197600Y240462000D03*
%TO.P,S4,2*%
%TO.N,Net-(J14-Pad2)*%
X8327600Y213592000D03*
%TD*%
%TO.P,J10,2,2*%
%TO.N,Net-(J10-Pad1)*%
X67053200Y4661000D03*
%TO.P,J10,1,1*%
X63553200Y4661000D03*
%TD*%
%TO.P,J3,1,1*%
%TO.N,Net-(J13-Pad1)*%
X4241800Y277538544D03*
%TO.P,J3,2,2*%
%TO.N,Net-(J13-Pad2)*%
X4241800Y274038544D03*
%TD*%
%TO.P,J7,1,1*%
%TO.N,Net-(J17-Pad1)*%
X4241800Y88141632D03*
%TO.P,J7,2,2*%
%TO.N,Net-(J17-Pad2)*%
X4241800Y84641632D03*
%TD*%
%TO.P,J16,1,1*%
%TO.N,Net-(J16-Pad1)*%
X89042000Y135490860D03*
%TO.P,J16,2,2*%
%TO.N,Net-(J16-Pad2)*%
X89042000Y131990860D03*
%TD*%
%TO.P,J2,1,1*%
%TO.N,Net-(J12-Pad1)*%
X4241800Y324887772D03*
%TO.P,J2,2,2*%
%TO.N,Net-(J12-Pad2)*%
X4241800Y321387772D03*
%TD*%
%TO.P,S6,1*%
%TO.N,Net-(J9-Pad1)*%
X35197600Y145202000D03*
%TO.P,S6,2*%
%TO.N,Net-(J16-Pad2)*%
X8327600Y118332000D03*
%TD*%
%TO.P,S1,1*%
%TO.N,Net-(J9-Pad1)*%
X35197600Y383352000D03*
%TO.P,S1,2*%
%TO.N,Net-(J1-Pad2)*%
X8327600Y356482000D03*
%TD*%
%TO.P,S9,1*%
%TO.N,Net-(J10-Pad1)*%
X82827600Y383352000D03*
%TO.P,S9,2*%
%TO.N,Net-(J1-Pad2)*%
X55957600Y356482000D03*
%TD*%
%TO.P,J6,1,1*%
%TO.N,Net-(J16-Pad1)*%
X4241800Y135490860D03*
%TO.P,J6,2,2*%
%TO.N,Net-(J16-Pad2)*%
X4241800Y131990860D03*
%TD*%
%TO.P,S7,1*%
%TO.N,Net-(J9-Pad1)*%
X35197600Y97572000D03*
%TO.P,S7,2*%
%TO.N,Net-(J17-Pad2)*%
X8327600Y70702000D03*
%TD*%
%TO.P,J9,1,1*%
%TO.N,Net-(J9-Pad1)*%
X31706800Y4661000D03*
%TO.P,J9,2,2*%
X35206800Y4661000D03*
%TD*%
%TO.P,J12,1,1*%
%TO.N,Net-(J12-Pad1)*%
X89042000Y324887772D03*
%TO.P,J12,2,2*%
%TO.N,Net-(J12-Pad2)*%
X89042000Y321387772D03*
%TD*%
%TO.P,J14,1,1*%
%TO.N,Net-(J14-Pad1)*%
X89042000Y230189316D03*
%TO.P,J14,2,2*%
%TO.N,Net-(J14-Pad2)*%
X89042000Y226689316D03*
%TD*%
%TO.P,S13,1*%
%TO.N,Net-(J10-Pad1)*%
X82827600Y192832000D03*
%TO.P,S13,2*%
%TO.N,Net-(J15-Pad2)*%
X55957600Y165962000D03*
%TD*%
%TO.P,S16,1*%
%TO.N,Net-(J10-Pad1)*%
X82827600Y49942000D03*
%TO.P,S16,2*%
%TO.N,Net-(J18-Pad2)*%
X55957600Y23072000D03*
%TD*%
%TO.P,J4,1,1*%
%TO.N,Net-(J14-Pad1)*%
X4241800Y230189316D03*
%TO.P,J4,2,2*%
%TO.N,Net-(J14-Pad2)*%
X4241800Y226689316D03*
%TD*%
%TO.P,S12,1*%
%TO.N,Net-(J10-Pad1)*%
X82827600Y240462000D03*
%TO.P,S12,2*%
%TO.N,Net-(J14-Pad2)*%
X55957600Y213592000D03*
%TD*%
D13*
%TO.N,Net-(J10-Pad1)*%
X82827600Y20435400D02*
X82827600Y383352000D01*
X67053200Y4661000D02*
X82827600Y20435400D01*
X79336800Y20358000D02*
X79336800Y379861200D01*
X79336800Y379861200D02*
X82827600Y383352000D01*
X63639800Y4661000D02*
X79336800Y20358000D01*
X63553200Y4661000D02*
X63639800Y4661000D01*
%TO.N,Net-(J9-Pad1)*%
X35206800Y383342800D02*
X35197600Y383352000D01*
X31706800Y379861200D02*
X35197600Y383352000D01*
X35206800Y4661000D02*
X35206800Y383342800D01*
X31706800Y4661000D02*
X31706800Y379861200D01*
%TD*%
M02*
