M48
; DRILL file {KiCad (6.0.7)} date Fri Oct 28 07:24:57 2022
; FORMAT={-:-/ absolute / metric / decimal}
; #@! TF.CreationDate,2022-10-28T07:24:57-04:00
; #@! TF.GenerationSoftware,Kicad,Pcbnew,(6.0.7)
; #@! TF.FileFunction,MixedPlating,1,2
FMAT,2
METRIC
; #@! TA.AperFunction,Plated,PTH,ViaDrill
T1C0.400
; #@! TA.AperFunction,Plated,PTH,ViaDrill
T2C0.500
; #@! TA.AperFunction,Plated,PTH,ComponentDrill
T3C0.800
; #@! TA.AperFunction,Plated,PTH,ComponentDrill
T4C0.914
; #@! TA.AperFunction,Plated,PTH,ViaDrill
T5C1.000
; #@! TA.AperFunction,Plated,PTH,ComponentDrill
T6C1.000
; #@! TA.AperFunction,Plated,PTH,ComponentDrill
T7C1.200
; #@! TA.AperFunction,Plated,PTH,ComponentDrill
T8C1.350
; #@! TA.AperFunction,Plated,PTH,ComponentDrill
T9C1.400
; #@! TA.AperFunction,Plated,PTH,ComponentDrill
T10C1.600
; #@! TA.AperFunction,Plated,PTH,ComponentDrill
T11C2.261
; #@! TA.AperFunction,Plated,PTH,ComponentDrill
T12C2.710
; #@! TA.AperFunction,Plated,PTH,ComponentDrill
T13C2.890
; #@! TA.AperFunction,Plated,PTH,ComponentDrill
T14C3.360
; #@! TA.AperFunction,NonPlated,NPTH,ComponentDrill
T15C1.700
%
G90
G05
T1
X65.946Y-111.468
X67.884Y-40.644
X71.337Y-55.493
X72.317Y-113.709
X75.529Y-57.223
X75.574Y-116.161
X75.712Y-111.012
X76.356Y-139.184
X77.367Y-70.96
X77.48Y-64.348
X78.018Y-141.732
X78.228Y-71.909
X78.382Y-56.575
X78.959Y-125.715
X79.053Y-123.346
X79.106Y-75.305
X79.248Y-73.152
X79.836Y-78.763
X80.484Y-132.043
X80.616Y-122.517
X80.658Y-123.971
X80.73Y-77.944
X80.939Y-75.465
X81.402Y-109.935
X81.583Y-120.042
X81.848Y-76.211
X81.928Y-85.019
X82.007Y-95.9
X82.537Y-118.133
X82.642Y-78.216
X82.954Y-49.228
X82.97Y-83.16
X83.215Y-82.191
X83.482Y-75.385
X83.665Y-76.592
X84.039Y-151.02
X84.198Y-118.152
X84.236Y-66.456
X84.429Y-101.557
X84.511Y-130.844
X84.544Y-90.877
X84.566Y-82.189
X84.641Y-65.23
X84.807Y-120.036
X84.825Y-87.664
X85.039Y-126.297
X85.097Y-122.397
X85.567Y-98.201
X85.621Y-123.995
X85.636Y-102.681
X85.641Y-72.527
X85.662Y-67.834
X86.34Y-115.105
X86.607Y-112.613
X86.657Y-123.053
X86.664Y-109.99
X86.764Y-73.256
X86.848Y-98.926
X86.87Y-79.17
X87.416Y-122.009
X87.795Y-97.1
X88.314Y-67.933
X88.562Y-90.049
X89.33Y-77.731
X89.558Y-68.435
X90.265Y-86.909
X91.514Y-64.367
X92.279Y-88.037
X94.417Y-85.923
X94.566Y-106.735
X94.592Y-81.906
X94.688Y-110.013
X95.088Y-84.547
X95.572Y-95.323
X97.988Y-100.856
X98.433Y-96.144
X98.916Y-82.765
X101.346Y-66.548
X101.346Y-68.072
X101.346Y-69.596
X101.346Y-71.12
X101.6Y-117.348
X101.6Y-119.126
X101.854Y-115.824
X101.854Y-120.65
X102.289Y-151.68
X102.616Y-66.548
X102.616Y-68.072
X102.616Y-69.596
X102.616Y-71.12
X102.616Y-117.348
X102.616Y-119.126
X102.87Y-115.824
X102.87Y-120.612
X102.891Y-112.26
X102.9Y-63.042
X103.124Y-94.996
X103.266Y-93.236
X103.378Y-90.17
X103.378Y-91.948
X103.632Y-87.63
X104.14Y-94.996
X104.346Y-80.864
X104.394Y-90.17
X104.394Y-91.948
X104.428Y-93.204
X104.504Y-151.443
X105.262Y-148.6
X105.853Y-127.908
X106.632Y-70.453
X106.634Y-120.551
X106.664Y-74.509
X108.059Y-127.839
X108.672Y-123.707
X110.229Y-73.71
X110.609Y-67.838
X110.803Y-123.033
X110.817Y-127.816
X111.107Y-73.148
X111.172Y-121.451
X111.2Y-114.634
X111.207Y-112.788
X111.246Y-116.212
X111.744Y-119.364
X111.904Y-65.522
X112.308Y-121.419
X112.326Y-73.078
X112.726Y-70.612
X113.525Y-119.925
X113.547Y-121.383
X114.254Y-109.692
X114.328Y-96.966
X114.347Y-122.004
X114.472Y-85.706
X115.877Y-120.993
X116.601Y-121.717
X117.633Y-107.255
X118.333Y-118.669
X119.578Y-68.292
X119.764Y-64.31
X120.053Y-70.864
X120.863Y-63.236
X121.293Y-110.275
X122.045Y-109.22
X122.093Y-59.483
X122.096Y-106.525
X122.685Y-110.949
X123.263Y-86.744
X123.273Y-93.728
X123.32Y-90.715
X123.355Y-92.03
X123.501Y-106.467
X123.624Y-124.067
X124.723Y-106.446
X124.727Y-58.881
X124.814Y-117.566
X124.94Y-64.324
X124.979Y-63.237
X124.99Y-65.608
X125.01Y-67.059
X125.232Y-62.018
X125.447Y-108.904
X125.88Y-106.525
X125.949Y-59.467
X125.98Y-100.51
X126.034Y-97.718
X126.034Y-99.141
X126.087Y-88.051
X126.137Y-68.245
X126.165Y-93.735
X127.256Y-88.023
X127.378Y-68.191
X128.609Y-86.744
X132.08Y-59.22
X135.789Y-109.035
X149.182Y-110.524
T2
X56.182Y-34.257
X66.86Y-93.865
X70.401Y-53.252
X70.643Y-34.441
X72.716Y-109.887
X72.956Y-94.941
X76.033Y-85.811
X76.214Y-70.275
X82.834Y-53.179
X106.424Y-65.699
X106.565Y-115.84
X108.474Y-98.648
X108.858Y-73.134
X109.018Y-93.91
X109.028Y-89.552
X111.969Y-43.734
X117.531Y-55.559
X124.647Y-153.223
X126.491Y-29.788
X130.903Y-20.412
X133.586Y-150.332
X134.138Y-20.023
X138.711Y-59.068
T3
X58.06Y-75.229
X58.06Y-77.769
X58.86Y-73.959
X58.86Y-76.499
X64.231Y-75.483
X64.231Y-78.023
X65.697Y-62.772
X65.697Y-65.312
X67.145Y-31.496
X67.145Y-34.036
X67.145Y-105.664
X67.145Y-108.204
X67.145Y-118.09
X67.145Y-120.63
X67.19Y-128.803
X67.19Y-131.343
X67.399Y-84.348
X67.399Y-86.888
X67.437Y-96.218
X67.437Y-98.758
X67.653Y-52.07
X67.653Y-54.61
X68.181Y-27.432
X68.39Y-62.772
X68.39Y-65.312
X70.721Y-27.432
X74.442Y-171.704
X74.931Y-27.467
X76.942Y-171.704
X77.471Y-27.467
X79.309Y-153.162
X81.849Y-153.162
X85.594Y-153.249
X87.113Y-27.345
X88.134Y-153.249
X89.653Y-27.345
X91.305Y-153.269
X93.845Y-153.269
X96.924Y-153.314
X99.464Y-153.314
X104.212Y-59.975
X104.502Y-107.772
X105.709Y-84.511
X106.712Y-59.975
X107.002Y-107.772
X108.209Y-84.511
X110.63Y-153.086
X112.542Y-179.07
X113.17Y-153.086
X113.878Y-47.747
X114.426Y-31.75
X115.042Y-179.07
X124.038Y-47.747
X124.586Y-31.75
X131.899Y-54.224
X131.899Y-56.764
X133.125Y-111.928
X133.125Y-114.468
T4
X137.16Y-162.214
X137.16Y-164.714
X137.16Y-166.714
X137.16Y-169.214
T5
X84.15Y-158.953
X84.15Y-164.592
X87.198Y-161.696
X90.068Y-158.953
X90.068Y-164.592
X90.246Y-135.992
X90.246Y-141.63
X90.246Y-147.295
X91.11Y-43.231
X91.11Y-48.87
X91.11Y-54.534
X93.294Y-138.735
X93.294Y-144.399
X94.158Y-45.974
X94.158Y-51.638
X96.164Y-135.992
X96.164Y-141.63
X96.164Y-147.295
X96.215Y-64.44
X96.215Y-68.936
X96.215Y-73.127
X96.797Y-114.148
X96.797Y-118.186
X96.797Y-122.834
X97.028Y-43.231
X97.028Y-48.87
X97.028Y-54.534
X97.053Y-88.57
X97.053Y-93.066
X97.053Y-97.257
X97.18Y-158.953
X97.18Y-164.592
X99.289Y-138.786
X99.289Y-144.399
X100.152Y-46.025
X100.152Y-51.638
X100.228Y-161.696
X102.159Y-135.992
X102.159Y-141.63
X102.159Y-147.295
X103.022Y-43.231
X103.022Y-48.87
X103.022Y-54.534
X103.099Y-158.953
X103.099Y-164.592
T6
X71.628Y-60.452
X71.628Y-62.992
X71.628Y-65.532
X71.628Y-68.072
X71.628Y-70.612
X71.628Y-73.152
X71.628Y-75.692
X71.628Y-78.232
X71.628Y-80.772
X71.628Y-83.312
X71.628Y-123.952
X71.628Y-126.492
X71.628Y-129.032
X71.628Y-131.572
X71.628Y-134.112
X71.628Y-136.652
X71.628Y-139.192
X71.628Y-141.732
X71.628Y-144.272
X71.628Y-146.812
X74.168Y-60.452
X74.168Y-62.992
X74.168Y-65.532
X74.168Y-68.072
X74.168Y-70.612
X74.168Y-73.152
X74.168Y-75.692
X74.168Y-78.232
X74.168Y-80.772
X74.168Y-83.312
X74.168Y-123.952
X74.168Y-126.492
X74.168Y-129.032
X74.168Y-131.572
X74.168Y-134.112
X74.168Y-136.652
X74.168Y-139.192
X74.168Y-141.732
X74.168Y-144.272
X74.168Y-146.812
X114.808Y-60.452
X114.808Y-62.992
X114.808Y-65.532
X114.808Y-68.072
X114.808Y-70.612
X114.808Y-73.152
X114.808Y-75.692
X114.808Y-78.232
X114.808Y-80.772
X114.808Y-83.312
X114.808Y-123.952
X114.808Y-126.492
X114.808Y-129.032
X114.808Y-131.572
X114.808Y-134.112
X114.808Y-136.652
X114.808Y-139.192
X114.808Y-141.732
X114.808Y-144.272
X114.808Y-146.812
X117.348Y-60.452
X117.348Y-62.992
X117.348Y-65.532
X117.348Y-68.072
X117.348Y-70.612
X117.348Y-73.152
X117.348Y-75.692
X117.348Y-78.232
X117.348Y-80.772
X117.348Y-83.312
X117.348Y-123.952
X117.348Y-126.492
X117.348Y-129.032
X117.348Y-131.572
X117.348Y-134.112
X117.348Y-136.652
X117.348Y-139.192
X117.348Y-141.732
X117.348Y-144.272
X117.348Y-146.812
T7
X63.633Y-22.606
X70.033Y-22.606
X76.079Y-22.606
X82.479Y-22.606
X88.525Y-22.606
X94.925Y-22.606
T8
X138.267Y-119.586
X138.267Y-123.396
X138.267Y-127.206
X138.267Y-131.016
X138.267Y-136.087
X138.267Y-139.897
X138.267Y-143.707
X138.267Y-147.517
X139.123Y-22.776
X139.123Y-26.586
X139.123Y-30.396
X139.123Y-34.206
X139.123Y-39.554
X139.123Y-43.364
X139.123Y-47.174
X139.123Y-50.984
X146.457Y-136.087
X146.457Y-139.897
X146.457Y-143.707
X146.457Y-147.517
X146.62Y-62.756
X146.62Y-66.566
X146.62Y-70.376
X146.62Y-74.186
X146.62Y-79.52
X146.62Y-83.33
X146.62Y-87.14
X146.62Y-90.95
X146.62Y-96.275
X146.62Y-100.085
X146.62Y-103.895
X146.62Y-107.705
X147.857Y-118.806
X147.857Y-122.616
X147.857Y-126.426
X147.857Y-130.236
X148.578Y-21.996
X148.578Y-25.806
X148.578Y-29.616
X148.578Y-33.426
X148.578Y-38.769
X148.578Y-42.579
X148.578Y-46.389
X148.578Y-50.199
T9
X58.749Y-41.665
X58.749Y-45.165
X58.793Y-63.746
X58.793Y-67.246
X58.832Y-52.644
X58.832Y-56.144
X59.741Y-83.594
X59.741Y-87.094
X59.741Y-105.966
X59.741Y-109.466
X59.741Y-117.122
X59.741Y-120.622
X59.779Y-94.742
X59.779Y-98.242
X59.779Y-128.27
X59.779Y-131.77
X101.491Y-23.622
X104.991Y-23.622
X112.667Y-23.584
X116.167Y-23.584
T10
X57.561Y-146.337
X59.69Y-154.432
X61.667Y-188.468
X61.916Y-146.193
X66.18Y-146.16
X67.102Y-68.668
X67.431Y-58.69
X67.47Y-73.274
X69.596Y-188.468
X75.438Y-180.594
X77.724Y-188.468
X92.885Y-79.832
X97.292Y-79.97
X101.71Y-79.967
X106.973Y-153.055
T11
X139.87Y-159.144
X139.87Y-172.284
T12
X101.346Y-183.464
T13
X96.846Y-184.464
X105.846Y-184.464
T14
X101.346Y-177.464
T15
X101.346Y-186.464
T0
M30
