%TF.GenerationSoftware,KiCad,Pcbnew,(6.0.7)*%
%TF.CreationDate,2022-10-28T20:32:31-04:00*%
%TF.ProjectId,Top_Level,546f705f-4c65-4766-956c-2e6b69636164,rev?*%
%TF.SameCoordinates,Original*%
%TF.FileFunction,Soldermask,Bot*%
%TF.FilePolarity,Negative*%
%FSLAX46Y46*%
G04 Gerber Fmt 4.6, Leading zero omitted, Abs format (unit mm)*
G04 Created by KiCad (PCBNEW (6.0.7)) date 2022-10-28 20:32:31*
%MOMM*%
%LPD*%
G01*
G04 APERTURE LIST*
%ADD10C,4.335000*%
%ADD11C,4.065000*%
%ADD12C,5.040000*%
%ADD13C,1.700000*%
%ADD14C,1.400000*%
%ADD15C,2.800000*%
%ADD16C,2.100000*%
%ADD17C,1.422400*%
%ADD18C,2.768600*%
%ADD19R,1.700000X1.700000*%
%ADD20O,1.700000X1.700000*%
%ADD21C,2.025000*%
%ADD22R,2.025000X2.025000*%
%ADD23C,1.250000*%
%ADD24C,1.600000*%
%ADD25O,1.600000X1.600000*%
%ADD26C,1.800000*%
%ADD27C,0.800000*%
%ADD28C,1.500000*%
%ADD29C,1.000000*%
G04 APERTURE END LIST*
D10*
%TO.C,J10*%
X96846000Y-184464000D03*
X105846000Y-184464000D03*
D11*
X101346000Y-183464000D03*
D12*
X101346000Y-177464000D03*
D13*
X101362672Y-187373914D03*
%TD*%
D14*
%TO.C,JP2*%
X96923747Y-153313740D03*
X99463747Y-153313740D03*
%TD*%
D15*
%TO.C,TP15*%
X59690000Y-154432000D03*
%TD*%
D16*
%TO.C,J21*%
X59778900Y-94742000D03*
X59778900Y-98242000D03*
%TD*%
%TO.C,J9*%
X59778900Y-128270000D03*
X59778900Y-131770000D03*
%TD*%
D17*
%TO.C,J6*%
X137160000Y-169213902D03*
X137160000Y-166713902D03*
X137160000Y-164713901D03*
X137160000Y-162213901D03*
D18*
X139870000Y-172283901D03*
X139870000Y-159143902D03*
%TD*%
D14*
%TO.C,JP15*%
X131898544Y-56763766D03*
X131898544Y-54223766D03*
%TD*%
D19*
%TO.C,J4-J1*%
X117348000Y-60452000D03*
D20*
X114808000Y-60452000D03*
X117348000Y-62992000D03*
X114808000Y-62992000D03*
X117348000Y-65532000D03*
X114808000Y-65532000D03*
X117348000Y-68072000D03*
X114808000Y-68072000D03*
X117348000Y-70612000D03*
X114808000Y-70612000D03*
X117348000Y-73152000D03*
X114808000Y-73152000D03*
X117348000Y-75692000D03*
X114808000Y-75692000D03*
X117348000Y-78232000D03*
X114808000Y-78232000D03*
X117348000Y-80772000D03*
X114808000Y-80772000D03*
X117348000Y-83312000D03*
X114808000Y-83312000D03*
%TD*%
D21*
%TO.C,J18*%
X139123314Y-50983592D03*
X139123314Y-47173592D03*
X139123314Y-43363592D03*
D22*
X139123314Y-39553592D03*
%TD*%
D23*
%TO.C,LED1*%
X58859707Y-73958766D03*
X58059707Y-75228766D03*
X58859707Y-76498766D03*
X58059707Y-77768766D03*
%TD*%
D24*
%TO.C,C28*%
X76942000Y-171704000D03*
X74442000Y-171704000D03*
%TD*%
D22*
%TO.C,J4*%
X146620000Y-62756000D03*
D21*
X146620000Y-66566000D03*
X146620000Y-70376000D03*
X146620000Y-74186000D03*
%TD*%
D14*
%TO.C,JP20*%
X67144900Y-108204000D03*
X67144900Y-105664000D03*
%TD*%
D21*
%TO.C,J14*%
X148577850Y-38769353D03*
X148577850Y-42579353D03*
X148577850Y-46389353D03*
D22*
X148577850Y-50199353D03*
%TD*%
D21*
%TO.C,J16*%
X139123314Y-34206353D03*
X139123314Y-30396353D03*
X139123314Y-26586353D03*
D22*
X139123314Y-22776353D03*
%TD*%
D15*
%TO.C,TP7*%
X92885192Y-79831833D03*
%TD*%
D14*
%TO.C,JP10*%
X81849000Y-153162000D03*
X79309000Y-153162000D03*
%TD*%
%TO.C,JP13*%
X68390416Y-62772111D03*
X68390416Y-65312111D03*
%TD*%
%TO.C,JP8*%
X67189927Y-128803395D03*
X67189927Y-131343395D03*
%TD*%
D22*
%TO.C,J19*%
X138267312Y-119586463D03*
D21*
X138267312Y-123396463D03*
X138267312Y-127206463D03*
X138267312Y-131016463D03*
%TD*%
D19*
%TO.C,J8-J1*%
X117348000Y-123952000D03*
D20*
X114808000Y-123952000D03*
X117348000Y-126492000D03*
X114808000Y-126492000D03*
X117348000Y-129032000D03*
X114808000Y-129032000D03*
X117348000Y-131572000D03*
X114808000Y-131572000D03*
X117348000Y-134112000D03*
X114808000Y-134112000D03*
X117348000Y-136652000D03*
X114808000Y-136652000D03*
X117348000Y-139192000D03*
X114808000Y-139192000D03*
X117348000Y-141732000D03*
X114808000Y-141732000D03*
X117348000Y-144272000D03*
X114808000Y-144272000D03*
X117348000Y-146812000D03*
X114808000Y-146812000D03*
%TD*%
D14*
%TO.C,JP18*%
X67436900Y-98758000D03*
X67436900Y-96218000D03*
%TD*%
D16*
%TO.C,J23*%
X59740900Y-105966000D03*
X59740900Y-109466000D03*
%TD*%
D14*
%TO.C,JP11*%
X110629700Y-153085800D03*
X113169700Y-153085800D03*
%TD*%
D15*
%TO.C,TP6*%
X66179750Y-146160055D03*
%TD*%
%TO.C,TP2*%
X67470056Y-73274008D03*
%TD*%
%TO.C,TP4*%
X57561018Y-146336904D03*
%TD*%
%TO.C,TP14*%
X106972838Y-153054887D03*
%TD*%
D22*
%TO.C,J3*%
X146620000Y-79520000D03*
D21*
X146620000Y-83330000D03*
X146620000Y-87140000D03*
X146620000Y-90950000D03*
%TD*%
D19*
%TO.C,J1-J1*%
X74168000Y-60452000D03*
D20*
X71628000Y-60452000D03*
X74168000Y-62992000D03*
X71628000Y-62992000D03*
X74168000Y-65532000D03*
X71628000Y-65532000D03*
X74168000Y-68072000D03*
X71628000Y-68072000D03*
X74168000Y-70612000D03*
X71628000Y-70612000D03*
X74168000Y-73152000D03*
X71628000Y-73152000D03*
X74168000Y-75692000D03*
X71628000Y-75692000D03*
X74168000Y-78232000D03*
X71628000Y-78232000D03*
X74168000Y-80772000D03*
X71628000Y-80772000D03*
X74168000Y-83312000D03*
X71628000Y-83312000D03*
%TD*%
D24*
%TO.C,C19*%
X105708729Y-84511297D03*
X108208729Y-84511297D03*
%TD*%
%TO.C,R16*%
X113877683Y-47746872D03*
D25*
X124037683Y-47746872D03*
%TD*%
D14*
%TO.C,JP12*%
X68180900Y-27432000D03*
X70720900Y-27432000D03*
%TD*%
D26*
%TO.C,S2*%
X88524900Y-22606000D03*
X94924900Y-22606000D03*
%TD*%
D16*
%TO.C,J2*%
X104990900Y-23622000D03*
X101490900Y-23622000D03*
%TD*%
D26*
%TO.C,S1*%
X76078900Y-22606000D03*
X82478900Y-22606000D03*
%TD*%
D21*
%TO.C,J12*%
X148577850Y-21996353D03*
X148577850Y-25806353D03*
X148577850Y-29616353D03*
D22*
X148577850Y-33426353D03*
%TD*%
D14*
%TO.C,JP4*%
X74930743Y-27466718D03*
X77470743Y-27466718D03*
%TD*%
%TO.C,JP16*%
X133125312Y-114468463D03*
X133125312Y-111928463D03*
%TD*%
%TO.C,JP5*%
X87112783Y-27344770D03*
X89652783Y-27344770D03*
%TD*%
%TO.C,JP14*%
X64230863Y-75482696D03*
X64230863Y-78022696D03*
%TD*%
D22*
%TO.C,J17*%
X138267312Y-136087463D03*
D21*
X138267312Y-139897463D03*
X138267312Y-143707463D03*
X138267312Y-147517463D03*
%TD*%
D24*
%TO.C,C1*%
X104211945Y-59974649D03*
X106711945Y-59974649D03*
%TD*%
D15*
%TO.C,TP3*%
X67101563Y-68667836D03*
%TD*%
D24*
%TO.C,C27*%
X112542000Y-179070000D03*
X115042000Y-179070000D03*
%TD*%
D14*
%TO.C,JP9*%
X88133557Y-153248813D03*
X85593557Y-153248813D03*
%TD*%
D15*
%TO.C,TP10*%
X77724000Y-188468000D03*
%TD*%
%TO.C,TP9*%
X97291982Y-79969799D03*
%TD*%
D14*
%TO.C,JP7*%
X67144900Y-31496000D03*
X67144900Y-34036000D03*
%TD*%
D16*
%TO.C,J7*%
X58749037Y-41665081D03*
X58749037Y-45165081D03*
%TD*%
D15*
%TO.C,TP12*%
X69596000Y-188468000D03*
%TD*%
%TO.C,TP11*%
X61666735Y-188468000D03*
%TD*%
D14*
%TO.C,JP1*%
X93845170Y-153269265D03*
X91305170Y-153269265D03*
%TD*%
D15*
%TO.C,TP8*%
X101710351Y-79966618D03*
%TD*%
D14*
%TO.C,JP6*%
X67398900Y-84348000D03*
X67398900Y-86888000D03*
%TD*%
D24*
%TO.C,R15*%
X124585805Y-31750000D03*
D25*
X114425805Y-31750000D03*
%TD*%
D15*
%TO.C,TP5*%
X61916252Y-146192586D03*
%TD*%
D24*
%TO.C,C7*%
X104501960Y-107772156D03*
X107001960Y-107772156D03*
%TD*%
D14*
%TO.C,JP3*%
X65697227Y-62772111D03*
X65697227Y-65312111D03*
%TD*%
D16*
%TO.C,J1*%
X116166900Y-23584000D03*
X112666900Y-23584000D03*
%TD*%
D15*
%TO.C,TP1*%
X67430742Y-58689588D03*
%TD*%
D16*
%TO.C,J22*%
X59740900Y-117122000D03*
X59740900Y-120622000D03*
%TD*%
%TO.C,J11*%
X58792955Y-63745662D03*
X58792955Y-67245662D03*
%TD*%
D22*
%TO.C,J5*%
X146620000Y-96275000D03*
D21*
X146620000Y-100085000D03*
X146620000Y-103895000D03*
X146620000Y-107705000D03*
%TD*%
D26*
%TO.C,S3*%
X63632900Y-22606000D03*
X70032900Y-22606000D03*
%TD*%
D22*
%TO.C,J15*%
X147857312Y-130236463D03*
D21*
X147857312Y-126426463D03*
X147857312Y-122616463D03*
X147857312Y-118806463D03*
%TD*%
D14*
%TO.C,JP19*%
X67144900Y-120630000D03*
X67144900Y-118090000D03*
%TD*%
D16*
%TO.C,J20*%
X58832411Y-52643956D03*
X58832411Y-56143956D03*
%TD*%
%TO.C,J8*%
X59740900Y-83594000D03*
X59740900Y-87094000D03*
%TD*%
D14*
%TO.C,JP17*%
X67652900Y-54610000D03*
X67652900Y-52070000D03*
%TD*%
D19*
%TO.C,J5-J1*%
X74168000Y-123952000D03*
D20*
X71628000Y-123952000D03*
X74168000Y-126492000D03*
X71628000Y-126492000D03*
X74168000Y-129032000D03*
X71628000Y-129032000D03*
X74168000Y-131572000D03*
X71628000Y-131572000D03*
X74168000Y-134112000D03*
X71628000Y-134112000D03*
X74168000Y-136652000D03*
X71628000Y-136652000D03*
X74168000Y-139192000D03*
X71628000Y-139192000D03*
X74168000Y-141732000D03*
X71628000Y-141732000D03*
X74168000Y-144272000D03*
X71628000Y-144272000D03*
X74168000Y-146812000D03*
X71628000Y-146812000D03*
%TD*%
D22*
%TO.C,J13*%
X146457312Y-136087463D03*
D21*
X146457312Y-139897463D03*
X146457312Y-143707463D03*
X146457312Y-147517463D03*
%TD*%
D15*
%TO.C,TP13*%
X75438000Y-180594000D03*
%TD*%
D27*
X106632036Y-70452684D03*
X102900356Y-63041677D03*
D28*
X97028000Y-54533800D03*
D27*
X102890582Y-112260489D03*
D29*
X76213898Y-70274726D03*
D28*
X96164400Y-141630400D03*
X94157800Y-45974000D03*
D29*
X106424192Y-65698922D03*
X126491053Y-29787839D03*
D28*
X96797088Y-118186200D03*
X103022400Y-54533800D03*
X97053400Y-88569800D03*
X96164400Y-147294600D03*
X102158800Y-147294600D03*
X102158800Y-141630400D03*
D27*
X103632000Y-87630000D03*
D29*
X72955760Y-94940905D03*
D28*
X90068400Y-158953200D03*
X102158800Y-135991600D03*
X100152200Y-51638200D03*
D29*
X70643201Y-34441218D03*
X138710635Y-59068204D03*
D28*
X90246200Y-141630400D03*
D29*
X109018038Y-93910143D03*
D28*
X90246200Y-135991600D03*
X96164400Y-135991600D03*
X103022400Y-48869600D03*
X90068400Y-164592000D03*
X96215200Y-73126600D03*
D29*
X134137740Y-20023225D03*
X117531307Y-55559161D03*
D28*
X84150200Y-158953200D03*
X100228400Y-161696400D03*
X93294200Y-144399000D03*
X100152200Y-46024800D03*
X84150200Y-164592000D03*
D29*
X108473893Y-98647865D03*
D28*
X96797088Y-114147600D03*
X91109800Y-48869600D03*
X96215200Y-68935600D03*
D29*
X66860462Y-93865264D03*
X106565091Y-115839769D03*
D28*
X94157800Y-51638200D03*
X97053400Y-93065600D03*
X103098600Y-158953200D03*
X103022400Y-43230800D03*
D29*
X56181741Y-34257411D03*
D28*
X96797088Y-122834400D03*
X97053400Y-97256600D03*
X97028000Y-48869600D03*
X99288600Y-138785600D03*
D29*
X70400808Y-53252460D03*
D27*
X106634036Y-120551006D03*
D29*
X109028144Y-89551693D03*
D28*
X96215200Y-64439800D03*
D29*
X111968669Y-43734086D03*
D28*
X97028000Y-43230800D03*
X97180400Y-158953200D03*
D29*
X72716412Y-109886897D03*
D27*
X108672075Y-123706558D03*
D28*
X87198200Y-161696400D03*
D29*
X82833727Y-53178653D03*
D28*
X93294200Y-138734800D03*
D29*
X133586042Y-150332084D03*
D28*
X91109800Y-43230800D03*
D29*
X108857605Y-73134486D03*
X130903309Y-20411607D03*
X124647285Y-153222742D03*
D28*
X99288600Y-144399000D03*
D29*
X76033018Y-85811085D03*
D28*
X103098600Y-164592000D03*
X97180400Y-164592000D03*
X91109800Y-54533800D03*
X90246200Y-147294600D03*
D27*
X85662432Y-67834468D03*
X85640540Y-72526942D03*
X87415831Y-122009477D03*
X86339796Y-115105295D03*
X105261741Y-148600368D03*
X102289449Y-151679908D03*
X84565531Y-82189225D03*
X81927513Y-85019098D03*
X149182408Y-110523557D03*
X132080000Y-59220204D03*
X135788517Y-109034667D03*
X85567121Y-98201017D03*
X84235687Y-66455687D03*
X116601393Y-121717184D03*
X114346567Y-122003512D03*
X78228384Y-71908740D03*
X78018252Y-141732000D03*
X113547236Y-121383136D03*
X115876893Y-120992684D03*
X84640716Y-65229942D03*
X86847988Y-98925517D03*
X101346000Y-71120000D03*
X120053306Y-70864191D03*
X125009581Y-67059050D03*
X102616000Y-71120000D03*
X119578125Y-68292216D03*
X124989693Y-65608324D03*
X101346000Y-69596000D03*
X102616000Y-69596000D03*
X120862703Y-63236198D03*
X101346000Y-68072000D03*
X102616000Y-68072000D03*
X124978721Y-63237086D03*
X102616000Y-66548000D03*
X119763711Y-64310057D03*
X101346000Y-66548000D03*
X124939952Y-64324269D03*
X83482162Y-75384612D03*
X86763514Y-73256486D03*
X79105633Y-75304672D03*
X84825153Y-87663595D03*
X91514297Y-64366904D03*
X94565503Y-106734681D03*
X85636078Y-102681194D03*
X84543921Y-90877478D03*
X92279369Y-88036648D03*
X94688071Y-110013395D03*
X90264883Y-86909495D03*
X110608864Y-67837700D03*
X110229332Y-73710053D03*
X79248000Y-73152000D03*
X82641552Y-78216500D03*
X83665340Y-76592388D03*
X77479929Y-64347658D03*
X88313910Y-67933472D03*
X71336616Y-55492769D03*
X89558272Y-68434506D03*
X111903891Y-65522297D03*
X111106582Y-73148384D03*
X101854000Y-120650000D03*
X125880186Y-106525127D03*
X123624381Y-124066757D03*
X110803488Y-123033332D03*
X125447413Y-108904039D03*
X102870000Y-120612500D03*
X111245686Y-116211835D03*
X102616000Y-119126000D03*
X101600000Y-119126000D03*
X126033645Y-99140529D03*
X111199722Y-114633762D03*
X102616000Y-117348000D03*
X101600000Y-117348000D03*
X126033645Y-97717841D03*
X101854000Y-115824000D03*
X125979959Y-100509531D03*
X114254036Y-109691652D03*
X117633395Y-107254541D03*
X111207383Y-112787570D03*
X102870000Y-115824000D03*
X85620657Y-123994718D03*
X80658470Y-123970857D03*
X84198182Y-118151638D03*
X82537492Y-118133283D03*
X79053329Y-123346184D03*
X86657103Y-123053378D03*
X126165385Y-93734850D03*
X103124000Y-94996000D03*
X104140000Y-94996000D03*
X123272892Y-93728189D03*
X127255808Y-88022749D03*
X123355365Y-92029779D03*
X104427783Y-93203725D03*
X103265990Y-93235701D03*
X103378000Y-91948000D03*
X126086594Y-88050729D03*
X123319837Y-90715211D03*
X104394000Y-91948000D03*
X128608882Y-86743711D03*
X123262990Y-86743711D03*
X103378000Y-90170000D03*
X104394000Y-90170000D03*
X94417497Y-85922503D03*
X104345753Y-80864312D03*
X95088498Y-84547453D03*
X94591540Y-81905621D03*
X112725747Y-70612000D03*
X86869525Y-79169585D03*
X112326214Y-73078163D03*
X89329585Y-77730667D03*
X95571541Y-95323312D03*
X98916108Y-82764792D03*
X114328161Y-96965756D03*
X114472053Y-85706217D03*
X67883809Y-40644463D03*
X82953535Y-49228076D03*
X98432505Y-96144195D03*
X84038854Y-151020044D03*
X97987523Y-100856100D03*
X86607251Y-112612564D03*
X88562162Y-90049045D03*
X87794739Y-97099747D03*
X104503544Y-151442810D03*
X106664012Y-74509453D03*
X124722913Y-106445509D03*
X125948972Y-59466852D03*
X122685333Y-110948792D03*
X127377716Y-68190566D03*
X123500720Y-106466826D03*
X126136648Y-68244526D03*
X121292702Y-110274969D03*
X124727437Y-58880796D03*
X122093118Y-59483443D03*
X122045367Y-109220000D03*
X122095577Y-106525127D03*
X125231603Y-62018348D03*
X77367123Y-70960120D03*
X76355882Y-139184387D03*
X124814100Y-117565507D03*
X118333278Y-118668626D03*
X86664222Y-109989504D03*
X113524530Y-119925500D03*
X65945905Y-111468186D03*
X81401611Y-109934663D03*
X112307639Y-121418927D03*
X75712183Y-111012367D03*
X84428659Y-101556637D03*
X82006594Y-95899624D03*
X111743634Y-119363634D03*
X111171744Y-121450674D03*
X105852660Y-127908303D03*
X85039119Y-126297438D03*
X110816695Y-127816376D03*
X78958538Y-125715156D03*
X72316687Y-113709450D03*
X108058898Y-127839358D03*
X75573659Y-116161126D03*
X78382360Y-56575477D03*
X75528504Y-57222990D03*
X82969998Y-83160439D03*
X79835751Y-78763407D03*
X81848148Y-76210658D03*
X83214545Y-82191315D03*
X80938922Y-75464552D03*
X80729750Y-77943798D03*
X85096542Y-122397212D03*
X80615560Y-122517189D03*
X80484132Y-132043055D03*
X84510608Y-130844059D03*
X84806752Y-120036166D03*
X81583068Y-120042131D03*
M02*
