%TF.GenerationSoftware,KiCad,Pcbnew,(6.0.0)*%
%TF.CreationDate,2022-10-28T19:45:45-04:00*%
%TF.ProjectId,Top_Level,546f705f-4c65-4766-956c-2e6b69636164,rev?*%
%TF.SameCoordinates,PX33f5838PY820f690*%
%TF.FileFunction,Soldermask,Top*%
%TF.FilePolarity,Negative*%
%FSLAX46Y46*%
G04 Gerber Fmt 4.6, Leading zero omitted, Abs format (unit mm)*
G04 Created by KiCad (PCBNEW (6.0.0)) date 2022-10-28 19:45:45*
%MOMM*%
%LPD*%
G01*
G04 APERTURE LIST*
G04 Aperture macros list*
%AMRoundRect*
0 Rectangle with rounded corners*
0 $1 Rounding radius*
0 $2 $3 $4 $5 $6 $7 $8 $9 X,Y pos of 4 corners*
0 Add a 4 corners polygon primitive as box body*
4,1,4,$2,$3,$4,$5,$6,$7,$8,$9,$2,$3,0*
0 Add four circle primitives for the rounded corners*
1,1,$1+$1,$2,$3*
1,1,$1+$1,$4,$5*
1,1,$1+$1,$6,$7*
1,1,$1+$1,$8,$9*
0 Add four rect primitives between the rounded corners*
20,1,$1+$1,$2,$3,$4,$5,0*
20,1,$1+$1,$4,$5,$6,$7,0*
20,1,$1+$1,$6,$7,$8,$9,0*
20,1,$1+$1,$8,$9,$2,$3,0*%
G04 Aperture macros list end*
%TA.AperFunction,Profile*%
%ADD10C,0.100000*%
%TD*%
%ADD11C,0.100000*%
%ADD12C,1.704800*%
%ADD13C,3.104800*%
%ADD14C,2.404800*%
%ADD15RoundRect,0.152400X-0.375000X0.300000X-0.375000X-0.300000X0.375000X-0.300000X0.375000X0.300000X0*%
%ADD16RoundRect,0.152400X-0.800000X0.400000X-0.800000X-0.400000X0.800000X-0.400000X0.800000X0.400000X0*%
%ADD17RoundRect,0.152400X-0.400000X-0.800000X0.400000X-0.800000X0.400000X0.800000X-0.400000X0.800000X0*%
%ADD18RoundRect,0.152400X0.500000X0.700000X-0.500000X0.700000X-0.500000X-0.700000X0.500000X-0.700000X0*%
%ADD19RoundRect,0.152400X1.360000X-0.510000X1.360000X0.510000X-1.360000X0.510000X-1.360000X-0.510000X0*%
%ADD20C,1.727200*%
%ADD21C,3.073400*%
%ADD22RoundRect,0.152400X0.800000X-0.400000X0.800000X0.400000X-0.800000X0.400000X-0.800000X-0.400000X0*%
%ADD23RoundRect,0.152400X0.850000X-0.850000X0.850000X0.850000X-0.850000X0.850000X-0.850000X-0.850000X0*%
%ADD24O,2.004800X2.004800*%
%ADD25RoundRect,0.152400X-1.012500X-1.012500X1.012500X-1.012500X1.012500X1.012500X-1.012500X1.012500X0*%
%ADD26C,2.329800*%
%ADD27C,1.504800*%
%ADD28C,1.904800*%
%ADD29RoundRect,0.152400X0.165100X-0.355600X0.165100X0.355600X-0.165100X0.355600X-0.165100X-0.355600X0*%
%ADD30RoundRect,0.152400X-0.400000X0.327800X-0.400000X-0.327800X0.400000X-0.327800X0.400000X0.327800X0*%
%ADD31RoundRect,0.152400X0.700000X-0.500000X0.700000X0.500000X-0.700000X0.500000X-0.700000X-0.500000X0*%
%ADD32RoundRect,0.152400X7.500000X-7.500000X7.500000X7.500000X-7.500000X7.500000X-7.500000X-7.500000X0*%
%ADD33RoundRect,0.152400X1.012500X1.012500X-1.012500X1.012500X-1.012500X-1.012500X1.012500X-1.012500X0*%
%ADD34RoundRect,0.152400X0.475000X-0.375000X0.475000X0.375000X-0.475000X0.375000X-0.475000X-0.375000X0*%
%ADD35RoundRect,0.152400X1.675000X-0.625000X1.675000X0.625000X-1.675000X0.625000X-1.675000X-0.625000X0*%
%ADD36RoundRect,0.152400X-0.152400X0.635000X-0.152400X-0.635000X0.152400X-0.635000X0.152400X0.635000X0*%
%ADD37RoundRect,0.152400X-1.519999X1.170000X-1.519999X-1.170000X1.519999X-1.170000X1.519999X1.170000X0*%
%ADD38RoundRect,0.152400X-0.510000X-1.360000X0.510000X-1.360000X0.510000X1.360000X-0.510000X1.360000X0*%
%ADD39RoundRect,0.152400X0.225000X0.737500X-0.225000X0.737500X-0.225000X-0.737500X0.225000X-0.737500X0*%
%ADD40RoundRect,0.152400X-0.350000X-0.650000X0.350000X-0.650000X0.350000X0.650000X-0.350000X0.650000X0*%
%ADD41RoundRect,0.152400X0.800000X1.225000X-0.800000X1.225000X-0.800000X-1.225000X0.800000X-1.225000X0*%
%ADD42RoundRect,0.152400X0.400000X0.800000X-0.400000X0.800000X-0.400000X-0.800000X0.400000X-0.800000X0*%
%ADD43RoundRect,0.152400X0.625000X1.675000X-0.625000X1.675000X-0.625000X-1.675000X0.625000X-1.675000X0*%
%ADD44RoundRect,0.152400X-0.355600X-0.165100X0.355600X-0.165100X0.355600X0.165100X-0.355600X0.165100X0*%
%ADD45RoundRect,0.152400X-0.600000X0.600000X-0.600000X-0.600000X0.600000X-0.600000X0.600000X0.600000X0*%
%ADD46RoundRect,0.152400X0.535000X1.080000X-0.535000X1.080000X-0.535000X-1.080000X0.535000X-1.080000X0*%
%ADD47RoundRect,0.152400X5.400000X-0.955000X5.400000X0.955000X-5.400000X0.955000X-5.400000X-0.955000X0*%
%ADD48RoundRect,0.152400X4.165000X-2.540000X4.165000X2.540000X-4.165000X2.540000X-4.165000X-2.540000X0*%
%ADD49RoundRect,0.152400X-0.749300X1.955800X-0.749300X-1.955800X0.749300X-1.955800X0.749300X1.955800X0*%
%ADD50RoundRect,0.152400X-0.165100X0.355600X-0.165100X-0.355600X0.165100X-0.355600X0.165100X0.355600X0*%
%ADD51RoundRect,0.152400X-1.485900X-0.279400X1.485900X-0.279400X1.485900X0.279400X-1.485900X0.279400X0*%
%ADD52RoundRect,0.152400X-1.750000X0.800000X-1.750000X-0.800000X1.750000X-0.800000X1.750000X0.800000X0*%
%ADD53RoundRect,0.152400X0.327800X0.400000X-0.327800X0.400000X-0.327800X-0.400000X0.327800X-0.400000X0*%
%ADD54RoundRect,0.152400X-5.956300X-1.485900X5.956300X-1.485900X5.956300X1.485900X-5.956300X1.485900X0*%
%ADD55RoundRect,0.152400X-1.360000X0.510000X-1.360000X-0.510000X1.360000X-0.510000X1.360000X0.510000X0*%
%ADD56RoundRect,0.152400X0.700000X-0.525000X0.700000X0.525000X-0.700000X0.525000X-0.700000X-0.525000X0*%
%ADD57RoundRect,0.152400X0.300000X0.375000X-0.300000X0.375000X-0.300000X-0.375000X0.300000X-0.375000X0*%
%ADD58O,1.904800X1.904800*%
%ADD59RoundRect,0.152400X-0.210000X-0.230000X0.210000X-0.230000X0.210000X0.230000X-0.210000X0.230000X0*%
%ADD60RoundRect,0.152400X-1.650000X1.225000X-1.650000X-1.225000X1.650000X-1.225000X1.650000X1.225000X0*%
%ADD61C,2.104800*%
%ADD62RoundRect,0.152400X-0.327800X-0.400000X0.327800X-0.400000X0.327800X0.400000X-0.327800X0.400000X0*%
%ADD63RoundRect,0.152400X2.654300X-1.397000X2.654300X1.397000X-2.654300X1.397000X-2.654300X-1.397000X0*%
%ADD64RoundRect,0.152400X0.400000X-0.327800X0.400000X0.327800X-0.400000X0.327800X-0.400000X-0.327800X0*%
%ADD65RoundRect,0.152400X-1.320800X0.596900X-1.320800X-0.596900X1.320800X-0.596900X1.320800X0.596900X0*%
%ADD66RoundRect,0.152400X0.230000X-0.210000X0.230000X0.210000X-0.230000X0.210000X-0.230000X-0.210000X0*%
%ADD67RoundRect,0.152400X-0.230000X0.210000X-0.230000X-0.210000X0.230000X-0.210000X0.230000X0.210000X0*%
%ADD68RoundRect,0.152400X0.355600X0.165100X-0.355600X0.165100X-0.355600X-0.165100X0.355600X-0.165100X0*%
%ADD69RoundRect,0.152400X0.749300X-1.955800X0.749300X1.955800X-0.749300X1.955800X-0.749300X-1.955800X0*%
%ADD70RoundRect,0.152400X-0.800000X-1.225000X0.800000X-1.225000X0.800000X1.225000X-0.800000X1.225000X0*%
%ADD71RoundRect,0.152400X0.785000X1.410000X-0.785000X1.410000X-0.785000X-1.410000X0.785000X-1.410000X0*%
%ADD72RoundRect,0.152400X0.150000X0.237500X-0.150000X0.237500X-0.150000X-0.237500X0.150000X-0.237500X0*%
%ADD73RoundRect,0.152400X0.375000X-0.300000X0.375000X0.300000X-0.375000X0.300000X-0.375000X-0.300000X0*%
%ADD74RoundRect,0.152400X-0.508000X-1.346200X0.508000X-1.346200X0.508000X1.346200X-0.508000X1.346200X0*%
%ADD75RoundRect,0.152400X-5.232400X-5.435600X5.232400X-5.435600X5.232400X5.435600X-5.232400X5.435600X0*%
%ADD76C,5.344800*%
%ADD77C,4.369800*%
%ADD78C,4.639800*%
%ADD79C,1.804800*%
%ADD80C,1.104800*%
%ADD81C,1.304800*%
%ADD82C,1.193800*%
G04 APERTURE END LIST*
D10*
X0Y0D02*
X173990000Y0D01*
X173990000Y0D02*
X173990000Y97790000D01*
X173990000Y97790000D02*
X0Y97790000D01*
X0Y97790000D02*
X0Y0D01*
D11*
%TO.C,IC1*%
X47946501Y40343900D02*
X47666501Y40343900D01*
X47666501Y40343900D02*
X47666501Y39843900D01*
X47666501Y39843900D02*
X47946501Y39843900D01*
X47946501Y39843900D02*
X47946501Y40343900D01*
G36*
X47946501Y39843900D02*
G01*
X47666501Y39843900D01*
X47666501Y40343900D01*
X47946501Y40343900D01*
X47946501Y39843900D01*
G37*
X47946501Y39843900D02*
X47666501Y39843900D01*
X47666501Y40343900D01*
X47946501Y40343900D01*
X47946501Y39843900D01*
X50986499Y40343900D02*
X51266499Y40343900D01*
X51266499Y40343900D02*
X51266499Y39843900D01*
X51266499Y39843900D02*
X50986499Y39843900D01*
X50986499Y39843900D02*
X50986499Y40343900D01*
G36*
X51266499Y39843900D02*
G01*
X50986499Y39843900D01*
X50986499Y40343900D01*
X51266499Y40343900D01*
X51266499Y39843900D01*
G37*
X51266499Y39843900D02*
X50986499Y39843900D01*
X50986499Y40343900D01*
X51266499Y40343900D01*
X51266499Y39843900D01*
%TO.C,IC2*%
X104783001Y40780000D02*
X104503001Y40780000D01*
X104503001Y40780000D02*
X104503001Y40280000D01*
X104503001Y40280000D02*
X104783001Y40280000D01*
X104783001Y40280000D02*
X104783001Y40780000D01*
G36*
X104783001Y40280000D02*
G01*
X104503001Y40280000D01*
X104503001Y40780000D01*
X104783001Y40780000D01*
X104783001Y40280000D01*
G37*
X104783001Y40280000D02*
X104503001Y40280000D01*
X104503001Y40780000D01*
X104783001Y40780000D01*
X104783001Y40280000D01*
X107822999Y40780000D02*
X108102999Y40780000D01*
X108102999Y40780000D02*
X108102999Y40280000D01*
X108102999Y40280000D02*
X107822999Y40280000D01*
X107822999Y40280000D02*
X107822999Y40780000D01*
G36*
X108102999Y40280000D02*
G01*
X107822999Y40280000D01*
X107822999Y40780000D01*
X108102999Y40780000D01*
X108102999Y40280000D01*
G37*
X108102999Y40280000D02*
X107822999Y40280000D01*
X107822999Y40780000D01*
X108102999Y40780000D01*
X108102999Y40280000D01*
%TO.C,IC3*%
X68838683Y40018000D02*
X68558683Y40018000D01*
X68558683Y40018000D02*
X68558683Y39518000D01*
X68558683Y39518000D02*
X68838683Y39518000D01*
X68838683Y39518000D02*
X68838683Y40018000D01*
G36*
X68838683Y39518000D02*
G01*
X68558683Y39518000D01*
X68558683Y40018000D01*
X68838683Y40018000D01*
X68838683Y39518000D01*
G37*
X68838683Y39518000D02*
X68558683Y39518000D01*
X68558683Y40018000D01*
X68838683Y40018000D01*
X68838683Y39518000D01*
X71878681Y40018000D02*
X72158681Y40018000D01*
X72158681Y40018000D02*
X72158681Y39518000D01*
X72158681Y39518000D02*
X71878681Y39518000D01*
X71878681Y39518000D02*
X71878681Y40018000D01*
G36*
X72158681Y39518000D02*
G01*
X71878681Y39518000D01*
X71878681Y40018000D01*
X72158681Y40018000D01*
X72158681Y39518000D01*
G37*
X72158681Y39518000D02*
X71878681Y39518000D01*
X71878681Y40018000D01*
X72158681Y40018000D01*
X72158681Y39518000D01*
D10*
X0Y0D02*
X173990000Y0D01*
X173990000Y0D02*
X173990000Y97790000D01*
X173990000Y97790000D02*
X0Y97790000D01*
X0Y97790000D02*
X0Y0D01*
D11*
%TO.C,IC1*%
X47946501Y40343900D02*
X47666501Y40343900D01*
X47666501Y40343900D02*
X47666501Y39843900D01*
X47666501Y39843900D02*
X47946501Y39843900D01*
X47946501Y39843900D02*
X47946501Y40343900D01*
G36*
X47946501Y39843900D02*
G01*
X47666501Y39843900D01*
X47666501Y40343900D01*
X47946501Y40343900D01*
X47946501Y39843900D01*
G37*
X47946501Y39843900D02*
X47666501Y39843900D01*
X47666501Y40343900D01*
X47946501Y40343900D01*
X47946501Y39843900D01*
X50986499Y40343900D02*
X51266499Y40343900D01*
X51266499Y40343900D02*
X51266499Y39843900D01*
X51266499Y39843900D02*
X50986499Y39843900D01*
X50986499Y39843900D02*
X50986499Y40343900D01*
G36*
X51266499Y39843900D02*
G01*
X50986499Y39843900D01*
X50986499Y40343900D01*
X51266499Y40343900D01*
X51266499Y39843900D01*
G37*
X51266499Y39843900D02*
X50986499Y39843900D01*
X50986499Y40343900D01*
X51266499Y40343900D01*
X51266499Y39843900D01*
%TO.C,IC2*%
X104783001Y40780000D02*
X104503001Y40780000D01*
X104503001Y40780000D02*
X104503001Y40280000D01*
X104503001Y40280000D02*
X104783001Y40280000D01*
X104783001Y40280000D02*
X104783001Y40780000D01*
G36*
X104783001Y40280000D02*
G01*
X104503001Y40280000D01*
X104503001Y40780000D01*
X104783001Y40780000D01*
X104783001Y40280000D01*
G37*
X104783001Y40280000D02*
X104503001Y40280000D01*
X104503001Y40780000D01*
X104783001Y40780000D01*
X104783001Y40280000D01*
X107822999Y40780000D02*
X108102999Y40780000D01*
X108102999Y40780000D02*
X108102999Y40280000D01*
X108102999Y40280000D02*
X107822999Y40280000D01*
X107822999Y40280000D02*
X107822999Y40780000D01*
G36*
X108102999Y40280000D02*
G01*
X107822999Y40280000D01*
X107822999Y40780000D01*
X108102999Y40780000D01*
X108102999Y40280000D01*
G37*
X108102999Y40280000D02*
X107822999Y40280000D01*
X107822999Y40780000D01*
X108102999Y40780000D01*
X108102999Y40280000D01*
%TO.C,IC3*%
X68838683Y40018000D02*
X68558683Y40018000D01*
X68558683Y40018000D02*
X68558683Y39518000D01*
X68558683Y39518000D02*
X68838683Y39518000D01*
X68838683Y39518000D02*
X68838683Y40018000D01*
G36*
X68838683Y39518000D02*
G01*
X68558683Y39518000D01*
X68558683Y40018000D01*
X68838683Y40018000D01*
X68838683Y39518000D01*
G37*
X68838683Y39518000D02*
X68558683Y39518000D01*
X68558683Y40018000D01*
X68838683Y40018000D01*
X68838683Y39518000D01*
X71878681Y40018000D02*
X72158681Y40018000D01*
X72158681Y40018000D02*
X72158681Y39518000D01*
X72158681Y39518000D02*
X71878681Y39518000D01*
X71878681Y39518000D02*
X71878681Y40018000D01*
G36*
X72158681Y39518000D02*
G01*
X71878681Y39518000D01*
X71878681Y40018000D01*
X72158681Y40018000D01*
X72158681Y39518000D01*
G37*
X72158681Y39518000D02*
X71878681Y39518000D01*
X71878681Y40018000D01*
X72158681Y40018000D01*
X72158681Y39518000D01*
%TD*%
D12*
%TO.C,JP2*%
X111506000Y56622000D03*
X111506000Y54082000D03*
%TD*%
D13*
%TO.C,TP15*%
X135890000Y5334000D03*
%TD*%
D14*
%TO.C,J21*%
X42954000Y4806000D03*
X46454000Y4806000D03*
%TD*%
D15*
%TO.C,R74*%
X47413000Y10902000D03*
X46313000Y10902000D03*
%TD*%
D16*
%TO.C,R14*%
X112574000Y37910000D03*
X112574000Y35510000D03*
%TD*%
D14*
%TO.C,J9*%
X110518000Y4806000D03*
X114018000Y4806000D03*
%TD*%
D17*
%TO.C,R64*%
X99659967Y78212000D03*
X102059967Y78212000D03*
%TD*%
D18*
%TO.C,R52*%
X31369000Y28428000D03*
X29469000Y28428000D03*
%TD*%
D19*
%TO.C,C13*%
X88900000Y11150000D03*
X88900000Y13950000D03*
%TD*%
D20*
%TO.C,J6*%
X159919000Y84278099D03*
X159919000Y86778099D03*
X159919000Y88778100D03*
X159919000Y91278100D03*
D21*
X162629000Y81208100D03*
X162629000Y94348099D03*
%TD*%
D16*
%TO.C,R11*%
X99977722Y45251812D03*
X99977722Y42851812D03*
%TD*%
D22*
%TO.C,R13*%
X102310000Y33424000D03*
X102310000Y35824000D03*
%TD*%
D16*
%TO.C,R45*%
X10593000Y29294000D03*
X10593000Y26894000D03*
%TD*%
D12*
%TO.C,JP15*%
X28595000Y74148000D03*
X31135000Y74148000D03*
%TD*%
D23*
%TO.C,J4-J2*%
X41529000Y70358000D03*
D24*
X41529000Y67818000D03*
X44069000Y70358000D03*
X44069000Y67818000D03*
X46609000Y70358000D03*
X46609000Y67818000D03*
X49149000Y70358000D03*
X49149000Y67818000D03*
X51689000Y70358000D03*
X51689000Y67818000D03*
X54229000Y70358000D03*
X54229000Y67818000D03*
X56769000Y70358000D03*
X56769000Y67818000D03*
X59309000Y70358000D03*
X59309000Y67818000D03*
X61849000Y70358000D03*
X61849000Y67818000D03*
X64389000Y70358000D03*
X64389000Y67818000D03*
%TD*%
D25*
%TO.C,J18*%
X21417992Y84691114D03*
D26*
X25227992Y84691114D03*
X29037992Y84691114D03*
X32847992Y84691114D03*
%TD*%
D19*
%TO.C,C39*%
X65814000Y11150000D03*
X65814000Y13950000D03*
%TD*%
D27*
%TO.C,LED1*%
X24511000Y30501000D03*
X23711000Y29231000D03*
X24511000Y27961000D03*
X23711000Y26691000D03*
%TD*%
D28*
%TO.C,C28*%
X153162000Y22586000D03*
X153162000Y20086000D03*
%TD*%
D29*
%TO.C,U12*%
X96774000Y11219500D03*
X96774000Y12616500D03*
%TD*%
D30*
%TO.C,C35*%
X148844000Y85155800D03*
X148844000Y83500200D03*
%TD*%
D25*
%TO.C,J4*%
X44214000Y92264000D03*
D26*
X48024000Y92264000D03*
X51834000Y92264000D03*
X55644000Y92264000D03*
%TD*%
D15*
%TO.C,R17*%
X92498000Y10902000D03*
X91398000Y10902000D03*
%TD*%
D12*
%TO.C,JP20*%
X60579000Y19772000D03*
X60579000Y17232000D03*
%TD*%
D17*
%TO.C,R67*%
X27711414Y80275456D03*
X30111414Y80275456D03*
%TD*%
D25*
%TO.C,J16*%
X4640753Y84691114D03*
D26*
X8450753Y84691114D03*
X12260753Y84691114D03*
X16070753Y84691114D03*
%TD*%
D17*
%TO.C,R63*%
X19878516Y80275456D03*
X22278516Y80275456D03*
%TD*%
D31*
%TO.C,R54*%
X92390463Y81883312D03*
X92390463Y83783312D03*
%TD*%
D32*
%TO.C,HS1*%
X125349000Y44958000D03*
%TD*%
D33*
%TO.C,J14*%
X32063753Y94145650D03*
D26*
X28253753Y94145650D03*
X24443753Y94145650D03*
X20633753Y94145650D03*
%TD*%
D34*
%TO.C,R43*%
X135128000Y65952000D03*
X135128000Y67652000D03*
%TD*%
D35*
%TO.C,R25*%
X16129000Y62024000D03*
X16129000Y68024000D03*
%TD*%
D36*
%TO.C,IC1*%
X53691574Y43065700D03*
X53041563Y43065700D03*
X52391551Y43065700D03*
X51741540Y43065700D03*
X51091528Y43065700D03*
X50441517Y43065700D03*
X49791506Y43065700D03*
X49141494Y43065700D03*
X48491483Y43065700D03*
X47841472Y43065700D03*
X47191460Y43065700D03*
X46541449Y43065700D03*
X45891437Y43065700D03*
X45241426Y43065700D03*
X45241426Y37122100D03*
X45891437Y37122100D03*
X46541449Y37122100D03*
X47191460Y37122100D03*
X47841472Y37122100D03*
X48491483Y37122100D03*
X49141494Y37122100D03*
X49791506Y37122100D03*
X50441517Y37122100D03*
X51091528Y37122100D03*
X51741540Y37122100D03*
X52391551Y37122100D03*
X53041563Y37122100D03*
X53691574Y37122100D03*
D37*
X49466500Y40093900D03*
%TD*%
D19*
%TO.C,C16*%
X76962000Y11150000D03*
X76962000Y13950000D03*
%TD*%
D38*
%TO.C,C31*%
X8506000Y31750000D03*
X11306000Y31750000D03*
%TD*%
%TO.C,C15*%
X8379000Y64242000D03*
X11179000Y64242000D03*
%TD*%
D39*
%TO.C,IC5*%
X36067779Y86189591D03*
X36717779Y86189591D03*
X37367779Y86189591D03*
X38017779Y86189591D03*
X38667779Y86189591D03*
X39317779Y86189591D03*
X39967779Y86189591D03*
X40617779Y86189591D03*
X40617779Y92065591D03*
X39967779Y92065591D03*
X39317779Y92065591D03*
X38667779Y92065591D03*
X38017779Y92065591D03*
X37367779Y92065591D03*
X36717779Y92065591D03*
X36067779Y92065591D03*
%TD*%
D40*
%TO.C,R35*%
X74234682Y48538900D03*
X76134682Y48538900D03*
%TD*%
D16*
%TO.C,R24*%
X10593000Y61806000D03*
X10593000Y59406000D03*
%TD*%
D41*
%TO.C,D3*%
X151638000Y27314000D03*
X151638000Y31614000D03*
%TD*%
D13*
%TO.C,TP7*%
X90982800Y30002800D03*
%TD*%
D12*
%TO.C,JP10*%
X127782000Y21336000D03*
X130322000Y21336000D03*
%TD*%
%TO.C,JP13*%
X105156000Y21042000D03*
X105156000Y18502000D03*
%TD*%
D38*
%TO.C,C14*%
X8633000Y47986000D03*
X11433000Y47986000D03*
%TD*%
D42*
%TO.C,R6*%
X47455000Y34599000D03*
X45055000Y34599000D03*
%TD*%
D35*
%TO.C,R31*%
X18161000Y15542000D03*
X18161000Y21542000D03*
%TD*%
D43*
%TO.C,R79*%
X68913000Y19284000D03*
X62913000Y19284000D03*
%TD*%
D44*
%TO.C,U11*%
X8699500Y34798000D03*
X10096500Y34798000D03*
%TD*%
D30*
%TO.C,C34*%
X38574010Y82964642D03*
X38574010Y81309042D03*
%TD*%
D36*
%TO.C,IC2*%
X110528074Y43501800D03*
X109878063Y43501800D03*
X109228051Y43501800D03*
X108578040Y43501800D03*
X107928028Y43501800D03*
X107278017Y43501800D03*
X106628006Y43501800D03*
X105977994Y43501800D03*
X105327983Y43501800D03*
X104677972Y43501800D03*
X104027960Y43501800D03*
X103377949Y43501800D03*
X102727937Y43501800D03*
X102077926Y43501800D03*
X102077926Y37558200D03*
X102727937Y37558200D03*
X103377949Y37558200D03*
X104027960Y37558200D03*
X104677972Y37558200D03*
X105327983Y37558200D03*
X105977994Y37558200D03*
X106628006Y37558200D03*
X107278017Y37558200D03*
X107928028Y37558200D03*
X108578040Y37558200D03*
X109228051Y37558200D03*
X109878063Y37558200D03*
X110528074Y37558200D03*
D37*
X106303000Y40530000D03*
%TD*%
D17*
%TO.C,R81*%
X57447000Y14383000D03*
X59847000Y14383000D03*
%TD*%
%TO.C,R75*%
X46172000Y14383000D03*
X48572000Y14383000D03*
%TD*%
D12*
%TO.C,JP8*%
X116614000Y21042000D03*
X116614000Y18502000D03*
%TD*%
D43*
%TO.C,R28*%
X80216000Y19284000D03*
X74216000Y19284000D03*
%TD*%
D15*
%TO.C,R26*%
X80814000Y10902000D03*
X79714000Y10902000D03*
%TD*%
D45*
%TO.C,D1*%
X135112060Y11991913D03*
X135112060Y9891913D03*
%TD*%
D25*
%TO.C,J19*%
X101044463Y82921000D03*
D26*
X104854463Y82921000D03*
X108664463Y82921000D03*
X112474463Y82921000D03*
%TD*%
D13*
%TO.C,TP3*%
X40386000Y31780800D03*
%TD*%
D23*
%TO.C,J8-J6*%
X105029000Y70358000D03*
D24*
X105029000Y67818000D03*
X107569000Y70358000D03*
X107569000Y67818000D03*
X110109000Y70358000D03*
X110109000Y67818000D03*
X112649000Y70358000D03*
X112649000Y67818000D03*
X115189000Y70358000D03*
X115189000Y67818000D03*
X117729000Y70358000D03*
X117729000Y67818000D03*
X120269000Y70358000D03*
X120269000Y67818000D03*
X122809000Y70358000D03*
X122809000Y67818000D03*
X125349000Y70358000D03*
X125349000Y67818000D03*
X127889000Y70358000D03*
X127889000Y67818000D03*
%TD*%
D12*
%TO.C,JP18*%
X49403000Y20026000D03*
X49403000Y17486000D03*
%TD*%
D15*
%TO.C,R71*%
X35729000Y10902000D03*
X34629000Y10902000D03*
%TD*%
D46*
%TO.C,IC4*%
X146656000Y54551000D03*
X144956000Y54551000D03*
X143256000Y54551000D03*
X141556000Y54551000D03*
X139856000Y54551000D03*
D47*
X143256000Y41336000D03*
D48*
X143256000Y44831000D03*
%TD*%
D14*
%TO.C,J23*%
X54178000Y4806000D03*
X57678000Y4806000D03*
%TD*%
D12*
%TO.C,JP11*%
X135128000Y72878000D03*
X135128000Y70338000D03*
%TD*%
D17*
%TO.C,R72*%
X34587000Y14383000D03*
X36987000Y14383000D03*
%TD*%
D19*
%TO.C,C37*%
X32131000Y11150000D03*
X32131000Y13950000D03*
%TD*%
D18*
%TO.C,R50*%
X31369000Y30714000D03*
X29469000Y30714000D03*
%TD*%
D49*
%TO.C,C30*%
X162306000Y75533250D03*
X162306000Y66440050D03*
%TD*%
D17*
%TO.C,R48*%
X102659000Y14383000D03*
X105059000Y14383000D03*
%TD*%
D13*
%TO.C,TP4*%
X96342200Y29723400D03*
%TD*%
D19*
%TO.C,C32*%
X100076000Y11150000D03*
X100076000Y13950000D03*
%TD*%
D43*
%TO.C,R19*%
X91900000Y19284000D03*
X85900000Y19284000D03*
%TD*%
D50*
%TO.C,U13*%
X94881700Y83698400D03*
X94881700Y82301400D03*
%TD*%
D13*
%TO.C,TP14*%
X171323000Y75672000D03*
%TD*%
D15*
%TO.C,R32*%
X114624000Y10902000D03*
X113524000Y10902000D03*
%TD*%
D29*
%TO.C,U17*%
X63020000Y11219500D03*
X63020000Y12616500D03*
%TD*%
D51*
%TO.C,U7*%
X3225800Y19264000D03*
X8458200Y16764000D03*
X3225800Y14264000D03*
%TD*%
D17*
%TO.C,R57*%
X7595753Y80275456D03*
X9995753Y80275456D03*
%TD*%
D44*
%TO.C,U4*%
X8864600Y51046700D03*
X10261600Y51046700D03*
%TD*%
D25*
%TO.C,J3*%
X60978000Y92264000D03*
D26*
X64788000Y92264000D03*
X68598000Y92264000D03*
X72408000Y92264000D03*
%TD*%
D52*
%TO.C,C2*%
X41592500Y39642800D03*
X41592500Y35642800D03*
%TD*%
D17*
%TO.C,R18*%
X91356000Y14383000D03*
X93756000Y14383000D03*
%TD*%
D53*
%TO.C,C23*%
X75250482Y45744900D03*
X73594882Y45744900D03*
%TD*%
D17*
%TO.C,R70*%
X111114611Y78212000D03*
X113514611Y78212000D03*
%TD*%
D54*
%TO.C,L2*%
X146939000Y76365100D03*
X146939000Y61328300D03*
%TD*%
D53*
%TO.C,C26*%
X141543800Y57912000D03*
X139888200Y57912000D03*
%TD*%
D55*
%TO.C,C17*%
X12192000Y18926000D03*
X12192000Y16126000D03*
%TD*%
D56*
%TO.C,R12*%
X98020722Y43201812D03*
X98020722Y45101812D03*
%TD*%
D23*
%TO.C,J1-J3*%
X41529000Y27178000D03*
D24*
X41529000Y24638000D03*
X44069000Y27178000D03*
X44069000Y24638000D03*
X46609000Y27178000D03*
X46609000Y24638000D03*
X49149000Y27178000D03*
X49149000Y24638000D03*
X51689000Y27178000D03*
X51689000Y24638000D03*
X54229000Y27178000D03*
X54229000Y24638000D03*
X56769000Y27178000D03*
X56769000Y24638000D03*
X59309000Y27178000D03*
X59309000Y24638000D03*
X61849000Y27178000D03*
X61849000Y24638000D03*
X64389000Y27178000D03*
X64389000Y24638000D03*
%TD*%
D57*
%TO.C,R23*%
X8636000Y59902000D03*
X8636000Y61002000D03*
%TD*%
D43*
%TO.C,R73*%
X35766000Y19284000D03*
X29766000Y19284000D03*
%TD*%
D13*
%TO.C,TP1*%
X75666600Y24999000D03*
%TD*%
D43*
%TO.C,R34*%
X114026000Y19284000D03*
X108026000Y19284000D03*
%TD*%
D28*
%TO.C,C19*%
X62458600Y48895000D03*
X62458600Y51395000D03*
%TD*%
D53*
%TO.C,C5*%
X54866300Y46024800D03*
X53210700Y46024800D03*
%TD*%
D28*
%TO.C,R16*%
X117729000Y15220000D03*
D58*
X127889000Y15220000D03*
%TD*%
D16*
%TO.C,R30*%
X13387000Y14308000D03*
X13387000Y11908000D03*
%TD*%
D29*
%TO.C,U16*%
X40668000Y11219500D03*
X40668000Y12616500D03*
%TD*%
D15*
%TO.C,R77*%
X69412000Y10902000D03*
X68312000Y10902000D03*
%TD*%
D59*
%TO.C,C21*%
X76708000Y54178000D03*
X76708000Y53518000D03*
%TD*%
D12*
%TO.C,JP12*%
X15728000Y26924000D03*
X13188000Y26924000D03*
%TD*%
D42*
%TO.C,R41*%
X76919000Y34853000D03*
X74519000Y34853000D03*
%TD*%
D60*
%TO.C,R42*%
X134620000Y20738000D03*
X134620000Y15838000D03*
%TD*%
D17*
%TO.C,R33*%
X113228000Y14383000D03*
X115628000Y14383000D03*
%TD*%
D61*
%TO.C,S2*%
X4826000Y66250000D03*
X4826000Y59850000D03*
%TD*%
D14*
%TO.C,J2*%
X149380000Y90386000D03*
X152880000Y90386000D03*
%TD*%
D43*
%TO.C,R49*%
X102822000Y19284000D03*
X96822000Y19284000D03*
%TD*%
D12*
%TO.C,JP14*%
X27031000Y23348000D03*
X24491000Y23348000D03*
%TD*%
D62*
%TO.C,C25*%
X139888200Y21336000D03*
X141543800Y21336000D03*
%TD*%
D61*
%TO.C,S1*%
X4826000Y49740000D03*
X4826000Y43340000D03*
%TD*%
D63*
%TO.C,L1*%
X146050000Y5118100D03*
X146050000Y15201900D03*
%TD*%
D64*
%TO.C,C33*%
X90551000Y86464700D03*
X90551000Y88120300D03*
%TD*%
D33*
%TO.C,J12*%
X15290753Y94145650D03*
D26*
X11480753Y94145650D03*
X7670753Y94145650D03*
X3860753Y94145650D03*
%TD*%
D65*
%TO.C,R9*%
X108688722Y52838612D03*
X108688722Y48165012D03*
%TD*%
D12*
%TO.C,JP4*%
X15728000Y42926000D03*
X13188000Y42926000D03*
%TD*%
D56*
%TO.C,R5*%
X41046400Y42210000D03*
X41046400Y44110000D03*
%TD*%
D65*
%TO.C,R3*%
X47688500Y52933600D03*
X47688500Y48260000D03*
%TD*%
D12*
%TO.C,JP16*%
X94869000Y73660000D03*
X94869000Y76200000D03*
%TD*%
%TO.C,JP5*%
X15728000Y59436000D03*
X13188000Y59436000D03*
%TD*%
D18*
%TO.C,R51*%
X31369000Y26396000D03*
X29469000Y26396000D03*
%TD*%
D25*
%TO.C,J17*%
X117545463Y82921000D03*
D26*
X121355463Y82921000D03*
X125165463Y82921000D03*
X128975463Y82921000D03*
%TD*%
D50*
%TO.C,U14*%
X40643967Y82865667D03*
X40643967Y81468667D03*
%TD*%
D28*
%TO.C,C1*%
X42354500Y48584800D03*
X42354500Y51084800D03*
%TD*%
%TO.C,C27*%
X160528000Y58186000D03*
X160528000Y60686000D03*
%TD*%
D40*
%TO.C,R1*%
X54104500Y49072800D03*
X56004500Y49072800D03*
%TD*%
D12*
%TO.C,JP9*%
X74676000Y56622000D03*
X74676000Y54082000D03*
%TD*%
D13*
%TO.C,TP10*%
X169926000Y23368000D03*
%TD*%
D44*
%TO.C,U1*%
X124269500Y18796000D03*
X125666500Y18796000D03*
%TD*%
D17*
%TO.C,R69*%
X31704789Y80275456D03*
X34104789Y80275456D03*
%TD*%
D16*
%TO.C,R38*%
X64187682Y44050900D03*
X64187682Y41650900D03*
%TD*%
D66*
%TO.C,C10*%
X101576722Y46183812D03*
X102236722Y46183812D03*
%TD*%
D13*
%TO.C,TP9*%
X80238600Y30536200D03*
%TD*%
D16*
%TO.C,R4*%
X43205400Y44330800D03*
X43205400Y41930800D03*
%TD*%
D67*
%TO.C,C3*%
X56908500Y51358800D03*
X56248500Y51358800D03*
%TD*%
D43*
%TO.C,R82*%
X57892000Y19284000D03*
X51892000Y19284000D03*
%TD*%
D44*
%TO.C,U8*%
X11747500Y21082000D03*
X13144500Y21082000D03*
%TD*%
D12*
%TO.C,JP7*%
X18141000Y12426000D03*
X15601000Y12426000D03*
%TD*%
D68*
%TO.C,U2*%
X121221500Y18776000D03*
X119824500Y18776000D03*
%TD*%
D69*
%TO.C,C29*%
X159258000Y5613400D03*
X159258000Y14706600D03*
%TD*%
D14*
%TO.C,J7*%
X87912000Y4806000D03*
X91412000Y4806000D03*
%TD*%
D57*
%TO.C,R20*%
X8636000Y43138000D03*
X8636000Y44238000D03*
%TD*%
D13*
%TO.C,TP12*%
X169926000Y15240000D03*
%TD*%
D17*
%TO.C,R61*%
X15571904Y80275456D03*
X17971904Y80275456D03*
%TD*%
D42*
%TO.C,R7*%
X56345000Y34853000D03*
X53945000Y34853000D03*
%TD*%
D66*
%TO.C,C22*%
X65964682Y45490900D03*
X66624682Y45490900D03*
%TD*%
D35*
%TO.C,R46*%
X16129000Y29512000D03*
X16129000Y35512000D03*
%TD*%
D65*
%TO.C,R37*%
X67818682Y53161700D03*
X67818682Y48488100D03*
%TD*%
D13*
%TO.C,TP11*%
X169926000Y7310735D03*
%TD*%
D12*
%TO.C,JP1*%
X54013100Y56622000D03*
X54013100Y54082000D03*
%TD*%
D19*
%TO.C,C38*%
X43561000Y11150000D03*
X43561000Y13950000D03*
%TD*%
D65*
%TO.C,R10*%
X105386722Y52838612D03*
X105386722Y48165012D03*
%TD*%
D35*
%TO.C,R22*%
X16129000Y45240000D03*
X16129000Y51240000D03*
%TD*%
D13*
%TO.C,TP8*%
X85648800Y30256800D03*
%TD*%
D52*
%TO.C,C8*%
X98528722Y40563812D03*
X98528722Y36563812D03*
%TD*%
D69*
%TO.C,C36*%
X139700000Y84232750D03*
X139700000Y93325950D03*
%TD*%
D45*
%TO.C,D2*%
X135128000Y63534000D03*
X135128000Y61434000D03*
%TD*%
D12*
%TO.C,JP6*%
X82550000Y21042000D03*
X82550000Y18502000D03*
%TD*%
D28*
%TO.C,R15*%
X117729000Y11918000D03*
D58*
X127889000Y11918000D03*
%TD*%
D28*
%TO.C,C7*%
X99036722Y50013812D03*
X99036722Y52513812D03*
%TD*%
D39*
%TO.C,IC6*%
X92147463Y86499312D03*
X92797463Y86499312D03*
X93447463Y86499312D03*
X94097463Y86499312D03*
X94747463Y86499312D03*
X95397463Y86499312D03*
X96047463Y86499312D03*
X96697463Y86499312D03*
X96697463Y92375312D03*
X96047463Y92375312D03*
X95397463Y92375312D03*
X94747463Y92375312D03*
X94097463Y92375312D03*
X93447463Y92375312D03*
X92797463Y92375312D03*
X92147463Y92375312D03*
%TD*%
D52*
%TO.C,C20*%
X62484682Y39108900D03*
X62484682Y35108900D03*
%TD*%
D12*
%TO.C,JP3*%
X94234000Y21042000D03*
X94234000Y18502000D03*
%TD*%
D17*
%TO.C,R66*%
X103444361Y78212000D03*
X105844361Y78212000D03*
%TD*%
D15*
%TO.C,R80*%
X58998000Y10902000D03*
X57898000Y10902000D03*
%TD*%
D17*
%TO.C,R78*%
X68270000Y14383000D03*
X70670000Y14383000D03*
%TD*%
D59*
%TO.C,C12*%
X111990722Y44227812D03*
X111990722Y43567812D03*
%TD*%
D70*
%TO.C,D4*%
X151638000Y51426000D03*
X151638000Y47126000D03*
%TD*%
D19*
%TO.C,C18*%
X110772000Y11150000D03*
X110772000Y13950000D03*
%TD*%
D17*
%TO.C,R58*%
X120179423Y78212000D03*
X122579423Y78212000D03*
%TD*%
D40*
%TO.C,R8*%
X111802722Y48977812D03*
X113702722Y48977812D03*
%TD*%
D14*
%TO.C,J1*%
X121948000Y4806000D03*
X125448000Y4806000D03*
%TD*%
D44*
%TO.C,U5*%
X8864600Y67302700D03*
X10261600Y67302700D03*
%TD*%
D71*
%TO.C,F1*%
X167901000Y34793300D03*
X157981000Y34793300D03*
X157981000Y28733300D03*
X167901000Y28733300D03*
%TD*%
D17*
%TO.C,R60*%
X124065520Y78212000D03*
X126465520Y78212000D03*
%TD*%
%TO.C,R68*%
X107292463Y78212000D03*
X109692463Y78212000D03*
%TD*%
D65*
%TO.C,R2*%
X50990500Y52933600D03*
X50990500Y48260000D03*
%TD*%
D72*
%TO.C,IC7*%
X146312000Y83490000D03*
X146812000Y83490000D03*
X147312000Y83490000D03*
X147312000Y85166000D03*
X146812000Y85166000D03*
X146312000Y85166000D03*
%TD*%
D36*
%TO.C,IC3*%
X74583756Y42739800D03*
X73933745Y42739800D03*
X73283733Y42739800D03*
X72633722Y42739800D03*
X71983710Y42739800D03*
X71333699Y42739800D03*
X70683688Y42739800D03*
X70033676Y42739800D03*
X69383665Y42739800D03*
X68733654Y42739800D03*
X68083642Y42739800D03*
X67433631Y42739800D03*
X66783619Y42739800D03*
X66133608Y42739800D03*
X66133608Y36796200D03*
X66783619Y36796200D03*
X67433631Y36796200D03*
X68083642Y36796200D03*
X68733654Y36796200D03*
X69383665Y36796200D03*
X70033676Y36796200D03*
X70683688Y36796200D03*
X71333699Y36796200D03*
X71983710Y36796200D03*
X72633722Y36796200D03*
X73283733Y36796200D03*
X73933745Y36796200D03*
X74583756Y36796200D03*
D37*
X70358682Y39768000D03*
%TD*%
D14*
%TO.C,J22*%
X65334000Y4806000D03*
X68834000Y4806000D03*
%TD*%
D29*
%TO.C,U9*%
X108077000Y11219500D03*
X108077000Y12616500D03*
%TD*%
D73*
%TO.C,R47*%
X102701000Y10902000D03*
X103801000Y10902000D03*
%TD*%
D14*
%TO.C,J11*%
X99088000Y4806000D03*
X102588000Y4806000D03*
%TD*%
D17*
%TO.C,R55*%
X3812141Y80275456D03*
X6212141Y80275456D03*
%TD*%
D19*
%TO.C,C40*%
X54991000Y11150000D03*
X54991000Y13950000D03*
%TD*%
D66*
%TO.C,C4*%
X44818500Y45516800D03*
X45478500Y45516800D03*
%TD*%
D29*
%TO.C,U18*%
X51689000Y11219500D03*
X51689000Y12616500D03*
%TD*%
D25*
%TO.C,J5*%
X77733000Y92264000D03*
D26*
X81543000Y92264000D03*
X85353000Y92264000D03*
X89163000Y92264000D03*
%TD*%
D17*
%TO.C,R62*%
X127996677Y78212000D03*
X130396677Y78212000D03*
%TD*%
D61*
%TO.C,S3*%
X4826000Y33484000D03*
X4826000Y27084000D03*
%TD*%
D74*
%TO.C,U10*%
X139852400Y24485600D03*
X141554200Y24485600D03*
X143256000Y24485600D03*
X144957800Y24485600D03*
X146659600Y24485600D03*
D75*
X143256000Y32766000D03*
%TD*%
D29*
%TO.C,U6*%
X74155300Y11219500D03*
X74155300Y12616500D03*
%TD*%
D17*
%TO.C,R56*%
X116400822Y78212000D03*
X118800822Y78212000D03*
%TD*%
D59*
%TO.C,C6*%
X55054500Y43814800D03*
X55054500Y43154800D03*
%TD*%
D13*
%TO.C,TP6*%
X78105000Y81691800D03*
%TD*%
D33*
%TO.C,J15*%
X111694463Y92511000D03*
D26*
X107884463Y92511000D03*
X104074463Y92511000D03*
X100264463Y92511000D03*
%TD*%
D16*
%TO.C,R21*%
X10593000Y45296000D03*
X10593000Y42896000D03*
%TD*%
D66*
%TO.C,C9*%
X113589000Y51542000D03*
X114249000Y51542000D03*
%TD*%
D53*
%TO.C,C11*%
X111802522Y46183812D03*
X110146922Y46183812D03*
%TD*%
D12*
%TO.C,JP19*%
X71247000Y21042000D03*
X71247000Y18502000D03*
%TD*%
D14*
%TO.C,J20*%
X31778000Y4806000D03*
X35278000Y4806000D03*
%TD*%
D22*
%TO.C,R40*%
X66242000Y32916000D03*
X66242000Y35316000D03*
%TD*%
D31*
%TO.C,R53*%
X36398166Y81115576D03*
X36398166Y83015576D03*
%TD*%
D56*
%TO.C,R39*%
X61976682Y42000900D03*
X61976682Y43900900D03*
%TD*%
D17*
%TO.C,R59*%
X11598225Y80275456D03*
X13998225Y80275456D03*
%TD*%
D43*
%TO.C,R76*%
X46462000Y19284000D03*
X40462000Y19284000D03*
%TD*%
D29*
%TO.C,U3*%
X85991700Y11219500D03*
X85991700Y12616500D03*
%TD*%
%TO.C,U15*%
X29337000Y11219500D03*
X29337000Y12616500D03*
%TD*%
D59*
%TO.C,C24*%
X75946682Y43788900D03*
X75946682Y43128900D03*
%TD*%
D14*
%TO.C,J8*%
X76482000Y4806000D03*
X79982000Y4806000D03*
%TD*%
D57*
%TO.C,R29*%
X11430000Y12658000D03*
X11430000Y13758000D03*
%TD*%
%TO.C,R44*%
X8636000Y27136000D03*
X8636000Y28236000D03*
%TD*%
D13*
%TO.C,TP5*%
X78105000Y76662600D03*
%TD*%
D65*
%TO.C,R36*%
X71120682Y53161700D03*
X71120682Y48488100D03*
%TD*%
D12*
%TO.C,JP17*%
X38227000Y19772000D03*
X38227000Y17232000D03*
%TD*%
D23*
%TO.C,J5-J7*%
X105029000Y27178000D03*
D24*
X105029000Y24638000D03*
X107569000Y27178000D03*
X107569000Y24638000D03*
X110109000Y27178000D03*
X110109000Y24638000D03*
X112649000Y27178000D03*
X112649000Y24638000D03*
X115189000Y27178000D03*
X115189000Y24638000D03*
X117729000Y27178000D03*
X117729000Y24638000D03*
X120269000Y27178000D03*
X120269000Y24638000D03*
X122809000Y27178000D03*
X122809000Y24638000D03*
X125349000Y27178000D03*
X125349000Y24638000D03*
X127889000Y27178000D03*
X127889000Y24638000D03*
%TD*%
D17*
%TO.C,R27*%
X79418000Y14383000D03*
X81818000Y14383000D03*
%TD*%
D13*
%TO.C,TP2*%
X36245800Y31323600D03*
%TD*%
D32*
%TO.C,HS2*%
X28321000Y48494000D03*
%TD*%
D17*
%TO.C,R65*%
X23922213Y80275456D03*
X26322213Y80275456D03*
%TD*%
D25*
%TO.C,J13*%
X117545463Y91111000D03*
D26*
X121355463Y91111000D03*
X125165463Y91111000D03*
X128975463Y91111000D03*
%TD*%
D76*
%TO.C,J10*%
X158922000Y46990000D03*
D77*
X164922000Y46990000D03*
D78*
X165922000Y51490000D03*
X165922000Y42490000D03*
%TD*%
D13*
%TO.C,TP13*%
X162052000Y21082000D03*
%TD*%
D79*
X28498800Y42474200D03*
D80*
X44132500Y46278800D03*
X109321600Y30434600D03*
X100814722Y47199812D03*
X97155000Y83546000D03*
D79*
X125349000Y45192000D03*
X22860000Y48392400D03*
X34163000Y42474200D03*
X106224922Y40618900D03*
D80*
X111658400Y30434600D03*
D79*
X65964482Y39674300D03*
X131013200Y45192000D03*
X25603200Y45522200D03*
X31267400Y51516600D03*
X131013200Y51186400D03*
X125349000Y51186400D03*
D80*
X65024682Y46252900D03*
X148844000Y82022000D03*
X33401000Y78034200D03*
D79*
X140411200Y35712400D03*
X34163000Y54386800D03*
X119710200Y51186400D03*
X31267400Y45522200D03*
D81*
X40526204Y84354635D03*
D79*
X125349000Y39273800D03*
X119710200Y39273800D03*
X119710200Y45192000D03*
X146050000Y35712400D03*
X53759100Y40132000D03*
D80*
X122809000Y16490000D03*
D79*
X140411200Y29794200D03*
X143154400Y45872400D03*
X128117600Y42321800D03*
X22860000Y42474200D03*
X25654000Y51516600D03*
X146050000Y29794200D03*
X102186322Y40618900D03*
X49568100Y40132000D03*
X70460282Y39674300D03*
X140411200Y48742600D03*
X22860000Y54386800D03*
X28498800Y48392400D03*
X110873122Y40618900D03*
X74651282Y39674300D03*
D80*
X76708000Y52070000D03*
D79*
X122504200Y48316200D03*
X45072300Y40132000D03*
X140411200Y42824400D03*
D80*
X132461000Y87102000D03*
D79*
X143154400Y32842200D03*
D80*
X29845000Y23348000D03*
D79*
X122453400Y42321800D03*
X28498800Y54386800D03*
X128117600Y48316200D03*
X146050000Y48742600D03*
X34163000Y48392400D03*
X146050000Y42824400D03*
X131013200Y39273800D03*
D80*
X45008800Y33025400D03*
X55245000Y33254000D03*
X112574000Y36631000D03*
X102235000Y34524000D03*
X90297000Y74910000D03*
X130937000Y73894000D03*
X133985000Y53320000D03*
X133985000Y58146000D03*
X31623000Y67798000D03*
X19939000Y68052000D03*
X31623000Y66274000D03*
X40747000Y58146000D03*
X38735000Y58146000D03*
X51752500Y46532800D03*
X36703000Y57861200D03*
X35433000Y59162000D03*
X50228500Y46532800D03*
X33883600Y58704800D03*
X35458400Y57180800D03*
X48704500Y46532800D03*
X47180500Y46532800D03*
X39629400Y54844000D03*
X37719000Y54844000D03*
X41783000Y37826000D03*
X62611000Y37064000D03*
X98679000Y38842000D03*
X57785000Y34768695D03*
X47523400Y31259500D03*
X58801000Y58146000D03*
X58801000Y55098000D03*
X67741800Y33000000D03*
X48387000Y33000000D03*
X104521000Y36048000D03*
X68707000Y24821200D03*
X57785000Y55098000D03*
X57785000Y58146000D03*
X101117400Y59766200D03*
X99568000Y61214000D03*
X108651222Y46691812D03*
X107164722Y46437812D03*
X87884000Y87884000D03*
X99288600Y59740800D03*
X87884000Y85217000D03*
X97790000Y61214000D03*
X105386722Y46437812D03*
X95504000Y61214000D03*
X86563200Y84023200D03*
X86614000Y86106000D03*
X97180400Y59690000D03*
X95402400Y59486800D03*
X93980000Y60960000D03*
X103862722Y46691812D03*
X104851200Y31222000D03*
X106502200Y33000000D03*
X110333000Y35615000D03*
X72390000Y61214000D03*
X72415400Y59334400D03*
D82*
X72390000Y46939200D03*
D80*
X70891400Y61214000D03*
X70891400Y86461600D03*
X70891400Y88163400D03*
D82*
X70764400Y46913800D03*
D80*
X70891400Y59359800D03*
X69342000Y86029800D03*
X69342000Y84226400D03*
X69342000Y61214000D03*
D82*
X69342000Y46913800D03*
D80*
X69316600Y59359800D03*
X67564000Y61214000D03*
D82*
X67589400Y46913800D03*
D80*
X67564000Y59385200D03*
X64389000Y32238000D03*
X69469000Y32746000D03*
X67132200Y26142000D03*
X70485000Y30708600D03*
X71145400Y27158000D03*
X71501000Y32181800D03*
X100584000Y28555000D03*
X74676000Y32746000D03*
X75819000Y34778000D03*
X66167000Y34270000D03*
X129159000Y18776000D03*
X101473000Y25888000D03*
X43103800Y86258400D03*
X43103800Y84556600D03*
X42545000Y82784000D03*
X109855000Y86340000D03*
X110617000Y81006000D03*
X109855000Y90658000D03*
X110617000Y75926000D03*
X106299000Y85832000D03*
X106807000Y81006000D03*
X106299000Y89896000D03*
X106807000Y75926000D03*
X102997000Y85832000D03*
X102997000Y81006000D03*
X102997000Y75926000D03*
X96139000Y90150000D03*
X132461000Y80752000D03*
X145923000Y82276000D03*
X133731000Y79990000D03*
X146761200Y80594200D03*
X90322400Y55092600D03*
X88519000Y55092600D03*
X92303600Y55092600D03*
X66116200Y28803600D03*
X64897000Y29870400D03*
X113715800Y55194200D03*
X115755000Y55098000D03*
X118389400Y55143400D03*
G36*
X114024962Y11285851D02*
G01*
X114062034Y11261080D01*
X114108294Y11270283D01*
X114120965Y11282954D01*
X114122897Y11283472D01*
X114124311Y11282058D01*
X114124042Y11280429D01*
X114110086Y11259542D01*
X114098600Y11201801D01*
X114098600Y10602199D01*
X114110086Y10544458D01*
X114125812Y10520923D01*
X114125943Y10518927D01*
X114124280Y10517816D01*
X114123038Y10518149D01*
X114085966Y10542920D01*
X114039706Y10533717D01*
X114027035Y10521046D01*
X114025103Y10520528D01*
X114023689Y10521942D01*
X114023958Y10523571D01*
X114037914Y10544458D01*
X114049400Y10602199D01*
X114049400Y11201801D01*
X114037914Y11259542D01*
X114022188Y11283077D01*
X114022057Y11285073D01*
X114023720Y11286184D01*
X114024962Y11285851D01*
G37*
G36*
X35129962Y11285851D02*
G01*
X35167034Y11261080D01*
X35213294Y11270283D01*
X35225965Y11282954D01*
X35227897Y11283472D01*
X35229311Y11282058D01*
X35229042Y11280429D01*
X35215086Y11259542D01*
X35203600Y11201801D01*
X35203600Y10602199D01*
X35215086Y10544458D01*
X35230812Y10520923D01*
X35230943Y10518927D01*
X35229280Y10517816D01*
X35228038Y10518149D01*
X35190966Y10542920D01*
X35144706Y10533717D01*
X35132035Y10521046D01*
X35130103Y10520528D01*
X35128689Y10521942D01*
X35128958Y10523571D01*
X35142914Y10544458D01*
X35154400Y10602199D01*
X35154400Y11201801D01*
X35142914Y11259542D01*
X35127188Y11283077D01*
X35127057Y11285073D01*
X35128720Y11286184D01*
X35129962Y11285851D01*
G37*
G36*
X58398962Y11285851D02*
G01*
X58436034Y11261080D01*
X58482294Y11270283D01*
X58494965Y11282954D01*
X58496897Y11283472D01*
X58498311Y11282058D01*
X58498042Y11280429D01*
X58484086Y11259542D01*
X58472600Y11201801D01*
X58472600Y10602199D01*
X58484086Y10544458D01*
X58499812Y10520923D01*
X58499943Y10518927D01*
X58498280Y10517816D01*
X58497038Y10518149D01*
X58459966Y10542920D01*
X58413706Y10533717D01*
X58401035Y10521046D01*
X58399103Y10520528D01*
X58397689Y10521942D01*
X58397958Y10523571D01*
X58411914Y10544458D01*
X58423400Y10602199D01*
X58423400Y11201801D01*
X58411914Y11259542D01*
X58396188Y11283077D01*
X58396057Y11285073D01*
X58397720Y11286184D01*
X58398962Y11285851D01*
G37*
G36*
X91898962Y11285851D02*
G01*
X91936034Y11261080D01*
X91982294Y11270283D01*
X91994965Y11282954D01*
X91996897Y11283472D01*
X91998311Y11282058D01*
X91998042Y11280429D01*
X91984086Y11259542D01*
X91972600Y11201801D01*
X91972600Y10602199D01*
X91984086Y10544458D01*
X91999812Y10520923D01*
X91999943Y10518927D01*
X91998280Y10517816D01*
X91997038Y10518149D01*
X91959966Y10542920D01*
X91913706Y10533717D01*
X91901035Y10521046D01*
X91899103Y10520528D01*
X91897689Y10521942D01*
X91897958Y10523571D01*
X91911914Y10544458D01*
X91923400Y10602199D01*
X91923400Y11201801D01*
X91911914Y11259542D01*
X91896188Y11283077D01*
X91896057Y11285073D01*
X91897720Y11286184D01*
X91898962Y11285851D01*
G37*
G36*
X80214962Y11285851D02*
G01*
X80252034Y11261080D01*
X80298294Y11270283D01*
X80310965Y11282954D01*
X80312897Y11283472D01*
X80314311Y11282058D01*
X80314042Y11280429D01*
X80300086Y11259542D01*
X80288600Y11201801D01*
X80288600Y10602199D01*
X80300086Y10544458D01*
X80315812Y10520923D01*
X80315943Y10518927D01*
X80314280Y10517816D01*
X80313038Y10518149D01*
X80275966Y10542920D01*
X80229706Y10533717D01*
X80217035Y10521046D01*
X80215103Y10520528D01*
X80213689Y10521942D01*
X80213958Y10523571D01*
X80227914Y10544458D01*
X80239400Y10602199D01*
X80239400Y11201801D01*
X80227914Y11259542D01*
X80212188Y11283077D01*
X80212057Y11285073D01*
X80213720Y11286184D01*
X80214962Y11285851D01*
G37*
G36*
X46813962Y11285851D02*
G01*
X46851034Y11261080D01*
X46897294Y11270283D01*
X46909965Y11282954D01*
X46911897Y11283472D01*
X46913311Y11282058D01*
X46913042Y11280429D01*
X46899086Y11259542D01*
X46887600Y11201801D01*
X46887600Y10602199D01*
X46899086Y10544458D01*
X46914812Y10520923D01*
X46914943Y10518927D01*
X46913280Y10517816D01*
X46912038Y10518149D01*
X46874966Y10542920D01*
X46828706Y10533717D01*
X46816035Y10521046D01*
X46814103Y10520528D01*
X46812689Y10521942D01*
X46812958Y10523571D01*
X46826914Y10544458D01*
X46838400Y10602199D01*
X46838400Y11201801D01*
X46826914Y11259542D01*
X46811188Y11283077D01*
X46811057Y11285073D01*
X46812720Y11286184D01*
X46813962Y11285851D01*
G37*
G36*
X68812962Y11285851D02*
G01*
X68850034Y11261080D01*
X68896294Y11270283D01*
X68908965Y11282954D01*
X68910897Y11283472D01*
X68912311Y11282058D01*
X68912042Y11280429D01*
X68898086Y11259542D01*
X68886600Y11201801D01*
X68886600Y10602199D01*
X68898086Y10544458D01*
X68913812Y10520923D01*
X68913943Y10518927D01*
X68912280Y10517816D01*
X68911038Y10518149D01*
X68873966Y10542920D01*
X68827706Y10533717D01*
X68815035Y10521046D01*
X68813103Y10520528D01*
X68811689Y10521942D01*
X68811958Y10523571D01*
X68825914Y10544458D01*
X68837400Y10602199D01*
X68837400Y11201801D01*
X68825914Y11259542D01*
X68810188Y11283077D01*
X68810057Y11285073D01*
X68811720Y11286184D01*
X68812962Y11285851D01*
G37*
G36*
X103201962Y11285851D02*
G01*
X103239034Y11261080D01*
X103285294Y11270283D01*
X103297965Y11282954D01*
X103299897Y11283472D01*
X103301311Y11282058D01*
X103301042Y11280429D01*
X103287086Y11259542D01*
X103275600Y11201801D01*
X103275600Y10602199D01*
X103287086Y10544458D01*
X103302812Y10520923D01*
X103302943Y10518927D01*
X103301280Y10517816D01*
X103300038Y10518149D01*
X103262966Y10542920D01*
X103216706Y10533717D01*
X103204035Y10521046D01*
X103202103Y10520528D01*
X103200689Y10521942D01*
X103200958Y10523571D01*
X103214914Y10544458D01*
X103226400Y10602199D01*
X103226400Y11201801D01*
X103214914Y11259542D01*
X103199188Y11283077D01*
X103199057Y11285073D01*
X103200720Y11286184D01*
X103201962Y11285851D01*
G37*
G36*
X11814184Y13258280D02*
G01*
X11813851Y13257038D01*
X11789080Y13219966D01*
X11798283Y13173706D01*
X11810954Y13161035D01*
X11811472Y13159103D01*
X11810058Y13157689D01*
X11808429Y13157958D01*
X11787542Y13171914D01*
X11729801Y13183400D01*
X11130199Y13183400D01*
X11072458Y13171914D01*
X11048923Y13156188D01*
X11046927Y13156057D01*
X11045816Y13157720D01*
X11046149Y13158962D01*
X11070920Y13196034D01*
X11061717Y13242294D01*
X11049046Y13254965D01*
X11048528Y13256897D01*
X11049942Y13258311D01*
X11051571Y13258042D01*
X11072458Y13244086D01*
X11130199Y13232600D01*
X11729801Y13232600D01*
X11787542Y13244086D01*
X11811077Y13259812D01*
X11813073Y13259943D01*
X11814184Y13258280D01*
G37*
G36*
X23903842Y27524015D02*
G01*
X23916476Y27503154D01*
X24032684Y27382818D01*
X24172667Y27291215D01*
X24329469Y27232901D01*
X24380823Y27226049D01*
X24382408Y27224829D01*
X24382144Y27222847D01*
X24381073Y27222134D01*
X24335907Y27210117D01*
X24312338Y27169457D01*
X24321019Y27129308D01*
X24320407Y27127403D01*
X24318453Y27126981D01*
X24317368Y27127825D01*
X24299073Y27157103D01*
X24181199Y27275803D01*
X24039945Y27365445D01*
X23882352Y27421561D01*
X23840798Y27426516D01*
X23839197Y27427714D01*
X23839434Y27429700D01*
X23840494Y27430427D01*
X23885488Y27443075D01*
X23908496Y27484075D01*
X23900176Y27522556D01*
X23900788Y27524461D01*
X23902742Y27524883D01*
X23903842Y27524015D01*
G37*
G36*
X9020184Y27736280D02*
G01*
X9019851Y27735038D01*
X8995080Y27697966D01*
X9004283Y27651706D01*
X9016954Y27639035D01*
X9017472Y27637103D01*
X9016058Y27635689D01*
X9014429Y27635958D01*
X8993542Y27649914D01*
X8935801Y27661400D01*
X8336199Y27661400D01*
X8278458Y27649914D01*
X8254923Y27634188D01*
X8252927Y27634057D01*
X8251816Y27635720D01*
X8252149Y27636962D01*
X8276920Y27674034D01*
X8267717Y27720294D01*
X8255046Y27732965D01*
X8254528Y27734897D01*
X8255942Y27736311D01*
X8257571Y27736042D01*
X8278458Y27722086D01*
X8336199Y27710600D01*
X8935801Y27710600D01*
X8993542Y27722086D01*
X9017077Y27737812D01*
X9019073Y27737943D01*
X9020184Y27736280D01*
G37*
G36*
X24321387Y28796757D02*
G01*
X24321559Y28795483D01*
X24312561Y28749619D01*
X24338773Y28710610D01*
X24378665Y28700812D01*
X24380109Y28699428D01*
X24379632Y28697486D01*
X24378397Y28696881D01*
X24349865Y28693882D01*
X24191500Y28639971D01*
X24049016Y28552314D01*
X23929491Y28435267D01*
X23903450Y28394860D01*
X23901671Y28393945D01*
X23899990Y28395029D01*
X23899801Y28396301D01*
X23908158Y28442284D01*
X23881394Y28480936D01*
X23843157Y28490328D01*
X23841713Y28491712D01*
X23842190Y28493654D01*
X23843453Y28494262D01*
X23861888Y28495940D01*
X24020988Y28547634D01*
X24164685Y28633295D01*
X24285828Y28748658D01*
X24317930Y28796975D01*
X24319722Y28797864D01*
X24321387Y28796757D01*
G37*
G36*
X23903842Y30064015D02*
G01*
X23916476Y30043154D01*
X24032684Y29922818D01*
X24172667Y29831215D01*
X24329469Y29772901D01*
X24380823Y29766049D01*
X24382408Y29764829D01*
X24382144Y29762847D01*
X24381073Y29762134D01*
X24335907Y29750117D01*
X24312338Y29709457D01*
X24321019Y29669308D01*
X24320407Y29667403D01*
X24318453Y29666981D01*
X24317368Y29667825D01*
X24299073Y29697103D01*
X24181199Y29815803D01*
X24039945Y29905445D01*
X23882352Y29961561D01*
X23840798Y29966516D01*
X23839197Y29967714D01*
X23839434Y29969700D01*
X23840494Y29970427D01*
X23885488Y29983075D01*
X23908496Y30024075D01*
X23900176Y30062556D01*
X23900788Y30064461D01*
X23902742Y30064883D01*
X23903842Y30064015D01*
G37*
G36*
X67196383Y32962283D02*
G01*
X67210172Y32857550D01*
X67265154Y32724810D01*
X67339551Y32627854D01*
X67339812Y32625871D01*
X67338225Y32624653D01*
X67336618Y32625157D01*
X67322640Y32637876D01*
X67322326Y32638239D01*
X67309166Y32657823D01*
X67269707Y32684039D01*
X67223690Y32674761D01*
X67197531Y32635387D01*
X67196391Y32623660D01*
X67195228Y32622032D01*
X67193237Y32622226D01*
X67192400Y32623853D01*
X67192400Y32962022D01*
X67193400Y32963754D01*
X67195400Y32963754D01*
X67196383Y32962283D01*
G37*
G36*
X67343359Y33378221D02*
G01*
X67342983Y33376618D01*
X67265154Y33275190D01*
X67210172Y33142450D01*
X67196383Y33037717D01*
X67195165Y33036130D01*
X67193182Y33036391D01*
X67192400Y33037978D01*
X67192400Y33315801D01*
X67186307Y33346431D01*
X67186950Y33348325D01*
X67188912Y33348715D01*
X67189932Y33347932D01*
X67214701Y33310863D01*
X67260757Y33301702D01*
X67299315Y33326813D01*
X67329996Y33370469D01*
X67330317Y33370826D01*
X67340081Y33379343D01*
X67342044Y33379728D01*
X67343359Y33378221D01*
G37*
G36*
X45263902Y33647600D02*
G01*
X45263902Y33645600D01*
X45262935Y33644752D01*
X45218802Y33626472D01*
X45200838Y33583102D01*
X45218906Y33539480D01*
X45233525Y33528683D01*
X45245792Y33522188D01*
X45246855Y33520493D01*
X45245919Y33518726D01*
X45244091Y33518572D01*
X45151250Y33557028D01*
X45008800Y33575783D01*
X44866350Y33557028D01*
X44775841Y33519538D01*
X44773858Y33519799D01*
X44773093Y33521647D01*
X44774159Y33523163D01*
X44784051Y33528269D01*
X44814630Y33564454D01*
X44810701Y33611232D01*
X44774642Y33641704D01*
X44755891Y33644624D01*
X44754334Y33645878D01*
X44754641Y33647855D01*
X44756199Y33648600D01*
X45262170Y33648600D01*
X45263902Y33647600D01*
G37*
G36*
X101882098Y34106985D02*
G01*
X101959810Y34047354D01*
X102092550Y33992372D01*
X102198802Y33978383D01*
X102200389Y33977165D01*
X102200128Y33975182D01*
X102198541Y33974400D01*
X101858514Y33974400D01*
X101856782Y33975400D01*
X101856782Y33977400D01*
X101857749Y33978248D01*
X101901882Y33996528D01*
X101919836Y34039873D01*
X101899589Y34085669D01*
X101879534Y34103919D01*
X101878926Y34105824D01*
X101880272Y34107303D01*
X101882098Y34106985D01*
G37*
G36*
X102585775Y34101570D02*
G01*
X102585091Y34099788D01*
X102570025Y34086921D01*
X102548518Y34044711D01*
X102563024Y34000066D01*
X102605199Y33978577D01*
X102609742Y33978398D01*
X102611433Y33977331D01*
X102611354Y33975333D01*
X102609663Y33974400D01*
X102271459Y33974400D01*
X102269727Y33975400D01*
X102269727Y33977400D01*
X102271198Y33978383D01*
X102377450Y33992372D01*
X102510190Y34047354D01*
X102582574Y34102896D01*
X102584557Y34103157D01*
X102585775Y34101570D01*
G37*
G36*
X76367818Y34743128D02*
G01*
X76368600Y34741541D01*
X76368600Y34403895D01*
X76367600Y34402163D01*
X76365600Y34402163D01*
X76364752Y34403130D01*
X76346472Y34447263D01*
X76303102Y34465227D01*
X76259412Y34447131D01*
X76253112Y34439714D01*
X76226902Y34403240D01*
X76226577Y34402886D01*
X76218982Y34396399D01*
X76217015Y34396035D01*
X76215716Y34397555D01*
X76216096Y34399138D01*
X76295646Y34502810D01*
X76350628Y34635550D01*
X76364617Y34741802D01*
X76365835Y34743389D01*
X76367818Y34743128D01*
G37*
G36*
X76222453Y35155090D02*
G01*
X76234342Y35144497D01*
X76234660Y35144137D01*
X76252192Y35118627D01*
X76291923Y35092825D01*
X76337841Y35102585D01*
X76363590Y35142234D01*
X76364608Y35153316D01*
X76365763Y35154949D01*
X76367754Y35154766D01*
X76368600Y35153133D01*
X76368600Y34814459D01*
X76367600Y34812727D01*
X76365600Y34812727D01*
X76364617Y34814198D01*
X76350628Y34920450D01*
X76295646Y35053190D01*
X76219536Y35152379D01*
X76219275Y35154362D01*
X76220862Y35155580D01*
X76222453Y35155090D01*
G37*
G36*
X112221095Y36213987D02*
G01*
X112298810Y36154354D01*
X112431550Y36099372D01*
X112574000Y36080617D01*
X112716450Y36099372D01*
X112849190Y36154354D01*
X112921575Y36209897D01*
X112923558Y36210158D01*
X112924776Y36208571D01*
X112924092Y36206789D01*
X112884437Y36172921D01*
X112862930Y36130711D01*
X112877436Y36086066D01*
X112919611Y36064577D01*
X112924154Y36064398D01*
X112925845Y36063331D01*
X112925766Y36061333D01*
X112924075Y36060400D01*
X112222869Y36060400D01*
X112221137Y36061400D01*
X112221137Y36063400D01*
X112222104Y36064248D01*
X112266237Y36082528D01*
X112284201Y36125898D01*
X112266131Y36169525D01*
X112254459Y36178240D01*
X112254310Y36178364D01*
X112218531Y36210921D01*
X112217923Y36212826D01*
X112219269Y36214305D01*
X112221095Y36213987D01*
G37*
G36*
X69659633Y37518634D02*
G01*
X69696705Y37493863D01*
X69742965Y37503066D01*
X69755633Y37515734D01*
X69757565Y37516252D01*
X69758979Y37514838D01*
X69758710Y37513209D01*
X69742362Y37488742D01*
X69730876Y37431001D01*
X69730876Y36161399D01*
X69742362Y36103658D01*
X69760481Y36076540D01*
X69760612Y36074544D01*
X69758949Y36073433D01*
X69757707Y36073766D01*
X69720638Y36098537D01*
X69674378Y36089335D01*
X69661706Y36076663D01*
X69659774Y36076145D01*
X69658360Y36077559D01*
X69658629Y36079188D01*
X69674979Y36103658D01*
X69686465Y36161399D01*
X69686465Y37431001D01*
X69674979Y37488742D01*
X69656859Y37515860D01*
X69656728Y37517856D01*
X69658391Y37518967D01*
X69659633Y37518634D01*
G37*
G36*
X69009622Y37518634D02*
G01*
X69046694Y37493863D01*
X69092954Y37503066D01*
X69105622Y37515734D01*
X69107554Y37516252D01*
X69108968Y37514838D01*
X69108699Y37513209D01*
X69092351Y37488742D01*
X69080865Y37431001D01*
X69080865Y36161399D01*
X69092351Y36103658D01*
X69110470Y36076540D01*
X69110601Y36074544D01*
X69108938Y36073433D01*
X69107696Y36073766D01*
X69070627Y36098537D01*
X69024367Y36089335D01*
X69011695Y36076663D01*
X69009763Y36076145D01*
X69008349Y36077559D01*
X69008618Y36079188D01*
X69024968Y36103658D01*
X69036454Y36161399D01*
X69036454Y37431001D01*
X69024968Y37488742D01*
X69006848Y37515860D01*
X69006717Y37517856D01*
X69008380Y37518967D01*
X69009622Y37518634D01*
G37*
G36*
X71609667Y37518634D02*
G01*
X71646739Y37493863D01*
X71692999Y37503066D01*
X71705667Y37515734D01*
X71707599Y37516252D01*
X71709013Y37514838D01*
X71708744Y37513209D01*
X71692396Y37488742D01*
X71680910Y37431001D01*
X71680910Y36161399D01*
X71692396Y36103658D01*
X71710515Y36076540D01*
X71710646Y36074544D01*
X71708983Y36073433D01*
X71707741Y36073766D01*
X71670672Y36098537D01*
X71624412Y36089335D01*
X71611740Y36076663D01*
X71609808Y36076145D01*
X71608394Y36077559D01*
X71608663Y36079188D01*
X71625013Y36103658D01*
X71636499Y36161399D01*
X71636499Y37431001D01*
X71625013Y37488742D01*
X71606893Y37515860D01*
X71606762Y37517856D01*
X71608425Y37518967D01*
X71609667Y37518634D01*
G37*
G36*
X67709599Y37518634D02*
G01*
X67746671Y37493863D01*
X67792931Y37503066D01*
X67805599Y37515734D01*
X67807531Y37516252D01*
X67808945Y37514838D01*
X67808676Y37513209D01*
X67792328Y37488742D01*
X67780842Y37431001D01*
X67780842Y36161399D01*
X67792328Y36103658D01*
X67810447Y36076540D01*
X67810578Y36074544D01*
X67808915Y36073433D01*
X67807673Y36073766D01*
X67770604Y36098537D01*
X67724344Y36089335D01*
X67711672Y36076663D01*
X67709740Y36076145D01*
X67708326Y36077559D01*
X67708595Y36079188D01*
X67724945Y36103658D01*
X67736431Y36161399D01*
X67736431Y37431001D01*
X67724945Y37488742D01*
X67706825Y37515860D01*
X67706694Y37517856D01*
X67708357Y37518967D01*
X67709599Y37518634D01*
G37*
G36*
X67059587Y37518634D02*
G01*
X67096659Y37493863D01*
X67142919Y37503066D01*
X67155590Y37515737D01*
X67157522Y37516255D01*
X67158936Y37514841D01*
X67158667Y37513212D01*
X67142317Y37488742D01*
X67130831Y37431001D01*
X67130831Y36161399D01*
X67142317Y36103658D01*
X67160437Y36076540D01*
X67160568Y36074544D01*
X67158905Y36073433D01*
X67157663Y36073766D01*
X67120591Y36098537D01*
X67074331Y36089334D01*
X67061660Y36076663D01*
X67059728Y36076145D01*
X67058314Y36077559D01*
X67058583Y36079188D01*
X67074933Y36103658D01*
X67086419Y36161399D01*
X67086419Y37431001D01*
X67074933Y37488742D01*
X67056813Y37515860D01*
X67056682Y37517856D01*
X67058345Y37518967D01*
X67059587Y37518634D01*
G37*
G36*
X72259678Y37518634D02*
G01*
X72296750Y37493863D01*
X72343010Y37503066D01*
X72355681Y37515737D01*
X72357613Y37516255D01*
X72359027Y37514841D01*
X72358758Y37513212D01*
X72342408Y37488742D01*
X72330922Y37431001D01*
X72330922Y36161399D01*
X72342408Y36103658D01*
X72360528Y36076540D01*
X72360659Y36074544D01*
X72358996Y36073433D01*
X72357754Y36073766D01*
X72320682Y36098537D01*
X72274422Y36089334D01*
X72261751Y36076663D01*
X72259819Y36076145D01*
X72258405Y36077559D01*
X72258674Y36079188D01*
X72275024Y36103658D01*
X72286510Y36161399D01*
X72286510Y37431001D01*
X72275024Y37488742D01*
X72256904Y37515860D01*
X72256773Y37517856D01*
X72258436Y37518967D01*
X72259678Y37518634D01*
G37*
G36*
X74209713Y37518634D02*
G01*
X74246785Y37493863D01*
X74293045Y37503066D01*
X74305713Y37515734D01*
X74307645Y37516252D01*
X74309059Y37514838D01*
X74308790Y37513209D01*
X74292442Y37488742D01*
X74280956Y37431001D01*
X74280956Y36161399D01*
X74292442Y36103658D01*
X74310561Y36076540D01*
X74310692Y36074544D01*
X74309029Y36073433D01*
X74307787Y36073766D01*
X74270718Y36098537D01*
X74224458Y36089335D01*
X74211786Y36076663D01*
X74209854Y36076145D01*
X74208440Y36077559D01*
X74208709Y36079188D01*
X74225059Y36103658D01*
X74236545Y36161399D01*
X74236545Y37431001D01*
X74225059Y37488742D01*
X74206939Y37515860D01*
X74206808Y37517856D01*
X74208471Y37518967D01*
X74209713Y37518634D01*
G37*
G36*
X72909690Y37518634D02*
G01*
X72946762Y37493863D01*
X72993022Y37503066D01*
X73005690Y37515734D01*
X73007622Y37516252D01*
X73009036Y37514838D01*
X73008767Y37513209D01*
X72992419Y37488742D01*
X72980933Y37431001D01*
X72980933Y36161399D01*
X72992419Y36103658D01*
X73010538Y36076540D01*
X73010669Y36074544D01*
X73009006Y36073433D01*
X73007764Y36073766D01*
X72970695Y36098537D01*
X72924435Y36089335D01*
X72911763Y36076663D01*
X72909831Y36076145D01*
X72908417Y36077559D01*
X72908686Y36079188D01*
X72925036Y36103658D01*
X72936522Y36161399D01*
X72936522Y37431001D01*
X72925036Y37488742D01*
X72906916Y37515860D01*
X72906785Y37517856D01*
X72908448Y37518967D01*
X72909690Y37518634D01*
G37*
G36*
X73559701Y37518634D02*
G01*
X73596773Y37493863D01*
X73643033Y37503066D01*
X73655704Y37515737D01*
X73657636Y37516255D01*
X73659050Y37514841D01*
X73658781Y37513212D01*
X73642431Y37488742D01*
X73630945Y37431001D01*
X73630945Y36161399D01*
X73642431Y36103658D01*
X73660551Y36076540D01*
X73660682Y36074544D01*
X73659019Y36073433D01*
X73657777Y36073766D01*
X73620705Y36098537D01*
X73574445Y36089334D01*
X73561774Y36076663D01*
X73559842Y36076145D01*
X73558428Y36077559D01*
X73558697Y36079188D01*
X73575047Y36103658D01*
X73586533Y36161399D01*
X73586533Y37431001D01*
X73575047Y37488742D01*
X73556927Y37515860D01*
X73556796Y37517856D01*
X73558459Y37518967D01*
X73559701Y37518634D01*
G37*
G36*
X66409576Y37518634D02*
G01*
X66446648Y37493863D01*
X66492908Y37503066D01*
X66505576Y37515734D01*
X66507508Y37516252D01*
X66508922Y37514838D01*
X66508653Y37513209D01*
X66492305Y37488742D01*
X66480819Y37431001D01*
X66480819Y36161399D01*
X66492305Y36103658D01*
X66510424Y36076540D01*
X66510555Y36074544D01*
X66508892Y36073433D01*
X66507650Y36073766D01*
X66470581Y36098537D01*
X66424321Y36089335D01*
X66411649Y36076663D01*
X66409717Y36076145D01*
X66408303Y36077559D01*
X66408572Y36079188D01*
X66424922Y36103658D01*
X66436408Y36161399D01*
X66436408Y37431001D01*
X66424922Y37488742D01*
X66406802Y37515860D01*
X66406671Y37517856D01*
X66408334Y37518967D01*
X66409576Y37518634D01*
G37*
G36*
X68359610Y37518634D02*
G01*
X68396682Y37493863D01*
X68442942Y37503066D01*
X68455613Y37515737D01*
X68457545Y37516255D01*
X68458959Y37514841D01*
X68458690Y37513212D01*
X68442340Y37488742D01*
X68430854Y37431001D01*
X68430854Y36161399D01*
X68442340Y36103658D01*
X68460460Y36076540D01*
X68460591Y36074544D01*
X68458928Y36073433D01*
X68457686Y36073766D01*
X68420614Y36098537D01*
X68374354Y36089334D01*
X68361683Y36076663D01*
X68359751Y36076145D01*
X68358337Y36077559D01*
X68358606Y36079188D01*
X68374956Y36103658D01*
X68386442Y36161399D01*
X68386442Y37431001D01*
X68374956Y37488742D01*
X68356836Y37515860D01*
X68356705Y37517856D01*
X68358368Y37518967D01*
X68359610Y37518634D01*
G37*
G36*
X70309644Y37518634D02*
G01*
X70346716Y37493863D01*
X70392976Y37503066D01*
X70405647Y37515737D01*
X70407579Y37516255D01*
X70408993Y37514841D01*
X70408724Y37513212D01*
X70392374Y37488742D01*
X70380888Y37431001D01*
X70380888Y36161399D01*
X70392374Y36103658D01*
X70410494Y36076540D01*
X70410625Y36074544D01*
X70408962Y36073433D01*
X70407720Y36073766D01*
X70370648Y36098537D01*
X70324388Y36089334D01*
X70311717Y36076663D01*
X70309785Y36076145D01*
X70308371Y36077559D01*
X70308640Y36079188D01*
X70324990Y36103658D01*
X70336476Y36161399D01*
X70336476Y37431001D01*
X70324990Y37488742D01*
X70306870Y37515860D01*
X70306739Y37517856D01*
X70308402Y37518967D01*
X70309644Y37518634D01*
G37*
G36*
X70959656Y37518634D02*
G01*
X70996728Y37493863D01*
X71042988Y37503066D01*
X71055656Y37515734D01*
X71057588Y37516252D01*
X71059002Y37514838D01*
X71058733Y37513209D01*
X71042385Y37488742D01*
X71030899Y37431001D01*
X71030899Y36161399D01*
X71042385Y36103658D01*
X71060504Y36076540D01*
X71060635Y36074544D01*
X71058972Y36073433D01*
X71057730Y36073766D01*
X71020661Y36098537D01*
X70974401Y36089335D01*
X70961729Y36076663D01*
X70959797Y36076145D01*
X70958383Y36077559D01*
X70958652Y36079188D01*
X70975002Y36103658D01*
X70986488Y36161399D01*
X70986488Y37431001D01*
X70975002Y37488742D01*
X70956882Y37515860D01*
X70956751Y37517856D01*
X70958414Y37518967D01*
X70959656Y37518634D01*
G37*
G36*
X49417462Y37844534D02*
G01*
X49454534Y37819763D01*
X49500794Y37828966D01*
X49513465Y37841637D01*
X49515397Y37842155D01*
X49516811Y37840741D01*
X49516542Y37839112D01*
X49500192Y37814642D01*
X49488706Y37756901D01*
X49488706Y36487299D01*
X49500192Y36429558D01*
X49518312Y36402440D01*
X49518443Y36400444D01*
X49516780Y36399333D01*
X49515538Y36399666D01*
X49478466Y36424437D01*
X49432206Y36415234D01*
X49419535Y36402563D01*
X49417603Y36402045D01*
X49416189Y36403459D01*
X49416458Y36405088D01*
X49432808Y36429558D01*
X49444294Y36487299D01*
X49444294Y37756901D01*
X49432808Y37814642D01*
X49414688Y37841760D01*
X49414557Y37843756D01*
X49416220Y37844867D01*
X49417462Y37844534D01*
G37*
G36*
X53317531Y37844534D02*
G01*
X53354603Y37819763D01*
X53400863Y37828966D01*
X53413531Y37841634D01*
X53415463Y37842152D01*
X53416877Y37840738D01*
X53416608Y37839109D01*
X53400260Y37814642D01*
X53388774Y37756901D01*
X53388774Y36487299D01*
X53400260Y36429558D01*
X53418379Y36402440D01*
X53418510Y36400444D01*
X53416847Y36399333D01*
X53415605Y36399666D01*
X53378536Y36424437D01*
X53332276Y36415235D01*
X53319604Y36402563D01*
X53317672Y36402045D01*
X53316258Y36403459D01*
X53316527Y36405088D01*
X53332877Y36429558D01*
X53344363Y36487299D01*
X53344363Y37756901D01*
X53332877Y37814642D01*
X53314757Y37841760D01*
X53314626Y37843756D01*
X53316289Y37844867D01*
X53317531Y37844534D01*
G37*
G36*
X50717485Y37844534D02*
G01*
X50754557Y37819763D01*
X50800817Y37828966D01*
X50813485Y37841634D01*
X50815417Y37842152D01*
X50816831Y37840738D01*
X50816562Y37839109D01*
X50800214Y37814642D01*
X50788728Y37756901D01*
X50788728Y36487299D01*
X50800214Y36429558D01*
X50818333Y36402440D01*
X50818464Y36400444D01*
X50816801Y36399333D01*
X50815559Y36399666D01*
X50778490Y36424437D01*
X50732230Y36415235D01*
X50719558Y36402563D01*
X50717626Y36402045D01*
X50716212Y36403459D01*
X50716481Y36405088D01*
X50732831Y36429558D01*
X50744317Y36487299D01*
X50744317Y37756901D01*
X50732831Y37814642D01*
X50714711Y37841760D01*
X50714580Y37843756D01*
X50716243Y37844867D01*
X50717485Y37844534D01*
G37*
G36*
X45517394Y37844534D02*
G01*
X45554466Y37819763D01*
X45600726Y37828966D01*
X45613394Y37841634D01*
X45615326Y37842152D01*
X45616740Y37840738D01*
X45616471Y37839109D01*
X45600123Y37814642D01*
X45588637Y37756901D01*
X45588637Y36487299D01*
X45600123Y36429558D01*
X45618242Y36402440D01*
X45618373Y36400444D01*
X45616710Y36399333D01*
X45615468Y36399666D01*
X45578399Y36424437D01*
X45532139Y36415235D01*
X45519467Y36402563D01*
X45517535Y36402045D01*
X45516121Y36403459D01*
X45516390Y36405088D01*
X45532740Y36429558D01*
X45544226Y36487299D01*
X45544226Y37756901D01*
X45532740Y37814642D01*
X45514620Y37841760D01*
X45514489Y37843756D01*
X45516152Y37844867D01*
X45517394Y37844534D01*
G37*
G36*
X47467428Y37844534D02*
G01*
X47504500Y37819763D01*
X47550760Y37828966D01*
X47563431Y37841637D01*
X47565363Y37842155D01*
X47566777Y37840741D01*
X47566508Y37839112D01*
X47550158Y37814642D01*
X47538672Y37756901D01*
X47538672Y36487299D01*
X47550158Y36429558D01*
X47568278Y36402440D01*
X47568409Y36400444D01*
X47566746Y36399333D01*
X47565504Y36399666D01*
X47528432Y36424437D01*
X47482172Y36415234D01*
X47469501Y36402563D01*
X47467569Y36402045D01*
X47466155Y36403459D01*
X47466424Y36405088D01*
X47482774Y36429558D01*
X47494260Y36487299D01*
X47494260Y37756901D01*
X47482774Y37814642D01*
X47464654Y37841760D01*
X47464523Y37843756D01*
X47466186Y37844867D01*
X47467428Y37844534D01*
G37*
G36*
X46817417Y37844534D02*
G01*
X46854489Y37819763D01*
X46900749Y37828966D01*
X46913417Y37841634D01*
X46915349Y37842152D01*
X46916763Y37840738D01*
X46916494Y37839109D01*
X46900146Y37814642D01*
X46888660Y37756901D01*
X46888660Y36487299D01*
X46900146Y36429558D01*
X46918265Y36402440D01*
X46918396Y36400444D01*
X46916733Y36399333D01*
X46915491Y36399666D01*
X46878422Y36424437D01*
X46832162Y36415235D01*
X46819490Y36402563D01*
X46817558Y36402045D01*
X46816144Y36403459D01*
X46816413Y36405088D01*
X46832763Y36429558D01*
X46844249Y36487299D01*
X46844249Y37756901D01*
X46832763Y37814642D01*
X46814643Y37841760D01*
X46814512Y37843756D01*
X46816175Y37844867D01*
X46817417Y37844534D01*
G37*
G36*
X50067474Y37844534D02*
G01*
X50104546Y37819763D01*
X50150806Y37828966D01*
X50163474Y37841634D01*
X50165406Y37842152D01*
X50166820Y37840738D01*
X50166551Y37839109D01*
X50150203Y37814642D01*
X50138717Y37756901D01*
X50138717Y36487299D01*
X50150203Y36429558D01*
X50168322Y36402440D01*
X50168453Y36400444D01*
X50166790Y36399333D01*
X50165548Y36399666D01*
X50128479Y36424437D01*
X50082219Y36415235D01*
X50069547Y36402563D01*
X50067615Y36402045D01*
X50066201Y36403459D01*
X50066470Y36405088D01*
X50082820Y36429558D01*
X50094306Y36487299D01*
X50094306Y37756901D01*
X50082820Y37814642D01*
X50064700Y37841760D01*
X50064569Y37843756D01*
X50066232Y37844867D01*
X50067474Y37844534D01*
G37*
G36*
X51367496Y37844534D02*
G01*
X51404568Y37819763D01*
X51450828Y37828966D01*
X51463499Y37841637D01*
X51465431Y37842155D01*
X51466845Y37840741D01*
X51466576Y37839112D01*
X51450226Y37814642D01*
X51438740Y37756901D01*
X51438740Y36487299D01*
X51450226Y36429558D01*
X51468346Y36402440D01*
X51468477Y36400444D01*
X51466814Y36399333D01*
X51465572Y36399666D01*
X51428500Y36424437D01*
X51382240Y36415234D01*
X51369569Y36402563D01*
X51367637Y36402045D01*
X51366223Y36403459D01*
X51366492Y36405088D01*
X51382842Y36429558D01*
X51394328Y36487299D01*
X51394328Y37756901D01*
X51382842Y37814642D01*
X51364722Y37841760D01*
X51364591Y37843756D01*
X51366254Y37844867D01*
X51367496Y37844534D01*
G37*
G36*
X52667519Y37844534D02*
G01*
X52704591Y37819763D01*
X52750851Y37828966D01*
X52763522Y37841637D01*
X52765454Y37842155D01*
X52766868Y37840741D01*
X52766599Y37839112D01*
X52750249Y37814642D01*
X52738763Y37756901D01*
X52738763Y36487299D01*
X52750249Y36429558D01*
X52768369Y36402440D01*
X52768500Y36400444D01*
X52766837Y36399333D01*
X52765595Y36399666D01*
X52728523Y36424437D01*
X52682263Y36415234D01*
X52669592Y36402563D01*
X52667660Y36402045D01*
X52666246Y36403459D01*
X52666515Y36405088D01*
X52682865Y36429558D01*
X52694351Y36487299D01*
X52694351Y37756901D01*
X52682865Y37814642D01*
X52664745Y37841760D01*
X52664614Y37843756D01*
X52666277Y37844867D01*
X52667519Y37844534D01*
G37*
G36*
X52017508Y37844534D02*
G01*
X52054580Y37819763D01*
X52100840Y37828966D01*
X52113508Y37841634D01*
X52115440Y37842152D01*
X52116854Y37840738D01*
X52116585Y37839109D01*
X52100237Y37814642D01*
X52088751Y37756901D01*
X52088751Y36487299D01*
X52100237Y36429558D01*
X52118356Y36402440D01*
X52118487Y36400444D01*
X52116824Y36399333D01*
X52115582Y36399666D01*
X52078513Y36424437D01*
X52032253Y36415235D01*
X52019581Y36402563D01*
X52017649Y36402045D01*
X52016235Y36403459D01*
X52016504Y36405088D01*
X52032854Y36429558D01*
X52044340Y36487299D01*
X52044340Y37756901D01*
X52032854Y37814642D01*
X52014734Y37841760D01*
X52014603Y37843756D01*
X52016266Y37844867D01*
X52017508Y37844534D01*
G37*
G36*
X48767451Y37844534D02*
G01*
X48804523Y37819763D01*
X48850783Y37828966D01*
X48863451Y37841634D01*
X48865383Y37842152D01*
X48866797Y37840738D01*
X48866528Y37839109D01*
X48850180Y37814642D01*
X48838694Y37756901D01*
X48838694Y36487299D01*
X48850180Y36429558D01*
X48868299Y36402440D01*
X48868430Y36400444D01*
X48866767Y36399333D01*
X48865525Y36399666D01*
X48828456Y36424437D01*
X48782196Y36415235D01*
X48769524Y36402563D01*
X48767592Y36402045D01*
X48766178Y36403459D01*
X48766447Y36405088D01*
X48782797Y36429558D01*
X48794283Y36487299D01*
X48794283Y37756901D01*
X48782797Y37814642D01*
X48764677Y37841760D01*
X48764546Y37843756D01*
X48766209Y37844867D01*
X48767451Y37844534D01*
G37*
G36*
X48117440Y37844534D02*
G01*
X48154512Y37819763D01*
X48200772Y37828966D01*
X48213440Y37841634D01*
X48215372Y37842152D01*
X48216786Y37840738D01*
X48216517Y37839109D01*
X48200169Y37814642D01*
X48188683Y37756901D01*
X48188683Y36487299D01*
X48200169Y36429558D01*
X48218288Y36402440D01*
X48218419Y36400444D01*
X48216756Y36399333D01*
X48215514Y36399666D01*
X48178445Y36424437D01*
X48132185Y36415235D01*
X48119513Y36402563D01*
X48117581Y36402045D01*
X48116167Y36403459D01*
X48116436Y36405088D01*
X48132786Y36429558D01*
X48144272Y36487299D01*
X48144272Y37756901D01*
X48132786Y37814642D01*
X48114666Y37841760D01*
X48114535Y37843756D01*
X48116198Y37844867D01*
X48117440Y37844534D01*
G37*
G36*
X46167405Y37844534D02*
G01*
X46204477Y37819763D01*
X46250737Y37828966D01*
X46263408Y37841637D01*
X46265340Y37842155D01*
X46266754Y37840741D01*
X46266485Y37839112D01*
X46250135Y37814642D01*
X46238649Y37756901D01*
X46238649Y36487299D01*
X46250135Y36429558D01*
X46268255Y36402440D01*
X46268386Y36400444D01*
X46266723Y36399333D01*
X46265481Y36399666D01*
X46228409Y36424437D01*
X46182149Y36415234D01*
X46169478Y36402563D01*
X46167546Y36402045D01*
X46166132Y36403459D01*
X46166401Y36405088D01*
X46182751Y36429558D01*
X46194237Y36487299D01*
X46194237Y37756901D01*
X46182751Y37814642D01*
X46164631Y37841760D01*
X46164500Y37843756D01*
X46166163Y37844867D01*
X46167405Y37844534D01*
G37*
G36*
X106253962Y38280634D02*
G01*
X106291034Y38255863D01*
X106337294Y38265066D01*
X106349965Y38277737D01*
X106351897Y38278255D01*
X106353311Y38276841D01*
X106353042Y38275212D01*
X106336692Y38250742D01*
X106325206Y38193001D01*
X106325206Y36923399D01*
X106336692Y36865658D01*
X106354812Y36838540D01*
X106354943Y36836544D01*
X106353280Y36835433D01*
X106352038Y36835766D01*
X106314966Y36860537D01*
X106268706Y36851334D01*
X106256035Y36838663D01*
X106254103Y36838145D01*
X106252689Y36839559D01*
X106252958Y36841188D01*
X106269308Y36865658D01*
X106280794Y36923399D01*
X106280794Y38193001D01*
X106269308Y38250742D01*
X106251188Y38277860D01*
X106251057Y38279856D01*
X106252720Y38280967D01*
X106253962Y38280634D01*
G37*
G36*
X103653917Y38280634D02*
G01*
X103690989Y38255863D01*
X103737249Y38265066D01*
X103749917Y38277734D01*
X103751849Y38278252D01*
X103753263Y38276838D01*
X103752994Y38275209D01*
X103736646Y38250742D01*
X103725160Y38193001D01*
X103725160Y36923399D01*
X103736646Y36865658D01*
X103754765Y36838540D01*
X103754896Y36836544D01*
X103753233Y36835433D01*
X103751991Y36835766D01*
X103714922Y36860537D01*
X103668662Y36851335D01*
X103655990Y36838663D01*
X103654058Y36838145D01*
X103652644Y36839559D01*
X103652913Y36841188D01*
X103669263Y36865658D01*
X103680749Y36923399D01*
X103680749Y38193001D01*
X103669263Y38250742D01*
X103651143Y38277860D01*
X103651012Y38279856D01*
X103652675Y38280967D01*
X103653917Y38280634D01*
G37*
G36*
X106903974Y38280634D02*
G01*
X106941046Y38255863D01*
X106987306Y38265066D01*
X106999974Y38277734D01*
X107001906Y38278252D01*
X107003320Y38276838D01*
X107003051Y38275209D01*
X106986703Y38250742D01*
X106975217Y38193001D01*
X106975217Y36923399D01*
X106986703Y36865658D01*
X107004822Y36838540D01*
X107004953Y36836544D01*
X107003290Y36835433D01*
X107002048Y36835766D01*
X106964979Y36860537D01*
X106918719Y36851335D01*
X106906047Y36838663D01*
X106904115Y36838145D01*
X106902701Y36839559D01*
X106902970Y36841188D01*
X106919320Y36865658D01*
X106930806Y36923399D01*
X106930806Y38193001D01*
X106919320Y38250742D01*
X106901200Y38277860D01*
X106901069Y38279856D01*
X106902732Y38280967D01*
X106903974Y38280634D01*
G37*
G36*
X110154031Y38280634D02*
G01*
X110191103Y38255863D01*
X110237363Y38265066D01*
X110250031Y38277734D01*
X110251963Y38278252D01*
X110253377Y38276838D01*
X110253108Y38275209D01*
X110236760Y38250742D01*
X110225274Y38193001D01*
X110225274Y36923399D01*
X110236760Y36865658D01*
X110254879Y36838540D01*
X110255010Y36836544D01*
X110253347Y36835433D01*
X110252105Y36835766D01*
X110215036Y36860537D01*
X110168776Y36851335D01*
X110156104Y36838663D01*
X110154172Y36838145D01*
X110152758Y36839559D01*
X110153027Y36841188D01*
X110169377Y36865658D01*
X110180863Y36923399D01*
X110180863Y38193001D01*
X110169377Y38250742D01*
X110151257Y38277860D01*
X110151126Y38279856D01*
X110152789Y38280967D01*
X110154031Y38280634D01*
G37*
G36*
X107553985Y38280634D02*
G01*
X107591057Y38255863D01*
X107637317Y38265066D01*
X107649985Y38277734D01*
X107651917Y38278252D01*
X107653331Y38276838D01*
X107653062Y38275209D01*
X107636714Y38250742D01*
X107625228Y38193001D01*
X107625228Y36923399D01*
X107636714Y36865658D01*
X107654833Y36838540D01*
X107654964Y36836544D01*
X107653301Y36835433D01*
X107652059Y36835766D01*
X107614990Y36860537D01*
X107568730Y36851335D01*
X107556058Y36838663D01*
X107554126Y36838145D01*
X107552712Y36839559D01*
X107552981Y36841188D01*
X107569331Y36865658D01*
X107580817Y36923399D01*
X107580817Y38193001D01*
X107569331Y38250742D01*
X107551211Y38277860D01*
X107551080Y38279856D01*
X107552743Y38280967D01*
X107553985Y38280634D01*
G37*
G36*
X105603951Y38280634D02*
G01*
X105641023Y38255863D01*
X105687283Y38265066D01*
X105699951Y38277734D01*
X105701883Y38278252D01*
X105703297Y38276838D01*
X105703028Y38275209D01*
X105686680Y38250742D01*
X105675194Y38193001D01*
X105675194Y36923399D01*
X105686680Y36865658D01*
X105704799Y36838540D01*
X105704930Y36836544D01*
X105703267Y36835433D01*
X105702025Y36835766D01*
X105664956Y36860537D01*
X105618696Y36851335D01*
X105606024Y36838663D01*
X105604092Y36838145D01*
X105602678Y36839559D01*
X105602947Y36841188D01*
X105619297Y36865658D01*
X105630783Y36923399D01*
X105630783Y38193001D01*
X105619297Y38250742D01*
X105601177Y38277860D01*
X105601046Y38279856D01*
X105602709Y38280967D01*
X105603951Y38280634D01*
G37*
G36*
X104953940Y38280634D02*
G01*
X104991012Y38255863D01*
X105037272Y38265066D01*
X105049940Y38277734D01*
X105051872Y38278252D01*
X105053286Y38276838D01*
X105053017Y38275209D01*
X105036669Y38250742D01*
X105025183Y38193001D01*
X105025183Y36923399D01*
X105036669Y36865658D01*
X105054788Y36838540D01*
X105054919Y36836544D01*
X105053256Y36835433D01*
X105052014Y36835766D01*
X105014945Y36860537D01*
X104968685Y36851335D01*
X104956013Y36838663D01*
X104954081Y36838145D01*
X104952667Y36839559D01*
X104952936Y36841188D01*
X104969286Y36865658D01*
X104980772Y36923399D01*
X104980772Y38193001D01*
X104969286Y38250742D01*
X104951166Y38277860D01*
X104951035Y38279856D01*
X104952698Y38280967D01*
X104953940Y38280634D01*
G37*
G36*
X104303928Y38280634D02*
G01*
X104341000Y38255863D01*
X104387260Y38265066D01*
X104399931Y38277737D01*
X104401863Y38278255D01*
X104403277Y38276841D01*
X104403008Y38275212D01*
X104386658Y38250742D01*
X104375172Y38193001D01*
X104375172Y36923399D01*
X104386658Y36865658D01*
X104404778Y36838540D01*
X104404909Y36836544D01*
X104403246Y36835433D01*
X104402004Y36835766D01*
X104364932Y36860537D01*
X104318672Y36851334D01*
X104306001Y36838663D01*
X104304069Y36838145D01*
X104302655Y36839559D01*
X104302924Y36841188D01*
X104319274Y36865658D01*
X104330760Y36923399D01*
X104330760Y38193001D01*
X104319274Y38250742D01*
X104301154Y38277860D01*
X104301023Y38279856D01*
X104302686Y38280967D01*
X104303928Y38280634D01*
G37*
G36*
X108203996Y38280634D02*
G01*
X108241068Y38255863D01*
X108287328Y38265066D01*
X108299999Y38277737D01*
X108301931Y38278255D01*
X108303345Y38276841D01*
X108303076Y38275212D01*
X108286726Y38250742D01*
X108275240Y38193001D01*
X108275240Y36923399D01*
X108286726Y36865658D01*
X108304846Y36838540D01*
X108304977Y36836544D01*
X108303314Y36835433D01*
X108302072Y36835766D01*
X108265000Y36860537D01*
X108218740Y36851334D01*
X108206069Y36838663D01*
X108204137Y36838145D01*
X108202723Y36839559D01*
X108202992Y36841188D01*
X108219342Y36865658D01*
X108230828Y36923399D01*
X108230828Y38193001D01*
X108219342Y38250742D01*
X108201222Y38277860D01*
X108201091Y38279856D01*
X108202754Y38280967D01*
X108203996Y38280634D01*
G37*
G36*
X108854008Y38280634D02*
G01*
X108891080Y38255863D01*
X108937340Y38265066D01*
X108950008Y38277734D01*
X108951940Y38278252D01*
X108953354Y38276838D01*
X108953085Y38275209D01*
X108936737Y38250742D01*
X108925251Y38193001D01*
X108925251Y36923399D01*
X108936737Y36865658D01*
X108954856Y36838540D01*
X108954987Y36836544D01*
X108953324Y36835433D01*
X108952082Y36835766D01*
X108915013Y36860537D01*
X108868753Y36851335D01*
X108856081Y36838663D01*
X108854149Y36838145D01*
X108852735Y36839559D01*
X108853004Y36841188D01*
X108869354Y36865658D01*
X108880840Y36923399D01*
X108880840Y38193001D01*
X108869354Y38250742D01*
X108851234Y38277860D01*
X108851103Y38279856D01*
X108852766Y38280967D01*
X108854008Y38280634D01*
G37*
G36*
X102353894Y38280634D02*
G01*
X102390966Y38255863D01*
X102437226Y38265066D01*
X102449894Y38277734D01*
X102451826Y38278252D01*
X102453240Y38276838D01*
X102452971Y38275209D01*
X102436623Y38250742D01*
X102425137Y38193001D01*
X102425137Y36923399D01*
X102436623Y36865658D01*
X102454742Y36838540D01*
X102454873Y36836544D01*
X102453210Y36835433D01*
X102451968Y36835766D01*
X102414899Y36860537D01*
X102368639Y36851335D01*
X102355967Y36838663D01*
X102354035Y36838145D01*
X102352621Y36839559D01*
X102352890Y36841188D01*
X102369240Y36865658D01*
X102380726Y36923399D01*
X102380726Y38193001D01*
X102369240Y38250742D01*
X102351120Y38277860D01*
X102350989Y38279856D01*
X102352652Y38280967D01*
X102353894Y38280634D01*
G37*
G36*
X103003905Y38280634D02*
G01*
X103040977Y38255863D01*
X103087237Y38265066D01*
X103099908Y38277737D01*
X103101840Y38278255D01*
X103103254Y38276841D01*
X103102985Y38275212D01*
X103086635Y38250742D01*
X103075149Y38193001D01*
X103075149Y36923399D01*
X103086635Y36865658D01*
X103104755Y36838540D01*
X103104886Y36836544D01*
X103103223Y36835433D01*
X103101981Y36835766D01*
X103064909Y36860537D01*
X103018649Y36851334D01*
X103005978Y36838663D01*
X103004046Y36838145D01*
X103002632Y36839559D01*
X103002901Y36841188D01*
X103019251Y36865658D01*
X103030737Y36923399D01*
X103030737Y38193001D01*
X103019251Y38250742D01*
X103001131Y38277860D01*
X103001000Y38279856D01*
X103002663Y38280967D01*
X103003905Y38280634D01*
G37*
G36*
X109504019Y38280634D02*
G01*
X109541091Y38255863D01*
X109587351Y38265066D01*
X109600022Y38277737D01*
X109601954Y38278255D01*
X109603368Y38276841D01*
X109603099Y38275212D01*
X109586749Y38250742D01*
X109575263Y38193001D01*
X109575263Y36923399D01*
X109586749Y36865658D01*
X109604869Y36838540D01*
X109605000Y36836544D01*
X109603337Y36835433D01*
X109602095Y36835766D01*
X109565023Y36860537D01*
X109518763Y36851334D01*
X109506092Y36838663D01*
X109504160Y36838145D01*
X109502746Y36839559D01*
X109503015Y36841188D01*
X109519365Y36865658D01*
X109530851Y36923399D01*
X109530851Y38193001D01*
X109519365Y38250742D01*
X109501245Y38277860D01*
X109501114Y38279856D01*
X109502777Y38280967D01*
X109504019Y38280634D01*
G37*
G36*
X69009622Y43462234D02*
G01*
X69046694Y43437463D01*
X69092954Y43446666D01*
X69105622Y43459334D01*
X69107554Y43459852D01*
X69108968Y43458438D01*
X69108699Y43456809D01*
X69092351Y43432342D01*
X69080865Y43374601D01*
X69080865Y42104999D01*
X69092351Y42047258D01*
X69110470Y42020140D01*
X69110601Y42018144D01*
X69108938Y42017033D01*
X69107696Y42017366D01*
X69070627Y42042137D01*
X69024367Y42032935D01*
X69011695Y42020263D01*
X69009763Y42019745D01*
X69008349Y42021159D01*
X69008618Y42022788D01*
X69024968Y42047258D01*
X69036454Y42104999D01*
X69036454Y43374601D01*
X69024968Y43432342D01*
X69006848Y43459460D01*
X69006717Y43461456D01*
X69008380Y43462567D01*
X69009622Y43462234D01*
G37*
G36*
X72909690Y43462234D02*
G01*
X72946762Y43437463D01*
X72993022Y43446666D01*
X73005690Y43459334D01*
X73007622Y43459852D01*
X73009036Y43458438D01*
X73008767Y43456809D01*
X72992419Y43432342D01*
X72980933Y43374601D01*
X72980933Y42104999D01*
X72992419Y42047258D01*
X73010538Y42020140D01*
X73010669Y42018144D01*
X73009006Y42017033D01*
X73007764Y42017366D01*
X72970695Y42042137D01*
X72924435Y42032935D01*
X72911763Y42020263D01*
X72909831Y42019745D01*
X72908417Y42021159D01*
X72908686Y42022788D01*
X72925036Y42047258D01*
X72936522Y42104999D01*
X72936522Y43374601D01*
X72925036Y43432342D01*
X72906916Y43459460D01*
X72906785Y43461456D01*
X72908448Y43462567D01*
X72909690Y43462234D01*
G37*
G36*
X73559701Y43462234D02*
G01*
X73596773Y43437463D01*
X73643033Y43446666D01*
X73655704Y43459337D01*
X73657636Y43459855D01*
X73659050Y43458441D01*
X73658781Y43456812D01*
X73642431Y43432342D01*
X73630945Y43374601D01*
X73630945Y42104999D01*
X73642431Y42047258D01*
X73660551Y42020140D01*
X73660682Y42018144D01*
X73659019Y42017033D01*
X73657777Y42017366D01*
X73620705Y42042137D01*
X73574445Y42032934D01*
X73561774Y42020263D01*
X73559842Y42019745D01*
X73558428Y42021159D01*
X73558697Y42022788D01*
X73575047Y42047258D01*
X73586533Y42104999D01*
X73586533Y43374601D01*
X73575047Y43432342D01*
X73556927Y43459460D01*
X73556796Y43461456D01*
X73558459Y43462567D01*
X73559701Y43462234D01*
G37*
G36*
X69659633Y43462234D02*
G01*
X69696705Y43437463D01*
X69742965Y43446666D01*
X69755633Y43459334D01*
X69757565Y43459852D01*
X69758979Y43458438D01*
X69758710Y43456809D01*
X69742362Y43432342D01*
X69730876Y43374601D01*
X69730876Y42104999D01*
X69742362Y42047258D01*
X69760481Y42020140D01*
X69760612Y42018144D01*
X69758949Y42017033D01*
X69757707Y42017366D01*
X69720638Y42042137D01*
X69674378Y42032935D01*
X69661706Y42020263D01*
X69659774Y42019745D01*
X69658360Y42021159D01*
X69658629Y42022788D01*
X69674979Y42047258D01*
X69686465Y42104999D01*
X69686465Y43374601D01*
X69674979Y43432342D01*
X69656859Y43459460D01*
X69656728Y43461456D01*
X69658391Y43462567D01*
X69659633Y43462234D01*
G37*
G36*
X67059587Y43462234D02*
G01*
X67096659Y43437463D01*
X67142919Y43446666D01*
X67155590Y43459337D01*
X67157522Y43459855D01*
X67158936Y43458441D01*
X67158667Y43456812D01*
X67142317Y43432342D01*
X67130831Y43374601D01*
X67130831Y42104999D01*
X67142317Y42047258D01*
X67160437Y42020140D01*
X67160568Y42018144D01*
X67158905Y42017033D01*
X67157663Y42017366D01*
X67120591Y42042137D01*
X67074331Y42032934D01*
X67061660Y42020263D01*
X67059728Y42019745D01*
X67058314Y42021159D01*
X67058583Y42022788D01*
X67074933Y42047258D01*
X67086419Y42104999D01*
X67086419Y43374601D01*
X67074933Y43432342D01*
X67056813Y43459460D01*
X67056682Y43461456D01*
X67058345Y43462567D01*
X67059587Y43462234D01*
G37*
G36*
X70309644Y43462234D02*
G01*
X70346716Y43437463D01*
X70392976Y43446666D01*
X70405647Y43459337D01*
X70407579Y43459855D01*
X70408993Y43458441D01*
X70408724Y43456812D01*
X70392374Y43432342D01*
X70380888Y43374601D01*
X70380888Y42104999D01*
X70392374Y42047258D01*
X70410494Y42020140D01*
X70410625Y42018144D01*
X70408962Y42017033D01*
X70407720Y42017366D01*
X70370648Y42042137D01*
X70324388Y42032934D01*
X70311717Y42020263D01*
X70309785Y42019745D01*
X70308371Y42021159D01*
X70308640Y42022788D01*
X70324990Y42047258D01*
X70336476Y42104999D01*
X70336476Y43374601D01*
X70324990Y43432342D01*
X70306870Y43459460D01*
X70306739Y43461456D01*
X70308402Y43462567D01*
X70309644Y43462234D01*
G37*
G36*
X74209713Y43462234D02*
G01*
X74246785Y43437463D01*
X74293045Y43446666D01*
X74305713Y43459334D01*
X74307645Y43459852D01*
X74309059Y43458438D01*
X74308790Y43456809D01*
X74292442Y43432342D01*
X74280956Y43374601D01*
X74280956Y42104999D01*
X74292442Y42047258D01*
X74310561Y42020140D01*
X74310692Y42018144D01*
X74309029Y42017033D01*
X74307787Y42017366D01*
X74270718Y42042137D01*
X74224458Y42032935D01*
X74211786Y42020263D01*
X74209854Y42019745D01*
X74208440Y42021159D01*
X74208709Y42022788D01*
X74225059Y42047258D01*
X74236545Y42104999D01*
X74236545Y43374601D01*
X74225059Y43432342D01*
X74206939Y43459460D01*
X74206808Y43461456D01*
X74208471Y43462567D01*
X74209713Y43462234D01*
G37*
G36*
X72259678Y43462234D02*
G01*
X72296750Y43437463D01*
X72343010Y43446666D01*
X72355681Y43459337D01*
X72357613Y43459855D01*
X72359027Y43458441D01*
X72358758Y43456812D01*
X72342408Y43432342D01*
X72330922Y43374601D01*
X72330922Y42104999D01*
X72342408Y42047258D01*
X72360528Y42020140D01*
X72360659Y42018144D01*
X72358996Y42017033D01*
X72357754Y42017366D01*
X72320682Y42042137D01*
X72274422Y42032934D01*
X72261751Y42020263D01*
X72259819Y42019745D01*
X72258405Y42021159D01*
X72258674Y42022788D01*
X72275024Y42047258D01*
X72286510Y42104999D01*
X72286510Y43374601D01*
X72275024Y43432342D01*
X72256904Y43459460D01*
X72256773Y43461456D01*
X72258436Y43462567D01*
X72259678Y43462234D01*
G37*
G36*
X67709599Y43462234D02*
G01*
X67746671Y43437463D01*
X67792931Y43446666D01*
X67805599Y43459334D01*
X67807531Y43459852D01*
X67808945Y43458438D01*
X67808676Y43456809D01*
X67792328Y43432342D01*
X67780842Y43374601D01*
X67780842Y42104999D01*
X67792328Y42047258D01*
X67810447Y42020140D01*
X67810578Y42018144D01*
X67808915Y42017033D01*
X67807673Y42017366D01*
X67770604Y42042137D01*
X67724344Y42032935D01*
X67711672Y42020263D01*
X67709740Y42019745D01*
X67708326Y42021159D01*
X67708595Y42022788D01*
X67724945Y42047258D01*
X67736431Y42104999D01*
X67736431Y43374601D01*
X67724945Y43432342D01*
X67706825Y43459460D01*
X67706694Y43461456D01*
X67708357Y43462567D01*
X67709599Y43462234D01*
G37*
G36*
X71609667Y43462234D02*
G01*
X71646739Y43437463D01*
X71692999Y43446666D01*
X71705667Y43459334D01*
X71707599Y43459852D01*
X71709013Y43458438D01*
X71708744Y43456809D01*
X71692396Y43432342D01*
X71680910Y43374601D01*
X71680910Y42104999D01*
X71692396Y42047258D01*
X71710515Y42020140D01*
X71710646Y42018144D01*
X71708983Y42017033D01*
X71707741Y42017366D01*
X71670672Y42042137D01*
X71624412Y42032935D01*
X71611740Y42020263D01*
X71609808Y42019745D01*
X71608394Y42021159D01*
X71608663Y42022788D01*
X71625013Y42047258D01*
X71636499Y42104999D01*
X71636499Y43374601D01*
X71625013Y43432342D01*
X71606893Y43459460D01*
X71606762Y43461456D01*
X71608425Y43462567D01*
X71609667Y43462234D01*
G37*
G36*
X68359610Y43462234D02*
G01*
X68396682Y43437463D01*
X68442942Y43446666D01*
X68455613Y43459337D01*
X68457545Y43459855D01*
X68458959Y43458441D01*
X68458690Y43456812D01*
X68442340Y43432342D01*
X68430854Y43374601D01*
X68430854Y42104999D01*
X68442340Y42047258D01*
X68460460Y42020140D01*
X68460591Y42018144D01*
X68458928Y42017033D01*
X68457686Y42017366D01*
X68420614Y42042137D01*
X68374354Y42032934D01*
X68361683Y42020263D01*
X68359751Y42019745D01*
X68358337Y42021159D01*
X68358606Y42022788D01*
X68374956Y42047258D01*
X68386442Y42104999D01*
X68386442Y43374601D01*
X68374956Y43432342D01*
X68356836Y43459460D01*
X68356705Y43461456D01*
X68358368Y43462567D01*
X68359610Y43462234D01*
G37*
G36*
X66409576Y43462234D02*
G01*
X66446648Y43437463D01*
X66492908Y43446666D01*
X66505576Y43459334D01*
X66507508Y43459852D01*
X66508922Y43458438D01*
X66508653Y43456809D01*
X66492305Y43432342D01*
X66480819Y43374601D01*
X66480819Y42104999D01*
X66492305Y42047258D01*
X66510424Y42020140D01*
X66510555Y42018144D01*
X66508892Y42017033D01*
X66507650Y42017366D01*
X66470581Y42042137D01*
X66424321Y42032935D01*
X66411649Y42020263D01*
X66409717Y42019745D01*
X66408303Y42021159D01*
X66408572Y42022788D01*
X66424922Y42047258D01*
X66436408Y42104999D01*
X66436408Y43374601D01*
X66424922Y43432342D01*
X66406802Y43459460D01*
X66406671Y43461456D01*
X66408334Y43462567D01*
X66409576Y43462234D01*
G37*
G36*
X70959656Y43462234D02*
G01*
X70996728Y43437463D01*
X71042988Y43446666D01*
X71055656Y43459334D01*
X71057588Y43459852D01*
X71059002Y43458438D01*
X71058733Y43456809D01*
X71042385Y43432342D01*
X71030899Y43374601D01*
X71030899Y42104999D01*
X71042385Y42047258D01*
X71060504Y42020140D01*
X71060635Y42018144D01*
X71058972Y42017033D01*
X71057730Y42017366D01*
X71020661Y42042137D01*
X70974401Y42032935D01*
X70961729Y42020263D01*
X70959797Y42019745D01*
X70958383Y42021159D01*
X70958652Y42022788D01*
X70975002Y42047258D01*
X70986488Y42104999D01*
X70986488Y43374601D01*
X70975002Y43432342D01*
X70956882Y43459460D01*
X70956751Y43461456D01*
X70958414Y43462567D01*
X70959656Y43462234D01*
G37*
G36*
X47467428Y43788134D02*
G01*
X47504500Y43763363D01*
X47550760Y43772566D01*
X47563431Y43785237D01*
X47565363Y43785755D01*
X47566777Y43784341D01*
X47566508Y43782712D01*
X47550158Y43758242D01*
X47538672Y43700501D01*
X47538672Y42430899D01*
X47550158Y42373158D01*
X47568278Y42346040D01*
X47568409Y42344044D01*
X47566746Y42342933D01*
X47565504Y42343266D01*
X47528432Y42368037D01*
X47482172Y42358834D01*
X47469501Y42346163D01*
X47467569Y42345645D01*
X47466155Y42347059D01*
X47466424Y42348688D01*
X47482774Y42373158D01*
X47494260Y42430899D01*
X47494260Y43700501D01*
X47482774Y43758242D01*
X47464654Y43785360D01*
X47464523Y43787356D01*
X47466186Y43788467D01*
X47467428Y43788134D01*
G37*
G36*
X51367496Y43788134D02*
G01*
X51404568Y43763363D01*
X51450828Y43772566D01*
X51463499Y43785237D01*
X51465431Y43785755D01*
X51466845Y43784341D01*
X51466576Y43782712D01*
X51450226Y43758242D01*
X51438740Y43700501D01*
X51438740Y42430899D01*
X51450226Y42373158D01*
X51468346Y42346040D01*
X51468477Y42344044D01*
X51466814Y42342933D01*
X51465572Y42343266D01*
X51428500Y42368037D01*
X51382240Y42358834D01*
X51369569Y42346163D01*
X51367637Y42345645D01*
X51366223Y42347059D01*
X51366492Y42348688D01*
X51382842Y42373158D01*
X51394328Y42430899D01*
X51394328Y43700501D01*
X51382842Y43758242D01*
X51364722Y43785360D01*
X51364591Y43787356D01*
X51366254Y43788467D01*
X51367496Y43788134D01*
G37*
G36*
X50067474Y43788134D02*
G01*
X50104546Y43763363D01*
X50150806Y43772566D01*
X50163474Y43785234D01*
X50165406Y43785752D01*
X50166820Y43784338D01*
X50166551Y43782709D01*
X50150203Y43758242D01*
X50138717Y43700501D01*
X50138717Y42430899D01*
X50150203Y42373158D01*
X50168322Y42346040D01*
X50168453Y42344044D01*
X50166790Y42342933D01*
X50165548Y42343266D01*
X50128479Y42368037D01*
X50082219Y42358835D01*
X50069547Y42346163D01*
X50067615Y42345645D01*
X50066201Y42347059D01*
X50066470Y42348688D01*
X50082820Y42373158D01*
X50094306Y42430899D01*
X50094306Y43700501D01*
X50082820Y43758242D01*
X50064700Y43785360D01*
X50064569Y43787356D01*
X50066232Y43788467D01*
X50067474Y43788134D01*
G37*
G36*
X46167405Y43788134D02*
G01*
X46204477Y43763363D01*
X46250737Y43772566D01*
X46263408Y43785237D01*
X46265340Y43785755D01*
X46266754Y43784341D01*
X46266485Y43782712D01*
X46250135Y43758242D01*
X46238649Y43700501D01*
X46238649Y42430899D01*
X46250135Y42373158D01*
X46268255Y42346040D01*
X46268386Y42344044D01*
X46266723Y42342933D01*
X46265481Y42343266D01*
X46228409Y42368037D01*
X46182149Y42358834D01*
X46169478Y42346163D01*
X46167546Y42345645D01*
X46166132Y42347059D01*
X46166401Y42348688D01*
X46182751Y42373158D01*
X46194237Y42430899D01*
X46194237Y43700501D01*
X46182751Y43758242D01*
X46164631Y43785360D01*
X46164500Y43787356D01*
X46166163Y43788467D01*
X46167405Y43788134D01*
G37*
G36*
X45517394Y43788134D02*
G01*
X45554466Y43763363D01*
X45600726Y43772566D01*
X45613394Y43785234D01*
X45615326Y43785752D01*
X45616740Y43784338D01*
X45616471Y43782709D01*
X45600123Y43758242D01*
X45588637Y43700501D01*
X45588637Y42430899D01*
X45600123Y42373158D01*
X45618242Y42346040D01*
X45618373Y42344044D01*
X45616710Y42342933D01*
X45615468Y42343266D01*
X45578399Y42368037D01*
X45532139Y42358835D01*
X45519467Y42346163D01*
X45517535Y42345645D01*
X45516121Y42347059D01*
X45516390Y42348688D01*
X45532740Y42373158D01*
X45544226Y42430899D01*
X45544226Y43700501D01*
X45532740Y43758242D01*
X45514620Y43785360D01*
X45514489Y43787356D01*
X45516152Y43788467D01*
X45517394Y43788134D01*
G37*
G36*
X50717485Y43788134D02*
G01*
X50754557Y43763363D01*
X50800817Y43772566D01*
X50813485Y43785234D01*
X50815417Y43785752D01*
X50816831Y43784338D01*
X50816562Y43782709D01*
X50800214Y43758242D01*
X50788728Y43700501D01*
X50788728Y42430899D01*
X50800214Y42373158D01*
X50818333Y42346040D01*
X50818464Y42344044D01*
X50816801Y42342933D01*
X50815559Y42343266D01*
X50778490Y42368037D01*
X50732230Y42358835D01*
X50719558Y42346163D01*
X50717626Y42345645D01*
X50716212Y42347059D01*
X50716481Y42348688D01*
X50732831Y42373158D01*
X50744317Y42430899D01*
X50744317Y43700501D01*
X50732831Y43758242D01*
X50714711Y43785360D01*
X50714580Y43787356D01*
X50716243Y43788467D01*
X50717485Y43788134D01*
G37*
G36*
X52017508Y43788134D02*
G01*
X52054580Y43763363D01*
X52100840Y43772566D01*
X52113508Y43785234D01*
X52115440Y43785752D01*
X52116854Y43784338D01*
X52116585Y43782709D01*
X52100237Y43758242D01*
X52088751Y43700501D01*
X52088751Y42430899D01*
X52100237Y42373158D01*
X52118356Y42346040D01*
X52118487Y42344044D01*
X52116824Y42342933D01*
X52115582Y42343266D01*
X52078513Y42368037D01*
X52032253Y42358835D01*
X52019581Y42346163D01*
X52017649Y42345645D01*
X52016235Y42347059D01*
X52016504Y42348688D01*
X52032854Y42373158D01*
X52044340Y42430899D01*
X52044340Y43700501D01*
X52032854Y43758242D01*
X52014734Y43785360D01*
X52014603Y43787356D01*
X52016266Y43788467D01*
X52017508Y43788134D01*
G37*
G36*
X53317531Y43788134D02*
G01*
X53354603Y43763363D01*
X53400863Y43772566D01*
X53413531Y43785234D01*
X53415463Y43785752D01*
X53416877Y43784338D01*
X53416608Y43782709D01*
X53400260Y43758242D01*
X53388774Y43700501D01*
X53388774Y42430899D01*
X53400260Y42373158D01*
X53418379Y42346040D01*
X53418510Y42344044D01*
X53416847Y42342933D01*
X53415605Y42343266D01*
X53378536Y42368037D01*
X53332276Y42358835D01*
X53319604Y42346163D01*
X53317672Y42345645D01*
X53316258Y42347059D01*
X53316527Y42348688D01*
X53332877Y42373158D01*
X53344363Y42430899D01*
X53344363Y43700501D01*
X53332877Y43758242D01*
X53314757Y43785360D01*
X53314626Y43787356D01*
X53316289Y43788467D01*
X53317531Y43788134D01*
G37*
G36*
X48117440Y43788134D02*
G01*
X48154512Y43763363D01*
X48200772Y43772566D01*
X48213440Y43785234D01*
X48215372Y43785752D01*
X48216786Y43784338D01*
X48216517Y43782709D01*
X48200169Y43758242D01*
X48188683Y43700501D01*
X48188683Y42430899D01*
X48200169Y42373158D01*
X48218288Y42346040D01*
X48218419Y42344044D01*
X48216756Y42342933D01*
X48215514Y42343266D01*
X48178445Y42368037D01*
X48132185Y42358835D01*
X48119513Y42346163D01*
X48117581Y42345645D01*
X48116167Y42347059D01*
X48116436Y42348688D01*
X48132786Y42373158D01*
X48144272Y42430899D01*
X48144272Y43700501D01*
X48132786Y43758242D01*
X48114666Y43785360D01*
X48114535Y43787356D01*
X48116198Y43788467D01*
X48117440Y43788134D01*
G37*
G36*
X46817417Y43788134D02*
G01*
X46854489Y43763363D01*
X46900749Y43772566D01*
X46913417Y43785234D01*
X46915349Y43785752D01*
X46916763Y43784338D01*
X46916494Y43782709D01*
X46900146Y43758242D01*
X46888660Y43700501D01*
X46888660Y42430899D01*
X46900146Y42373158D01*
X46918265Y42346040D01*
X46918396Y42344044D01*
X46916733Y42342933D01*
X46915491Y42343266D01*
X46878422Y42368037D01*
X46832162Y42358835D01*
X46819490Y42346163D01*
X46817558Y42345645D01*
X46816144Y42347059D01*
X46816413Y42348688D01*
X46832763Y42373158D01*
X46844249Y42430899D01*
X46844249Y43700501D01*
X46832763Y43758242D01*
X46814643Y43785360D01*
X46814512Y43787356D01*
X46816175Y43788467D01*
X46817417Y43788134D01*
G37*
G36*
X48767451Y43788134D02*
G01*
X48804523Y43763363D01*
X48850783Y43772566D01*
X48863451Y43785234D01*
X48865383Y43785752D01*
X48866797Y43784338D01*
X48866528Y43782709D01*
X48850180Y43758242D01*
X48838694Y43700501D01*
X48838694Y42430899D01*
X48850180Y42373158D01*
X48868299Y42346040D01*
X48868430Y42344044D01*
X48866767Y42342933D01*
X48865525Y42343266D01*
X48828456Y42368037D01*
X48782196Y42358835D01*
X48769524Y42346163D01*
X48767592Y42345645D01*
X48766178Y42347059D01*
X48766447Y42348688D01*
X48782797Y42373158D01*
X48794283Y42430899D01*
X48794283Y43700501D01*
X48782797Y43758242D01*
X48764677Y43785360D01*
X48764546Y43787356D01*
X48766209Y43788467D01*
X48767451Y43788134D01*
G37*
G36*
X52667519Y43788134D02*
G01*
X52704591Y43763363D01*
X52750851Y43772566D01*
X52763522Y43785237D01*
X52765454Y43785755D01*
X52766868Y43784341D01*
X52766599Y43782712D01*
X52750249Y43758242D01*
X52738763Y43700501D01*
X52738763Y42430899D01*
X52750249Y42373158D01*
X52768369Y42346040D01*
X52768500Y42344044D01*
X52766837Y42342933D01*
X52765595Y42343266D01*
X52728523Y42368037D01*
X52682263Y42358834D01*
X52669592Y42346163D01*
X52667660Y42345645D01*
X52666246Y42347059D01*
X52666515Y42348688D01*
X52682865Y42373158D01*
X52694351Y42430899D01*
X52694351Y43700501D01*
X52682865Y43758242D01*
X52664745Y43785360D01*
X52664614Y43787356D01*
X52666277Y43788467D01*
X52667519Y43788134D01*
G37*
G36*
X49417462Y43788134D02*
G01*
X49454534Y43763363D01*
X49500794Y43772566D01*
X49513465Y43785237D01*
X49515397Y43785755D01*
X49516811Y43784341D01*
X49516542Y43782712D01*
X49500192Y43758242D01*
X49488706Y43700501D01*
X49488706Y42430899D01*
X49500192Y42373158D01*
X49518312Y42346040D01*
X49518443Y42344044D01*
X49516780Y42342933D01*
X49515538Y42343266D01*
X49478466Y42368037D01*
X49432206Y42358834D01*
X49419535Y42346163D01*
X49417603Y42345645D01*
X49416189Y42347059D01*
X49416458Y42348688D01*
X49432808Y42373158D01*
X49444294Y42430899D01*
X49444294Y43700501D01*
X49432808Y43758242D01*
X49414688Y43785360D01*
X49414557Y43787356D01*
X49416220Y43788467D01*
X49417462Y43788134D01*
G37*
G36*
X108203996Y44224234D02*
G01*
X108241068Y44199463D01*
X108287328Y44208666D01*
X108299999Y44221337D01*
X108301931Y44221855D01*
X108303345Y44220441D01*
X108303076Y44218812D01*
X108286726Y44194342D01*
X108275240Y44136601D01*
X108275240Y42866999D01*
X108286726Y42809258D01*
X108304846Y42782140D01*
X108304977Y42780144D01*
X108303314Y42779033D01*
X108302072Y42779366D01*
X108265000Y42804137D01*
X108218740Y42794934D01*
X108206069Y42782263D01*
X108204137Y42781745D01*
X108202723Y42783159D01*
X108202992Y42784788D01*
X108219342Y42809258D01*
X108230828Y42866999D01*
X108230828Y44136601D01*
X108219342Y44194342D01*
X108201222Y44221460D01*
X108201091Y44223456D01*
X108202754Y44224567D01*
X108203996Y44224234D01*
G37*
G36*
X107553985Y44224234D02*
G01*
X107591057Y44199463D01*
X107637317Y44208666D01*
X107649985Y44221334D01*
X107651917Y44221852D01*
X107653331Y44220438D01*
X107653062Y44218809D01*
X107636714Y44194342D01*
X107625228Y44136601D01*
X107625228Y42866999D01*
X107636714Y42809258D01*
X107654833Y42782140D01*
X107654964Y42780144D01*
X107653301Y42779033D01*
X107652059Y42779366D01*
X107614990Y42804137D01*
X107568730Y42794935D01*
X107556058Y42782263D01*
X107554126Y42781745D01*
X107552712Y42783159D01*
X107552981Y42784788D01*
X107569331Y42809258D01*
X107580817Y42866999D01*
X107580817Y44136601D01*
X107569331Y44194342D01*
X107551211Y44221460D01*
X107551080Y44223456D01*
X107552743Y44224567D01*
X107553985Y44224234D01*
G37*
G36*
X106253962Y44224234D02*
G01*
X106291034Y44199463D01*
X106337294Y44208666D01*
X106349965Y44221337D01*
X106351897Y44221855D01*
X106353311Y44220441D01*
X106353042Y44218812D01*
X106336692Y44194342D01*
X106325206Y44136601D01*
X106325206Y42866999D01*
X106336692Y42809258D01*
X106354812Y42782140D01*
X106354943Y42780144D01*
X106353280Y42779033D01*
X106352038Y42779366D01*
X106314966Y42804137D01*
X106268706Y42794934D01*
X106256035Y42782263D01*
X106254103Y42781745D01*
X106252689Y42783159D01*
X106252958Y42784788D01*
X106269308Y42809258D01*
X106280794Y42866999D01*
X106280794Y44136601D01*
X106269308Y44194342D01*
X106251188Y44221460D01*
X106251057Y44223456D01*
X106252720Y44224567D01*
X106253962Y44224234D01*
G37*
G36*
X106903974Y44224234D02*
G01*
X106941046Y44199463D01*
X106987306Y44208666D01*
X106999974Y44221334D01*
X107001906Y44221852D01*
X107003320Y44220438D01*
X107003051Y44218809D01*
X106986703Y44194342D01*
X106975217Y44136601D01*
X106975217Y42866999D01*
X106986703Y42809258D01*
X107004822Y42782140D01*
X107004953Y42780144D01*
X107003290Y42779033D01*
X107002048Y42779366D01*
X106964979Y42804137D01*
X106918719Y42794935D01*
X106906047Y42782263D01*
X106904115Y42781745D01*
X106902701Y42783159D01*
X106902970Y42784788D01*
X106919320Y42809258D01*
X106930806Y42866999D01*
X106930806Y44136601D01*
X106919320Y44194342D01*
X106901200Y44221460D01*
X106901069Y44223456D01*
X106902732Y44224567D01*
X106903974Y44224234D01*
G37*
G36*
X103003905Y44224234D02*
G01*
X103040977Y44199463D01*
X103087237Y44208666D01*
X103099908Y44221337D01*
X103101840Y44221855D01*
X103103254Y44220441D01*
X103102985Y44218812D01*
X103086635Y44194342D01*
X103075149Y44136601D01*
X103075149Y42866999D01*
X103086635Y42809258D01*
X103104755Y42782140D01*
X103104886Y42780144D01*
X103103223Y42779033D01*
X103101981Y42779366D01*
X103064909Y42804137D01*
X103018649Y42794934D01*
X103005978Y42782263D01*
X103004046Y42781745D01*
X103002632Y42783159D01*
X103002901Y42784788D01*
X103019251Y42809258D01*
X103030737Y42866999D01*
X103030737Y44136601D01*
X103019251Y44194342D01*
X103001131Y44221460D01*
X103001000Y44223456D01*
X103002663Y44224567D01*
X103003905Y44224234D01*
G37*
G36*
X102353894Y44224234D02*
G01*
X102390966Y44199463D01*
X102437226Y44208666D01*
X102449894Y44221334D01*
X102451826Y44221852D01*
X102453240Y44220438D01*
X102452971Y44218809D01*
X102436623Y44194342D01*
X102425137Y44136601D01*
X102425137Y42866999D01*
X102436623Y42809258D01*
X102454742Y42782140D01*
X102454873Y42780144D01*
X102453210Y42779033D01*
X102451968Y42779366D01*
X102414899Y42804137D01*
X102368639Y42794935D01*
X102355967Y42782263D01*
X102354035Y42781745D01*
X102352621Y42783159D01*
X102352890Y42784788D01*
X102369240Y42809258D01*
X102380726Y42866999D01*
X102380726Y44136601D01*
X102369240Y44194342D01*
X102351120Y44221460D01*
X102350989Y44223456D01*
X102352652Y44224567D01*
X102353894Y44224234D01*
G37*
G36*
X109504019Y44224234D02*
G01*
X109541091Y44199463D01*
X109587351Y44208666D01*
X109600022Y44221337D01*
X109601954Y44221855D01*
X109603368Y44220441D01*
X109603099Y44218812D01*
X109586749Y44194342D01*
X109575263Y44136601D01*
X109575263Y42866999D01*
X109586749Y42809258D01*
X109604869Y42782140D01*
X109605000Y42780144D01*
X109603337Y42779033D01*
X109602095Y42779366D01*
X109565023Y42804137D01*
X109518763Y42794934D01*
X109506092Y42782263D01*
X109504160Y42781745D01*
X109502746Y42783159D01*
X109503015Y42784788D01*
X109519365Y42809258D01*
X109530851Y42866999D01*
X109530851Y44136601D01*
X109519365Y44194342D01*
X109501245Y44221460D01*
X109501114Y44223456D01*
X109502777Y44224567D01*
X109504019Y44224234D01*
G37*
G36*
X110154031Y44224234D02*
G01*
X110191103Y44199463D01*
X110237363Y44208666D01*
X110250031Y44221334D01*
X110251963Y44221852D01*
X110253377Y44220438D01*
X110253108Y44218809D01*
X110236760Y44194342D01*
X110225274Y44136601D01*
X110225274Y42866999D01*
X110236760Y42809258D01*
X110254879Y42782140D01*
X110255010Y42780144D01*
X110253347Y42779033D01*
X110252105Y42779366D01*
X110215036Y42804137D01*
X110168776Y42794935D01*
X110156104Y42782263D01*
X110154172Y42781745D01*
X110152758Y42783159D01*
X110153027Y42784788D01*
X110169377Y42809258D01*
X110180863Y42866999D01*
X110180863Y44136601D01*
X110169377Y44194342D01*
X110151257Y44221460D01*
X110151126Y44223456D01*
X110152789Y44224567D01*
X110154031Y44224234D01*
G37*
G36*
X108854008Y44224234D02*
G01*
X108891080Y44199463D01*
X108937340Y44208666D01*
X108950008Y44221334D01*
X108951940Y44221852D01*
X108953354Y44220438D01*
X108953085Y44218809D01*
X108936737Y44194342D01*
X108925251Y44136601D01*
X108925251Y42866999D01*
X108936737Y42809258D01*
X108954856Y42782140D01*
X108954987Y42780144D01*
X108953324Y42779033D01*
X108952082Y42779366D01*
X108915013Y42804137D01*
X108868753Y42794935D01*
X108856081Y42782263D01*
X108854149Y42781745D01*
X108852735Y42783159D01*
X108853004Y42784788D01*
X108869354Y42809258D01*
X108880840Y42866999D01*
X108880840Y44136601D01*
X108869354Y44194342D01*
X108851234Y44221460D01*
X108851103Y44223456D01*
X108852766Y44224567D01*
X108854008Y44224234D01*
G37*
G36*
X104303928Y44224234D02*
G01*
X104341000Y44199463D01*
X104387260Y44208666D01*
X104399931Y44221337D01*
X104401863Y44221855D01*
X104403277Y44220441D01*
X104403008Y44218812D01*
X104386658Y44194342D01*
X104375172Y44136601D01*
X104375172Y42866999D01*
X104386658Y42809258D01*
X104404778Y42782140D01*
X104404909Y42780144D01*
X104403246Y42779033D01*
X104402004Y42779366D01*
X104364932Y42804137D01*
X104318672Y42794934D01*
X104306001Y42782263D01*
X104304069Y42781745D01*
X104302655Y42783159D01*
X104302924Y42784788D01*
X104319274Y42809258D01*
X104330760Y42866999D01*
X104330760Y44136601D01*
X104319274Y44194342D01*
X104301154Y44221460D01*
X104301023Y44223456D01*
X104302686Y44224567D01*
X104303928Y44224234D01*
G37*
G36*
X105603951Y44224234D02*
G01*
X105641023Y44199463D01*
X105687283Y44208666D01*
X105699951Y44221334D01*
X105701883Y44221852D01*
X105703297Y44220438D01*
X105703028Y44218809D01*
X105686680Y44194342D01*
X105675194Y44136601D01*
X105675194Y42866999D01*
X105686680Y42809258D01*
X105704799Y42782140D01*
X105704930Y42780144D01*
X105703267Y42779033D01*
X105702025Y42779366D01*
X105664956Y42804137D01*
X105618696Y42794935D01*
X105606024Y42782263D01*
X105604092Y42781745D01*
X105602678Y42783159D01*
X105602947Y42784788D01*
X105619297Y42809258D01*
X105630783Y42866999D01*
X105630783Y44136601D01*
X105619297Y44194342D01*
X105601177Y44221460D01*
X105601046Y44223456D01*
X105602709Y44224567D01*
X105603951Y44224234D01*
G37*
G36*
X103653917Y44224234D02*
G01*
X103690989Y44199463D01*
X103737249Y44208666D01*
X103749917Y44221334D01*
X103751849Y44221852D01*
X103753263Y44220438D01*
X103752994Y44218809D01*
X103736646Y44194342D01*
X103725160Y44136601D01*
X103725160Y42866999D01*
X103736646Y42809258D01*
X103754765Y42782140D01*
X103754896Y42780144D01*
X103753233Y42779033D01*
X103751991Y42779366D01*
X103714922Y42804137D01*
X103668662Y42794935D01*
X103655990Y42782263D01*
X103654058Y42781745D01*
X103652644Y42783159D01*
X103652913Y42784788D01*
X103669263Y42809258D01*
X103680749Y42866999D01*
X103680749Y44136601D01*
X103669263Y44194342D01*
X103651143Y44221460D01*
X103651012Y44223456D01*
X103652675Y44224567D01*
X103653917Y44224234D01*
G37*
G36*
X104953940Y44224234D02*
G01*
X104991012Y44199463D01*
X105037272Y44208666D01*
X105049940Y44221334D01*
X105051872Y44221852D01*
X105053286Y44220438D01*
X105053017Y44218809D01*
X105036669Y44194342D01*
X105025183Y44136601D01*
X105025183Y42866999D01*
X105036669Y42809258D01*
X105054788Y42782140D01*
X105054919Y42780144D01*
X105053256Y42779033D01*
X105052014Y42779366D01*
X105014945Y42804137D01*
X104968685Y42794935D01*
X104956013Y42782263D01*
X104954081Y42781745D01*
X104952667Y42783159D01*
X104952936Y42784788D01*
X104969286Y42809258D01*
X104980772Y42866999D01*
X104980772Y44136601D01*
X104969286Y44194342D01*
X104951166Y44221460D01*
X104951035Y44223456D01*
X104952698Y44224567D01*
X104953940Y44224234D01*
G37*
G36*
X9020184Y43738280D02*
G01*
X9019851Y43737038D01*
X8995080Y43699966D01*
X9004283Y43653706D01*
X9016954Y43641035D01*
X9017472Y43639103D01*
X9016058Y43637689D01*
X9014429Y43637958D01*
X8993542Y43651914D01*
X8935801Y43663400D01*
X8336199Y43663400D01*
X8278458Y43651914D01*
X8254923Y43636188D01*
X8252927Y43636057D01*
X8251816Y43637720D01*
X8252149Y43638962D01*
X8276920Y43676034D01*
X8267717Y43722294D01*
X8255046Y43734965D01*
X8254528Y43736897D01*
X8255942Y43738311D01*
X8257571Y43738042D01*
X8278458Y43724086D01*
X8336199Y43712600D01*
X8935801Y43712600D01*
X8993542Y43724086D01*
X9017077Y43739812D01*
X9019073Y43739943D01*
X9020184Y43738280D01*
G37*
G36*
X165577779Y44909469D02*
G01*
X165578286Y44907534D01*
X165577676Y44906558D01*
X165545098Y44877988D01*
X165542028Y44831146D01*
X165573030Y44795795D01*
X165612337Y44790620D01*
X165613924Y44789402D01*
X165613663Y44787419D01*
X165612466Y44786675D01*
X165322083Y44728914D01*
X165233447Y44698826D01*
X165231485Y44699216D01*
X165230842Y44701110D01*
X165231485Y44702224D01*
X165267137Y44733490D01*
X165270207Y44780332D01*
X165239157Y44815739D01*
X165207843Y44821967D01*
X165120070Y44816214D01*
X165118276Y44817099D01*
X165118145Y44819095D01*
X165119699Y44820196D01*
X165331032Y44845770D01*
X165575849Y44909997D01*
X165577779Y44909469D01*
G37*
G36*
X44593746Y45978611D02*
G01*
X44593845Y45977389D01*
X44583383Y45932787D01*
X44608169Y45892811D01*
X44644521Y45881104D01*
X44645863Y45879621D01*
X44645250Y45877717D01*
X44643908Y45877200D01*
X44588699Y45877200D01*
X44530958Y45865714D01*
X44482179Y45833121D01*
X44449586Y45784342D01*
X44438100Y45726601D01*
X44438100Y45715141D01*
X44437100Y45713409D01*
X44435100Y45713409D01*
X44434252Y45714376D01*
X44415970Y45758511D01*
X44372433Y45776545D01*
X44344761Y45769977D01*
X44320361Y45757706D01*
X44319909Y45757543D01*
X44298572Y45752656D01*
X44296660Y45753245D01*
X44296213Y45755194D01*
X44297360Y45756454D01*
X44407690Y45802154D01*
X44521679Y45889621D01*
X44590311Y45979064D01*
X44592159Y45979829D01*
X44593746Y45978611D01*
G37*
G36*
X165322083Y49251086D02*
G01*
X165612537Y49193310D01*
X165614041Y49191991D01*
X165613651Y49190029D01*
X165612537Y49189386D01*
X165566032Y49180138D01*
X165539951Y49141107D01*
X165549123Y49094991D01*
X165580508Y49070909D01*
X165581273Y49069061D01*
X165580055Y49067474D01*
X165578742Y49067399D01*
X165375852Y49125194D01*
X165143687Y49158235D01*
X165142113Y49159469D01*
X165142395Y49161449D01*
X165144100Y49162211D01*
X165207709Y49158042D01*
X165252568Y49173270D01*
X165273331Y49215372D01*
X165258193Y49259965D01*
X165231861Y49277559D01*
X165230976Y49279353D01*
X165232087Y49281016D01*
X165233615Y49281116D01*
X165322083Y49251086D01*
G37*
G36*
X9020184Y60502280D02*
G01*
X9019851Y60501038D01*
X8995080Y60463966D01*
X9004283Y60417706D01*
X9016954Y60405035D01*
X9017472Y60403103D01*
X9016058Y60401689D01*
X9014429Y60401958D01*
X8993542Y60415914D01*
X8935801Y60427400D01*
X8336199Y60427400D01*
X8278458Y60415914D01*
X8254923Y60400188D01*
X8252927Y60400057D01*
X8251816Y60401720D01*
X8252149Y60402962D01*
X8276920Y60440034D01*
X8267717Y60486294D01*
X8255046Y60498965D01*
X8254528Y60500897D01*
X8255942Y60502311D01*
X8257571Y60502042D01*
X8278458Y60488086D01*
X8336199Y60476600D01*
X8935801Y60476600D01*
X8993542Y60488086D01*
X9017077Y60503812D01*
X9019073Y60503943D01*
X9020184Y60502280D01*
G37*
M02*
