M48
; DRILL file {KiCad (6.0.0)} date Fri Oct 28 19:46:21 2022
; FORMAT={-:-/ absolute / metric / decimal}
; #@! TF.CreationDate,2022-10-28T19:46:21-04:00
; #@! TF.GenerationSoftware,Kicad,Pcbnew,(6.0.0)
; #@! TF.FileFunction,MixedPlating,1,2
FMAT,2
METRIC
; #@! TA.AperFunction,Plated,PTH,ViaDrill
T1C0.400
; #@! TA.AperFunction,Plated,PTH,ViaDrill
T2C0.500
; #@! TA.AperFunction,Plated,PTH,ViaDrill
T3C0.508
; #@! TA.AperFunction,Plated,PTH,ComponentDrill
T4C0.800
; #@! TA.AperFunction,Plated,PTH,ComponentDrill
T5C0.910
; #@! TA.AperFunction,Plated,PTH,ComponentDrill
T6C0.914
; #@! TA.AperFunction,Plated,PTH,ViaDrill
T7C1.000
; #@! TA.AperFunction,Plated,PTH,ComponentDrill
T8C1.000
; #@! TA.AperFunction,Plated,PTH,ComponentDrill
T9C1.200
; #@! TA.AperFunction,Plated,PTH,ComponentDrill
T10C1.350
; #@! TA.AperFunction,Plated,PTH,ComponentDrill
T11C1.400
; #@! TA.AperFunction,Plated,PTH,ComponentDrill
T12C1.600
; #@! TA.AperFunction,Plated,PTH,ComponentDrill
T13C2.261
; #@! TA.AperFunction,Plated,PTH,ComponentDrill
T14C2.710
; #@! TA.AperFunction,Plated,PTH,ComponentDrill
T15C2.890
; #@! TA.AperFunction,Plated,PTH,ComponentDrill
T16C3.360
%
G90
G05
T1
X19.939Y68.052
X29.845Y23.348
X31.623Y67.798
X31.623Y66.274
X33.401Y78.034
X33.884Y58.705
X35.433Y59.162
X35.458Y57.181
X36.703Y57.861
X37.719Y54.844
X38.735Y58.146
X39.629Y54.844
X40.747Y58.146
X41.783Y37.826
X42.545Y82.784
X43.104Y86.258
X43.104Y84.557
X44.133Y46.279
X45.009Y33.025
X47.18Y46.533
X47.523Y31.259
X48.387Y33.0
X48.704Y46.533
X50.228Y46.533
X51.752Y46.533
X55.245Y33.254
X57.785Y58.146
X57.785Y55.098
X57.785Y34.769
X58.801Y58.146
X58.801Y55.098
X62.611Y37.064
X64.389Y32.238
X64.897Y29.87
X65.025Y46.253
X66.116Y28.804
X66.167Y34.27
X67.132Y26.142
X67.564Y61.214
X67.564Y59.385
X67.742Y33.0
X68.707Y24.821
X69.317Y59.36
X69.342Y86.03
X69.342Y84.226
X69.342Y61.214
X69.469Y32.746
X70.485Y30.709
X70.891Y88.163
X70.891Y86.462
X70.891Y61.214
X70.891Y59.36
X71.145Y27.158
X71.501Y32.182
X72.39Y61.214
X72.415Y59.334
X74.676Y32.746
X75.819Y34.778
X76.708Y52.07
X86.563Y84.023
X86.614Y86.106
X87.884Y87.884
X87.884Y85.217
X88.519Y55.093
X90.297Y74.91
X90.322Y55.093
X92.304Y55.093
X93.98Y60.96
X95.402Y59.487
X95.504Y61.214
X96.139Y90.15
X97.155Y83.546
X97.18Y59.69
X97.79Y61.214
X98.679Y38.842
X99.289Y59.741
X99.568Y61.214
X100.584Y28.555
X100.815Y47.2
X101.117Y59.766
X101.473Y25.888
X102.235Y34.524
X102.997Y85.832
X102.997Y81.006
X102.997Y75.926
X103.863Y46.692
X104.521Y36.048
X104.851Y31.222
X105.387Y46.438
X106.299Y89.896
X106.299Y85.832
X106.502Y33.0
X106.807Y81.006
X106.807Y75.926
X107.165Y46.438
X108.651Y46.692
X109.322Y30.435
X109.855Y90.658
X109.855Y86.34
X110.333Y35.615
X110.617Y81.006
X110.617Y75.926
X111.658Y30.435
X112.574Y36.631
X113.716Y55.194
X115.755Y55.098
X118.389Y55.143
X122.809Y16.49
X129.159Y18.776
X130.937Y73.894
X132.461Y87.102
X132.461Y80.752
X133.731Y79.99
X133.985Y58.146
X133.985Y53.32
X145.923Y82.276
X146.761Y80.594
X148.844Y82.022
T2
X40.526Y84.355
T3
X67.589Y46.914
X69.342Y46.914
X70.764Y46.914
X72.39Y46.939
T4
X13.188Y59.436
X13.188Y42.926
X13.188Y26.924
X15.601Y12.426
X15.728Y59.436
X15.728Y42.926
X15.728Y26.924
X18.141Y12.426
X24.491Y23.348
X27.031Y23.348
X28.595Y74.148
X31.135Y74.148
X38.227Y19.772
X38.227Y17.232
X42.355Y51.085
X42.355Y48.585
X49.403Y20.026
X49.403Y17.486
X54.013Y56.622
X54.013Y54.082
X60.579Y19.772
X60.579Y17.232
X62.459Y51.395
X62.459Y48.895
X71.247Y21.042
X71.247Y18.502
X74.676Y56.622
X74.676Y54.082
X82.55Y21.042
X82.55Y18.502
X94.234Y21.042
X94.234Y18.502
X94.869Y76.2
X94.869Y73.66
X99.037Y52.514
X99.037Y50.014
X105.156Y21.042
X105.156Y18.502
X111.506Y56.622
X111.506Y54.082
X116.614Y21.042
X116.614Y18.502
X117.729Y15.22
X117.729Y11.918
X127.782Y21.336
X127.889Y15.22
X127.889Y11.918
X130.322Y21.336
X135.128Y72.878
X135.128Y70.338
X153.162Y22.586
X153.162Y20.086
X160.528Y60.686
X160.528Y58.186
T5
X23.711Y29.231
X23.711Y26.691
X24.511Y30.501
X24.511Y27.961
T6
X159.919Y91.278
X159.919Y88.778
X159.919Y86.778
X159.919Y84.278
T7
X22.86Y54.387
X22.86Y48.392
X22.86Y42.474
X25.603Y45.522
X25.654Y51.517
X28.499Y54.387
X28.499Y48.392
X28.499Y42.474
X31.267Y51.517
X31.267Y45.522
X34.163Y54.387
X34.163Y48.392
X34.163Y42.474
X45.072Y40.132
X49.568Y40.132
X53.759Y40.132
X65.964Y39.674
X70.46Y39.674
X74.651Y39.674
X102.186Y40.619
X106.225Y40.619
X110.873Y40.619
X119.71Y51.186
X119.71Y45.192
X119.71Y39.274
X122.453Y42.322
X122.504Y48.316
X125.349Y51.186
X125.349Y45.192
X125.349Y39.274
X128.118Y48.316
X128.118Y42.322
X131.013Y51.186
X131.013Y45.192
X131.013Y39.274
X140.411Y48.743
X140.411Y42.824
X140.411Y35.712
X140.411Y29.794
X143.154Y45.872
X143.154Y32.842
X146.05Y48.743
X146.05Y42.824
X146.05Y35.712
X146.05Y29.794
T8
X41.529Y70.358
X41.529Y67.818
X41.529Y27.178
X41.529Y24.638
X44.069Y70.358
X44.069Y67.818
X44.069Y27.178
X44.069Y24.638
X46.609Y70.358
X46.609Y67.818
X46.609Y27.178
X46.609Y24.638
X49.149Y70.358
X49.149Y67.818
X49.149Y27.178
X49.149Y24.638
X51.689Y70.358
X51.689Y67.818
X51.689Y27.178
X51.689Y24.638
X54.229Y70.358
X54.229Y67.818
X54.229Y27.178
X54.229Y24.638
X56.769Y70.358
X56.769Y67.818
X56.769Y27.178
X56.769Y24.638
X59.309Y70.358
X59.309Y67.818
X59.309Y27.178
X59.309Y24.638
X61.849Y70.358
X61.849Y67.818
X61.849Y27.178
X61.849Y24.638
X64.389Y70.358
X64.389Y67.818
X64.389Y27.178
X64.389Y24.638
X105.029Y70.358
X105.029Y67.818
X105.029Y27.178
X105.029Y24.638
X107.569Y70.358
X107.569Y67.818
X107.569Y27.178
X107.569Y24.638
X110.109Y70.358
X110.109Y67.818
X110.109Y27.178
X110.109Y24.638
X112.649Y70.358
X112.649Y67.818
X112.649Y27.178
X112.649Y24.638
X115.189Y70.358
X115.189Y67.818
X115.189Y27.178
X115.189Y24.638
X117.729Y70.358
X117.729Y67.818
X117.729Y27.178
X117.729Y24.638
X120.269Y70.358
X120.269Y67.818
X120.269Y27.178
X120.269Y24.638
X122.809Y70.358
X122.809Y67.818
X122.809Y27.178
X122.809Y24.638
X125.349Y70.358
X125.349Y67.818
X125.349Y27.178
X125.349Y24.638
X127.889Y70.358
X127.889Y67.818
X127.889Y27.178
X127.889Y24.638
T9
X4.826Y66.25
X4.826Y59.85
X4.826Y49.74
X4.826Y43.34
X4.826Y33.484
X4.826Y27.084
T10
X3.861Y94.146
X4.641Y84.691
X7.671Y94.146
X8.451Y84.691
X11.481Y94.146
X12.261Y84.691
X15.291Y94.146
X16.071Y84.691
X20.634Y94.146
X21.418Y84.691
X24.444Y94.146
X25.228Y84.691
X28.254Y94.146
X29.038Y84.691
X32.064Y94.146
X32.848Y84.691
X44.214Y92.264
X48.024Y92.264
X51.834Y92.264
X55.644Y92.264
X60.978Y92.264
X64.788Y92.264
X68.598Y92.264
X72.408Y92.264
X77.733Y92.264
X81.543Y92.264
X85.353Y92.264
X89.163Y92.264
X100.264Y92.511
X101.044Y82.921
X104.074Y92.511
X104.854Y82.921
X107.884Y92.511
X108.664Y82.921
X111.694Y92.511
X112.474Y82.921
X117.545Y91.111
X117.545Y82.921
X121.355Y91.111
X121.355Y82.921
X125.165Y91.111
X125.165Y82.921
X128.975Y91.111
X128.975Y82.921
T11
X31.778Y4.806
X35.278Y4.806
X42.954Y4.806
X46.454Y4.806
X54.178Y4.806
X57.678Y4.806
X65.334Y4.806
X68.834Y4.806
X76.482Y4.806
X79.982Y4.806
X87.912Y4.806
X91.412Y4.806
X99.088Y4.806
X102.588Y4.806
X110.518Y4.806
X114.018Y4.806
X121.948Y4.806
X125.448Y4.806
X149.38Y90.386
X152.88Y90.386
T12
X36.246Y31.324
X40.386Y31.781
X75.667Y24.999
X78.105Y81.692
X78.105Y76.663
X80.239Y30.536
X85.649Y30.257
X90.983Y30.003
X96.342Y29.723
X135.89Y5.334
X162.052Y21.082
X169.926Y23.368
X169.926Y15.24
X169.926Y7.311
X171.323Y75.672
T13
X162.629Y94.348
X162.629Y81.208
T14
X164.922Y46.99
T15
X165.922Y51.49
X165.922Y42.49
T16
X158.922Y46.99
T0
M30
