%TF.GenerationSoftware,KiCad,Pcbnew,(6.0.7)*%
%TF.CreationDate,2022-10-28T04:49:54-04:00*%
%TF.ProjectId,Top_Level,546f705f-4c65-4766-956c-2e6b69636164,rev?*%
%TF.SameCoordinates,PX33ef500PY821a7e8*%
%TF.FileFunction,Soldermask,Bot*%
%TF.FilePolarity,Negative*%
%FSLAX46Y46*%
G04 Gerber Fmt 4.6, Leading zero omitted, Abs format (unit mm)*
G04 Created by KiCad (PCBNEW (6.0.7)) date 2022-10-28 04:49:54*
%MOMM*%
%LPD*%
G01*
G04 APERTURE LIST*
G04 Aperture macros list*
%AMRoundRect*
0 Rectangle with rounded corners*
0 $1 Rounding radius*
0 $2 $3 $4 $5 $6 $7 $8 $9 X,Y pos of 4 corners*
0 Add a 4 corners polygon primitive as box body*
4,1,4,$2,$3,$4,$5,$6,$7,$8,$9,$2,$3,0*
0 Add four circle primitives for the rounded corners*
1,1,$1+$1,$2,$3*
1,1,$1+$1,$4,$5*
1,1,$1+$1,$6,$7*
1,1,$1+$1,$8,$9*
0 Add four rect primitives between the rounded corners*
20,1,$1+$1,$2,$3,$4,$5,0*
20,1,$1+$1,$4,$5,$6,$7,0*
20,1,$1+$1,$6,$7,$8,$9,0*
20,1,$1+$1,$8,$9,$2,$3,0*%
G04 Aperture macros list end*
%ADD10O,2.004800X2.004800*%
%ADD11RoundRect,0.152400X0.850000X-0.850000X0.850000X0.850000X-0.850000X0.850000X-0.850000X-0.850000X0*%
%ADD12C,3.104800*%
%ADD13C,1.704800*%
%ADD14C,2.404800*%
%ADD15C,1.727200*%
%ADD16C,3.073400*%
%ADD17RoundRect,0.152400X-1.012500X-1.012500X1.012500X-1.012500X1.012500X1.012500X-1.012500X1.012500X0*%
%ADD18C,2.329800*%
%ADD19C,1.654800*%
%ADD20C,1.904800*%
%ADD21RoundRect,0.152400X1.012500X1.012500X-1.012500X1.012500X-1.012500X-1.012500X1.012500X-1.012500X0*%
%ADD22O,1.904800X1.904800*%
%ADD23C,2.104800*%
%ADD24C,5.344800*%
%ADD25C,4.369800*%
%ADD26C,4.639800*%
%ADD27C,1.104800*%
%ADD28C,1.804800*%
%ADD29C,1.304800*%
G04 APERTURE END LIST*
D10*
%TO.C,J5-J7*%
X127914400Y24683400D03*
X127914400Y27223400D03*
X125374400Y24683400D03*
X125374400Y27223400D03*
X122834400Y24683400D03*
X122834400Y27223400D03*
X120294400Y24683400D03*
X120294400Y27223400D03*
X117754400Y24683400D03*
X117754400Y27223400D03*
X115214400Y24683400D03*
X115214400Y27223400D03*
X112674400Y24683400D03*
X112674400Y27223400D03*
X110134400Y24683400D03*
X110134400Y27223400D03*
X107594400Y24683400D03*
X107594400Y27223400D03*
X105054400Y24683400D03*
D11*
X105054400Y27223400D03*
%TD*%
%TO.C,J1-J3*%
X41554400Y27223400D03*
D10*
X41554400Y24683400D03*
X44094400Y27223400D03*
X44094400Y24683400D03*
X46634400Y27223400D03*
X46634400Y24683400D03*
X49174400Y27223400D03*
X49174400Y24683400D03*
X51714400Y27223400D03*
X51714400Y24683400D03*
X54254400Y27223400D03*
X54254400Y24683400D03*
X56794400Y27223400D03*
X56794400Y24683400D03*
X59334400Y27223400D03*
X59334400Y24683400D03*
X61874400Y27223400D03*
X61874400Y24683400D03*
X64414400Y27223400D03*
X64414400Y24683400D03*
%TD*%
D11*
%TO.C,J4-J2*%
X41554400Y70403400D03*
D10*
X41554400Y67863400D03*
X44094400Y70403400D03*
X44094400Y67863400D03*
X46634400Y70403400D03*
X46634400Y67863400D03*
X49174400Y70403400D03*
X49174400Y67863400D03*
X51714400Y70403400D03*
X51714400Y67863400D03*
X54254400Y70403400D03*
X54254400Y67863400D03*
X56794400Y70403400D03*
X56794400Y67863400D03*
X59334400Y70403400D03*
X59334400Y67863400D03*
X61874400Y70403400D03*
X61874400Y67863400D03*
X64414400Y70403400D03*
X64414400Y67863400D03*
%TD*%
D11*
%TO.C,J8-J6*%
X105054400Y70403400D03*
D10*
X105054400Y67863400D03*
X107594400Y70403400D03*
X107594400Y67863400D03*
X110134400Y70403400D03*
X110134400Y67863400D03*
X112674400Y70403400D03*
X112674400Y67863400D03*
X115214400Y70403400D03*
X115214400Y67863400D03*
X117754400Y70403400D03*
X117754400Y67863400D03*
X120294400Y70403400D03*
X120294400Y67863400D03*
X122834400Y70403400D03*
X122834400Y67863400D03*
X125374400Y70403400D03*
X125374400Y67863400D03*
X127914400Y70403400D03*
X127914400Y67863400D03*
%TD*%
D12*
%TO.C,TP3*%
X40411400Y31826200D03*
%TD*%
%TO.C,TP2*%
X36271200Y31369000D03*
%TD*%
%TO.C,TP5*%
X78130400Y76708000D03*
%TD*%
%TO.C,TP6*%
X78130400Y81737200D03*
%TD*%
%TO.C,TP1*%
X75692000Y25044400D03*
%TD*%
D13*
%TO.C,JP2*%
X111531400Y56667400D03*
X111531400Y54127400D03*
%TD*%
D12*
%TO.C,TP15*%
X135915400Y5379400D03*
%TD*%
D14*
%TO.C,J21*%
X42979400Y4851400D03*
X46479400Y4851400D03*
%TD*%
%TO.C,J9*%
X110543400Y4851400D03*
X114043400Y4851400D03*
%TD*%
D15*
%TO.C,J6*%
X159944400Y84323499D03*
X159944400Y86823499D03*
X159944400Y88823500D03*
X159944400Y91323500D03*
D16*
X162654400Y81253500D03*
X162654400Y94393499D03*
%TD*%
D13*
%TO.C,JP15*%
X28620400Y74193400D03*
X31160400Y74193400D03*
%TD*%
D17*
%TO.C,J18*%
X21443392Y84736514D03*
D18*
X25253392Y84736514D03*
X29063392Y84736514D03*
X32873392Y84736514D03*
%TD*%
D19*
%TO.C,LED1*%
X24536400Y30546400D03*
X23736400Y29276400D03*
X24536400Y28006400D03*
X23736400Y26736400D03*
%TD*%
D20*
%TO.C,C28*%
X153187400Y22631400D03*
X153187400Y20131400D03*
%TD*%
D17*
%TO.C,J4*%
X44239400Y92309400D03*
D18*
X48049400Y92309400D03*
X51859400Y92309400D03*
X55669400Y92309400D03*
%TD*%
D13*
%TO.C,JP20*%
X60604400Y19817400D03*
X60604400Y17277400D03*
%TD*%
D18*
%TO.C,J16*%
X16096153Y84736514D03*
X12286153Y84736514D03*
X8476153Y84736514D03*
D17*
X4666153Y84736514D03*
%TD*%
D21*
%TO.C,J14*%
X32089153Y94191050D03*
D18*
X28279153Y94191050D03*
X24469153Y94191050D03*
X20659153Y94191050D03*
%TD*%
D12*
%TO.C,TP7*%
X91008200Y30048200D03*
%TD*%
D13*
%TO.C,JP10*%
X127807400Y21381400D03*
X130347400Y21381400D03*
%TD*%
%TO.C,JP13*%
X105181400Y21087400D03*
X105181400Y18547400D03*
%TD*%
%TO.C,JP8*%
X116639400Y21087400D03*
X116639400Y18547400D03*
%TD*%
D17*
%TO.C,J19*%
X101069863Y82966400D03*
D18*
X104879863Y82966400D03*
X108689863Y82966400D03*
X112499863Y82966400D03*
%TD*%
D13*
%TO.C,JP18*%
X49428400Y20071400D03*
X49428400Y17531400D03*
%TD*%
D14*
%TO.C,J23*%
X54203400Y4851400D03*
X57703400Y4851400D03*
%TD*%
D13*
%TO.C,JP11*%
X135153400Y72923400D03*
X135153400Y70383400D03*
%TD*%
D12*
%TO.C,TP4*%
X96367600Y29768800D03*
%TD*%
%TO.C,TP14*%
X171348400Y75717400D03*
%TD*%
D17*
%TO.C,J3*%
X61003400Y92309400D03*
D18*
X64813400Y92309400D03*
X68623400Y92309400D03*
X72433400Y92309400D03*
%TD*%
D20*
%TO.C,C19*%
X62484000Y48940400D03*
X62484000Y51440400D03*
%TD*%
%TO.C,R16*%
X117754400Y15265400D03*
D22*
X127914400Y15265400D03*
%TD*%
D13*
%TO.C,JP12*%
X15753400Y26969400D03*
X13213400Y26969400D03*
%TD*%
D23*
%TO.C,S2*%
X4851400Y66295400D03*
X4851400Y59895400D03*
%TD*%
D14*
%TO.C,J2*%
X149405400Y90431400D03*
X152905400Y90431400D03*
%TD*%
D13*
%TO.C,JP14*%
X27056400Y23393400D03*
X24516400Y23393400D03*
%TD*%
D23*
%TO.C,S1*%
X4851400Y49785400D03*
X4851400Y43385400D03*
%TD*%
D18*
%TO.C,J12*%
X3886153Y94191050D03*
X7696153Y94191050D03*
X11506153Y94191050D03*
D21*
X15316153Y94191050D03*
%TD*%
D13*
%TO.C,JP4*%
X15753400Y42971400D03*
X13213400Y42971400D03*
%TD*%
%TO.C,JP16*%
X94894400Y73705400D03*
X94894400Y76245400D03*
%TD*%
%TO.C,JP5*%
X15753400Y59481400D03*
X13213400Y59481400D03*
%TD*%
D17*
%TO.C,J17*%
X117570863Y82966400D03*
D18*
X121380863Y82966400D03*
X125190863Y82966400D03*
X129000863Y82966400D03*
%TD*%
D20*
%TO.C,C1*%
X42379900Y48630200D03*
X42379900Y51130200D03*
%TD*%
%TO.C,C27*%
X160553400Y58231400D03*
X160553400Y60731400D03*
%TD*%
D13*
%TO.C,JP9*%
X74701400Y56667400D03*
X74701400Y54127400D03*
%TD*%
D12*
%TO.C,TP10*%
X169951400Y23413400D03*
%TD*%
%TO.C,TP9*%
X80264000Y30581600D03*
%TD*%
D13*
%TO.C,JP7*%
X18166400Y12471400D03*
X15626400Y12471400D03*
%TD*%
D14*
%TO.C,J7*%
X87937400Y4851400D03*
X91437400Y4851400D03*
%TD*%
D12*
%TO.C,TP12*%
X169951400Y15285400D03*
%TD*%
%TO.C,TP11*%
X169951400Y7356135D03*
%TD*%
D13*
%TO.C,JP1*%
X54038500Y56667400D03*
X54038500Y54127400D03*
%TD*%
D12*
%TO.C,TP8*%
X85674200Y30302200D03*
%TD*%
D13*
%TO.C,JP6*%
X82575400Y21087400D03*
X82575400Y18547400D03*
%TD*%
D20*
%TO.C,R15*%
X117754400Y11963400D03*
D22*
X127914400Y11963400D03*
%TD*%
D20*
%TO.C,C7*%
X99062122Y50059212D03*
X99062122Y52559212D03*
%TD*%
D13*
%TO.C,JP3*%
X94259400Y21087400D03*
X94259400Y18547400D03*
%TD*%
D14*
%TO.C,J1*%
X121973400Y4851400D03*
X125473400Y4851400D03*
%TD*%
%TO.C,J22*%
X65359400Y4851400D03*
X68859400Y4851400D03*
%TD*%
%TO.C,J11*%
X99113400Y4851400D03*
X102613400Y4851400D03*
%TD*%
D17*
%TO.C,J5*%
X77758400Y92309400D03*
D18*
X81568400Y92309400D03*
X85378400Y92309400D03*
X89188400Y92309400D03*
%TD*%
D23*
%TO.C,S3*%
X4851400Y33529400D03*
X4851400Y27129400D03*
%TD*%
D21*
%TO.C,J15*%
X111719863Y92556400D03*
D18*
X107909863Y92556400D03*
X104099863Y92556400D03*
X100289863Y92556400D03*
%TD*%
D13*
%TO.C,JP19*%
X71272400Y21087400D03*
X71272400Y18547400D03*
%TD*%
D14*
%TO.C,J20*%
X31803400Y4851400D03*
X35303400Y4851400D03*
%TD*%
%TO.C,J8*%
X76507400Y4851400D03*
X80007400Y4851400D03*
%TD*%
D13*
%TO.C,JP17*%
X38252400Y19817400D03*
X38252400Y17277400D03*
%TD*%
D17*
%TO.C,J13*%
X117570863Y91156400D03*
D18*
X121380863Y91156400D03*
X125190863Y91156400D03*
X129000863Y91156400D03*
%TD*%
D24*
%TO.C,J10*%
X158947400Y47035400D03*
D25*
X164947400Y47035400D03*
D26*
X165947400Y51535400D03*
X165947400Y42535400D03*
%TD*%
D12*
%TO.C,TP13*%
X162077400Y21127400D03*
%TD*%
D27*
X72415400Y45770800D03*
X69330582Y46101000D03*
X66116200Y29489400D03*
X33909000Y58750200D03*
X35458400Y59207400D03*
X134010400Y53365400D03*
D28*
X106250322Y40664300D03*
X102211722Y40664300D03*
X110898522Y40664300D03*
D27*
X68732400Y24866600D03*
X71170800Y27203400D03*
X111683800Y30480000D03*
X109347000Y30480000D03*
X104876600Y31267400D03*
X106527600Y33045400D03*
X67157600Y26187400D03*
X69494400Y32791400D03*
D28*
X34188400Y42519600D03*
X31292800Y51562000D03*
X25628600Y45567600D03*
X25679400Y51562000D03*
X31292800Y45567600D03*
X22885400Y54432200D03*
X28524200Y54432200D03*
X22885400Y48437800D03*
X34188400Y54432200D03*
X34188400Y48437800D03*
X22885400Y42519600D03*
X28524200Y48437800D03*
X28524200Y42519600D03*
D27*
X44157900Y46324200D03*
X100840122Y47245212D03*
X97180400Y83591400D03*
D28*
X125374400Y45237400D03*
X65989882Y39719700D03*
X131038600Y45237400D03*
X131038600Y51231800D03*
X125374400Y51231800D03*
D27*
X65050082Y46298300D03*
X148869400Y82067400D03*
X33426400Y78079600D03*
D28*
X140436600Y35757800D03*
X119735600Y51231800D03*
D29*
X40551604Y84400035D03*
D28*
X125374400Y39319200D03*
X119735600Y39319200D03*
X119735600Y45237400D03*
X146075400Y35757800D03*
X53784500Y40177400D03*
D27*
X122834400Y16535400D03*
D28*
X140436600Y29839600D03*
X143179800Y45917800D03*
X128143000Y42367200D03*
X146075400Y29839600D03*
X49593500Y40177400D03*
X70485682Y39719700D03*
X140436600Y48788000D03*
X74676682Y39719700D03*
D27*
X76733400Y52115400D03*
D28*
X122529600Y48361600D03*
X45097700Y40177400D03*
X140436600Y42869800D03*
D27*
X132486400Y87147400D03*
D28*
X143179800Y32887600D03*
D27*
X29870400Y23393400D03*
D28*
X122478800Y42367200D03*
X128143000Y48361600D03*
X146075400Y48788000D03*
X146075400Y42869800D03*
X131038600Y39319200D03*
D27*
X45034200Y33070800D03*
X55270400Y33299400D03*
X112599400Y36676400D03*
X102260400Y34569400D03*
X90322400Y74955400D03*
X130962400Y73939400D03*
X134010400Y58191400D03*
X31648400Y67843400D03*
X19964400Y68097400D03*
X31648400Y66319400D03*
X51777900Y45308200D03*
X39796400Y58211400D03*
X38760400Y58191400D03*
X51777900Y46578200D03*
X36220400Y58445400D03*
X50253900Y45308200D03*
X50253900Y46578200D03*
X48729900Y45308200D03*
X34716400Y57957400D03*
X48729900Y46578200D03*
X38780400Y54909400D03*
X47205900Y46578200D03*
X37744400Y54889400D03*
X47205900Y45308200D03*
X41808400Y37871400D03*
X62636400Y37109400D03*
X98704400Y38887400D03*
X57810400Y34814095D03*
X47548800Y31304900D03*
X58826400Y58191400D03*
X58826400Y55143400D03*
X67767200Y33045400D03*
X48412400Y33045400D03*
X104546400Y36093400D03*
X57810400Y55143400D03*
X57810400Y58191400D03*
X108714122Y45721212D03*
X100355400Y60497400D03*
X99593400Y61259400D03*
X108676622Y46737212D03*
X107190122Y46483212D03*
X87909400Y87929400D03*
X107190122Y45467212D03*
X98577400Y60497400D03*
X87909400Y86659400D03*
X97815400Y61259400D03*
X105412122Y46483212D03*
X95529400Y61259400D03*
X86639400Y84881400D03*
X86639400Y86151400D03*
X105412122Y45467212D03*
X96291400Y60497400D03*
X94767400Y60243400D03*
X103888122Y45721212D03*
X94005400Y61005400D03*
X103888122Y46737212D03*
X110358400Y35660400D03*
X72415400Y61259400D03*
X72415400Y60243400D03*
X72416082Y46806300D03*
X71145400Y61259400D03*
X71145400Y86913400D03*
X70764400Y47142400D03*
X71145400Y88183400D03*
X70739000Y46075600D03*
X71145400Y60243400D03*
X69367400Y84881400D03*
X69367400Y86151400D03*
X69367400Y61259400D03*
X69368082Y47060300D03*
X69367400Y60243400D03*
X67589400Y61259400D03*
X67590082Y46044300D03*
X67590082Y47060300D03*
X67589400Y60243400D03*
X64414400Y32283400D03*
X70510400Y32791400D03*
X71526400Y32791400D03*
X100609400Y28600400D03*
X74676000Y33324800D03*
X75844400Y34823400D03*
X66192400Y34315400D03*
X129184400Y18821400D03*
X101498400Y25933400D03*
X43078400Y85115400D03*
X43078400Y83845400D03*
X42570400Y82829400D03*
X109880400Y86385400D03*
X110642400Y81051400D03*
X109880400Y90703400D03*
X110642400Y75971400D03*
X106324400Y85877400D03*
X106832400Y81051400D03*
X106324400Y89941400D03*
X106832400Y75971400D03*
X103022400Y85877400D03*
X103022400Y81051400D03*
X103022400Y75971400D03*
X96164400Y90195400D03*
X132486400Y80797400D03*
X145948400Y82321400D03*
X133756400Y80035400D03*
X146964400Y82067400D03*
X89814400Y55143400D03*
X88544400Y55143400D03*
X91084400Y55143400D03*
X63398400Y31521400D03*
X114452400Y55143400D03*
X115780400Y55143400D03*
X117246400Y55143400D03*
G36*
X165603179Y44954869D02*
G01*
X165603686Y44952934D01*
X165603076Y44951958D01*
X165570498Y44923388D01*
X165567428Y44876546D01*
X165598430Y44841195D01*
X165637737Y44836020D01*
X165639324Y44834802D01*
X165639063Y44832819D01*
X165637866Y44832075D01*
X165347483Y44774314D01*
X165258847Y44744226D01*
X165256885Y44744616D01*
X165256242Y44746510D01*
X165256885Y44747624D01*
X165292537Y44778890D01*
X165295607Y44825732D01*
X165264557Y44861139D01*
X165233243Y44867367D01*
X165145470Y44861614D01*
X165143676Y44862499D01*
X165143545Y44864495D01*
X165145099Y44865596D01*
X165356432Y44891170D01*
X165601249Y44955397D01*
X165603179Y44954869D01*
G37*
G36*
X165347483Y49296486D02*
G01*
X165637937Y49238710D01*
X165639441Y49237391D01*
X165639051Y49235429D01*
X165637937Y49234786D01*
X165591432Y49225538D01*
X165565351Y49186507D01*
X165574523Y49140391D01*
X165605908Y49116309D01*
X165606673Y49114461D01*
X165605455Y49112874D01*
X165604142Y49112799D01*
X165401252Y49170594D01*
X165169087Y49203635D01*
X165167513Y49204869D01*
X165167795Y49206849D01*
X165169500Y49207611D01*
X165233109Y49203442D01*
X165277968Y49218670D01*
X165298731Y49260772D01*
X165283593Y49305365D01*
X165257261Y49322959D01*
X165256376Y49324753D01*
X165257487Y49326416D01*
X165259015Y49326516D01*
X165347483Y49296486D01*
G37*
G36*
X34427345Y58567842D02*
G01*
X34427614Y58565878D01*
X34419107Y58544717D01*
X34419603Y58497345D01*
X34453111Y58464531D01*
X34504614Y58466961D01*
X34523089Y58476496D01*
X34523539Y58476664D01*
X34547734Y58482473D01*
X34549652Y58481905D01*
X34550119Y58479960D01*
X34548966Y58478680D01*
X34441210Y58434046D01*
X34327221Y58346579D01*
X34239754Y58232590D01*
X34205213Y58149201D01*
X34203626Y58147983D01*
X34201778Y58148748D01*
X34201502Y58150693D01*
X34206715Y58164061D01*
X34205723Y58211426D01*
X34171864Y58243896D01*
X34121550Y58241523D01*
X34096861Y58229105D01*
X34096409Y58228942D01*
X34075068Y58224054D01*
X34073156Y58224643D01*
X34072709Y58226592D01*
X34073856Y58227852D01*
X34184190Y58273554D01*
X34298179Y58361021D01*
X34385646Y58475010D01*
X34423910Y58567389D01*
X34425497Y58568607D01*
X34427345Y58567842D01*
G37*
G36*
X42632441Y83530219D02*
G01*
X42689221Y83456221D01*
X42803210Y83368754D01*
X42935950Y83313772D01*
X43040774Y83299971D01*
X43042361Y83298753D01*
X43042100Y83296770D01*
X43040482Y83295988D01*
X43035211Y83296071D01*
X42991164Y83278631D01*
X42972483Y83235460D01*
X42983341Y83199495D01*
X43018371Y83148526D01*
X43018528Y83146532D01*
X43016880Y83145399D01*
X43015136Y83146175D01*
X42959579Y83218579D01*
X42845590Y83306046D01*
X42712850Y83361028D01*
X42605367Y83375179D01*
X42603780Y83376397D01*
X42604041Y83378380D01*
X42605638Y83379162D01*
X42614024Y83379118D01*
X42657887Y83397018D01*
X42676066Y83440265D01*
X42660454Y83475832D01*
X42660673Y83477820D01*
X42661170Y83478296D01*
X42662098Y83478919D01*
X42629194Y83527886D01*
X42629058Y83529881D01*
X42630718Y83530996D01*
X42632441Y83530219D01*
G37*
M02*
