M48
; DRILL file {KiCad (6.0.7)} date Fri Oct 28 04:50:32 2022
; FORMAT={-:-/ absolute / metric / decimal}
; #@! TF.CreationDate,2022-10-28T04:50:32-04:00
; #@! TF.GenerationSoftware,Kicad,Pcbnew,(6.0.7)
; #@! TF.FileFunction,MixedPlating,1,2
FMAT,2
METRIC
; #@! TA.AperFunction,Plated,PTH,ViaDrill
T1C0.400
; #@! TA.AperFunction,Plated,PTH,ViaDrill
T2C0.500
; #@! TA.AperFunction,Plated,PTH,ComponentDrill
T3C0.800
; #@! TA.AperFunction,Plated,PTH,ComponentDrill
T4C0.910
; #@! TA.AperFunction,Plated,PTH,ComponentDrill
T5C0.914
; #@! TA.AperFunction,Plated,PTH,ViaDrill
T6C1.000
; #@! TA.AperFunction,Plated,PTH,ComponentDrill
T7C1.000
; #@! TA.AperFunction,Plated,PTH,ComponentDrill
T8C1.200
; #@! TA.AperFunction,Plated,PTH,ComponentDrill
T9C1.350
; #@! TA.AperFunction,Plated,PTH,ComponentDrill
T10C1.400
; #@! TA.AperFunction,Plated,PTH,ComponentDrill
T11C1.600
; #@! TA.AperFunction,Plated,PTH,ComponentDrill
T12C2.261
; #@! TA.AperFunction,Plated,PTH,ComponentDrill
T13C2.710
; #@! TA.AperFunction,Plated,PTH,ComponentDrill
T14C2.890
; #@! TA.AperFunction,Plated,PTH,ComponentDrill
T15C3.360
%
G90
G05
T1
X19.964Y68.097
X29.87Y23.393
X31.648Y67.843
X31.648Y66.319
X33.426Y78.08
X33.909Y58.75
X34.716Y57.957
X35.458Y59.207
X36.22Y58.445
X37.744Y54.889
X38.76Y58.191
X38.78Y54.909
X39.796Y58.211
X41.808Y37.871
X42.57Y82.829
X43.078Y85.115
X43.078Y83.845
X44.158Y46.324
X45.034Y33.071
X47.206Y46.578
X47.206Y45.308
X47.549Y31.305
X48.412Y33.045
X48.73Y46.578
X48.73Y45.308
X50.254Y46.578
X50.254Y45.308
X51.778Y46.578
X51.778Y45.308
X55.27Y33.299
X57.81Y58.191
X57.81Y55.143
X57.81Y34.814
X58.826Y58.191
X58.826Y55.143
X62.636Y37.109
X63.398Y31.521
X64.414Y32.283
X65.05Y46.298
X66.116Y29.489
X66.192Y34.315
X67.158Y26.187
X67.589Y61.259
X67.589Y60.243
X67.59Y47.06
X67.59Y46.044
X67.767Y33.045
X68.732Y24.867
X69.331Y46.101
X69.367Y86.151
X69.367Y84.881
X69.367Y61.259
X69.367Y60.243
X69.368Y47.06
X69.494Y32.791
X70.51Y32.791
X70.739Y46.076
X70.764Y47.142
X71.145Y88.183
X71.145Y86.913
X71.145Y61.259
X71.145Y60.243
X71.171Y27.203
X71.526Y32.791
X72.415Y61.259
X72.415Y60.243
X72.415Y45.771
X72.416Y46.806
X74.676Y33.325
X75.844Y34.823
X76.733Y52.115
X86.639Y86.151
X86.639Y84.881
X87.909Y87.929
X87.909Y86.659
X88.544Y55.143
X89.814Y55.143
X90.322Y74.955
X91.084Y55.143
X94.005Y61.005
X94.767Y60.243
X95.529Y61.259
X96.164Y90.195
X96.291Y60.497
X97.18Y83.591
X97.815Y61.259
X98.577Y60.497
X98.704Y38.887
X99.593Y61.259
X100.355Y60.497
X100.609Y28.6
X100.84Y47.245
X101.498Y25.933
X102.26Y34.569
X103.022Y85.877
X103.022Y81.051
X103.022Y75.971
X103.888Y46.737
X103.888Y45.721
X104.546Y36.093
X104.877Y31.267
X105.412Y46.483
X105.412Y45.467
X106.324Y89.941
X106.324Y85.877
X106.528Y33.045
X106.832Y81.051
X106.832Y75.971
X107.19Y46.483
X107.19Y45.467
X108.677Y46.737
X108.714Y45.721
X109.347Y30.48
X109.88Y90.703
X109.88Y86.385
X110.358Y35.66
X110.642Y81.051
X110.642Y75.971
X111.684Y30.48
X112.599Y36.676
X114.452Y55.143
X115.78Y55.143
X117.246Y55.143
X122.834Y16.535
X129.184Y18.821
X130.962Y73.939
X132.486Y87.147
X132.486Y80.797
X133.756Y80.035
X134.01Y58.191
X134.01Y53.365
X145.948Y82.321
X146.964Y82.067
X148.869Y82.067
T2
X40.552Y84.4
T3
X13.213Y59.481
X13.213Y42.971
X13.213Y26.969
X15.626Y12.471
X15.753Y59.481
X15.753Y42.971
X15.753Y26.969
X18.166Y12.471
X24.516Y23.393
X27.056Y23.393
X28.62Y74.193
X31.16Y74.193
X38.252Y19.817
X38.252Y17.277
X42.38Y51.13
X42.38Y48.63
X49.428Y20.071
X49.428Y17.531
X54.038Y56.667
X54.038Y54.127
X60.604Y19.817
X60.604Y17.277
X62.484Y51.44
X62.484Y48.94
X71.272Y21.087
X71.272Y18.547
X74.701Y56.667
X74.701Y54.127
X82.575Y21.087
X82.575Y18.547
X94.259Y21.087
X94.259Y18.547
X94.894Y76.245
X94.894Y73.705
X99.062Y52.559
X99.062Y50.059
X105.181Y21.087
X105.181Y18.547
X111.531Y56.667
X111.531Y54.127
X116.639Y21.087
X116.639Y18.547
X117.754Y15.265
X117.754Y11.963
X127.807Y21.381
X127.914Y15.265
X127.914Y11.963
X130.347Y21.381
X135.153Y72.923
X135.153Y70.383
X153.187Y22.631
X153.187Y20.131
X160.553Y60.731
X160.553Y58.231
T4
X23.736Y29.276
X23.736Y26.736
X24.536Y30.546
X24.536Y28.006
T5
X159.944Y91.323
X159.944Y88.823
X159.944Y86.823
X159.944Y84.323
T6
X22.885Y54.432
X22.885Y48.438
X22.885Y42.52
X25.629Y45.568
X25.679Y51.562
X28.524Y54.432
X28.524Y48.438
X28.524Y42.52
X31.293Y51.562
X31.293Y45.568
X34.188Y54.432
X34.188Y48.438
X34.188Y42.52
X45.098Y40.177
X49.593Y40.177
X53.784Y40.177
X65.99Y39.72
X70.486Y39.72
X74.677Y39.72
X102.212Y40.664
X106.25Y40.664
X110.899Y40.664
X119.736Y51.232
X119.736Y45.237
X119.736Y39.319
X122.479Y42.367
X122.53Y48.362
X125.374Y51.232
X125.374Y45.237
X125.374Y39.319
X128.143Y48.362
X128.143Y42.367
X131.039Y51.232
X131.039Y45.237
X131.039Y39.319
X140.437Y48.788
X140.437Y42.87
X140.437Y35.758
X140.437Y29.84
X143.18Y45.918
X143.18Y32.888
X146.075Y48.788
X146.075Y42.87
X146.075Y35.758
X146.075Y29.84
T7
X41.554Y70.403
X41.554Y67.863
X41.554Y27.223
X41.554Y24.683
X44.094Y70.403
X44.094Y67.863
X44.094Y27.223
X44.094Y24.683
X46.634Y70.403
X46.634Y67.863
X46.634Y27.223
X46.634Y24.683
X49.174Y70.403
X49.174Y67.863
X49.174Y27.223
X49.174Y24.683
X51.714Y70.403
X51.714Y67.863
X51.714Y27.223
X51.714Y24.683
X54.254Y70.403
X54.254Y67.863
X54.254Y27.223
X54.254Y24.683
X56.794Y70.403
X56.794Y67.863
X56.794Y27.223
X56.794Y24.683
X59.334Y70.403
X59.334Y67.863
X59.334Y27.223
X59.334Y24.683
X61.874Y70.403
X61.874Y67.863
X61.874Y27.223
X61.874Y24.683
X64.414Y70.403
X64.414Y67.863
X64.414Y27.223
X64.414Y24.683
X105.054Y70.403
X105.054Y67.863
X105.054Y27.223
X105.054Y24.683
X107.594Y70.403
X107.594Y67.863
X107.594Y27.223
X107.594Y24.683
X110.134Y70.403
X110.134Y67.863
X110.134Y27.223
X110.134Y24.683
X112.674Y70.403
X112.674Y67.863
X112.674Y27.223
X112.674Y24.683
X115.214Y70.403
X115.214Y67.863
X115.214Y27.223
X115.214Y24.683
X117.754Y70.403
X117.754Y67.863
X117.754Y27.223
X117.754Y24.683
X120.294Y70.403
X120.294Y67.863
X120.294Y27.223
X120.294Y24.683
X122.834Y70.403
X122.834Y67.863
X122.834Y27.223
X122.834Y24.683
X125.374Y70.403
X125.374Y67.863
X125.374Y27.223
X125.374Y24.683
X127.914Y70.403
X127.914Y67.863
X127.914Y27.223
X127.914Y24.683
T8
X4.851Y66.295
X4.851Y59.895
X4.851Y49.785
X4.851Y43.385
X4.851Y33.529
X4.851Y27.129
T9
X3.886Y94.191
X4.666Y84.737
X7.696Y94.191
X8.476Y84.737
X11.506Y94.191
X12.286Y84.737
X15.316Y94.191
X16.096Y84.737
X20.659Y94.191
X21.443Y84.737
X24.469Y94.191
X25.253Y84.737
X28.279Y94.191
X29.063Y84.737
X32.089Y94.191
X32.873Y84.737
X44.239Y92.309
X48.049Y92.309
X51.859Y92.309
X55.669Y92.309
X61.003Y92.309
X64.813Y92.309
X68.623Y92.309
X72.433Y92.309
X77.758Y92.309
X81.568Y92.309
X85.378Y92.309
X89.188Y92.309
X100.29Y92.556
X101.07Y82.966
X104.1Y92.556
X104.88Y82.966
X107.91Y92.556
X108.69Y82.966
X111.72Y92.556
X112.5Y82.966
X117.571Y91.156
X117.571Y82.966
X121.381Y91.156
X121.381Y82.966
X125.191Y91.156
X125.191Y82.966
X129.001Y91.156
X129.001Y82.966
T10
X31.803Y4.851
X35.303Y4.851
X42.979Y4.851
X46.479Y4.851
X54.203Y4.851
X57.703Y4.851
X65.359Y4.851
X68.859Y4.851
X76.507Y4.851
X80.007Y4.851
X87.937Y4.851
X91.437Y4.851
X99.113Y4.851
X102.613Y4.851
X110.543Y4.851
X114.043Y4.851
X121.973Y4.851
X125.473Y4.851
X149.405Y90.431
X152.905Y90.431
T11
X36.271Y31.369
X40.411Y31.826
X75.692Y25.044
X78.13Y81.737
X78.13Y76.708
X80.264Y30.582
X85.674Y30.302
X91.008Y30.048
X96.368Y29.769
X135.915Y5.379
X162.077Y21.127
X169.951Y23.413
X169.951Y15.285
X169.951Y7.356
X171.348Y75.717
T12
X162.654Y94.393
X162.654Y81.254
T13
X164.947Y47.035
T14
X165.947Y51.535
X165.947Y42.535
T15
X158.947Y47.035
T0
M30
