%TF.GenerationSoftware,KiCad,Pcbnew,(6.0.9)*%
%TF.CreationDate,2022-11-19T22:55:32-05:00*%
%TF.ProjectId,Sensor_Board_2x16,53656e73-6f72-45f4-926f-6172645f3278,rev?*%
%TF.SameCoordinates,PX1728520PY19b87b58*%
%TF.FileFunction,Copper,L1,Top*%
%TF.FilePolarity,Positive*%
%FSLAX46Y46*%
G04 Gerber Fmt 4.6, Leading zero omitted, Abs format (unit mm)*
G04 Created by KiCad (PCBNEW (6.0.9)) date 2022-11-19 22:55:32*
%MOMM*%
%LPD*%
G01*
G04 APERTURE LIST*
%TA.AperFunction,Profile*%
%ADD10C,0.200000*%
%TD*%
%TA.AperFunction,ComponentPad*%
%ADD11C,2.100000*%
%TD*%
%TA.AperFunction,ComponentPad*%
%ADD12C,1.524000*%
%TD*%
%TA.AperFunction,Conductor*%
%ADD13C,0.250000*%
%TD*%
G04 APERTURE END LIST*
D10*
X0Y406400000D02*
X50800000Y406400000D01*
X50800000Y406400000D02*
X50800000Y0D01*
X50800000Y0D02*
X0Y0D01*
X0Y0D02*
X0Y406400000D01*
D11*
%TO.P,J15,1,1*%
%TO.N,Net-(J15-Pad1)*%
X44805600Y141383660D03*
%TO.P,J15,2,2*%
%TO.N,Net-(J15-Pad2)*%
X44805600Y137883660D03*
%TD*%
%TO.P,J1,1,1*%
%TO.N,Net-(J10-Pad1)*%
X4000600Y378101800D03*
%TO.P,J1,2,2*%
%TO.N,Net-(J10-Pad2)*%
X4000600Y374601800D03*
%TD*%
D12*
%TO.P,S3,1*%
%TO.N,Net-(S1-Pad1)*%
X38367600Y299924554D03*
%TO.P,S3,2*%
%TO.N,Net-(J12-Pad2)*%
X11497600Y273054554D03*
%TD*%
D11*
%TO.P,J10,1,1*%
%TO.N,Net-(J10-Pad1)*%
X44805600Y378129800D03*
%TO.P,J10,2,2*%
%TO.N,Net-(J10-Pad2)*%
X44805600Y374629800D03*
%TD*%
D12*
%TO.P,S8,1*%
%TO.N,Net-(S1-Pad1)*%
X38367600Y62330600D03*
%TO.P,S8,2*%
%TO.N,Net-(J17-Pad2)*%
X11497600Y35460600D03*
%TD*%
%TO.P,S2,1*%
%TO.N,Net-(S1-Pad1)*%
X38367600Y347665175D03*
%TO.P,S2,2*%
%TO.N,Net-(J11-Pad2)*%
X11497600Y320795175D03*
%TD*%
D11*
%TO.P,J5,1,1*%
%TO.N,Net-(J14-Pad1)*%
X4229200Y188704888D03*
%TO.P,J5,2,2*%
%TO.N,Net-(J14-Pad2)*%
X4229200Y185204888D03*
%TD*%
%TO.P,J13,1,1*%
%TO.N,Net-(J13-Pad1)*%
X44805600Y236082116D03*
%TO.P,J13,2,2*%
%TO.N,Net-(J13-Pad2)*%
X44805600Y232582116D03*
%TD*%
D12*
%TO.P,S5,1*%
%TO.N,Net-(S1-Pad1)*%
X38367600Y205115270D03*
%TO.P,S5,2*%
%TO.N,Net-(J14-Pad2)*%
X11497600Y178245270D03*
%TD*%
D11*
%TO.P,J8,1,1*%
%TO.N,Net-(J17-Pad1)*%
X4229200Y46657200D03*
%TO.P,J8,2,2*%
%TO.N,Net-(J17-Pad2)*%
X4229200Y43157200D03*
%TD*%
D12*
%TO.P,S4,1*%
%TO.N,Net-(S1-Pad1)*%
X38367600Y252631905D03*
%TO.P,S4,2*%
%TO.N,Net-(J13-Pad2)*%
X11497600Y225761905D03*
%TD*%
D11*
%TO.P,J3,1,1*%
%TO.N,Net-(J12-Pad1)*%
X4229200Y283403344D03*
%TO.P,J3,2,2*%
%TO.N,Net-(J12-Pad2)*%
X4229200Y279903344D03*
%TD*%
%TO.P,J7,1,1*%
%TO.N,Net-(J16-Pad1)*%
X4229200Y94006432D03*
%TO.P,J7,2,2*%
%TO.N,Net-(J16-Pad2)*%
X4229200Y90506432D03*
%TD*%
%TO.P,J11,1,1*%
%TO.N,Net-(J11-Pad1)*%
X44805600Y330780572D03*
%TO.P,J11,2,2*%
%TO.N,Net-(J11-Pad2)*%
X44805600Y327280572D03*
%TD*%
%TO.P,J2,1,1*%
%TO.N,Net-(J11-Pad1)*%
X4229200Y330752572D03*
%TO.P,J2,2,2*%
%TO.N,Net-(J11-Pad2)*%
X4229200Y327252572D03*
%TD*%
D12*
%TO.P,S6,1*%
%TO.N,Net-(S1-Pad1)*%
X38367600Y157598635D03*
%TO.P,S6,2*%
%TO.N,Net-(J15-Pad2)*%
X11497600Y130728635D03*
%TD*%
%TO.P,S1,1*%
%TO.N,Net-(S1-Pad1)*%
X38367600Y393780600D03*
%TO.P,S1,2*%
%TO.N,Net-(J10-Pad2)*%
X11497600Y366910600D03*
%TD*%
D11*
%TO.P,J12,1,1*%
%TO.N,Net-(J12-Pad1)*%
X44805600Y283431344D03*
%TO.P,J12,2,2*%
%TO.N,Net-(J12-Pad2)*%
X44805600Y279931344D03*
%TD*%
%TO.P,J16,1,1*%
%TO.N,Net-(J16-Pad1)*%
X44805600Y94034432D03*
%TO.P,J16,2,2*%
%TO.N,Net-(J16-Pad2)*%
X44805600Y90534432D03*
%TD*%
%TO.P,J6,1,1*%
%TO.N,Net-(J15-Pad1)*%
X4229200Y141355660D03*
%TO.P,J6,2,2*%
%TO.N,Net-(J15-Pad2)*%
X4229200Y137855660D03*
%TD*%
D12*
%TO.P,S7,1*%
%TO.N,Net-(S1-Pad1)*%
X38367600Y110082000D03*
%TO.P,S7,2*%
%TO.N,Net-(J16-Pad2)*%
X11497600Y83212000D03*
%TD*%
D11*
%TO.P,J9,1,1*%
%TO.N,Net-(S1-Pad1)*%
X34826000Y5346800D03*
%TO.P,J9,2,2*%
X38326000Y5346800D03*
%TD*%
%TO.P,J14,1,1*%
%TO.N,Net-(J14-Pad1)*%
X44805600Y188732888D03*
%TO.P,J14,2,2*%
%TO.N,Net-(J14-Pad2)*%
X44805600Y185232888D03*
%TD*%
%TO.P,J17,1,1*%
%TO.N,Net-(J17-Pad1)*%
X44805600Y46685200D03*
%TO.P,J17,2,2*%
%TO.N,Net-(J17-Pad2)*%
X44805600Y43185200D03*
%TD*%
%TO.P,J4,1,1*%
%TO.N,Net-(J13-Pad1)*%
X4229200Y236054116D03*
%TO.P,J4,2,2*%
%TO.N,Net-(J13-Pad2)*%
X4229200Y232554116D03*
%TD*%
D13*
%TO.N,Net-(S1-Pad1)*%
X38367600Y62330600D02*
X38367600Y5388400D01*
X34826000Y390239000D02*
X38367600Y393780600D01*
X38367600Y205115270D02*
X38367600Y157598635D01*
X34826000Y5346800D02*
X34826000Y390239000D01*
X38367600Y157598635D02*
X38367600Y110082000D01*
X38367600Y110082000D02*
X38367600Y62330600D01*
X38367600Y299924554D02*
X38367600Y252631905D01*
X38367600Y5388400D02*
X38326000Y5346800D01*
X38367600Y252631905D02*
X38367600Y205115270D01*
X38367600Y347665175D02*
X38367600Y299924554D01*
X38367600Y393780600D02*
X38367600Y347665175D01*
%TD*%
M02*
