M48
; DRILL file {KiCad (6.0.9)} date Sat Nov 19 22:54:20 2022
; FORMAT={3:3/ absolute / metric / suppress trailing zeros}
; #@! TF.CreationDate,2022-11-19T22:54:20-05:00
; #@! TF.GenerationSoftware,Kicad,Pcbnew,(6.0.9)
; #@! TF.FileFunction,MixedPlating,1,2
FMAT,2
METRIC,LZ
; #@! TA.AperFunction,Plated,PTH,ComponentDrill
T1C1.400
%
G90
G05
T1
X03578Y36719
X03578Y321075
X03578Y273334
X03578Y226041
X03578Y178525
X03578Y131008
X03578Y083491
X03578Y03574
X059108Y005626
X062608Y005626
X06265Y39406
X06265Y347945
X06265Y300204
X06265Y252911
X06265Y205395
X06265Y157878
X06265Y110361
X06265Y06261
X083404Y36719
X083404Y321075
X083404Y273334
X083404Y226041
X083404Y178525
X083404Y131008
X083404Y083491
X083404Y03574
X106741Y005626
X110241Y005626
X110274Y39406
X110274Y347945
X110274Y300204
X110274Y252911
X110274Y205395
X110274Y157878
X110274Y110361
X110274Y06261
X131029Y36719
X131029Y321075
X131029Y273334
X131029Y226041
X131029Y178525
X131029Y131008
X131029Y083491
X131029Y03574
X154373Y005626
X157873Y005626
X157899Y39406
X157899Y347945
X157899Y300204
X157899Y252911
X157899Y205395
X157899Y157878
X157899Y110361
X157899Y06261
X178653Y36719
X178653Y321075
X178653Y273334
X178653Y226041
X178653Y178525
X178653Y131008
X178653Y083491
X178653Y03574
X202005Y005626
X205505Y005626
X205523Y39406
X205523Y347945
X205523Y300204
X205523Y252911
X205523Y205395
X205523Y157878
X205523Y110361
X205523Y06261
X226277Y36719
X226277Y321075
X226277Y273334
X226277Y226041
X226277Y178525
X226277Y131008
X226277Y083491
X226277Y03574
X249637Y005626
X253137Y005626
X253147Y39406
X253147Y347945
X253147Y300204
X253147Y252911
X253147Y205395
X253147Y157878
X253147Y110361
X253147Y06261
X273901Y36719
X273901Y321075
X273901Y273334
X273901Y226041
X273901Y178525
X273901Y131008
X273901Y083491
X273901Y03574
X29727Y005626
X30077Y005626
X300771Y39406
X300771Y347945
X300771Y300204
X300771Y252911
X300771Y205395
X300771Y157878
X300771Y110361
X300771Y06261
X321526Y36719
X321526Y321075
X321526Y273334
X321526Y226041
X321526Y178525
X321526Y131008
X321526Y083491
X321526Y03574
X344902Y005626
X348396Y39406
X348396Y347945
X348396Y300204
X348396Y252911
X348396Y205395
X348396Y157878
X348396Y110361
X348396Y06261
X348402Y005626
X36915Y36719
X36915Y321075
X36915Y273334
X36915Y226041
X36915Y178525
X36915Y131008
X36915Y083491
X36915Y03574
X392534Y005626
X39602Y39406
X39602Y347945
X39602Y300204
X39602Y252911
X39602Y205395
X39602Y157878
X39602Y110361
X39602Y06261
X396034Y005626
X423596Y370688
X423596Y367188
X423596Y324536
X423596Y321036
X423596Y27686
X423596Y27336
X423596Y229565
X423596Y226065
X423596Y182042
X423596Y178542
X423596Y134518
X423596Y131018
X423596Y086995
X423596Y083495
X423596Y039243
X423596Y035743
T0
M30
