%TF.GenerationSoftware,KiCad,Pcbnew,(6.0.9)*%
%TF.CreationDate,2022-11-19T22:54:18-05:00*%
%TF.ProjectId,Sensor_Board_17x17,53656e73-6f72-45f4-926f-6172645f3137,rev?*%
%TF.SameCoordinates,PX1050cb1PY1adc5c8d*%
%TF.FileFunction,Copper,L1,Top*%
%TF.FilePolarity,Positive*%
%FSLAX46Y46*%
G04 Gerber Fmt 4.6, Leading zero omitted, Abs format (unit mm)*
G04 Created by KiCad (PCBNEW (6.0.9)) date 2022-11-19 22:54:18*
%MOMM*%
%LPD*%
G01*
G04 APERTURE LIST*
%TA.AperFunction,Profile*%
%ADD10C,0.200000*%
%TD*%
%TA.AperFunction,ComponentPad*%
%ADD11C,2.100000*%
%TD*%
%TA.AperFunction,Conductor*%
%ADD12C,0.250000*%
%TD*%
G04 APERTURE END LIST*
D10*
X0Y431800000D02*
X431800000Y431800000D01*
X431800000Y431800000D02*
X431800000Y0D01*
X431800000Y0D02*
X0Y0D01*
X0Y0D02*
X0Y431800000D01*
D11*
%TO.P,S28,1*%
%TO.N,Net-(J4-Pad1)*%
X205522855Y252911305D03*
%TO.P,S28,2*%
%TO.N,Net-(J12-Pad1)*%
X178652855Y226041305D03*
%TD*%
%TO.P,J7,1,1*%
%TO.N,Net-(J7-Pad1)*%
X344901942Y5626200D03*
%TO.P,J7,2,2*%
X348401942Y5626200D03*
%TD*%
%TO.P,S49,1*%
%TO.N,Net-(J7-Pad1)*%
X348395710Y394060000D03*
%TO.P,S49,2*%
%TO.N,Net-(J9-Pad1)*%
X321525710Y367190000D03*
%TD*%
%TO.P,S63,1*%
%TO.N,Net-(J8-Pad1)*%
X396020000Y110361400D03*
%TO.P,S63,2*%
%TO.N,Net-(J15-Pad1)*%
X369150000Y83491400D03*
%TD*%
%TO.P,S17,1*%
%TO.N,Net-(J3-Pad1)*%
X157898570Y394060000D03*
%TO.P,S17,2*%
%TO.N,Net-(J9-Pad1)*%
X131028570Y367190000D03*
%TD*%
%TO.P,J14,1,1*%
%TO.N,Net-(J14-Pad1)*%
X423595800Y134518400D03*
%TO.P,J14,2,2*%
X423595800Y131018400D03*
%TD*%
%TO.P,S3,1*%
%TO.N,Net-(J1-Pad1)*%
X62650000Y300203954D03*
%TO.P,S3,2*%
%TO.N,Net-(J11-Pad1)*%
X35780000Y273333954D03*
%TD*%
%TO.P,S22,1*%
%TO.N,Net-(J3-Pad1)*%
X157898570Y157878035D03*
%TO.P,S22,2*%
%TO.N,Net-(J14-Pad1)*%
X131028570Y131008035D03*
%TD*%
%TO.P,S33,1*%
%TO.N,Net-(J5-Pad1)*%
X253147140Y394060000D03*
%TO.P,S33,2*%
%TO.N,Net-(J9-Pad1)*%
X226277140Y367190000D03*
%TD*%
%TO.P,S19,1*%
%TO.N,Net-(J3-Pad1)*%
X157898570Y300203954D03*
%TO.P,S19,2*%
%TO.N,Net-(J11-Pad1)*%
X131028570Y273333954D03*
%TD*%
%TO.P,J9,1,1*%
%TO.N,Net-(J9-Pad1)*%
X423595800Y370687600D03*
%TO.P,J9,2,2*%
X423595800Y367187600D03*
%TD*%
%TO.P,S8,1*%
%TO.N,Net-(J1-Pad1)*%
X62650000Y62610000D03*
%TO.P,S8,2*%
%TO.N,Net-(J16-Pad1)*%
X35780000Y35740000D03*
%TD*%
%TO.P,J6,1,1*%
%TO.N,Net-(J6-Pad1)*%
X297269685Y5626200D03*
%TO.P,J6,2,2*%
X300769685Y5626200D03*
%TD*%
%TO.P,S29,1*%
%TO.N,Net-(J4-Pad1)*%
X205522855Y205394670D03*
%TO.P,S29,2*%
%TO.N,Net-(J13-Pad1)*%
X178652855Y178524670D03*
%TD*%
%TO.P,J5,1,1*%
%TO.N,Net-(J5-Pad1)*%
X249637428Y5626200D03*
%TO.P,J5,2,2*%
X253137428Y5626200D03*
%TD*%
%TO.P,S12,1*%
%TO.N,Net-(J2-Pad1)*%
X110274285Y252911305D03*
%TO.P,S12,2*%
%TO.N,Net-(J12-Pad1)*%
X83404285Y226041305D03*
%TD*%
%TO.P,S45,1*%
%TO.N,Net-(J6-Pad1)*%
X300771425Y205394670D03*
%TO.P,S45,2*%
%TO.N,Net-(J13-Pad1)*%
X273901425Y178524670D03*
%TD*%
%TO.P,S57,1*%
%TO.N,Net-(J8-Pad1)*%
X396020000Y394060000D03*
%TO.P,S57,2*%
%TO.N,Net-(J9-Pad1)*%
X369150000Y367190000D03*
%TD*%
%TO.P,J2,1,1*%
%TO.N,Net-(J2-Pad1)*%
X106740657Y5626200D03*
%TO.P,J2,2,2*%
X110240657Y5626200D03*
%TD*%
%TO.P,S42,1*%
%TO.N,Net-(J6-Pad1)*%
X300771425Y347944575D03*
%TO.P,S42,2*%
%TO.N,Net-(J10-Pad1)*%
X273901425Y321074575D03*
%TD*%
%TO.P,S55,1*%
%TO.N,Net-(J7-Pad1)*%
X348395710Y110361400D03*
%TO.P,S55,2*%
%TO.N,Net-(J15-Pad1)*%
X321525710Y83491400D03*
%TD*%
%TO.P,S38,1*%
%TO.N,Net-(J5-Pad1)*%
X253147140Y157878035D03*
%TO.P,S38,2*%
%TO.N,Net-(J14-Pad1)*%
X226277140Y131008035D03*
%TD*%
%TO.P,S51,1*%
%TO.N,Net-(J7-Pad1)*%
X348395710Y300203954D03*
%TO.P,S51,2*%
%TO.N,Net-(J11-Pad1)*%
X321525710Y273333954D03*
%TD*%
%TO.P,J8,1,1*%
%TO.N,Net-(J8-Pad1)*%
X392534200Y5626200D03*
%TO.P,J8,2,2*%
X396034200Y5626200D03*
%TD*%
%TO.P,S2,1*%
%TO.N,Net-(J1-Pad1)*%
X62650000Y347944575D03*
%TO.P,S2,2*%
%TO.N,Net-(J10-Pad1)*%
X35780000Y321074575D03*
%TD*%
%TO.P,S46,1*%
%TO.N,Net-(J6-Pad1)*%
X300771425Y157878035D03*
%TO.P,S46,2*%
%TO.N,Net-(J14-Pad1)*%
X273901425Y131008035D03*
%TD*%
%TO.P,S60,1*%
%TO.N,Net-(J8-Pad1)*%
X396020000Y252911305D03*
%TO.P,S60,2*%
%TO.N,Net-(J12-Pad1)*%
X369150000Y226041305D03*
%TD*%
%TO.P,J12,1,1*%
%TO.N,Net-(J12-Pad1)*%
X423595800Y229565200D03*
%TO.P,J12,2,2*%
X423595800Y226065200D03*
%TD*%
%TO.P,S32,1*%
%TO.N,Net-(J4-Pad1)*%
X205522855Y62610000D03*
%TO.P,S32,2*%
%TO.N,Net-(J16-Pad1)*%
X178652855Y35740000D03*
%TD*%
%TO.P,S64,1*%
%TO.N,Net-(J8-Pad1)*%
X396020000Y62610000D03*
%TO.P,S64,2*%
%TO.N,Net-(J16-Pad1)*%
X369150000Y35740000D03*
%TD*%
%TO.P,S61,1*%
%TO.N,Net-(J8-Pad1)*%
X396020000Y205394670D03*
%TO.P,S61,2*%
%TO.N,Net-(J13-Pad1)*%
X369150000Y178524670D03*
%TD*%
%TO.P,S25,1*%
%TO.N,Net-(J4-Pad1)*%
X205522855Y394060000D03*
%TO.P,S25,2*%
%TO.N,Net-(J9-Pad1)*%
X178652855Y367190000D03*
%TD*%
%TO.P,S58,1*%
%TO.N,Net-(J8-Pad1)*%
X396020000Y347944575D03*
%TO.P,S58,2*%
%TO.N,Net-(J10-Pad1)*%
X369150000Y321074575D03*
%TD*%
%TO.P,S5,1*%
%TO.N,Net-(J1-Pad1)*%
X62650000Y205394670D03*
%TO.P,S5,2*%
%TO.N,Net-(J13-Pad1)*%
X35780000Y178524670D03*
%TD*%
%TO.P,S62,1*%
%TO.N,Net-(J8-Pad1)*%
X396020000Y157878035D03*
%TO.P,S62,2*%
%TO.N,Net-(J14-Pad1)*%
X369150000Y131008035D03*
%TD*%
%TO.P,S48,1*%
%TO.N,Net-(J6-Pad1)*%
X300771425Y62610000D03*
%TO.P,S48,2*%
%TO.N,Net-(J16-Pad1)*%
X273901425Y35740000D03*
%TD*%
%TO.P,S9,1*%
%TO.N,Net-(J2-Pad1)*%
X110274285Y394060000D03*
%TO.P,S9,2*%
%TO.N,Net-(J9-Pad1)*%
X83404285Y367190000D03*
%TD*%
%TO.P,S4,1*%
%TO.N,Net-(J1-Pad1)*%
X62650000Y252911305D03*
%TO.P,S4,2*%
%TO.N,Net-(J12-Pad1)*%
X35780000Y226041305D03*
%TD*%
%TO.P,S30,1*%
%TO.N,Net-(J4-Pad1)*%
X205522855Y157878035D03*
%TO.P,S30,2*%
%TO.N,Net-(J14-Pad1)*%
X178652855Y131008035D03*
%TD*%
%TO.P,S21,1*%
%TO.N,Net-(J3-Pad1)*%
X157898570Y205394670D03*
%TO.P,S21,2*%
%TO.N,Net-(J13-Pad1)*%
X131028570Y178524670D03*
%TD*%
%TO.P,S18,1*%
%TO.N,Net-(J3-Pad1)*%
X157898570Y347944575D03*
%TO.P,S18,2*%
%TO.N,Net-(J10-Pad1)*%
X131028570Y321074575D03*
%TD*%
%TO.P,S40,1*%
%TO.N,Net-(J5-Pad1)*%
X253147140Y62610000D03*
%TO.P,S40,2*%
%TO.N,Net-(J16-Pad1)*%
X226277140Y35740000D03*
%TD*%
%TO.P,S24,1*%
%TO.N,Net-(J3-Pad1)*%
X157898570Y62610000D03*
%TO.P,S24,2*%
%TO.N,Net-(J16-Pad1)*%
X131028570Y35740000D03*
%TD*%
%TO.P,J10,1,1*%
%TO.N,Net-(J10-Pad1)*%
X423595800Y324535800D03*
%TO.P,J10,2,2*%
X423595800Y321035800D03*
%TD*%
%TO.P,S56,1*%
%TO.N,Net-(J7-Pad1)*%
X348395710Y62610000D03*
%TO.P,S56,2*%
%TO.N,Net-(J16-Pad1)*%
X321525710Y35740000D03*
%TD*%
%TO.P,S23,1*%
%TO.N,Net-(J3-Pad1)*%
X157898570Y110361400D03*
%TO.P,S23,2*%
%TO.N,Net-(J15-Pad1)*%
X131028570Y83491400D03*
%TD*%
%TO.P,S6,1*%
%TO.N,Net-(J1-Pad1)*%
X62650000Y157878035D03*
%TO.P,S6,2*%
%TO.N,Net-(J14-Pad1)*%
X35780000Y131008035D03*
%TD*%
%TO.P,S1,1*%
%TO.N,Net-(J1-Pad1)*%
X62650000Y394060000D03*
%TO.P,S1,2*%
%TO.N,Net-(J9-Pad1)*%
X35780000Y367190000D03*
%TD*%
%TO.P,S36,1*%
%TO.N,Net-(J5-Pad1)*%
X253147140Y252911305D03*
%TO.P,S36,2*%
%TO.N,Net-(J12-Pad1)*%
X226277140Y226041305D03*
%TD*%
%TO.P,S11,1*%
%TO.N,Net-(J2-Pad1)*%
X110274285Y300203954D03*
%TO.P,S11,2*%
%TO.N,Net-(J11-Pad1)*%
X83404285Y273333954D03*
%TD*%
%TO.P,S35,1*%
%TO.N,Net-(J5-Pad1)*%
X253147140Y300203954D03*
%TO.P,S35,2*%
%TO.N,Net-(J11-Pad1)*%
X226277140Y273333954D03*
%TD*%
%TO.P,J11,1,1*%
%TO.N,Net-(J11-Pad1)*%
X423595800Y276860000D03*
%TO.P,J11,2,2*%
X423595800Y273360000D03*
%TD*%
%TO.P,J15,1,1*%
%TO.N,Net-(J15-Pad1)*%
X423595800Y86995000D03*
%TO.P,J15,2,2*%
X423595800Y83495000D03*
%TD*%
%TO.P,S27,1*%
%TO.N,Net-(J4-Pad1)*%
X205522855Y300203954D03*
%TO.P,S27,2*%
%TO.N,Net-(J11-Pad1)*%
X178652855Y273333954D03*
%TD*%
%TO.P,S37,1*%
%TO.N,Net-(J5-Pad1)*%
X253147140Y205394670D03*
%TO.P,S37,2*%
%TO.N,Net-(J13-Pad1)*%
X226277140Y178524670D03*
%TD*%
%TO.P,S7,1*%
%TO.N,Net-(J1-Pad1)*%
X62650000Y110361400D03*
%TO.P,S7,2*%
%TO.N,Net-(J15-Pad1)*%
X35780000Y83491400D03*
%TD*%
%TO.P,S20,1*%
%TO.N,Net-(J3-Pad1)*%
X157898570Y252911305D03*
%TO.P,S20,2*%
%TO.N,Net-(J12-Pad1)*%
X131028570Y226041305D03*
%TD*%
%TO.P,J3,1,1*%
%TO.N,Net-(J3-Pad1)*%
X154372914Y5626200D03*
%TO.P,J3,2,2*%
X157872914Y5626200D03*
%TD*%
%TO.P,S16,1*%
%TO.N,Net-(J2-Pad1)*%
X110274285Y62610000D03*
%TO.P,S16,2*%
%TO.N,Net-(J16-Pad1)*%
X83404285Y35740000D03*
%TD*%
%TO.P,S41,1*%
%TO.N,Net-(J6-Pad1)*%
X300771425Y394060000D03*
%TO.P,S41,2*%
%TO.N,Net-(J9-Pad1)*%
X273901425Y367190000D03*
%TD*%
%TO.P,J1,1,1*%
%TO.N,Net-(J1-Pad1)*%
X59108400Y5626200D03*
%TO.P,J1,2,2*%
X62608400Y5626200D03*
%TD*%
%TO.P,S10,1*%
%TO.N,Net-(J2-Pad1)*%
X110274285Y347944575D03*
%TO.P,S10,2*%
%TO.N,Net-(J10-Pad1)*%
X83404285Y321074575D03*
%TD*%
%TO.P,S44,1*%
%TO.N,Net-(J6-Pad1)*%
X300771425Y252911305D03*
%TO.P,S44,2*%
%TO.N,Net-(J12-Pad1)*%
X273901425Y226041305D03*
%TD*%
%TO.P,S34,1*%
%TO.N,Net-(J5-Pad1)*%
X253147140Y347944575D03*
%TO.P,S34,2*%
%TO.N,Net-(J10-Pad1)*%
X226277140Y321074575D03*
%TD*%
%TO.P,S14,1*%
%TO.N,Net-(J2-Pad1)*%
X110274285Y157878035D03*
%TO.P,S14,2*%
%TO.N,Net-(J14-Pad1)*%
X83404285Y131008035D03*
%TD*%
%TO.P,S39,1*%
%TO.N,Net-(J5-Pad1)*%
X253147140Y110361400D03*
%TO.P,S39,2*%
%TO.N,Net-(J15-Pad1)*%
X226277140Y83491400D03*
%TD*%
%TO.P,S54,1*%
%TO.N,Net-(J7-Pad1)*%
X348395710Y157878035D03*
%TO.P,S54,2*%
%TO.N,Net-(J14-Pad1)*%
X321525710Y131008035D03*
%TD*%
%TO.P,S31,1*%
%TO.N,Net-(J4-Pad1)*%
X205522855Y110361400D03*
%TO.P,S31,2*%
%TO.N,Net-(J15-Pad1)*%
X178652855Y83491400D03*
%TD*%
%TO.P,S15,1*%
%TO.N,Net-(J2-Pad1)*%
X110274285Y110361400D03*
%TO.P,S15,2*%
%TO.N,Net-(J15-Pad1)*%
X83404285Y83491400D03*
%TD*%
%TO.P,J13,1,1*%
%TO.N,Net-(J13-Pad1)*%
X423595800Y182041800D03*
%TO.P,J13,2,2*%
X423595800Y178541800D03*
%TD*%
%TO.P,S53,1*%
%TO.N,Net-(J7-Pad1)*%
X348395710Y205394670D03*
%TO.P,S53,2*%
%TO.N,Net-(J13-Pad1)*%
X321525710Y178524670D03*
%TD*%
%TO.P,S43,1*%
%TO.N,Net-(J6-Pad1)*%
X300771425Y300203954D03*
%TO.P,S43,2*%
%TO.N,Net-(J11-Pad1)*%
X273901425Y273333954D03*
%TD*%
%TO.P,S50,1*%
%TO.N,Net-(J7-Pad1)*%
X348395710Y347944575D03*
%TO.P,S50,2*%
%TO.N,Net-(J10-Pad1)*%
X321525710Y321074575D03*
%TD*%
%TO.P,S52,1*%
%TO.N,Net-(J7-Pad1)*%
X348395710Y252911305D03*
%TO.P,S52,2*%
%TO.N,Net-(J12-Pad1)*%
X321525710Y226041305D03*
%TD*%
%TO.P,S59,1*%
%TO.N,Net-(J8-Pad1)*%
X396020000Y300203954D03*
%TO.P,S59,2*%
%TO.N,Net-(J11-Pad1)*%
X369150000Y273333954D03*
%TD*%
%TO.P,J4,1,1*%
%TO.N,Net-(J4-Pad1)*%
X202005171Y5626200D03*
%TO.P,J4,2,2*%
X205505171Y5626200D03*
%TD*%
%TO.P,J16,1,1*%
%TO.N,Net-(J16-Pad1)*%
X423595800Y39243000D03*
%TO.P,J16,2,2*%
X423595800Y35743000D03*
%TD*%
%TO.P,S13,1*%
%TO.N,Net-(J2-Pad1)*%
X110274285Y205394670D03*
%TO.P,S13,2*%
%TO.N,Net-(J13-Pad1)*%
X83404285Y178524670D03*
%TD*%
%TO.P,S47,1*%
%TO.N,Net-(J6-Pad1)*%
X300771425Y110361400D03*
%TO.P,S47,2*%
%TO.N,Net-(J15-Pad1)*%
X273901425Y83491400D03*
%TD*%
%TO.P,S26,1*%
%TO.N,Net-(J4-Pad1)*%
X205522855Y347944575D03*
%TO.P,S26,2*%
%TO.N,Net-(J10-Pad1)*%
X178652855Y321074575D03*
%TD*%
D12*
%TO.N,Net-(J1-Pad1)*%
X62650000Y62610000D02*
X62650000Y5667800D01*
X59108400Y390518400D02*
X62650000Y394060000D01*
X62650000Y205394670D02*
X62650000Y157878035D01*
X59108400Y5626200D02*
X59108400Y390518400D01*
X62650000Y157878035D02*
X62650000Y110361400D01*
X62650000Y110361400D02*
X62650000Y62610000D01*
X62650000Y300203954D02*
X62650000Y252911305D01*
X62650000Y5667800D02*
X62608400Y5626200D01*
X62650000Y252911305D02*
X62650000Y205394670D01*
X62650000Y347944575D02*
X62650000Y300203954D01*
X62650000Y394060000D02*
X62650000Y347944575D01*
%TO.N,Net-(J2-Pad1)*%
X110274285Y394060000D02*
X110274285Y347944575D01*
X110274285Y110361400D02*
X110274285Y62610000D01*
X106740657Y390526372D02*
X110274285Y394060000D01*
X110274285Y62610000D02*
X110274285Y5659828D01*
X110274285Y5659828D02*
X110240657Y5626200D01*
X110274285Y347944575D02*
X110274285Y300203954D01*
X106740657Y5626200D02*
X106740657Y390526372D01*
X110274285Y300203954D02*
X110274285Y252911305D01*
X110274285Y205394670D02*
X110274285Y157878035D01*
X110274285Y157878035D02*
X110274285Y110361400D01*
X110274285Y252911305D02*
X110274285Y205394670D01*
%TO.N,Net-(J3-Pad1)*%
X157898570Y110361400D02*
X157898570Y62610000D01*
X157898570Y394060000D02*
X157898570Y347944575D01*
X157898570Y5651856D02*
X157872914Y5626200D01*
X157898570Y205394670D02*
X157898570Y157878035D01*
X157898570Y252911305D02*
X157898570Y205394670D01*
X157898570Y157878035D02*
X157898570Y110361400D01*
X154372914Y5626200D02*
X154372914Y390534344D01*
X157898570Y300203954D02*
X157898570Y252911305D01*
X157898570Y347944575D02*
X157898570Y300203954D01*
X154372914Y390534344D02*
X157898570Y394060000D01*
X157898570Y62610000D02*
X157898570Y5651856D01*
%TO.N,Net-(J4-Pad1)*%
X205522855Y157878035D02*
X205522855Y110361400D01*
X205522855Y205394670D02*
X205522855Y157878035D01*
X205522855Y300203954D02*
X205522855Y252911305D01*
X202005171Y390549371D02*
X205515800Y394060000D01*
X205522855Y347944575D02*
X205522855Y300203954D01*
X202005171Y5626200D02*
X202005171Y390549371D01*
X205522855Y5643884D02*
X205505171Y5626200D01*
X205522855Y394060000D02*
X205522855Y347944575D01*
X205522855Y252911305D02*
X205522855Y205394670D01*
X205522855Y110361400D02*
X205522855Y62610000D01*
X205522855Y62610000D02*
X205522855Y5643884D01*
X205515800Y394060000D02*
X205522855Y394060000D01*
%TO.N,Net-(J5-Pad1)*%
X249637428Y390550288D02*
X253147140Y394060000D01*
X253137428Y5626200D02*
X253137428Y62600288D01*
X253137428Y62600288D02*
X253147140Y62610000D01*
X253147140Y62610000D02*
X253147140Y394060000D01*
X249637428Y5626200D02*
X249637428Y390550288D01*
%TO.N,Net-(J6-Pad1)*%
X300689600Y394060000D02*
X300771425Y394060000D01*
X297269685Y5626200D02*
X297269685Y390640085D01*
X300771425Y5627940D02*
X300769685Y5626200D01*
X297269685Y390640085D02*
X300689600Y394060000D01*
X300771425Y394060000D02*
X300771425Y5627940D01*
%TO.N,Net-(J7-Pad1)*%
X344901942Y390566232D02*
X348395710Y394060000D01*
X348395710Y5632432D02*
X348401942Y5626200D01*
X344901942Y5626200D02*
X344901942Y390566232D01*
X348395710Y394060000D02*
X348395710Y5632432D01*
%TO.N,Net-(J8-Pad1)*%
X396020000Y394060000D02*
X396020000Y5640400D01*
X392534200Y390574200D02*
X396020000Y394060000D01*
X392534200Y5626200D02*
X392534200Y390574200D01*
X396020000Y5640400D02*
X396034200Y5626200D01*
%TD*%
M02*
