%TF.GenerationSoftware,KiCad,Pcbnew,(6.0.9)*%
%TF.CreationDate,2022-11-19T22:54:18-05:00*%
%TF.ProjectId,Sensor_Board_17x17,53656e73-6f72-45f4-926f-6172645f3137,rev?*%
%TF.SameCoordinates,PX1050cb1PY1adc5c8d*%
%TF.FileFunction,Soldermask,Bot*%
%TF.FilePolarity,Negative*%
%FSLAX46Y46*%
G04 Gerber Fmt 4.6, Leading zero omitted, Abs format (unit mm)*
G04 Created by KiCad (PCBNEW (6.0.9)) date 2022-11-19 22:54:18*
%MOMM*%
%LPD*%
G01*
G04 APERTURE LIST*
%TA.AperFunction,Profile*%
%ADD10C,0.200000*%
%TD*%
%ADD11C,2.404800*%
G04 APERTURE END LIST*
D10*
X0Y431800000D02*
X431800000Y431800000D01*
X431800000Y431800000D02*
X431800000Y0D01*
X431800000Y0D02*
X0Y0D01*
X0Y0D02*
X0Y431800000D01*
X0Y431800000D02*
X431800000Y431800000D01*
X431800000Y431800000D02*
X431800000Y0D01*
X431800000Y0D02*
X0Y0D01*
X0Y0D02*
X0Y431800000D01*
D11*
%TO.C,S28*%
X205522855Y252911305D03*
X178652855Y226041305D03*
%TD*%
%TO.C,J7*%
X344901942Y5626200D03*
X348401942Y5626200D03*
%TD*%
%TO.C,S49*%
X348395710Y394060000D03*
X321525710Y367190000D03*
%TD*%
%TO.C,S63*%
X396020000Y110361400D03*
X369150000Y83491400D03*
%TD*%
%TO.C,S17*%
X157898570Y394060000D03*
X131028570Y367190000D03*
%TD*%
%TO.C,J14*%
X423595800Y134518400D03*
X423595800Y131018400D03*
%TD*%
%TO.C,S3*%
X62650000Y300203954D03*
X35780000Y273333954D03*
%TD*%
%TO.C,S22*%
X157898570Y157878035D03*
X131028570Y131008035D03*
%TD*%
%TO.C,S33*%
X253147140Y394060000D03*
X226277140Y367190000D03*
%TD*%
%TO.C,S19*%
X157898570Y300203954D03*
X131028570Y273333954D03*
%TD*%
%TO.C,J9*%
X423595800Y370687600D03*
X423595800Y367187600D03*
%TD*%
%TO.C,S8*%
X62650000Y62610000D03*
X35780000Y35740000D03*
%TD*%
%TO.C,J6*%
X297269685Y5626200D03*
X300769685Y5626200D03*
%TD*%
%TO.C,S29*%
X205522855Y205394670D03*
X178652855Y178524670D03*
%TD*%
%TO.C,J5*%
X249637428Y5626200D03*
X253137428Y5626200D03*
%TD*%
%TO.C,S12*%
X110274285Y252911305D03*
X83404285Y226041305D03*
%TD*%
%TO.C,S45*%
X300771425Y205394670D03*
X273901425Y178524670D03*
%TD*%
%TO.C,S57*%
X396020000Y394060000D03*
X369150000Y367190000D03*
%TD*%
%TO.C,J2*%
X106740657Y5626200D03*
X110240657Y5626200D03*
%TD*%
%TO.C,S42*%
X300771425Y347944575D03*
X273901425Y321074575D03*
%TD*%
%TO.C,S55*%
X348395710Y110361400D03*
X321525710Y83491400D03*
%TD*%
%TO.C,S38*%
X253147140Y157878035D03*
X226277140Y131008035D03*
%TD*%
%TO.C,S51*%
X348395710Y300203954D03*
X321525710Y273333954D03*
%TD*%
%TO.C,J8*%
X392534200Y5626200D03*
X396034200Y5626200D03*
%TD*%
%TO.C,S2*%
X62650000Y347944575D03*
X35780000Y321074575D03*
%TD*%
%TO.C,S46*%
X300771425Y157878035D03*
X273901425Y131008035D03*
%TD*%
%TO.C,S60*%
X396020000Y252911305D03*
X369150000Y226041305D03*
%TD*%
%TO.C,J12*%
X423595800Y229565200D03*
X423595800Y226065200D03*
%TD*%
%TO.C,S32*%
X205522855Y62610000D03*
X178652855Y35740000D03*
%TD*%
%TO.C,S64*%
X396020000Y62610000D03*
X369150000Y35740000D03*
%TD*%
%TO.C,S61*%
X396020000Y205394670D03*
X369150000Y178524670D03*
%TD*%
%TO.C,S25*%
X205522855Y394060000D03*
X178652855Y367190000D03*
%TD*%
%TO.C,S58*%
X396020000Y347944575D03*
X369150000Y321074575D03*
%TD*%
%TO.C,S5*%
X62650000Y205394670D03*
X35780000Y178524670D03*
%TD*%
%TO.C,S62*%
X396020000Y157878035D03*
X369150000Y131008035D03*
%TD*%
%TO.C,S48*%
X300771425Y62610000D03*
X273901425Y35740000D03*
%TD*%
%TO.C,S9*%
X110274285Y394060000D03*
X83404285Y367190000D03*
%TD*%
%TO.C,S4*%
X62650000Y252911305D03*
X35780000Y226041305D03*
%TD*%
%TO.C,S30*%
X205522855Y157878035D03*
X178652855Y131008035D03*
%TD*%
%TO.C,S21*%
X157898570Y205394670D03*
X131028570Y178524670D03*
%TD*%
%TO.C,S18*%
X157898570Y347944575D03*
X131028570Y321074575D03*
%TD*%
%TO.C,S40*%
X253147140Y62610000D03*
X226277140Y35740000D03*
%TD*%
%TO.C,S24*%
X157898570Y62610000D03*
X131028570Y35740000D03*
%TD*%
%TO.C,J10*%
X423595800Y324535800D03*
X423595800Y321035800D03*
%TD*%
%TO.C,S56*%
X348395710Y62610000D03*
X321525710Y35740000D03*
%TD*%
%TO.C,S23*%
X157898570Y110361400D03*
X131028570Y83491400D03*
%TD*%
%TO.C,S6*%
X62650000Y157878035D03*
X35780000Y131008035D03*
%TD*%
%TO.C,S1*%
X62650000Y394060000D03*
X35780000Y367190000D03*
%TD*%
%TO.C,S36*%
X253147140Y252911305D03*
X226277140Y226041305D03*
%TD*%
%TO.C,S11*%
X110274285Y300203954D03*
X83404285Y273333954D03*
%TD*%
%TO.C,S35*%
X253147140Y300203954D03*
X226277140Y273333954D03*
%TD*%
%TO.C,J11*%
X423595800Y276860000D03*
X423595800Y273360000D03*
%TD*%
%TO.C,J15*%
X423595800Y86995000D03*
X423595800Y83495000D03*
%TD*%
%TO.C,S27*%
X205522855Y300203954D03*
X178652855Y273333954D03*
%TD*%
%TO.C,S37*%
X253147140Y205394670D03*
X226277140Y178524670D03*
%TD*%
%TO.C,S7*%
X62650000Y110361400D03*
X35780000Y83491400D03*
%TD*%
%TO.C,S20*%
X157898570Y252911305D03*
X131028570Y226041305D03*
%TD*%
%TO.C,J3*%
X154372914Y5626200D03*
X157872914Y5626200D03*
%TD*%
%TO.C,S16*%
X110274285Y62610000D03*
X83404285Y35740000D03*
%TD*%
%TO.C,S41*%
X300771425Y394060000D03*
X273901425Y367190000D03*
%TD*%
%TO.C,J1*%
X59108400Y5626200D03*
X62608400Y5626200D03*
%TD*%
%TO.C,S10*%
X110274285Y347944575D03*
X83404285Y321074575D03*
%TD*%
%TO.C,S44*%
X300771425Y252911305D03*
X273901425Y226041305D03*
%TD*%
%TO.C,S34*%
X253147140Y347944575D03*
X226277140Y321074575D03*
%TD*%
%TO.C,S14*%
X110274285Y157878035D03*
X83404285Y131008035D03*
%TD*%
%TO.C,S39*%
X253147140Y110361400D03*
X226277140Y83491400D03*
%TD*%
%TO.C,S54*%
X348395710Y157878035D03*
X321525710Y131008035D03*
%TD*%
%TO.C,S31*%
X205522855Y110361400D03*
X178652855Y83491400D03*
%TD*%
%TO.C,S15*%
X110274285Y110361400D03*
X83404285Y83491400D03*
%TD*%
%TO.C,J13*%
X423595800Y182041800D03*
X423595800Y178541800D03*
%TD*%
%TO.C,S53*%
X348395710Y205394670D03*
X321525710Y178524670D03*
%TD*%
%TO.C,S43*%
X300771425Y300203954D03*
X273901425Y273333954D03*
%TD*%
%TO.C,S50*%
X348395710Y347944575D03*
X321525710Y321074575D03*
%TD*%
%TO.C,S52*%
X348395710Y252911305D03*
X321525710Y226041305D03*
%TD*%
%TO.C,S59*%
X396020000Y300203954D03*
X369150000Y273333954D03*
%TD*%
%TO.C,J4*%
X202005171Y5626200D03*
X205505171Y5626200D03*
%TD*%
%TO.C,J16*%
X423595800Y39243000D03*
X423595800Y35743000D03*
%TD*%
%TO.C,S13*%
X110274285Y205394670D03*
X83404285Y178524670D03*
%TD*%
%TO.C,S47*%
X300771425Y110361400D03*
X273901425Y83491400D03*
%TD*%
%TO.C,S26*%
X205522855Y347944575D03*
X178652855Y321074575D03*
%TD*%
M02*
