%TF.GenerationSoftware,KiCad,Pcbnew,(6.0.8)*%
%TF.CreationDate,2022-11-13T10:48:25-05:00*%
%TF.ProjectId,Top_Level,546f705f-4c65-4766-956c-2e6b69636164,rev?*%
%TF.SameCoordinates,PX33ef500PY821a7e8*%
%TF.FileFunction,Soldermask,Top*%
%TF.FilePolarity,Negative*%
%FSLAX46Y46*%
G04 Gerber Fmt 4.6, Leading zero omitted, Abs format (unit mm)*
G04 Created by KiCad (PCBNEW (6.0.8)) date 2022-11-13 10:48:25*
%MOMM*%
%LPD*%
G01*
G04 APERTURE LIST*
G04 Aperture macros list*
%AMRoundRect*
0 Rectangle with rounded corners*
0 $1 Rounding radius*
0 $2 $3 $4 $5 $6 $7 $8 $9 X,Y pos of 4 corners*
0 Add a 4 corners polygon primitive as box body*
4,1,4,$2,$3,$4,$5,$6,$7,$8,$9,$2,$3,0*
0 Add four circle primitives for the rounded corners*
1,1,$1+$1,$2,$3*
1,1,$1+$1,$4,$5*
1,1,$1+$1,$6,$7*
1,1,$1+$1,$8,$9*
0 Add four rect primitives between the rounded corners*
20,1,$1+$1,$2,$3,$4,$5,0*
20,1,$1+$1,$4,$5,$6,$7,0*
20,1,$1+$1,$6,$7,$8,$9,0*
20,1,$1+$1,$8,$9,$2,$3,0*%
G04 Aperture macros list end*
%TA.AperFunction,Profile*%
%ADD10C,0.304800*%
%TD*%
%ADD11C,0.100000*%
%ADD12RoundRect,0.152400X0.400000X-0.327800X0.400000X0.327800X-0.400000X0.327800X-0.400000X-0.327800X0*%
%ADD13RoundRect,0.152400X-0.400000X-0.800000X0.400000X-0.800000X0.400000X0.800000X-0.400000X0.800000X0*%
%ADD14RoundRect,0.152400X0.800000X1.225000X-0.800000X1.225000X-0.800000X-1.225000X0.800000X-1.225000X0*%
%ADD15RoundRect,0.152400X0.749300X-1.955800X0.749300X1.955800X-0.749300X1.955800X-0.749300X-1.955800X0*%
%ADD16C,1.704800*%
%ADD17C,3.104800*%
%ADD18RoundRect,0.152400X1.360000X-0.510000X1.360000X0.510000X-1.360000X0.510000X-1.360000X-0.510000X0*%
%ADD19RoundRect,0.152400X-0.700000X0.525000X-0.700000X-0.525000X0.700000X-0.525000X0.700000X0.525000X0*%
%ADD20C,2.404800*%
%ADD21RoundRect,0.152400X-1.320800X0.596900X-1.320800X-0.596900X1.320800X-0.596900X1.320800X0.596900X0*%
%ADD22RoundRect,0.152400X-0.350000X-0.650000X0.350000X-0.650000X0.350000X0.650000X-0.350000X0.650000X0*%
%ADD23RoundRect,0.152400X-0.355600X-0.165100X0.355600X-0.165100X0.355600X0.165100X-0.355600X0.165100X0*%
%ADD24RoundRect,0.152400X0.785000X1.410000X-0.785000X1.410000X-0.785000X-1.410000X0.785000X-1.410000X0*%
%ADD25RoundRect,0.152400X0.165100X-0.355600X0.165100X0.355600X-0.165100X0.355600X-0.165100X-0.355600X0*%
%ADD26RoundRect,0.152400X0.355600X0.165100X-0.355600X0.165100X-0.355600X-0.165100X0.355600X-0.165100X0*%
%ADD27RoundRect,0.152400X-0.749300X1.955800X-0.749300X-1.955800X0.749300X-1.955800X0.749300X1.955800X0*%
%ADD28RoundRect,0.152400X-0.165100X0.355600X-0.165100X-0.355600X0.165100X-0.355600X0.165100X0.355600X0*%
%ADD29RoundRect,0.152400X0.327800X0.400000X-0.327800X0.400000X-0.327800X-0.400000X0.327800X-0.400000X0*%
%ADD30C,1.904800*%
%ADD31RoundRect,0.152400X1.675000X-0.625000X1.675000X0.625000X-1.675000X0.625000X-1.675000X-0.625000X0*%
%ADD32C,1.371600*%
%ADD33RoundRect,0.152400X0.700000X-0.500000X0.700000X0.500000X-0.700000X0.500000X-0.700000X-0.500000X0*%
%ADD34RoundRect,0.152400X1.012500X1.012500X-1.012500X1.012500X-1.012500X-1.012500X1.012500X-1.012500X0*%
%ADD35C,2.329800*%
%ADD36RoundRect,0.152400X0.500000X0.700000X-0.500000X0.700000X-0.500000X-0.700000X0.500000X-0.700000X0*%
%ADD37RoundRect,0.152400X-1.012500X-1.012500X1.012500X-1.012500X1.012500X1.012500X-1.012500X1.012500X0*%
%ADD38RoundRect,0.152400X7.500000X-7.500000X7.500000X7.500000X-7.500000X7.500000X-7.500000X-7.500000X0*%
%ADD39RoundRect,0.152400X0.850000X-0.850000X0.850000X0.850000X-0.850000X0.850000X-0.850000X-0.850000X0*%
%ADD40O,2.004800X2.004800*%
%ADD41RoundRect,0.152400X-0.177800X0.838200X-0.177800X-0.838200X0.177800X-0.838200X0.177800X0.838200X0*%
%ADD42RoundRect,0.152400X0.625000X1.675000X-0.625000X1.675000X-0.625000X-1.675000X0.625000X-1.675000X0*%
%ADD43RoundRect,0.152400X-1.750000X0.800000X-1.750000X-0.800000X1.750000X-0.800000X1.750000X0.800000X0*%
%ADD44RoundRect,0.152400X-0.375000X0.300000X-0.375000X-0.300000X0.375000X-0.300000X0.375000X0.300000X0*%
%ADD45RoundRect,0.152400X-0.800000X0.400000X-0.800000X-0.400000X0.800000X-0.400000X0.800000X0.400000X0*%
%ADD46RoundRect,0.152400X-0.800000X-1.225000X0.800000X-1.225000X0.800000X1.225000X-0.800000X1.225000X0*%
%ADD47RoundRect,0.152400X0.600000X-0.600000X0.600000X0.600000X-0.600000X0.600000X-0.600000X-0.600000X0*%
%ADD48C,1.654800*%
%ADD49RoundRect,0.152400X0.800000X-0.400000X0.800000X0.400000X-0.800000X0.400000X-0.800000X-0.400000X0*%
%ADD50O,1.904800X1.904800*%
%ADD51C,2.004800*%
%ADD52C,5.344800*%
%ADD53C,4.369800*%
%ADD54C,4.639800*%
%ADD55C,2.104800*%
%ADD56RoundRect,0.152400X-0.508000X-1.346200X0.508000X-1.346200X0.508000X1.346200X-0.508000X1.346200X0*%
%ADD57RoundRect,0.152400X-5.232400X-5.435600X5.232400X-5.435600X5.232400X5.435600X-5.232400X5.435600X0*%
%ADD58RoundRect,0.152400X-0.600000X-0.600000X0.600000X-0.600000X0.600000X0.600000X-0.600000X0.600000X0*%
%ADD59C,1.828800*%
%ADD60RoundRect,0.152400X0.300000X0.375000X-0.300000X0.375000X-0.300000X-0.375000X0.300000X-0.375000X0*%
%ADD61RoundRect,0.152400X-0.152400X0.635000X-0.152400X-0.635000X0.152400X-0.635000X0.152400X0.635000X0*%
%ADD62RoundRect,0.152400X-2.500000X1.270000X-2.500000X-1.270000X2.500000X-1.270000X2.500000X1.270000X0*%
%ADD63RoundRect,0.152400X0.177800X-0.838200X0.177800X0.838200X-0.177800X0.838200X-0.177800X-0.838200X0*%
%ADD64RoundRect,0.152400X-1.360000X0.510000X-1.360000X-0.510000X1.360000X-0.510000X1.360000X0.510000X0*%
%ADD65RoundRect,0.152400X0.400000X0.800000X-0.400000X0.800000X-0.400000X-0.800000X0.400000X-0.800000X0*%
%ADD66RoundRect,0.152400X-0.510000X-1.360000X0.510000X-1.360000X0.510000X1.360000X-0.510000X1.360000X0*%
%ADD67RoundRect,0.152400X-0.762500X0.350000X-0.762500X-0.350000X0.762500X-0.350000X0.762500X0.350000X0*%
%ADD68RoundRect,0.152400X1.200000X1.600000X-1.200000X1.600000X-1.200000X-1.600000X1.200000X-1.600000X0*%
%ADD69RoundRect,0.152400X2.500000X-5.956300X2.500000X5.956300X-2.500000X5.956300X-2.500000X-5.956300X0*%
%ADD70RoundRect,0.152400X0.375000X-0.300000X0.375000X0.300000X-0.375000X0.300000X-0.375000X-0.300000X0*%
%ADD71C,1.727200*%
%ADD72C,3.073400*%
%ADD73RoundRect,0.152400X-1.485900X-0.279400X1.485900X-0.279400X1.485900X0.279400X-1.485900X0.279400X0*%
%ADD74RoundRect,0.152400X-1.650000X1.225000X-1.650000X-1.225000X1.650000X-1.225000X1.650000X1.225000X0*%
%ADD75RoundRect,0.152400X-0.475000X0.375000X-0.475000X-0.375000X0.475000X-0.375000X0.475000X0.375000X0*%
%ADD76RoundRect,0.152400X0.535000X1.080000X-0.535000X1.080000X-0.535000X-1.080000X0.535000X-1.080000X0*%
%ADD77RoundRect,0.152400X5.400000X-0.955000X5.400000X0.955000X-5.400000X0.955000X-5.400000X-0.955000X0*%
%ADD78RoundRect,0.152400X4.165000X-2.540000X4.165000X2.540000X-4.165000X2.540000X-4.165000X-2.540000X0*%
%ADD79RoundRect,0.152400X2.000000X2.654300X-2.000000X2.654300X-2.000000X-2.654300X2.000000X-2.654300X0*%
%ADD80RoundRect,0.152400X-0.327800X-0.400000X0.327800X-0.400000X0.327800X0.400000X-0.327800X0.400000X0*%
%ADD81RoundRect,0.152400X0.279400X0.508000X-0.279400X0.508000X-0.279400X-0.508000X0.279400X-0.508000X0*%
%ADD82C,1.447800*%
%ADD83C,1.804800*%
%ADD84C,1.193800*%
%ADD85C,1.304800*%
%ADD86C,1.574800*%
%ADD87C,1.204800*%
%ADD88C,1.219200*%
%ADD89C,1.320800*%
G04 APERTURE END LIST*
D10*
X0Y25400D02*
X173990000Y25400D01*
X173990000Y25400D02*
X173990000Y97815400D01*
X173990000Y97815400D02*
X0Y97815400D01*
X0Y97815400D02*
X0Y25400D01*
%TO.C,IC2*%
G36*
X104783001Y40305400D02*
G01*
X104503001Y40305400D01*
X104503001Y40805400D01*
X104783001Y40805400D01*
X104783001Y40305400D01*
G37*
D11*
X104783001Y40305400D02*
X104503001Y40305400D01*
X104503001Y40805400D01*
X104783001Y40805400D01*
X104783001Y40305400D01*
G36*
X108102999Y40305400D02*
G01*
X107822999Y40305400D01*
X107822999Y40805400D01*
X108102999Y40805400D01*
X108102999Y40305400D01*
G37*
X108102999Y40305400D02*
X107822999Y40305400D01*
X107822999Y40805400D01*
X108102999Y40805400D01*
X108102999Y40305400D01*
%TO.C,IC3*%
G36*
X68838683Y39543400D02*
G01*
X68558683Y39543400D01*
X68558683Y40043400D01*
X68838683Y40043400D01*
X68838683Y39543400D01*
G37*
X68838683Y39543400D02*
X68558683Y39543400D01*
X68558683Y40043400D01*
X68838683Y40043400D01*
X68838683Y39543400D01*
G36*
X72158681Y39543400D02*
G01*
X71878681Y39543400D01*
X71878681Y40043400D01*
X72158681Y40043400D01*
X72158681Y39543400D01*
G37*
X72158681Y39543400D02*
X71878681Y39543400D01*
X71878681Y40043400D01*
X72158681Y40043400D01*
X72158681Y39543400D01*
%TO.C,IC1*%
G36*
X47946501Y39869300D02*
G01*
X47666501Y39869300D01*
X47666501Y40369300D01*
X47946501Y40369300D01*
X47946501Y39869300D01*
G37*
X47946501Y39869300D02*
X47666501Y39869300D01*
X47666501Y40369300D01*
X47946501Y40369300D01*
X47946501Y39869300D01*
G36*
X51266499Y39869300D02*
G01*
X50986499Y39869300D01*
X50986499Y40369300D01*
X51266499Y40369300D01*
X51266499Y39869300D01*
G37*
X51266499Y39869300D02*
X50986499Y39869300D01*
X50986499Y40369300D01*
X51266499Y40369300D01*
X51266499Y39869300D01*
D10*
X0Y25400D02*
X173990000Y25400D01*
X173990000Y25400D02*
X173990000Y97815400D01*
X173990000Y97815400D02*
X0Y97815400D01*
X0Y97815400D02*
X0Y25400D01*
%TO.C,IC2*%
G36*
X104783001Y40305400D02*
G01*
X104503001Y40305400D01*
X104503001Y40805400D01*
X104783001Y40805400D01*
X104783001Y40305400D01*
G37*
D11*
X104783001Y40305400D02*
X104503001Y40305400D01*
X104503001Y40805400D01*
X104783001Y40805400D01*
X104783001Y40305400D01*
G36*
X108102999Y40305400D02*
G01*
X107822999Y40305400D01*
X107822999Y40805400D01*
X108102999Y40805400D01*
X108102999Y40305400D01*
G37*
X108102999Y40305400D02*
X107822999Y40305400D01*
X107822999Y40805400D01*
X108102999Y40805400D01*
X108102999Y40305400D01*
%TO.C,IC3*%
G36*
X68838683Y39543400D02*
G01*
X68558683Y39543400D01*
X68558683Y40043400D01*
X68838683Y40043400D01*
X68838683Y39543400D01*
G37*
X68838683Y39543400D02*
X68558683Y39543400D01*
X68558683Y40043400D01*
X68838683Y40043400D01*
X68838683Y39543400D01*
G36*
X72158681Y39543400D02*
G01*
X71878681Y39543400D01*
X71878681Y40043400D01*
X72158681Y40043400D01*
X72158681Y39543400D01*
G37*
X72158681Y39543400D02*
X71878681Y39543400D01*
X71878681Y40043400D01*
X72158681Y40043400D01*
X72158681Y39543400D01*
%TO.C,IC1*%
G36*
X47946501Y39869300D02*
G01*
X47666501Y39869300D01*
X47666501Y40369300D01*
X47946501Y40369300D01*
X47946501Y39869300D01*
G37*
X47946501Y39869300D02*
X47666501Y39869300D01*
X47666501Y40369300D01*
X47946501Y40369300D01*
X47946501Y39869300D01*
G36*
X51266499Y39869300D02*
G01*
X50986499Y39869300D01*
X50986499Y40369300D01*
X51266499Y40369300D01*
X51266499Y39869300D01*
G37*
X51266499Y39869300D02*
X50986499Y39869300D01*
X50986499Y40369300D01*
X51266499Y40369300D01*
X51266499Y39869300D01*
%TD*%
D12*
%TO.C,C33*%
X38582600Y81392000D03*
X38582600Y83047600D03*
%TD*%
D13*
%TO.C,R64*%
X15571904Y80300856D03*
X17971904Y80300856D03*
%TD*%
D14*
%TO.C,D3*%
X153390600Y26831400D03*
X153390600Y31131400D03*
%TD*%
D15*
%TO.C,C36*%
X156616400Y85782150D03*
X156616400Y94875350D03*
%TD*%
D16*
%TO.C,JP13*%
X105156000Y21067400D03*
X105156000Y18527400D03*
%TD*%
D17*
%TO.C,TP14*%
X148996400Y75463400D03*
%TD*%
D18*
%TO.C,C32*%
X100076000Y11175400D03*
X100076000Y13975400D03*
%TD*%
D19*
%TO.C,R12*%
X99872800Y45273000D03*
X99872800Y43373000D03*
%TD*%
D13*
%TO.C,R51*%
X102659000Y14408400D03*
X105059000Y14408400D03*
%TD*%
D17*
%TO.C,TP16*%
X136550400Y78257400D03*
%TD*%
D20*
%TO.C,J8*%
X76482000Y4831400D03*
X79982000Y4831400D03*
%TD*%
D17*
%TO.C,TP17*%
X141630400Y78003400D03*
%TD*%
D21*
%TO.C,R2*%
X50990500Y52959000D03*
X50990500Y48285400D03*
%TD*%
D13*
%TO.C,R78*%
X46172000Y14408400D03*
X48572000Y14408400D03*
%TD*%
D22*
%TO.C,R37*%
X74234682Y48564300D03*
X76134682Y48564300D03*
%TD*%
D20*
%TO.C,J9*%
X110518000Y4831400D03*
X114018000Y4831400D03*
%TD*%
D23*
%TO.C,U8*%
X11747500Y21107400D03*
X13144500Y21107400D03*
%TD*%
D24*
%TO.C,F1*%
X169450400Y31249400D03*
X159530400Y31249400D03*
X159530400Y25189400D03*
X169450400Y25189400D03*
%TD*%
D17*
%TO.C,TP5*%
X96342200Y29748800D03*
%TD*%
D20*
%TO.C,J2*%
X166268400Y89433400D03*
X169768400Y89433400D03*
%TD*%
D25*
%TO.C,U17*%
X29337000Y11244900D03*
X29337000Y12641900D03*
%TD*%
D26*
%TO.C,U2*%
X121221500Y18801400D03*
X119824500Y18801400D03*
%TD*%
D27*
%TO.C,C30*%
X142925800Y70332600D03*
X142925800Y61239400D03*
%TD*%
D28*
%TO.C,U13*%
X40643967Y82891067D03*
X40643967Y81494067D03*
%TD*%
D16*
%TO.C,JP19*%
X71247000Y21067400D03*
X71247000Y18527400D03*
%TD*%
D22*
%TO.C,R9*%
X111802722Y49003212D03*
X113702722Y49003212D03*
%TD*%
D29*
%TO.C,C25*%
X142077200Y21793200D03*
X140421600Y21793200D03*
%TD*%
D17*
%TO.C,TP12*%
X22783800Y9855200D03*
%TD*%
D30*
%TO.C,C28*%
X142087600Y16586200D03*
X139587600Y16586200D03*
%TD*%
D31*
%TO.C,R24*%
X16129000Y45265400D03*
X16129000Y51265400D03*
%TD*%
D32*
%TO.C,C6*%
X57480200Y42189400D03*
X57480200Y47269400D03*
%TD*%
D33*
%TO.C,R57*%
X91998800Y75859600D03*
X91998800Y77759600D03*
%TD*%
D25*
%TO.C,U12*%
X96774000Y11244900D03*
X96774000Y12641900D03*
%TD*%
D13*
%TO.C,R65*%
X127996677Y78237400D03*
X130396677Y78237400D03*
%TD*%
D34*
%TO.C,J15*%
X111480600Y93776800D03*
D35*
X107670600Y93776800D03*
X103860600Y93776800D03*
X100050600Y93776800D03*
%TD*%
D36*
%TO.C,R54*%
X31369000Y26421400D03*
X29469000Y26421400D03*
%TD*%
D37*
%TO.C,J16*%
X4640753Y84716514D03*
D35*
X8450753Y84716514D03*
X12260753Y84716514D03*
X16070753Y84716514D03*
%TD*%
D21*
%TO.C,R38*%
X71120682Y53187100D03*
X71120682Y48513500D03*
%TD*%
D38*
%TO.C,HS1*%
X125349000Y44983400D03*
%TD*%
D32*
%TO.C,C24*%
X82524600Y42849800D03*
X82524600Y47929800D03*
%TD*%
D23*
%TO.C,U5*%
X8864600Y67328100D03*
X10261600Y67328100D03*
%TD*%
D16*
%TO.C,JP11*%
X135026400Y61767400D03*
X135026400Y64307400D03*
%TD*%
D21*
%TO.C,R11*%
X105384600Y53594000D03*
X105384600Y48920400D03*
%TD*%
D39*
%TO.C,J5-J1*%
X105029000Y27203400D03*
D40*
X105029000Y24663400D03*
X107569000Y27203400D03*
X107569000Y24663400D03*
X110109000Y27203400D03*
X110109000Y24663400D03*
X112649000Y27203400D03*
X112649000Y24663400D03*
X115189000Y27203400D03*
X115189000Y24663400D03*
X117729000Y27203400D03*
X117729000Y24663400D03*
X120269000Y27203400D03*
X120269000Y24663400D03*
X122809000Y27203400D03*
X122809000Y24663400D03*
X125349000Y27203400D03*
X125349000Y24663400D03*
X127889000Y27203400D03*
X127889000Y24663400D03*
%TD*%
D31*
%TO.C,R33*%
X18161000Y15567400D03*
X18161000Y21567400D03*
%TD*%
D18*
%TO.C,C16*%
X76962000Y11175400D03*
X76962000Y13975400D03*
%TD*%
D37*
%TO.C,J17*%
X117545463Y82946400D03*
D35*
X121355463Y82946400D03*
X125165463Y82946400D03*
X128975463Y82946400D03*
%TD*%
D37*
%TO.C,J3*%
X61375400Y92365600D03*
D35*
X65185400Y92365600D03*
X68995400Y92365600D03*
X72805400Y92365600D03*
%TD*%
D25*
%TO.C,U3*%
X85991700Y11244900D03*
X85991700Y12641900D03*
%TD*%
D20*
%TO.C,J23*%
X54178000Y4831400D03*
X57678000Y4831400D03*
%TD*%
D31*
%TO.C,R49*%
X16129000Y29537400D03*
X16129000Y35537400D03*
%TD*%
D20*
%TO.C,J24*%
X76990000Y71894800D03*
X80490000Y71894800D03*
%TD*%
D41*
%TO.C,U16*%
X96204199Y86436200D03*
X95554201Y86436200D03*
X94904199Y86436200D03*
X94254201Y86436200D03*
X93604202Y86436200D03*
X92954201Y86436200D03*
X92304202Y86436200D03*
X91654201Y86436200D03*
X91654201Y80797400D03*
X92304199Y80797400D03*
X92954201Y80797400D03*
X93604199Y80797400D03*
X94254198Y80797400D03*
X94904199Y80797400D03*
X95554198Y80797400D03*
X96204199Y80797400D03*
%TD*%
D13*
%TO.C,R71*%
X107292463Y78237400D03*
X109692463Y78237400D03*
%TD*%
%TO.C,R66*%
X19878516Y80300856D03*
X22278516Y80300856D03*
%TD*%
D18*
%TO.C,C13*%
X88900000Y11175400D03*
X88900000Y13975400D03*
%TD*%
D12*
%TO.C,C35*%
X160172400Y80477600D03*
X160172400Y82133200D03*
%TD*%
D32*
%TO.C,C9*%
X110490000Y61798200D03*
X105410000Y61798200D03*
%TD*%
D30*
%TO.C,C27*%
X155620400Y54381400D03*
X158120400Y54381400D03*
%TD*%
D13*
%TO.C,R75*%
X35069600Y14377600D03*
X37469600Y14377600D03*
%TD*%
D42*
%TO.C,R85*%
X57892000Y19309400D03*
X51892000Y19309400D03*
%TD*%
D39*
%TO.C,J4-J1*%
X41529000Y70383400D03*
D40*
X41529000Y67843400D03*
X44069000Y70383400D03*
X44069000Y67843400D03*
X46609000Y70383400D03*
X46609000Y67843400D03*
X49149000Y70383400D03*
X49149000Y67843400D03*
X51689000Y70383400D03*
X51689000Y67843400D03*
X54229000Y70383400D03*
X54229000Y67843400D03*
X56769000Y70383400D03*
X56769000Y67843400D03*
X59309000Y70383400D03*
X59309000Y67843400D03*
X61849000Y70383400D03*
X61849000Y67843400D03*
X64389000Y70383400D03*
X64389000Y67843400D03*
%TD*%
D23*
%TO.C,U4*%
X8864600Y51072100D03*
X10261600Y51072100D03*
%TD*%
D43*
%TO.C,C2*%
X41592500Y39668200D03*
X41592500Y35668200D03*
%TD*%
D16*
%TO.C,JP3*%
X94234000Y21067400D03*
X94234000Y18527400D03*
%TD*%
D23*
%TO.C,U11*%
X8699500Y34823400D03*
X10096500Y34823400D03*
%TD*%
D39*
%TO.C,J1-J1*%
X41529000Y27203400D03*
D40*
X41529000Y24663400D03*
X44069000Y27203400D03*
X44069000Y24663400D03*
X46609000Y27203400D03*
X46609000Y24663400D03*
X49149000Y27203400D03*
X49149000Y24663400D03*
X51689000Y27203400D03*
X51689000Y24663400D03*
X54229000Y27203400D03*
X54229000Y24663400D03*
X56769000Y27203400D03*
X56769000Y24663400D03*
X59309000Y27203400D03*
X59309000Y24663400D03*
X61849000Y27203400D03*
X61849000Y24663400D03*
X64389000Y27203400D03*
X64389000Y24663400D03*
%TD*%
D17*
%TO.C,TP6*%
X136804400Y35839400D03*
%TD*%
D44*
%TO.C,R34*%
X114624000Y10927400D03*
X113524000Y10927400D03*
%TD*%
D16*
%TO.C,JP5*%
X15728000Y59461400D03*
X13188000Y59461400D03*
%TD*%
D45*
%TO.C,R23*%
X10593000Y45321400D03*
X10593000Y42921400D03*
%TD*%
%TO.C,R16*%
X112574000Y37935400D03*
X112574000Y35535400D03*
%TD*%
D46*
%TO.C,D4*%
X151638000Y51451400D03*
X151638000Y47151400D03*
%TD*%
D17*
%TO.C,TP7*%
X85648800Y30282200D03*
%TD*%
D47*
%TO.C,D2*%
X135026400Y71365400D03*
X135026400Y73465400D03*
%TD*%
D34*
%TO.C,J13*%
X15417800Y94107000D03*
D35*
X11607800Y94107000D03*
X7797800Y94107000D03*
X3987800Y94107000D03*
%TD*%
D43*
%TO.C,C20*%
X62484682Y39134300D03*
X62484682Y35134300D03*
%TD*%
D13*
%TO.C,R68*%
X23922213Y80300856D03*
X26322213Y80300856D03*
%TD*%
D16*
%TO.C,JP12*%
X15728000Y26949400D03*
X13188000Y26949400D03*
%TD*%
%TO.C,JP10*%
X127782000Y21361400D03*
X130322000Y21361400D03*
%TD*%
D48*
%TO.C,LED1*%
X24993600Y30475600D03*
X23317200Y29307200D03*
X25019000Y27961000D03*
X23418800Y26868800D03*
%TD*%
D44*
%TO.C,R83*%
X58998000Y10927400D03*
X57898000Y10927400D03*
%TD*%
D31*
%TO.C,R27*%
X16129000Y62049400D03*
X16129000Y68049400D03*
%TD*%
D19*
%TO.C,R4*%
X42595800Y44231600D03*
X42595800Y42331600D03*
%TD*%
D36*
%TO.C,R53*%
X31369000Y30739400D03*
X29469000Y30739400D03*
%TD*%
D12*
%TO.C,C34*%
X94107000Y76210400D03*
X94107000Y77866000D03*
%TD*%
D25*
%TO.C,U18*%
X40668000Y11244900D03*
X40668000Y12641900D03*
%TD*%
D45*
%TO.C,R41*%
X61672400Y44305400D03*
X61672400Y41905400D03*
%TD*%
D29*
%TO.C,C5*%
X54866300Y46050200D03*
X53210700Y46050200D03*
%TD*%
D38*
%TO.C,HS2*%
X28321000Y48519400D03*
%TD*%
D16*
%TO.C,JP17*%
X38404800Y19797400D03*
X38404800Y17257400D03*
%TD*%
D17*
%TO.C,TP10*%
X61188600Y79781400D03*
%TD*%
D49*
%TO.C,R14*%
X102310000Y33449400D03*
X102310000Y35849400D03*
%TD*%
D30*
%TO.C,R18*%
X118770400Y11963400D03*
D50*
X128930400Y11963400D03*
%TD*%
D51*
%TO.C,J10*%
X169344400Y42697400D03*
D52*
X160344400Y42697400D03*
D53*
X166344400Y42697400D03*
D54*
X167344400Y47197400D03*
X167344400Y38197400D03*
%TD*%
D17*
%TO.C,TP4*%
X136804400Y29997400D03*
%TD*%
D37*
%TO.C,J5*%
X77834600Y92518000D03*
D35*
X81644600Y92518000D03*
X85454600Y92518000D03*
X89264600Y92518000D03*
%TD*%
D55*
%TO.C,S2*%
X4826000Y66275400D03*
X4826000Y59875400D03*
%TD*%
D18*
%TO.C,C39*%
X65814000Y11175400D03*
X65814000Y13975400D03*
%TD*%
D19*
%TO.C,R40*%
X63982600Y44053800D03*
X63982600Y42153800D03*
%TD*%
D18*
%TO.C,C18*%
X110772000Y11175400D03*
X110772000Y13975400D03*
%TD*%
D56*
%TO.C,U10*%
X142036800Y24568150D03*
X143738600Y24568150D03*
X145440400Y24568150D03*
X147142200Y24568150D03*
X148844000Y24568150D03*
D57*
X145440400Y32848550D03*
%TD*%
D39*
%TO.C,J8-J1*%
X105029000Y70383400D03*
D40*
X105029000Y67843400D03*
X107569000Y70383400D03*
X107569000Y67843400D03*
X110109000Y70383400D03*
X110109000Y67843400D03*
X112649000Y70383400D03*
X112649000Y67843400D03*
X115189000Y70383400D03*
X115189000Y67843400D03*
X117729000Y70383400D03*
X117729000Y67843400D03*
X120269000Y70383400D03*
X120269000Y67843400D03*
X122809000Y70383400D03*
X122809000Y67843400D03*
X125349000Y70383400D03*
X125349000Y67843400D03*
X127889000Y70383400D03*
X127889000Y67843400D03*
%TD*%
D43*
%TO.C,C8*%
X98528722Y40589212D03*
X98528722Y36589212D03*
%TD*%
D30*
%TO.C,C7*%
X99060000Y50362800D03*
X99060000Y52862800D03*
%TD*%
D17*
%TO.C,TP8*%
X90982800Y30028200D03*
%TD*%
D44*
%TO.C,R19*%
X92498000Y10927400D03*
X91398000Y10927400D03*
%TD*%
D58*
%TO.C,D1*%
X134992400Y13233400D03*
X137092400Y13233400D03*
%TD*%
D13*
%TO.C,R81*%
X68270000Y14408400D03*
X70670000Y14408400D03*
%TD*%
D59*
%TO.C,J1*%
X124612400Y4089400D03*
X124612400Y6629400D03*
X127152400Y4089400D03*
X127152400Y6629400D03*
X129692400Y4089400D03*
X129692400Y6629400D03*
X132232400Y4089400D03*
X132232400Y6629400D03*
X134772400Y4089400D03*
X134772400Y6629400D03*
%TD*%
D15*
%TO.C,C29*%
X150368000Y10648950D03*
X150368000Y19742150D03*
%TD*%
D45*
%TO.C,R32*%
X13387000Y14333400D03*
X13387000Y11933400D03*
%TD*%
D60*
%TO.C,R22*%
X8636000Y43163400D03*
X8636000Y44263400D03*
%TD*%
D42*
%TO.C,R52*%
X102822000Y19309400D03*
X96822000Y19309400D03*
%TD*%
D44*
%TO.C,R28*%
X80814000Y10927400D03*
X79714000Y10927400D03*
%TD*%
D13*
%TO.C,R67*%
X99659967Y78237400D03*
X102059967Y78237400D03*
%TD*%
D32*
%TO.C,C22*%
X83007200Y54254400D03*
X77927200Y54254400D03*
%TD*%
D16*
%TO.C,JP1*%
X56616600Y55143400D03*
X54076600Y55143400D03*
%TD*%
%TO.C,JP7*%
X18928400Y12451400D03*
X16388400Y12451400D03*
%TD*%
D44*
%TO.C,R74*%
X35729000Y10927400D03*
X34629000Y10927400D03*
%TD*%
D16*
%TO.C,JP2*%
X111506000Y56647400D03*
X111506000Y54107400D03*
%TD*%
D61*
%TO.C,IC2*%
X110528074Y43527200D03*
X109878063Y43527200D03*
X109228051Y43527200D03*
X108578040Y43527200D03*
X107928028Y43527200D03*
X107278017Y43527200D03*
X106628006Y43527200D03*
X105977994Y43527200D03*
X105327983Y43527200D03*
X104677972Y43527200D03*
X104027960Y43527200D03*
X103377949Y43527200D03*
X102727937Y43527200D03*
X102077926Y43527200D03*
X102077926Y37583600D03*
X102727937Y37583600D03*
X103377949Y37583600D03*
X104027960Y37583600D03*
X104677972Y37583600D03*
X105327983Y37583600D03*
X105977994Y37583600D03*
X106628006Y37583600D03*
X107278017Y37583600D03*
X107928028Y37583600D03*
X108578040Y37583600D03*
X109228051Y37583600D03*
X109878063Y37583600D03*
X110528074Y37583600D03*
D62*
X106303000Y40555400D03*
%TD*%
D63*
%TO.C,U15*%
X36714001Y86055200D03*
X37363999Y86055200D03*
X38014001Y86055200D03*
X38663999Y86055200D03*
X39313998Y86055200D03*
X39963999Y86055200D03*
X40613998Y86055200D03*
X41263999Y86055200D03*
X41263999Y91694000D03*
X40614001Y91694000D03*
X39963999Y91694000D03*
X39314001Y91694000D03*
X38664002Y91694000D03*
X38014001Y91694000D03*
X37364002Y91694000D03*
X36714001Y91694000D03*
%TD*%
D64*
%TO.C,C17*%
X12192000Y18951400D03*
X12192000Y16151400D03*
%TD*%
D65*
%TO.C,R6*%
X47404200Y34624400D03*
X45004200Y34624400D03*
%TD*%
D37*
%TO.C,J19*%
X101044463Y82946400D03*
D35*
X104854463Y82946400D03*
X108664463Y82946400D03*
X112474463Y82946400D03*
%TD*%
D20*
%TO.C,J11*%
X99088000Y4831400D03*
X102588000Y4831400D03*
%TD*%
D18*
%TO.C,C38*%
X43561000Y11175400D03*
X43561000Y13975400D03*
%TD*%
D42*
%TO.C,R30*%
X80216000Y19309400D03*
X74216000Y19309400D03*
%TD*%
D30*
%TO.C,C1*%
X42354500Y48610200D03*
X42354500Y51110200D03*
%TD*%
%TO.C,R86*%
X87020400Y61163200D03*
D50*
X76860400Y61163200D03*
%TD*%
D66*
%TO.C,C31*%
X8506000Y31775400D03*
X11306000Y31775400D03*
%TD*%
D16*
%TO.C,JP16*%
X99009200Y68503800D03*
X96469200Y68503800D03*
%TD*%
D45*
%TO.C,R13*%
X97613400Y45372200D03*
X97613400Y42972200D03*
%TD*%
D67*
%TO.C,IC5*%
X158058400Y78384400D03*
X158058400Y79654400D03*
X158058400Y80924400D03*
X158058400Y82194400D03*
X152634400Y82194400D03*
X152634400Y80924400D03*
X152634400Y79654400D03*
X152634400Y78384400D03*
D68*
X155346400Y80289400D03*
%TD*%
D69*
%TO.C,L2*%
X154178000Y67335400D03*
X169214800Y67335400D03*
%TD*%
D25*
%TO.C,U20*%
X51689000Y11244900D03*
X51689000Y12641900D03*
%TD*%
D70*
%TO.C,R50*%
X102701000Y10927400D03*
X103801000Y10927400D03*
%TD*%
D28*
%TO.C,U14*%
X96291400Y77736700D03*
X96291400Y76339700D03*
%TD*%
D13*
%TO.C,R72*%
X31704789Y80300856D03*
X34104789Y80300856D03*
%TD*%
D45*
%TO.C,R48*%
X10593000Y29319400D03*
X10593000Y26919400D03*
%TD*%
D13*
%TO.C,R69*%
X103444361Y78237400D03*
X105844361Y78237400D03*
%TD*%
D29*
%TO.C,C23*%
X75250482Y45770300D03*
X73594882Y45770300D03*
%TD*%
D32*
%TO.C,C21*%
X78765400Y50723800D03*
X83845400Y50723800D03*
%TD*%
D16*
%TO.C,JP21*%
X132232400Y27183400D03*
X132232400Y24643400D03*
%TD*%
D32*
%TO.C,C10*%
X119126000Y61747400D03*
X114046000Y61747400D03*
%TD*%
D60*
%TO.C,R31*%
X11430000Y12683400D03*
X11430000Y13783400D03*
%TD*%
D17*
%TO.C,TP11*%
X170332400Y80543400D03*
%TD*%
D42*
%TO.C,R21*%
X91900000Y19309400D03*
X85900000Y19309400D03*
%TD*%
D45*
%TO.C,R26*%
X10593000Y61831400D03*
X10593000Y59431400D03*
%TD*%
D42*
%TO.C,R82*%
X68913000Y19309400D03*
X62913000Y19309400D03*
%TD*%
D13*
%TO.C,R62*%
X11598225Y80300856D03*
X13998225Y80300856D03*
%TD*%
%TO.C,R20*%
X91356000Y14408400D03*
X93756000Y14408400D03*
%TD*%
D42*
%TO.C,R76*%
X35766000Y19309400D03*
X29766000Y19309400D03*
%TD*%
D65*
%TO.C,R44*%
X76919000Y34878400D03*
X74519000Y34878400D03*
%TD*%
D66*
%TO.C,C15*%
X8379000Y64267400D03*
X11179000Y64267400D03*
%TD*%
D36*
%TO.C,R55*%
X31369000Y28453400D03*
X29469000Y28453400D03*
%TD*%
D21*
%TO.C,R39*%
X67818682Y53187100D03*
X67818682Y48513500D03*
%TD*%
D25*
%TO.C,U9*%
X108077000Y11244900D03*
X108077000Y12641900D03*
%TD*%
D32*
%TO.C,C12*%
X113817400Y39751000D03*
X113817400Y44831000D03*
%TD*%
D29*
%TO.C,C11*%
X111802522Y46209212D03*
X110146922Y46209212D03*
%TD*%
D55*
%TO.C,S1*%
X4826000Y49765400D03*
X4826000Y43365400D03*
%TD*%
D30*
%TO.C,R17*%
X118770400Y15265400D03*
D50*
X128930400Y15265400D03*
%TD*%
D13*
%TO.C,R58*%
X3812141Y80300856D03*
X6212141Y80300856D03*
%TD*%
%TO.C,R60*%
X7595753Y80300856D03*
X9995753Y80300856D03*
%TD*%
D71*
%TO.C,J6*%
X145490302Y83998400D03*
X142990302Y83998400D03*
X140990301Y83998400D03*
X138490301Y83998400D03*
D72*
X148560301Y86708400D03*
X135420302Y86708400D03*
%TD*%
D55*
%TO.C,S3*%
X4826000Y33509400D03*
X4826000Y27109400D03*
%TD*%
D25*
%TO.C,U6*%
X74155300Y11244900D03*
X74155300Y12641900D03*
%TD*%
D30*
%TO.C,R7*%
X45008800Y30784800D03*
D50*
X34848800Y30784800D03*
%TD*%
D66*
%TO.C,C14*%
X8633000Y48011400D03*
X11433000Y48011400D03*
%TD*%
D32*
%TO.C,C4*%
X50114200Y62204600D03*
X55194200Y62204600D03*
%TD*%
%TO.C,C3*%
X55321200Y58674000D03*
X50241200Y58674000D03*
%TD*%
D60*
%TO.C,R47*%
X8636000Y27161400D03*
X8636000Y28261400D03*
%TD*%
D42*
%TO.C,R36*%
X114026000Y19309400D03*
X108026000Y19309400D03*
%TD*%
D13*
%TO.C,R63*%
X124065520Y78237400D03*
X126465520Y78237400D03*
%TD*%
D17*
%TO.C,TP15*%
X146456400Y5867400D03*
%TD*%
D44*
%TO.C,R77*%
X47413000Y10927400D03*
X46313000Y10927400D03*
%TD*%
D34*
%TO.C,J14*%
X128219200Y93700600D03*
D35*
X124409200Y93700600D03*
X120599200Y93700600D03*
X116789200Y93700600D03*
%TD*%
D16*
%TO.C,JP4*%
X15728000Y42951400D03*
X13188000Y42951400D03*
%TD*%
D13*
%TO.C,R59*%
X116400822Y78237400D03*
X118800822Y78237400D03*
%TD*%
%TO.C,R84*%
X57447000Y14408400D03*
X59847000Y14408400D03*
%TD*%
%TO.C,R73*%
X111114611Y78237400D03*
X113514611Y78237400D03*
%TD*%
D22*
%TO.C,R1*%
X54371200Y50469800D03*
X56271200Y50469800D03*
%TD*%
D73*
%TO.C,U7*%
X3225800Y19289400D03*
X8458200Y16789400D03*
X3225800Y14289400D03*
%TD*%
D65*
%TO.C,R8*%
X56345000Y34878400D03*
X53945000Y34878400D03*
%TD*%
D30*
%TO.C,R43*%
X93980000Y35001200D03*
D50*
X83820000Y35001200D03*
%TD*%
D37*
%TO.C,J4*%
X44916200Y92391000D03*
D35*
X48726200Y92391000D03*
X52536200Y92391000D03*
X56346200Y92391000D03*
%TD*%
D17*
%TO.C,TP2*%
X75666600Y24638000D03*
%TD*%
D61*
%TO.C,IC3*%
X74583756Y42765200D03*
X73933745Y42765200D03*
X73283733Y42765200D03*
X72633722Y42765200D03*
X71983710Y42765200D03*
X71333699Y42765200D03*
X70683688Y42765200D03*
X70033676Y42765200D03*
X69383665Y42765200D03*
X68733654Y42765200D03*
X68083642Y42765200D03*
X67433631Y42765200D03*
X66783619Y42765200D03*
X66133608Y42765200D03*
X66133608Y36821600D03*
X66783619Y36821600D03*
X67433631Y36821600D03*
X68083642Y36821600D03*
X68733654Y36821600D03*
X69383665Y36821600D03*
X70033676Y36821600D03*
X70683688Y36821600D03*
X71333699Y36821600D03*
X71983710Y36821600D03*
X72633722Y36821600D03*
X73283733Y36821600D03*
X73933745Y36821600D03*
X74583756Y36821600D03*
D62*
X70358682Y39793400D03*
%TD*%
D21*
%TO.C,R3*%
X47688500Y52959000D03*
X47688500Y48285400D03*
%TD*%
D74*
%TO.C,R45*%
X134620000Y20763400D03*
X134620000Y15863400D03*
%TD*%
D17*
%TO.C,TP9*%
X80568800Y30561600D03*
%TD*%
D33*
%TO.C,R56*%
X36398166Y81140976D03*
X36398166Y83040976D03*
%TD*%
D18*
%TO.C,C40*%
X54991000Y11175400D03*
X54991000Y13975400D03*
%TD*%
D13*
%TO.C,R35*%
X113228000Y14408400D03*
X115628000Y14408400D03*
%TD*%
D20*
%TO.C,J20*%
X31778000Y4831400D03*
X35278000Y4831400D03*
%TD*%
D21*
%TO.C,R10*%
X108788200Y53619400D03*
X108788200Y48945800D03*
%TD*%
D16*
%TO.C,JP8*%
X116614000Y21067400D03*
X116614000Y18527400D03*
%TD*%
D18*
%TO.C,C37*%
X32131000Y11175400D03*
X32131000Y13975400D03*
%TD*%
D75*
%TO.C,R46*%
X135026400Y68439400D03*
X135026400Y66739400D03*
%TD*%
D44*
%TO.C,R80*%
X69412000Y10927400D03*
X68312000Y10927400D03*
%TD*%
D16*
%TO.C,JP6*%
X82550000Y21067400D03*
X82550000Y18527400D03*
%TD*%
D20*
%TO.C,J22*%
X65334000Y4831400D03*
X68834000Y4831400D03*
%TD*%
D17*
%TO.C,TP13*%
X169824400Y52603400D03*
%TD*%
D76*
%TO.C,IC4*%
X146656000Y54576400D03*
X144956000Y54576400D03*
X143256000Y54576400D03*
X141556000Y54576400D03*
X139856000Y54576400D03*
D77*
X143256000Y41361400D03*
D78*
X143256000Y44856400D03*
%TD*%
D49*
%TO.C,R42*%
X66242000Y32941400D03*
X66242000Y35341400D03*
%TD*%
D20*
%TO.C,J7*%
X87912000Y4831400D03*
X91412000Y4831400D03*
%TD*%
D13*
%TO.C,R29*%
X79418000Y14408400D03*
X81818000Y14408400D03*
%TD*%
%TO.C,R70*%
X27711414Y80300856D03*
X30111414Y80300856D03*
%TD*%
D79*
%TO.C,L1*%
X169278300Y15265400D03*
X159194500Y15265400D03*
%TD*%
D16*
%TO.C,JP9*%
X74676000Y57155400D03*
X74676000Y54615400D03*
%TD*%
%TO.C,JP20*%
X60579000Y19797400D03*
X60579000Y17257400D03*
%TD*%
%TO.C,JP18*%
X49403000Y20051400D03*
X49403000Y17511400D03*
%TD*%
D23*
%TO.C,U1*%
X124269500Y18821400D03*
X125666500Y18821400D03*
%TD*%
D20*
%TO.C,J21*%
X42954000Y4831400D03*
X46454000Y4831400D03*
%TD*%
D13*
%TO.C,R61*%
X120179423Y78237400D03*
X122579423Y78237400D03*
%TD*%
D61*
%TO.C,IC1*%
X53691574Y43091100D03*
X53041563Y43091100D03*
X52391551Y43091100D03*
X51741540Y43091100D03*
X51091528Y43091100D03*
X50441517Y43091100D03*
X49791506Y43091100D03*
X49141494Y43091100D03*
X48491483Y43091100D03*
X47841472Y43091100D03*
X47191460Y43091100D03*
X46541449Y43091100D03*
X45891437Y43091100D03*
X45241426Y43091100D03*
X45241426Y37147500D03*
X45891437Y37147500D03*
X46541449Y37147500D03*
X47191460Y37147500D03*
X47841472Y37147500D03*
X48491483Y37147500D03*
X49141494Y37147500D03*
X49791506Y37147500D03*
X50441517Y37147500D03*
X51091528Y37147500D03*
X51741540Y37147500D03*
X52391551Y37147500D03*
X53041563Y37147500D03*
X53691574Y37147500D03*
D62*
X49466500Y40119300D03*
%TD*%
D25*
%TO.C,U19*%
X63020000Y11244900D03*
X63020000Y12641900D03*
%TD*%
D30*
%TO.C,R15*%
X93497400Y39776400D03*
D50*
X93497400Y49936400D03*
%TD*%
D80*
%TO.C,C26*%
X147152600Y57658000D03*
X148808200Y57658000D03*
%TD*%
D16*
%TO.C,JP14*%
X27031000Y23373400D03*
X24491000Y23373400D03*
%TD*%
D60*
%TO.C,R25*%
X8636000Y59927400D03*
X8636000Y61027400D03*
%TD*%
D34*
%TO.C,J12*%
X32156400Y93954600D03*
D35*
X28346400Y93954600D03*
X24536400Y93954600D03*
X20726400Y93954600D03*
%TD*%
D81*
%TO.C,U21*%
X81876900Y66979800D03*
X79971900Y66979800D03*
X80924400Y64693800D03*
%TD*%
D30*
%TO.C,C19*%
X62509400Y49727800D03*
X62509400Y52227800D03*
%TD*%
D42*
%TO.C,R79*%
X46815000Y19309400D03*
X40815000Y19309400D03*
%TD*%
D45*
%TO.C,R5*%
X39396600Y44432400D03*
X39396600Y42032400D03*
%TD*%
D16*
%TO.C,JP15*%
X28595000Y74173400D03*
X31135000Y74173400D03*
%TD*%
D37*
%TO.C,J18*%
X21417992Y84716514D03*
D35*
X25227992Y84716514D03*
X29037992Y84716514D03*
X32847992Y84716514D03*
%TD*%
D82*
X111988600Y31038800D03*
X108712000Y31089600D03*
D83*
X146050000Y48768000D03*
X70460282Y39699700D03*
D84*
X80949800Y63296800D03*
D83*
X119710200Y39299200D03*
X125349000Y51211800D03*
X22860000Y42499600D03*
X74651282Y39699700D03*
D84*
X100888800Y66116200D03*
D83*
X125349000Y39299200D03*
D85*
X42570400Y82956400D03*
D83*
X25603200Y45547600D03*
D84*
X106146600Y74980800D03*
X132774400Y73465400D03*
D83*
X131013200Y51211800D03*
X45072300Y40157400D03*
X110873122Y40644300D03*
X128117600Y48341600D03*
D86*
X155346400Y80289400D03*
D83*
X49568100Y40157400D03*
X125349000Y45217400D03*
X131013200Y45217400D03*
X140411200Y48768000D03*
X65964482Y39699700D03*
X146050000Y42849800D03*
X148361400Y36042600D03*
X28498800Y42499600D03*
X31267400Y45547600D03*
X34163000Y48417800D03*
X25654000Y51542000D03*
X122453400Y42347200D03*
X131013200Y39299200D03*
X119710200Y45217400D03*
X22860000Y54412200D03*
X34163000Y54412200D03*
X28498800Y48417800D03*
X145465800Y33172400D03*
D84*
X33401000Y78059600D03*
D83*
X22860000Y48417800D03*
X143154400Y45897800D03*
X119710200Y51211800D03*
X142722600Y36042600D03*
D87*
X122809000Y17399000D03*
D83*
X31267400Y51542000D03*
X148361400Y30124400D03*
X102186322Y40644300D03*
X28498800Y54412200D03*
X34163000Y42499600D03*
X122504200Y48341600D03*
X140411200Y42849800D03*
X142722600Y30124400D03*
X53759100Y40157400D03*
X106224922Y40644300D03*
D84*
X92278200Y88569800D03*
D83*
X128117600Y42347200D03*
D59*
X128417000Y57601800D03*
X164490400Y80035400D03*
D84*
X45008800Y33050800D03*
X55245000Y33279400D03*
X114312167Y36690833D03*
X102235000Y34549400D03*
X31623000Y67823400D03*
X26289000Y69088000D03*
X31623000Y66299400D03*
D88*
X51752500Y46558200D03*
X38836600Y62738000D03*
X39979600Y61595000D03*
X49718523Y45978758D03*
X35382200Y59613800D03*
X36703000Y58293000D03*
X33807400Y58369200D03*
X48704500Y46558200D03*
X34899600Y57277000D03*
X46228000Y46380400D03*
X41960800Y54178200D03*
X40005000Y54178200D03*
D84*
X98679000Y38867400D03*
X41783000Y37851400D03*
X62611000Y37089400D03*
X61163200Y60756800D03*
X47447200Y30734000D03*
X57785000Y34794095D03*
X60985400Y55194200D03*
X104328000Y35382200D03*
X68005800Y33289400D03*
X48370500Y32816800D03*
X68334531Y24248469D03*
X50265001Y29614801D03*
X59563000Y60782200D03*
X59563000Y55270400D03*
D88*
X108651222Y46717212D03*
X99568000Y61239400D03*
X101117400Y59791600D03*
X106541922Y47082986D03*
D84*
X87503000Y87528400D03*
X99288600Y59766200D03*
X87503000Y85877400D03*
D88*
X97790000Y61239400D03*
D84*
X86309200Y83820000D03*
D88*
X105379503Y47196024D03*
D84*
X86309200Y85826600D03*
D88*
X97180400Y59715400D03*
X95504000Y61239400D03*
X95402400Y59512200D03*
X103482100Y46583600D03*
X93980000Y60985400D03*
D84*
X121534722Y29332722D03*
X104851200Y31247400D03*
X106502200Y33025400D03*
X110333000Y35640400D03*
X72415400Y59359800D03*
D88*
X72438300Y46964600D03*
D84*
X72390000Y61239400D03*
X70891400Y86487000D03*
X70891400Y61239400D03*
D88*
X70683688Y46858488D03*
D84*
X70891400Y88188800D03*
X70891400Y59385200D03*
X69316600Y59385200D03*
D88*
X69342000Y46939200D03*
D84*
X69342000Y84251800D03*
X69342000Y61239400D03*
X69342000Y86055200D03*
X67564000Y61239400D03*
D88*
X67589400Y46939200D03*
D84*
X67564000Y59410600D03*
X64389000Y32263400D03*
X69469000Y32771400D03*
X67132200Y26167400D03*
X70485000Y30734000D03*
X71145400Y27183400D03*
X71501000Y32207200D03*
X100584000Y28580400D03*
X74523600Y32816800D03*
X75819000Y34803400D03*
X66167000Y34295400D03*
D89*
X147250150Y10648950D03*
X147142200Y21259800D03*
D84*
X129057400Y17399000D03*
X101473000Y25913400D03*
D85*
X35585400Y84505800D03*
X38074600Y89738200D03*
D84*
X97815400Y81381600D03*
X94259400Y84074000D03*
X47980600Y81711800D03*
X46609000Y80543400D03*
X45262800Y79349600D03*
X90322400Y53644800D03*
X88519000Y53517800D03*
X92303600Y53797200D03*
X98069400Y74584600D03*
X66903600Y28778200D03*
X64897000Y29895800D03*
X113715800Y55219600D03*
X115755000Y55123400D03*
X118389400Y55168800D03*
X78574900Y68414900D03*
G36*
X80214962Y11311251D02*
G01*
X80252034Y11286480D01*
X80298294Y11295683D01*
X80310965Y11308354D01*
X80312897Y11308872D01*
X80314311Y11307458D01*
X80314042Y11305829D01*
X80300086Y11284942D01*
X80288600Y11227201D01*
X80288600Y10627599D01*
X80300086Y10569858D01*
X80315812Y10546323D01*
X80315943Y10544327D01*
X80314280Y10543216D01*
X80313038Y10543549D01*
X80275966Y10568320D01*
X80229706Y10559117D01*
X80217035Y10546446D01*
X80215103Y10545928D01*
X80213689Y10547342D01*
X80213958Y10548971D01*
X80227914Y10569858D01*
X80239400Y10627599D01*
X80239400Y11227201D01*
X80227914Y11284942D01*
X80212188Y11308477D01*
X80212057Y11310473D01*
X80213720Y11311584D01*
X80214962Y11311251D01*
G37*
G36*
X68812962Y11311251D02*
G01*
X68850034Y11286480D01*
X68896294Y11295683D01*
X68908965Y11308354D01*
X68910897Y11308872D01*
X68912311Y11307458D01*
X68912042Y11305829D01*
X68898086Y11284942D01*
X68886600Y11227201D01*
X68886600Y10627599D01*
X68898086Y10569858D01*
X68913812Y10546323D01*
X68913943Y10544327D01*
X68912280Y10543216D01*
X68911038Y10543549D01*
X68873966Y10568320D01*
X68827706Y10559117D01*
X68815035Y10546446D01*
X68813103Y10545928D01*
X68811689Y10547342D01*
X68811958Y10548971D01*
X68825914Y10569858D01*
X68837400Y10627599D01*
X68837400Y11227201D01*
X68825914Y11284942D01*
X68810188Y11308477D01*
X68810057Y11310473D01*
X68811720Y11311584D01*
X68812962Y11311251D01*
G37*
G36*
X91898962Y11311251D02*
G01*
X91936034Y11286480D01*
X91982294Y11295683D01*
X91994965Y11308354D01*
X91996897Y11308872D01*
X91998311Y11307458D01*
X91998042Y11305829D01*
X91984086Y11284942D01*
X91972600Y11227201D01*
X91972600Y10627599D01*
X91984086Y10569858D01*
X91999812Y10546323D01*
X91999943Y10544327D01*
X91998280Y10543216D01*
X91997038Y10543549D01*
X91959966Y10568320D01*
X91913706Y10559117D01*
X91901035Y10546446D01*
X91899103Y10545928D01*
X91897689Y10547342D01*
X91897958Y10548971D01*
X91911914Y10569858D01*
X91923400Y10627599D01*
X91923400Y11227201D01*
X91911914Y11284942D01*
X91896188Y11308477D01*
X91896057Y11310473D01*
X91897720Y11311584D01*
X91898962Y11311251D01*
G37*
G36*
X46813962Y11311251D02*
G01*
X46851034Y11286480D01*
X46897294Y11295683D01*
X46909965Y11308354D01*
X46911897Y11308872D01*
X46913311Y11307458D01*
X46913042Y11305829D01*
X46899086Y11284942D01*
X46887600Y11227201D01*
X46887600Y10627599D01*
X46899086Y10569858D01*
X46914812Y10546323D01*
X46914943Y10544327D01*
X46913280Y10543216D01*
X46912038Y10543549D01*
X46874966Y10568320D01*
X46828706Y10559117D01*
X46816035Y10546446D01*
X46814103Y10545928D01*
X46812689Y10547342D01*
X46812958Y10548971D01*
X46826914Y10569858D01*
X46838400Y10627599D01*
X46838400Y11227201D01*
X46826914Y11284942D01*
X46811188Y11308477D01*
X46811057Y11310473D01*
X46812720Y11311584D01*
X46813962Y11311251D01*
G37*
G36*
X103201962Y11311251D02*
G01*
X103239034Y11286480D01*
X103285294Y11295683D01*
X103297965Y11308354D01*
X103299897Y11308872D01*
X103301311Y11307458D01*
X103301042Y11305829D01*
X103287086Y11284942D01*
X103275600Y11227201D01*
X103275600Y10627599D01*
X103287086Y10569858D01*
X103302812Y10546323D01*
X103302943Y10544327D01*
X103301280Y10543216D01*
X103300038Y10543549D01*
X103262966Y10568320D01*
X103216706Y10559117D01*
X103204035Y10546446D01*
X103202103Y10545928D01*
X103200689Y10547342D01*
X103200958Y10548971D01*
X103214914Y10569858D01*
X103226400Y10627599D01*
X103226400Y11227201D01*
X103214914Y11284942D01*
X103199188Y11308477D01*
X103199057Y11310473D01*
X103200720Y11311584D01*
X103201962Y11311251D01*
G37*
G36*
X35129962Y11311251D02*
G01*
X35167034Y11286480D01*
X35213294Y11295683D01*
X35225965Y11308354D01*
X35227897Y11308872D01*
X35229311Y11307458D01*
X35229042Y11305829D01*
X35215086Y11284942D01*
X35203600Y11227201D01*
X35203600Y10627599D01*
X35215086Y10569858D01*
X35230812Y10546323D01*
X35230943Y10544327D01*
X35229280Y10543216D01*
X35228038Y10543549D01*
X35190966Y10568320D01*
X35144706Y10559117D01*
X35132035Y10546446D01*
X35130103Y10545928D01*
X35128689Y10547342D01*
X35128958Y10548971D01*
X35142914Y10569858D01*
X35154400Y10627599D01*
X35154400Y11227201D01*
X35142914Y11284942D01*
X35127188Y11308477D01*
X35127057Y11310473D01*
X35128720Y11311584D01*
X35129962Y11311251D01*
G37*
G36*
X58398962Y11311251D02*
G01*
X58436034Y11286480D01*
X58482294Y11295683D01*
X58494965Y11308354D01*
X58496897Y11308872D01*
X58498311Y11307458D01*
X58498042Y11305829D01*
X58484086Y11284942D01*
X58472600Y11227201D01*
X58472600Y10627599D01*
X58484086Y10569858D01*
X58499812Y10546323D01*
X58499943Y10544327D01*
X58498280Y10543216D01*
X58497038Y10543549D01*
X58459966Y10568320D01*
X58413706Y10559117D01*
X58401035Y10546446D01*
X58399103Y10545928D01*
X58397689Y10547342D01*
X58397958Y10548971D01*
X58411914Y10569858D01*
X58423400Y10627599D01*
X58423400Y11227201D01*
X58411914Y11284942D01*
X58396188Y11308477D01*
X58396057Y11310473D01*
X58397720Y11311584D01*
X58398962Y11311251D01*
G37*
G36*
X114024962Y11311251D02*
G01*
X114062034Y11286480D01*
X114108294Y11295683D01*
X114120965Y11308354D01*
X114122897Y11308872D01*
X114124311Y11307458D01*
X114124042Y11305829D01*
X114110086Y11284942D01*
X114098600Y11227201D01*
X114098600Y10627599D01*
X114110086Y10569858D01*
X114125812Y10546323D01*
X114125943Y10544327D01*
X114124280Y10543216D01*
X114123038Y10543549D01*
X114085966Y10568320D01*
X114039706Y10559117D01*
X114027035Y10546446D01*
X114025103Y10545928D01*
X114023689Y10547342D01*
X114023958Y10548971D01*
X114037914Y10569858D01*
X114049400Y10627599D01*
X114049400Y11227201D01*
X114037914Y11284942D01*
X114022188Y11308477D01*
X114022057Y11310473D01*
X114023720Y11311584D01*
X114024962Y11311251D01*
G37*
G36*
X11814184Y13283680D02*
G01*
X11813851Y13282438D01*
X11789080Y13245366D01*
X11798283Y13199106D01*
X11810954Y13186435D01*
X11811472Y13184503D01*
X11810058Y13183089D01*
X11808429Y13183358D01*
X11787542Y13197314D01*
X11729801Y13208800D01*
X11130199Y13208800D01*
X11072458Y13197314D01*
X11048923Y13181588D01*
X11046927Y13181457D01*
X11045816Y13183120D01*
X11046149Y13184362D01*
X11070920Y13221434D01*
X11061717Y13267694D01*
X11049046Y13280365D01*
X11048528Y13282297D01*
X11049942Y13283711D01*
X11051571Y13283442D01*
X11072458Y13269486D01*
X11130199Y13258000D01*
X11729801Y13258000D01*
X11787542Y13269486D01*
X11811077Y13285212D01*
X11813073Y13285343D01*
X11814184Y13283680D01*
G37*
G36*
X9020184Y27761680D02*
G01*
X9019851Y27760438D01*
X8995080Y27723366D01*
X9004283Y27677106D01*
X9016954Y27664435D01*
X9017472Y27662503D01*
X9016058Y27661089D01*
X9014429Y27661358D01*
X8993542Y27675314D01*
X8935801Y27686800D01*
X8336199Y27686800D01*
X8278458Y27675314D01*
X8254923Y27659588D01*
X8252927Y27659457D01*
X8251816Y27661120D01*
X8252149Y27662362D01*
X8276920Y27699434D01*
X8267717Y27745694D01*
X8255046Y27758365D01*
X8254528Y27760297D01*
X8255942Y27761711D01*
X8257571Y27761442D01*
X8278458Y27747486D01*
X8336199Y27736000D01*
X8935801Y27736000D01*
X8993542Y27747486D01*
X9017077Y27763212D01*
X9019073Y27763343D01*
X9020184Y27761680D01*
G37*
G36*
X45358314Y33673000D02*
G01*
X45358314Y33671000D01*
X45357347Y33670152D01*
X45313214Y33651872D01*
X45295250Y33608502D01*
X45313089Y33565434D01*
X45312828Y33563451D01*
X45310980Y33562686D01*
X45310024Y33563082D01*
X45306242Y33565984D01*
X45162767Y33625412D01*
X45008800Y33645683D01*
X44854833Y33625412D01*
X44711360Y33565985D01*
X44630926Y33504265D01*
X44628943Y33504004D01*
X44627725Y33505591D01*
X44628393Y33507359D01*
X44672241Y33545610D01*
X44672639Y33545880D01*
X44687730Y33553669D01*
X44718309Y33589854D01*
X44714380Y33636632D01*
X44678321Y33667104D01*
X44659570Y33670024D01*
X44658013Y33671278D01*
X44658320Y33673255D01*
X44659878Y33674000D01*
X45356582Y33674000D01*
X45358314Y33673000D01*
G37*
G36*
X72259678Y37544034D02*
G01*
X72296750Y37519263D01*
X72343010Y37528466D01*
X72355681Y37541137D01*
X72357613Y37541655D01*
X72359027Y37540241D01*
X72358758Y37538612D01*
X72342408Y37514142D01*
X72330922Y37456401D01*
X72330922Y36186799D01*
X72342408Y36129058D01*
X72360528Y36101940D01*
X72360659Y36099944D01*
X72358996Y36098833D01*
X72357754Y36099166D01*
X72320682Y36123937D01*
X72274422Y36114734D01*
X72261751Y36102063D01*
X72259819Y36101545D01*
X72258405Y36102959D01*
X72258674Y36104588D01*
X72275024Y36129058D01*
X72286510Y36186799D01*
X72286510Y37456401D01*
X72275024Y37514142D01*
X72256904Y37541260D01*
X72256773Y37543256D01*
X72258436Y37544367D01*
X72259678Y37544034D01*
G37*
G36*
X71609667Y37544034D02*
G01*
X71646739Y37519263D01*
X71692999Y37528466D01*
X71705667Y37541134D01*
X71707599Y37541652D01*
X71709013Y37540238D01*
X71708744Y37538609D01*
X71692396Y37514142D01*
X71680910Y37456401D01*
X71680910Y36186799D01*
X71692396Y36129058D01*
X71710515Y36101940D01*
X71710646Y36099944D01*
X71708983Y36098833D01*
X71707741Y36099166D01*
X71670672Y36123937D01*
X71624412Y36114735D01*
X71611740Y36102063D01*
X71609808Y36101545D01*
X71608394Y36102959D01*
X71608663Y36104588D01*
X71625013Y36129058D01*
X71636499Y36186799D01*
X71636499Y37456401D01*
X71625013Y37514142D01*
X71606893Y37541260D01*
X71606762Y37543256D01*
X71608425Y37544367D01*
X71609667Y37544034D01*
G37*
G36*
X73559701Y37544034D02*
G01*
X73596773Y37519263D01*
X73643033Y37528466D01*
X73655704Y37541137D01*
X73657636Y37541655D01*
X73659050Y37540241D01*
X73658781Y37538612D01*
X73642431Y37514142D01*
X73630945Y37456401D01*
X73630945Y36186799D01*
X73642431Y36129058D01*
X73660551Y36101940D01*
X73660682Y36099944D01*
X73659019Y36098833D01*
X73657777Y36099166D01*
X73620705Y36123937D01*
X73574445Y36114734D01*
X73561774Y36102063D01*
X73559842Y36101545D01*
X73558428Y36102959D01*
X73558697Y36104588D01*
X73575047Y36129058D01*
X73586533Y36186799D01*
X73586533Y37456401D01*
X73575047Y37514142D01*
X73556927Y37541260D01*
X73556796Y37543256D01*
X73558459Y37544367D01*
X73559701Y37544034D01*
G37*
G36*
X67709599Y37544034D02*
G01*
X67746671Y37519263D01*
X67792931Y37528466D01*
X67805599Y37541134D01*
X67807531Y37541652D01*
X67808945Y37540238D01*
X67808676Y37538609D01*
X67792328Y37514142D01*
X67780842Y37456401D01*
X67780842Y36186799D01*
X67792328Y36129058D01*
X67810447Y36101940D01*
X67810578Y36099944D01*
X67808915Y36098833D01*
X67807673Y36099166D01*
X67770604Y36123937D01*
X67724344Y36114735D01*
X67711672Y36102063D01*
X67709740Y36101545D01*
X67708326Y36102959D01*
X67708595Y36104588D01*
X67724945Y36129058D01*
X67736431Y36186799D01*
X67736431Y37456401D01*
X67724945Y37514142D01*
X67706825Y37541260D01*
X67706694Y37543256D01*
X67708357Y37544367D01*
X67709599Y37544034D01*
G37*
G36*
X68359610Y37544034D02*
G01*
X68396682Y37519263D01*
X68442942Y37528466D01*
X68455613Y37541137D01*
X68457545Y37541655D01*
X68458959Y37540241D01*
X68458690Y37538612D01*
X68442340Y37514142D01*
X68430854Y37456401D01*
X68430854Y36186799D01*
X68442340Y36129058D01*
X68460460Y36101940D01*
X68460591Y36099944D01*
X68458928Y36098833D01*
X68457686Y36099166D01*
X68420614Y36123937D01*
X68374354Y36114734D01*
X68361683Y36102063D01*
X68359751Y36101545D01*
X68358337Y36102959D01*
X68358606Y36104588D01*
X68374956Y36129058D01*
X68386442Y36186799D01*
X68386442Y37456401D01*
X68374956Y37514142D01*
X68356836Y37541260D01*
X68356705Y37543256D01*
X68358368Y37544367D01*
X68359610Y37544034D01*
G37*
G36*
X72909690Y37544034D02*
G01*
X72946762Y37519263D01*
X72993022Y37528466D01*
X73005690Y37541134D01*
X73007622Y37541652D01*
X73009036Y37540238D01*
X73008767Y37538609D01*
X72992419Y37514142D01*
X72980933Y37456401D01*
X72980933Y36186799D01*
X72992419Y36129058D01*
X73010538Y36101940D01*
X73010669Y36099944D01*
X73009006Y36098833D01*
X73007764Y36099166D01*
X72970695Y36123937D01*
X72924435Y36114735D01*
X72911763Y36102063D01*
X72909831Y36101545D01*
X72908417Y36102959D01*
X72908686Y36104588D01*
X72925036Y36129058D01*
X72936522Y36186799D01*
X72936522Y37456401D01*
X72925036Y37514142D01*
X72906916Y37541260D01*
X72906785Y37543256D01*
X72908448Y37544367D01*
X72909690Y37544034D01*
G37*
G36*
X74209713Y37544034D02*
G01*
X74246785Y37519263D01*
X74293045Y37528466D01*
X74305713Y37541134D01*
X74307645Y37541652D01*
X74309059Y37540238D01*
X74308790Y37538609D01*
X74292442Y37514142D01*
X74280956Y37456401D01*
X74280956Y36186799D01*
X74292442Y36129058D01*
X74310561Y36101940D01*
X74310692Y36099944D01*
X74309029Y36098833D01*
X74307787Y36099166D01*
X74270718Y36123937D01*
X74224458Y36114735D01*
X74211786Y36102063D01*
X74209854Y36101545D01*
X74208440Y36102959D01*
X74208709Y36104588D01*
X74225059Y36129058D01*
X74236545Y36186799D01*
X74236545Y37456401D01*
X74225059Y37514142D01*
X74206939Y37541260D01*
X74206808Y37543256D01*
X74208471Y37544367D01*
X74209713Y37544034D01*
G37*
G36*
X70309644Y37544034D02*
G01*
X70346716Y37519263D01*
X70392976Y37528466D01*
X70405647Y37541137D01*
X70407579Y37541655D01*
X70408993Y37540241D01*
X70408724Y37538612D01*
X70392374Y37514142D01*
X70380888Y37456401D01*
X70380888Y36186799D01*
X70392374Y36129058D01*
X70410494Y36101940D01*
X70410625Y36099944D01*
X70408962Y36098833D01*
X70407720Y36099166D01*
X70370648Y36123937D01*
X70324388Y36114734D01*
X70311717Y36102063D01*
X70309785Y36101545D01*
X70308371Y36102959D01*
X70308640Y36104588D01*
X70324990Y36129058D01*
X70336476Y36186799D01*
X70336476Y37456401D01*
X70324990Y37514142D01*
X70306870Y37541260D01*
X70306739Y37543256D01*
X70308402Y37544367D01*
X70309644Y37544034D01*
G37*
G36*
X69659633Y37544034D02*
G01*
X69696705Y37519263D01*
X69742965Y37528466D01*
X69755633Y37541134D01*
X69757565Y37541652D01*
X69758979Y37540238D01*
X69758710Y37538609D01*
X69742362Y37514142D01*
X69730876Y37456401D01*
X69730876Y36186799D01*
X69742362Y36129058D01*
X69760481Y36101940D01*
X69760612Y36099944D01*
X69758949Y36098833D01*
X69757707Y36099166D01*
X69720638Y36123937D01*
X69674378Y36114735D01*
X69661706Y36102063D01*
X69659774Y36101545D01*
X69658360Y36102959D01*
X69658629Y36104588D01*
X69674979Y36129058D01*
X69686465Y36186799D01*
X69686465Y37456401D01*
X69674979Y37514142D01*
X69656859Y37541260D01*
X69656728Y37543256D01*
X69658391Y37544367D01*
X69659633Y37544034D01*
G37*
G36*
X66409576Y37544034D02*
G01*
X66446648Y37519263D01*
X66492908Y37528466D01*
X66505576Y37541134D01*
X66507508Y37541652D01*
X66508922Y37540238D01*
X66508653Y37538609D01*
X66492305Y37514142D01*
X66480819Y37456401D01*
X66480819Y36186799D01*
X66492305Y36129058D01*
X66510424Y36101940D01*
X66510555Y36099944D01*
X66508892Y36098833D01*
X66507650Y36099166D01*
X66470581Y36123937D01*
X66424321Y36114735D01*
X66411649Y36102063D01*
X66409717Y36101545D01*
X66408303Y36102959D01*
X66408572Y36104588D01*
X66424922Y36129058D01*
X66436408Y36186799D01*
X66436408Y37456401D01*
X66424922Y37514142D01*
X66406802Y37541260D01*
X66406671Y37543256D01*
X66408334Y37544367D01*
X66409576Y37544034D01*
G37*
G36*
X67059587Y37544034D02*
G01*
X67096659Y37519263D01*
X67142919Y37528466D01*
X67155590Y37541137D01*
X67157522Y37541655D01*
X67158936Y37540241D01*
X67158667Y37538612D01*
X67142317Y37514142D01*
X67130831Y37456401D01*
X67130831Y36186799D01*
X67142317Y36129058D01*
X67160437Y36101940D01*
X67160568Y36099944D01*
X67158905Y36098833D01*
X67157663Y36099166D01*
X67120591Y36123937D01*
X67074331Y36114734D01*
X67061660Y36102063D01*
X67059728Y36101545D01*
X67058314Y36102959D01*
X67058583Y36104588D01*
X67074933Y36129058D01*
X67086419Y36186799D01*
X67086419Y37456401D01*
X67074933Y37514142D01*
X67056813Y37541260D01*
X67056682Y37543256D01*
X67058345Y37544367D01*
X67059587Y37544034D01*
G37*
G36*
X69009622Y37544034D02*
G01*
X69046694Y37519263D01*
X69092954Y37528466D01*
X69105622Y37541134D01*
X69107554Y37541652D01*
X69108968Y37540238D01*
X69108699Y37538609D01*
X69092351Y37514142D01*
X69080865Y37456401D01*
X69080865Y36186799D01*
X69092351Y36129058D01*
X69110470Y36101940D01*
X69110601Y36099944D01*
X69108938Y36098833D01*
X69107696Y36099166D01*
X69070627Y36123937D01*
X69024367Y36114735D01*
X69011695Y36102063D01*
X69009763Y36101545D01*
X69008349Y36102959D01*
X69008618Y36104588D01*
X69024968Y36129058D01*
X69036454Y36186799D01*
X69036454Y37456401D01*
X69024968Y37514142D01*
X69006848Y37541260D01*
X69006717Y37543256D01*
X69008380Y37544367D01*
X69009622Y37544034D01*
G37*
G36*
X70959656Y37544034D02*
G01*
X70996728Y37519263D01*
X71042988Y37528466D01*
X71055656Y37541134D01*
X71057588Y37541652D01*
X71059002Y37540238D01*
X71058733Y37538609D01*
X71042385Y37514142D01*
X71030899Y37456401D01*
X71030899Y36186799D01*
X71042385Y36129058D01*
X71060504Y36101940D01*
X71060635Y36099944D01*
X71058972Y36098833D01*
X71057730Y36099166D01*
X71020661Y36123937D01*
X70974401Y36114735D01*
X70961729Y36102063D01*
X70959797Y36101545D01*
X70958383Y36102959D01*
X70958652Y36104588D01*
X70975002Y36129058D01*
X70986488Y36186799D01*
X70986488Y37456401D01*
X70975002Y37514142D01*
X70956882Y37541260D01*
X70956751Y37543256D01*
X70958414Y37544367D01*
X70959656Y37544034D01*
G37*
G36*
X48767451Y37869934D02*
G01*
X48804523Y37845163D01*
X48850783Y37854366D01*
X48863451Y37867034D01*
X48865383Y37867552D01*
X48866797Y37866138D01*
X48866528Y37864509D01*
X48850180Y37840042D01*
X48838694Y37782301D01*
X48838694Y36512699D01*
X48850180Y36454958D01*
X48868299Y36427840D01*
X48868430Y36425844D01*
X48866767Y36424733D01*
X48865525Y36425066D01*
X48828456Y36449837D01*
X48782196Y36440635D01*
X48769524Y36427963D01*
X48767592Y36427445D01*
X48766178Y36428859D01*
X48766447Y36430488D01*
X48782797Y36454958D01*
X48794283Y36512699D01*
X48794283Y37782301D01*
X48782797Y37840042D01*
X48764677Y37867160D01*
X48764546Y37869156D01*
X48766209Y37870267D01*
X48767451Y37869934D01*
G37*
G36*
X52667519Y37869934D02*
G01*
X52704591Y37845163D01*
X52750851Y37854366D01*
X52763522Y37867037D01*
X52765454Y37867555D01*
X52766868Y37866141D01*
X52766599Y37864512D01*
X52750249Y37840042D01*
X52738763Y37782301D01*
X52738763Y36512699D01*
X52750249Y36454958D01*
X52768369Y36427840D01*
X52768500Y36425844D01*
X52766837Y36424733D01*
X52765595Y36425066D01*
X52728523Y36449837D01*
X52682263Y36440634D01*
X52669592Y36427963D01*
X52667660Y36427445D01*
X52666246Y36428859D01*
X52666515Y36430488D01*
X52682865Y36454958D01*
X52694351Y36512699D01*
X52694351Y37782301D01*
X52682865Y37840042D01*
X52664745Y37867160D01*
X52664614Y37869156D01*
X52666277Y37870267D01*
X52667519Y37869934D01*
G37*
G36*
X50717485Y37869934D02*
G01*
X50754557Y37845163D01*
X50800817Y37854366D01*
X50813485Y37867034D01*
X50815417Y37867552D01*
X50816831Y37866138D01*
X50816562Y37864509D01*
X50800214Y37840042D01*
X50788728Y37782301D01*
X50788728Y36512699D01*
X50800214Y36454958D01*
X50818333Y36427840D01*
X50818464Y36425844D01*
X50816801Y36424733D01*
X50815559Y36425066D01*
X50778490Y36449837D01*
X50732230Y36440635D01*
X50719558Y36427963D01*
X50717626Y36427445D01*
X50716212Y36428859D01*
X50716481Y36430488D01*
X50732831Y36454958D01*
X50744317Y36512699D01*
X50744317Y37782301D01*
X50732831Y37840042D01*
X50714711Y37867160D01*
X50714580Y37869156D01*
X50716243Y37870267D01*
X50717485Y37869934D01*
G37*
G36*
X45517394Y37869934D02*
G01*
X45554466Y37845163D01*
X45600726Y37854366D01*
X45613394Y37867034D01*
X45615326Y37867552D01*
X45616740Y37866138D01*
X45616471Y37864509D01*
X45600123Y37840042D01*
X45588637Y37782301D01*
X45588637Y36512699D01*
X45600123Y36454958D01*
X45618242Y36427840D01*
X45618373Y36425844D01*
X45616710Y36424733D01*
X45615468Y36425066D01*
X45578399Y36449837D01*
X45532139Y36440635D01*
X45519467Y36427963D01*
X45517535Y36427445D01*
X45516121Y36428859D01*
X45516390Y36430488D01*
X45532740Y36454958D01*
X45544226Y36512699D01*
X45544226Y37782301D01*
X45532740Y37840042D01*
X45514620Y37867160D01*
X45514489Y37869156D01*
X45516152Y37870267D01*
X45517394Y37869934D01*
G37*
G36*
X46817417Y37869934D02*
G01*
X46854489Y37845163D01*
X46900749Y37854366D01*
X46913417Y37867034D01*
X46915349Y37867552D01*
X46916763Y37866138D01*
X46916494Y37864509D01*
X46900146Y37840042D01*
X46888660Y37782301D01*
X46888660Y36512699D01*
X46900146Y36454958D01*
X46918265Y36427840D01*
X46918396Y36425844D01*
X46916733Y36424733D01*
X46915491Y36425066D01*
X46878422Y36449837D01*
X46832162Y36440635D01*
X46819490Y36427963D01*
X46817558Y36427445D01*
X46816144Y36428859D01*
X46816413Y36430488D01*
X46832763Y36454958D01*
X46844249Y36512699D01*
X46844249Y37782301D01*
X46832763Y37840042D01*
X46814643Y37867160D01*
X46814512Y37869156D01*
X46816175Y37870267D01*
X46817417Y37869934D01*
G37*
G36*
X48117440Y37869934D02*
G01*
X48154512Y37845163D01*
X48200772Y37854366D01*
X48213440Y37867034D01*
X48215372Y37867552D01*
X48216786Y37866138D01*
X48216517Y37864509D01*
X48200169Y37840042D01*
X48188683Y37782301D01*
X48188683Y36512699D01*
X48200169Y36454958D01*
X48218288Y36427840D01*
X48218419Y36425844D01*
X48216756Y36424733D01*
X48215514Y36425066D01*
X48178445Y36449837D01*
X48132185Y36440635D01*
X48119513Y36427963D01*
X48117581Y36427445D01*
X48116167Y36428859D01*
X48116436Y36430488D01*
X48132786Y36454958D01*
X48144272Y36512699D01*
X48144272Y37782301D01*
X48132786Y37840042D01*
X48114666Y37867160D01*
X48114535Y37869156D01*
X48116198Y37870267D01*
X48117440Y37869934D01*
G37*
G36*
X46167405Y37869934D02*
G01*
X46204477Y37845163D01*
X46250737Y37854366D01*
X46263408Y37867037D01*
X46265340Y37867555D01*
X46266754Y37866141D01*
X46266485Y37864512D01*
X46250135Y37840042D01*
X46238649Y37782301D01*
X46238649Y36512699D01*
X46250135Y36454958D01*
X46268255Y36427840D01*
X46268386Y36425844D01*
X46266723Y36424733D01*
X46265481Y36425066D01*
X46228409Y36449837D01*
X46182149Y36440634D01*
X46169478Y36427963D01*
X46167546Y36427445D01*
X46166132Y36428859D01*
X46166401Y36430488D01*
X46182751Y36454958D01*
X46194237Y36512699D01*
X46194237Y37782301D01*
X46182751Y37840042D01*
X46164631Y37867160D01*
X46164500Y37869156D01*
X46166163Y37870267D01*
X46167405Y37869934D01*
G37*
G36*
X47467428Y37869934D02*
G01*
X47504500Y37845163D01*
X47550760Y37854366D01*
X47563431Y37867037D01*
X47565363Y37867555D01*
X47566777Y37866141D01*
X47566508Y37864512D01*
X47550158Y37840042D01*
X47538672Y37782301D01*
X47538672Y36512699D01*
X47550158Y36454958D01*
X47568278Y36427840D01*
X47568409Y36425844D01*
X47566746Y36424733D01*
X47565504Y36425066D01*
X47528432Y36449837D01*
X47482172Y36440634D01*
X47469501Y36427963D01*
X47467569Y36427445D01*
X47466155Y36428859D01*
X47466424Y36430488D01*
X47482774Y36454958D01*
X47494260Y36512699D01*
X47494260Y37782301D01*
X47482774Y37840042D01*
X47464654Y37867160D01*
X47464523Y37869156D01*
X47466186Y37870267D01*
X47467428Y37869934D01*
G37*
G36*
X49417462Y37869934D02*
G01*
X49454534Y37845163D01*
X49500794Y37854366D01*
X49513465Y37867037D01*
X49515397Y37867555D01*
X49516811Y37866141D01*
X49516542Y37864512D01*
X49500192Y37840042D01*
X49488706Y37782301D01*
X49488706Y36512699D01*
X49500192Y36454958D01*
X49518312Y36427840D01*
X49518443Y36425844D01*
X49516780Y36424733D01*
X49515538Y36425066D01*
X49478466Y36449837D01*
X49432206Y36440634D01*
X49419535Y36427963D01*
X49417603Y36427445D01*
X49416189Y36428859D01*
X49416458Y36430488D01*
X49432808Y36454958D01*
X49444294Y36512699D01*
X49444294Y37782301D01*
X49432808Y37840042D01*
X49414688Y37867160D01*
X49414557Y37869156D01*
X49416220Y37870267D01*
X49417462Y37869934D01*
G37*
G36*
X51367496Y37869934D02*
G01*
X51404568Y37845163D01*
X51450828Y37854366D01*
X51463499Y37867037D01*
X51465431Y37867555D01*
X51466845Y37866141D01*
X51466576Y37864512D01*
X51450226Y37840042D01*
X51438740Y37782301D01*
X51438740Y36512699D01*
X51450226Y36454958D01*
X51468346Y36427840D01*
X51468477Y36425844D01*
X51466814Y36424733D01*
X51465572Y36425066D01*
X51428500Y36449837D01*
X51382240Y36440634D01*
X51369569Y36427963D01*
X51367637Y36427445D01*
X51366223Y36428859D01*
X51366492Y36430488D01*
X51382842Y36454958D01*
X51394328Y36512699D01*
X51394328Y37782301D01*
X51382842Y37840042D01*
X51364722Y37867160D01*
X51364591Y37869156D01*
X51366254Y37870267D01*
X51367496Y37869934D01*
G37*
G36*
X50067474Y37869934D02*
G01*
X50104546Y37845163D01*
X50150806Y37854366D01*
X50163474Y37867034D01*
X50165406Y37867552D01*
X50166820Y37866138D01*
X50166551Y37864509D01*
X50150203Y37840042D01*
X50138717Y37782301D01*
X50138717Y36512699D01*
X50150203Y36454958D01*
X50168322Y36427840D01*
X50168453Y36425844D01*
X50166790Y36424733D01*
X50165548Y36425066D01*
X50128479Y36449837D01*
X50082219Y36440635D01*
X50069547Y36427963D01*
X50067615Y36427445D01*
X50066201Y36428859D01*
X50066470Y36430488D01*
X50082820Y36454958D01*
X50094306Y36512699D01*
X50094306Y37782301D01*
X50082820Y37840042D01*
X50064700Y37867160D01*
X50064569Y37869156D01*
X50066232Y37870267D01*
X50067474Y37869934D01*
G37*
G36*
X53317531Y37869934D02*
G01*
X53354603Y37845163D01*
X53400863Y37854366D01*
X53413531Y37867034D01*
X53415463Y37867552D01*
X53416877Y37866138D01*
X53416608Y37864509D01*
X53400260Y37840042D01*
X53388774Y37782301D01*
X53388774Y36512699D01*
X53400260Y36454958D01*
X53418379Y36427840D01*
X53418510Y36425844D01*
X53416847Y36424733D01*
X53415605Y36425066D01*
X53378536Y36449837D01*
X53332276Y36440635D01*
X53319604Y36427963D01*
X53317672Y36427445D01*
X53316258Y36428859D01*
X53316527Y36430488D01*
X53332877Y36454958D01*
X53344363Y36512699D01*
X53344363Y37782301D01*
X53332877Y37840042D01*
X53314757Y37867160D01*
X53314626Y37869156D01*
X53316289Y37870267D01*
X53317531Y37869934D01*
G37*
G36*
X52017508Y37869934D02*
G01*
X52054580Y37845163D01*
X52100840Y37854366D01*
X52113508Y37867034D01*
X52115440Y37867552D01*
X52116854Y37866138D01*
X52116585Y37864509D01*
X52100237Y37840042D01*
X52088751Y37782301D01*
X52088751Y36512699D01*
X52100237Y36454958D01*
X52118356Y36427840D01*
X52118487Y36425844D01*
X52116824Y36424733D01*
X52115582Y36425066D01*
X52078513Y36449837D01*
X52032253Y36440635D01*
X52019581Y36427963D01*
X52017649Y36427445D01*
X52016235Y36428859D01*
X52016504Y36430488D01*
X52032854Y36454958D01*
X52044340Y36512699D01*
X52044340Y37782301D01*
X52032854Y37840042D01*
X52014734Y37867160D01*
X52014603Y37869156D01*
X52016266Y37870267D01*
X52017508Y37869934D01*
G37*
G36*
X106903974Y38306034D02*
G01*
X106941046Y38281263D01*
X106987306Y38290466D01*
X106999974Y38303134D01*
X107001906Y38303652D01*
X107003320Y38302238D01*
X107003051Y38300609D01*
X106986703Y38276142D01*
X106975217Y38218401D01*
X106975217Y36948799D01*
X106986703Y36891058D01*
X107004822Y36863940D01*
X107004953Y36861944D01*
X107003290Y36860833D01*
X107002048Y36861166D01*
X106964979Y36885937D01*
X106918719Y36876735D01*
X106906047Y36864063D01*
X106904115Y36863545D01*
X106902701Y36864959D01*
X106902970Y36866588D01*
X106919320Y36891058D01*
X106930806Y36948799D01*
X106930806Y38218401D01*
X106919320Y38276142D01*
X106901200Y38303260D01*
X106901069Y38305256D01*
X106902732Y38306367D01*
X106903974Y38306034D01*
G37*
G36*
X106253962Y38306034D02*
G01*
X106291034Y38281263D01*
X106337294Y38290466D01*
X106349965Y38303137D01*
X106351897Y38303655D01*
X106353311Y38302241D01*
X106353042Y38300612D01*
X106336692Y38276142D01*
X106325206Y38218401D01*
X106325206Y36948799D01*
X106336692Y36891058D01*
X106354812Y36863940D01*
X106354943Y36861944D01*
X106353280Y36860833D01*
X106352038Y36861166D01*
X106314966Y36885937D01*
X106268706Y36876734D01*
X106256035Y36864063D01*
X106254103Y36863545D01*
X106252689Y36864959D01*
X106252958Y36866588D01*
X106269308Y36891058D01*
X106280794Y36948799D01*
X106280794Y38218401D01*
X106269308Y38276142D01*
X106251188Y38303260D01*
X106251057Y38305256D01*
X106252720Y38306367D01*
X106253962Y38306034D01*
G37*
G36*
X103653917Y38306034D02*
G01*
X103690989Y38281263D01*
X103737249Y38290466D01*
X103749917Y38303134D01*
X103751849Y38303652D01*
X103753263Y38302238D01*
X103752994Y38300609D01*
X103736646Y38276142D01*
X103725160Y38218401D01*
X103725160Y36948799D01*
X103736646Y36891058D01*
X103754765Y36863940D01*
X103754896Y36861944D01*
X103753233Y36860833D01*
X103751991Y36861166D01*
X103714922Y36885937D01*
X103668662Y36876735D01*
X103655990Y36864063D01*
X103654058Y36863545D01*
X103652644Y36864959D01*
X103652913Y36866588D01*
X103669263Y36891058D01*
X103680749Y36948799D01*
X103680749Y38218401D01*
X103669263Y38276142D01*
X103651143Y38303260D01*
X103651012Y38305256D01*
X103652675Y38306367D01*
X103653917Y38306034D01*
G37*
G36*
X107553985Y38306034D02*
G01*
X107591057Y38281263D01*
X107637317Y38290466D01*
X107649985Y38303134D01*
X107651917Y38303652D01*
X107653331Y38302238D01*
X107653062Y38300609D01*
X107636714Y38276142D01*
X107625228Y38218401D01*
X107625228Y36948799D01*
X107636714Y36891058D01*
X107654833Y36863940D01*
X107654964Y36861944D01*
X107653301Y36860833D01*
X107652059Y36861166D01*
X107614990Y36885937D01*
X107568730Y36876735D01*
X107556058Y36864063D01*
X107554126Y36863545D01*
X107552712Y36864959D01*
X107552981Y36866588D01*
X107569331Y36891058D01*
X107580817Y36948799D01*
X107580817Y38218401D01*
X107569331Y38276142D01*
X107551211Y38303260D01*
X107551080Y38305256D01*
X107552743Y38306367D01*
X107553985Y38306034D01*
G37*
G36*
X110154031Y38306034D02*
G01*
X110191103Y38281263D01*
X110237363Y38290466D01*
X110250031Y38303134D01*
X110251963Y38303652D01*
X110253377Y38302238D01*
X110253108Y38300609D01*
X110236760Y38276142D01*
X110225274Y38218401D01*
X110225274Y36948799D01*
X110236760Y36891058D01*
X110254879Y36863940D01*
X110255010Y36861944D01*
X110253347Y36860833D01*
X110252105Y36861166D01*
X110215036Y36885937D01*
X110168776Y36876735D01*
X110156104Y36864063D01*
X110154172Y36863545D01*
X110152758Y36864959D01*
X110153027Y36866588D01*
X110169377Y36891058D01*
X110180863Y36948799D01*
X110180863Y38218401D01*
X110169377Y38276142D01*
X110151257Y38303260D01*
X110151126Y38305256D01*
X110152789Y38306367D01*
X110154031Y38306034D01*
G37*
G36*
X108203996Y38306034D02*
G01*
X108241068Y38281263D01*
X108287328Y38290466D01*
X108299999Y38303137D01*
X108301931Y38303655D01*
X108303345Y38302241D01*
X108303076Y38300612D01*
X108286726Y38276142D01*
X108275240Y38218401D01*
X108275240Y36948799D01*
X108286726Y36891058D01*
X108304846Y36863940D01*
X108304977Y36861944D01*
X108303314Y36860833D01*
X108302072Y36861166D01*
X108265000Y36885937D01*
X108218740Y36876734D01*
X108206069Y36864063D01*
X108204137Y36863545D01*
X108202723Y36864959D01*
X108202992Y36866588D01*
X108219342Y36891058D01*
X108230828Y36948799D01*
X108230828Y38218401D01*
X108219342Y38276142D01*
X108201222Y38303260D01*
X108201091Y38305256D01*
X108202754Y38306367D01*
X108203996Y38306034D01*
G37*
G36*
X108854008Y38306034D02*
G01*
X108891080Y38281263D01*
X108937340Y38290466D01*
X108950008Y38303134D01*
X108951940Y38303652D01*
X108953354Y38302238D01*
X108953085Y38300609D01*
X108936737Y38276142D01*
X108925251Y38218401D01*
X108925251Y36948799D01*
X108936737Y36891058D01*
X108954856Y36863940D01*
X108954987Y36861944D01*
X108953324Y36860833D01*
X108952082Y36861166D01*
X108915013Y36885937D01*
X108868753Y36876735D01*
X108856081Y36864063D01*
X108854149Y36863545D01*
X108852735Y36864959D01*
X108853004Y36866588D01*
X108869354Y36891058D01*
X108880840Y36948799D01*
X108880840Y38218401D01*
X108869354Y38276142D01*
X108851234Y38303260D01*
X108851103Y38305256D01*
X108852766Y38306367D01*
X108854008Y38306034D01*
G37*
G36*
X103003905Y38306034D02*
G01*
X103040977Y38281263D01*
X103087237Y38290466D01*
X103099908Y38303137D01*
X103101840Y38303655D01*
X103103254Y38302241D01*
X103102985Y38300612D01*
X103086635Y38276142D01*
X103075149Y38218401D01*
X103075149Y36948799D01*
X103086635Y36891058D01*
X103104755Y36863940D01*
X103104886Y36861944D01*
X103103223Y36860833D01*
X103101981Y36861166D01*
X103064909Y36885937D01*
X103018649Y36876734D01*
X103005978Y36864063D01*
X103004046Y36863545D01*
X103002632Y36864959D01*
X103002901Y36866588D01*
X103019251Y36891058D01*
X103030737Y36948799D01*
X103030737Y38218401D01*
X103019251Y38276142D01*
X103001131Y38303260D01*
X103001000Y38305256D01*
X103002663Y38306367D01*
X103003905Y38306034D01*
G37*
G36*
X102353894Y38306034D02*
G01*
X102390966Y38281263D01*
X102437226Y38290466D01*
X102449894Y38303134D01*
X102451826Y38303652D01*
X102453240Y38302238D01*
X102452971Y38300609D01*
X102436623Y38276142D01*
X102425137Y38218401D01*
X102425137Y36948799D01*
X102436623Y36891058D01*
X102454742Y36863940D01*
X102454873Y36861944D01*
X102453210Y36860833D01*
X102451968Y36861166D01*
X102414899Y36885937D01*
X102368639Y36876735D01*
X102355967Y36864063D01*
X102354035Y36863545D01*
X102352621Y36864959D01*
X102352890Y36866588D01*
X102369240Y36891058D01*
X102380726Y36948799D01*
X102380726Y38218401D01*
X102369240Y38276142D01*
X102351120Y38303260D01*
X102350989Y38305256D01*
X102352652Y38306367D01*
X102353894Y38306034D01*
G37*
G36*
X104953940Y38306034D02*
G01*
X104991012Y38281263D01*
X105037272Y38290466D01*
X105049940Y38303134D01*
X105051872Y38303652D01*
X105053286Y38302238D01*
X105053017Y38300609D01*
X105036669Y38276142D01*
X105025183Y38218401D01*
X105025183Y36948799D01*
X105036669Y36891058D01*
X105054788Y36863940D01*
X105054919Y36861944D01*
X105053256Y36860833D01*
X105052014Y36861166D01*
X105014945Y36885937D01*
X104968685Y36876735D01*
X104956013Y36864063D01*
X104954081Y36863545D01*
X104952667Y36864959D01*
X104952936Y36866588D01*
X104969286Y36891058D01*
X104980772Y36948799D01*
X104980772Y38218401D01*
X104969286Y38276142D01*
X104951166Y38303260D01*
X104951035Y38305256D01*
X104952698Y38306367D01*
X104953940Y38306034D01*
G37*
G36*
X104303928Y38306034D02*
G01*
X104341000Y38281263D01*
X104387260Y38290466D01*
X104399931Y38303137D01*
X104401863Y38303655D01*
X104403277Y38302241D01*
X104403008Y38300612D01*
X104386658Y38276142D01*
X104375172Y38218401D01*
X104375172Y36948799D01*
X104386658Y36891058D01*
X104404778Y36863940D01*
X104404909Y36861944D01*
X104403246Y36860833D01*
X104402004Y36861166D01*
X104364932Y36885937D01*
X104318672Y36876734D01*
X104306001Y36864063D01*
X104304069Y36863545D01*
X104302655Y36864959D01*
X104302924Y36866588D01*
X104319274Y36891058D01*
X104330760Y36948799D01*
X104330760Y38218401D01*
X104319274Y38276142D01*
X104301154Y38303260D01*
X104301023Y38305256D01*
X104302686Y38306367D01*
X104303928Y38306034D01*
G37*
G36*
X105603951Y38306034D02*
G01*
X105641023Y38281263D01*
X105687283Y38290466D01*
X105699951Y38303134D01*
X105701883Y38303652D01*
X105703297Y38302238D01*
X105703028Y38300609D01*
X105686680Y38276142D01*
X105675194Y38218401D01*
X105675194Y36948799D01*
X105686680Y36891058D01*
X105704799Y36863940D01*
X105704930Y36861944D01*
X105703267Y36860833D01*
X105702025Y36861166D01*
X105664956Y36885937D01*
X105618696Y36876735D01*
X105606024Y36864063D01*
X105604092Y36863545D01*
X105602678Y36864959D01*
X105602947Y36866588D01*
X105619297Y36891058D01*
X105630783Y36948799D01*
X105630783Y38218401D01*
X105619297Y38276142D01*
X105601177Y38303260D01*
X105601046Y38305256D01*
X105602709Y38306367D01*
X105603951Y38306034D01*
G37*
G36*
X109504019Y38306034D02*
G01*
X109541091Y38281263D01*
X109587351Y38290466D01*
X109600022Y38303137D01*
X109601954Y38303655D01*
X109603368Y38302241D01*
X109603099Y38300612D01*
X109586749Y38276142D01*
X109575263Y38218401D01*
X109575263Y36948799D01*
X109586749Y36891058D01*
X109604869Y36863940D01*
X109605000Y36861944D01*
X109603337Y36860833D01*
X109602095Y36861166D01*
X109565023Y36885937D01*
X109518763Y36876734D01*
X109506092Y36864063D01*
X109504160Y36863545D01*
X109502746Y36864959D01*
X109503015Y36866588D01*
X109519365Y36891058D01*
X109530851Y36948799D01*
X109530851Y38218401D01*
X109519365Y38276142D01*
X109501245Y38303260D01*
X109501114Y38305256D01*
X109502777Y38306367D01*
X109504019Y38306034D01*
G37*
G36*
X167000179Y40616869D02*
G01*
X167000686Y40614934D01*
X167000076Y40613958D01*
X166967498Y40585388D01*
X166964428Y40538546D01*
X166995430Y40503195D01*
X167034737Y40498020D01*
X167036324Y40496802D01*
X167036063Y40494819D01*
X167034866Y40494075D01*
X166744483Y40436314D01*
X166655847Y40406226D01*
X166653885Y40406616D01*
X166653242Y40408510D01*
X166653885Y40409624D01*
X166689537Y40440890D01*
X166692607Y40487732D01*
X166661557Y40523139D01*
X166630243Y40529367D01*
X166542470Y40523614D01*
X166540676Y40524499D01*
X166540545Y40526495D01*
X166542099Y40527596D01*
X166753432Y40553170D01*
X166998249Y40617397D01*
X167000179Y40616869D01*
G37*
G36*
X68359610Y43487634D02*
G01*
X68396682Y43462863D01*
X68442942Y43472066D01*
X68455613Y43484737D01*
X68457545Y43485255D01*
X68458959Y43483841D01*
X68458690Y43482212D01*
X68442340Y43457742D01*
X68430854Y43400001D01*
X68430854Y42130399D01*
X68442340Y42072658D01*
X68460460Y42045540D01*
X68460591Y42043544D01*
X68458928Y42042433D01*
X68457686Y42042766D01*
X68420614Y42067537D01*
X68374354Y42058334D01*
X68361683Y42045663D01*
X68359751Y42045145D01*
X68358337Y42046559D01*
X68358606Y42048188D01*
X68374956Y42072658D01*
X68386442Y42130399D01*
X68386442Y43400001D01*
X68374956Y43457742D01*
X68356836Y43484860D01*
X68356705Y43486856D01*
X68358368Y43487967D01*
X68359610Y43487634D01*
G37*
G36*
X70959656Y43487634D02*
G01*
X70996728Y43462863D01*
X71042988Y43472066D01*
X71055656Y43484734D01*
X71057588Y43485252D01*
X71059002Y43483838D01*
X71058733Y43482209D01*
X71042385Y43457742D01*
X71030899Y43400001D01*
X71030899Y42130399D01*
X71042385Y42072658D01*
X71060504Y42045540D01*
X71060635Y42043544D01*
X71058972Y42042433D01*
X71057730Y42042766D01*
X71020661Y42067537D01*
X70974401Y42058335D01*
X70961729Y42045663D01*
X70959797Y42045145D01*
X70958383Y42046559D01*
X70958652Y42048188D01*
X70975002Y42072658D01*
X70986488Y42130399D01*
X70986488Y43400001D01*
X70975002Y43457742D01*
X70956882Y43484860D01*
X70956751Y43486856D01*
X70958414Y43487967D01*
X70959656Y43487634D01*
G37*
G36*
X66409576Y43487634D02*
G01*
X66446648Y43462863D01*
X66492908Y43472066D01*
X66505576Y43484734D01*
X66507508Y43485252D01*
X66508922Y43483838D01*
X66508653Y43482209D01*
X66492305Y43457742D01*
X66480819Y43400001D01*
X66480819Y42130399D01*
X66492305Y42072658D01*
X66510424Y42045540D01*
X66510555Y42043544D01*
X66508892Y42042433D01*
X66507650Y42042766D01*
X66470581Y42067537D01*
X66424321Y42058335D01*
X66411649Y42045663D01*
X66409717Y42045145D01*
X66408303Y42046559D01*
X66408572Y42048188D01*
X66424922Y42072658D01*
X66436408Y42130399D01*
X66436408Y43400001D01*
X66424922Y43457742D01*
X66406802Y43484860D01*
X66406671Y43486856D01*
X66408334Y43487967D01*
X66409576Y43487634D01*
G37*
G36*
X71609667Y43487634D02*
G01*
X71646739Y43462863D01*
X71692999Y43472066D01*
X71705667Y43484734D01*
X71707599Y43485252D01*
X71709013Y43483838D01*
X71708744Y43482209D01*
X71692396Y43457742D01*
X71680910Y43400001D01*
X71680910Y42130399D01*
X71692396Y42072658D01*
X71710515Y42045540D01*
X71710646Y42043544D01*
X71708983Y42042433D01*
X71707741Y42042766D01*
X71670672Y42067537D01*
X71624412Y42058335D01*
X71611740Y42045663D01*
X71609808Y42045145D01*
X71608394Y42046559D01*
X71608663Y42048188D01*
X71625013Y42072658D01*
X71636499Y42130399D01*
X71636499Y43400001D01*
X71625013Y43457742D01*
X71606893Y43484860D01*
X71606762Y43486856D01*
X71608425Y43487967D01*
X71609667Y43487634D01*
G37*
G36*
X70309644Y43487634D02*
G01*
X70346716Y43462863D01*
X70392976Y43472066D01*
X70405647Y43484737D01*
X70407579Y43485255D01*
X70408993Y43483841D01*
X70408724Y43482212D01*
X70392374Y43457742D01*
X70380888Y43400001D01*
X70380888Y42130399D01*
X70392374Y42072658D01*
X70410494Y42045540D01*
X70410625Y42043544D01*
X70408962Y42042433D01*
X70407720Y42042766D01*
X70370648Y42067537D01*
X70324388Y42058334D01*
X70311717Y42045663D01*
X70309785Y42045145D01*
X70308371Y42046559D01*
X70308640Y42048188D01*
X70324990Y42072658D01*
X70336476Y42130399D01*
X70336476Y43400001D01*
X70324990Y43457742D01*
X70306870Y43484860D01*
X70306739Y43486856D01*
X70308402Y43487967D01*
X70309644Y43487634D01*
G37*
G36*
X67709599Y43487634D02*
G01*
X67746671Y43462863D01*
X67792931Y43472066D01*
X67805599Y43484734D01*
X67807531Y43485252D01*
X67808945Y43483838D01*
X67808676Y43482209D01*
X67792328Y43457742D01*
X67780842Y43400001D01*
X67780842Y42130399D01*
X67792328Y42072658D01*
X67810447Y42045540D01*
X67810578Y42043544D01*
X67808915Y42042433D01*
X67807673Y42042766D01*
X67770604Y42067537D01*
X67724344Y42058335D01*
X67711672Y42045663D01*
X67709740Y42045145D01*
X67708326Y42046559D01*
X67708595Y42048188D01*
X67724945Y42072658D01*
X67736431Y42130399D01*
X67736431Y43400001D01*
X67724945Y43457742D01*
X67706825Y43484860D01*
X67706694Y43486856D01*
X67708357Y43487967D01*
X67709599Y43487634D01*
G37*
G36*
X73559701Y43487634D02*
G01*
X73596773Y43462863D01*
X73643033Y43472066D01*
X73655704Y43484737D01*
X73657636Y43485255D01*
X73659050Y43483841D01*
X73658781Y43482212D01*
X73642431Y43457742D01*
X73630945Y43400001D01*
X73630945Y42130399D01*
X73642431Y42072658D01*
X73660551Y42045540D01*
X73660682Y42043544D01*
X73659019Y42042433D01*
X73657777Y42042766D01*
X73620705Y42067537D01*
X73574445Y42058334D01*
X73561774Y42045663D01*
X73559842Y42045145D01*
X73558428Y42046559D01*
X73558697Y42048188D01*
X73575047Y42072658D01*
X73586533Y42130399D01*
X73586533Y43400001D01*
X73575047Y43457742D01*
X73556927Y43484860D01*
X73556796Y43486856D01*
X73558459Y43487967D01*
X73559701Y43487634D01*
G37*
G36*
X69659633Y43487634D02*
G01*
X69696705Y43462863D01*
X69742965Y43472066D01*
X69755633Y43484734D01*
X69757565Y43485252D01*
X69758979Y43483838D01*
X69758710Y43482209D01*
X69742362Y43457742D01*
X69730876Y43400001D01*
X69730876Y42130399D01*
X69742362Y42072658D01*
X69760481Y42045540D01*
X69760612Y42043544D01*
X69758949Y42042433D01*
X69757707Y42042766D01*
X69720638Y42067537D01*
X69674378Y42058335D01*
X69661706Y42045663D01*
X69659774Y42045145D01*
X69658360Y42046559D01*
X69658629Y42048188D01*
X69674979Y42072658D01*
X69686465Y42130399D01*
X69686465Y43400001D01*
X69674979Y43457742D01*
X69656859Y43484860D01*
X69656728Y43486856D01*
X69658391Y43487967D01*
X69659633Y43487634D01*
G37*
G36*
X74209713Y43487634D02*
G01*
X74246785Y43462863D01*
X74293045Y43472066D01*
X74305713Y43484734D01*
X74307645Y43485252D01*
X74309059Y43483838D01*
X74308790Y43482209D01*
X74292442Y43457742D01*
X74280956Y43400001D01*
X74280956Y42130399D01*
X74292442Y42072658D01*
X74310561Y42045540D01*
X74310692Y42043544D01*
X74309029Y42042433D01*
X74307787Y42042766D01*
X74270718Y42067537D01*
X74224458Y42058335D01*
X74211786Y42045663D01*
X74209854Y42045145D01*
X74208440Y42046559D01*
X74208709Y42048188D01*
X74225059Y42072658D01*
X74236545Y42130399D01*
X74236545Y43400001D01*
X74225059Y43457742D01*
X74206939Y43484860D01*
X74206808Y43486856D01*
X74208471Y43487967D01*
X74209713Y43487634D01*
G37*
G36*
X72909690Y43487634D02*
G01*
X72946762Y43462863D01*
X72993022Y43472066D01*
X73005690Y43484734D01*
X73007622Y43485252D01*
X73009036Y43483838D01*
X73008767Y43482209D01*
X72992419Y43457742D01*
X72980933Y43400001D01*
X72980933Y42130399D01*
X72992419Y42072658D01*
X73010538Y42045540D01*
X73010669Y42043544D01*
X73009006Y42042433D01*
X73007764Y42042766D01*
X72970695Y42067537D01*
X72924435Y42058335D01*
X72911763Y42045663D01*
X72909831Y42045145D01*
X72908417Y42046559D01*
X72908686Y42048188D01*
X72925036Y42072658D01*
X72936522Y42130399D01*
X72936522Y43400001D01*
X72925036Y43457742D01*
X72906916Y43484860D01*
X72906785Y43486856D01*
X72908448Y43487967D01*
X72909690Y43487634D01*
G37*
G36*
X69009622Y43487634D02*
G01*
X69046694Y43462863D01*
X69092954Y43472066D01*
X69105622Y43484734D01*
X69107554Y43485252D01*
X69108968Y43483838D01*
X69108699Y43482209D01*
X69092351Y43457742D01*
X69080865Y43400001D01*
X69080865Y42130399D01*
X69092351Y42072658D01*
X69110470Y42045540D01*
X69110601Y42043544D01*
X69108938Y42042433D01*
X69107696Y42042766D01*
X69070627Y42067537D01*
X69024367Y42058335D01*
X69011695Y42045663D01*
X69009763Y42045145D01*
X69008349Y42046559D01*
X69008618Y42048188D01*
X69024968Y42072658D01*
X69036454Y42130399D01*
X69036454Y43400001D01*
X69024968Y43457742D01*
X69006848Y43484860D01*
X69006717Y43486856D01*
X69008380Y43487967D01*
X69009622Y43487634D01*
G37*
G36*
X67059587Y43487634D02*
G01*
X67096659Y43462863D01*
X67142919Y43472066D01*
X67155590Y43484737D01*
X67157522Y43485255D01*
X67158936Y43483841D01*
X67158667Y43482212D01*
X67142317Y43457742D01*
X67130831Y43400001D01*
X67130831Y42130399D01*
X67142317Y42072658D01*
X67160437Y42045540D01*
X67160568Y42043544D01*
X67158905Y42042433D01*
X67157663Y42042766D01*
X67120591Y42067537D01*
X67074331Y42058334D01*
X67061660Y42045663D01*
X67059728Y42045145D01*
X67058314Y42046559D01*
X67058583Y42048188D01*
X67074933Y42072658D01*
X67086419Y42130399D01*
X67086419Y43400001D01*
X67074933Y43457742D01*
X67056813Y43484860D01*
X67056682Y43486856D01*
X67058345Y43487967D01*
X67059587Y43487634D01*
G37*
G36*
X72259678Y43487634D02*
G01*
X72296750Y43462863D01*
X72343010Y43472066D01*
X72355681Y43484737D01*
X72357613Y43485255D01*
X72359027Y43483841D01*
X72358758Y43482212D01*
X72342408Y43457742D01*
X72330922Y43400001D01*
X72330922Y42130399D01*
X72342408Y42072658D01*
X72360528Y42045540D01*
X72360659Y42043544D01*
X72358996Y42042433D01*
X72357754Y42042766D01*
X72320682Y42067537D01*
X72274422Y42058334D01*
X72261751Y42045663D01*
X72259819Y42045145D01*
X72258405Y42046559D01*
X72258674Y42048188D01*
X72275024Y42072658D01*
X72286510Y42130399D01*
X72286510Y43400001D01*
X72275024Y43457742D01*
X72256904Y43484860D01*
X72256773Y43486856D01*
X72258436Y43487967D01*
X72259678Y43487634D01*
G37*
G36*
X52667519Y43813534D02*
G01*
X52704591Y43788763D01*
X52750851Y43797966D01*
X52763522Y43810637D01*
X52765454Y43811155D01*
X52766868Y43809741D01*
X52766599Y43808112D01*
X52750249Y43783642D01*
X52738763Y43725901D01*
X52738763Y42456299D01*
X52750249Y42398558D01*
X52768369Y42371440D01*
X52768500Y42369444D01*
X52766837Y42368333D01*
X52765595Y42368666D01*
X52728523Y42393437D01*
X52682263Y42384234D01*
X52669592Y42371563D01*
X52667660Y42371045D01*
X52666246Y42372459D01*
X52666515Y42374088D01*
X52682865Y42398558D01*
X52694351Y42456299D01*
X52694351Y43725901D01*
X52682865Y43783642D01*
X52664745Y43810760D01*
X52664614Y43812756D01*
X52666277Y43813867D01*
X52667519Y43813534D01*
G37*
G36*
X48767451Y43813534D02*
G01*
X48804523Y43788763D01*
X48850783Y43797966D01*
X48863451Y43810634D01*
X48865383Y43811152D01*
X48866797Y43809738D01*
X48866528Y43808109D01*
X48850180Y43783642D01*
X48838694Y43725901D01*
X48838694Y42456299D01*
X48850180Y42398558D01*
X48868299Y42371440D01*
X48868430Y42369444D01*
X48866767Y42368333D01*
X48865525Y42368666D01*
X48828456Y42393437D01*
X48782196Y42384235D01*
X48769524Y42371563D01*
X48767592Y42371045D01*
X48766178Y42372459D01*
X48766447Y42374088D01*
X48782797Y42398558D01*
X48794283Y42456299D01*
X48794283Y43725901D01*
X48782797Y43783642D01*
X48764677Y43810760D01*
X48764546Y43812756D01*
X48766209Y43813867D01*
X48767451Y43813534D01*
G37*
G36*
X45517394Y43813534D02*
G01*
X45554466Y43788763D01*
X45600726Y43797966D01*
X45613394Y43810634D01*
X45615326Y43811152D01*
X45616740Y43809738D01*
X45616471Y43808109D01*
X45600123Y43783642D01*
X45588637Y43725901D01*
X45588637Y42456299D01*
X45600123Y42398558D01*
X45618242Y42371440D01*
X45618373Y42369444D01*
X45616710Y42368333D01*
X45615468Y42368666D01*
X45578399Y42393437D01*
X45532139Y42384235D01*
X45519467Y42371563D01*
X45517535Y42371045D01*
X45516121Y42372459D01*
X45516390Y42374088D01*
X45532740Y42398558D01*
X45544226Y42456299D01*
X45544226Y43725901D01*
X45532740Y43783642D01*
X45514620Y43810760D01*
X45514489Y43812756D01*
X45516152Y43813867D01*
X45517394Y43813534D01*
G37*
G36*
X51367496Y43813534D02*
G01*
X51404568Y43788763D01*
X51450828Y43797966D01*
X51463499Y43810637D01*
X51465431Y43811155D01*
X51466845Y43809741D01*
X51466576Y43808112D01*
X51450226Y43783642D01*
X51438740Y43725901D01*
X51438740Y42456299D01*
X51450226Y42398558D01*
X51468346Y42371440D01*
X51468477Y42369444D01*
X51466814Y42368333D01*
X51465572Y42368666D01*
X51428500Y42393437D01*
X51382240Y42384234D01*
X51369569Y42371563D01*
X51367637Y42371045D01*
X51366223Y42372459D01*
X51366492Y42374088D01*
X51382842Y42398558D01*
X51394328Y42456299D01*
X51394328Y43725901D01*
X51382842Y43783642D01*
X51364722Y43810760D01*
X51364591Y43812756D01*
X51366254Y43813867D01*
X51367496Y43813534D01*
G37*
G36*
X50717485Y43813534D02*
G01*
X50754557Y43788763D01*
X50800817Y43797966D01*
X50813485Y43810634D01*
X50815417Y43811152D01*
X50816831Y43809738D01*
X50816562Y43808109D01*
X50800214Y43783642D01*
X50788728Y43725901D01*
X50788728Y42456299D01*
X50800214Y42398558D01*
X50818333Y42371440D01*
X50818464Y42369444D01*
X50816801Y42368333D01*
X50815559Y42368666D01*
X50778490Y42393437D01*
X50732230Y42384235D01*
X50719558Y42371563D01*
X50717626Y42371045D01*
X50716212Y42372459D01*
X50716481Y42374088D01*
X50732831Y42398558D01*
X50744317Y42456299D01*
X50744317Y43725901D01*
X50732831Y43783642D01*
X50714711Y43810760D01*
X50714580Y43812756D01*
X50716243Y43813867D01*
X50717485Y43813534D01*
G37*
G36*
X50067474Y43813534D02*
G01*
X50104546Y43788763D01*
X50150806Y43797966D01*
X50163474Y43810634D01*
X50165406Y43811152D01*
X50166820Y43809738D01*
X50166551Y43808109D01*
X50150203Y43783642D01*
X50138717Y43725901D01*
X50138717Y42456299D01*
X50150203Y42398558D01*
X50168322Y42371440D01*
X50168453Y42369444D01*
X50166790Y42368333D01*
X50165548Y42368666D01*
X50128479Y42393437D01*
X50082219Y42384235D01*
X50069547Y42371563D01*
X50067615Y42371045D01*
X50066201Y42372459D01*
X50066470Y42374088D01*
X50082820Y42398558D01*
X50094306Y42456299D01*
X50094306Y43725901D01*
X50082820Y43783642D01*
X50064700Y43810760D01*
X50064569Y43812756D01*
X50066232Y43813867D01*
X50067474Y43813534D01*
G37*
G36*
X48117440Y43813534D02*
G01*
X48154512Y43788763D01*
X48200772Y43797966D01*
X48213440Y43810634D01*
X48215372Y43811152D01*
X48216786Y43809738D01*
X48216517Y43808109D01*
X48200169Y43783642D01*
X48188683Y43725901D01*
X48188683Y42456299D01*
X48200169Y42398558D01*
X48218288Y42371440D01*
X48218419Y42369444D01*
X48216756Y42368333D01*
X48215514Y42368666D01*
X48178445Y42393437D01*
X48132185Y42384235D01*
X48119513Y42371563D01*
X48117581Y42371045D01*
X48116167Y42372459D01*
X48116436Y42374088D01*
X48132786Y42398558D01*
X48144272Y42456299D01*
X48144272Y43725901D01*
X48132786Y43783642D01*
X48114666Y43810760D01*
X48114535Y43812756D01*
X48116198Y43813867D01*
X48117440Y43813534D01*
G37*
G36*
X46167405Y43813534D02*
G01*
X46204477Y43788763D01*
X46250737Y43797966D01*
X46263408Y43810637D01*
X46265340Y43811155D01*
X46266754Y43809741D01*
X46266485Y43808112D01*
X46250135Y43783642D01*
X46238649Y43725901D01*
X46238649Y42456299D01*
X46250135Y42398558D01*
X46268255Y42371440D01*
X46268386Y42369444D01*
X46266723Y42368333D01*
X46265481Y42368666D01*
X46228409Y42393437D01*
X46182149Y42384234D01*
X46169478Y42371563D01*
X46167546Y42371045D01*
X46166132Y42372459D01*
X46166401Y42374088D01*
X46182751Y42398558D01*
X46194237Y42456299D01*
X46194237Y43725901D01*
X46182751Y43783642D01*
X46164631Y43810760D01*
X46164500Y43812756D01*
X46166163Y43813867D01*
X46167405Y43813534D01*
G37*
G36*
X46817417Y43813534D02*
G01*
X46854489Y43788763D01*
X46900749Y43797966D01*
X46913417Y43810634D01*
X46915349Y43811152D01*
X46916763Y43809738D01*
X46916494Y43808109D01*
X46900146Y43783642D01*
X46888660Y43725901D01*
X46888660Y42456299D01*
X46900146Y42398558D01*
X46918265Y42371440D01*
X46918396Y42369444D01*
X46916733Y42368333D01*
X46915491Y42368666D01*
X46878422Y42393437D01*
X46832162Y42384235D01*
X46819490Y42371563D01*
X46817558Y42371045D01*
X46816144Y42372459D01*
X46816413Y42374088D01*
X46832763Y42398558D01*
X46844249Y42456299D01*
X46844249Y43725901D01*
X46832763Y43783642D01*
X46814643Y43810760D01*
X46814512Y43812756D01*
X46816175Y43813867D01*
X46817417Y43813534D01*
G37*
G36*
X47467428Y43813534D02*
G01*
X47504500Y43788763D01*
X47550760Y43797966D01*
X47563431Y43810637D01*
X47565363Y43811155D01*
X47566777Y43809741D01*
X47566508Y43808112D01*
X47550158Y43783642D01*
X47538672Y43725901D01*
X47538672Y42456299D01*
X47550158Y42398558D01*
X47568278Y42371440D01*
X47568409Y42369444D01*
X47566746Y42368333D01*
X47565504Y42368666D01*
X47528432Y42393437D01*
X47482172Y42384234D01*
X47469501Y42371563D01*
X47467569Y42371045D01*
X47466155Y42372459D01*
X47466424Y42374088D01*
X47482774Y42398558D01*
X47494260Y42456299D01*
X47494260Y43725901D01*
X47482774Y43783642D01*
X47464654Y43810760D01*
X47464523Y43812756D01*
X47466186Y43813867D01*
X47467428Y43813534D01*
G37*
G36*
X53317531Y43813534D02*
G01*
X53354603Y43788763D01*
X53400863Y43797966D01*
X53413531Y43810634D01*
X53415463Y43811152D01*
X53416877Y43809738D01*
X53416608Y43808109D01*
X53400260Y43783642D01*
X53388774Y43725901D01*
X53388774Y42456299D01*
X53400260Y42398558D01*
X53418379Y42371440D01*
X53418510Y42369444D01*
X53416847Y42368333D01*
X53415605Y42368666D01*
X53378536Y42393437D01*
X53332276Y42384235D01*
X53319604Y42371563D01*
X53317672Y42371045D01*
X53316258Y42372459D01*
X53316527Y42374088D01*
X53332877Y42398558D01*
X53344363Y42456299D01*
X53344363Y43725901D01*
X53332877Y43783642D01*
X53314757Y43810760D01*
X53314626Y43812756D01*
X53316289Y43813867D01*
X53317531Y43813534D01*
G37*
G36*
X49417462Y43813534D02*
G01*
X49454534Y43788763D01*
X49500794Y43797966D01*
X49513465Y43810637D01*
X49515397Y43811155D01*
X49516811Y43809741D01*
X49516542Y43808112D01*
X49500192Y43783642D01*
X49488706Y43725901D01*
X49488706Y42456299D01*
X49500192Y42398558D01*
X49518312Y42371440D01*
X49518443Y42369444D01*
X49516780Y42368333D01*
X49515538Y42368666D01*
X49478466Y42393437D01*
X49432206Y42384234D01*
X49419535Y42371563D01*
X49417603Y42371045D01*
X49416189Y42372459D01*
X49416458Y42374088D01*
X49432808Y42398558D01*
X49444294Y42456299D01*
X49444294Y43725901D01*
X49432808Y43783642D01*
X49414688Y43810760D01*
X49414557Y43812756D01*
X49416220Y43813867D01*
X49417462Y43813534D01*
G37*
G36*
X52017508Y43813534D02*
G01*
X52054580Y43788763D01*
X52100840Y43797966D01*
X52113508Y43810634D01*
X52115440Y43811152D01*
X52116854Y43809738D01*
X52116585Y43808109D01*
X52100237Y43783642D01*
X52088751Y43725901D01*
X52088751Y42456299D01*
X52100237Y42398558D01*
X52118356Y42371440D01*
X52118487Y42369444D01*
X52116824Y42368333D01*
X52115582Y42368666D01*
X52078513Y42393437D01*
X52032253Y42384235D01*
X52019581Y42371563D01*
X52017649Y42371045D01*
X52016235Y42372459D01*
X52016504Y42374088D01*
X52032854Y42398558D01*
X52044340Y42456299D01*
X52044340Y43725901D01*
X52032854Y43783642D01*
X52014734Y43810760D01*
X52014603Y43812756D01*
X52016266Y43813867D01*
X52017508Y43813534D01*
G37*
G36*
X109504019Y44249634D02*
G01*
X109541091Y44224863D01*
X109587351Y44234066D01*
X109600022Y44246737D01*
X109601954Y44247255D01*
X109603368Y44245841D01*
X109603099Y44244212D01*
X109586749Y44219742D01*
X109575263Y44162001D01*
X109575263Y42892399D01*
X109586749Y42834658D01*
X109604869Y42807540D01*
X109605000Y42805544D01*
X109603337Y42804433D01*
X109602095Y42804766D01*
X109565023Y42829537D01*
X109518763Y42820334D01*
X109506092Y42807663D01*
X109504160Y42807145D01*
X109502746Y42808559D01*
X109503015Y42810188D01*
X109519365Y42834658D01*
X109530851Y42892399D01*
X109530851Y44162001D01*
X109519365Y44219742D01*
X109501245Y44246860D01*
X109501114Y44248856D01*
X109502777Y44249967D01*
X109504019Y44249634D01*
G37*
G36*
X105603951Y44249634D02*
G01*
X105641023Y44224863D01*
X105687283Y44234066D01*
X105699951Y44246734D01*
X105701883Y44247252D01*
X105703297Y44245838D01*
X105703028Y44244209D01*
X105686680Y44219742D01*
X105675194Y44162001D01*
X105675194Y42892399D01*
X105686680Y42834658D01*
X105704799Y42807540D01*
X105704930Y42805544D01*
X105703267Y42804433D01*
X105702025Y42804766D01*
X105664956Y42829537D01*
X105618696Y42820335D01*
X105606024Y42807663D01*
X105604092Y42807145D01*
X105602678Y42808559D01*
X105602947Y42810188D01*
X105619297Y42834658D01*
X105630783Y42892399D01*
X105630783Y44162001D01*
X105619297Y44219742D01*
X105601177Y44246860D01*
X105601046Y44248856D01*
X105602709Y44249967D01*
X105603951Y44249634D01*
G37*
G36*
X110154031Y44249634D02*
G01*
X110191103Y44224863D01*
X110237363Y44234066D01*
X110250031Y44246734D01*
X110251963Y44247252D01*
X110253377Y44245838D01*
X110253108Y44244209D01*
X110236760Y44219742D01*
X110225274Y44162001D01*
X110225274Y42892399D01*
X110236760Y42834658D01*
X110254879Y42807540D01*
X110255010Y42805544D01*
X110253347Y42804433D01*
X110252105Y42804766D01*
X110215036Y42829537D01*
X110168776Y42820335D01*
X110156104Y42807663D01*
X110154172Y42807145D01*
X110152758Y42808559D01*
X110153027Y42810188D01*
X110169377Y42834658D01*
X110180863Y42892399D01*
X110180863Y44162001D01*
X110169377Y44219742D01*
X110151257Y44246860D01*
X110151126Y44248856D01*
X110152789Y44249967D01*
X110154031Y44249634D01*
G37*
G36*
X106903974Y44249634D02*
G01*
X106941046Y44224863D01*
X106987306Y44234066D01*
X106999974Y44246734D01*
X107001906Y44247252D01*
X107003320Y44245838D01*
X107003051Y44244209D01*
X106986703Y44219742D01*
X106975217Y44162001D01*
X106975217Y42892399D01*
X106986703Y42834658D01*
X107004822Y42807540D01*
X107004953Y42805544D01*
X107003290Y42804433D01*
X107002048Y42804766D01*
X106964979Y42829537D01*
X106918719Y42820335D01*
X106906047Y42807663D01*
X106904115Y42807145D01*
X106902701Y42808559D01*
X106902970Y42810188D01*
X106919320Y42834658D01*
X106930806Y42892399D01*
X106930806Y44162001D01*
X106919320Y44219742D01*
X106901200Y44246860D01*
X106901069Y44248856D01*
X106902732Y44249967D01*
X106903974Y44249634D01*
G37*
G36*
X107553985Y44249634D02*
G01*
X107591057Y44224863D01*
X107637317Y44234066D01*
X107649985Y44246734D01*
X107651917Y44247252D01*
X107653331Y44245838D01*
X107653062Y44244209D01*
X107636714Y44219742D01*
X107625228Y44162001D01*
X107625228Y42892399D01*
X107636714Y42834658D01*
X107654833Y42807540D01*
X107654964Y42805544D01*
X107653301Y42804433D01*
X107652059Y42804766D01*
X107614990Y42829537D01*
X107568730Y42820335D01*
X107556058Y42807663D01*
X107554126Y42807145D01*
X107552712Y42808559D01*
X107552981Y42810188D01*
X107569331Y42834658D01*
X107580817Y42892399D01*
X107580817Y44162001D01*
X107569331Y44219742D01*
X107551211Y44246860D01*
X107551080Y44248856D01*
X107552743Y44249967D01*
X107553985Y44249634D01*
G37*
G36*
X104303928Y44249634D02*
G01*
X104341000Y44224863D01*
X104387260Y44234066D01*
X104399931Y44246737D01*
X104401863Y44247255D01*
X104403277Y44245841D01*
X104403008Y44244212D01*
X104386658Y44219742D01*
X104375172Y44162001D01*
X104375172Y42892399D01*
X104386658Y42834658D01*
X104404778Y42807540D01*
X104404909Y42805544D01*
X104403246Y42804433D01*
X104402004Y42804766D01*
X104364932Y42829537D01*
X104318672Y42820334D01*
X104306001Y42807663D01*
X104304069Y42807145D01*
X104302655Y42808559D01*
X104302924Y42810188D01*
X104319274Y42834658D01*
X104330760Y42892399D01*
X104330760Y44162001D01*
X104319274Y44219742D01*
X104301154Y44246860D01*
X104301023Y44248856D01*
X104302686Y44249967D01*
X104303928Y44249634D01*
G37*
G36*
X104953940Y44249634D02*
G01*
X104991012Y44224863D01*
X105037272Y44234066D01*
X105049940Y44246734D01*
X105051872Y44247252D01*
X105053286Y44245838D01*
X105053017Y44244209D01*
X105036669Y44219742D01*
X105025183Y44162001D01*
X105025183Y42892399D01*
X105036669Y42834658D01*
X105054788Y42807540D01*
X105054919Y42805544D01*
X105053256Y42804433D01*
X105052014Y42804766D01*
X105014945Y42829537D01*
X104968685Y42820335D01*
X104956013Y42807663D01*
X104954081Y42807145D01*
X104952667Y42808559D01*
X104952936Y42810188D01*
X104969286Y42834658D01*
X104980772Y42892399D01*
X104980772Y44162001D01*
X104969286Y44219742D01*
X104951166Y44246860D01*
X104951035Y44248856D01*
X104952698Y44249967D01*
X104953940Y44249634D01*
G37*
G36*
X106253962Y44249634D02*
G01*
X106291034Y44224863D01*
X106337294Y44234066D01*
X106349965Y44246737D01*
X106351897Y44247255D01*
X106353311Y44245841D01*
X106353042Y44244212D01*
X106336692Y44219742D01*
X106325206Y44162001D01*
X106325206Y42892399D01*
X106336692Y42834658D01*
X106354812Y42807540D01*
X106354943Y42805544D01*
X106353280Y42804433D01*
X106352038Y42804766D01*
X106314966Y42829537D01*
X106268706Y42820334D01*
X106256035Y42807663D01*
X106254103Y42807145D01*
X106252689Y42808559D01*
X106252958Y42810188D01*
X106269308Y42834658D01*
X106280794Y42892399D01*
X106280794Y44162001D01*
X106269308Y44219742D01*
X106251188Y44246860D01*
X106251057Y44248856D01*
X106252720Y44249967D01*
X106253962Y44249634D01*
G37*
G36*
X103003905Y44249634D02*
G01*
X103040977Y44224863D01*
X103087237Y44234066D01*
X103099908Y44246737D01*
X103101840Y44247255D01*
X103103254Y44245841D01*
X103102985Y44244212D01*
X103086635Y44219742D01*
X103075149Y44162001D01*
X103075149Y42892399D01*
X103086635Y42834658D01*
X103104755Y42807540D01*
X103104886Y42805544D01*
X103103223Y42804433D01*
X103101981Y42804766D01*
X103064909Y42829537D01*
X103018649Y42820334D01*
X103005978Y42807663D01*
X103004046Y42807145D01*
X103002632Y42808559D01*
X103002901Y42810188D01*
X103019251Y42834658D01*
X103030737Y42892399D01*
X103030737Y44162001D01*
X103019251Y44219742D01*
X103001131Y44246860D01*
X103001000Y44248856D01*
X103002663Y44249967D01*
X103003905Y44249634D01*
G37*
G36*
X103653917Y44249634D02*
G01*
X103690989Y44224863D01*
X103737249Y44234066D01*
X103749917Y44246734D01*
X103751849Y44247252D01*
X103753263Y44245838D01*
X103752994Y44244209D01*
X103736646Y44219742D01*
X103725160Y44162001D01*
X103725160Y42892399D01*
X103736646Y42834658D01*
X103754765Y42807540D01*
X103754896Y42805544D01*
X103753233Y42804433D01*
X103751991Y42804766D01*
X103714922Y42829537D01*
X103668662Y42820335D01*
X103655990Y42807663D01*
X103654058Y42807145D01*
X103652644Y42808559D01*
X103652913Y42810188D01*
X103669263Y42834658D01*
X103680749Y42892399D01*
X103680749Y44162001D01*
X103669263Y44219742D01*
X103651143Y44246860D01*
X103651012Y44248856D01*
X103652675Y44249967D01*
X103653917Y44249634D01*
G37*
G36*
X108854008Y44249634D02*
G01*
X108891080Y44224863D01*
X108937340Y44234066D01*
X108950008Y44246734D01*
X108951940Y44247252D01*
X108953354Y44245838D01*
X108953085Y44244209D01*
X108936737Y44219742D01*
X108925251Y44162001D01*
X108925251Y42892399D01*
X108936737Y42834658D01*
X108954856Y42807540D01*
X108954987Y42805544D01*
X108953324Y42804433D01*
X108952082Y42804766D01*
X108915013Y42829537D01*
X108868753Y42820335D01*
X108856081Y42807663D01*
X108854149Y42807145D01*
X108852735Y42808559D01*
X108853004Y42810188D01*
X108869354Y42834658D01*
X108880840Y42892399D01*
X108880840Y44162001D01*
X108869354Y44219742D01*
X108851234Y44246860D01*
X108851103Y44248856D01*
X108852766Y44249967D01*
X108854008Y44249634D01*
G37*
G36*
X102353894Y44249634D02*
G01*
X102390966Y44224863D01*
X102437226Y44234066D01*
X102449894Y44246734D01*
X102451826Y44247252D01*
X102453240Y44245838D01*
X102452971Y44244209D01*
X102436623Y44219742D01*
X102425137Y44162001D01*
X102425137Y42892399D01*
X102436623Y42834658D01*
X102454742Y42807540D01*
X102454873Y42805544D01*
X102453210Y42804433D01*
X102451968Y42804766D01*
X102414899Y42829537D01*
X102368639Y42820335D01*
X102355967Y42807663D01*
X102354035Y42807145D01*
X102352621Y42808559D01*
X102352890Y42810188D01*
X102369240Y42834658D01*
X102380726Y42892399D01*
X102380726Y44162001D01*
X102369240Y44219742D01*
X102351120Y44246860D01*
X102350989Y44248856D01*
X102352652Y44249967D01*
X102353894Y44249634D01*
G37*
G36*
X108203996Y44249634D02*
G01*
X108241068Y44224863D01*
X108287328Y44234066D01*
X108299999Y44246737D01*
X108301931Y44247255D01*
X108303345Y44245841D01*
X108303076Y44244212D01*
X108286726Y44219742D01*
X108275240Y44162001D01*
X108275240Y42892399D01*
X108286726Y42834658D01*
X108304846Y42807540D01*
X108304977Y42805544D01*
X108303314Y42804433D01*
X108302072Y42804766D01*
X108265000Y42829537D01*
X108218740Y42820334D01*
X108206069Y42807663D01*
X108204137Y42807145D01*
X108202723Y42808559D01*
X108202992Y42810188D01*
X108219342Y42834658D01*
X108230828Y42892399D01*
X108230828Y44162001D01*
X108219342Y44219742D01*
X108201222Y44246860D01*
X108201091Y44248856D01*
X108202754Y44249967D01*
X108203996Y44249634D01*
G37*
G36*
X9020184Y43763680D02*
G01*
X9019851Y43762438D01*
X8995080Y43725366D01*
X9004283Y43679106D01*
X9016954Y43666435D01*
X9017472Y43664503D01*
X9016058Y43663089D01*
X9014429Y43663358D01*
X8993542Y43677314D01*
X8935801Y43688800D01*
X8336199Y43688800D01*
X8278458Y43677314D01*
X8254923Y43661588D01*
X8252927Y43661457D01*
X8251816Y43663120D01*
X8252149Y43664362D01*
X8276920Y43701434D01*
X8267717Y43747694D01*
X8255046Y43760365D01*
X8254528Y43762297D01*
X8255942Y43763711D01*
X8257571Y43763442D01*
X8278458Y43749486D01*
X8336199Y43738000D01*
X8935801Y43738000D01*
X8993542Y43749486D01*
X9017077Y43765212D01*
X9019073Y43765343D01*
X9020184Y43763680D01*
G37*
G36*
X166744483Y44958486D02*
G01*
X167034937Y44900710D01*
X167036441Y44899391D01*
X167036051Y44897429D01*
X167034937Y44896786D01*
X166988432Y44887538D01*
X166962351Y44848507D01*
X166971523Y44802391D01*
X167002908Y44778309D01*
X167003673Y44776461D01*
X167002455Y44774874D01*
X167001142Y44774799D01*
X166798252Y44832594D01*
X166566087Y44865635D01*
X166564513Y44866869D01*
X166564795Y44868849D01*
X166566500Y44869611D01*
X166630109Y44865442D01*
X166674968Y44880670D01*
X166695731Y44922772D01*
X166680593Y44967365D01*
X166654261Y44984959D01*
X166653376Y44986753D01*
X166654487Y44988416D01*
X166656015Y44988516D01*
X166744483Y44958486D01*
G37*
G36*
X9020184Y60527680D02*
G01*
X9019851Y60526438D01*
X8995080Y60489366D01*
X9004283Y60443106D01*
X9016954Y60430435D01*
X9017472Y60428503D01*
X9016058Y60427089D01*
X9014429Y60427358D01*
X8993542Y60441314D01*
X8935801Y60452800D01*
X8336199Y60452800D01*
X8278458Y60441314D01*
X8254923Y60425588D01*
X8252927Y60425457D01*
X8251816Y60427120D01*
X8252149Y60428362D01*
X8276920Y60465434D01*
X8267717Y60511694D01*
X8255046Y60524365D01*
X8254528Y60526297D01*
X8255942Y60527711D01*
X8257571Y60527442D01*
X8278458Y60513486D01*
X8336199Y60502000D01*
X8935801Y60502000D01*
X8993542Y60513486D01*
X9017077Y60529212D01*
X9019073Y60529343D01*
X9020184Y60527680D01*
G37*
G36*
X86983636Y86166440D02*
G01*
X86983670Y86164833D01*
X86928388Y86031367D01*
X86908117Y85877400D01*
X86928388Y85723433D01*
X86981333Y85595611D01*
X86981072Y85593628D01*
X86979224Y85592863D01*
X86977825Y85593730D01*
X86966550Y85610509D01*
X86927091Y85636725D01*
X86880968Y85627425D01*
X86858110Y85599199D01*
X86833716Y85538515D01*
X86833484Y85538094D01*
X86830824Y85534392D01*
X86829001Y85533569D01*
X86827377Y85534736D01*
X86827352Y85536324D01*
X86883812Y85672633D01*
X86904083Y85826600D01*
X86883812Y85980567D01*
X86829700Y86111207D01*
X86829961Y86113190D01*
X86831809Y86113955D01*
X86833196Y86113105D01*
X86842696Y86099283D01*
X86844466Y86099422D01*
X86845063Y86098986D01*
X86871346Y86070994D01*
X86918234Y86069518D01*
X86954042Y86104951D01*
X86975494Y86159971D01*
X86975721Y86160394D01*
X86980186Y86166748D01*
X86982000Y86167590D01*
X86983636Y86166440D01*
G37*
M02*
