%TF.GenerationSoftware,KiCad,Pcbnew,(6.0.8)*%
%TF.CreationDate,2022-11-13T10:48:25-05:00*%
%TF.ProjectId,Top_Level,546f705f-4c65-4766-956c-2e6b69636164,rev?*%
%TF.SameCoordinates,PX33ef500PY821a7e8*%
%TF.FileFunction,Copper,L1,Top*%
%TF.FilePolarity,Positive*%
%FSLAX46Y46*%
G04 Gerber Fmt 4.6, Leading zero omitted, Abs format (unit mm)*
G04 Created by KiCad (PCBNEW (6.0.8)) date 2022-11-13 10:48:25*
%MOMM*%
%LPD*%
G01*
G04 APERTURE LIST*
%TA.AperFunction,Profile*%
%ADD10C,0.304800*%
%TD*%
%TA.AperFunction,SMDPad,CuDef*%
%ADD11R,0.800000X0.655600*%
%TD*%
%TA.AperFunction,SMDPad,CuDef*%
%ADD12R,0.800000X1.600000*%
%TD*%
%TA.AperFunction,SMDPad,CuDef*%
%ADD13R,1.600000X2.450000*%
%TD*%
%TA.AperFunction,SMDPad,CuDef*%
%ADD14R,1.498600X3.911600*%
%TD*%
%TA.AperFunction,ComponentPad*%
%ADD15C,1.400000*%
%TD*%
%TA.AperFunction,ComponentPad*%
%ADD16C,2.800000*%
%TD*%
%TA.AperFunction,SMDPad,CuDef*%
%ADD17R,2.720000X1.020000*%
%TD*%
%TA.AperFunction,SMDPad,CuDef*%
%ADD18R,1.400000X1.050000*%
%TD*%
%TA.AperFunction,ComponentPad*%
%ADD19C,2.100000*%
%TD*%
%TA.AperFunction,SMDPad,CuDef*%
%ADD20R,2.641600X1.193800*%
%TD*%
%TA.AperFunction,SMDPad,CuDef*%
%ADD21R,0.700000X1.300000*%
%TD*%
%TA.AperFunction,SMDPad,CuDef*%
%ADD22R,0.711200X0.330200*%
%TD*%
%TA.AperFunction,SMDPad,CuDef*%
%ADD23R,1.570000X2.820000*%
%TD*%
%TA.AperFunction,SMDPad,CuDef*%
%ADD24R,0.330200X0.711200*%
%TD*%
%TA.AperFunction,SMDPad,CuDef*%
%ADD25R,0.655600X0.800000*%
%TD*%
%TA.AperFunction,ComponentPad*%
%ADD26C,1.600000*%
%TD*%
%TA.AperFunction,SMDPad,CuDef*%
%ADD27R,3.350000X1.250000*%
%TD*%
%TA.AperFunction,ComponentPad*%
%ADD28C,1.066800*%
%TD*%
%TA.AperFunction,SMDPad,CuDef*%
%ADD29R,1.400000X1.000000*%
%TD*%
%TA.AperFunction,ComponentPad*%
%ADD30R,2.025000X2.025000*%
%TD*%
%TA.AperFunction,ComponentPad*%
%ADD31C,2.025000*%
%TD*%
%TA.AperFunction,SMDPad,CuDef*%
%ADD32R,1.000000X1.400000*%
%TD*%
%TA.AperFunction,SMDPad,CuDef*%
%ADD33R,15.000000X15.000000*%
%TD*%
%TA.AperFunction,ComponentPad*%
%ADD34R,1.700000X1.700000*%
%TD*%
%TA.AperFunction,ComponentPad*%
%ADD35O,1.700000X1.700000*%
%TD*%
%TA.AperFunction,SMDPad,CuDef*%
%ADD36R,0.355600X1.676400*%
%TD*%
%TA.AperFunction,SMDPad,CuDef*%
%ADD37R,1.250000X3.350000*%
%TD*%
%TA.AperFunction,SMDPad,CuDef*%
%ADD38R,3.500000X1.600000*%
%TD*%
%TA.AperFunction,SMDPad,CuDef*%
%ADD39R,0.750000X0.600000*%
%TD*%
%TA.AperFunction,SMDPad,CuDef*%
%ADD40R,1.600000X0.800000*%
%TD*%
%TA.AperFunction,SMDPad,CuDef*%
%ADD41R,1.200000X1.200000*%
%TD*%
%TA.AperFunction,ComponentPad*%
%ADD42C,1.350000*%
%TD*%
%TA.AperFunction,ComponentPad*%
%ADD43O,1.600000X1.600000*%
%TD*%
%TA.AperFunction,ComponentPad*%
%ADD44C,5.040000*%
%TD*%
%TA.AperFunction,ComponentPad*%
%ADD45C,4.065000*%
%TD*%
%TA.AperFunction,ComponentPad*%
%ADD46C,4.335000*%
%TD*%
%TA.AperFunction,ComponentPad*%
%ADD47C,1.800000*%
%TD*%
%TA.AperFunction,SMDPad,CuDef*%
%ADD48R,1.016000X2.692400*%
%TD*%
%TA.AperFunction,SMDPad,CuDef*%
%ADD49R,10.464800X10.871200*%
%TD*%
%TA.AperFunction,ComponentPad*%
%ADD50C,1.524000*%
%TD*%
%TA.AperFunction,SMDPad,CuDef*%
%ADD51R,0.600000X0.750000*%
%TD*%
%TA.AperFunction,SMDPad,CuDef*%
%ADD52R,0.304800X1.270000*%
%TD*%
%TA.AperFunction,SMDPad,CuDef*%
%ADD53R,5.000000X2.540000*%
%TD*%
%TA.AperFunction,SMDPad,CuDef*%
%ADD54R,1.020000X2.720000*%
%TD*%
%TA.AperFunction,SMDPad,CuDef*%
%ADD55R,1.525000X0.700000*%
%TD*%
%TA.AperFunction,SMDPad,CuDef*%
%ADD56R,2.400000X3.200000*%
%TD*%
%TA.AperFunction,SMDPad,CuDef*%
%ADD57R,5.000000X11.912600*%
%TD*%
%TA.AperFunction,ComponentPad*%
%ADD58C,1.422400*%
%TD*%
%TA.AperFunction,ComponentPad*%
%ADD59C,2.768600*%
%TD*%
%TA.AperFunction,SMDPad,CuDef*%
%ADD60R,2.971800X0.558800*%
%TD*%
%TA.AperFunction,SMDPad,CuDef*%
%ADD61R,3.300000X2.450000*%
%TD*%
%TA.AperFunction,SMDPad,CuDef*%
%ADD62R,0.950000X0.750000*%
%TD*%
%TA.AperFunction,SMDPad,CuDef*%
%ADD63R,1.070000X2.160000*%
%TD*%
%TA.AperFunction,SMDPad,CuDef*%
%ADD64R,10.800000X1.910000*%
%TD*%
%TA.AperFunction,SMDPad,CuDef*%
%ADD65R,8.330000X5.080000*%
%TD*%
%TA.AperFunction,SMDPad,CuDef*%
%ADD66R,4.000000X5.308600*%
%TD*%
%TA.AperFunction,SMDPad,CuDef*%
%ADD67R,0.558800X1.016000*%
%TD*%
%TA.AperFunction,ViaPad*%
%ADD68C,1.143000*%
%TD*%
%TA.AperFunction,ViaPad*%
%ADD69C,1.500000*%
%TD*%
%TA.AperFunction,ViaPad*%
%ADD70C,0.889000*%
%TD*%
%TA.AperFunction,ViaPad*%
%ADD71C,1.000000*%
%TD*%
%TA.AperFunction,ViaPad*%
%ADD72C,1.270000*%
%TD*%
%TA.AperFunction,ViaPad*%
%ADD73C,0.900000*%
%TD*%
%TA.AperFunction,ViaPad*%
%ADD74C,1.524000*%
%TD*%
%TA.AperFunction,ViaPad*%
%ADD75C,0.914400*%
%TD*%
%TA.AperFunction,ViaPad*%
%ADD76C,1.016000*%
%TD*%
%TA.AperFunction,Conductor*%
%ADD77C,0.250000*%
%TD*%
%TA.AperFunction,Conductor*%
%ADD78C,1.016000*%
%TD*%
%TA.AperFunction,Conductor*%
%ADD79C,1.000000*%
%TD*%
%TA.AperFunction,Conductor*%
%ADD80C,0.508000*%
%TD*%
%TA.AperFunction,Conductor*%
%ADD81C,2.032000*%
%TD*%
%TA.AperFunction,Conductor*%
%ADD82C,2.286000*%
%TD*%
%TA.AperFunction,Conductor*%
%ADD83C,1.524000*%
%TD*%
%TA.AperFunction,Conductor*%
%ADD84C,1.270000*%
%TD*%
%TA.AperFunction,Conductor*%
%ADD85C,0.889000*%
%TD*%
%TA.AperFunction,Conductor*%
%ADD86C,0.400000*%
%TD*%
%TA.AperFunction,Conductor*%
%ADD87C,0.600000*%
%TD*%
%TA.AperFunction,Conductor*%
%ADD88C,0.381000*%
%TD*%
%TA.AperFunction,Conductor*%
%ADD89C,0.762000*%
%TD*%
G04 APERTURE END LIST*
D10*
X0Y25400D02*
X173990000Y25400D01*
X173990000Y25400D02*
X173990000Y97815400D01*
X173990000Y97815400D02*
X0Y97815400D01*
X0Y97815400D02*
X0Y25400D01*
D11*
%TO.P,C33,1*%
%TO.N,GND*%
X38582600Y81392000D03*
%TO.P,C33,2*%
%TO.N,Net-(C33-Pad2)*%
X38582600Y83047600D03*
%TD*%
D12*
%TO.P,R64,1*%
%TO.N,Net-(J16-Pad4)*%
X15571904Y80300856D03*
%TO.P,R64,2*%
%TO.N,GND*%
X17971904Y80300856D03*
%TD*%
D13*
%TO.P,D3,1*%
%TO.N,Net-(D3-Pad1)*%
X153390600Y26831400D03*
%TO.P,D3,2*%
%TO.N,GND*%
X153390600Y31131400D03*
%TD*%
D14*
%TO.P,C36,1*%
%TO.N,+24V*%
X156616400Y85782150D03*
%TO.P,C36,2*%
%TO.N,GND*%
X156616400Y94875350D03*
%TD*%
D15*
%TO.P,JP13,1,A*%
%TO.N,+3.3V*%
X105156000Y21067400D03*
%TO.P,JP13,2,B*%
%TO.N,Net-(JP13-Pad2)*%
X105156000Y18527400D03*
%TD*%
D16*
%TO.P,TP14,1,1*%
%TO.N,Net-(C30-Pad1)*%
X148996400Y75463400D03*
%TD*%
D17*
%TO.P,C32,1*%
%TO.N,GND*%
X100076000Y11175400D03*
%TO.P,C32,2*%
%TO.N,Net-(C32-Pad2)*%
X100076000Y13975400D03*
%TD*%
D18*
%TO.P,R12,1*%
%TO.N,Net-(IC2-Pad12)*%
X99872800Y45273000D03*
%TO.P,R12,2*%
%TO.N,GND*%
X99872800Y43373000D03*
%TD*%
D12*
%TO.P,R51,1*%
%TO.N,Net-(C32-Pad2)*%
X102659000Y14408400D03*
%TO.P,R51,2*%
%TO.N,Net-(JP13-Pad2)*%
X105059000Y14408400D03*
%TD*%
D16*
%TO.P,TP16,1,1*%
%TO.N,MAG_IN1*%
X136550400Y78257400D03*
%TD*%
D19*
%TO.P,J8,1,1*%
%TO.N,GND*%
X76482000Y4831400D03*
%TO.P,J8,2,2*%
%TO.N,Net-(J8-Pad2)*%
X79982000Y4831400D03*
%TD*%
D16*
%TO.P,TP17,1,1*%
%TO.N,MAG_IN2*%
X141630400Y78003400D03*
%TD*%
D20*
%TO.P,R2,1*%
%TO.N,GND*%
X50990500Y52959000D03*
%TO.P,R2,2*%
%TO.N,Net-(IC1-Pad6)*%
X50990500Y48285400D03*
%TD*%
D12*
%TO.P,R78,1*%
%TO.N,Net-(C38-Pad2)*%
X46172000Y14408400D03*
%TO.P,R78,2*%
%TO.N,Net-(JP18-Pad2)*%
X48572000Y14408400D03*
%TD*%
D21*
%TO.P,R37,1*%
%TO.N,Net-(C19-Pad1)*%
X74234682Y48564300D03*
%TO.P,R37,2*%
%TO.N,Net-(C23-Pad1)*%
X76134682Y48564300D03*
%TD*%
D19*
%TO.P,J9,1,1*%
%TO.N,GND*%
X110518000Y4831400D03*
%TO.P,J9,2,2*%
%TO.N,Net-(J9-Pad2)*%
X114018000Y4831400D03*
%TD*%
D22*
%TO.P,U8,1,1*%
%TO.N,GND*%
X11747500Y21107400D03*
%TO.P,U8,2,2*%
%TO.N,COLOR_OUT*%
X13144500Y21107400D03*
%TD*%
D23*
%TO.P,F1,1,1*%
%TO.N,Net-(F1-Pad1)*%
X169450400Y31249400D03*
%TO.P,F1,2,2*%
%TO.N,+24V*%
X159530400Y31249400D03*
%TO.P,F1,3,3*%
X159530400Y25189400D03*
%TO.P,F1,4,4*%
%TO.N,Net-(F1-Pad1)*%
X169450400Y25189400D03*
%TD*%
D16*
%TO.P,TP5,1,1*%
%TO.N,Z_ENABLE*%
X96342200Y29748800D03*
%TD*%
D19*
%TO.P,J2,1,1*%
%TO.N,/Electromagnet1/OUT1*%
X166268400Y89433400D03*
%TO.P,J2,2,2*%
%TO.N,/Electromagnet1/OUT2*%
X169768400Y89433400D03*
%TD*%
D24*
%TO.P,U17,1,1*%
%TO.N,GND*%
X29337000Y11244900D03*
%TO.P,U17,2,2*%
%TO.N,NEXT_TURN_OUT*%
X29337000Y12641900D03*
%TD*%
D22*
%TO.P,U2,1,1*%
%TO.N,GND*%
X121221500Y18801400D03*
%TO.P,U2,2,2*%
%TO.N,U3TX*%
X119824500Y18801400D03*
%TD*%
D14*
%TO.P,C30,1*%
%TO.N,Net-(C30-Pad1)*%
X142925800Y70332600D03*
%TO.P,C30,2*%
%TO.N,GND*%
X142925800Y61239400D03*
%TD*%
D24*
%TO.P,U13,1,1*%
%TO.N,GND*%
X40643967Y82891067D03*
%TO.P,U13,2,2*%
%TO.N,Net-(JP15-Pad2)*%
X40643967Y81494067D03*
%TD*%
D15*
%TO.P,JP19,1,A*%
%TO.N,+3.3V*%
X71247000Y21067400D03*
%TO.P,JP19,2,B*%
%TO.N,Net-(JP19-Pad2)*%
X71247000Y18527400D03*
%TD*%
D21*
%TO.P,R9,1*%
%TO.N,Net-(C10-Pad2)*%
X111802722Y49003212D03*
%TO.P,R9,2*%
%TO.N,Net-(C11-Pad1)*%
X113702722Y49003212D03*
%TD*%
D25*
%TO.P,C25,1*%
%TO.N,+24V*%
X142077200Y21793200D03*
%TO.P,C25,2*%
%TO.N,GND*%
X140421600Y21793200D03*
%TD*%
D16*
%TO.P,TP12,1,1*%
%TO.N,GND*%
X22783800Y9855200D03*
%TD*%
D26*
%TO.P,C28,1*%
%TO.N,+24V*%
X142087600Y16586200D03*
%TO.P,C28,2*%
%TO.N,GND*%
X139587600Y16586200D03*
%TD*%
D27*
%TO.P,R24,1*%
%TO.N,Net-(C14-Pad2)*%
X16129000Y45265400D03*
%TO.P,R24,2*%
%TO.N,RESET_OUT*%
X16129000Y51265400D03*
%TD*%
D28*
%TO.P,C6,1,1*%
%TO.N,Net-(C6-Pad1)*%
X57480200Y42189400D03*
%TO.P,C6,2,2*%
%TO.N,Net-(C6-Pad2)*%
X57480200Y47269400D03*
%TD*%
D29*
%TO.P,R57,1*%
%TO.N,Net-(JP16-Pad2)*%
X91998800Y75859600D03*
%TO.P,R57,2*%
%TO.N,Net-(C34-Pad2)*%
X91998800Y77759600D03*
%TD*%
D24*
%TO.P,U12,1,1*%
%TO.N,GND*%
X96774000Y11244900D03*
%TO.P,U12,2,2*%
%TO.N,LS_X_OUT*%
X96774000Y12641900D03*
%TD*%
D12*
%TO.P,R65,1*%
%TO.N,Net-(J17-Pad4)*%
X127996677Y78237400D03*
%TO.P,R65,2*%
%TO.N,GND*%
X130396677Y78237400D03*
%TD*%
D30*
%TO.P,J15,1,1*%
%TO.N,Net-(J15-Pad1)*%
X111480600Y93776800D03*
D31*
%TO.P,J15,2,2*%
%TO.N,Net-(J15-Pad2)*%
X107670600Y93776800D03*
%TO.P,J15,3,3*%
%TO.N,Net-(J15-Pad3)*%
X103860600Y93776800D03*
%TO.P,J15,4,4*%
%TO.N,Net-(J15-Pad4)*%
X100050600Y93776800D03*
%TD*%
D32*
%TO.P,R54,1*%
%TO.N,LED_G*%
X31369000Y26421400D03*
%TO.P,R54,2*%
%TO.N,Net-(LED1-Pad4)*%
X29469000Y26421400D03*
%TD*%
D30*
%TO.P,J16,1,1*%
%TO.N,Net-(J16-Pad1)*%
X4640753Y84716514D03*
D31*
%TO.P,J16,2,2*%
%TO.N,Net-(J16-Pad2)*%
X8450753Y84716514D03*
%TO.P,J16,3,3*%
%TO.N,Net-(J16-Pad3)*%
X12260753Y84716514D03*
%TO.P,J16,4,4*%
%TO.N,Net-(J16-Pad4)*%
X16070753Y84716514D03*
%TD*%
D20*
%TO.P,R38,1*%
%TO.N,GND*%
X71120682Y53187100D03*
%TO.P,R38,2*%
%TO.N,Net-(IC3-Pad6)*%
X71120682Y48513500D03*
%TD*%
D33*
%TO.P,HS1,1*%
%TO.N,GND*%
X125349000Y44983400D03*
%TD*%
D28*
%TO.P,C24,1,1*%
%TO.N,Net-(C24-Pad1)*%
X82524600Y42849800D03*
%TO.P,C24,2,2*%
%TO.N,Net-(C24-Pad2)*%
X82524600Y47929800D03*
%TD*%
D22*
%TO.P,U5,1,1*%
%TO.N,GND*%
X8864600Y67328100D03*
%TO.P,U5,2,2*%
%TO.N,HOME_OUT*%
X10261600Y67328100D03*
%TD*%
D15*
%TO.P,JP11,1,A*%
%TO.N,+5V*%
X135026400Y61767400D03*
%TO.P,JP11,2,B*%
%TO.N,Net-(C30-Pad1)*%
X135026400Y64307400D03*
%TD*%
D20*
%TO.P,R11,1*%
%TO.N,GND*%
X105384600Y53594000D03*
%TO.P,R11,2*%
%TO.N,Net-(IC2-Pad9)*%
X105384600Y48920400D03*
%TD*%
D34*
%TO.P,J5-J1,1,Pin_1*%
%TO.N,/MSP432E401Y/+5_2V*%
X105029000Y27203400D03*
D35*
%TO.P,J5-J1,2,Pin_2*%
%TO.N,+3.3V*%
X105029000Y24663400D03*
%TO.P,J5-J1,3,Pin_3*%
%TO.N,GND*%
X107569000Y27203400D03*
%TO.P,J5-J1,4,Pin_4*%
%TO.N,X_HOME*%
X107569000Y24663400D03*
%TO.P,J5-J1,5,Pin_5*%
%TO.N,Z_FAULT*%
X110109000Y27203400D03*
%TO.P,J5-J1,6,Pin_6*%
%TO.N,/MSP432E401Y/PP_0*%
X110109000Y24663400D03*
%TO.P,J5-J1,7,Pin_7*%
%TO.N,Z_HOME*%
X112649000Y27203400D03*
%TO.P,J5-J1,8,Pin_8*%
%TO.N,CAPTURE_OUT*%
X112649000Y24663400D03*
%TO.P,J5-J1,9,Pin_9*%
%TO.N,LS_Z_OUT*%
X115189000Y27203400D03*
%TO.P,J5-J1,10,Pin_10*%
%TO.N,/MSP432E401Y/PD_4*%
X115189000Y24663400D03*
%TO.P,J5-J1,11,Pin_11*%
%TO.N,LS_Y_OUT*%
X117729000Y27203400D03*
%TO.P,J5-J1,12,Pin_12*%
%TO.N,/MSP432E401Y/PD_5*%
X117729000Y24663400D03*
%TO.P,J5-J1,13,Pin_13*%
%TO.N,LS_X_OUT*%
X120269000Y27203400D03*
%TO.P,J5-J1,14,Pin_14*%
%TO.N,/MSP432E401Y/PQ_0*%
X120269000Y24663400D03*
%TO.P,J5-J1,15,Pin_15*%
%TO.N,/MSP432E401Y/PK_3*%
X122809000Y27203400D03*
%TO.P,J5-J1,16,Pin_16*%
%TO.N,Z_DIR*%
X122809000Y24663400D03*
%TO.P,J5-J1,17,Pin_17*%
%TO.N,U3RX*%
X125349000Y27203400D03*
%TO.P,J5-J1,18,Pin_18*%
%TO.N,Z_ENABLE*%
X125349000Y24663400D03*
%TO.P,J5-J1,19,Pin_19*%
%TO.N,U3TX*%
X127889000Y27203400D03*
%TO.P,J5-J1,20,Pin_20*%
%TO.N,Z_STEP*%
X127889000Y24663400D03*
%TD*%
D27*
%TO.P,R33,1*%
%TO.N,Net-(C17-Pad2)*%
X18161000Y15567400D03*
%TO.P,R33,2*%
%TO.N,COLOR_OUT*%
X18161000Y21567400D03*
%TD*%
D17*
%TO.P,C16,1*%
%TO.N,GND*%
X76962000Y11175400D03*
%TO.P,C16,2*%
%TO.N,Net-(C16-Pad2)*%
X76962000Y13975400D03*
%TD*%
D30*
%TO.P,J17,1,1*%
%TO.N,Net-(J17-Pad1)*%
X117545463Y82946400D03*
D31*
%TO.P,J17,2,2*%
%TO.N,Net-(J17-Pad2)*%
X121355463Y82946400D03*
%TO.P,J17,3,3*%
%TO.N,Net-(J17-Pad3)*%
X125165463Y82946400D03*
%TO.P,J17,4,4*%
%TO.N,Net-(J17-Pad4)*%
X128975463Y82946400D03*
%TD*%
D30*
%TO.P,J3,1,1*%
%TO.N,/StepperDriver1/2B*%
X61375400Y92365600D03*
D31*
%TO.P,J3,2,2*%
%TO.N,/StepperDriver1/2A*%
X65185400Y92365600D03*
%TO.P,J3,3,3*%
%TO.N,/StepperDriver1/1B*%
X68995400Y92365600D03*
%TO.P,J3,4,4*%
%TO.N,/StepperDriver1/1A*%
X72805400Y92365600D03*
%TD*%
D24*
%TO.P,U3,1,1*%
%TO.N,GND*%
X85991700Y11244900D03*
%TO.P,U3,2,2*%
%TO.N,LS_Y_OUT*%
X85991700Y12641900D03*
%TD*%
D19*
%TO.P,J23,1,1*%
%TO.N,GND*%
X54178000Y4831400D03*
%TO.P,J23,2,2*%
%TO.N,Net-(J23-Pad2)*%
X57678000Y4831400D03*
%TD*%
D27*
%TO.P,R49,1*%
%TO.N,Net-(C31-Pad2)*%
X16129000Y29537400D03*
%TO.P,R49,2*%
%TO.N,START_OUT*%
X16129000Y35537400D03*
%TD*%
D19*
%TO.P,J24,1,1*%
%TO.N,Net-(J24-Pad1)*%
X76990000Y71894800D03*
%TO.P,J24,2,2*%
%TO.N,Net-(J24-Pad2)*%
X80490000Y71894800D03*
%TD*%
D36*
%TO.P,U16,1,Y4*%
%TO.N,Net-(J15-Pad1)*%
X96204199Y86436200D03*
%TO.P,U16,2,Y6*%
%TO.N,Net-(J15-Pad2)*%
X95554201Y86436200D03*
%TO.P,U16,3,COM*%
%TO.N,Net-(C34-Pad2)*%
X94904199Y86436200D03*
%TO.P,U16,4,Y7*%
%TO.N,Net-(J15-Pad3)*%
X94254201Y86436200D03*
%TO.P,U16,5,Y5*%
%TO.N,Net-(J15-Pad4)*%
X93604202Y86436200D03*
%TO.P,U16,6,INH*%
%TO.N,GND*%
X92954201Y86436200D03*
%TO.P,U16,7,GND*%
X92304202Y86436200D03*
%TO.P,U16,8,GND*%
X91654201Y86436200D03*
%TO.P,U16,9,C*%
%TO.N,MUX_S2*%
X91654201Y80797400D03*
%TO.P,U16,10,B*%
%TO.N,MUX_S1*%
X92304199Y80797400D03*
%TO.P,U16,11,A*%
%TO.N,MUX_S0*%
X92954201Y80797400D03*
%TO.P,U16,12,Y3*%
%TO.N,Net-(J14-Pad4)*%
X93604199Y80797400D03*
%TO.P,U16,13,Y0*%
%TO.N,Net-(J14-Pad3)*%
X94254198Y80797400D03*
%TO.P,U16,14,Y1*%
%TO.N,Net-(J14-Pad2)*%
X94904199Y80797400D03*
%TO.P,U16,15,Y2*%
%TO.N,Net-(J14-Pad1)*%
X95554198Y80797400D03*
%TO.P,U16,16,VCC*%
%TO.N,Net-(C34-Pad2)*%
X96204199Y80797400D03*
%TD*%
D12*
%TO.P,R71,1*%
%TO.N,Net-(J19-Pad3)*%
X107292463Y78237400D03*
%TO.P,R71,2*%
%TO.N,GND*%
X109692463Y78237400D03*
%TD*%
%TO.P,R66,1*%
%TO.N,Net-(J18-Pad1)*%
X19878516Y80300856D03*
%TO.P,R66,2*%
%TO.N,GND*%
X22278516Y80300856D03*
%TD*%
D17*
%TO.P,C13,1*%
%TO.N,GND*%
X88900000Y11175400D03*
%TO.P,C13,2*%
%TO.N,Net-(C13-Pad2)*%
X88900000Y13975400D03*
%TD*%
D11*
%TO.P,C35,1*%
%TO.N,+24V*%
X160172400Y80477600D03*
%TO.P,C35,2*%
%TO.N,GND*%
X160172400Y82133200D03*
%TD*%
D28*
%TO.P,C9,1,1*%
%TO.N,Net-(C10-Pad2)*%
X110490000Y61798200D03*
%TO.P,C9,2,2*%
%TO.N,GND*%
X105410000Y61798200D03*
%TD*%
D26*
%TO.P,C27,1*%
%TO.N,+24V*%
X155620400Y54381400D03*
%TO.P,C27,2*%
%TO.N,GND*%
X158120400Y54381400D03*
%TD*%
D12*
%TO.P,R75,1*%
%TO.N,Net-(C37-Pad2)*%
X35069600Y14377600D03*
%TO.P,R75,2*%
%TO.N,Net-(JP17-Pad2)*%
X37469600Y14377600D03*
%TD*%
D37*
%TO.P,R85,1*%
%TO.N,Net-(C40-Pad2)*%
X57892000Y19309400D03*
%TO.P,R85,2*%
%TO.N,FP_1_OUT*%
X51892000Y19309400D03*
%TD*%
D34*
%TO.P,J4-J1,1,Pin_1*%
%TO.N,GND*%
X41529000Y70383400D03*
D35*
%TO.P,J4-J1,2,Pin_2*%
%TO.N,RESET_OUT*%
X41529000Y67843400D03*
%TO.P,J4-J1,3,Pin_3*%
%TO.N,HOME_OUT*%
X44069000Y70383400D03*
%TO.P,J4-J1,4,Pin_4*%
%TO.N,START_OUT*%
X44069000Y67843400D03*
%TO.P,J4-J1,5,Pin_5*%
%TO.N,/MSP432E401Y/PH_2*%
X46609000Y70383400D03*
%TO.P,J4-J1,6,Pin_6*%
%TO.N,Y_HOME*%
X46609000Y67843400D03*
%TO.P,J4-J1,7,Pin_7*%
%TO.N,/MSP432E401Y/PH_3*%
X49149000Y70383400D03*
%TO.P,J4-J1,8,Pin_8*%
%TO.N,Y_FAULT*%
X49149000Y67843400D03*
%TO.P,J4-J1,9,Pin_9*%
%TO.N,/MSP432E401Y/RST_2*%
X51689000Y70383400D03*
%TO.P,J4-J1,10,Pin_10*%
%TO.N,/MSP432E401Y/PL_4*%
X51689000Y67843400D03*
%TO.P,J4-J1,11,Pin_11*%
%TO.N,DEMUX_S0*%
X54229000Y70383400D03*
%TO.P,J4-J1,12,Pin_12*%
%TO.N,/MSP432E401Y/PL_5*%
X54229000Y67843400D03*
%TO.P,J4-J1,13,Pin_13*%
%TO.N,DEMUX_S1*%
X56769000Y70383400D03*
%TO.P,J4-J1,14,Pin_14*%
%TO.N,/MSP432E401Y/PL_0*%
X56769000Y67843400D03*
%TO.P,J4-J1,15,Pin_15*%
%TO.N,DEMUX_S2*%
X59309000Y70383400D03*
%TO.P,J4-J1,16,Pin_16*%
%TO.N,/MSP432E401Y/PL_1*%
X59309000Y67843400D03*
%TO.P,J4-J1,17,Pin_17*%
%TO.N,SIGNAL_LIGHT*%
X61849000Y70383400D03*
%TO.P,J4-J1,18,Pin_18*%
%TO.N,/MSP432E401Y/PL_2*%
X61849000Y67843400D03*
%TO.P,J4-J1,19,Pin_19*%
%TO.N,/MSP432E401Y/PP_2*%
X64389000Y70383400D03*
%TO.P,J4-J1,20,Pin_20*%
%TO.N,/MSP432E401Y/PL_3*%
X64389000Y67843400D03*
%TD*%
D22*
%TO.P,U4,1,1*%
%TO.N,GND*%
X8864600Y51072100D03*
%TO.P,U4,2,2*%
%TO.N,RESET_OUT*%
X10261600Y51072100D03*
%TD*%
D38*
%TO.P,C2,1*%
%TO.N,GND*%
X41592500Y39668200D03*
%TO.P,C2,2*%
%TO.N,Net-(C2-Pad2)*%
X41592500Y35668200D03*
%TD*%
D15*
%TO.P,JP3,1,A*%
%TO.N,+3.3V*%
X94234000Y21067400D03*
%TO.P,JP3,2,B*%
%TO.N,Net-(JP3-Pad2)*%
X94234000Y18527400D03*
%TD*%
D22*
%TO.P,U11,1,1*%
%TO.N,GND*%
X8699500Y34823400D03*
%TO.P,U11,2,2*%
%TO.N,START_OUT*%
X10096500Y34823400D03*
%TD*%
D34*
%TO.P,J1-J1,1,Pin_1*%
%TO.N,/MSP432E401Y/+5_1V*%
X41529000Y27203400D03*
D35*
%TO.P,J1-J1,2,Pin_2*%
%TO.N,+3.3V*%
X41529000Y24663400D03*
%TO.P,J1-J1,3,Pin_3*%
%TO.N,GND*%
X44069000Y27203400D03*
%TO.P,J1-J1,4,Pin_4*%
%TO.N,LED_G*%
X44069000Y24663400D03*
%TO.P,J1-J1,5,Pin_5*%
%TO.N,XYZ_RESET*%
X46609000Y27203400D03*
%TO.P,J1-J1,6,Pin_6*%
%TO.N,LED_R*%
X46609000Y24663400D03*
%TO.P,J1-J1,7,Pin_7*%
%TO.N,XYZ_DECAY*%
X49149000Y27203400D03*
%TO.P,J1-J1,8,Pin_8*%
%TO.N,LED_B*%
X49149000Y24663400D03*
%TO.P,J1-J1,9,Pin_9*%
%TO.N,Y_DIR*%
X51689000Y27203400D03*
%TO.P,J1-J1,10,Pin_10*%
%TO.N,COLOR_OUT*%
X51689000Y24663400D03*
%TO.P,J1-J1,11,Pin_11*%
%TO.N,Y_ENABLE*%
X54229000Y27203400D03*
%TO.P,J1-J1,12,Pin_12*%
%TO.N,NEXT_TURN_OUT*%
X54229000Y24663400D03*
%TO.P,J1-J1,13,Pin_13*%
%TO.N,Y_STEP*%
X56769000Y27203400D03*
%TO.P,J1-J1,14,Pin_14*%
%TO.N,X_FAULT*%
X56769000Y24663400D03*
%TO.P,J1-J1,15,Pin_15*%
%TO.N,XY_MS0*%
X59309000Y27203400D03*
%TO.P,J1-J1,16,Pin_16*%
%TO.N,X_STEP*%
X59309000Y24663400D03*
%TO.P,J1-J1,17,Pin_17*%
%TO.N,XY_MS1*%
X61849000Y27203400D03*
%TO.P,J1-J1,18,Pin_18*%
%TO.N,X_ENABLE*%
X61849000Y24663400D03*
%TO.P,J1-J1,19,Pin_19*%
%TO.N,XY_MS2*%
X64389000Y27203400D03*
%TO.P,J1-J1,20,Pin_20*%
%TO.N,X_DIR*%
X64389000Y24663400D03*
%TD*%
D16*
%TO.P,TP6,1,1*%
%TO.N,Z_DIR*%
X136804400Y35839400D03*
%TD*%
D39*
%TO.P,R34,1*%
%TO.N,Net-(J9-Pad2)*%
X114624000Y10927400D03*
%TO.P,R34,2*%
%TO.N,Net-(C18-Pad2)*%
X113524000Y10927400D03*
%TD*%
D15*
%TO.P,JP5,1,A*%
%TO.N,+3.3V*%
X15728000Y59461400D03*
%TO.P,JP5,2,B*%
%TO.N,Net-(JP5-Pad2)*%
X13188000Y59461400D03*
%TD*%
D40*
%TO.P,R23,1*%
%TO.N,Net-(C14-Pad2)*%
X10593000Y45321400D03*
%TO.P,R23,2*%
%TO.N,Net-(JP4-Pad2)*%
X10593000Y42921400D03*
%TD*%
%TO.P,R16,1*%
%TO.N,Net-(C8-Pad2)*%
X112574000Y37935400D03*
%TO.P,R16,2*%
%TO.N,Z_HOME*%
X112574000Y35535400D03*
%TD*%
D13*
%TO.P,D4,1*%
%TO.N,Net-(D4-Pad1)*%
X151638000Y51451400D03*
%TO.P,D4,2*%
%TO.N,GND*%
X151638000Y47151400D03*
%TD*%
D16*
%TO.P,TP7,1,1*%
%TO.N,X_STEP*%
X85648800Y30282200D03*
%TD*%
D41*
%TO.P,D2,1*%
%TO.N,Net-(D2-Pad1)*%
X135026400Y71365400D03*
%TO.P,D2,2*%
%TO.N,GND*%
X135026400Y73465400D03*
%TD*%
D30*
%TO.P,J13,1,1*%
%TO.N,Net-(J13-Pad1)*%
X15417800Y94107000D03*
D31*
%TO.P,J13,2,2*%
%TO.N,Net-(J13-Pad2)*%
X11607800Y94107000D03*
%TO.P,J13,3,3*%
%TO.N,Net-(J13-Pad3)*%
X7797800Y94107000D03*
%TO.P,J13,4,4*%
%TO.N,Net-(J13-Pad4)*%
X3987800Y94107000D03*
%TD*%
D38*
%TO.P,C20,1*%
%TO.N,GND*%
X62484682Y39134300D03*
%TO.P,C20,2*%
%TO.N,Net-(C20-Pad2)*%
X62484682Y35134300D03*
%TD*%
D12*
%TO.P,R68,1*%
%TO.N,Net-(J18-Pad2)*%
X23922213Y80300856D03*
%TO.P,R68,2*%
%TO.N,GND*%
X26322213Y80300856D03*
%TD*%
D15*
%TO.P,JP12,1,A*%
%TO.N,+3.3V*%
X15728000Y26949400D03*
%TO.P,JP12,2,B*%
%TO.N,Net-(JP12-Pad2)*%
X13188000Y26949400D03*
%TD*%
%TO.P,JP10,1,A*%
%TO.N,+3.3V*%
X127782000Y21361400D03*
%TO.P,JP10,2,B*%
%TO.N,Net-(C29-Pad1)*%
X130322000Y21361400D03*
%TD*%
D42*
%TO.P,LED1,1,ANODE_BLUE*%
%TO.N,Net-(LED1-Pad1)*%
X24993600Y30475600D03*
%TO.P,LED1,2,ANODE_RED*%
%TO.N,Net-(LED1-Pad2)*%
X23317200Y29307200D03*
%TO.P,LED1,3,COMMON_CATHODE*%
%TO.N,Net-(JP14-Pad2)*%
X25019000Y27961000D03*
%TO.P,LED1,4,ANODE_GREEN*%
%TO.N,Net-(LED1-Pad4)*%
X23418800Y26868800D03*
%TD*%
D39*
%TO.P,R83,1*%
%TO.N,Net-(J23-Pad2)*%
X58998000Y10927400D03*
%TO.P,R83,2*%
%TO.N,Net-(C40-Pad2)*%
X57898000Y10927400D03*
%TD*%
D27*
%TO.P,R27,1*%
%TO.N,Net-(C15-Pad2)*%
X16129000Y62049400D03*
%TO.P,R27,2*%
%TO.N,HOME_OUT*%
X16129000Y68049400D03*
%TD*%
D18*
%TO.P,R4,1*%
%TO.N,Net-(IC1-Pad12)*%
X42595800Y44231600D03*
%TO.P,R4,2*%
%TO.N,GND*%
X42595800Y42331600D03*
%TD*%
D32*
%TO.P,R53,1*%
%TO.N,LED_B*%
X31369000Y30739400D03*
%TO.P,R53,2*%
%TO.N,Net-(LED1-Pad1)*%
X29469000Y30739400D03*
%TD*%
D11*
%TO.P,C34,1*%
%TO.N,GND*%
X94107000Y76210400D03*
%TO.P,C34,2*%
%TO.N,Net-(C34-Pad2)*%
X94107000Y77866000D03*
%TD*%
D24*
%TO.P,U18,1,1*%
%TO.N,GND*%
X40668000Y11244900D03*
%TO.P,U18,2,2*%
%TO.N,FP_2_OUT*%
X40668000Y12641900D03*
%TD*%
D40*
%TO.P,R41,1*%
%TO.N,Net-(IC3-Pad12)*%
X61672400Y44305400D03*
%TO.P,R41,2*%
%TO.N,Net-(C20-Pad2)*%
X61672400Y41905400D03*
%TD*%
D25*
%TO.P,C5,1*%
%TO.N,Net-(C5-Pad1)*%
X54866300Y46050200D03*
%TO.P,C5,2*%
%TO.N,Net-(C1-Pad1)*%
X53210700Y46050200D03*
%TD*%
D33*
%TO.P,HS2,1*%
%TO.N,GND*%
X28321000Y48519400D03*
%TD*%
D15*
%TO.P,JP17,1,A*%
%TO.N,+3.3V*%
X38404800Y19797400D03*
%TO.P,JP17,2,B*%
%TO.N,Net-(JP17-Pad2)*%
X38404800Y17257400D03*
%TD*%
D16*
%TO.P,TP10,1,1*%
%TO.N,GND*%
X61188600Y79781400D03*
%TD*%
D40*
%TO.P,R14,1*%
%TO.N,Z_FAULT*%
X102310000Y33449400D03*
%TO.P,R14,2*%
%TO.N,Net-(C8-Pad2)*%
X102310000Y35849400D03*
%TD*%
D26*
%TO.P,R18,1*%
%TO.N,U3TX*%
X118770400Y11963400D03*
D43*
%TO.P,R18,2*%
%TO.N,Net-(J1-Pad8)*%
X128930400Y11963400D03*
%TD*%
D44*
%TO.P,J10,1,1*%
%TO.N,Net-(F1-Pad1)*%
X160344400Y42697400D03*
D45*
%TO.P,J10,2,2*%
%TO.N,GND*%
X166344400Y42697400D03*
D46*
%TO.P,J10,3,3*%
%TO.N,unconnected-(J10-Pad3)*%
X167344400Y47197400D03*
%TO.P,J10,4,4*%
%TO.N,unconnected-(J10-Pad4)*%
X167344400Y38197400D03*
%TD*%
D16*
%TO.P,TP4,1,1*%
%TO.N,Z_STEP*%
X136804400Y29997400D03*
%TD*%
D30*
%TO.P,J5,1,1*%
%TO.N,/StepperDriver3/2B*%
X77834600Y92518000D03*
D31*
%TO.P,J5,2,2*%
%TO.N,/StepperDriver3/2A*%
X81644600Y92518000D03*
%TO.P,J5,3,3*%
%TO.N,/StepperDriver3/1B*%
X85454600Y92518000D03*
%TO.P,J5,4,4*%
%TO.N,/StepperDriver3/1A*%
X89264600Y92518000D03*
%TD*%
D47*
%TO.P,S2,1,COM*%
%TO.N,GND*%
X4826000Y66275400D03*
%TO.P,S2,2,NO*%
%TO.N,Net-(R25-Pad1)*%
X4826000Y59875400D03*
%TD*%
D17*
%TO.P,C39,1*%
%TO.N,GND*%
X65814000Y11175400D03*
%TO.P,C39,2*%
%TO.N,Net-(C39-Pad2)*%
X65814000Y13975400D03*
%TD*%
D18*
%TO.P,R40,1*%
%TO.N,Net-(IC3-Pad12)*%
X63982600Y44053800D03*
%TO.P,R40,2*%
%TO.N,GND*%
X63982600Y42153800D03*
%TD*%
D17*
%TO.P,C18,1*%
%TO.N,GND*%
X110772000Y11175400D03*
%TO.P,C18,2*%
%TO.N,Net-(C18-Pad2)*%
X110772000Y13975400D03*
%TD*%
D48*
%TO.P,U10,1,VIN*%
%TO.N,+24V*%
X142036800Y24568150D03*
%TO.P,U10,2,OUT*%
%TO.N,Net-(D3-Pad1)*%
X143738600Y24568150D03*
%TO.P,U10,3,GND*%
%TO.N,GND*%
X145440400Y24568150D03*
%TO.P,U10,4,FB*%
%TO.N,Net-(C29-Pad1)*%
X147142200Y24568150D03*
%TO.P,U10,5,\u002AON/OFF*%
%TO.N,GND*%
X148844000Y24568150D03*
D49*
%TO.P,U10,6,TAB*%
X145440400Y32848550D03*
%TD*%
D34*
%TO.P,J8-J1,1,Pin_1*%
%TO.N,GND*%
X105029000Y70383400D03*
D35*
%TO.P,J8-J1,2,Pin_2*%
%TO.N,MUX_OUT*%
X105029000Y67843400D03*
%TO.P,J8-J1,3,Pin_3*%
%TO.N,MUX_S2*%
X107569000Y70383400D03*
%TO.P,J8-J1,4,Pin_4*%
%TO.N,MAG_IN1*%
X107569000Y67843400D03*
%TO.P,J8-J1,5,Pin_5*%
%TO.N,MUX_S1*%
X110109000Y70383400D03*
%TO.P,J8-J1,6,Pin_6*%
%TO.N,MAG_IN2*%
X110109000Y67843400D03*
%TO.P,J8-J1,7,Pin_7*%
%TO.N,MUX_S0*%
X112649000Y70383400D03*
%TO.P,J8-J1,8,Pin_8*%
%TO.N,FP_2_OUT*%
X112649000Y67843400D03*
%TO.P,J8-J1,9,Pin_9*%
%TO.N,/MSP432E401Y/RST_1*%
X115189000Y70383400D03*
%TO.P,J8-J1,10,Pin_10*%
%TO.N,FP_1_OUT*%
X115189000Y67843400D03*
%TO.P,J8-J1,11,Pin_11*%
%TO.N,/MSP432E401Y/PQ_2*%
X117729000Y70383400D03*
%TO.P,J8-J1,12,Pin_12*%
%TO.N,FP_3_OUT*%
X117729000Y67843400D03*
%TO.P,J8-J1,13,Pin_13*%
%TO.N,/MSP432E401Y/PQ_3*%
X120269000Y70383400D03*
%TO.P,J8-J1,14,Pin_14*%
%TO.N,Z_MS2*%
X120269000Y67843400D03*
%TO.P,J8-J1,15,Pin_15*%
%TO.N,/MSP432E401Y/PP_3*%
X122809000Y70383400D03*
%TO.P,J8-J1,16,Pin_16*%
%TO.N,Z_MS1*%
X122809000Y67843400D03*
%TO.P,J8-J1,17,Pin_17*%
%TO.N,/MSP432E401Y/PQ_1*%
X125349000Y70383400D03*
%TO.P,J8-J1,18,Pin_18*%
%TO.N,Z_MS0*%
X125349000Y67843400D03*
%TO.P,J8-J1,19,Pin_19*%
%TO.N,/MSP432E401Y/PM_6*%
X127889000Y70383400D03*
%TO.P,J8-J1,20,Pin_20*%
%TO.N,/MSP432E401Y/PK_7*%
X127889000Y67843400D03*
%TD*%
D38*
%TO.P,C8,1*%
%TO.N,GND*%
X98528722Y40589212D03*
%TO.P,C8,2*%
%TO.N,Net-(C8-Pad2)*%
X98528722Y36589212D03*
%TD*%
D26*
%TO.P,C7,1*%
%TO.N,Net-(C10-Pad2)*%
X99060000Y50362800D03*
%TO.P,C7,2*%
%TO.N,GND*%
X99060000Y52862800D03*
%TD*%
D16*
%TO.P,TP8,1,1*%
%TO.N,X_ENABLE*%
X90982800Y30028200D03*
%TD*%
D39*
%TO.P,R19,1*%
%TO.N,Net-(J7-Pad2)*%
X92498000Y10927400D03*
%TO.P,R19,2*%
%TO.N,Net-(C13-Pad2)*%
X91398000Y10927400D03*
%TD*%
D41*
%TO.P,D1,1*%
%TO.N,Net-(D1-Pad1)*%
X134992400Y13233400D03*
%TO.P,D1,2*%
%TO.N,GND*%
X137092400Y13233400D03*
%TD*%
D12*
%TO.P,R81,1*%
%TO.N,Net-(C39-Pad2)*%
X68270000Y14408400D03*
%TO.P,R81,2*%
%TO.N,Net-(JP19-Pad2)*%
X70670000Y14408400D03*
%TD*%
D50*
%TO.P,J1,1,1*%
%TO.N,unconnected-(J1-Pad1)*%
X124612400Y4089400D03*
%TO.P,J1,2,2*%
%TO.N,Net-(J1-Pad2)*%
X124612400Y6629400D03*
%TO.P,J1,3,3*%
%TO.N,unconnected-(J1-Pad3)*%
X127152400Y4089400D03*
%TO.P,J1,4,4*%
%TO.N,Net-(J1-Pad2)*%
X127152400Y6629400D03*
%TO.P,J1,5,5*%
%TO.N,unconnected-(J1-Pad5)*%
X129692400Y4089400D03*
%TO.P,J1,6,6*%
%TO.N,GND*%
X129692400Y6629400D03*
%TO.P,J1,7,7*%
%TO.N,unconnected-(J1-Pad7)*%
X132232400Y4089400D03*
%TO.P,J1,8,8*%
%TO.N,Net-(J1-Pad8)*%
X132232400Y6629400D03*
%TO.P,J1,9,9*%
%TO.N,GND*%
X134772400Y4089400D03*
%TO.P,J1,10,10*%
%TO.N,Net-(J1-Pad10)*%
X134772400Y6629400D03*
%TD*%
D14*
%TO.P,C29,1*%
%TO.N,Net-(C29-Pad1)*%
X150368000Y10648950D03*
%TO.P,C29,2*%
%TO.N,GND*%
X150368000Y19742150D03*
%TD*%
D40*
%TO.P,R32,1*%
%TO.N,Net-(C17-Pad2)*%
X13387000Y14333400D03*
%TO.P,R32,2*%
%TO.N,Net-(JP7-Pad2)*%
X13387000Y11933400D03*
%TD*%
D51*
%TO.P,R22,1*%
%TO.N,Net-(R22-Pad1)*%
X8636000Y43163400D03*
%TO.P,R22,2*%
%TO.N,Net-(C14-Pad2)*%
X8636000Y44263400D03*
%TD*%
D37*
%TO.P,R52,1*%
%TO.N,Net-(C32-Pad2)*%
X102822000Y19309400D03*
%TO.P,R52,2*%
%TO.N,LS_X_OUT*%
X96822000Y19309400D03*
%TD*%
D39*
%TO.P,R28,1*%
%TO.N,Net-(J8-Pad2)*%
X80814000Y10927400D03*
%TO.P,R28,2*%
%TO.N,Net-(C16-Pad2)*%
X79714000Y10927400D03*
%TD*%
D12*
%TO.P,R67,1*%
%TO.N,Net-(J19-Pad1)*%
X99659967Y78237400D03*
%TO.P,R67,2*%
%TO.N,GND*%
X102059967Y78237400D03*
%TD*%
D28*
%TO.P,C22,1,1*%
%TO.N,GND*%
X83007200Y54254400D03*
%TO.P,C22,2,2*%
%TO.N,Net-(C19-Pad1)*%
X77927200Y54254400D03*
%TD*%
D15*
%TO.P,JP1,1,A*%
%TO.N,+24V*%
X56616600Y55143400D03*
%TO.P,JP1,2,B*%
%TO.N,Net-(C1-Pad1)*%
X54076600Y55143400D03*
%TD*%
%TO.P,JP7,1,A*%
%TO.N,+3.3V*%
X18928400Y12451400D03*
%TO.P,JP7,2,B*%
%TO.N,Net-(JP7-Pad2)*%
X16388400Y12451400D03*
%TD*%
D39*
%TO.P,R74,1*%
%TO.N,Net-(J20-Pad2)*%
X35729000Y10927400D03*
%TO.P,R74,2*%
%TO.N,Net-(C37-Pad2)*%
X34629000Y10927400D03*
%TD*%
D15*
%TO.P,JP2,1,A*%
%TO.N,+24V*%
X111506000Y56647400D03*
%TO.P,JP2,2,B*%
%TO.N,Net-(C10-Pad2)*%
X111506000Y54107400D03*
%TD*%
D52*
%TO.P,IC2,1,CP1*%
%TO.N,Net-(C12-Pad1)*%
X110528074Y43527200D03*
%TO.P,IC2,2,CP2*%
%TO.N,Net-(C12-Pad2)*%
X109878063Y43527200D03*
%TO.P,IC2,3,VCP*%
%TO.N,Net-(C11-Pad1)*%
X109228051Y43527200D03*
%TO.P,IC2,4,VMA*%
%TO.N,Net-(C10-Pad2)*%
X108578040Y43527200D03*
%TO.P,IC2,5,AOUT1*%
%TO.N,/StepperDriver3/1A*%
X107928028Y43527200D03*
%TO.P,IC2,6,ISENA*%
%TO.N,Net-(IC2-Pad6)*%
X107278017Y43527200D03*
%TO.P,IC2,7,AOUT2*%
%TO.N,/StepperDriver3/2A*%
X106628006Y43527200D03*
%TO.P,IC2,8,BOUT2*%
%TO.N,/StepperDriver3/2B*%
X105977994Y43527200D03*
%TO.P,IC2,9,ISENB*%
%TO.N,Net-(IC2-Pad9)*%
X105327983Y43527200D03*
%TO.P,IC2,10,BOUT1*%
%TO.N,/StepperDriver3/1B*%
X104677972Y43527200D03*
%TO.P,IC2,11,VMB*%
%TO.N,Net-(C10-Pad2)*%
X104027960Y43527200D03*
%TO.P,IC2,12,AVREF*%
%TO.N,Net-(IC2-Pad12)*%
X103377949Y43527200D03*
%TO.P,IC2,13,BVREF*%
X102727937Y43527200D03*
%TO.P,IC2,14,GND_1*%
%TO.N,GND*%
X102077926Y43527200D03*
%TO.P,IC2,15,V3P3OUT*%
%TO.N,Net-(C8-Pad2)*%
X102077926Y37583600D03*
%TO.P,IC2,16,NRESET*%
%TO.N,XYZ_RESET*%
X102727937Y37583600D03*
%TO.P,IC2,17,NSLEEP*%
X103377949Y37583600D03*
%TO.P,IC2,18,NFAULT*%
%TO.N,Z_FAULT*%
X104027960Y37583600D03*
%TO.P,IC2,19,DECAY*%
%TO.N,XYZ_DECAY*%
X104677972Y37583600D03*
%TO.P,IC2,20,DIR*%
%TO.N,Z_DIR*%
X105327983Y37583600D03*
%TO.P,IC2,21,NENBL*%
%TO.N,Z_ENABLE*%
X105977994Y37583600D03*
%TO.P,IC2,22,STEP*%
%TO.N,Z_STEP*%
X106628006Y37583600D03*
%TO.P,IC2,23,NC*%
%TO.N,unconnected-(IC2-Pad23)*%
X107278017Y37583600D03*
%TO.P,IC2,24,MODE0*%
%TO.N,Z_MS0*%
X107928028Y37583600D03*
%TO.P,IC2,25,MODE1*%
%TO.N,Z_MS1*%
X108578040Y37583600D03*
%TO.P,IC2,26,MODE2*%
%TO.N,Z_MS2*%
X109228051Y37583600D03*
%TO.P,IC2,27,NHOME*%
%TO.N,Z_HOME*%
X109878063Y37583600D03*
%TO.P,IC2,28,GND_2*%
%TO.N,GND*%
X110528074Y37583600D03*
D53*
%TO.P,IC2,29,EPAD*%
X106303000Y40555400D03*
%TD*%
D36*
%TO.P,U15,1,Y4*%
%TO.N,Net-(J13-Pad4)*%
X36714001Y86055200D03*
%TO.P,U15,2,Y6*%
%TO.N,Net-(J13-Pad3)*%
X37363999Y86055200D03*
%TO.P,U15,3,COM*%
%TO.N,Net-(C33-Pad2)*%
X38014001Y86055200D03*
%TO.P,U15,4,Y7*%
%TO.N,Net-(J13-Pad2)*%
X38663999Y86055200D03*
%TO.P,U15,5,Y5*%
%TO.N,Net-(J13-Pad1)*%
X39313998Y86055200D03*
%TO.P,U15,6,INH*%
%TO.N,GND*%
X39963999Y86055200D03*
%TO.P,U15,7,GND*%
X40613998Y86055200D03*
%TO.P,U15,8,GND*%
X41263999Y86055200D03*
%TO.P,U15,9,C*%
%TO.N,DEMUX_S2*%
X41263999Y91694000D03*
%TO.P,U15,10,B*%
%TO.N,DEMUX_S1*%
X40614001Y91694000D03*
%TO.P,U15,11,A*%
%TO.N,DEMUX_S0*%
X39963999Y91694000D03*
%TO.P,U15,12,Y3*%
%TO.N,Net-(J12-Pad4)*%
X39314001Y91694000D03*
%TO.P,U15,13,Y0*%
%TO.N,Net-(J12-Pad3)*%
X38664002Y91694000D03*
%TO.P,U15,14,Y1*%
%TO.N,Net-(J12-Pad2)*%
X38014001Y91694000D03*
%TO.P,U15,15,Y2*%
%TO.N,Net-(J12-Pad1)*%
X37364002Y91694000D03*
%TO.P,U15,16,VCC*%
%TO.N,Net-(C33-Pad2)*%
X36714001Y91694000D03*
%TD*%
D17*
%TO.P,C17,1*%
%TO.N,GND*%
X12192000Y18951400D03*
%TO.P,C17,2*%
%TO.N,Net-(C17-Pad2)*%
X12192000Y16151400D03*
%TD*%
D12*
%TO.P,R6,1*%
%TO.N,Y_FAULT*%
X47404200Y34624400D03*
%TO.P,R6,2*%
%TO.N,Net-(C2-Pad2)*%
X45004200Y34624400D03*
%TD*%
D30*
%TO.P,J19,1,1*%
%TO.N,Net-(J19-Pad1)*%
X101044463Y82946400D03*
D31*
%TO.P,J19,2,2*%
%TO.N,Net-(J19-Pad2)*%
X104854463Y82946400D03*
%TO.P,J19,3,3*%
%TO.N,Net-(J19-Pad3)*%
X108664463Y82946400D03*
%TO.P,J19,4,4*%
%TO.N,Net-(J19-Pad4)*%
X112474463Y82946400D03*
%TD*%
D19*
%TO.P,J11,1,1*%
%TO.N,GND*%
X99088000Y4831400D03*
%TO.P,J11,2,2*%
%TO.N,Net-(J11-Pad2)*%
X102588000Y4831400D03*
%TD*%
D17*
%TO.P,C38,1*%
%TO.N,GND*%
X43561000Y11175400D03*
%TO.P,C38,2*%
%TO.N,Net-(C38-Pad2)*%
X43561000Y13975400D03*
%TD*%
D37*
%TO.P,R30,1*%
%TO.N,Net-(C16-Pad2)*%
X80216000Y19309400D03*
%TO.P,R30,2*%
%TO.N,LS_Z_OUT*%
X74216000Y19309400D03*
%TD*%
D26*
%TO.P,C1,1*%
%TO.N,Net-(C1-Pad1)*%
X42354500Y48610200D03*
%TO.P,C1,2*%
%TO.N,GND*%
X42354500Y51110200D03*
%TD*%
%TO.P,R86,1*%
%TO.N,+24V*%
X87020400Y61163200D03*
D43*
%TO.P,R86,2*%
%TO.N,Net-(J24-Pad1)*%
X76860400Y61163200D03*
%TD*%
D54*
%TO.P,C31,1*%
%TO.N,GND*%
X8506000Y31775400D03*
%TO.P,C31,2*%
%TO.N,Net-(C31-Pad2)*%
X11306000Y31775400D03*
%TD*%
D15*
%TO.P,JP16,1,A*%
%TO.N,MUX_OUT*%
X99009200Y68503800D03*
%TO.P,JP16,2,B*%
%TO.N,Net-(JP16-Pad2)*%
X96469200Y68503800D03*
%TD*%
D40*
%TO.P,R13,1*%
%TO.N,Net-(IC2-Pad12)*%
X97613400Y45372200D03*
%TO.P,R13,2*%
%TO.N,Net-(C8-Pad2)*%
X97613400Y42972200D03*
%TD*%
D55*
%TO.P,IC5,1,GND_1*%
%TO.N,GND*%
X158058400Y78384400D03*
%TO.P,IC5,2,OUT1*%
%TO.N,/Electromagnet1/OUT1*%
X158058400Y79654400D03*
%TO.P,IC5,3,VCC*%
%TO.N,+24V*%
X158058400Y80924400D03*
%TO.P,IC5,4,GND_2*%
%TO.N,GND*%
X158058400Y82194400D03*
%TO.P,IC5,5,IN1*%
%TO.N,MAG_IN1*%
X152634400Y82194400D03*
%TO.P,IC5,6,IN2*%
%TO.N,MAG_IN2*%
X152634400Y80924400D03*
%TO.P,IC5,7,TEST*%
%TO.N,GND*%
X152634400Y79654400D03*
%TO.P,IC5,8,OUT2*%
%TO.N,/Electromagnet1/OUT2*%
X152634400Y78384400D03*
D56*
%TO.P,IC5,9,EP*%
%TO.N,GND*%
X155346400Y80289400D03*
%TD*%
D57*
%TO.P,L2,1,1*%
%TO.N,Net-(C30-Pad1)*%
X154178000Y67335400D03*
%TO.P,L2,2,2*%
%TO.N,Net-(D4-Pad1)*%
X169214800Y67335400D03*
%TD*%
D24*
%TO.P,U20,1,1*%
%TO.N,GND*%
X51689000Y11244900D03*
%TO.P,U20,2,2*%
%TO.N,FP_1_OUT*%
X51689000Y12641900D03*
%TD*%
D39*
%TO.P,R50,1*%
%TO.N,Net-(J11-Pad2)*%
X102701000Y10927400D03*
%TO.P,R50,2*%
%TO.N,Net-(C32-Pad2)*%
X103801000Y10927400D03*
%TD*%
D24*
%TO.P,U14,1,1*%
%TO.N,GND*%
X96291400Y77736700D03*
%TO.P,U14,2,2*%
%TO.N,Net-(JP16-Pad2)*%
X96291400Y76339700D03*
%TD*%
D12*
%TO.P,R72,1*%
%TO.N,Net-(J18-Pad4)*%
X31704789Y80300856D03*
%TO.P,R72,2*%
%TO.N,GND*%
X34104789Y80300856D03*
%TD*%
D40*
%TO.P,R48,1*%
%TO.N,Net-(C31-Pad2)*%
X10593000Y29319400D03*
%TO.P,R48,2*%
%TO.N,Net-(JP12-Pad2)*%
X10593000Y26919400D03*
%TD*%
D12*
%TO.P,R69,1*%
%TO.N,Net-(J19-Pad2)*%
X103444361Y78237400D03*
%TO.P,R69,2*%
%TO.N,GND*%
X105844361Y78237400D03*
%TD*%
D25*
%TO.P,C23,1*%
%TO.N,Net-(C23-Pad1)*%
X75250482Y45770300D03*
%TO.P,C23,2*%
%TO.N,Net-(C19-Pad1)*%
X73594882Y45770300D03*
%TD*%
D28*
%TO.P,C21,1,1*%
%TO.N,Net-(C19-Pad1)*%
X78765400Y50723800D03*
%TO.P,C21,2,2*%
%TO.N,GND*%
X83845400Y50723800D03*
%TD*%
D15*
%TO.P,JP21,1,A*%
%TO.N,+5V*%
X132232400Y27183400D03*
%TO.P,JP21,2,B*%
%TO.N,Net-(J1-Pad2)*%
X132232400Y24643400D03*
%TD*%
D28*
%TO.P,C10,1,1*%
%TO.N,GND*%
X119126000Y61747400D03*
%TO.P,C10,2,2*%
%TO.N,Net-(C10-Pad2)*%
X114046000Y61747400D03*
%TD*%
D51*
%TO.P,R31,1*%
%TO.N,Net-(R31-Pad1)*%
X11430000Y12683400D03*
%TO.P,R31,2*%
%TO.N,Net-(C17-Pad2)*%
X11430000Y13783400D03*
%TD*%
D16*
%TO.P,TP11,1,1*%
%TO.N,GND*%
X170332400Y80543400D03*
%TD*%
D37*
%TO.P,R21,1*%
%TO.N,Net-(C13-Pad2)*%
X91900000Y19309400D03*
%TO.P,R21,2*%
%TO.N,LS_Y_OUT*%
X85900000Y19309400D03*
%TD*%
D40*
%TO.P,R26,1*%
%TO.N,Net-(C15-Pad2)*%
X10593000Y61831400D03*
%TO.P,R26,2*%
%TO.N,Net-(JP5-Pad2)*%
X10593000Y59431400D03*
%TD*%
D37*
%TO.P,R82,1*%
%TO.N,Net-(C39-Pad2)*%
X68913000Y19309400D03*
%TO.P,R82,2*%
%TO.N,FP_3_OUT*%
X62913000Y19309400D03*
%TD*%
D12*
%TO.P,R62,1*%
%TO.N,Net-(J16-Pad3)*%
X11598225Y80300856D03*
%TO.P,R62,2*%
%TO.N,GND*%
X13998225Y80300856D03*
%TD*%
%TO.P,R20,1*%
%TO.N,Net-(C13-Pad2)*%
X91356000Y14408400D03*
%TO.P,R20,2*%
%TO.N,Net-(JP3-Pad2)*%
X93756000Y14408400D03*
%TD*%
D37*
%TO.P,R76,1*%
%TO.N,Net-(C37-Pad2)*%
X35766000Y19309400D03*
%TO.P,R76,2*%
%TO.N,NEXT_TURN_OUT*%
X29766000Y19309400D03*
%TD*%
D12*
%TO.P,R44,1*%
%TO.N,Net-(C20-Pad2)*%
X76919000Y34878400D03*
%TO.P,R44,2*%
%TO.N,X_HOME*%
X74519000Y34878400D03*
%TD*%
D54*
%TO.P,C15,1*%
%TO.N,GND*%
X8379000Y64267400D03*
%TO.P,C15,2*%
%TO.N,Net-(C15-Pad2)*%
X11179000Y64267400D03*
%TD*%
D32*
%TO.P,R55,1*%
%TO.N,LED_R*%
X31369000Y28453400D03*
%TO.P,R55,2*%
%TO.N,Net-(LED1-Pad2)*%
X29469000Y28453400D03*
%TD*%
D20*
%TO.P,R39,1*%
%TO.N,GND*%
X67818682Y53187100D03*
%TO.P,R39,2*%
%TO.N,Net-(IC3-Pad9)*%
X67818682Y48513500D03*
%TD*%
D24*
%TO.P,U9,1,1*%
%TO.N,GND*%
X108077000Y11244900D03*
%TO.P,U9,2,2*%
%TO.N,CAPTURE_OUT*%
X108077000Y12641900D03*
%TD*%
D28*
%TO.P,C12,1,1*%
%TO.N,Net-(C12-Pad1)*%
X113817400Y39751000D03*
%TO.P,C12,2,2*%
%TO.N,Net-(C12-Pad2)*%
X113817400Y44831000D03*
%TD*%
D25*
%TO.P,C11,1*%
%TO.N,Net-(C11-Pad1)*%
X111802522Y46209212D03*
%TO.P,C11,2*%
%TO.N,Net-(C10-Pad2)*%
X110146922Y46209212D03*
%TD*%
D47*
%TO.P,S1,1,COM*%
%TO.N,GND*%
X4826000Y49765400D03*
%TO.P,S1,2,NO*%
%TO.N,Net-(R22-Pad1)*%
X4826000Y43365400D03*
%TD*%
D26*
%TO.P,R17,1*%
%TO.N,U3RX*%
X118770400Y15265400D03*
D43*
%TO.P,R17,2*%
%TO.N,Net-(J1-Pad10)*%
X128930400Y15265400D03*
%TD*%
D12*
%TO.P,R58,1*%
%TO.N,Net-(J16-Pad1)*%
X3812141Y80300856D03*
%TO.P,R58,2*%
%TO.N,GND*%
X6212141Y80300856D03*
%TD*%
%TO.P,R60,1*%
%TO.N,Net-(J16-Pad2)*%
X7595753Y80300856D03*
%TO.P,R60,2*%
%TO.N,GND*%
X9995753Y80300856D03*
%TD*%
D58*
%TO.P,J6,1,VBUS*%
%TO.N,+5V*%
X145490302Y83998400D03*
%TO.P,J6,2,D-*%
%TO.N,unconnected-(J6-Pad2)*%
X142990302Y83998400D03*
%TO.P,J6,3,D+*%
%TO.N,unconnected-(J6-Pad3)*%
X140990301Y83998400D03*
%TO.P,J6,4,GND*%
%TO.N,GND*%
X138490301Y83998400D03*
D59*
%TO.P,J6,5,Shield*%
X148560301Y86708400D03*
%TO.P,J6,6,Shield*%
X135420302Y86708400D03*
%TD*%
D47*
%TO.P,S3,1,COM*%
%TO.N,GND*%
X4826000Y33509400D03*
%TO.P,S3,2,NO*%
%TO.N,Net-(R47-Pad1)*%
X4826000Y27109400D03*
%TD*%
D24*
%TO.P,U6,1,1*%
%TO.N,GND*%
X74155300Y11244900D03*
%TO.P,U6,2,2*%
%TO.N,LS_Z_OUT*%
X74155300Y12641900D03*
%TD*%
D26*
%TO.P,R7,1*%
%TO.N,Y_ENABLE*%
X45008800Y30784800D03*
D43*
%TO.P,R7,2*%
%TO.N,Net-(C2-Pad2)*%
X34848800Y30784800D03*
%TD*%
D54*
%TO.P,C14,1*%
%TO.N,GND*%
X8633000Y48011400D03*
%TO.P,C14,2*%
%TO.N,Net-(C14-Pad2)*%
X11433000Y48011400D03*
%TD*%
D28*
%TO.P,C4,1,1*%
%TO.N,GND*%
X50114200Y62204600D03*
%TO.P,C4,2,2*%
%TO.N,Net-(C1-Pad1)*%
X55194200Y62204600D03*
%TD*%
%TO.P,C3,1,1*%
%TO.N,Net-(C1-Pad1)*%
X55321200Y58674000D03*
%TO.P,C3,2,2*%
%TO.N,GND*%
X50241200Y58674000D03*
%TD*%
D51*
%TO.P,R47,1*%
%TO.N,Net-(R47-Pad1)*%
X8636000Y27161400D03*
%TO.P,R47,2*%
%TO.N,Net-(C31-Pad2)*%
X8636000Y28261400D03*
%TD*%
D37*
%TO.P,R36,1*%
%TO.N,Net-(C18-Pad2)*%
X114026000Y19309400D03*
%TO.P,R36,2*%
%TO.N,CAPTURE_OUT*%
X108026000Y19309400D03*
%TD*%
D12*
%TO.P,R63,1*%
%TO.N,Net-(J17-Pad3)*%
X124065520Y78237400D03*
%TO.P,R63,2*%
%TO.N,GND*%
X126465520Y78237400D03*
%TD*%
D16*
%TO.P,TP15,1,1*%
%TO.N,Net-(C29-Pad1)*%
X146456400Y5867400D03*
%TD*%
D39*
%TO.P,R77,1*%
%TO.N,Net-(J21-Pad2)*%
X47413000Y10927400D03*
%TO.P,R77,2*%
%TO.N,Net-(C38-Pad2)*%
X46313000Y10927400D03*
%TD*%
D30*
%TO.P,J14,1,1*%
%TO.N,Net-(J14-Pad1)*%
X128219200Y93700600D03*
D31*
%TO.P,J14,2,2*%
%TO.N,Net-(J14-Pad2)*%
X124409200Y93700600D03*
%TO.P,J14,3,3*%
%TO.N,Net-(J14-Pad3)*%
X120599200Y93700600D03*
%TO.P,J14,4,4*%
%TO.N,Net-(J14-Pad4)*%
X116789200Y93700600D03*
%TD*%
D15*
%TO.P,JP4,1,A*%
%TO.N,+3.3V*%
X15728000Y42951400D03*
%TO.P,JP4,2,B*%
%TO.N,Net-(JP4-Pad2)*%
X13188000Y42951400D03*
%TD*%
D12*
%TO.P,R59,1*%
%TO.N,Net-(J17-Pad1)*%
X116400822Y78237400D03*
%TO.P,R59,2*%
%TO.N,GND*%
X118800822Y78237400D03*
%TD*%
%TO.P,R84,1*%
%TO.N,Net-(C40-Pad2)*%
X57447000Y14408400D03*
%TO.P,R84,2*%
%TO.N,Net-(JP20-Pad2)*%
X59847000Y14408400D03*
%TD*%
%TO.P,R73,1*%
%TO.N,Net-(J19-Pad4)*%
X111114611Y78237400D03*
%TO.P,R73,2*%
%TO.N,GND*%
X113514611Y78237400D03*
%TD*%
D21*
%TO.P,R1,1*%
%TO.N,Net-(C1-Pad1)*%
X54371200Y50469800D03*
%TO.P,R1,2*%
%TO.N,Net-(C5-Pad1)*%
X56271200Y50469800D03*
%TD*%
D60*
%TO.P,U7,1,1*%
%TO.N,GND*%
X3225800Y19289400D03*
%TO.P,U7,2,2*%
%TO.N,Net-(R31-Pad1)*%
X8458200Y16789400D03*
%TO.P,U7,3,3*%
%TO.N,unconnected-(U7-Pad3)*%
X3225800Y14289400D03*
%TD*%
D12*
%TO.P,R8,1*%
%TO.N,Net-(C2-Pad2)*%
X56345000Y34878400D03*
%TO.P,R8,2*%
%TO.N,Y_HOME*%
X53945000Y34878400D03*
%TD*%
D26*
%TO.P,R43,1*%
%TO.N,X_ENABLE*%
X93980000Y35001200D03*
D43*
%TO.P,R43,2*%
%TO.N,Net-(C20-Pad2)*%
X83820000Y35001200D03*
%TD*%
D30*
%TO.P,J4,1,1*%
%TO.N,/StepperDriver2/2B*%
X44916200Y92391000D03*
D31*
%TO.P,J4,2,2*%
%TO.N,/StepperDriver2/2A*%
X48726200Y92391000D03*
%TO.P,J4,3,3*%
%TO.N,/StepperDriver2/1B*%
X52536200Y92391000D03*
%TO.P,J4,4,4*%
%TO.N,/StepperDriver2/1A*%
X56346200Y92391000D03*
%TD*%
D16*
%TO.P,TP2,1,1*%
%TO.N,Y_ENABLE*%
X75666600Y24638000D03*
%TD*%
D52*
%TO.P,IC3,1,CP1*%
%TO.N,Net-(C24-Pad1)*%
X74583756Y42765200D03*
%TO.P,IC3,2,CP2*%
%TO.N,Net-(C24-Pad2)*%
X73933745Y42765200D03*
%TO.P,IC3,3,VCP*%
%TO.N,Net-(C23-Pad1)*%
X73283733Y42765200D03*
%TO.P,IC3,4,VMA*%
%TO.N,Net-(C19-Pad1)*%
X72633722Y42765200D03*
%TO.P,IC3,5,AOUT1*%
%TO.N,/StepperDriver1/1A*%
X71983710Y42765200D03*
%TO.P,IC3,6,ISENA*%
%TO.N,Net-(IC3-Pad6)*%
X71333699Y42765200D03*
%TO.P,IC3,7,AOUT2*%
%TO.N,/StepperDriver1/2A*%
X70683688Y42765200D03*
%TO.P,IC3,8,BOUT2*%
%TO.N,/StepperDriver1/2B*%
X70033676Y42765200D03*
%TO.P,IC3,9,ISENB*%
%TO.N,Net-(IC3-Pad9)*%
X69383665Y42765200D03*
%TO.P,IC3,10,BOUT1*%
%TO.N,/StepperDriver1/1B*%
X68733654Y42765200D03*
%TO.P,IC3,11,VMB*%
%TO.N,Net-(C19-Pad1)*%
X68083642Y42765200D03*
%TO.P,IC3,12,AVREF*%
%TO.N,Net-(IC3-Pad12)*%
X67433631Y42765200D03*
%TO.P,IC3,13,BVREF*%
X66783619Y42765200D03*
%TO.P,IC3,14,GND_1*%
%TO.N,GND*%
X66133608Y42765200D03*
%TO.P,IC3,15,V3P3OUT*%
%TO.N,Net-(C20-Pad2)*%
X66133608Y36821600D03*
%TO.P,IC3,16,NRESET*%
%TO.N,XYZ_RESET*%
X66783619Y36821600D03*
%TO.P,IC3,17,NSLEEP*%
X67433631Y36821600D03*
%TO.P,IC3,18,NFAULT*%
%TO.N,X_FAULT*%
X68083642Y36821600D03*
%TO.P,IC3,19,DECAY*%
%TO.N,XYZ_DECAY*%
X68733654Y36821600D03*
%TO.P,IC3,20,DIR*%
%TO.N,X_DIR*%
X69383665Y36821600D03*
%TO.P,IC3,21,NENBL*%
%TO.N,X_ENABLE*%
X70033676Y36821600D03*
%TO.P,IC3,22,STEP*%
%TO.N,X_STEP*%
X70683688Y36821600D03*
%TO.P,IC3,23,NC*%
%TO.N,unconnected-(IC3-Pad23)*%
X71333699Y36821600D03*
%TO.P,IC3,24,MODE0*%
%TO.N,XY_MS0*%
X71983710Y36821600D03*
%TO.P,IC3,25,MODE1*%
%TO.N,XY_MS1*%
X72633722Y36821600D03*
%TO.P,IC3,26,MODE2*%
%TO.N,XY_MS2*%
X73283733Y36821600D03*
%TO.P,IC3,27,NHOME*%
%TO.N,X_HOME*%
X73933745Y36821600D03*
%TO.P,IC3,28,GND_2*%
%TO.N,GND*%
X74583756Y36821600D03*
D53*
%TO.P,IC3,29,EPAD*%
X70358682Y39793400D03*
%TD*%
D20*
%TO.P,R3,1*%
%TO.N,GND*%
X47688500Y52959000D03*
%TO.P,R3,2*%
%TO.N,Net-(IC1-Pad9)*%
X47688500Y48285400D03*
%TD*%
D61*
%TO.P,R45,1*%
%TO.N,Net-(C29-Pad1)*%
X134620000Y20763400D03*
%TO.P,R45,2*%
%TO.N,Net-(D1-Pad1)*%
X134620000Y15863400D03*
%TD*%
D16*
%TO.P,TP9,1,1*%
%TO.N,X_DIR*%
X80568800Y30561600D03*
%TD*%
D29*
%TO.P,R56,1*%
%TO.N,Net-(JP15-Pad2)*%
X36398166Y81140976D03*
%TO.P,R56,2*%
%TO.N,Net-(C33-Pad2)*%
X36398166Y83040976D03*
%TD*%
D17*
%TO.P,C40,1*%
%TO.N,GND*%
X54991000Y11175400D03*
%TO.P,C40,2*%
%TO.N,Net-(C40-Pad2)*%
X54991000Y13975400D03*
%TD*%
D12*
%TO.P,R35,1*%
%TO.N,Net-(C18-Pad2)*%
X113228000Y14408400D03*
%TO.P,R35,2*%
%TO.N,Net-(JP8-Pad2)*%
X115628000Y14408400D03*
%TD*%
D19*
%TO.P,J20,1,1*%
%TO.N,GND*%
X31778000Y4831400D03*
%TO.P,J20,2,2*%
%TO.N,Net-(J20-Pad2)*%
X35278000Y4831400D03*
%TD*%
D20*
%TO.P,R10,1*%
%TO.N,GND*%
X108788200Y53619400D03*
%TO.P,R10,2*%
%TO.N,Net-(IC2-Pad6)*%
X108788200Y48945800D03*
%TD*%
D15*
%TO.P,JP8,1,A*%
%TO.N,+3.3V*%
X116614000Y21067400D03*
%TO.P,JP8,2,B*%
%TO.N,Net-(JP8-Pad2)*%
X116614000Y18527400D03*
%TD*%
D17*
%TO.P,C37,1*%
%TO.N,GND*%
X32131000Y11175400D03*
%TO.P,C37,2*%
%TO.N,Net-(C37-Pad2)*%
X32131000Y13975400D03*
%TD*%
D62*
%TO.P,R46,1*%
%TO.N,Net-(D2-Pad1)*%
X135026400Y68439400D03*
%TO.P,R46,2*%
%TO.N,Net-(C30-Pad1)*%
X135026400Y66739400D03*
%TD*%
D39*
%TO.P,R80,1*%
%TO.N,Net-(J22-Pad2)*%
X69412000Y10927400D03*
%TO.P,R80,2*%
%TO.N,Net-(C39-Pad2)*%
X68312000Y10927400D03*
%TD*%
D15*
%TO.P,JP6,1,A*%
%TO.N,+3.3V*%
X82550000Y21067400D03*
%TO.P,JP6,2,B*%
%TO.N,Net-(JP6-Pad2)*%
X82550000Y18527400D03*
%TD*%
D19*
%TO.P,J22,1,1*%
%TO.N,GND*%
X65334000Y4831400D03*
%TO.P,J22,2,2*%
%TO.N,Net-(J22-Pad2)*%
X68834000Y4831400D03*
%TD*%
D16*
%TO.P,TP13,1,1*%
%TO.N,Net-(F1-Pad1)*%
X169824400Y52603400D03*
%TD*%
D63*
%TO.P,IC4,1,VIN*%
%TO.N,+24V*%
X146656000Y54576400D03*
%TO.P,IC4,2,OUTPUT*%
%TO.N,Net-(D4-Pad1)*%
X144956000Y54576400D03*
%TO.P,IC4,3,GROUND*%
%TO.N,GND*%
X143256000Y54576400D03*
%TO.P,IC4,4,FEEDBACK*%
%TO.N,Net-(C30-Pad1)*%
X141556000Y54576400D03*
%TO.P,IC4,5,~{ON}/OFF*%
%TO.N,GND*%
X139856000Y54576400D03*
D64*
%TO.P,IC4,6,GND_1*%
X143256000Y41361400D03*
D65*
%TO.P,IC4,7,GND_2*%
X143256000Y44856400D03*
%TD*%
D40*
%TO.P,R42,1*%
%TO.N,X_FAULT*%
X66242000Y32941400D03*
%TO.P,R42,2*%
%TO.N,Net-(C20-Pad2)*%
X66242000Y35341400D03*
%TD*%
D19*
%TO.P,J7,1,1*%
%TO.N,GND*%
X87912000Y4831400D03*
%TO.P,J7,2,2*%
%TO.N,Net-(J7-Pad2)*%
X91412000Y4831400D03*
%TD*%
D12*
%TO.P,R29,1*%
%TO.N,Net-(C16-Pad2)*%
X79418000Y14408400D03*
%TO.P,R29,2*%
%TO.N,Net-(JP6-Pad2)*%
X81818000Y14408400D03*
%TD*%
%TO.P,R70,1*%
%TO.N,Net-(J18-Pad3)*%
X27711414Y80300856D03*
%TO.P,R70,2*%
%TO.N,GND*%
X30111414Y80300856D03*
%TD*%
D66*
%TO.P,L1,1,1*%
%TO.N,Net-(C29-Pad1)*%
X169278300Y15265400D03*
%TO.P,L1,2,2*%
%TO.N,Net-(D3-Pad1)*%
X159194500Y15265400D03*
%TD*%
D15*
%TO.P,JP9,1,A*%
%TO.N,+24V*%
X74676000Y57155400D03*
%TO.P,JP9,2,B*%
%TO.N,Net-(C19-Pad1)*%
X74676000Y54615400D03*
%TD*%
%TO.P,JP20,1,A*%
%TO.N,+3.3V*%
X60579000Y19797400D03*
%TO.P,JP20,2,B*%
%TO.N,Net-(JP20-Pad2)*%
X60579000Y17257400D03*
%TD*%
%TO.P,JP18,1,A*%
%TO.N,+3.3V*%
X49403000Y20051400D03*
%TO.P,JP18,2,B*%
%TO.N,Net-(JP18-Pad2)*%
X49403000Y17511400D03*
%TD*%
D22*
%TO.P,U1,1,1*%
%TO.N,GND*%
X124269500Y18821400D03*
%TO.P,U1,2,2*%
%TO.N,U3RX*%
X125666500Y18821400D03*
%TD*%
D19*
%TO.P,J21,1,1*%
%TO.N,GND*%
X42954000Y4831400D03*
%TO.P,J21,2,2*%
%TO.N,Net-(J21-Pad2)*%
X46454000Y4831400D03*
%TD*%
D12*
%TO.P,R61,1*%
%TO.N,Net-(J17-Pad2)*%
X120179423Y78237400D03*
%TO.P,R61,2*%
%TO.N,GND*%
X122579423Y78237400D03*
%TD*%
D52*
%TO.P,IC1,1,CP1*%
%TO.N,Net-(C6-Pad1)*%
X53691574Y43091100D03*
%TO.P,IC1,2,CP2*%
%TO.N,Net-(C6-Pad2)*%
X53041563Y43091100D03*
%TO.P,IC1,3,VCP*%
%TO.N,Net-(C5-Pad1)*%
X52391551Y43091100D03*
%TO.P,IC1,4,VMA*%
%TO.N,Net-(C1-Pad1)*%
X51741540Y43091100D03*
%TO.P,IC1,5,AOUT1*%
%TO.N,/StepperDriver2/1A*%
X51091528Y43091100D03*
%TO.P,IC1,6,ISENA*%
%TO.N,Net-(IC1-Pad6)*%
X50441517Y43091100D03*
%TO.P,IC1,7,AOUT2*%
%TO.N,/StepperDriver2/2A*%
X49791506Y43091100D03*
%TO.P,IC1,8,BOUT2*%
%TO.N,/StepperDriver2/2B*%
X49141494Y43091100D03*
%TO.P,IC1,9,ISENB*%
%TO.N,Net-(IC1-Pad9)*%
X48491483Y43091100D03*
%TO.P,IC1,10,BOUT1*%
%TO.N,/StepperDriver2/1B*%
X47841472Y43091100D03*
%TO.P,IC1,11,VMB*%
%TO.N,Net-(C1-Pad1)*%
X47191460Y43091100D03*
%TO.P,IC1,12,AVREF*%
%TO.N,Net-(IC1-Pad12)*%
X46541449Y43091100D03*
%TO.P,IC1,13,BVREF*%
X45891437Y43091100D03*
%TO.P,IC1,14,GND_1*%
%TO.N,GND*%
X45241426Y43091100D03*
%TO.P,IC1,15,V3P3OUT*%
%TO.N,Net-(C2-Pad2)*%
X45241426Y37147500D03*
%TO.P,IC1,16,NRESET*%
%TO.N,XYZ_RESET*%
X45891437Y37147500D03*
%TO.P,IC1,17,NSLEEP*%
X46541449Y37147500D03*
%TO.P,IC1,18,NFAULT*%
%TO.N,Y_FAULT*%
X47191460Y37147500D03*
%TO.P,IC1,19,DECAY*%
%TO.N,XYZ_DECAY*%
X47841472Y37147500D03*
%TO.P,IC1,20,DIR*%
%TO.N,Y_DIR*%
X48491483Y37147500D03*
%TO.P,IC1,21,NENBL*%
%TO.N,Y_ENABLE*%
X49141494Y37147500D03*
%TO.P,IC1,22,STEP*%
%TO.N,Y_STEP*%
X49791506Y37147500D03*
%TO.P,IC1,23,NC*%
%TO.N,unconnected-(IC1-Pad23)*%
X50441517Y37147500D03*
%TO.P,IC1,24,MODE0*%
%TO.N,XY_MS0*%
X51091528Y37147500D03*
%TO.P,IC1,25,MODE1*%
%TO.N,XY_MS1*%
X51741540Y37147500D03*
%TO.P,IC1,26,MODE2*%
%TO.N,XY_MS2*%
X52391551Y37147500D03*
%TO.P,IC1,27,NHOME*%
%TO.N,Y_HOME*%
X53041563Y37147500D03*
%TO.P,IC1,28,GND_2*%
%TO.N,GND*%
X53691574Y37147500D03*
D53*
%TO.P,IC1,29,EPAD*%
X49466500Y40119300D03*
%TD*%
D24*
%TO.P,U19,1,1*%
%TO.N,GND*%
X63020000Y11244900D03*
%TO.P,U19,2,2*%
%TO.N,FP_3_OUT*%
X63020000Y12641900D03*
%TD*%
D26*
%TO.P,R15,1*%
%TO.N,Z_ENABLE*%
X93497400Y39776400D03*
D43*
%TO.P,R15,2*%
%TO.N,Net-(C8-Pad2)*%
X93497400Y49936400D03*
%TD*%
D25*
%TO.P,C26,1*%
%TO.N,+24V*%
X147152600Y57658000D03*
%TO.P,C26,2*%
%TO.N,GND*%
X148808200Y57658000D03*
%TD*%
D15*
%TO.P,JP14,1,A*%
%TO.N,GND*%
X27031000Y23373400D03*
%TO.P,JP14,2,B*%
%TO.N,Net-(JP14-Pad2)*%
X24491000Y23373400D03*
%TD*%
D51*
%TO.P,R25,1*%
%TO.N,Net-(R25-Pad1)*%
X8636000Y59927400D03*
%TO.P,R25,2*%
%TO.N,Net-(C15-Pad2)*%
X8636000Y61027400D03*
%TD*%
D30*
%TO.P,J12,1,1*%
%TO.N,Net-(J12-Pad1)*%
X32156400Y93954600D03*
D31*
%TO.P,J12,2,2*%
%TO.N,Net-(J12-Pad2)*%
X28346400Y93954600D03*
%TO.P,J12,3,3*%
%TO.N,Net-(J12-Pad3)*%
X24536400Y93954600D03*
%TO.P,J12,4,4*%
%TO.N,Net-(J12-Pad4)*%
X20726400Y93954600D03*
%TD*%
D67*
%TO.P,U21,1,SOURCE*%
%TO.N,Net-(J24-Pad2)*%
X81876900Y66979800D03*
%TO.P,U21,2,GATE*%
%TO.N,SIGNAL_LIGHT*%
X79971900Y66979800D03*
%TO.P,U21,3,DRAIN*%
%TO.N,GND*%
X80924400Y64693800D03*
%TD*%
D26*
%TO.P,C19,1*%
%TO.N,Net-(C19-Pad1)*%
X62509400Y49727800D03*
%TO.P,C19,2*%
%TO.N,GND*%
X62509400Y52227800D03*
%TD*%
D37*
%TO.P,R79,1*%
%TO.N,Net-(C38-Pad2)*%
X46815000Y19309400D03*
%TO.P,R79,2*%
%TO.N,FP_2_OUT*%
X40815000Y19309400D03*
%TD*%
D40*
%TO.P,R5,1*%
%TO.N,Net-(IC1-Pad12)*%
X39396600Y44432400D03*
%TO.P,R5,2*%
%TO.N,Net-(C2-Pad2)*%
X39396600Y42032400D03*
%TD*%
D15*
%TO.P,JP15,1,A*%
%TO.N,+3.3V*%
X28595000Y74173400D03*
%TO.P,JP15,2,B*%
%TO.N,Net-(JP15-Pad2)*%
X31135000Y74173400D03*
%TD*%
D30*
%TO.P,J18,1,1*%
%TO.N,Net-(J18-Pad1)*%
X21417992Y84716514D03*
D31*
%TO.P,J18,2,2*%
%TO.N,Net-(J18-Pad2)*%
X25227992Y84716514D03*
%TO.P,J18,3,3*%
%TO.N,Net-(J18-Pad3)*%
X29037992Y84716514D03*
%TO.P,J18,4,4*%
%TO.N,Net-(J18-Pad4)*%
X32847992Y84716514D03*
%TD*%
D68*
%TO.N,GND*%
X111988600Y31038800D03*
X108712000Y31089600D03*
D69*
X146050000Y48768000D03*
X70460282Y39699700D03*
D70*
X80949800Y63296800D03*
D69*
X119710200Y39299200D03*
X125349000Y51211800D03*
X22860000Y42499600D03*
X74651282Y39699700D03*
D70*
X100888800Y66116200D03*
D69*
X125349000Y39299200D03*
D71*
X42570400Y82956400D03*
D69*
X25603200Y45547600D03*
D70*
X106146600Y74980800D03*
X132774400Y73465400D03*
D69*
X131013200Y51211800D03*
X45072300Y40157400D03*
X110873122Y40644300D03*
X128117600Y48341600D03*
D72*
X155346400Y80289400D03*
D69*
X49568100Y40157400D03*
X125349000Y45217400D03*
X131013200Y45217400D03*
X140411200Y48768000D03*
X65964482Y39699700D03*
X146050000Y42849800D03*
X148361400Y36042600D03*
X28498800Y42499600D03*
X31267400Y45547600D03*
X34163000Y48417800D03*
X25654000Y51542000D03*
X122453400Y42347200D03*
X131013200Y39299200D03*
X119710200Y45217400D03*
X22860000Y54412200D03*
X34163000Y54412200D03*
X28498800Y48417800D03*
X145465800Y33172400D03*
D70*
X33401000Y78059600D03*
D69*
X22860000Y48417800D03*
X143154400Y45897800D03*
X119710200Y51211800D03*
X142722600Y36042600D03*
D73*
X122809000Y17399000D03*
D69*
X31267400Y51542000D03*
X148361400Y30124400D03*
X102186322Y40644300D03*
X28498800Y54412200D03*
X34163000Y42499600D03*
X122504200Y48341600D03*
X140411200Y42849800D03*
X142722600Y30124400D03*
X53759100Y40157400D03*
X106224922Y40644300D03*
D70*
X92278200Y88569800D03*
D69*
X128117600Y42347200D03*
D74*
%TO.N,+24V*%
X128417000Y57601800D03*
X164490400Y80035400D03*
D70*
%TO.N,Net-(C2-Pad2)*%
X45008800Y33050800D03*
X55245000Y33279400D03*
%TO.N,Net-(C8-Pad2)*%
X114312167Y36690833D03*
X102235000Y34549400D03*
%TO.N,RESET_OUT*%
X31623000Y67823400D03*
%TO.N,HOME_OUT*%
X26289000Y69088000D03*
%TO.N,START_OUT*%
X31623000Y66299400D03*
D75*
%TO.N,/StepperDriver2/1A*%
X51752500Y46558200D03*
X38836600Y62738000D03*
X39979600Y61595000D03*
%TO.N,/StepperDriver2/2A*%
X49718523Y45978758D03*
X35382200Y59613800D03*
X36703000Y58293000D03*
%TO.N,/StepperDriver2/2B*%
X33807400Y58369200D03*
X48704500Y46558200D03*
X34899600Y57277000D03*
%TO.N,/StepperDriver2/1B*%
X46228000Y46380400D03*
X41960800Y54178200D03*
X40005000Y54178200D03*
D70*
%TO.N,XYZ_RESET*%
X98679000Y38867400D03*
X41783000Y37851400D03*
X62611000Y37089400D03*
%TO.N,Y_FAULT*%
X61163200Y60756800D03*
X47447200Y30734000D03*
X57785000Y34794095D03*
X60985400Y55194200D03*
%TO.N,XYZ_DECAY*%
X104328000Y35382200D03*
X68005800Y33289400D03*
X48370500Y32816800D03*
%TO.N,Y_ENABLE*%
X68334531Y24248469D03*
X50265001Y29614801D03*
%TO.N,Y_HOME*%
X59563000Y60782200D03*
X59563000Y55270400D03*
D75*
%TO.N,/StepperDriver3/1A*%
X108651222Y46717212D03*
X99568000Y61239400D03*
X101117400Y59791600D03*
%TO.N,/StepperDriver3/2A*%
X106541922Y47082986D03*
D70*
X87503000Y87528400D03*
X99288600Y59766200D03*
X87503000Y85877400D03*
D75*
X97790000Y61239400D03*
D70*
%TO.N,/StepperDriver3/2B*%
X86309200Y83820000D03*
D75*
X105379503Y47196024D03*
D70*
X86309200Y85826600D03*
D75*
X97180400Y59715400D03*
X95504000Y61239400D03*
%TO.N,/StepperDriver3/1B*%
X95402400Y59512200D03*
X103482100Y46583600D03*
X93980000Y60985400D03*
D70*
%TO.N,Z_DIR*%
X121534722Y29332722D03*
%TO.N,Z_ENABLE*%
X104851200Y31247400D03*
X106502200Y33025400D03*
%TO.N,Z_HOME*%
X110333000Y35640400D03*
%TO.N,/StepperDriver1/1A*%
X72415400Y59359800D03*
D75*
X72438300Y46964600D03*
D70*
X72390000Y61239400D03*
%TO.N,/StepperDriver1/2A*%
X70891400Y86487000D03*
X70891400Y61239400D03*
D75*
X70683688Y46858488D03*
D70*
X70891400Y88188800D03*
X70891400Y59385200D03*
%TO.N,/StepperDriver1/2B*%
X69316600Y59385200D03*
D75*
X69342000Y46939200D03*
D70*
X69342000Y84251800D03*
X69342000Y61239400D03*
X69342000Y86055200D03*
%TO.N,/StepperDriver1/1B*%
X67564000Y61239400D03*
D75*
X67589400Y46939200D03*
D70*
X67564000Y59410600D03*
%TO.N,X_FAULT*%
X64389000Y32263400D03*
%TO.N,X_DIR*%
X69469000Y32771400D03*
%TO.N,X_ENABLE*%
X67132200Y26167400D03*
X70485000Y30734000D03*
X71145400Y27183400D03*
%TO.N,X_STEP*%
X71501000Y32207200D03*
%TO.N,X_HOME*%
X100584000Y28580400D03*
X74523600Y32816800D03*
%TO.N,Net-(C20-Pad2)*%
X75819000Y34803400D03*
X66167000Y34295400D03*
D76*
%TO.N,Net-(C29-Pad1)*%
X147250150Y10648950D03*
X147142200Y21259800D03*
D70*
%TO.N,U3RX*%
X129057400Y17399000D03*
%TO.N,LS_Z_OUT*%
X101473000Y25913400D03*
D71*
%TO.N,Net-(C33-Pad2)*%
X35585400Y84505800D03*
X38074600Y89738200D03*
D70*
%TO.N,Net-(C34-Pad2)*%
X97815400Y81381600D03*
X94259400Y84074000D03*
%TO.N,DEMUX_S2*%
X47980600Y81711800D03*
%TO.N,DEMUX_S1*%
X46609000Y80543400D03*
%TO.N,DEMUX_S0*%
X45262800Y79349600D03*
%TO.N,FP_1_OUT*%
X90322400Y53644800D03*
%TO.N,FP_2_OUT*%
X88519000Y53517800D03*
%TO.N,FP_3_OUT*%
X92303600Y53797200D03*
%TO.N,Net-(JP16-Pad2)*%
X98069400Y74584600D03*
%TO.N,XY_MS1*%
X66903600Y28778200D03*
%TO.N,XY_MS0*%
X64897000Y29895800D03*
%TO.N,Z_MS2*%
X113715800Y55219600D03*
%TO.N,Z_MS1*%
X115755000Y55123400D03*
%TO.N,Z_MS0*%
X118389400Y55168800D03*
%TO.N,SIGNAL_LIGHT*%
X78574900Y68414900D03*
%TD*%
D77*
%TO.N,Net-(JP17-Pad2)*%
X37469600Y16322200D02*
X37469600Y14377600D01*
X38404800Y17257400D02*
X37469600Y16322200D01*
%TO.N,Net-(C37-Pad2)*%
X35069600Y12463600D02*
X35069600Y14377600D01*
X34629000Y12023000D02*
X35069600Y12463600D01*
X34629000Y10927400D02*
X34629000Y12023000D01*
X34667400Y13975400D02*
X35069600Y14377600D01*
X32131000Y13975400D02*
X34667400Y13975400D01*
X35766000Y19309400D02*
X35766000Y15074000D01*
X35766000Y15074000D02*
X35069600Y14377600D01*
D78*
%TO.N,GND*%
X108712000Y31089600D02*
X111937800Y31089600D01*
D77*
X111937800Y31089600D02*
X111988600Y31038800D01*
X110528074Y40299252D02*
X110873122Y40644300D01*
X110528074Y37583600D02*
X110528074Y40299252D01*
D79*
X110873122Y40644300D02*
X110803000Y40574178D01*
D77*
X102059967Y76888433D02*
X102235000Y76713400D01*
X96969700Y77058400D02*
X100880967Y77058400D01*
X6212141Y80300856D02*
X6212141Y78324459D01*
X42595800Y42331600D02*
X44770000Y42331600D01*
X66859382Y52227800D02*
X67818682Y53187100D01*
X17673636Y78800964D02*
X18313400Y78161200D01*
D79*
X101803000Y41027622D02*
X101803000Y43493400D01*
D78*
X158058400Y82194400D02*
X156691900Y82194400D01*
D80*
X139587600Y16586200D02*
X139587600Y20959200D01*
D77*
X65522208Y42153800D02*
X66133608Y42765200D01*
X44770000Y42331600D02*
X44966500Y42528100D01*
X45839700Y51110200D02*
X47688500Y52959000D01*
D78*
X148844000Y24568150D02*
X148844000Y21266150D01*
D77*
X105333800Y61722000D02*
X106553000Y62941200D01*
X94107000Y76210400D02*
X94447600Y76210400D01*
X42354500Y51110200D02*
X45839700Y51110200D01*
X102235000Y76713400D02*
X106045000Y76713400D01*
D78*
X153390600Y31131400D02*
X147157550Y31131400D01*
X155346400Y80848900D02*
X155346400Y80289400D01*
D77*
X50241200Y58674000D02*
X50241200Y53708300D01*
X8633000Y50840500D02*
X8864600Y51072100D01*
X106045000Y75082400D02*
X106146600Y74980800D01*
D80*
X136550400Y2311400D02*
X166038514Y2311400D01*
D77*
X122579423Y76942977D02*
X122809000Y76713400D01*
X50114200Y58801000D02*
X50241200Y58674000D01*
X32131000Y11175400D02*
X32131000Y5184400D01*
D79*
X110875000Y40644300D02*
X110803000Y40572300D01*
D77*
X100076000Y11175400D02*
X100076000Y5819400D01*
X129692400Y6629400D02*
X130962400Y5359400D01*
X106045000Y76713400D02*
X109855000Y76713400D01*
X88900000Y11175400D02*
X88900000Y5819400D01*
X71120682Y53187100D02*
X67818682Y53187100D01*
D78*
X148844000Y24568150D02*
X148844000Y29641800D01*
D77*
X10185400Y78161200D02*
X14249400Y78161200D01*
X4826000Y66275400D02*
X6834000Y64267400D01*
X105844361Y76914039D02*
X106045000Y76713400D01*
X113665000Y76713400D02*
X118999000Y76713400D01*
X92954201Y86436200D02*
X92304202Y86436200D01*
X63020000Y11244900D02*
X65744500Y11244900D01*
X91654201Y86436200D02*
X92304202Y86436200D01*
X47688500Y52959000D02*
X50990500Y52959000D01*
X54921500Y11244900D02*
X54991000Y11175400D01*
X13998225Y80300856D02*
X13998225Y78412375D01*
X6580000Y48011400D02*
X8633000Y48011400D01*
D79*
X102186322Y40644300D02*
X101803000Y41027622D01*
X143256000Y46088300D02*
X143256000Y44856400D01*
D77*
X8633000Y48011400D02*
X8633000Y50840500D01*
X18313400Y78161200D02*
X22631400Y78161200D01*
D79*
X45072300Y40157400D02*
X44966500Y40263200D01*
D77*
X100888800Y65735200D02*
X104749600Y61874400D01*
X133502400Y5359400D02*
X134772400Y4089400D01*
X121221500Y18801400D02*
X122809000Y18801400D01*
X74155300Y11244900D02*
X76892500Y11244900D01*
X100076000Y5819400D02*
X99088000Y4831400D01*
X110772000Y11175400D02*
X110772000Y5085400D01*
X160111200Y82194400D02*
X160172400Y82133200D01*
X42954000Y4831400D02*
X42954000Y10568400D01*
X96291400Y77736700D02*
X96969700Y77058400D01*
D78*
X158058400Y82194400D02*
X160111200Y82194400D01*
D77*
X106045000Y76713400D02*
X106045000Y75082400D01*
X100880967Y77058400D02*
X102059967Y78237400D01*
D78*
X151638000Y47151400D02*
X145551000Y47151400D01*
X148808200Y57658000D02*
X155879800Y57658000D01*
D77*
X99791200Y53594000D02*
X99060000Y52862800D01*
D78*
X143256000Y54576400D02*
X143256000Y60909200D01*
D77*
X14249400Y78161200D02*
X18313400Y78161200D01*
X32061500Y11244900D02*
X32131000Y11175400D01*
X9995753Y80300856D02*
X9995753Y78350847D01*
D78*
X143256000Y51562000D02*
X146050000Y48768000D01*
D77*
X40643967Y82891067D02*
X40643967Y86025231D01*
X3225800Y19289400D02*
X1549400Y20965800D01*
X40643967Y82891067D02*
X42505067Y82891067D01*
X4826000Y49765400D02*
X6580000Y48011400D01*
X101923726Y43373000D02*
X102077926Y43527200D01*
X26695400Y78161200D02*
X30505400Y78161200D01*
D78*
X143256000Y60909200D02*
X142925800Y61239400D01*
D77*
X98528722Y40589212D02*
X102131234Y40589212D01*
X34104789Y78763389D02*
X34104789Y80300856D01*
X42505067Y82891067D02*
X42570400Y82956400D01*
X11747500Y19395900D02*
X12192000Y18951400D01*
D79*
X74840145Y39510837D02*
X74840145Y36821600D01*
D77*
X156616400Y94875350D02*
X156616400Y94764499D01*
D78*
X152634400Y79654400D02*
X154711400Y79654400D01*
D77*
X6560000Y31775400D02*
X4826000Y33509400D01*
X33401000Y78059600D02*
X34104789Y78763389D01*
X92278200Y86462202D02*
X92304202Y86436200D01*
X63982600Y42153800D02*
X65522208Y42153800D01*
X17971904Y80524990D02*
X17673636Y80226722D01*
X44583100Y39668200D02*
X45072300Y40157400D01*
X117932200Y62941200D02*
X119126000Y61747400D01*
X3225800Y19289400D02*
X11854000Y19289400D01*
X76482000Y10695400D02*
X76962000Y11175400D01*
X30505400Y78161200D02*
X33299400Y78161200D01*
X102131234Y40589212D02*
X102186322Y40644300D01*
X38582600Y81392000D02*
X40081667Y82891067D01*
D78*
X158120400Y55417400D02*
X158120400Y54381400D01*
D77*
X76892500Y11244900D02*
X76962000Y11175400D01*
X22278516Y78514084D02*
X22631400Y78161200D01*
X99872800Y43373000D02*
X101923726Y43373000D01*
D80*
X172618400Y8891286D02*
X172618400Y37135833D01*
D78*
X143256000Y54576400D02*
X143256000Y51562000D01*
D77*
X62484682Y39134300D02*
X65399082Y39134300D01*
X80949800Y64668400D02*
X80924400Y64693800D01*
X65399082Y39134300D02*
X65964482Y39699700D01*
X118800822Y78237400D02*
X118800822Y76911578D01*
X8699500Y34823400D02*
X8699500Y31968900D01*
X11854000Y19289400D02*
X12192000Y18951400D01*
X95948500Y77711300D02*
X96304100Y77711300D01*
X54991000Y11175400D02*
X54991000Y5644400D01*
D79*
X65858682Y39805500D02*
X65858682Y42065918D01*
D77*
X76482000Y4831400D02*
X76482000Y10695400D01*
X118800822Y76911578D02*
X118999000Y76713400D01*
D80*
X172618400Y37135833D02*
X167056833Y42697400D01*
D79*
X74651282Y39699700D02*
X74840145Y39510837D01*
D77*
X113514611Y78237400D02*
X113514611Y76863789D01*
D80*
X166038514Y2311400D02*
X172618400Y8891286D01*
D77*
X65744500Y11244900D02*
X65814000Y11175400D01*
X9995753Y78350847D02*
X10185400Y78161200D01*
X100006500Y11244900D02*
X100076000Y11175400D01*
X109692463Y76875937D02*
X109855000Y76713400D01*
X13998225Y78412375D02*
X14249400Y78161200D01*
X1549400Y20965800D02*
X1549400Y30232800D01*
X8864600Y64753000D02*
X8379000Y64267400D01*
X65814000Y5311400D02*
X65334000Y4831400D01*
X126619000Y76713400D02*
X128872677Y76713400D01*
D80*
X134772400Y4089400D02*
X136550400Y2311400D01*
D77*
X118999000Y76713400D02*
X122809000Y76713400D01*
X29337000Y11244900D02*
X32061500Y11244900D01*
X40081667Y82891067D02*
X40643967Y82891067D01*
X11747500Y21107400D02*
X11747500Y19395900D01*
X41592500Y39668200D02*
X44583100Y39668200D01*
X6375400Y78161200D02*
X10185400Y78161200D01*
X39963999Y86055200D02*
X40613998Y86055200D01*
D78*
X156616400Y94764499D02*
X148560301Y86708400D01*
D77*
X124249500Y18801400D02*
X124269500Y18821400D01*
X30111414Y80300856D02*
X30111414Y78555186D01*
X113514611Y76863789D02*
X113665000Y76713400D01*
D79*
X44966500Y40263200D02*
X44966500Y42528100D01*
D77*
X126465520Y78237400D02*
X126465520Y76866880D01*
X41263999Y86055200D02*
X40613998Y86055200D01*
X92278200Y88569800D02*
X92278200Y86462202D01*
D80*
X139587600Y20959200D02*
X140421600Y21793200D01*
D77*
X110702500Y11244900D02*
X110772000Y11175400D01*
D78*
X140411200Y48768000D02*
X139856000Y49323200D01*
D77*
X8864600Y67328100D02*
X8864600Y64753000D01*
X96774000Y11244900D02*
X100006500Y11244900D01*
D78*
X147157550Y31131400D02*
X145440400Y32848550D01*
D77*
X43491500Y11244900D02*
X43561000Y11175400D01*
D78*
X145440400Y24568150D02*
X145440400Y32848550D01*
D79*
X65858682Y42065918D02*
X65858682Y42731400D01*
D77*
X1549400Y30232800D02*
X4826000Y33509400D01*
X130962400Y5359400D02*
X133502400Y5359400D01*
X33299400Y78161200D02*
X33401000Y78059600D01*
X62509400Y52227800D02*
X66859382Y52227800D01*
X50114200Y62204600D02*
X50114200Y58801000D01*
X88830500Y11244900D02*
X88900000Y11175400D01*
X128872677Y76713400D02*
X130396677Y78237400D01*
X88900000Y5819400D02*
X87912000Y4831400D01*
X110772000Y5085400D02*
X110518000Y4831400D01*
X104749600Y61874400D02*
X105333800Y61874400D01*
X6212141Y78324459D02*
X6375400Y78161200D01*
X65814000Y11175400D02*
X65814000Y5311400D01*
D80*
X137092400Y14091000D02*
X139587600Y16586200D01*
D79*
X53966500Y39950000D02*
X53966500Y37181300D01*
D77*
X32131000Y5184400D02*
X31778000Y4831400D01*
X122809000Y18801400D02*
X122809000Y17399000D01*
D78*
X158058400Y78384400D02*
X156691900Y78384400D01*
X156691900Y78384400D02*
X155346400Y79729900D01*
D77*
X85991700Y11244900D02*
X88830500Y11244900D01*
X54991000Y5644400D02*
X54178000Y4831400D01*
X108077000Y11244900D02*
X110702500Y11244900D01*
D80*
X137092400Y13233400D02*
X137092400Y14091000D01*
D77*
X8506000Y31775400D02*
X6560000Y31775400D01*
D80*
X167056833Y42697400D02*
X166344400Y42697400D01*
D77*
X102059967Y78237400D02*
X102059967Y76888433D01*
X100888800Y65989200D02*
X100888800Y65735200D01*
D79*
X53759100Y40157400D02*
X53966500Y39950000D01*
D77*
X30111414Y78555186D02*
X30505400Y78161200D01*
X8699500Y31968900D02*
X8506000Y31775400D01*
X122809000Y76713400D02*
X126619000Y76713400D01*
X105384600Y53594000D02*
X108762800Y53594000D01*
X109692463Y78237400D02*
X109692463Y76875937D01*
X105844361Y78237400D02*
X105844361Y76914039D01*
X108762800Y53594000D02*
X108788200Y53619400D01*
D79*
X65964482Y39699700D02*
X65858682Y39805500D01*
D77*
X42954000Y10568400D02*
X43561000Y11175400D01*
X135026400Y73465400D02*
X132774400Y73465400D01*
X94447600Y76210400D02*
X95948500Y77711300D01*
X106553000Y62941200D02*
X117932200Y62941200D01*
X6834000Y64267400D02*
X8379000Y64267400D01*
X126465520Y76866880D02*
X126619000Y76713400D01*
D78*
X148844000Y21266150D02*
X150368000Y19742150D01*
D77*
X51689000Y11244900D02*
X54921500Y11244900D01*
D78*
X155879800Y57658000D02*
X158120400Y55417400D01*
D77*
X100914200Y66014600D02*
X100888800Y65989200D01*
X26322213Y78534387D02*
X26695400Y78161200D01*
X122579423Y78237400D02*
X122579423Y76942977D01*
D78*
X155346400Y79729900D02*
X155346400Y80289400D01*
X139856000Y49323200D02*
X139856000Y54576400D01*
D77*
X109855000Y76713400D02*
X113665000Y76713400D01*
X26322213Y80300856D02*
X26322213Y78534387D01*
X122809000Y18801400D02*
X124249500Y18801400D01*
X40643967Y86025231D02*
X40613998Y86055200D01*
X50241200Y53708300D02*
X50990500Y52959000D01*
X40668000Y11244900D02*
X43491500Y11244900D01*
X22631400Y78161200D02*
X26695400Y78161200D01*
X105384600Y53594000D02*
X99791200Y53594000D01*
X148844000Y29641800D02*
X148361400Y30124400D01*
X145551000Y47151400D02*
X143256000Y44856400D01*
X22278516Y80300856D02*
X22278516Y78514084D01*
X17673636Y80226722D02*
X17673636Y78800964D01*
D78*
X156691900Y82194400D02*
X155346400Y80848900D01*
D77*
X80949800Y63296800D02*
X80949800Y64668400D01*
D81*
%TO.N,+24V*%
X147278000Y54576400D02*
X147083000Y54381400D01*
D82*
X159530400Y25189400D02*
X159530400Y31249400D01*
X161442400Y8407400D02*
X157632400Y8407400D01*
D83*
X146656000Y57161400D02*
X147152600Y57658000D01*
D82*
X155620400Y35159400D02*
X155620400Y54381400D01*
D83*
X142077200Y21793200D02*
X142077200Y24527750D01*
D82*
X159530400Y25189400D02*
X164236400Y20483400D01*
D84*
X160614600Y80035400D02*
X160172400Y80477600D01*
D82*
X159530400Y31249400D02*
X155620400Y35159400D01*
D84*
X160172400Y80477600D02*
X160172400Y80543400D01*
D78*
X160172400Y80477600D02*
X159725600Y80924400D01*
D82*
X58820600Y57347400D02*
X56616600Y55143400D01*
X161791650Y85782150D02*
X164490400Y83083400D01*
D83*
X142077200Y21793200D02*
X142077200Y16596600D01*
D78*
X159725600Y80924400D02*
X158058400Y80924400D01*
D82*
X112460400Y57601800D02*
X111506000Y56647400D01*
X74676000Y57155400D02*
X74484000Y57347400D01*
X74484000Y57347400D02*
X58820600Y57347400D01*
X157632400Y8407400D02*
X151688800Y14351000D01*
D83*
X146656000Y54576400D02*
X146656000Y57161400D01*
D82*
X111506000Y56647400D02*
X91536200Y56647400D01*
X164236400Y20483400D02*
X164236400Y11201400D01*
X128417000Y57601800D02*
X112460400Y57601800D01*
X74676000Y57155400D02*
X90850400Y57155400D01*
X164490400Y83083400D02*
X164490400Y80035400D01*
X144322800Y14351000D02*
X142087600Y16586200D01*
X90850400Y57155400D02*
X91338400Y56667400D01*
X91536200Y56647400D02*
X87020400Y61163200D01*
D83*
X142077200Y24527750D02*
X142036800Y24568150D01*
D81*
X155425400Y54576400D02*
X147278000Y54576400D01*
D82*
X164236400Y11201400D02*
X161442400Y8407400D01*
X151688800Y14351000D02*
X144322800Y14351000D01*
D81*
X155620400Y54381400D02*
X155425400Y54576400D01*
D82*
X156616400Y85782150D02*
X161791650Y85782150D01*
D84*
X164490400Y80035400D02*
X160614600Y80035400D01*
D83*
X142077200Y16596600D02*
X142087600Y16586200D01*
D77*
%TO.N,Net-(C2-Pad2)*%
X39422000Y42057800D02*
X38100000Y40735800D01*
X38100000Y40735800D02*
X38100000Y36601400D01*
X45008800Y33050800D02*
X45008800Y34578200D01*
X34848800Y31470600D02*
X39046400Y35668200D01*
X38100000Y36601400D02*
X39033200Y35668200D01*
X56345000Y34379400D02*
X55245000Y33279400D01*
X45008800Y34578200D02*
X45055000Y34624400D01*
X34874200Y31038800D02*
X34848800Y31064200D01*
X44011200Y35668200D02*
X45055000Y34624400D01*
X45241426Y36122826D02*
X45055000Y35936400D01*
X56345000Y34878400D02*
X56345000Y34379400D01*
X34848800Y31064200D02*
X34848800Y31470600D01*
X45055000Y35936400D02*
X45055000Y34624400D01*
X41592500Y35668200D02*
X44011200Y35668200D01*
X45241426Y37147500D02*
X45241426Y36122826D01*
X39033200Y35668200D02*
X41592500Y35668200D01*
X39046400Y35668200D02*
X41592500Y35668200D01*
%TO.N,Net-(C8-Pad2)*%
X102310000Y35849400D02*
X101844000Y35849400D01*
X101079812Y36589212D02*
X98528722Y36589212D01*
X95250000Y41910000D02*
X95250000Y39867934D01*
X95250000Y39867934D02*
X98528722Y36589212D01*
X102235000Y34549400D02*
X102235000Y35774400D01*
X102235000Y35774400D02*
X102310000Y35849400D01*
X97613400Y42972200D02*
X96312200Y42972200D01*
X112574000Y37935400D02*
X113067600Y37935400D01*
X93497400Y49936400D02*
X96037400Y47396400D01*
X102077926Y36081474D02*
X102310000Y35849400D01*
X96312200Y42972200D02*
X96037400Y42697400D01*
X102077926Y37583600D02*
X102077926Y36081474D01*
X101092000Y36601400D02*
X101079812Y36589212D01*
X101844000Y35849400D02*
X101092000Y36601400D01*
X96037400Y47396400D02*
X96037400Y42697400D01*
X96037400Y42697400D02*
X95250000Y41910000D01*
X113067600Y37935400D02*
X114312167Y36690833D01*
%TO.N,Net-(C13-Pad2)*%
X91356000Y18765400D02*
X91900000Y19309400D01*
X88900000Y13975400D02*
X90923000Y13975400D01*
X91398000Y14366400D02*
X91356000Y14408400D01*
X90923000Y13975400D02*
X91356000Y14408400D01*
X91398000Y10927400D02*
X91398000Y14366400D01*
X91356000Y14408400D02*
X91356000Y18765400D01*
%TO.N,Net-(C14-Pad2)*%
X11433000Y48011400D02*
X11433000Y46161400D01*
X9694000Y45321400D02*
X8636000Y44263400D01*
X10593000Y45321400D02*
X16073000Y45321400D01*
X16073000Y45321400D02*
X16129000Y45265400D01*
X11433000Y46161400D02*
X10593000Y45321400D01*
X10593000Y45321400D02*
X9694000Y45321400D01*
%TO.N,Net-(C15-Pad2)*%
X11179000Y64267400D02*
X11179000Y62417400D01*
X11179000Y62417400D02*
X10593000Y61831400D01*
X16129000Y62049400D02*
X10811000Y62049400D01*
X10811000Y62049400D02*
X10593000Y61831400D01*
X8636000Y61027400D02*
X9789000Y61027400D01*
X9789000Y61027400D02*
X10593000Y61831400D01*
%TO.N,Net-(C16-Pad2)*%
X80216000Y19309400D02*
X80216000Y15206400D01*
X79714000Y14112400D02*
X79418000Y14408400D01*
X80216000Y15206400D02*
X79418000Y14408400D01*
X79714000Y10927400D02*
X79714000Y14112400D01*
X78985000Y13975400D02*
X79418000Y14408400D01*
X76962000Y13975400D02*
X78985000Y13975400D01*
D80*
%TO.N,+3.3V*%
X28595000Y69717600D02*
X18338800Y59461400D01*
X28595000Y74173400D02*
X28595000Y69717600D01*
X18338800Y59461400D02*
X15728000Y59461400D01*
D77*
%TO.N,RESET_OUT*%
X16129000Y51265400D02*
X16129000Y55885400D01*
X15935700Y51072100D02*
X16129000Y51265400D01*
X16129000Y55885400D02*
X28067000Y67823400D01*
X10261600Y51072100D02*
X15935700Y51072100D01*
X28067000Y67823400D02*
X31623000Y67823400D01*
%TO.N,HOME_OUT*%
X15407700Y67328100D02*
X16129000Y68049400D01*
X10261600Y67328100D02*
X15407700Y67328100D01*
X25250400Y68049400D02*
X16129000Y68049400D01*
X26289000Y69088000D02*
X25250400Y68049400D01*
%TO.N,Net-(C18-Pad2)*%
X113524000Y10927400D02*
X113524000Y14112400D01*
X113524000Y14112400D02*
X113228000Y14408400D01*
X110772000Y13975400D02*
X112795000Y13975400D01*
X112795000Y13975400D02*
X113228000Y14408400D01*
X113228000Y18511400D02*
X114026000Y19309400D01*
X113228000Y14408400D02*
X113228000Y18511400D01*
%TO.N,START_OUT*%
X19177000Y57409400D02*
X28067000Y66299400D01*
X10096500Y34823400D02*
X15415000Y34823400D01*
X16129000Y36073400D02*
X19177000Y39121400D01*
X19177000Y39121400D02*
X19177000Y57409400D01*
X16129000Y35537400D02*
X16129000Y36073400D01*
X15415000Y34823400D02*
X16129000Y35537400D01*
X28067000Y66299400D02*
X31623000Y66299400D01*
D85*
%TO.N,/StepperDriver2/1A*%
X52933600Y73685400D02*
X56346200Y77098000D01*
X39979600Y61595000D02*
X38836600Y62738000D01*
X38836600Y71882000D02*
X40640000Y73685400D01*
X56346200Y77098000D02*
X56346200Y92391000D01*
X40640000Y73685400D02*
X52933600Y73685400D01*
D86*
X51091500Y44383433D02*
X51752500Y45044433D01*
X51752500Y45044433D02*
X51752500Y46558200D01*
X51091500Y43057300D02*
X51091500Y44383433D01*
D85*
X38836600Y62738000D02*
X38836600Y71882000D01*
D77*
%TO.N,Net-(IC1-Pad6)*%
X50441500Y44682370D02*
X50916300Y45157170D01*
X50441500Y43057300D02*
X50441500Y44682370D01*
X50916300Y48211200D02*
X50990500Y48285400D01*
X50916300Y45157170D02*
X50916300Y48211200D01*
D85*
%TO.N,/StepperDriver2/2A*%
X39116000Y76479400D02*
X49733200Y76479400D01*
X49733200Y76479400D02*
X51638200Y78384400D01*
X51638200Y78384400D02*
X51638200Y89479000D01*
D86*
X49795500Y45901781D02*
X49795500Y43095094D01*
D85*
X35382200Y59613800D02*
X35382200Y72745600D01*
X35382200Y72745600D02*
X39116000Y76479400D01*
D86*
X49718523Y45978758D02*
X49795500Y45901781D01*
D85*
X36703000Y58293000D02*
X35382200Y59613800D01*
X51638200Y89479000D02*
X48726200Y92391000D01*
%TO.N,/StepperDriver2/2B*%
X47345600Y78003400D02*
X49225200Y79883000D01*
X49225200Y79883000D02*
X49225200Y88082000D01*
X33807400Y58369200D02*
X33807400Y73202800D01*
X38608000Y78003400D02*
X47345600Y78003400D01*
X34899600Y57277000D02*
X33807400Y58369200D01*
D86*
X49141500Y43057300D02*
X49141500Y44644725D01*
X48691800Y45094425D02*
X48691800Y46545500D01*
X48691800Y46545500D02*
X48704500Y46558200D01*
X49141500Y44644725D02*
X48691800Y45094425D01*
D85*
X49225200Y88082000D02*
X44916200Y92391000D01*
X33807400Y73202800D02*
X38608000Y78003400D01*
D77*
%TO.N,Net-(IC1-Pad9)*%
X48491500Y44475895D02*
X47421800Y45545595D01*
X48491500Y43057300D02*
X48491500Y44475895D01*
X47421800Y45545595D02*
X47421800Y48018700D01*
X47421800Y48018700D02*
X47688500Y48285400D01*
D85*
%TO.N,/StepperDriver2/1B*%
X40005000Y54178200D02*
X38608000Y55575200D01*
D86*
X46228000Y46380400D02*
X46228000Y45732700D01*
D85*
X37236400Y72313800D02*
X40132000Y75209400D01*
D86*
X46228000Y45732700D02*
X47841500Y44119200D01*
D85*
X38608000Y59893200D02*
X37236400Y61264800D01*
X54178200Y90749000D02*
X52536200Y92391000D01*
X51333400Y75209400D02*
X54178200Y78054200D01*
D86*
X47841500Y44119200D02*
X47841500Y43057300D01*
D85*
X40132000Y75209400D02*
X51333400Y75209400D01*
X38608000Y55575200D02*
X38608000Y59893200D01*
X37236400Y61264800D02*
X37236400Y72313800D01*
X41960800Y54178200D02*
X40005000Y54178200D01*
X54178200Y78054200D02*
X54178200Y90749000D01*
D77*
%TO.N,Net-(IC1-Pad12)*%
X42595800Y44231600D02*
X45646326Y44231600D01*
X45646326Y44231600D02*
X46541449Y43336477D01*
X42395000Y44432400D02*
X42595800Y44231600D01*
X46541500Y43057300D02*
X45891500Y43057300D01*
X39396600Y44432400D02*
X42395000Y44432400D01*
X46541449Y43336477D02*
X46541449Y43091100D01*
%TO.N,XYZ_RESET*%
X67433631Y37304200D02*
X66866431Y37871400D01*
X103378000Y38125400D02*
X102616000Y38887400D01*
X46541449Y37147500D02*
X46541449Y37630100D01*
X42311000Y38379400D02*
X41783000Y37851400D01*
X46541449Y37630100D02*
X45792149Y38379400D01*
X46541449Y37147500D02*
X46609000Y37079949D01*
X67433631Y36821600D02*
X67433631Y37304200D01*
X45891500Y37181300D02*
X46541500Y37181300D01*
X45891500Y37181300D02*
X45878518Y37168318D01*
X102728000Y37617400D02*
X103378000Y37617400D01*
X46609000Y37079949D02*
X46609000Y27203400D01*
X102616000Y38887400D02*
X98699000Y38887400D01*
X98699000Y38887400D02*
X98679000Y38867400D01*
X66783619Y36821600D02*
X67433631Y36821600D01*
X103378000Y37617400D02*
X103378000Y38125400D01*
X103403279Y37592121D02*
X103378000Y37617400D01*
X63393000Y37871400D02*
X62611000Y37089400D01*
X66866431Y37871400D02*
X63393000Y37871400D01*
X45792149Y38379400D02*
X42311000Y38379400D01*
%TO.N,Y_FAULT*%
X47191460Y35841140D02*
X47455000Y35577600D01*
X60248800Y41935400D02*
X57839000Y39525600D01*
X47191460Y37147500D02*
X47191460Y35841140D01*
X47404200Y30777000D02*
X47447200Y30734000D01*
X60985400Y55194200D02*
X60985400Y55143400D01*
X58623200Y52781200D02*
X58623200Y49428400D01*
X60985400Y55143400D02*
X58623200Y52781200D01*
X56184800Y65735200D02*
X51257200Y65735200D01*
X51257200Y65735200D02*
X49149000Y67843400D01*
X57839000Y39525600D02*
X57839000Y34848095D01*
X47404200Y34624400D02*
X47404200Y30777000D01*
X57839000Y34848095D02*
X57785000Y34794095D01*
X47455000Y35577600D02*
X47455000Y34624400D01*
X58623200Y49428400D02*
X60248800Y47802800D01*
X60248800Y47802800D02*
X60248800Y41935400D01*
X61163200Y60756800D02*
X56184800Y65735200D01*
%TO.N,XYZ_DECAY*%
X48387000Y27965400D02*
X49149000Y27203400D01*
X104328000Y35382200D02*
X104677972Y35732172D01*
X47841472Y36080128D02*
X47841472Y37147500D01*
X48370500Y32816800D02*
X48387000Y32800300D01*
X68733654Y34017254D02*
X68733654Y36821600D01*
X48387000Y32800300D02*
X48387000Y27965400D01*
X68005800Y33289400D02*
X68733654Y34017254D01*
X104677972Y35732172D02*
X104677972Y37583600D01*
X48370500Y35551100D02*
X47841472Y36080128D01*
X48370500Y32816800D02*
X48370500Y35551100D01*
%TO.N,Y_DIR*%
X48491483Y37147500D02*
X48491483Y36142881D01*
X49301400Y29006800D02*
X51104800Y27203400D01*
X51104800Y27203400D02*
X51689000Y27203400D01*
X48491483Y36142881D02*
X49301400Y35332964D01*
X49301400Y35332964D02*
X49301400Y29006800D01*
%TO.N,Y_ENABLE*%
X63855600Y23291800D02*
X63160000Y23987400D01*
X49860200Y35490596D02*
X49860200Y30028200D01*
X62358069Y25974400D02*
X55458000Y25974400D01*
X51435000Y28453400D02*
X52979000Y28453400D01*
X52979000Y28453400D02*
X54229000Y27203400D01*
X49860200Y30028200D02*
X51435000Y28453400D01*
X63160000Y25172469D02*
X62358069Y25974400D01*
X68334531Y24248469D02*
X67377862Y23291800D01*
X63160000Y23987400D02*
X63160000Y25172469D01*
X67377862Y23291800D02*
X63855600Y23291800D01*
X49141494Y37147500D02*
X49141494Y36209302D01*
X49141494Y36209302D02*
X49860200Y35490596D01*
X55458000Y25974400D02*
X54229000Y27203400D01*
%TO.N,Y_STEP*%
X50520600Y30683200D02*
X51988400Y29215400D01*
X54757000Y29215400D02*
X56769000Y27203400D01*
X51988400Y29215400D02*
X54757000Y29215400D01*
X49791506Y36272054D02*
X50520600Y35542960D01*
X49791506Y37147500D02*
X49791506Y36272054D01*
X50520600Y35542960D02*
X50520600Y30683200D01*
%TO.N,Y_HOME*%
X57335000Y39885200D02*
X57335000Y38268400D01*
X59563000Y55270400D02*
X59486800Y55270400D01*
X59461400Y47523400D02*
X59461400Y42011600D01*
X58039000Y48945800D02*
X59461400Y47523400D01*
X53041563Y37147500D02*
X53041563Y35781837D01*
X58039000Y53822600D02*
X58039000Y48945800D01*
X46710600Y67843400D02*
X46609000Y67843400D01*
X57335000Y38268400D02*
X53945000Y34878400D01*
X59563000Y60782200D02*
X55397400Y64947800D01*
X49606200Y64947800D02*
X46710600Y67843400D01*
X55397400Y64947800D02*
X49606200Y64947800D01*
X59461400Y42011600D02*
X57335000Y39885200D01*
X53041563Y35781837D02*
X53945000Y34878400D01*
X59486800Y55270400D02*
X58039000Y53822600D01*
D85*
%TO.N,/StepperDriver3/1A*%
X99568000Y61239400D02*
X88773000Y72034400D01*
D87*
X101117400Y59791600D02*
X101015800Y59791600D01*
D86*
X107928000Y43493400D02*
X107928000Y45342400D01*
X107928000Y45342400D02*
X108688722Y46103122D01*
X108688722Y46103122D02*
X108688722Y46679712D01*
D85*
X88773000Y72034400D02*
X88773000Y92026400D01*
D86*
X108688722Y46679712D02*
X108651222Y46717212D01*
D85*
X88773000Y92026400D02*
X89264600Y92518000D01*
X101015800Y59791600D02*
X99568000Y61239400D01*
D77*
%TO.N,Net-(IC2-Pad6)*%
X107278017Y43527200D02*
X107278017Y46526573D01*
X108788200Y48036756D02*
X108788200Y48945800D01*
X107278017Y46526573D02*
X108788200Y48036756D01*
D85*
%TO.N,/StepperDriver3/2A*%
X99263200Y59766200D02*
X97790000Y61239400D01*
D88*
X106541922Y47082986D02*
X106541922Y45994104D01*
X106628006Y45908020D02*
X106628006Y43527200D01*
D87*
X99288600Y59766200D02*
X99263200Y59766200D01*
D88*
X106541922Y45994104D02*
X106628006Y45908020D01*
D85*
X87503000Y87528400D02*
X87503000Y71526400D01*
X87503000Y71526400D02*
X97790000Y61239400D01*
D87*
%TO.N,/StepperDriver3/2B*%
X97180400Y59715400D02*
X97028000Y59715400D01*
D88*
X105379503Y46258497D02*
X105978000Y45660000D01*
D85*
X97028000Y59715400D02*
X95504000Y61239400D01*
X86309200Y70434200D02*
X95504000Y61239400D01*
D88*
X105379503Y47196024D02*
X105379503Y46258497D01*
D85*
X86309200Y85826600D02*
X86309200Y70434200D01*
D88*
X105978000Y45660000D02*
X105978000Y43493400D01*
D77*
%TO.N,Net-(IC2-Pad9)*%
X105327983Y45339385D02*
X104317800Y46349568D01*
X104317800Y47853600D02*
X105384600Y48920400D01*
X105327983Y43527200D02*
X105327983Y45339385D01*
X104317800Y46349568D02*
X104317800Y47853600D01*
D85*
%TO.N,/StepperDriver3/1B*%
X95402400Y59563000D02*
X93980000Y60985400D01*
D86*
X104678000Y44851800D02*
X104678000Y43493400D01*
D85*
X95402400Y59563000D02*
X84937600Y70027800D01*
X84937600Y70027800D02*
X84937600Y92001000D01*
D86*
X103482100Y46583600D02*
X103482100Y46047700D01*
D85*
X84937600Y92001000D02*
X85454600Y92518000D01*
D87*
X95402400Y59512200D02*
X95402400Y59563000D01*
D86*
X103482100Y46047700D02*
X104678000Y44851800D01*
D77*
%TO.N,Net-(IC2-Pad12)*%
X97712600Y45273000D02*
X97613400Y45372200D01*
X99872800Y45273000D02*
X97712600Y45273000D01*
X101666000Y45273000D02*
X103377949Y43561051D01*
X103378000Y43493400D02*
X102728000Y43493400D01*
X103377949Y43561051D02*
X103377949Y43527200D01*
X99872800Y45273000D02*
X101666000Y45273000D01*
%TO.N,Z_FAULT*%
X102310000Y33449400D02*
X103863000Y33449400D01*
X104027960Y37583600D02*
X104027960Y36605665D01*
X103505000Y36082705D02*
X103505000Y33807400D01*
X103505000Y33807400D02*
X103863000Y33449400D01*
X103863000Y33449400D02*
X110109000Y27203400D01*
X104027960Y36605665D02*
X103505000Y36082705D01*
%TO.N,Z_DIR*%
X105327983Y32848017D02*
X108839000Y29337000D01*
X108839000Y29337000D02*
X121516200Y29337000D01*
X121534722Y25937678D02*
X122809000Y24663400D01*
X105327983Y37583600D02*
X105327983Y32848017D01*
X121534722Y29332722D02*
X121534722Y25937678D01*
%TO.N,Z_ENABLE*%
X120383400Y32143600D02*
X107384000Y32143600D01*
X105977994Y37583600D02*
X105977994Y33549606D01*
X95504000Y30587000D02*
X95504000Y37769800D01*
X124079000Y28448000D02*
X120383400Y32143600D01*
X96342200Y29748800D02*
X95504000Y30587000D01*
X125349000Y24663400D02*
X124079000Y25933400D01*
X104851200Y31247400D02*
X103632000Y30028200D01*
X124079000Y25933400D02*
X124079000Y28448000D01*
X105977994Y33549606D02*
X106502200Y33025400D01*
X107384000Y32143600D02*
X106502200Y33025400D01*
X95504000Y37769800D02*
X93497400Y39776400D01*
X103632000Y30028200D02*
X96088200Y30028200D01*
%TO.N,Z_STEP*%
X129438400Y26212800D02*
X129438400Y28473400D01*
X129438400Y28473400D02*
X125264200Y32647600D01*
X106628006Y34899230D02*
X106628006Y37583600D01*
X125264200Y32647600D02*
X108879636Y32647600D01*
X127889000Y24663400D02*
X128663700Y25438100D01*
X132740400Y25933400D02*
X129159000Y25933400D01*
X136804400Y29997400D02*
X132740400Y25933400D01*
X128663700Y25438100D02*
X129438400Y26212800D01*
X108879636Y32647600D02*
X106628006Y34899230D01*
X129159000Y25933400D02*
X128663700Y25438100D01*
%TO.N,Z_HOME*%
X109878063Y36095337D02*
X109878063Y37583600D01*
X112469000Y35640400D02*
X112574000Y35535400D01*
X110333000Y35640400D02*
X112469000Y35640400D01*
X109878063Y36095337D02*
X110333000Y35640400D01*
D86*
%TO.N,/StepperDriver1/1A*%
X71983682Y45389882D02*
X71983682Y42731400D01*
D85*
X72390000Y91950200D02*
X72805400Y92365600D01*
X72390000Y61239400D02*
X72390000Y91950200D01*
X72415400Y59359800D02*
X72415400Y61214000D01*
D86*
X72438300Y45844500D02*
X71983682Y45389882D01*
X72438300Y46964600D02*
X72438300Y45844500D01*
D77*
%TO.N,Net-(IC3-Pad6)*%
X71333699Y45650394D02*
X71602600Y45919295D01*
X71602600Y45919295D02*
X71602600Y48031582D01*
X71333699Y42765200D02*
X71333699Y45650394D01*
X71602600Y48031582D02*
X71120682Y48513500D01*
D85*
%TO.N,/StepperDriver1/2A*%
X70891400Y61239400D02*
X70891400Y88188800D01*
D86*
X70683688Y46858488D02*
X70683688Y42765200D01*
D85*
X70891400Y59385200D02*
X70891400Y61239400D01*
D88*
%TO.N,/StepperDriver1/2B*%
X70033676Y42765200D02*
X70033676Y44520324D01*
X69342000Y45212000D02*
X69342000Y46939200D01*
D85*
X69316600Y59385200D02*
X69316600Y61214000D01*
D87*
X69316600Y61214000D02*
X69342000Y61239400D01*
D88*
X70033676Y44520324D02*
X69342000Y45212000D01*
D85*
X69342000Y61239400D02*
X69342000Y86055200D01*
D77*
%TO.N,Net-(IC3-Pad9)*%
X68453000Y47879182D02*
X68453000Y45034200D01*
X67818682Y48513500D02*
X68453000Y47879182D01*
X68453000Y45034200D02*
X69383682Y44103518D01*
X69383682Y44103518D02*
X69383682Y42731400D01*
D85*
%TO.N,/StepperDriver1/1B*%
X67564000Y59410600D02*
X67564000Y61239400D01*
X67564000Y90934200D02*
X68995400Y92365600D01*
X67564000Y61239400D02*
X67564000Y90934200D01*
D86*
X67589400Y44983400D02*
X67589400Y46939200D01*
X68733682Y43839118D02*
X67589400Y44983400D01*
X68733682Y42731400D02*
X68733682Y43839118D01*
D77*
%TO.N,Net-(IC3-Pad12)*%
X66390408Y44053800D02*
X63982600Y44053800D01*
X61672400Y44305400D02*
X63731000Y44305400D01*
X63731000Y44305400D02*
X63982600Y44053800D01*
X67433682Y42731400D02*
X66783682Y42731400D01*
X67433631Y42765200D02*
X67433631Y43010577D01*
X67433631Y43010577D02*
X66390408Y44053800D01*
%TO.N,X_FAULT*%
X67437000Y34136400D02*
X66242000Y32941400D01*
X66242000Y32941400D02*
X65067000Y32941400D01*
X68083642Y36821600D02*
X68083642Y35459347D01*
X68083642Y35459347D02*
X67437000Y34812705D01*
X67437000Y34812705D02*
X67437000Y34136400D01*
X65067000Y32941400D02*
X64389000Y32263400D01*
%TO.N,X_DIR*%
X69383665Y32856735D02*
X69383665Y36821600D01*
X69469000Y32771400D02*
X69383665Y32856735D01*
%TO.N,X_ENABLE*%
X70485000Y34812705D02*
X70033676Y35264029D01*
X93980000Y35001200D02*
X93980000Y33025400D01*
X93980000Y33025400D02*
X90982800Y30028200D01*
X70033676Y35264029D02*
X70033676Y36821600D01*
X71145400Y27183400D02*
X70129400Y26167400D01*
X70129400Y26167400D02*
X67132200Y26167400D01*
X70485000Y30734000D02*
X70485000Y34812705D01*
%TO.N,X_STEP*%
X71501000Y34812705D02*
X70683688Y35630017D01*
X71501000Y32207200D02*
X71501000Y34812705D01*
X70683688Y35630017D02*
X70683688Y36821600D01*
%TO.N,X_HOME*%
X74519000Y34878400D02*
X74037000Y35360400D01*
X74523600Y33578800D02*
X74519000Y33583400D01*
X74037000Y35360400D02*
X74037000Y35362364D01*
X74037000Y35362364D02*
X73907145Y35492219D01*
X74523600Y32816800D02*
X74523600Y33578800D01*
X106319000Y25913400D02*
X107569000Y24663400D01*
X74519000Y33583400D02*
X74519000Y34878400D01*
X100584000Y28580400D02*
X103251000Y25913400D01*
X103251000Y25913400D02*
X106319000Y25913400D01*
X73907145Y35492219D02*
X73907145Y36821600D01*
%TO.N,Net-(C17-Pad2)*%
X13387000Y14333400D02*
X16927000Y14333400D01*
X12837000Y13783400D02*
X13387000Y14333400D01*
X11430000Y13783400D02*
X12837000Y13783400D01*
X12192000Y15528400D02*
X13387000Y14333400D01*
X12192000Y16151400D02*
X12192000Y15528400D01*
X16927000Y14333400D02*
X18161000Y15567400D01*
D86*
%TO.N,Net-(C19-Pad1)*%
X74676000Y54299400D02*
X74676000Y54107400D01*
D77*
X67676000Y43779200D02*
X67965031Y43779200D01*
X72633682Y44809100D02*
X73594882Y45770300D01*
D86*
X75037000Y54254400D02*
X74676000Y54615400D01*
D77*
X62509400Y48945800D02*
X67676000Y43779200D01*
X62509400Y49727800D02*
X62509400Y48945800D01*
D86*
X63353000Y50571400D02*
X62509400Y49727800D01*
X74676000Y49005618D02*
X74234682Y48564300D01*
D77*
X68083642Y43660589D02*
X68083642Y42765200D01*
D86*
X74772000Y54203400D02*
X74676000Y54299400D01*
D77*
X73594882Y45770300D02*
X73594882Y47924500D01*
X73594882Y47924500D02*
X74234682Y48564300D01*
X67965031Y43779200D02*
X68083642Y43660589D01*
D86*
X74676000Y54107400D02*
X71140000Y50571400D01*
X77927200Y54254400D02*
X77927200Y51562000D01*
X77927200Y54254400D02*
X75037000Y54254400D01*
X74676000Y54615400D02*
X74676000Y49005618D01*
X71140000Y50571400D02*
X63353000Y50571400D01*
D77*
X72633682Y42731400D02*
X72633682Y44809100D01*
D86*
X77927200Y51562000D02*
X78765400Y50723800D01*
D77*
%TO.N,Net-(C20-Pad2)*%
X66242000Y35341400D02*
X62691782Y35341400D01*
X66167000Y34295400D02*
X66167000Y35266400D01*
X75819000Y34803400D02*
X76844000Y34803400D01*
X66167000Y35266400D02*
X66242000Y35341400D01*
X76844000Y34803400D02*
X76919000Y34878400D01*
X59283600Y38335382D02*
X62484682Y35134300D01*
X66133608Y35449792D02*
X66242000Y35341400D01*
X62691782Y35341400D02*
X62484682Y35134300D01*
X66133608Y36821600D02*
X66133608Y35449792D01*
X61672400Y41905400D02*
X59283600Y39516600D01*
X59283600Y39516600D02*
X59283600Y38335382D01*
D78*
%TO.N,Net-(C29-Pad1)*%
X144564100Y10947400D02*
X134554400Y10947400D01*
D80*
X130322000Y21361400D02*
X134022000Y21361400D01*
D78*
X134554400Y10947400D02*
X131216400Y14285400D01*
X169278300Y15265400D02*
X169278300Y9385300D01*
X144862550Y10648950D02*
X144564100Y10947400D01*
X151790400Y5867400D02*
X146456400Y5867400D01*
D77*
X134022000Y21361400D02*
X134620000Y20763400D01*
D78*
X151790400Y5867400D02*
X150368000Y7289800D01*
X165760400Y5867400D02*
X151790400Y5867400D01*
X147142200Y24568150D02*
X147142200Y21259800D01*
X150368000Y7289800D02*
X150368000Y10648950D01*
X131216400Y17359800D02*
X134620000Y20763400D01*
X150368000Y10648950D02*
X147250150Y10648950D01*
X169278300Y9385300D02*
X165760400Y5867400D01*
X147250150Y10648950D02*
X144862550Y10648950D01*
X131216400Y14285400D02*
X131216400Y17359800D01*
%TO.N,Net-(C30-Pad1)*%
X142925800Y70332600D02*
X147269200Y70332600D01*
X138130600Y67411600D02*
X135026400Y64307400D01*
X140004800Y58851800D02*
X140004800Y67411600D01*
D89*
X135026400Y64307400D02*
X135026400Y66739400D01*
D78*
X142925800Y70332600D02*
X143865600Y70332600D01*
X143865600Y70332600D02*
X148996400Y75463400D01*
X140004800Y67411600D02*
X142925800Y70332600D01*
X141556000Y54576400D02*
X141556000Y57300600D01*
X147269200Y70332600D02*
X150266400Y67335400D01*
X150266400Y67335400D02*
X154178000Y67335400D01*
X140004800Y67411600D02*
X138130600Y67411600D01*
X141556000Y57300600D02*
X140004800Y58851800D01*
D77*
%TO.N,Net-(C31-Pad2)*%
X10593000Y31062400D02*
X11306000Y31775400D01*
X10593000Y29319400D02*
X10593000Y31062400D01*
X9535000Y28261400D02*
X10593000Y29319400D01*
X16129000Y29537400D02*
X10811000Y29537400D01*
X8636000Y28261400D02*
X9535000Y28261400D01*
X10811000Y29537400D02*
X10593000Y29319400D01*
%TO.N,Net-(C32-Pad2)*%
X100076000Y13975400D02*
X102226000Y13975400D01*
X102659000Y14408400D02*
X102659000Y19146400D01*
X102226000Y13975400D02*
X102659000Y14408400D01*
X102659000Y19146400D02*
X102822000Y19309400D01*
X103801000Y13266400D02*
X102659000Y14408400D01*
X103801000Y10927400D02*
X103801000Y13266400D01*
%TO.N,Net-(C1-Pad1)*%
X51741500Y43057300D02*
X51741500Y44214603D01*
X51741500Y44214603D02*
X52331500Y44804603D01*
X54076600Y55143400D02*
X54381400Y54838600D01*
X52331500Y44804603D02*
X52331500Y44813100D01*
X55321200Y62077600D02*
X55194200Y62204600D01*
X53210700Y46050200D02*
X53210700Y49379900D01*
X42531670Y48610200D02*
X47191500Y43950370D01*
X53210700Y49379900D02*
X52400200Y50190400D01*
X43934700Y50190400D02*
X42354500Y48610200D01*
X55321200Y58674000D02*
X55321200Y62077600D01*
X52331500Y44813100D02*
X53210700Y45692300D01*
X54381400Y50480000D02*
X54371200Y50469800D01*
X54371200Y50469800D02*
X54300600Y50469800D01*
X54300600Y50469800D02*
X53210700Y49379900D01*
X42354500Y48610200D02*
X42531670Y48610200D01*
X53210700Y45692300D02*
X53210700Y46050200D01*
X54076600Y57429400D02*
X55321200Y58674000D01*
X54076600Y55143400D02*
X54076600Y57429400D01*
X54381400Y54838600D02*
X54381400Y50480000D01*
X47191500Y43950370D02*
X47191500Y43057300D01*
X52400200Y50190400D02*
X43934700Y50190400D01*
%TO.N,Net-(C5-Pad1)*%
X53683710Y45233400D02*
X54148800Y45233400D01*
X52391500Y43057300D02*
X52391500Y43941190D01*
X56271200Y48727400D02*
X56271200Y50114200D01*
X54866300Y45950900D02*
X54866300Y46050200D01*
X54148800Y45233400D02*
X54866300Y45950900D01*
X54866300Y47322500D02*
X56271200Y48727400D01*
X52391500Y43941190D02*
X53683710Y45233400D01*
X54866300Y46050200D02*
X54866300Y47322500D01*
%TO.N,U3RX*%
X125666500Y18808700D02*
X125666500Y18821400D01*
X127076200Y17399000D02*
X125666500Y18808700D01*
X118770400Y15265400D02*
X122584305Y15265400D01*
X125666500Y18347595D02*
X125666500Y18821400D01*
X122584305Y15265400D02*
X125666500Y18347595D01*
X129057400Y17399000D02*
X127076200Y17399000D01*
%TO.N,Net-(C38-Pad2)*%
X46313000Y10927400D02*
X46313000Y14267400D01*
X46172000Y14408400D02*
X46172000Y18666400D01*
X46313000Y14267400D02*
X46172000Y14408400D01*
X46172000Y18666400D02*
X46815000Y19309400D01*
X45739000Y13975400D02*
X46172000Y14408400D01*
X43561000Y13975400D02*
X45739000Y13975400D01*
%TO.N,U3TX*%
X116992400Y13741400D02*
X118770400Y11963400D01*
X124079000Y20833400D02*
X122047000Y20833400D01*
X126619000Y23373400D02*
X124079000Y20833400D01*
X119824500Y18801400D02*
X116992400Y15969300D01*
X116992400Y15969300D02*
X116992400Y13741400D01*
X120015000Y18801400D02*
X119824500Y18801400D01*
X126619000Y25933400D02*
X126619000Y23373400D01*
X122047000Y20833400D02*
X120015000Y18801400D01*
X127889000Y27203400D02*
X126619000Y25933400D01*
%TO.N,LS_Y_OUT*%
X116479000Y28453400D02*
X117729000Y27203400D01*
X85900000Y19309400D02*
X88011000Y19309400D01*
X85900000Y19309400D02*
X85900000Y12733600D01*
X108839000Y23119400D02*
X108839000Y25450800D01*
X111379000Y28453400D02*
X116479000Y28453400D01*
X88011000Y19309400D02*
X91821000Y23119400D01*
X111379000Y26289000D02*
X111379000Y28453400D01*
X110998000Y25908000D02*
X111379000Y26289000D01*
X109296200Y25908000D02*
X110998000Y25908000D01*
X108839000Y25450800D02*
X109296200Y25908000D01*
X85900000Y12733600D02*
X85991700Y12641900D01*
X91821000Y23119400D02*
X108839000Y23119400D01*
%TO.N,Net-(D1-Pad1)*%
X135112060Y15371340D02*
X134620000Y15863400D01*
D80*
X134992400Y13233400D02*
X134992400Y15491000D01*
D77*
X134992400Y15491000D02*
X134620000Y15863400D01*
D89*
%TO.N,+5V*%
X134010400Y60751400D02*
X134010400Y28961400D01*
X135026400Y61767400D02*
X134010400Y60751400D01*
X134010400Y28961400D02*
X132232400Y27183400D01*
D77*
%TO.N,Net-(D2-Pad1)*%
X135026400Y68439400D02*
X135026400Y71365400D01*
%TO.N,Net-(LED1-Pad2)*%
X26563000Y28453400D02*
X29469000Y28453400D01*
X23317200Y29307200D02*
X25709200Y29307200D01*
X25709200Y29307200D02*
X26563000Y28453400D01*
%TO.N,Net-(LED1-Pad4)*%
X23866200Y26421400D02*
X23418800Y26868800D01*
X29469000Y26421400D02*
X23866200Y26421400D01*
%TO.N,LS_Z_OUT*%
X74216000Y12702600D02*
X74155300Y12641900D01*
X74216000Y19309400D02*
X74216000Y12702600D01*
X83439000Y25913400D02*
X76835000Y19309400D01*
X76835000Y19309400D02*
X74216000Y19309400D01*
X101473000Y25913400D02*
X83439000Y25913400D01*
%TO.N,LS_X_OUT*%
X118999000Y25933400D02*
X112014000Y25933400D01*
X96822000Y12689900D02*
X96774000Y12641900D01*
X112014000Y25933400D02*
X111379000Y25298400D01*
X111379000Y25298400D02*
X111379000Y24106164D01*
X111379000Y24106164D02*
X109884236Y22611400D01*
X100124000Y22611400D02*
X96822000Y19309400D01*
X120269000Y27203400D02*
X118999000Y25933400D01*
X109884236Y22611400D02*
X100124000Y22611400D01*
X96822000Y19309400D02*
X96822000Y12689900D01*
D78*
%TO.N,Net-(D3-Pad1)*%
X153822400Y16535400D02*
X148818600Y16535400D01*
X159194500Y15265400D02*
X153390600Y21069300D01*
X143738600Y21615400D02*
X143738600Y24568150D01*
X153390600Y21069300D02*
X153390600Y26831400D01*
X155092400Y15265400D02*
X153822400Y16535400D01*
X148818600Y16535400D02*
X143738600Y21615400D01*
X159194500Y15265400D02*
X155092400Y15265400D01*
D77*
%TO.N,Net-(J1-Pad8)*%
X128930400Y11963400D02*
X128930400Y9931400D01*
X128930400Y9931400D02*
X132232400Y6629400D01*
%TO.N,Net-(J1-Pad10)*%
X134772400Y8153400D02*
X134772400Y6629400D01*
X128930400Y13995400D02*
X134772400Y8153400D01*
X128930400Y15265400D02*
X128930400Y13995400D01*
D78*
%TO.N,Net-(D4-Pad1)*%
X144956000Y57616662D02*
X147054738Y59715400D01*
X147054738Y59715400D02*
X161594800Y59715400D01*
X161594800Y59715400D02*
X169214800Y67335400D01*
X144956000Y52986200D02*
X146490800Y51451400D01*
X144956000Y54576400D02*
X144956000Y52986200D01*
X146490800Y51451400D02*
X151638000Y51451400D01*
X144956000Y54576400D02*
X144956000Y57616662D01*
D82*
%TO.N,Net-(F1-Pad1)*%
X160344400Y36937400D02*
X166032400Y31249400D01*
X169450400Y31249400D02*
X169450400Y25189400D01*
X163982400Y52603400D02*
X169824400Y52603400D01*
X160344400Y42697400D02*
X160344400Y48965400D01*
X160344400Y48965400D02*
X163982400Y52603400D01*
X166032400Y31249400D02*
X169450400Y31249400D01*
X160344400Y42697400D02*
X160344400Y36937400D01*
D77*
%TO.N,Net-(C33-Pad2)*%
X35585400Y83853742D02*
X36398166Y83040976D01*
X35585400Y84505800D02*
X35585400Y83853742D01*
X36398166Y83040976D02*
X38014001Y84656811D01*
X36714001Y91694000D02*
X36714001Y90570001D01*
X36398166Y83040976D02*
X38575976Y83040976D01*
X38575976Y83040976D02*
X38582600Y83047600D01*
X37545802Y89738200D02*
X38074600Y89738200D01*
X38014001Y84656811D02*
X38014001Y86055200D01*
X36714001Y90570001D02*
X37545802Y89738200D01*
%TO.N,Net-(C34-Pad2)*%
X96788399Y81381600D02*
X96204199Y80797400D01*
X94904199Y84718799D02*
X94259400Y84074000D01*
X94396798Y77866000D02*
X96204199Y79673401D01*
X97815400Y81381600D02*
X96788399Y81381600D01*
X94904199Y86436200D02*
X94904199Y84718799D01*
X96204199Y79673401D02*
X96204199Y80797400D01*
X94000600Y77759600D02*
X94107000Y77866000D01*
X91998800Y77759600D02*
X94000600Y77759600D01*
X94107000Y77866000D02*
X94396798Y77866000D01*
%TO.N,Net-(J12-Pad1)*%
X36227401Y93954600D02*
X37364002Y92817999D01*
X37364002Y92817999D02*
X37364002Y91694000D01*
X32156400Y93954600D02*
X36227401Y93954600D01*
%TO.N,Net-(J12-Pad2)*%
X35356800Y95656400D02*
X38014001Y92999199D01*
X28346400Y93954600D02*
X30048200Y95656400D01*
X30048200Y95656400D02*
X35356800Y95656400D01*
X38014001Y92999199D02*
X38014001Y91694000D01*
%TO.N,Net-(J12-Pad3)*%
X35459964Y96266000D02*
X38664002Y93061962D01*
X38664002Y93061962D02*
X38664002Y91694000D01*
X26847800Y96266000D02*
X35459964Y96266000D01*
X24536400Y93954600D02*
X26847800Y96266000D01*
%TO.N,DEMUX_S2*%
X47980600Y81711800D02*
X47980600Y84977399D01*
X47980600Y84977399D02*
X41263999Y91694000D01*
%TO.N,DEMUX_S1*%
X40614001Y90569998D02*
X40614001Y91694000D01*
X46609000Y84574999D02*
X40614001Y90569998D01*
X46609000Y80543400D02*
X46609000Y84574999D01*
%TO.N,DEMUX_S0*%
X45237400Y84836000D02*
X39963999Y90109401D01*
X45237400Y79375000D02*
X45237400Y84836000D01*
X39963999Y90109401D02*
X39963999Y91694000D01*
X45262800Y79349600D02*
X45237400Y79375000D01*
%TO.N,LED_R*%
X46609000Y24663400D02*
X46278800Y24663400D01*
X45008800Y25933400D02*
X39725600Y25933400D01*
X32034800Y27787600D02*
X31369000Y28453400D01*
X39725600Y25933400D02*
X37871400Y27787600D01*
X46278800Y24663400D02*
X45008800Y25933400D01*
X37871400Y27787600D02*
X32034800Y27787600D01*
%TO.N,Net-(J12-Pad4)*%
X39314001Y93124727D02*
X39314001Y91694000D01*
X20726400Y93954600D02*
X23541800Y96770000D01*
X23541800Y96770000D02*
X35668728Y96770000D01*
X35668728Y96770000D02*
X39314001Y93124727D01*
%TO.N,Net-(J13-Pad1)*%
X38779565Y87776400D02*
X39313998Y87241967D01*
X34467800Y91643200D02*
X38334600Y87776400D01*
X39313998Y87241967D02*
X39313998Y86055200D01*
X38334600Y87776400D02*
X38779565Y87776400D01*
X17881600Y91643200D02*
X34467800Y91643200D01*
X15417800Y94107000D02*
X17881600Y91643200D01*
%TO.N,Net-(J13-Pad2)*%
X38663999Y87179202D02*
X38570801Y87272400D01*
X34290000Y91059000D02*
X14655800Y91059000D01*
X38076600Y87272400D02*
X34290000Y91059000D01*
X38570801Y87272400D02*
X38076600Y87272400D01*
X38663999Y86055200D02*
X38663999Y87179202D01*
X14655800Y91059000D02*
X11607800Y94107000D01*
%TO.N,LED_B*%
X45389800Y27722269D02*
X45380000Y27712469D01*
X33802000Y28936000D02*
X44724000Y28936000D01*
X44724000Y28936000D02*
X45389800Y28270200D01*
X45380000Y27712469D02*
X45380000Y26578200D01*
X47899000Y25913400D02*
X49149000Y24663400D01*
X31998600Y30739400D02*
X33802000Y28936000D01*
X31369000Y30739400D02*
X31998600Y30739400D01*
X45389800Y28270200D02*
X45389800Y27722269D01*
X45380000Y26578200D02*
X46044800Y25913400D01*
X46044800Y25913400D02*
X47899000Y25913400D01*
%TO.N,LED_G*%
X42443400Y23037800D02*
X40360600Y23037800D01*
X40360600Y23037800D02*
X36469000Y26929400D01*
X31877000Y26929400D02*
X31369000Y26421400D01*
X36469000Y26929400D02*
X31877000Y26929400D01*
X44069000Y24663400D02*
X42443400Y23037800D01*
%TO.N,Net-(J13-Pad3)*%
X7797800Y94107000D02*
X11455400Y90449400D01*
X37363999Y87179202D02*
X37363999Y86055200D01*
X11455400Y90449400D02*
X34093801Y90449400D01*
X34093801Y90449400D02*
X37363999Y87179202D01*
%TO.N,Net-(J13-Pad4)*%
X3987800Y94107000D02*
X8356600Y89738200D01*
X8356600Y89738200D02*
X33031001Y89738200D01*
X33031001Y89738200D02*
X36714001Y86055200D01*
%TO.N,Net-(J14-Pad1)*%
X95554198Y81812798D02*
X95554198Y80797400D01*
X101041200Y87299800D02*
X95554198Y81812798D01*
X121818400Y87299800D02*
X101041200Y87299800D01*
X128219200Y93700600D02*
X121818400Y87299800D01*
%TO.N,Net-(J14-Pad2)*%
X118922800Y88214200D02*
X101222128Y88214200D01*
X124409200Y93700600D02*
X118922800Y88214200D01*
X101222128Y88214200D02*
X94904199Y81896271D01*
X94904199Y81896271D02*
X94904199Y80797400D01*
%TO.N,Net-(J14-Pad3)*%
X120599200Y93700600D02*
X120065800Y93700600D01*
X94254198Y81959034D02*
X94254198Y80797400D01*
X120065800Y93700600D02*
X115290600Y88925400D01*
X115290600Y88925400D02*
X101220564Y88925400D01*
X101220564Y88925400D02*
X94254198Y81959034D01*
%TO.N,Net-(J14-Pad4)*%
X101066600Y89484200D02*
X93604199Y82021799D01*
X112572800Y89484200D02*
X101066600Y89484200D01*
X116789200Y93700600D02*
X112572800Y89484200D01*
X93604199Y82021799D02*
X93604199Y80797400D01*
%TO.N,MUX_S2*%
X107569000Y70739000D02*
X107569000Y70383400D01*
X89636600Y75361800D02*
X89636600Y73533000D01*
X89636600Y73533000D02*
X90652600Y72517000D01*
X90652600Y72517000D02*
X105791000Y72517000D01*
X105791000Y72517000D02*
X107569000Y70739000D01*
X89636600Y78779799D02*
X89636600Y75260200D01*
X91654201Y80797400D02*
X89636600Y78779799D01*
%TO.N,MUX_S1*%
X92304199Y79654999D02*
X92125800Y79476600D01*
X91109800Y79476600D02*
X90140600Y78507400D01*
X92125800Y79476600D02*
X91109800Y79476600D01*
X92304199Y80797400D02*
X92304199Y79654999D01*
X91211400Y73202800D02*
X107289600Y73202800D01*
X107289600Y73202800D02*
X110109000Y70383400D01*
X90140600Y74273600D02*
X91211400Y73202800D01*
X90140600Y78507400D02*
X90140600Y74273600D01*
%TO.N,MUX_S0*%
X109270800Y73761600D02*
X91795600Y73761600D01*
X90728800Y74828400D02*
X90728800Y78382836D01*
X112649000Y70383400D02*
X109270800Y73761600D01*
X91314564Y78968600D02*
X92330564Y78968600D01*
X92954201Y79592237D02*
X92954201Y80797400D01*
X91795600Y73761600D02*
X90728800Y74828400D01*
X92330564Y78968600D02*
X92954201Y79592237D01*
X90728800Y78382836D02*
X91314564Y78968600D01*
%TO.N,Net-(J15-Pad1)*%
X98907600Y90297000D02*
X108000800Y90297000D01*
X96204199Y86436200D02*
X96204199Y87593599D01*
X108000800Y90297000D02*
X111480600Y93776800D01*
X96204199Y87593599D02*
X98907600Y90297000D01*
%TO.N,Net-(J15-Pad2)*%
X98145600Y90957400D02*
X95554201Y88366001D01*
X107670600Y93776800D02*
X104851200Y90957400D01*
X95554201Y88366001D02*
X95554201Y86436200D01*
X104851200Y90957400D02*
X98145600Y90957400D01*
%TO.N,Net-(J15-Pad3)*%
X97917000Y91795600D02*
X101879400Y91795600D01*
X94254201Y88132801D02*
X97917000Y91795600D01*
X101879400Y91795600D02*
X103860600Y93776800D01*
X94254201Y86436200D02*
X94254201Y88132801D01*
%TO.N,Net-(J15-Pad4)*%
X93604202Y88762293D02*
X93604202Y86436200D01*
X100050600Y93776800D02*
X98618709Y93776800D01*
X98618709Y93776800D02*
X93604202Y88762293D01*
%TO.N,MAG_IN2*%
X116459000Y71043800D02*
X120374600Y74959400D01*
X152634400Y80924400D02*
X144551400Y80924400D01*
X110109000Y67843400D02*
X111429800Y66522600D01*
X138586400Y74959400D02*
X141630400Y78003400D01*
X144551400Y80924400D02*
X141630400Y78003400D01*
X111429800Y66522600D02*
X115773200Y66522600D01*
X115773200Y66522600D02*
X116459000Y67208400D01*
X116459000Y67208400D02*
X116459000Y71043800D01*
X120374600Y74959400D02*
X138586400Y74959400D01*
%TO.N,MAG_IN1*%
X113182400Y69113400D02*
X113919000Y69850000D01*
X140487400Y82194400D02*
X136550400Y78257400D01*
X113919000Y70993000D02*
X118389400Y75463400D01*
X133756400Y75463400D02*
X136550400Y78257400D01*
X108839000Y69113400D02*
X113182400Y69113400D01*
X113919000Y69850000D02*
X113919000Y70993000D01*
X118389400Y75463400D02*
X133756400Y75463400D01*
X107569000Y67843400D02*
X108839000Y69113400D01*
X152634400Y82194400D02*
X140487400Y82194400D01*
%TO.N,/Electromagnet1/OUT2*%
X167284400Y79019400D02*
X167284400Y86949400D01*
X164998400Y76733400D02*
X167284400Y79019400D01*
X167284400Y86949400D02*
X169768400Y89433400D01*
X154285400Y76733400D02*
X164998400Y76733400D01*
X152634400Y78384400D02*
X154285400Y76733400D01*
%TO.N,/Electromagnet1/OUT1*%
X158058400Y79654400D02*
X159029400Y79654400D01*
X165252400Y78003400D02*
X166268400Y79019400D01*
X160680400Y78003400D02*
X165252400Y78003400D01*
X166268400Y79019400D02*
X166268400Y89433400D01*
X159029400Y79654400D02*
X160680400Y78003400D01*
%TO.N,MUX_OUT*%
X99009200Y68503800D02*
X104368600Y68503800D01*
X104368600Y68503800D02*
X105029000Y67843400D01*
%TO.N,Net-(J7-Pad2)*%
X92498000Y5917400D02*
X92498000Y10927400D01*
X91412000Y4831400D02*
X92498000Y5917400D01*
%TO.N,Net-(J9-Pad2)*%
X114624000Y5437400D02*
X114624000Y10927400D01*
X114018000Y4831400D02*
X114624000Y5437400D01*
%TO.N,CAPTURE_OUT*%
X108077000Y12641900D02*
X108077000Y19258400D01*
X108026000Y19309400D02*
X108026000Y19710200D01*
X108026000Y19710200D02*
X112649000Y24333200D01*
X108077000Y19258400D02*
X108026000Y19309400D01*
X112649000Y24333200D02*
X112649000Y24663400D01*
%TO.N,Net-(J8-Pad2)*%
X80814000Y10927400D02*
X80814000Y5663400D01*
X80814000Y5663400D02*
X79982000Y4831400D01*
%TO.N,FP_1_OUT*%
X51892000Y19309400D02*
X51892000Y12844900D01*
X51892000Y12844900D02*
X51689000Y12641900D01*
X72771000Y26187400D02*
X72771000Y26873200D01*
X54737000Y19309400D02*
X57277000Y21849400D01*
X51892000Y19309400D02*
X54737000Y19309400D01*
X69084000Y22500400D02*
X72771000Y26187400D01*
X68525200Y22500400D02*
X69084000Y22500400D01*
X90322400Y44424600D02*
X90322400Y53644800D01*
X57277000Y21849400D02*
X67874200Y21849400D01*
X67874200Y21849400D02*
X68525200Y22500400D01*
X72771000Y26873200D02*
X90322400Y44424600D01*
%TO.N,FP_2_OUT*%
X72161400Y26849364D02*
X68045036Y22733000D01*
X88519000Y43967400D02*
X72161400Y27609800D01*
X43307000Y19309400D02*
X40815000Y19309400D01*
X72161400Y27609800D02*
X72161400Y26849364D01*
X40668000Y19162400D02*
X40815000Y19309400D01*
X56310236Y21595400D02*
X45593000Y21595400D01*
X68045036Y22733000D02*
X57447836Y22733000D01*
X40668000Y12641900D02*
X40668000Y19162400D01*
X57447836Y22733000D02*
X56310236Y21595400D01*
X45593000Y21595400D02*
X43307000Y19309400D01*
X88519000Y53517800D02*
X88519000Y43967400D01*
%TO.N,FP_3_OUT*%
X91338400Y44600836D02*
X91338400Y52832000D01*
X63020000Y19202400D02*
X62913000Y19309400D01*
X73406000Y25476200D02*
X73406000Y26668436D01*
X73406000Y26668436D02*
X91338400Y44600836D01*
X69926200Y21996400D02*
X73406000Y25476200D01*
X91338400Y52832000D02*
X92303600Y53797200D01*
X66046964Y19309400D02*
X68733964Y21996400D01*
X68733964Y21996400D02*
X69926200Y21996400D01*
X63020000Y12641900D02*
X63020000Y19202400D01*
X62913000Y19309400D02*
X66046964Y19309400D01*
%TO.N,Net-(J17-Pad1)*%
X117545463Y82946400D02*
X117545463Y79382041D01*
X117545463Y79382041D02*
X116400822Y78237400D01*
%TO.N,Net-(J17-Pad2)*%
X121355463Y82946400D02*
X121355463Y79413440D01*
X121355463Y79413440D02*
X120179423Y78237400D01*
%TO.N,Net-(J17-Pad3)*%
X125165463Y82946400D02*
X125165463Y79337343D01*
X125165463Y79337343D02*
X124065520Y78237400D01*
%TO.N,Net-(J17-Pad4)*%
X128975463Y79216186D02*
X127996677Y78237400D01*
X128975463Y82946400D02*
X128975463Y79216186D01*
%TO.N,Net-(JP3-Pad2)*%
X93756000Y14408400D02*
X93756000Y18049400D01*
X93756000Y18049400D02*
X94234000Y18527400D01*
%TO.N,Net-(JP4-Pad2)*%
X13158000Y42921400D02*
X13188000Y42951400D01*
D80*
X10593000Y42921400D02*
X13158000Y42921400D01*
%TO.N,Net-(JP5-Pad2)*%
X10593000Y59431400D02*
X13158000Y59431400D01*
D77*
X13158000Y59431400D02*
X13188000Y59461400D01*
%TO.N,Net-(JP6-Pad2)*%
X81818000Y17795400D02*
X82550000Y18527400D01*
X81818000Y14408400D02*
X81818000Y17795400D01*
%TO.N,COLOR_OUT*%
X17701000Y21107400D02*
X18161000Y21567400D01*
X18512000Y21918400D02*
X18161000Y21567400D01*
X29514800Y22682200D02*
X28751000Y21918400D01*
X28751000Y21918400D02*
X18512000Y21918400D01*
X42652164Y22533800D02*
X40151836Y22533800D01*
X13144500Y21107400D02*
X17701000Y21107400D01*
X40151836Y22533800D02*
X40003436Y22682200D01*
X49707800Y22682200D02*
X42800564Y22682200D01*
X40003436Y22682200D02*
X29514800Y22682200D01*
X51689000Y24663400D02*
X49707800Y22682200D01*
X42800564Y22682200D02*
X42652164Y22533800D01*
%TO.N,NEXT_TURN_OUT*%
X29337000Y18880400D02*
X29766000Y19309400D01*
X54229000Y24663400D02*
X51743800Y22178200D01*
X32131000Y19309400D02*
X29766000Y19309400D01*
X51743800Y22178200D02*
X43869800Y22178200D01*
X43561000Y21869400D02*
X34691000Y21869400D01*
X29337000Y12641900D02*
X29337000Y18880400D01*
X34691000Y21869400D02*
X32131000Y19309400D01*
X43869800Y22178200D02*
X43561000Y21869400D01*
D80*
%TO.N,Net-(JP12-Pad2)*%
X10593000Y26919400D02*
X13158000Y26919400D01*
D77*
X13158000Y26919400D02*
X13188000Y26949400D01*
%TO.N,Net-(LED1-Pad1)*%
X25257400Y30739400D02*
X24993600Y30475600D01*
X29469000Y30739400D02*
X25257400Y30739400D01*
%TO.N,Net-(J11-Pad2)*%
X102588000Y10814400D02*
X102701000Y10927400D01*
X102588000Y4831400D02*
X102588000Y10814400D01*
%TO.N,Net-(JP13-Pad2)*%
X105059000Y18430400D02*
X105156000Y18527400D01*
X105059000Y14408400D02*
X105059000Y18430400D01*
%TO.N,Net-(JP14-Pad2)*%
X22098000Y25766400D02*
X22098000Y27355800D01*
X22834600Y28092400D02*
X24887600Y28092400D01*
X24491000Y23373400D02*
X22098000Y25766400D01*
X24887600Y28092400D02*
X25019000Y27961000D01*
X22098000Y27355800D02*
X22834600Y28092400D01*
%TO.N,Net-(J18-Pad1)*%
X21417992Y81840332D02*
X19878516Y80300856D01*
X21417992Y84716514D02*
X21417992Y81840332D01*
%TO.N,Net-(J18-Pad2)*%
X25227992Y81606635D02*
X23922213Y80300856D01*
X25227992Y84716514D02*
X25227992Y81606635D01*
%TO.N,Net-(J18-Pad3)*%
X29037992Y84716514D02*
X29037992Y81627434D01*
X29037992Y81627434D02*
X27711414Y80300856D01*
%TO.N,Net-(J18-Pad4)*%
X32847992Y81444059D02*
X31704789Y80300856D01*
X32847992Y84716514D02*
X32847992Y81444059D01*
%TO.N,Net-(J19-Pad1)*%
X101044463Y82946400D02*
X101044463Y79621896D01*
X101044463Y79621896D02*
X99659967Y78237400D01*
%TO.N,Net-(J19-Pad2)*%
X104854463Y79647502D02*
X103444361Y78237400D01*
X104854463Y82946400D02*
X104854463Y79647502D01*
%TO.N,Net-(J19-Pad3)*%
X108664463Y82946400D02*
X108664463Y79609400D01*
X108664463Y79609400D02*
X107292463Y78237400D01*
%TO.N,Net-(J19-Pad4)*%
X112474463Y79597252D02*
X111114611Y78237400D01*
X112474463Y82946400D02*
X112474463Y79597252D01*
%TO.N,Net-(C11-Pad1)*%
X111802522Y46209212D02*
X111802522Y47103012D01*
X111802522Y46164922D02*
X111802522Y46209212D01*
X109228000Y43493400D02*
X109228000Y44608836D01*
X110845600Y45208000D02*
X111802522Y46164922D01*
X109827164Y45208000D02*
X110845600Y45208000D01*
X109228000Y44608836D02*
X109827164Y45208000D01*
X111802522Y47103012D02*
X113702722Y49003212D01*
%TO.N,Net-(J20-Pad2)*%
X35729000Y5282400D02*
X35278000Y4831400D01*
X35729000Y10927400D02*
X35729000Y5282400D01*
%TO.N,Net-(C23-Pad1)*%
X75250482Y45770300D02*
X75250482Y47680100D01*
X73283682Y43803500D02*
X75250482Y45770300D01*
X75250482Y47680100D02*
X76134682Y48564300D01*
X73283682Y42731400D02*
X73283682Y43803500D01*
%TO.N,Net-(C39-Pad2)*%
X65814000Y13975400D02*
X67837000Y13975400D01*
X68312000Y10927400D02*
X68312000Y14366400D01*
X68270000Y18666400D02*
X68913000Y19309400D01*
X68312000Y14366400D02*
X68270000Y14408400D01*
X67837000Y13975400D02*
X68270000Y14408400D01*
X68270000Y14408400D02*
X68270000Y18666400D01*
%TO.N,Net-(J21-Pad2)*%
X47413000Y5790400D02*
X47413000Y10927400D01*
X46454000Y4831400D02*
X47413000Y5790400D01*
%TO.N,Net-(J22-Pad2)*%
X68834000Y4831400D02*
X69412000Y5409400D01*
X69412000Y5409400D02*
X69412000Y10927400D01*
%TO.N,Net-(J23-Pad2)*%
X58998000Y6151400D02*
X58998000Y10927400D01*
X57678000Y4831400D02*
X58998000Y6151400D01*
%TO.N,Net-(C40-Pad2)*%
X57447000Y18864400D02*
X57892000Y19309400D01*
X57447000Y14408400D02*
X57447000Y18864400D01*
X57898000Y10927400D02*
X57898000Y13957400D01*
X57898000Y13957400D02*
X57447000Y14408400D01*
X57014000Y13975400D02*
X57447000Y14408400D01*
X54991000Y13975400D02*
X57014000Y13975400D01*
D80*
%TO.N,Net-(JP7-Pad2)*%
X15870400Y11933400D02*
X16388400Y12451400D01*
X13387000Y11933400D02*
X15870400Y11933400D01*
D77*
%TO.N,Net-(JP8-Pad2)*%
X115628000Y17541400D02*
X116614000Y18527400D01*
X115628000Y14408400D02*
X115628000Y17541400D01*
%TO.N,Net-(JP15-Pad2)*%
X37511752Y80441800D02*
X39591700Y80441800D01*
X36812576Y81140976D02*
X37511752Y80441800D01*
X39591700Y80441800D02*
X40643967Y81494067D01*
X36398166Y79436566D02*
X36398166Y81140976D01*
X36398166Y79436566D02*
X31135000Y74173400D01*
X36398166Y81140976D02*
X36812576Y81140976D01*
%TO.N,Net-(JP16-Pad2)*%
X93207800Y74650600D02*
X95783400Y74650600D01*
X95783400Y74650600D02*
X96291400Y75158600D01*
X91998800Y75859600D02*
X93207800Y74650600D01*
X98046500Y74584600D02*
X96291400Y76339700D01*
X98069400Y74584600D02*
X98046500Y74584600D01*
X96291400Y75158600D02*
X96291400Y76339700D01*
%TO.N,Net-(JP18-Pad2)*%
X48572000Y16680400D02*
X49403000Y17511400D01*
X48572000Y14408400D02*
X48572000Y16680400D01*
%TO.N,Net-(JP19-Pad2)*%
X70670000Y14408400D02*
X70670000Y17950400D01*
X70670000Y17950400D02*
X71247000Y18527400D01*
%TO.N,Net-(JP20-Pad2)*%
X59847000Y16525400D02*
X60579000Y17257400D01*
X59847000Y14408400D02*
X59847000Y16525400D01*
%TO.N,XY_MS2*%
X60853000Y30739400D02*
X64389000Y27203400D01*
X73299667Y35386933D02*
X73533000Y35153600D01*
X73283733Y36821600D02*
X73283733Y35386933D01*
X71110700Y28006900D02*
X70225700Y28006900D01*
X73283733Y35386933D02*
X73299667Y35386933D01*
X73533000Y30429200D02*
X71110700Y28006900D01*
X52391551Y37147500D02*
X52391551Y31713249D01*
X64846200Y27660600D02*
X64389000Y27203400D01*
X69879400Y27660600D02*
X64846200Y27660600D01*
X53365400Y30739400D02*
X60853000Y30739400D01*
X73533000Y35153600D02*
X73533000Y30429200D01*
X52391551Y31713249D02*
X53365400Y30739400D01*
X70225700Y28006900D02*
X69879400Y27660600D01*
%TO.N,XY_MS1*%
X70739000Y28778200D02*
X73021000Y31060200D01*
X51741540Y31423460D02*
X52933600Y30231400D01*
X73021000Y34878200D02*
X72633722Y35265478D01*
X52933600Y30231400D02*
X58821000Y30231400D01*
X72633722Y35265478D02*
X72633722Y36821600D01*
X66903600Y28778200D02*
X70739000Y28778200D01*
X73021000Y31060200D02*
X73021000Y34878200D01*
X51741540Y37147500D02*
X51741540Y31423460D01*
X58821000Y30231400D02*
X61849000Y27203400D01*
%TO.N,XY_MS0*%
X57023000Y29489400D02*
X59309000Y27203400D01*
X51091528Y31184472D02*
X52552600Y29723400D01*
X56769000Y29723400D02*
X57003000Y29489400D01*
X51091528Y37147500D02*
X51091528Y31184472D01*
X52552600Y29723400D02*
X56769000Y29723400D01*
X72517000Y31419800D02*
X72517000Y34645600D01*
X70993000Y29895800D02*
X72517000Y31419800D01*
X72517000Y34645600D02*
X71983710Y35178890D01*
X57003000Y29489400D02*
X57023000Y29489400D01*
X71983710Y35178890D02*
X71983710Y36821600D01*
X64897000Y29895800D02*
X70993000Y29895800D01*
%TO.N,Z_MS2*%
X115773200Y53136800D02*
X115773200Y36474400D01*
X115773200Y36474400D02*
X113648200Y34349400D01*
X113715800Y55194200D02*
X115773200Y53136800D01*
X113648200Y34349400D02*
X110125800Y34349400D01*
X109228051Y35247149D02*
X109228051Y37583600D01*
X110125800Y34349400D02*
X109228051Y35247149D01*
%TO.N,Z_MS1*%
X114033200Y33845400D02*
X116332000Y36144200D01*
X108578040Y37583600D02*
X108578040Y34855760D01*
X109588400Y33845400D02*
X114033200Y33845400D01*
X108578040Y34855760D02*
X109588400Y33845400D01*
X116332000Y54546400D02*
X115755000Y55123400D01*
X116332000Y36144200D02*
X116332000Y54546400D01*
%TO.N,Z_MS0*%
X114381600Y33279400D02*
X108960600Y33279400D01*
X116992400Y53771800D02*
X116992400Y35890200D01*
X107928028Y34311972D02*
X107928028Y37583600D01*
X116992400Y35890200D02*
X114381600Y33279400D01*
X118389400Y55168800D02*
X116992400Y53771800D01*
X108960600Y33279400D02*
X107928028Y34311972D01*
%TO.N,Net-(J16-Pad1)*%
X4675788Y83799017D02*
X5504400Y84627629D01*
X4640753Y81129468D02*
X3812141Y80300856D01*
X4640753Y84716514D02*
X4640753Y81129468D01*
%TO.N,Net-(J16-Pad2)*%
X8459400Y83772629D02*
X9314400Y84627629D01*
X8450753Y84716514D02*
X8450753Y81155856D01*
X8450753Y81155856D02*
X7595753Y80300856D01*
%TO.N,Net-(J16-Pad3)*%
X12260753Y84716514D02*
X12260753Y80963384D01*
X12260753Y80963384D02*
X11598225Y80300856D01*
%TO.N,Net-(J16-Pad4)*%
X16070753Y84716514D02*
X16070753Y80799705D01*
X16070753Y80799705D02*
X15571904Y80300856D01*
%TO.N,SIGNAL_LIGHT*%
X78574900Y68376800D02*
X79971900Y66979800D01*
X78574900Y68414900D02*
X78574900Y68376800D01*
D84*
%TO.N,Net-(J24-Pad1)*%
X76990000Y71894800D02*
X76990000Y61292800D01*
D77*
X76990000Y61292800D02*
X76860400Y61163200D01*
%TO.N,Net-(J24-Pad2)*%
X80490000Y68366700D02*
X81876900Y66979800D01*
X80490000Y71894800D02*
X80490000Y68366700D01*
%TO.N,Net-(C6-Pad2)*%
X57480200Y47269400D02*
X54940200Y44729400D01*
X54940200Y44729400D02*
X53892474Y44729400D01*
X53892474Y44729400D02*
X53041563Y43878489D01*
X53041563Y43878489D02*
X53041563Y43091100D01*
%TO.N,Net-(C6-Pad1)*%
X57480200Y42189400D02*
X56578500Y43091100D01*
X56578500Y43091100D02*
X53691574Y43091100D01*
%TO.N,Net-(C10-Pad2)*%
X108578000Y44671600D02*
X110115612Y46209212D01*
D86*
X113589000Y52024400D02*
X111506000Y54107400D01*
D77*
X104028000Y43493400D02*
X104028000Y44265934D01*
X110146922Y46209212D02*
X111802722Y47865012D01*
D86*
X111802722Y49003212D02*
X113589000Y50789490D01*
X113589000Y51567400D02*
X113589000Y52024400D01*
X113589000Y50789490D02*
X113589000Y51567400D01*
X110443134Y50362800D02*
X111802722Y49003212D01*
D77*
X104028000Y44265934D02*
X102236722Y46057212D01*
X102236722Y46057212D02*
X102236722Y47186078D01*
X108578000Y43493400D02*
X108578000Y44671600D01*
X110115612Y46209212D02*
X110146922Y46209212D01*
D86*
X99060000Y50362800D02*
X110443134Y50362800D01*
D77*
X102236722Y47186078D02*
X99060000Y50362800D01*
X111802722Y47865012D02*
X111802722Y49003212D01*
%TO.N,Net-(C12-Pad1)*%
X113817400Y39751000D02*
X113817400Y41198800D01*
X113817400Y41198800D02*
X111489000Y43527200D01*
X111489000Y43527200D02*
X110528074Y43527200D01*
%TO.N,Net-(C12-Pad2)*%
X110337600Y44704000D02*
X113690400Y44704000D01*
X109878063Y43527200D02*
X109878063Y44244463D01*
X113690400Y44704000D02*
X113817400Y44831000D01*
X109878063Y44244463D02*
X110337600Y44704000D01*
%TO.N,Net-(C24-Pad2)*%
X73933745Y42765200D02*
X73933745Y43606145D01*
X73933745Y43606145D02*
X74904600Y44577000D01*
X79171800Y44577000D02*
X82524600Y47929800D01*
X74904600Y44577000D02*
X79171800Y44577000D01*
%TO.N,Net-(C24-Pad1)*%
X74583682Y42731400D02*
X82406200Y42731400D01*
X82406200Y42731400D02*
X82524600Y42849800D01*
%TO.N,Net-(R22-Pad1)*%
X8636000Y43163400D02*
X5028000Y43163400D01*
X5028000Y43163400D02*
X4826000Y43365400D01*
%TO.N,Net-(R25-Pad1)*%
X8584000Y59875400D02*
X8636000Y59927400D01*
X4826000Y59875400D02*
X8584000Y59875400D01*
%TO.N,Net-(R31-Pad1)*%
X10880000Y12683400D02*
X8458200Y15105200D01*
X8458200Y15105200D02*
X8458200Y16789400D01*
X11430000Y12683400D02*
X10880000Y12683400D01*
%TO.N,Net-(R47-Pad1)*%
X4878000Y27161400D02*
X4826000Y27109400D01*
X8636000Y27161400D02*
X4878000Y27161400D01*
%TD*%
M02*
