%TF.GenerationSoftware,KiCad,Pcbnew,(6.0.7)*%
%TF.CreationDate,2022-10-28T07:23:18-04:00*%
%TF.ProjectId,Top_Level,546f705f-4c65-4766-956c-2e6b69636164,rev?*%
%TF.SameCoordinates,Original*%
%TF.FileFunction,Soldermask,Top*%
%TF.FilePolarity,Negative*%
%FSLAX46Y46*%
G04 Gerber Fmt 4.6, Leading zero omitted, Abs format (unit mm)*
G04 Created by KiCad (PCBNEW (6.0.7)) date 2022-10-28 07:23:18*
%MOMM*%
%LPD*%
G01*
G04 APERTURE LIST*
%ADD10C,0.100000*%
%ADD11C,2.768600*%
%ADD12C,1.422400*%
%ADD13C,1.400000*%
%ADD14C,2.800000*%
%ADD15C,2.100000*%
%ADD16R,0.750000X0.600000*%
%ADD17R,0.800000X1.600000*%
%ADD18R,1.600000X0.800000*%
%ADD19R,1.000000X1.400000*%
%ADD20R,1.020000X2.720000*%
%ADD21R,1.700000X1.700000*%
%ADD22O,1.700000X1.700000*%
%ADD23R,2.025000X2.025000*%
%ADD24C,2.025000*%
%ADD25C,0.850000*%
%ADD26C,1.600000*%
%ADD27R,0.711200X0.330200*%
%ADD28R,0.800000X0.655600*%
%ADD29R,0.600000X0.750000*%
%ADD30R,15.000000X15.000000*%
%ADD31R,0.750000X0.950000*%
%ADD32R,1.250000X3.350000*%
%ADD33R,1.270000X0.304800*%
%ADD34R,1.750000X2.500000*%
%ADD35R,1.475000X0.450000*%
%ADD36R,1.300000X0.700000*%
%ADD37R,2.450000X1.600000*%
%ADD38R,3.350000X1.250000*%
%ADD39R,0.330200X0.711200*%
%ADD40R,0.655600X0.800000*%
%ADD41R,1.200000X1.200000*%
%ADD42R,2.160000X1.070000*%
%ADD43R,1.910000X10.800000*%
%ADD44R,5.080000X8.330000*%
%ADD45R,1.400000X1.000000*%
%ADD46R,3.911600X1.498600*%
%ADD47R,0.558800X2.971800*%
%ADD48R,1.600000X3.500000*%
%ADD49R,2.971800X11.912600*%
%ADD50R,2.720000X1.020000*%
%ADD51R,1.050000X1.400000*%
%ADD52O,1.600000X1.600000*%
%ADD53R,0.420000X0.460000*%
%ADD54R,2.450000X3.300000*%
%ADD55C,1.800000*%
%ADD56R,2.794000X5.308600*%
%ADD57R,1.193800X2.641600*%
%ADD58R,0.460000X0.420000*%
%ADD59R,2.820000X1.570000*%
%ADD60R,0.300000X0.475000*%
%ADD61R,2.692400X1.016000*%
%ADD62R,10.871200X10.464800*%
%ADD63C,1.700000*%
%ADD64C,5.040000*%
%ADD65C,4.065000*%
%ADD66C,4.335000*%
%ADD67C,0.800000*%
%ADD68C,1.500000*%
%ADD69C,1.000000*%
G04 APERTURE END LIST*
%TO.C,IC1*%
G36*
X96427100Y-70633999D02*
G01*
X95927100Y-70633999D01*
X95927100Y-70353999D01*
X96427100Y-70353999D01*
X96427100Y-70633999D01*
G37*
D10*
X96427100Y-70633999D02*
X95927100Y-70633999D01*
X95927100Y-70353999D01*
X96427100Y-70353999D01*
X96427100Y-70633999D01*
G36*
X96427100Y-67314001D02*
G01*
X95927100Y-67314001D01*
X95927100Y-67034001D01*
X96427100Y-67034001D01*
X96427100Y-67314001D01*
G37*
X96427100Y-67314001D02*
X95927100Y-67314001D01*
X95927100Y-67034001D01*
X96427100Y-67034001D01*
X96427100Y-67314001D01*
%TO.C,IC2*%
G36*
X96958188Y-120064277D02*
G01*
X96458188Y-120064277D01*
X96458188Y-119784277D01*
X96958188Y-119784277D01*
X96958188Y-120064277D01*
G37*
X96958188Y-120064277D02*
X96458188Y-120064277D01*
X96458188Y-119784277D01*
X96958188Y-119784277D01*
X96958188Y-120064277D01*
G36*
X96958188Y-116744279D02*
G01*
X96458188Y-116744279D01*
X96458188Y-116464279D01*
X96958188Y-116464279D01*
X96958188Y-116744279D01*
G37*
X96958188Y-116744279D02*
X96458188Y-116744279D01*
X96458188Y-116464279D01*
X96958188Y-116464279D01*
X96958188Y-116744279D01*
%TO.C,IC3*%
G36*
X97397100Y-94763999D02*
G01*
X96897100Y-94763999D01*
X96897100Y-94483999D01*
X97397100Y-94483999D01*
X97397100Y-94763999D01*
G37*
X97397100Y-94763999D02*
X96897100Y-94763999D01*
X96897100Y-94483999D01*
X97397100Y-94483999D01*
X97397100Y-94763999D01*
G36*
X97397100Y-91444001D02*
G01*
X96897100Y-91444001D01*
X96897100Y-91164001D01*
X97397100Y-91164001D01*
X97397100Y-91444001D01*
G37*
X97397100Y-91444001D02*
X96897100Y-91444001D01*
X96897100Y-91164001D01*
X97397100Y-91164001D01*
X97397100Y-91444001D01*
%TD*%
D11*
%TO.C,J6*%
X139870000Y-159143902D03*
X139870000Y-172283901D03*
D12*
X137160000Y-162213901D03*
X137160000Y-164713901D03*
X137160000Y-166713902D03*
X137160000Y-169213902D03*
%TD*%
D13*
%TO.C,JP2*%
X96923747Y-153313740D03*
X99463747Y-153313740D03*
%TD*%
D14*
%TO.C,TP15*%
X59690000Y-154432000D03*
%TD*%
D15*
%TO.C,J21*%
X59778900Y-94742000D03*
X59778900Y-98242000D03*
%TD*%
D16*
%TO.C,R74*%
X70188900Y-94968000D03*
X71288900Y-94968000D03*
%TD*%
D17*
%TO.C,R14*%
X89465784Y-122240360D03*
X91865784Y-122240360D03*
%TD*%
D15*
%TO.C,J9*%
X59778900Y-128270000D03*
X59778900Y-131770000D03*
%TD*%
D18*
%TO.C,R64*%
X133558312Y-118201967D03*
X133558312Y-120601967D03*
%TD*%
D19*
%TO.C,R52*%
X68820308Y-76410755D03*
X66920308Y-76410755D03*
%TD*%
D20*
%TO.C,C13*%
X77682900Y-83312000D03*
X80482900Y-83312000D03*
%TD*%
D17*
%TO.C,R11*%
X101430000Y-111939000D03*
X99030000Y-111939000D03*
%TD*%
%TO.C,R13*%
X91889465Y-115177249D03*
X89489465Y-115177249D03*
%TD*%
D18*
%TO.C,R45*%
X76478346Y-43078766D03*
X76478346Y-40678766D03*
%TD*%
D13*
%TO.C,JP15*%
X131898544Y-56763766D03*
X131898544Y-54223766D03*
%TD*%
D21*
%TO.C,J4-J1*%
X117348000Y-60452000D03*
D22*
X114808000Y-60452000D03*
X117348000Y-62992000D03*
X114808000Y-62992000D03*
X117348000Y-65532000D03*
X114808000Y-65532000D03*
X117348000Y-68072000D03*
X114808000Y-68072000D03*
X117348000Y-70612000D03*
X114808000Y-70612000D03*
X117348000Y-73152000D03*
X114808000Y-73152000D03*
X117348000Y-75692000D03*
X114808000Y-75692000D03*
X117348000Y-78232000D03*
X114808000Y-78232000D03*
X117348000Y-80772000D03*
X114808000Y-80772000D03*
X117348000Y-83312000D03*
X114808000Y-83312000D03*
%TD*%
D23*
%TO.C,J18*%
X139123314Y-39553592D03*
D24*
X139123314Y-43363592D03*
X139123314Y-47173592D03*
X139123314Y-50983592D03*
%TD*%
D20*
%TO.C,C39*%
X70571576Y-117425979D03*
X73371576Y-117425979D03*
%TD*%
D25*
%TO.C,LED1*%
X58859707Y-73958766D03*
X58059707Y-75228766D03*
X58859707Y-76498766D03*
X58059707Y-77768766D03*
%TD*%
D26*
%TO.C,C28*%
X76942000Y-171704000D03*
X74442000Y-171704000D03*
%TD*%
D27*
%TO.C,U12*%
X77368400Y-68834000D03*
X78765400Y-68834000D03*
%TD*%
D28*
%TO.C,C35*%
X111760000Y-32577800D03*
X111760000Y-30922200D03*
%TD*%
D23*
%TO.C,J4*%
X146620000Y-62756000D03*
D24*
X146620000Y-66566000D03*
X146620000Y-70376000D03*
X146620000Y-74186000D03*
%TD*%
D29*
%TO.C,R17*%
X80352900Y-87164000D03*
X80352900Y-86064000D03*
%TD*%
D13*
%TO.C,JP20*%
X67144900Y-108204000D03*
X67144900Y-105664000D03*
%TD*%
D18*
%TO.C,R67*%
X134707656Y-45847014D03*
X134707656Y-48247014D03*
%TD*%
%TO.C,R63*%
X134707656Y-38014116D03*
X134707656Y-40414116D03*
%TD*%
D19*
%TO.C,R54*%
X136239312Y-110932463D03*
X138139312Y-110932463D03*
%TD*%
D30*
%TO.C,HS1*%
X96012000Y-141732000D03*
%TD*%
D23*
%TO.C,J14*%
X148577850Y-50199353D03*
D24*
X148577850Y-46389353D03*
X148577850Y-42579353D03*
X148577850Y-38769353D03*
%TD*%
D31*
%TO.C,R43*%
X117990859Y-153176318D03*
X116290859Y-153176318D03*
%TD*%
D32*
%TO.C,R25*%
X90052900Y-37338000D03*
X96052900Y-37338000D03*
%TD*%
D33*
%TO.C,IC1*%
X99148900Y-73059074D03*
X99148900Y-72409063D03*
X99148900Y-71759051D03*
X99148900Y-71109040D03*
X99148900Y-70459028D03*
X99148900Y-69809017D03*
X99148900Y-69159006D03*
X99148900Y-68508994D03*
X99148900Y-67858983D03*
X99148900Y-67208972D03*
X99148900Y-66558960D03*
X99148900Y-65908949D03*
X99148900Y-65258937D03*
X99148900Y-64608926D03*
X93205300Y-64608926D03*
X93205300Y-65258937D03*
X93205300Y-65908949D03*
X93205300Y-66558960D03*
X93205300Y-67208972D03*
X93205300Y-67858983D03*
X93205300Y-68508994D03*
X93205300Y-69159006D03*
X93205300Y-69809017D03*
X93205300Y-70459028D03*
X93205300Y-71109040D03*
X93205300Y-71759051D03*
X93205300Y-72409063D03*
X93205300Y-73059074D03*
D34*
X96177100Y-68834000D03*
%TD*%
D20*
%TO.C,C16*%
X80813035Y-103178153D03*
X78013035Y-103178153D03*
%TD*%
%TO.C,C31*%
X78323009Y-41743964D03*
X81123009Y-41743964D03*
%TD*%
D23*
%TO.C,J16*%
X139123314Y-22776353D03*
D24*
X139123314Y-26586353D03*
X139123314Y-30396353D03*
X139123314Y-34206353D03*
%TD*%
D20*
%TO.C,C15*%
X93176900Y-33020000D03*
X95976900Y-33020000D03*
%TD*%
D35*
%TO.C,IC5*%
X140545591Y-54609779D03*
X140545591Y-55259779D03*
X140545591Y-55909779D03*
X140545591Y-56559779D03*
X140545591Y-57209779D03*
X140545591Y-57859779D03*
X140545591Y-58509779D03*
X140545591Y-59159779D03*
X146421591Y-59159779D03*
X146421591Y-58509779D03*
X146421591Y-57859779D03*
X146421591Y-57209779D03*
X146421591Y-56559779D03*
X146421591Y-55909779D03*
X146421591Y-55259779D03*
X146421591Y-54609779D03*
%TD*%
D36*
%TO.C,R35*%
X105918000Y-96840000D03*
X105918000Y-98740000D03*
%TD*%
D18*
%TO.C,R24*%
X90079900Y-34374000D03*
X90079900Y-31974000D03*
%TD*%
D37*
%TO.C,D3*%
X81670000Y-170180000D03*
X85970000Y-170180000D03*
%TD*%
D14*
%TO.C,TP7*%
X92885192Y-79831833D03*
%TD*%
D13*
%TO.C,JP10*%
X81849000Y-153162000D03*
X79309000Y-153162000D03*
%TD*%
%TO.C,JP13*%
X68390416Y-62772111D03*
X68390416Y-65312111D03*
%TD*%
D20*
%TO.C,C14*%
X80730900Y-32766000D03*
X83530900Y-32766000D03*
%TD*%
D17*
%TO.C,R6*%
X90881951Y-65942948D03*
X88481951Y-65942948D03*
%TD*%
D38*
%TO.C,R31*%
X79816610Y-49193574D03*
X79816610Y-55193574D03*
%TD*%
D32*
%TO.C,R79*%
X76240900Y-113518000D03*
X70240900Y-113518000D03*
%TD*%
D39*
%TO.C,U11*%
X73197457Y-51681684D03*
X73197457Y-53078684D03*
%TD*%
D40*
%TO.C,C34*%
X137320642Y-57116010D03*
X135665042Y-57116010D03*
%TD*%
D33*
%TO.C,IC2*%
X99679988Y-122489352D03*
X99679988Y-121839341D03*
X99679988Y-121189329D03*
X99679988Y-120539318D03*
X99679988Y-119889306D03*
X99679988Y-119239295D03*
X99679988Y-118589284D03*
X99679988Y-117939272D03*
X99679988Y-117289261D03*
X99679988Y-116639250D03*
X99679988Y-115989238D03*
X99679988Y-115339227D03*
X99679988Y-114689215D03*
X99679988Y-114039204D03*
X93736388Y-114039204D03*
X93736388Y-114689215D03*
X93736388Y-115339227D03*
X93736388Y-115989238D03*
X93736388Y-116639250D03*
X93736388Y-117289261D03*
X93736388Y-117939272D03*
X93736388Y-118589284D03*
X93736388Y-119239295D03*
X93736388Y-119889306D03*
X93736388Y-120539318D03*
X93736388Y-121189329D03*
X93736388Y-121839341D03*
X93736388Y-122489352D03*
D34*
X96708188Y-118264278D03*
%TD*%
D17*
%TO.C,R81*%
X74426900Y-106762000D03*
X76826900Y-106762000D03*
%TD*%
D18*
%TO.C,R75*%
X74885481Y-92937909D03*
X74885481Y-90537909D03*
%TD*%
D13*
%TO.C,JP8*%
X67189927Y-128803395D03*
X67189927Y-131343395D03*
%TD*%
D38*
%TO.C,R28*%
X79336900Y-91742000D03*
X79336900Y-97742000D03*
%TD*%
D29*
%TO.C,R26*%
X67201688Y-92566880D03*
X67201688Y-91466880D03*
%TD*%
D41*
%TO.C,D1*%
X66347913Y-153654060D03*
X64247913Y-153654060D03*
%TD*%
D23*
%TO.C,J19*%
X138267312Y-119586463D03*
D24*
X138267312Y-123396463D03*
X138267312Y-127206463D03*
X138267312Y-131016463D03*
%TD*%
D21*
%TO.C,J8-J1*%
X117348000Y-123952000D03*
D22*
X114808000Y-123952000D03*
X117348000Y-126492000D03*
X114808000Y-126492000D03*
X117348000Y-129032000D03*
X114808000Y-129032000D03*
X117348000Y-131572000D03*
X114808000Y-131572000D03*
X117348000Y-134112000D03*
X114808000Y-134112000D03*
X117348000Y-136652000D03*
X114808000Y-136652000D03*
X117348000Y-139192000D03*
X114808000Y-139192000D03*
X117348000Y-141732000D03*
X114808000Y-141732000D03*
X117348000Y-144272000D03*
X114808000Y-144272000D03*
X117348000Y-146812000D03*
X114808000Y-146812000D03*
%TD*%
D13*
%TO.C,JP18*%
X67436900Y-98758000D03*
X67436900Y-96218000D03*
%TD*%
D16*
%TO.C,R71*%
X66594900Y-47752000D03*
X67694900Y-47752000D03*
%TD*%
D42*
%TO.C,IC4*%
X108907000Y-165198000D03*
X108907000Y-163498000D03*
X108907000Y-161798000D03*
X108907000Y-160098000D03*
X108907000Y-158398000D03*
D43*
X95692000Y-161798000D03*
D44*
X99187000Y-161798000D03*
%TD*%
D15*
%TO.C,J23*%
X59740900Y-105966000D03*
X59740900Y-109466000D03*
%TD*%
D13*
%TO.C,JP11*%
X110629700Y-153085800D03*
X113169700Y-153085800D03*
%TD*%
D17*
%TO.C,R72*%
X69854900Y-40715000D03*
X72254900Y-40715000D03*
%TD*%
D20*
%TO.C,C37*%
X72354900Y-48514000D03*
X69554900Y-48514000D03*
%TD*%
D45*
%TO.C,R50*%
X68725577Y-78539830D03*
X68725577Y-80439830D03*
%TD*%
D46*
%TO.C,C30*%
X129889250Y-180848000D03*
X120796050Y-180848000D03*
%TD*%
D17*
%TO.C,R48*%
X79994401Y-58146173D03*
X77594401Y-58146173D03*
%TD*%
D14*
%TO.C,TP6*%
X66179750Y-146160055D03*
%TD*%
%TO.C,TP2*%
X67470056Y-73274008D03*
%TD*%
%TO.C,TP4*%
X57561018Y-146336904D03*
%TD*%
D20*
%TO.C,C32*%
X85981308Y-57983266D03*
X83181308Y-57983266D03*
%TD*%
D32*
%TO.C,R19*%
X83991906Y-79519418D03*
X77991906Y-79519418D03*
%TD*%
D27*
%TO.C,U13*%
X136490812Y-113472463D03*
X137887812Y-113472463D03*
%TD*%
D14*
%TO.C,TP14*%
X106972838Y-153054887D03*
%TD*%
D16*
%TO.C,R32*%
X59983966Y-141125164D03*
X61083966Y-141125164D03*
%TD*%
D39*
%TO.C,U17*%
X68292240Y-115795359D03*
X68292240Y-114398359D03*
%TD*%
D47*
%TO.C,U7*%
X57532900Y-34366200D03*
X60032900Y-29133800D03*
X62532900Y-34366200D03*
%TD*%
D18*
%TO.C,R57*%
X134707656Y-25731353D03*
X134707656Y-28131353D03*
%TD*%
D39*
%TO.C,U4*%
X75309315Y-36829312D03*
X75309315Y-38226312D03*
%TD*%
D23*
%TO.C,J3*%
X146620000Y-79520000D03*
D24*
X146620000Y-83330000D03*
X146620000Y-87140000D03*
X146620000Y-90950000D03*
%TD*%
D48*
%TO.C,C2*%
X95726000Y-60960000D03*
X91726000Y-60960000D03*
%TD*%
D17*
%TO.C,R18*%
X74723050Y-86141633D03*
X72323050Y-86141633D03*
%TD*%
D28*
%TO.C,C23*%
X103124000Y-97855800D03*
X103124000Y-96200200D03*
%TD*%
D18*
%TO.C,R70*%
X133558312Y-129656611D03*
X133558312Y-132056611D03*
%TD*%
D49*
%TO.C,L2*%
X130721100Y-165481000D03*
X115684300Y-165481000D03*
%TD*%
D28*
%TO.C,C26*%
X112268000Y-160085800D03*
X112268000Y-158430200D03*
%TD*%
D50*
%TO.C,C17*%
X76109013Y-51799661D03*
X76109013Y-48999661D03*
%TD*%
D51*
%TO.C,R12*%
X99380000Y-109982000D03*
X101280000Y-109982000D03*
%TD*%
D21*
%TO.C,J1-J1*%
X74168000Y-60452000D03*
D22*
X71628000Y-60452000D03*
X74168000Y-62992000D03*
X71628000Y-62992000D03*
X74168000Y-65532000D03*
X71628000Y-65532000D03*
X74168000Y-68072000D03*
X71628000Y-68072000D03*
X74168000Y-70612000D03*
X71628000Y-70612000D03*
X74168000Y-73152000D03*
X71628000Y-73152000D03*
X74168000Y-75692000D03*
X71628000Y-75692000D03*
X74168000Y-78232000D03*
X71628000Y-78232000D03*
X74168000Y-80772000D03*
X71628000Y-80772000D03*
X74168000Y-83312000D03*
X71628000Y-83312000D03*
%TD*%
D16*
%TO.C,R23*%
X93436127Y-30087654D03*
X94536127Y-30087654D03*
%TD*%
D32*
%TO.C,R73*%
X66176900Y-44450000D03*
X72176900Y-44450000D03*
%TD*%
%TO.C,R34*%
X61114324Y-137735271D03*
X67114324Y-137735271D03*
%TD*%
D26*
%TO.C,C19*%
X105708729Y-84511297D03*
X108208729Y-84511297D03*
%TD*%
D28*
%TO.C,C5*%
X102108000Y-74233800D03*
X102108000Y-72578200D03*
%TD*%
D26*
%TO.C,R16*%
X113877683Y-47746872D03*
D52*
X124037683Y-47746872D03*
%TD*%
D18*
%TO.C,R30*%
X68160785Y-38672064D03*
X68160785Y-36272064D03*
%TD*%
D27*
%TO.C,U16*%
X74770443Y-95095281D03*
X76167443Y-95095281D03*
%TD*%
D16*
%TO.C,R77*%
X71250900Y-120630000D03*
X70150900Y-120630000D03*
%TD*%
D53*
%TO.C,C21*%
X108441917Y-96832758D03*
X108441917Y-97492758D03*
%TD*%
D13*
%TO.C,JP12*%
X68180900Y-27432000D03*
X70720900Y-27432000D03*
%TD*%
D17*
%TO.C,R41*%
X90065333Y-97062102D03*
X92465333Y-97062102D03*
%TD*%
D54*
%TO.C,R42*%
X75094000Y-153162000D03*
X70194000Y-153162000D03*
%TD*%
D17*
%TO.C,R33*%
X63077724Y-141114670D03*
X65477724Y-141114670D03*
%TD*%
D55*
%TO.C,S2*%
X88524900Y-22606000D03*
X94924900Y-22606000D03*
%TD*%
D15*
%TO.C,J2*%
X104990900Y-23622000D03*
X101490900Y-23622000D03*
%TD*%
D32*
%TO.C,R49*%
X79788823Y-61845598D03*
X85788823Y-61845598D03*
%TD*%
D28*
%TO.C,C25*%
X75692000Y-158430200D03*
X75692000Y-160085800D03*
%TD*%
D55*
%TO.C,S1*%
X76078900Y-22606000D03*
X82478900Y-22606000D03*
%TD*%
D56*
%TO.C,L1*%
X59474100Y-164592000D03*
X69557900Y-164592000D03*
%TD*%
D40*
%TO.C,C33*%
X132153900Y-109220000D03*
X133809500Y-109220000D03*
%TD*%
D23*
%TO.C,J12*%
X148577850Y-33426353D03*
D24*
X148577850Y-29616353D03*
X148577850Y-25806353D03*
X148577850Y-21996353D03*
%TD*%
D57*
%TO.C,R9*%
X109016800Y-120650000D03*
X104343200Y-120650000D03*
%TD*%
D13*
%TO.C,JP4*%
X74930743Y-27466718D03*
X77470743Y-27466718D03*
%TD*%
D51*
%TO.C,R5*%
X98320038Y-59787423D03*
X100220038Y-59787423D03*
%TD*%
D57*
%TO.C,R3*%
X108731106Y-65702162D03*
X104057506Y-65702162D03*
%TD*%
D13*
%TO.C,JP16*%
X133125312Y-114468463D03*
X133125312Y-111928463D03*
%TD*%
%TO.C,JP5*%
X87112783Y-27344770D03*
X89652783Y-27344770D03*
%TD*%
%TO.C,JP14*%
X64230863Y-75482696D03*
X64230863Y-78022696D03*
%TD*%
D45*
%TO.C,R51*%
X66596502Y-80458027D03*
X66596502Y-78558027D03*
%TD*%
D23*
%TO.C,J17*%
X138267312Y-136087463D03*
D24*
X138267312Y-139897463D03*
X138267312Y-143707463D03*
X138267312Y-147517463D03*
%TD*%
D27*
%TO.C,U14*%
X137221667Y-59185967D03*
X135824667Y-59185967D03*
%TD*%
D26*
%TO.C,C1*%
X104211945Y-59974649D03*
X106711945Y-59974649D03*
%TD*%
D14*
%TO.C,TP3*%
X67101563Y-68667836D03*
%TD*%
D26*
%TO.C,C27*%
X112542000Y-179070000D03*
X115042000Y-179070000D03*
%TD*%
D36*
%TO.C,R1*%
X105156000Y-73472000D03*
X105156000Y-75372000D03*
%TD*%
D13*
%TO.C,JP9*%
X88133557Y-153248813D03*
X85593557Y-153248813D03*
%TD*%
D14*
%TO.C,TP10*%
X77724000Y-188468000D03*
%TD*%
D27*
%TO.C,U1*%
X124138842Y-28745154D03*
X122741842Y-28745154D03*
%TD*%
D18*
%TO.C,R69*%
X134707656Y-49840389D03*
X134707656Y-52240389D03*
%TD*%
D17*
%TO.C,R38*%
X101430000Y-86793000D03*
X99030000Y-86793000D03*
%TD*%
D53*
%TO.C,C10*%
X102362000Y-113538000D03*
X102362000Y-114198000D03*
%TD*%
D14*
%TO.C,TP9*%
X97291982Y-79969799D03*
%TD*%
D17*
%TO.C,R4*%
X100470286Y-61931880D03*
X98070286Y-61931880D03*
%TD*%
D53*
%TO.C,C3*%
X107696000Y-73482000D03*
X107696000Y-72822000D03*
%TD*%
D32*
%TO.C,R82*%
X70056588Y-102737198D03*
X76056588Y-102737198D03*
%TD*%
D39*
%TO.C,U8*%
X76509352Y-53722747D03*
X76509352Y-55119747D03*
%TD*%
D13*
%TO.C,JP7*%
X67144900Y-31496000D03*
X67144900Y-34036000D03*
%TD*%
D39*
%TO.C,U2*%
X110629680Y-35379720D03*
X110629680Y-36776720D03*
%TD*%
D46*
%TO.C,C29*%
X59969400Y-177800000D03*
X69062600Y-177800000D03*
%TD*%
D15*
%TO.C,J7*%
X58749037Y-41665081D03*
X58749037Y-45165081D03*
%TD*%
D16*
%TO.C,R20*%
X81568999Y-29949960D03*
X82668999Y-29949960D03*
%TD*%
D14*
%TO.C,TP12*%
X69596000Y-188468000D03*
%TD*%
D18*
%TO.C,R61*%
X134707656Y-33707504D03*
X134707656Y-36107504D03*
%TD*%
D17*
%TO.C,R7*%
X89187725Y-73011833D03*
X91587725Y-73011833D03*
%TD*%
D53*
%TO.C,C22*%
X102870000Y-88570000D03*
X102870000Y-89230000D03*
%TD*%
D32*
%TO.C,R46*%
X80619383Y-45911070D03*
X74619383Y-45911070D03*
%TD*%
D57*
%TO.C,R37*%
X112310789Y-89567315D03*
X107637189Y-89567315D03*
%TD*%
D14*
%TO.C,TP11*%
X61666735Y-188468000D03*
%TD*%
D13*
%TO.C,JP1*%
X93845170Y-153269265D03*
X91305170Y-153269265D03*
%TD*%
D20*
%TO.C,C38*%
X69716900Y-91920000D03*
X72516900Y-91920000D03*
%TD*%
D57*
%TO.C,R10*%
X109032121Y-115997339D03*
X104358521Y-115997339D03*
%TD*%
D32*
%TO.C,R22*%
X77352900Y-37084000D03*
X83352900Y-37084000D03*
%TD*%
D14*
%TO.C,TP8*%
X101710351Y-79966618D03*
%TD*%
D48*
%TO.C,C8*%
X96742000Y-110490000D03*
X92742000Y-110490000D03*
%TD*%
D46*
%TO.C,C36*%
X114833400Y-39624000D03*
X123926600Y-39624000D03*
%TD*%
D41*
%TO.C,D2*%
X120806500Y-153187400D03*
X122906500Y-153187400D03*
%TD*%
D13*
%TO.C,JP6*%
X67398900Y-84348000D03*
X67398900Y-86888000D03*
%TD*%
D26*
%TO.C,R15*%
X124585805Y-31750000D03*
D52*
X114425805Y-31750000D03*
%TD*%
D14*
%TO.C,TP5*%
X61916252Y-146192586D03*
%TD*%
D26*
%TO.C,C7*%
X104501960Y-107772156D03*
X107001960Y-107772156D03*
%TD*%
D35*
%TO.C,IC6*%
X140855312Y-110689463D03*
X140855312Y-111339463D03*
X140855312Y-111989463D03*
X140855312Y-112639463D03*
X140855312Y-113289463D03*
X140855312Y-113939463D03*
X140855312Y-114589463D03*
X140855312Y-115239463D03*
X146731312Y-115239463D03*
X146731312Y-114589463D03*
X146731312Y-113939463D03*
X146731312Y-113289463D03*
X146731312Y-112639463D03*
X146731312Y-111989463D03*
X146731312Y-111339463D03*
X146731312Y-110689463D03*
%TD*%
D48*
%TO.C,C20*%
X96488000Y-85090000D03*
X92488000Y-85090000D03*
%TD*%
D13*
%TO.C,JP3*%
X65697227Y-62772111D03*
X65697227Y-65312111D03*
%TD*%
D18*
%TO.C,R66*%
X133558312Y-121986361D03*
X133558312Y-124386361D03*
%TD*%
D16*
%TO.C,R80*%
X70150900Y-109494000D03*
X71250900Y-109494000D03*
%TD*%
D18*
%TO.C,R78*%
X75347900Y-121222000D03*
X75347900Y-118822000D03*
%TD*%
D58*
%TO.C,C12*%
X100406000Y-123952000D03*
X99746000Y-123952000D03*
%TD*%
D37*
%TO.C,D4*%
X105782000Y-170180000D03*
X101482000Y-170180000D03*
%TD*%
D20*
%TO.C,C18*%
X55906171Y-137796058D03*
X58706171Y-137796058D03*
%TD*%
D18*
%TO.C,R58*%
X133558312Y-138721423D03*
X133558312Y-141121423D03*
%TD*%
D36*
%TO.C,R8*%
X105156000Y-123764000D03*
X105156000Y-125664000D03*
%TD*%
D15*
%TO.C,J1*%
X116166900Y-23584000D03*
X112666900Y-23584000D03*
%TD*%
D39*
%TO.C,U5*%
X86956900Y-32067500D03*
X86956900Y-33464500D03*
%TD*%
D59*
%TO.C,F1*%
X89149300Y-186443000D03*
X89149300Y-176523000D03*
X83089300Y-176523000D03*
X83089300Y-186443000D03*
%TD*%
D18*
%TO.C,R60*%
X133558312Y-142607520D03*
X133558312Y-145007520D03*
%TD*%
%TO.C,R68*%
X133558312Y-125834463D03*
X133558312Y-128234463D03*
%TD*%
D57*
%TO.C,R2*%
X109016800Y-70358000D03*
X104343200Y-70358000D03*
%TD*%
D14*
%TO.C,TP1*%
X67430742Y-58689588D03*
%TD*%
D60*
%TO.C,IC7*%
X110129680Y-40032357D03*
X110629680Y-40032357D03*
X111129680Y-40032357D03*
X111129680Y-38356357D03*
X110629680Y-38356357D03*
X110129680Y-38356357D03*
%TD*%
D33*
%TO.C,IC3*%
X100118900Y-97189074D03*
X100118900Y-96539063D03*
X100118900Y-95889051D03*
X100118900Y-95239040D03*
X100118900Y-94589028D03*
X100118900Y-93939017D03*
X100118900Y-93289006D03*
X100118900Y-92638994D03*
X100118900Y-91988983D03*
X100118900Y-91338972D03*
X100118900Y-90688960D03*
X100118900Y-90038949D03*
X100118900Y-89388937D03*
X100118900Y-88738926D03*
X94175300Y-88738926D03*
X94175300Y-89388937D03*
X94175300Y-90038949D03*
X94175300Y-90688960D03*
X94175300Y-91338972D03*
X94175300Y-91988983D03*
X94175300Y-92638994D03*
X94175300Y-93289006D03*
X94175300Y-93939017D03*
X94175300Y-94589028D03*
X94175300Y-95239040D03*
X94175300Y-95889051D03*
X94175300Y-96539063D03*
X94175300Y-97189074D03*
D34*
X97147100Y-92964000D03*
%TD*%
D15*
%TO.C,J22*%
X59740900Y-117122000D03*
X59740900Y-120622000D03*
%TD*%
D27*
%TO.C,U9*%
X57133140Y-141108954D03*
X58530140Y-141108954D03*
%TD*%
D16*
%TO.C,R47*%
X77211393Y-66954381D03*
X78311393Y-66954381D03*
%TD*%
D15*
%TO.C,J11*%
X58792955Y-63745662D03*
X58792955Y-67245662D03*
%TD*%
D18*
%TO.C,R55*%
X134707656Y-21947741D03*
X134707656Y-24347741D03*
%TD*%
D20*
%TO.C,C40*%
X69846900Y-106954000D03*
X72646900Y-106954000D03*
%TD*%
D53*
%TO.C,C4*%
X101930418Y-63798860D03*
X101930418Y-64458860D03*
%TD*%
D27*
%TO.C,U18*%
X74524502Y-109929138D03*
X75921502Y-109929138D03*
%TD*%
D23*
%TO.C,J5*%
X146620000Y-96275000D03*
D24*
X146620000Y-100085000D03*
X146620000Y-103895000D03*
X146620000Y-107705000D03*
%TD*%
D18*
%TO.C,R62*%
X133558312Y-146538677D03*
X133558312Y-148938677D03*
%TD*%
D55*
%TO.C,S3*%
X63632900Y-22606000D03*
X70032900Y-22606000D03*
%TD*%
D61*
%TO.C,U10*%
X78841600Y-158394400D03*
X78841600Y-160096200D03*
X78841600Y-161798000D03*
X78841600Y-163499800D03*
X78841600Y-165201600D03*
D62*
X87122000Y-161798000D03*
%TD*%
D27*
%TO.C,U6*%
X78714535Y-100161095D03*
X80111535Y-100161095D03*
%TD*%
D18*
%TO.C,R56*%
X133558312Y-134942822D03*
X133558312Y-137342822D03*
%TD*%
D58*
%TO.C,C6*%
X99898000Y-74422000D03*
X99238000Y-74422000D03*
%TD*%
D23*
%TO.C,J15*%
X147857312Y-130236463D03*
D24*
X147857312Y-126426463D03*
X147857312Y-122616463D03*
X147857312Y-118806463D03*
%TD*%
D18*
%TO.C,R21*%
X77379900Y-34120000D03*
X77379900Y-31720000D03*
%TD*%
D53*
%TO.C,C9*%
X107464677Y-123949448D03*
X107464677Y-124609448D03*
%TD*%
D28*
%TO.C,C11*%
X101933762Y-124525046D03*
X101933762Y-122869446D03*
%TD*%
D13*
%TO.C,JP19*%
X67144900Y-120630000D03*
X67144900Y-118090000D03*
%TD*%
D15*
%TO.C,J20*%
X58832411Y-52643956D03*
X58832411Y-56143956D03*
%TD*%
D17*
%TO.C,R40*%
X92209225Y-89873177D03*
X89809225Y-89873177D03*
%TD*%
D19*
%TO.C,R53*%
X135471576Y-54940166D03*
X137371576Y-54940166D03*
%TD*%
D51*
%TO.C,R39*%
X99380000Y-84582000D03*
X101280000Y-84582000D03*
%TD*%
D18*
%TO.C,R59*%
X134707656Y-29733825D03*
X134707656Y-32133825D03*
%TD*%
D32*
%TO.C,R76*%
X70024900Y-98270000D03*
X76024900Y-98270000D03*
%TD*%
D39*
%TO.C,U3*%
X77812900Y-87312500D03*
X77812900Y-85915500D03*
%TD*%
%TO.C,U15*%
X71099975Y-37229397D03*
X71099975Y-38626397D03*
%TD*%
D58*
%TO.C,C24*%
X101796773Y-98641801D03*
X101136773Y-98641801D03*
%TD*%
D15*
%TO.C,J8*%
X59740900Y-83594000D03*
X59740900Y-87094000D03*
%TD*%
D29*
%TO.C,R29*%
X66450924Y-37480739D03*
X66450924Y-38580739D03*
%TD*%
%TO.C,R44*%
X74453066Y-41375937D03*
X74453066Y-42475937D03*
%TD*%
D57*
%TO.C,R36*%
X112320983Y-93862754D03*
X107647383Y-93862754D03*
%TD*%
D13*
%TO.C,JP17*%
X67652900Y-54610000D03*
X67652900Y-52070000D03*
%TD*%
D21*
%TO.C,J5-J1*%
X74168000Y-123952000D03*
D22*
X71628000Y-123952000D03*
X74168000Y-126492000D03*
X71628000Y-126492000D03*
X74168000Y-129032000D03*
X71628000Y-129032000D03*
X74168000Y-131572000D03*
X71628000Y-131572000D03*
X74168000Y-134112000D03*
X71628000Y-134112000D03*
X74168000Y-136652000D03*
X71628000Y-136652000D03*
X74168000Y-139192000D03*
X71628000Y-139192000D03*
X74168000Y-141732000D03*
X71628000Y-141732000D03*
X74168000Y-144272000D03*
X71628000Y-144272000D03*
X74168000Y-146812000D03*
X71628000Y-146812000D03*
%TD*%
D17*
%TO.C,R27*%
X74676555Y-88464453D03*
X72276555Y-88464453D03*
%TD*%
D30*
%TO.C,HS2*%
X97028000Y-48514000D03*
%TD*%
D18*
%TO.C,R65*%
X134707656Y-42057813D03*
X134707656Y-44457813D03*
%TD*%
D23*
%TO.C,J13*%
X146457312Y-136087463D03*
D24*
X146457312Y-139897463D03*
X146457312Y-143707463D03*
X146457312Y-147517463D03*
%TD*%
D63*
%TO.C,J10*%
X101346000Y-186464000D03*
D64*
X101346000Y-177464000D03*
D65*
X101346000Y-183464000D03*
D66*
X105846000Y-184464000D03*
X96846000Y-184464000D03*
%TD*%
D14*
%TO.C,TP13*%
X75438000Y-180594000D03*
%TD*%
D67*
X106632036Y-70452684D03*
X102900356Y-63041677D03*
D68*
X97028000Y-54533800D03*
D67*
X102890582Y-112260489D03*
D69*
X76213898Y-70274726D03*
D68*
X96164400Y-141630400D03*
X94157800Y-45974000D03*
D69*
X106424192Y-65698922D03*
X126491053Y-29787839D03*
D68*
X96797088Y-118186200D03*
X103022400Y-54533800D03*
X97053400Y-88569800D03*
X96164400Y-147294600D03*
X102158800Y-147294600D03*
X102158800Y-141630400D03*
D67*
X103632000Y-87630000D03*
D69*
X72955760Y-94940905D03*
D68*
X90068400Y-158953200D03*
X102158800Y-135991600D03*
X100152200Y-51638200D03*
D69*
X70643201Y-34441218D03*
X138710635Y-59068204D03*
D68*
X90246200Y-141630400D03*
D69*
X109018038Y-93910143D03*
D68*
X90246200Y-135991600D03*
X96164400Y-135991600D03*
X103022400Y-48869600D03*
X90068400Y-164592000D03*
X96215200Y-73126600D03*
D69*
X134137740Y-20023225D03*
X117531307Y-55559161D03*
D68*
X84150200Y-158953200D03*
X100228400Y-161696400D03*
X93294200Y-144399000D03*
X100152200Y-46024800D03*
X84150200Y-164592000D03*
D69*
X108473893Y-98647865D03*
D68*
X96797088Y-114147600D03*
X91109800Y-48869600D03*
X96215200Y-68935600D03*
D69*
X66860462Y-93865264D03*
X106565091Y-115839769D03*
D68*
X94157800Y-51638200D03*
X97053400Y-93065600D03*
X103098600Y-158953200D03*
X103022400Y-43230800D03*
D69*
X56181741Y-34257411D03*
D68*
X96797088Y-122834400D03*
X97053400Y-97256600D03*
X97028000Y-48869600D03*
X99288600Y-138785600D03*
D69*
X70400808Y-53252460D03*
D67*
X106634036Y-120551006D03*
D69*
X109028144Y-89551693D03*
D68*
X96215200Y-64439800D03*
D69*
X111968669Y-43734086D03*
D68*
X97028000Y-43230800D03*
X97180400Y-158953200D03*
D69*
X72716412Y-109886897D03*
D67*
X108672075Y-123706558D03*
D68*
X87198200Y-161696400D03*
D69*
X82833727Y-53178653D03*
D68*
X93294200Y-138734800D03*
D69*
X133586042Y-150332084D03*
D68*
X91109800Y-43230800D03*
D69*
X108857605Y-73134486D03*
X130903309Y-20411607D03*
X124647285Y-153222742D03*
D68*
X99288600Y-144399000D03*
D69*
X76033018Y-85811085D03*
D68*
X103098600Y-164592000D03*
X97180400Y-164592000D03*
X91109800Y-54533800D03*
X90246200Y-147294600D03*
D67*
X85662432Y-67834468D03*
X85640540Y-72526942D03*
X87415831Y-122009477D03*
X86339796Y-115105295D03*
X105261741Y-148600368D03*
X102289449Y-151679908D03*
X84565531Y-82189225D03*
X81927513Y-85019098D03*
X149182408Y-110523557D03*
X132080000Y-59220204D03*
X135788517Y-109034667D03*
X85567121Y-98201017D03*
X84235687Y-66455687D03*
X116601393Y-121717184D03*
X114346567Y-122003512D03*
X78228384Y-71908740D03*
X78018252Y-141732000D03*
X113547236Y-121383136D03*
X115876893Y-120992684D03*
X84640716Y-65229942D03*
X86847988Y-98925517D03*
X101346000Y-71120000D03*
X120053306Y-70864191D03*
X125009581Y-67059050D03*
X102616000Y-71120000D03*
X119578125Y-68292216D03*
X124989693Y-65608324D03*
X101346000Y-69596000D03*
X102616000Y-69596000D03*
X120862703Y-63236198D03*
X101346000Y-68072000D03*
X102616000Y-68072000D03*
X124978721Y-63237086D03*
X102616000Y-66548000D03*
X119763711Y-64310057D03*
X101346000Y-66548000D03*
X124939952Y-64324269D03*
X83482162Y-75384612D03*
X86763514Y-73256486D03*
X79105633Y-75304672D03*
X84825153Y-87663595D03*
X91514297Y-64366904D03*
X94565503Y-106734681D03*
X85636078Y-102681194D03*
X84543921Y-90877478D03*
X92279369Y-88036648D03*
X94688071Y-110013395D03*
X90264883Y-86909495D03*
X110608864Y-67837700D03*
X110229332Y-73710053D03*
X79248000Y-73152000D03*
X82641552Y-78216500D03*
X83665340Y-76592388D03*
X77479929Y-64347658D03*
X88313910Y-67933472D03*
X71336616Y-55492769D03*
X89558272Y-68434506D03*
X111903891Y-65522297D03*
X111106582Y-73148384D03*
X101854000Y-120650000D03*
X125880186Y-106525127D03*
X123624381Y-124066757D03*
X110803488Y-123033332D03*
X125447413Y-108904039D03*
X102870000Y-120612500D03*
X111245686Y-116211835D03*
X102616000Y-119126000D03*
X101600000Y-119126000D03*
X126033645Y-99140529D03*
X111199722Y-114633762D03*
X102616000Y-117348000D03*
X101600000Y-117348000D03*
X126033645Y-97717841D03*
X101854000Y-115824000D03*
X125979959Y-100509531D03*
X114254036Y-109691652D03*
X117633395Y-107254541D03*
X111207383Y-112787570D03*
X102870000Y-115824000D03*
X85620657Y-123994718D03*
X80658470Y-123970857D03*
X84198182Y-118151638D03*
X82537492Y-118133283D03*
X79053329Y-123346184D03*
X86657103Y-123053378D03*
X126165385Y-93734850D03*
X103124000Y-94996000D03*
X104140000Y-94996000D03*
X123272892Y-93728189D03*
X127255808Y-88022749D03*
X123355365Y-92029779D03*
X104427783Y-93203725D03*
X103265990Y-93235701D03*
X103378000Y-91948000D03*
X126086594Y-88050729D03*
X123319837Y-90715211D03*
X104394000Y-91948000D03*
X128608882Y-86743711D03*
X123262990Y-86743711D03*
X103378000Y-90170000D03*
X104394000Y-90170000D03*
X94417497Y-85922503D03*
X104345753Y-80864312D03*
X95088498Y-84547453D03*
X94591540Y-81905621D03*
X112725747Y-70612000D03*
X86869525Y-79169585D03*
X112326214Y-73078163D03*
X89329585Y-77730667D03*
X95571541Y-95323312D03*
X98916108Y-82764792D03*
X114328161Y-96965756D03*
X114472053Y-85706217D03*
X67883809Y-40644463D03*
X82953535Y-49228076D03*
X98432505Y-96144195D03*
X84038854Y-151020044D03*
X97987523Y-100856100D03*
X86607251Y-112612564D03*
X88562162Y-90049045D03*
X87794739Y-97099747D03*
X104503544Y-151442810D03*
X106664012Y-74509453D03*
X124722913Y-106445509D03*
X125948972Y-59466852D03*
X122685333Y-110948792D03*
X127377716Y-68190566D03*
X123500720Y-106466826D03*
X126136648Y-68244526D03*
X121292702Y-110274969D03*
X124727437Y-58880796D03*
X122093118Y-59483443D03*
X122045367Y-109220000D03*
X122095577Y-106525127D03*
X125231603Y-62018348D03*
X77367123Y-70960120D03*
X76355882Y-139184387D03*
X124814100Y-117565507D03*
X118333278Y-118668626D03*
X86664222Y-109989504D03*
X113524530Y-119925500D03*
X65945905Y-111468186D03*
X81401611Y-109934663D03*
X112307639Y-121418927D03*
X75712183Y-111012367D03*
X84428659Y-101556637D03*
X82006594Y-95899624D03*
X111743634Y-119363634D03*
X111171744Y-121450674D03*
X105852660Y-127908303D03*
X85039119Y-126297438D03*
X110816695Y-127816376D03*
X78958538Y-125715156D03*
X72316687Y-113709450D03*
X108058898Y-127839358D03*
X75573659Y-116161126D03*
X78382360Y-56575477D03*
X75528504Y-57222990D03*
X82969998Y-83160439D03*
X79835751Y-78763407D03*
X81848148Y-76210658D03*
X83214545Y-82191315D03*
X80938922Y-75464552D03*
X80729750Y-77943798D03*
X85096542Y-122397212D03*
X80615560Y-122517189D03*
X80484132Y-132043055D03*
X84510608Y-130844059D03*
X84806752Y-120036166D03*
X81583068Y-120042131D03*
M02*
