%TF.GenerationSoftware,KiCad,Pcbnew,(6.0.9)*%
%TF.CreationDate,2022-11-21T23:38:33-05:00*%
%TF.ProjectId,Sensor_Board_2x8,53656e73-6f72-45f4-926f-6172645f3278,rev?*%
%TF.SameCoordinates,PX1728520PY19b87b58*%
%TF.FileFunction,Legend,Top*%
%TF.FilePolarity,Positive*%
%FSLAX46Y46*%
G04 Gerber Fmt 4.6, Leading zero omitted, Abs format (unit mm)*
G04 Created by KiCad (PCBNEW (6.0.9)) date 2022-11-21 23:38:33*
%MOMM*%
%LPD*%
G01*
G04 APERTURE LIST*
%TA.AperFunction,Profile*%
%ADD10C,0.200000*%
%TD*%
%ADD11C,0.254000*%
%ADD12C,0.150000*%
%ADD13C,0.100000*%
G04 APERTURE END LIST*
D10*
X0Y0D02*
X92720000Y0D01*
X92720000Y0D02*
X92720000Y406400000D01*
X92720000Y406400000D02*
X0Y406400000D01*
X0Y406400000D02*
X0Y0D01*
D11*
%TO.C,J4*%
X4384523Y235150783D02*
X5291666Y235150783D01*
X5473095Y235090307D01*
X5594047Y234969355D01*
X5654523Y234787926D01*
X5654523Y234666974D01*
X4807857Y236299831D02*
X5654523Y236299831D01*
X4324047Y235997450D02*
X5231190Y235695069D01*
X5231190Y236481259D01*
%TO.C,J14*%
X86644723Y234546021D02*
X87551866Y234546021D01*
X87733295Y234485545D01*
X87854247Y234364593D01*
X87914723Y234183164D01*
X87914723Y234062212D01*
X87914723Y235816021D02*
X87914723Y235090307D01*
X87914723Y235453164D02*
X86644723Y235453164D01*
X86826152Y235332212D01*
X86947104Y235211259D01*
X87007580Y235090307D01*
X87068057Y236904593D02*
X87914723Y236904593D01*
X86584247Y236602212D02*
X87491390Y236299831D01*
X87491390Y237086021D01*
%TO.C,J12*%
X86644723Y329244477D02*
X87551866Y329244477D01*
X87733295Y329184001D01*
X87854247Y329063049D01*
X87914723Y328881620D01*
X87914723Y328760668D01*
X87914723Y330514477D02*
X87914723Y329788763D01*
X87914723Y330151620D02*
X86644723Y330151620D01*
X86826152Y330030668D01*
X86947104Y329909715D01*
X87007580Y329788763D01*
X86765676Y330998287D02*
X86705200Y331058763D01*
X86644723Y331179715D01*
X86644723Y331482096D01*
X86705200Y331603049D01*
X86765676Y331663525D01*
X86886628Y331724001D01*
X87007580Y331724001D01*
X87189009Y331663525D01*
X87914723Y330937811D01*
X87914723Y331724001D01*
%TO.C,J9*%
X24628666Y6194677D02*
X24628666Y5287534D01*
X24568190Y5106105D01*
X24447238Y4985153D01*
X24265809Y4924677D01*
X24144857Y4924677D01*
X25293904Y4924677D02*
X25535809Y4924677D01*
X25656761Y4985153D01*
X25717238Y5045629D01*
X25838190Y5227058D01*
X25898666Y5468962D01*
X25898666Y5952772D01*
X25838190Y6073724D01*
X25777714Y6134200D01*
X25656761Y6194677D01*
X25414857Y6194677D01*
X25293904Y6134200D01*
X25233428Y6073724D01*
X25172952Y5952772D01*
X25172952Y5650391D01*
X25233428Y5529439D01*
X25293904Y5468962D01*
X25414857Y5408486D01*
X25656761Y5408486D01*
X25777714Y5468962D01*
X25838190Y5529439D01*
X25898666Y5650391D01*
%TO.C,J6*%
X4384523Y140452327D02*
X5291666Y140452327D01*
X5473095Y140391851D01*
X5594047Y140270899D01*
X5654523Y140089470D01*
X5654523Y139968518D01*
X4384523Y141601375D02*
X4384523Y141359470D01*
X4445000Y141238518D01*
X4505476Y141178041D01*
X4686904Y141057089D01*
X4928809Y140996613D01*
X5412619Y140996613D01*
X5533571Y141057089D01*
X5594047Y141117565D01*
X5654523Y141238518D01*
X5654523Y141480422D01*
X5594047Y141601375D01*
X5533571Y141661851D01*
X5412619Y141722327D01*
X5110238Y141722327D01*
X4989285Y141661851D01*
X4928809Y141601375D01*
X4868333Y141480422D01*
X4868333Y141238518D01*
X4928809Y141117565D01*
X4989285Y141057089D01*
X5110238Y140996613D01*
%TO.C,J2*%
X4384523Y329849239D02*
X5291666Y329849239D01*
X5473095Y329788763D01*
X5594047Y329667811D01*
X5654523Y329486382D01*
X5654523Y329365430D01*
X4505476Y330393525D02*
X4445000Y330454001D01*
X4384523Y330574953D01*
X4384523Y330877334D01*
X4445000Y330998287D01*
X4505476Y331058763D01*
X4626428Y331119239D01*
X4747380Y331119239D01*
X4928809Y331058763D01*
X5654523Y330333049D01*
X5654523Y331119239D01*
%TO.C,J16*%
X86644723Y139847565D02*
X87551866Y139847565D01*
X87733295Y139787089D01*
X87854247Y139666137D01*
X87914723Y139484708D01*
X87914723Y139363756D01*
X87914723Y141117565D02*
X87914723Y140391851D01*
X87914723Y140754708D02*
X86644723Y140754708D01*
X86826152Y140633756D01*
X86947104Y140512803D01*
X87007580Y140391851D01*
X86644723Y142206137D02*
X86644723Y141964232D01*
X86705200Y141843280D01*
X86765676Y141782803D01*
X86947104Y141661851D01*
X87189009Y141601375D01*
X87672819Y141601375D01*
X87793771Y141661851D01*
X87854247Y141722327D01*
X87914723Y141843280D01*
X87914723Y142085184D01*
X87854247Y142206137D01*
X87793771Y142266613D01*
X87672819Y142327089D01*
X87370438Y142327089D01*
X87249485Y142266613D01*
X87189009Y142206137D01*
X87128533Y142085184D01*
X87128533Y141843280D01*
X87189009Y141722327D01*
X87249485Y141661851D01*
X87370438Y141601375D01*
%TO.C,J7*%
X4384523Y93103099D02*
X5291666Y93103099D01*
X5473095Y93042623D01*
X5594047Y92921671D01*
X5654523Y92740242D01*
X5654523Y92619290D01*
X4384523Y93586909D02*
X4384523Y94433575D01*
X5654523Y93889290D01*
%TO.C,J3*%
X4384523Y282500011D02*
X5291666Y282500011D01*
X5473095Y282439535D01*
X5594047Y282318583D01*
X5654523Y282137154D01*
X5654523Y282016202D01*
X4384523Y282983821D02*
X4384523Y283770011D01*
X4868333Y283346678D01*
X4868333Y283528106D01*
X4928809Y283649059D01*
X4989285Y283709535D01*
X5110238Y283770011D01*
X5412619Y283770011D01*
X5533571Y283709535D01*
X5594047Y283649059D01*
X5654523Y283528106D01*
X5654523Y283165249D01*
X5594047Y283044297D01*
X5533571Y282983821D01*
%TO.C,J10*%
X55870304Y6194677D02*
X55870304Y5287534D01*
X55809828Y5106105D01*
X55688876Y4985153D01*
X55507447Y4924677D01*
X55386495Y4924677D01*
X57140304Y4924677D02*
X56414590Y4924677D01*
X56777447Y4924677D02*
X56777447Y6194677D01*
X56656495Y6013248D01*
X56535542Y5892296D01*
X56414590Y5831820D01*
X57926495Y6194677D02*
X58047447Y6194677D01*
X58168400Y6134200D01*
X58228876Y6073724D01*
X58289352Y5952772D01*
X58349828Y5710867D01*
X58349828Y5408486D01*
X58289352Y5166581D01*
X58228876Y5045629D01*
X58168400Y4985153D01*
X58047447Y4924677D01*
X57926495Y4924677D01*
X57805542Y4985153D01*
X57745066Y5045629D01*
X57684590Y5166581D01*
X57624114Y5408486D01*
X57624114Y5710867D01*
X57684590Y5952772D01*
X57745066Y6073724D01*
X57805542Y6134200D01*
X57926495Y6194677D01*
%TO.C,J8*%
X4384523Y45753867D02*
X5291666Y45753867D01*
X5473095Y45693391D01*
X5594047Y45572439D01*
X5654523Y45391010D01*
X5654523Y45270058D01*
X4928809Y46540058D02*
X4868333Y46419105D01*
X4807857Y46358629D01*
X4686904Y46298153D01*
X4626428Y46298153D01*
X4505476Y46358629D01*
X4445000Y46419105D01*
X4384523Y46540058D01*
X4384523Y46781962D01*
X4445000Y46902915D01*
X4505476Y46963391D01*
X4626428Y47023867D01*
X4686904Y47023867D01*
X4807857Y46963391D01*
X4868333Y46902915D01*
X4928809Y46781962D01*
X4928809Y46540058D01*
X4989285Y46419105D01*
X5049761Y46358629D01*
X5170714Y46298153D01*
X5412619Y46298153D01*
X5533571Y46358629D01*
X5594047Y46419105D01*
X5654523Y46540058D01*
X5654523Y46781962D01*
X5594047Y46902915D01*
X5533571Y46963391D01*
X5412619Y47023867D01*
X5170714Y47023867D01*
X5049761Y46963391D01*
X4989285Y46902915D01*
X4928809Y46781962D01*
%TO.C,J17*%
X86644723Y92498337D02*
X87551866Y92498337D01*
X87733295Y92437861D01*
X87854247Y92316909D01*
X87914723Y92135480D01*
X87914723Y92014528D01*
X87914723Y93768337D02*
X87914723Y93042623D01*
X87914723Y93405480D02*
X86644723Y93405480D01*
X86826152Y93284528D01*
X86947104Y93163575D01*
X87007580Y93042623D01*
X86644723Y94191671D02*
X86644723Y95038337D01*
X87914723Y94494052D01*
%TO.C,J5*%
X4384523Y187801555D02*
X5291666Y187801555D01*
X5473095Y187741079D01*
X5594047Y187620127D01*
X5654523Y187438698D01*
X5654523Y187317746D01*
X4384523Y189011079D02*
X4384523Y188406317D01*
X4989285Y188345841D01*
X4928809Y188406317D01*
X4868333Y188527269D01*
X4868333Y188829650D01*
X4928809Y188950603D01*
X4989285Y189011079D01*
X5110238Y189071555D01*
X5412619Y189071555D01*
X5533571Y189011079D01*
X5594047Y188950603D01*
X5654523Y188829650D01*
X5654523Y188527269D01*
X5594047Y188406317D01*
X5533571Y188345841D01*
%TO.C,J11*%
X86644723Y376593705D02*
X87551866Y376593705D01*
X87733295Y376533229D01*
X87854247Y376412277D01*
X87914723Y376230848D01*
X87914723Y376109896D01*
X87914723Y377863705D02*
X87914723Y377137991D01*
X87914723Y377500848D02*
X86644723Y377500848D01*
X86826152Y377379896D01*
X86947104Y377258943D01*
X87007580Y377137991D01*
X87914723Y379073229D02*
X87914723Y378347515D01*
X87914723Y378710372D02*
X86644723Y378710372D01*
X86826152Y378589420D01*
X86947104Y378468467D01*
X87007580Y378347515D01*
%TO.C,J18*%
X86644723Y45149105D02*
X87551866Y45149105D01*
X87733295Y45088629D01*
X87854247Y44967677D01*
X87914723Y44786248D01*
X87914723Y44665296D01*
X87914723Y46419105D02*
X87914723Y45693391D01*
X87914723Y46056248D02*
X86644723Y46056248D01*
X86826152Y45935296D01*
X86947104Y45814343D01*
X87007580Y45693391D01*
X87189009Y47144820D02*
X87128533Y47023867D01*
X87068057Y46963391D01*
X86947104Y46902915D01*
X86886628Y46902915D01*
X86765676Y46963391D01*
X86705200Y47023867D01*
X86644723Y47144820D01*
X86644723Y47386724D01*
X86705200Y47507677D01*
X86765676Y47568153D01*
X86886628Y47628629D01*
X86947104Y47628629D01*
X87068057Y47568153D01*
X87128533Y47507677D01*
X87189009Y47386724D01*
X87189009Y47144820D01*
X87249485Y47023867D01*
X87309961Y46963391D01*
X87430914Y46902915D01*
X87672819Y46902915D01*
X87793771Y46963391D01*
X87854247Y47023867D01*
X87914723Y47144820D01*
X87914723Y47386724D01*
X87854247Y47507677D01*
X87793771Y47568153D01*
X87672819Y47628629D01*
X87430914Y47628629D01*
X87309961Y47568153D01*
X87249485Y47507677D01*
X87189009Y47386724D01*
%TO.C,J13*%
X86644723Y281895249D02*
X87551866Y281895249D01*
X87733295Y281834773D01*
X87854247Y281713821D01*
X87914723Y281532392D01*
X87914723Y281411440D01*
X87914723Y283165249D02*
X87914723Y282439535D01*
X87914723Y282802392D02*
X86644723Y282802392D01*
X86826152Y282681440D01*
X86947104Y282560487D01*
X87007580Y282439535D01*
X86644723Y283588583D02*
X86644723Y284374773D01*
X87128533Y283951440D01*
X87128533Y284132868D01*
X87189009Y284253821D01*
X87249485Y284314297D01*
X87370438Y284374773D01*
X87672819Y284374773D01*
X87793771Y284314297D01*
X87854247Y284253821D01*
X87914723Y284132868D01*
X87914723Y283770011D01*
X87854247Y283649059D01*
X87793771Y283588583D01*
%TO.C,J1*%
X4384523Y377198467D02*
X5291666Y377198467D01*
X5473095Y377137991D01*
X5594047Y377017039D01*
X5654523Y376835610D01*
X5654523Y376714658D01*
X5654523Y378468467D02*
X5654523Y377742753D01*
X5654523Y378105610D02*
X4384523Y378105610D01*
X4565952Y377984658D01*
X4686904Y377863705D01*
X4747380Y377742753D01*
%TO.C,J15*%
X86644723Y187196793D02*
X87551866Y187196793D01*
X87733295Y187136317D01*
X87854247Y187015365D01*
X87914723Y186833936D01*
X87914723Y186712984D01*
X87914723Y188466793D02*
X87914723Y187741079D01*
X87914723Y188103936D02*
X86644723Y188103936D01*
X86826152Y187982984D01*
X86947104Y187862031D01*
X87007580Y187741079D01*
X86644723Y189615841D02*
X86644723Y189011079D01*
X87249485Y188950603D01*
X87189009Y189011079D01*
X87128533Y189132031D01*
X87128533Y189434412D01*
X87189009Y189555365D01*
X87249485Y189615841D01*
X87370438Y189676317D01*
X87672819Y189676317D01*
X87793771Y189615841D01*
X87854247Y189555365D01*
X87914723Y189434412D01*
X87914723Y189132031D01*
X87854247Y189011079D01*
X87793771Y188950603D01*
D12*
%TO.C,S3*%
X18970295Y268284839D02*
X19113152Y268237220D01*
X19351247Y268237220D01*
X19446485Y268284839D01*
X19494104Y268332458D01*
X19541723Y268427696D01*
X19541723Y268522934D01*
X19494104Y268618172D01*
X19446485Y268665791D01*
X19351247Y268713410D01*
X19160771Y268761029D01*
X19065533Y268808648D01*
X19017914Y268856267D01*
X18970295Y268951505D01*
X18970295Y269046743D01*
X19017914Y269141981D01*
X19065533Y269189600D01*
X19160771Y269237220D01*
X19398866Y269237220D01*
X19541723Y269189600D01*
X19875057Y269237220D02*
X20494104Y269237220D01*
X20160771Y268856267D01*
X20303628Y268856267D01*
X20398866Y268808648D01*
X20446485Y268761029D01*
X20494104Y268665791D01*
X20494104Y268427696D01*
X20446485Y268332458D01*
X20398866Y268284839D01*
X20303628Y268237220D01*
X20017914Y268237220D01*
X19922676Y268284839D01*
X19875057Y268332458D01*
%TO.C,S15*%
X66124104Y77764839D02*
X66266961Y77717220D01*
X66505057Y77717220D01*
X66600295Y77764839D01*
X66647914Y77812458D01*
X66695533Y77907696D01*
X66695533Y78002934D01*
X66647914Y78098172D01*
X66600295Y78145791D01*
X66505057Y78193410D01*
X66314580Y78241029D01*
X66219342Y78288648D01*
X66171723Y78336267D01*
X66124104Y78431505D01*
X66124104Y78526743D01*
X66171723Y78621981D01*
X66219342Y78669600D01*
X66314580Y78717220D01*
X66552676Y78717220D01*
X66695533Y78669600D01*
X67647914Y77717220D02*
X67076485Y77717220D01*
X67362200Y77717220D02*
X67362200Y78717220D01*
X67266961Y78574362D01*
X67171723Y78479124D01*
X67076485Y78431505D01*
X68552676Y78717220D02*
X68076485Y78717220D01*
X68028866Y78241029D01*
X68076485Y78288648D01*
X68171723Y78336267D01*
X68409819Y78336267D01*
X68505057Y78288648D01*
X68552676Y78241029D01*
X68600295Y78145791D01*
X68600295Y77907696D01*
X68552676Y77812458D01*
X68505057Y77764839D01*
X68409819Y77717220D01*
X68171723Y77717220D01*
X68076485Y77764839D01*
X68028866Y77812458D01*
%TO.C,S10*%
X66124104Y315914839D02*
X66266961Y315867220D01*
X66505057Y315867220D01*
X66600295Y315914839D01*
X66647914Y315962458D01*
X66695533Y316057696D01*
X66695533Y316152934D01*
X66647914Y316248172D01*
X66600295Y316295791D01*
X66505057Y316343410D01*
X66314580Y316391029D01*
X66219342Y316438648D01*
X66171723Y316486267D01*
X66124104Y316581505D01*
X66124104Y316676743D01*
X66171723Y316771981D01*
X66219342Y316819600D01*
X66314580Y316867220D01*
X66552676Y316867220D01*
X66695533Y316819600D01*
X67647914Y315867220D02*
X67076485Y315867220D01*
X67362200Y315867220D02*
X67362200Y316867220D01*
X67266961Y316724362D01*
X67171723Y316629124D01*
X67076485Y316581505D01*
X68266961Y316867220D02*
X68362200Y316867220D01*
X68457438Y316819600D01*
X68505057Y316771981D01*
X68552676Y316676743D01*
X68600295Y316486267D01*
X68600295Y316248172D01*
X68552676Y316057696D01*
X68505057Y315962458D01*
X68457438Y315914839D01*
X68362200Y315867220D01*
X68266961Y315867220D01*
X68171723Y315914839D01*
X68124104Y315962458D01*
X68076485Y316057696D01*
X68028866Y316248172D01*
X68028866Y316486267D01*
X68076485Y316676743D01*
X68124104Y316771981D01*
X68171723Y316819600D01*
X68266961Y316867220D01*
%TO.C,REF\u002A\u002A*%
X82886666Y403197620D02*
X82553333Y403673810D01*
X82315238Y403197620D02*
X82315238Y404197620D01*
X82696190Y404197620D01*
X82791428Y404150000D01*
X82839047Y404102381D01*
X82886666Y404007143D01*
X82886666Y403864286D01*
X82839047Y403769048D01*
X82791428Y403721429D01*
X82696190Y403673810D01*
X82315238Y403673810D01*
X83315238Y403721429D02*
X83648571Y403721429D01*
X83791428Y403197620D02*
X83315238Y403197620D01*
X83315238Y404197620D01*
X83791428Y404197620D01*
X84553333Y403721429D02*
X84220000Y403721429D01*
X84220000Y403197620D02*
X84220000Y404197620D01*
X84696190Y404197620D01*
X85220000Y404197620D02*
X85220000Y403959524D01*
X84981904Y404054762D02*
X85220000Y403959524D01*
X85458095Y404054762D01*
X85077142Y403769048D02*
X85220000Y403959524D01*
X85362857Y403769048D01*
X85981904Y404197620D02*
X85981904Y403959524D01*
X85743809Y404054762D02*
X85981904Y403959524D01*
X86220000Y404054762D01*
X85839047Y403769048D02*
X85981904Y403959524D01*
X86124761Y403769048D01*
%TO.C,S8*%
X18970295Y30134839D02*
X19113152Y30087220D01*
X19351247Y30087220D01*
X19446485Y30134839D01*
X19494104Y30182458D01*
X19541723Y30277696D01*
X19541723Y30372934D01*
X19494104Y30468172D01*
X19446485Y30515791D01*
X19351247Y30563410D01*
X19160771Y30611029D01*
X19065533Y30658648D01*
X19017914Y30706267D01*
X18970295Y30801505D01*
X18970295Y30896743D01*
X19017914Y30991981D01*
X19065533Y31039600D01*
X19160771Y31087220D01*
X19398866Y31087220D01*
X19541723Y31039600D01*
X20113152Y30658648D02*
X20017914Y30706267D01*
X19970295Y30753886D01*
X19922676Y30849124D01*
X19922676Y30896743D01*
X19970295Y30991981D01*
X20017914Y31039600D01*
X20113152Y31087220D01*
X20303628Y31087220D01*
X20398866Y31039600D01*
X20446485Y30991981D01*
X20494104Y30896743D01*
X20494104Y30849124D01*
X20446485Y30753886D01*
X20398866Y30706267D01*
X20303628Y30658648D01*
X20113152Y30658648D01*
X20017914Y30611029D01*
X19970295Y30563410D01*
X19922676Y30468172D01*
X19922676Y30277696D01*
X19970295Y30182458D01*
X20017914Y30134839D01*
X20113152Y30087220D01*
X20303628Y30087220D01*
X20398866Y30134839D01*
X20446485Y30182458D01*
X20494104Y30277696D01*
X20494104Y30468172D01*
X20446485Y30563410D01*
X20398866Y30611029D01*
X20303628Y30658648D01*
%TO.C,*%
%TO.C,REF\u002A\u002A*%
X7166666Y403197620D02*
X6833333Y403673810D01*
X6595238Y403197620D02*
X6595238Y404197620D01*
X6976190Y404197620D01*
X7071428Y404150000D01*
X7119047Y404102381D01*
X7166666Y404007143D01*
X7166666Y403864286D01*
X7119047Y403769048D01*
X7071428Y403721429D01*
X6976190Y403673810D01*
X6595238Y403673810D01*
X7595238Y403721429D02*
X7928571Y403721429D01*
X8071428Y403197620D02*
X7595238Y403197620D01*
X7595238Y404197620D01*
X8071428Y404197620D01*
X8833333Y403721429D02*
X8500000Y403721429D01*
X8500000Y403197620D02*
X8500000Y404197620D01*
X8976190Y404197620D01*
X9500000Y404197620D02*
X9500000Y403959524D01*
X9261904Y404054762D02*
X9500000Y403959524D01*
X9738095Y404054762D01*
X9357142Y403769048D02*
X9500000Y403959524D01*
X9642857Y403769048D01*
X10261904Y404197620D02*
X10261904Y403959524D01*
X10023809Y404054762D02*
X10261904Y403959524D01*
X10500000Y404054762D01*
X10119047Y403769048D02*
X10261904Y403959524D01*
X10404761Y403769048D01*
%TO.C,S14*%
X66124104Y125394839D02*
X66266961Y125347220D01*
X66505057Y125347220D01*
X66600295Y125394839D01*
X66647914Y125442458D01*
X66695533Y125537696D01*
X66695533Y125632934D01*
X66647914Y125728172D01*
X66600295Y125775791D01*
X66505057Y125823410D01*
X66314580Y125871029D01*
X66219342Y125918648D01*
X66171723Y125966267D01*
X66124104Y126061505D01*
X66124104Y126156743D01*
X66171723Y126251981D01*
X66219342Y126299600D01*
X66314580Y126347220D01*
X66552676Y126347220D01*
X66695533Y126299600D01*
X67647914Y125347220D02*
X67076485Y125347220D01*
X67362200Y125347220D02*
X67362200Y126347220D01*
X67266961Y126204362D01*
X67171723Y126109124D01*
X67076485Y126061505D01*
X68505057Y126013886D02*
X68505057Y125347220D01*
X68266961Y126394839D02*
X68028866Y125680553D01*
X68647914Y125680553D01*
%TO.C,S2*%
X18970295Y315914839D02*
X19113152Y315867220D01*
X19351247Y315867220D01*
X19446485Y315914839D01*
X19494104Y315962458D01*
X19541723Y316057696D01*
X19541723Y316152934D01*
X19494104Y316248172D01*
X19446485Y316295791D01*
X19351247Y316343410D01*
X19160771Y316391029D01*
X19065533Y316438648D01*
X19017914Y316486267D01*
X18970295Y316581505D01*
X18970295Y316676743D01*
X19017914Y316771981D01*
X19065533Y316819600D01*
X19160771Y316867220D01*
X19398866Y316867220D01*
X19541723Y316819600D01*
X19922676Y316771981D02*
X19970295Y316819600D01*
X20065533Y316867220D01*
X20303628Y316867220D01*
X20398866Y316819600D01*
X20446485Y316771981D01*
X20494104Y316676743D01*
X20494104Y316581505D01*
X20446485Y316438648D01*
X19875057Y315867220D01*
X20494104Y315867220D01*
%TO.C,S5*%
X18970295Y173024839D02*
X19113152Y172977220D01*
X19351247Y172977220D01*
X19446485Y173024839D01*
X19494104Y173072458D01*
X19541723Y173167696D01*
X19541723Y173262934D01*
X19494104Y173358172D01*
X19446485Y173405791D01*
X19351247Y173453410D01*
X19160771Y173501029D01*
X19065533Y173548648D01*
X19017914Y173596267D01*
X18970295Y173691505D01*
X18970295Y173786743D01*
X19017914Y173881981D01*
X19065533Y173929600D01*
X19160771Y173977220D01*
X19398866Y173977220D01*
X19541723Y173929600D01*
X20446485Y173977220D02*
X19970295Y173977220D01*
X19922676Y173501029D01*
X19970295Y173548648D01*
X20065533Y173596267D01*
X20303628Y173596267D01*
X20398866Y173548648D01*
X20446485Y173501029D01*
X20494104Y173405791D01*
X20494104Y173167696D01*
X20446485Y173072458D01*
X20398866Y173024839D01*
X20303628Y172977220D01*
X20065533Y172977220D01*
X19970295Y173024839D01*
X19922676Y173072458D01*
%TO.C,REF\u002A\u002A*%
X7166666Y13797620D02*
X6833333Y14273810D01*
X6595238Y13797620D02*
X6595238Y14797620D01*
X6976190Y14797620D01*
X7071428Y14750000D01*
X7119047Y14702381D01*
X7166666Y14607143D01*
X7166666Y14464286D01*
X7119047Y14369048D01*
X7071428Y14321429D01*
X6976190Y14273810D01*
X6595238Y14273810D01*
X7595238Y14321429D02*
X7928571Y14321429D01*
X8071428Y13797620D02*
X7595238Y13797620D01*
X7595238Y14797620D01*
X8071428Y14797620D01*
X8833333Y14321429D02*
X8500000Y14321429D01*
X8500000Y13797620D02*
X8500000Y14797620D01*
X8976190Y14797620D01*
X9500000Y14797620D02*
X9500000Y14559524D01*
X9261904Y14654762D02*
X9500000Y14559524D01*
X9738095Y14654762D01*
X9357142Y14369048D02*
X9500000Y14559524D01*
X9642857Y14369048D01*
X10261904Y14797620D02*
X10261904Y14559524D01*
X10023809Y14654762D02*
X10261904Y14559524D01*
X10500000Y14654762D01*
X10119047Y14369048D02*
X10261904Y14559524D01*
X10404761Y14369048D01*
%TO.C,S11*%
X66124104Y268284839D02*
X66266961Y268237220D01*
X66505057Y268237220D01*
X66600295Y268284839D01*
X66647914Y268332458D01*
X66695533Y268427696D01*
X66695533Y268522934D01*
X66647914Y268618172D01*
X66600295Y268665791D01*
X66505057Y268713410D01*
X66314580Y268761029D01*
X66219342Y268808648D01*
X66171723Y268856267D01*
X66124104Y268951505D01*
X66124104Y269046743D01*
X66171723Y269141981D01*
X66219342Y269189600D01*
X66314580Y269237220D01*
X66552676Y269237220D01*
X66695533Y269189600D01*
X67647914Y268237220D02*
X67076485Y268237220D01*
X67362200Y268237220D02*
X67362200Y269237220D01*
X67266961Y269094362D01*
X67171723Y268999124D01*
X67076485Y268951505D01*
X68600295Y268237220D02*
X68028866Y268237220D01*
X68314580Y268237220D02*
X68314580Y269237220D01*
X68219342Y269094362D01*
X68124104Y268999124D01*
X68028866Y268951505D01*
%TO.C,S4*%
X18970295Y220654839D02*
X19113152Y220607220D01*
X19351247Y220607220D01*
X19446485Y220654839D01*
X19494104Y220702458D01*
X19541723Y220797696D01*
X19541723Y220892934D01*
X19494104Y220988172D01*
X19446485Y221035791D01*
X19351247Y221083410D01*
X19160771Y221131029D01*
X19065533Y221178648D01*
X19017914Y221226267D01*
X18970295Y221321505D01*
X18970295Y221416743D01*
X19017914Y221511981D01*
X19065533Y221559600D01*
X19160771Y221607220D01*
X19398866Y221607220D01*
X19541723Y221559600D01*
X20398866Y221273886D02*
X20398866Y220607220D01*
X20160771Y221654839D02*
X19922676Y220940553D01*
X20541723Y220940553D01*
%TO.C,S6*%
X18970295Y125394839D02*
X19113152Y125347220D01*
X19351247Y125347220D01*
X19446485Y125394839D01*
X19494104Y125442458D01*
X19541723Y125537696D01*
X19541723Y125632934D01*
X19494104Y125728172D01*
X19446485Y125775791D01*
X19351247Y125823410D01*
X19160771Y125871029D01*
X19065533Y125918648D01*
X19017914Y125966267D01*
X18970295Y126061505D01*
X18970295Y126156743D01*
X19017914Y126251981D01*
X19065533Y126299600D01*
X19160771Y126347220D01*
X19398866Y126347220D01*
X19541723Y126299600D01*
X20398866Y126347220D02*
X20208390Y126347220D01*
X20113152Y126299600D01*
X20065533Y126251981D01*
X19970295Y126109124D01*
X19922676Y125918648D01*
X19922676Y125537696D01*
X19970295Y125442458D01*
X20017914Y125394839D01*
X20113152Y125347220D01*
X20303628Y125347220D01*
X20398866Y125394839D01*
X20446485Y125442458D01*
X20494104Y125537696D01*
X20494104Y125775791D01*
X20446485Y125871029D01*
X20398866Y125918648D01*
X20303628Y125966267D01*
X20113152Y125966267D01*
X20017914Y125918648D01*
X19970295Y125871029D01*
X19922676Y125775791D01*
%TO.C,S1*%
X18970295Y363544839D02*
X19113152Y363497220D01*
X19351247Y363497220D01*
X19446485Y363544839D01*
X19494104Y363592458D01*
X19541723Y363687696D01*
X19541723Y363782934D01*
X19494104Y363878172D01*
X19446485Y363925791D01*
X19351247Y363973410D01*
X19160771Y364021029D01*
X19065533Y364068648D01*
X19017914Y364116267D01*
X18970295Y364211505D01*
X18970295Y364306743D01*
X19017914Y364401981D01*
X19065533Y364449600D01*
X19160771Y364497220D01*
X19398866Y364497220D01*
X19541723Y364449600D01*
X20494104Y363497220D02*
X19922676Y363497220D01*
X20208390Y363497220D02*
X20208390Y364497220D01*
X20113152Y364354362D01*
X20017914Y364259124D01*
X19922676Y364211505D01*
%TO.C,S9*%
X66600295Y363544839D02*
X66743152Y363497220D01*
X66981247Y363497220D01*
X67076485Y363544839D01*
X67124104Y363592458D01*
X67171723Y363687696D01*
X67171723Y363782934D01*
X67124104Y363878172D01*
X67076485Y363925791D01*
X66981247Y363973410D01*
X66790771Y364021029D01*
X66695533Y364068648D01*
X66647914Y364116267D01*
X66600295Y364211505D01*
X66600295Y364306743D01*
X66647914Y364401981D01*
X66695533Y364449600D01*
X66790771Y364497220D01*
X67028866Y364497220D01*
X67171723Y364449600D01*
X67647914Y363497220D02*
X67838390Y363497220D01*
X67933628Y363544839D01*
X67981247Y363592458D01*
X68076485Y363735315D01*
X68124104Y363925791D01*
X68124104Y364306743D01*
X68076485Y364401981D01*
X68028866Y364449600D01*
X67933628Y364497220D01*
X67743152Y364497220D01*
X67647914Y364449600D01*
X67600295Y364401981D01*
X67552676Y364306743D01*
X67552676Y364068648D01*
X67600295Y363973410D01*
X67647914Y363925791D01*
X67743152Y363878172D01*
X67933628Y363878172D01*
X68028866Y363925791D01*
X68076485Y363973410D01*
X68124104Y364068648D01*
%TO.C,S7*%
X18970295Y77764839D02*
X19113152Y77717220D01*
X19351247Y77717220D01*
X19446485Y77764839D01*
X19494104Y77812458D01*
X19541723Y77907696D01*
X19541723Y78002934D01*
X19494104Y78098172D01*
X19446485Y78145791D01*
X19351247Y78193410D01*
X19160771Y78241029D01*
X19065533Y78288648D01*
X19017914Y78336267D01*
X18970295Y78431505D01*
X18970295Y78526743D01*
X19017914Y78621981D01*
X19065533Y78669600D01*
X19160771Y78717220D01*
X19398866Y78717220D01*
X19541723Y78669600D01*
X19875057Y78717220D02*
X20541723Y78717220D01*
X20113152Y77717220D01*
%TO.C,S13*%
X66124104Y173024839D02*
X66266961Y172977220D01*
X66505057Y172977220D01*
X66600295Y173024839D01*
X66647914Y173072458D01*
X66695533Y173167696D01*
X66695533Y173262934D01*
X66647914Y173358172D01*
X66600295Y173405791D01*
X66505057Y173453410D01*
X66314580Y173501029D01*
X66219342Y173548648D01*
X66171723Y173596267D01*
X66124104Y173691505D01*
X66124104Y173786743D01*
X66171723Y173881981D01*
X66219342Y173929600D01*
X66314580Y173977220D01*
X66552676Y173977220D01*
X66695533Y173929600D01*
X67647914Y172977220D02*
X67076485Y172977220D01*
X67362200Y172977220D02*
X67362200Y173977220D01*
X67266961Y173834362D01*
X67171723Y173739124D01*
X67076485Y173691505D01*
X67981247Y173977220D02*
X68600295Y173977220D01*
X68266961Y173596267D01*
X68409819Y173596267D01*
X68505057Y173548648D01*
X68552676Y173501029D01*
X68600295Y173405791D01*
X68600295Y173167696D01*
X68552676Y173072458D01*
X68505057Y173024839D01*
X68409819Y172977220D01*
X68124104Y172977220D01*
X68028866Y173024839D01*
X67981247Y173072458D01*
%TO.C,S16*%
X66124104Y30134839D02*
X66266961Y30087220D01*
X66505057Y30087220D01*
X66600295Y30134839D01*
X66647914Y30182458D01*
X66695533Y30277696D01*
X66695533Y30372934D01*
X66647914Y30468172D01*
X66600295Y30515791D01*
X66505057Y30563410D01*
X66314580Y30611029D01*
X66219342Y30658648D01*
X66171723Y30706267D01*
X66124104Y30801505D01*
X66124104Y30896743D01*
X66171723Y30991981D01*
X66219342Y31039600D01*
X66314580Y31087220D01*
X66552676Y31087220D01*
X66695533Y31039600D01*
X67647914Y30087220D02*
X67076485Y30087220D01*
X67362200Y30087220D02*
X67362200Y31087220D01*
X67266961Y30944362D01*
X67171723Y30849124D01*
X67076485Y30801505D01*
X68505057Y31087220D02*
X68314580Y31087220D01*
X68219342Y31039600D01*
X68171723Y30991981D01*
X68076485Y30849124D01*
X68028866Y30658648D01*
X68028866Y30277696D01*
X68076485Y30182458D01*
X68124104Y30134839D01*
X68219342Y30087220D01*
X68409819Y30087220D01*
X68505057Y30134839D01*
X68552676Y30182458D01*
X68600295Y30277696D01*
X68600295Y30515791D01*
X68552676Y30611029D01*
X68505057Y30658648D01*
X68409819Y30706267D01*
X68219342Y30706267D01*
X68124104Y30658648D01*
X68076485Y30611029D01*
X68028866Y30515791D01*
%TO.C,S12*%
X66124104Y220654839D02*
X66266961Y220607220D01*
X66505057Y220607220D01*
X66600295Y220654839D01*
X66647914Y220702458D01*
X66695533Y220797696D01*
X66695533Y220892934D01*
X66647914Y220988172D01*
X66600295Y221035791D01*
X66505057Y221083410D01*
X66314580Y221131029D01*
X66219342Y221178648D01*
X66171723Y221226267D01*
X66124104Y221321505D01*
X66124104Y221416743D01*
X66171723Y221511981D01*
X66219342Y221559600D01*
X66314580Y221607220D01*
X66552676Y221607220D01*
X66695533Y221559600D01*
X67647914Y220607220D02*
X67076485Y220607220D01*
X67362200Y220607220D02*
X67362200Y221607220D01*
X67266961Y221464362D01*
X67171723Y221369124D01*
X67076485Y221321505D01*
X68028866Y221511981D02*
X68076485Y221559600D01*
X68171723Y221607220D01*
X68409819Y221607220D01*
X68505057Y221559600D01*
X68552676Y221511981D01*
X68600295Y221416743D01*
X68600295Y221321505D01*
X68552676Y221178648D01*
X67981247Y220607220D01*
X68600295Y220607220D01*
D13*
%TO.C,J4*%
X8641800Y224239316D02*
X1441800Y224239316D01*
X8641800Y232639316D02*
X8641800Y224239316D01*
X1441800Y224239316D02*
X1441800Y232639316D01*
X1441800Y232639316D02*
X8641800Y232639316D01*
%TO.C,J14*%
X90902000Y224239316D02*
X83702000Y224239316D01*
X90902000Y232639316D02*
X90902000Y224239316D01*
X83702000Y224239316D02*
X83702000Y232639316D01*
X83702000Y232639316D02*
X90902000Y232639316D01*
%TO.C,J12*%
X90902000Y318937772D02*
X83702000Y318937772D01*
X90902000Y327337772D02*
X90902000Y318937772D01*
X83702000Y318937772D02*
X83702000Y327337772D01*
X83702000Y327337772D02*
X90902000Y327337772D01*
%TO.C,J9*%
X36386800Y9061000D02*
X36386800Y1861000D01*
X27986800Y9061000D02*
X36386800Y9061000D01*
X36386800Y1861000D02*
X27986800Y1861000D01*
X27986800Y1861000D02*
X27986800Y9061000D01*
%TO.C,J6*%
X8641800Y129540860D02*
X1441800Y129540860D01*
X8641800Y137940860D02*
X8641800Y129540860D01*
X1441800Y129540860D02*
X1441800Y137940860D01*
X1441800Y137940860D02*
X8641800Y137940860D01*
%TO.C,J2*%
X8641800Y318937772D02*
X1441800Y318937772D01*
X8641800Y327337772D02*
X8641800Y318937772D01*
X1441800Y318937772D02*
X1441800Y327337772D01*
X1441800Y327337772D02*
X8641800Y327337772D01*
%TO.C,J16*%
X90902000Y129540860D02*
X83702000Y129540860D01*
X90902000Y137940860D02*
X90902000Y129540860D01*
X83702000Y129540860D02*
X83702000Y137940860D01*
X83702000Y137940860D02*
X90902000Y137940860D01*
%TO.C,J7*%
X8641800Y82191632D02*
X1441800Y82191632D01*
X8641800Y90591632D02*
X8641800Y82191632D01*
X1441800Y82191632D02*
X1441800Y90591632D01*
X1441800Y90591632D02*
X8641800Y90591632D01*
%TO.C,J3*%
X8641800Y271588544D02*
X1441800Y271588544D01*
X8641800Y279988544D02*
X8641800Y271588544D01*
X1441800Y271588544D02*
X1441800Y279988544D01*
X1441800Y279988544D02*
X8641800Y279988544D01*
%TO.C,J10*%
X68233200Y9061000D02*
X68233200Y1861000D01*
X59833200Y9061000D02*
X68233200Y9061000D01*
X68233200Y1861000D02*
X59833200Y1861000D01*
X59833200Y1861000D02*
X59833200Y9061000D01*
%TO.C,J8*%
X8641800Y34842400D02*
X1441800Y34842400D01*
X8641800Y43242400D02*
X8641800Y34842400D01*
X1441800Y34842400D02*
X1441800Y43242400D01*
X1441800Y43242400D02*
X8641800Y43242400D01*
%TO.C,J17*%
X90902000Y82191632D02*
X83702000Y82191632D01*
X90902000Y90591632D02*
X90902000Y82191632D01*
X83702000Y82191632D02*
X83702000Y90591632D01*
X83702000Y90591632D02*
X90902000Y90591632D01*
%TO.C,J5*%
X8641800Y176890088D02*
X1441800Y176890088D01*
X8641800Y185290088D02*
X8641800Y176890088D01*
X1441800Y176890088D02*
X1441800Y185290088D01*
X1441800Y185290088D02*
X8641800Y185290088D01*
%TO.C,J11*%
X90902000Y366287000D02*
X83702000Y366287000D01*
X90902000Y374687000D02*
X90902000Y366287000D01*
X83702000Y366287000D02*
X83702000Y374687000D01*
X83702000Y374687000D02*
X90902000Y374687000D01*
%TO.C,J18*%
X90902000Y34842400D02*
X83702000Y34842400D01*
X90902000Y43242400D02*
X90902000Y34842400D01*
X83702000Y34842400D02*
X83702000Y43242400D01*
X83702000Y43242400D02*
X90902000Y43242400D01*
%TO.C,J13*%
X90902000Y271588544D02*
X83702000Y271588544D01*
X90902000Y279988544D02*
X90902000Y271588544D01*
X83702000Y271588544D02*
X83702000Y279988544D01*
X83702000Y279988544D02*
X90902000Y279988544D01*
%TO.C,J1*%
X8641800Y366287000D02*
X1441800Y366287000D01*
X8641800Y374687000D02*
X8641800Y366287000D01*
X1441800Y366287000D02*
X1441800Y374687000D01*
X1441800Y374687000D02*
X8641800Y374687000D01*
%TO.C,J15*%
X90902000Y176890088D02*
X83702000Y176890088D01*
X90902000Y185290088D02*
X90902000Y176890088D01*
X83702000Y176890088D02*
X83702000Y185290088D01*
X83702000Y185290088D02*
X90902000Y185290088D01*
%TD*%
M02*
