%TF.GenerationSoftware,KiCad,Pcbnew,(6.0.0)*%
%TF.CreationDate,2022-10-28T16:08:40-04:00*%
%TF.ProjectId,Top_Level,546f705f-4c65-4766-956c-2e6b69636164,rev?*%
%TF.SameCoordinates,PX33f5838PY820f690*%
%TF.FileFunction,Copper,L1,Top*%
%TF.FilePolarity,Positive*%
%FSLAX46Y46*%
G04 Gerber Fmt 4.6, Leading zero omitted, Abs format (unit mm)*
G04 Created by KiCad (PCBNEW (6.0.0)) date 2022-10-28 16:08:40*
%MOMM*%
%LPD*%
G01*
G04 APERTURE LIST*
%TA.AperFunction,Profile*%
%ADD10C,0.100000*%
%TD*%
%TA.AperFunction,ComponentPad*%
%ADD11C,1.400000*%
%TD*%
%TA.AperFunction,ComponentPad*%
%ADD12C,2.800000*%
%TD*%
%TA.AperFunction,ComponentPad*%
%ADD13C,2.100000*%
%TD*%
%TA.AperFunction,SMDPad,CuDef*%
%ADD14R,0.750000X0.600000*%
%TD*%
%TA.AperFunction,SMDPad,CuDef*%
%ADD15R,1.600000X0.800000*%
%TD*%
%TA.AperFunction,SMDPad,CuDef*%
%ADD16R,0.800000X1.600000*%
%TD*%
%TA.AperFunction,SMDPad,CuDef*%
%ADD17R,1.000000X1.400000*%
%TD*%
%TA.AperFunction,SMDPad,CuDef*%
%ADD18R,2.720000X1.020000*%
%TD*%
%TA.AperFunction,ComponentPad*%
%ADD19C,1.422400*%
%TD*%
%TA.AperFunction,ComponentPad*%
%ADD20C,2.768600*%
%TD*%
%TA.AperFunction,ComponentPad*%
%ADD21R,1.700000X1.700000*%
%TD*%
%TA.AperFunction,ComponentPad*%
%ADD22O,1.700000X1.700000*%
%TD*%
%TA.AperFunction,ComponentPad*%
%ADD23R,2.025000X2.025000*%
%TD*%
%TA.AperFunction,ComponentPad*%
%ADD24C,2.025000*%
%TD*%
%TA.AperFunction,ComponentPad*%
%ADD25C,1.200000*%
%TD*%
%TA.AperFunction,ComponentPad*%
%ADD26C,1.600000*%
%TD*%
%TA.AperFunction,SMDPad,CuDef*%
%ADD27R,0.330200X0.711200*%
%TD*%
%TA.AperFunction,SMDPad,CuDef*%
%ADD28R,0.800000X0.655600*%
%TD*%
%TA.AperFunction,SMDPad,CuDef*%
%ADD29R,1.400000X1.000000*%
%TD*%
%TA.AperFunction,SMDPad,CuDef*%
%ADD30R,15.000000X15.000000*%
%TD*%
%TA.AperFunction,SMDPad,CuDef*%
%ADD31R,0.950000X0.750000*%
%TD*%
%TA.AperFunction,SMDPad,CuDef*%
%ADD32R,3.350000X1.250000*%
%TD*%
%TA.AperFunction,SMDPad,CuDef*%
%ADD33R,0.304800X1.270000*%
%TD*%
%TA.AperFunction,SMDPad,CuDef*%
%ADD34R,3.039999X2.340000*%
%TD*%
%TA.AperFunction,SMDPad,CuDef*%
%ADD35R,1.020000X2.720000*%
%TD*%
%TA.AperFunction,SMDPad,CuDef*%
%ADD36R,0.450000X1.475000*%
%TD*%
%TA.AperFunction,SMDPad,CuDef*%
%ADD37R,0.700000X1.300000*%
%TD*%
%TA.AperFunction,SMDPad,CuDef*%
%ADD38R,1.600000X2.450000*%
%TD*%
%TA.AperFunction,SMDPad,CuDef*%
%ADD39R,1.250000X3.350000*%
%TD*%
%TA.AperFunction,SMDPad,CuDef*%
%ADD40R,0.711200X0.330200*%
%TD*%
%TA.AperFunction,SMDPad,CuDef*%
%ADD41R,1.200000X1.200000*%
%TD*%
%TA.AperFunction,SMDPad,CuDef*%
%ADD42R,1.070000X2.160000*%
%TD*%
%TA.AperFunction,SMDPad,CuDef*%
%ADD43R,10.800000X1.910000*%
%TD*%
%TA.AperFunction,SMDPad,CuDef*%
%ADD44R,8.330000X5.080000*%
%TD*%
%TA.AperFunction,SMDPad,CuDef*%
%ADD45R,1.498600X3.911600*%
%TD*%
%TA.AperFunction,SMDPad,CuDef*%
%ADD46R,2.971800X0.558800*%
%TD*%
%TA.AperFunction,SMDPad,CuDef*%
%ADD47R,3.500000X1.600000*%
%TD*%
%TA.AperFunction,SMDPad,CuDef*%
%ADD48R,0.655600X0.800000*%
%TD*%
%TA.AperFunction,SMDPad,CuDef*%
%ADD49R,11.912600X2.971800*%
%TD*%
%TA.AperFunction,SMDPad,CuDef*%
%ADD50R,1.400000X1.050000*%
%TD*%
%TA.AperFunction,SMDPad,CuDef*%
%ADD51R,0.600000X0.750000*%
%TD*%
%TA.AperFunction,ComponentPad*%
%ADD52O,1.600000X1.600000*%
%TD*%
%TA.AperFunction,SMDPad,CuDef*%
%ADD53R,0.420000X0.460000*%
%TD*%
%TA.AperFunction,SMDPad,CuDef*%
%ADD54R,3.300000X2.450000*%
%TD*%
%TA.AperFunction,ComponentPad*%
%ADD55C,1.800000*%
%TD*%
%TA.AperFunction,SMDPad,CuDef*%
%ADD56R,5.308600X2.794000*%
%TD*%
%TA.AperFunction,SMDPad,CuDef*%
%ADD57R,2.641600X1.193800*%
%TD*%
%TA.AperFunction,SMDPad,CuDef*%
%ADD58R,0.460000X0.420000*%
%TD*%
%TA.AperFunction,SMDPad,CuDef*%
%ADD59R,1.570000X2.820000*%
%TD*%
%TA.AperFunction,SMDPad,CuDef*%
%ADD60R,0.300000X0.475000*%
%TD*%
%TA.AperFunction,SMDPad,CuDef*%
%ADD61R,1.016000X2.692400*%
%TD*%
%TA.AperFunction,SMDPad,CuDef*%
%ADD62R,10.464800X10.871200*%
%TD*%
%TA.AperFunction,ComponentPad*%
%ADD63C,5.040000*%
%TD*%
%TA.AperFunction,ComponentPad*%
%ADD64C,4.065000*%
%TD*%
%TA.AperFunction,ComponentPad*%
%ADD65C,4.335000*%
%TD*%
%TA.AperFunction,ViaPad*%
%ADD66C,1.500000*%
%TD*%
%TA.AperFunction,ViaPad*%
%ADD67C,0.800000*%
%TD*%
%TA.AperFunction,ViaPad*%
%ADD68C,1.000000*%
%TD*%
%TA.AperFunction,Conductor*%
%ADD69C,0.250000*%
%TD*%
%TA.AperFunction,Conductor*%
%ADD70C,0.400000*%
%TD*%
%TA.AperFunction,Conductor*%
%ADD71C,1.000000*%
%TD*%
%TA.AperFunction,Conductor*%
%ADD72C,0.600000*%
%TD*%
%TA.AperFunction,Conductor*%
%ADD73C,0.200000*%
%TD*%
%TA.AperFunction,Conductor*%
%ADD74C,0.300000*%
%TD*%
G04 APERTURE END LIST*
D10*
X0Y0D02*
X173990000Y0D01*
X173990000Y0D02*
X173990000Y97790000D01*
X173990000Y97790000D02*
X0Y97790000D01*
X0Y97790000D02*
X0Y0D01*
D11*
%TO.P,JP2,1,A*%
%TO.N,+24V*%
X111506000Y56622000D03*
%TO.P,JP2,2,B*%
%TO.N,Net-(C10-Pad2)*%
X111506000Y54082000D03*
%TD*%
D12*
%TO.P,TP15,1,1*%
%TO.N,Net-(C29-Pad1)*%
X135890000Y5334000D03*
%TD*%
D13*
%TO.P,J21,1,1*%
%TO.N,GND*%
X42954000Y4806000D03*
%TO.P,J21,2,2*%
%TO.N,Net-(J21-Pad2)*%
X46454000Y4806000D03*
%TD*%
D14*
%TO.P,R74,1*%
%TO.N,Net-(J21-Pad2)*%
X47413000Y10902000D03*
%TO.P,R74,2*%
%TO.N,Net-(C38-Pad2)*%
X46313000Y10902000D03*
%TD*%
D15*
%TO.P,R14,1*%
%TO.N,Net-(C8-Pad2)*%
X112574000Y37910000D03*
%TO.P,R14,2*%
%TO.N,Z_HOME*%
X112574000Y35510000D03*
%TD*%
D13*
%TO.P,J9,1,1*%
%TO.N,GND*%
X110518000Y4806000D03*
%TO.P,J9,2,2*%
%TO.N,Net-(J9-Pad2)*%
X114018000Y4806000D03*
%TD*%
D16*
%TO.P,R64,1*%
%TO.N,Net-(J19-Pad1)*%
X99659967Y78212000D03*
%TO.P,R64,2*%
%TO.N,GND*%
X102059967Y78212000D03*
%TD*%
D17*
%TO.P,R52,1*%
%TO.N,LED_R*%
X31369000Y28428000D03*
%TO.P,R52,2*%
%TO.N,Net-(LED1-Pad2)*%
X29469000Y28428000D03*
%TD*%
D18*
%TO.P,C13,1*%
%TO.N,GND*%
X88900000Y11150000D03*
%TO.P,C13,2*%
%TO.N,Net-(C13-Pad2)*%
X88900000Y13950000D03*
%TD*%
D19*
%TO.P,J6,1,VBUS*%
%TO.N,+5V*%
X159919000Y84278099D03*
%TO.P,J6,2,D-*%
%TO.N,unconnected-(J6-Pad2)*%
X159919000Y86778099D03*
%TO.P,J6,3,D+*%
%TO.N,unconnected-(J6-Pad3)*%
X159919000Y88778100D03*
%TO.P,J6,4,GND*%
%TO.N,GND*%
X159919000Y91278100D03*
D20*
%TO.P,J6,5,Shield*%
X162629000Y81208100D03*
%TO.P,J6,6,MOUNT*%
%TO.N,unconnected-(J6-Pad6)*%
X162629000Y94348099D03*
%TD*%
D15*
%TO.P,R11,1*%
%TO.N,Net-(IC2-Pad12)*%
X99977722Y45251812D03*
%TO.P,R11,2*%
%TO.N,GND*%
X99977722Y42851812D03*
%TD*%
%TO.P,R13,1*%
%TO.N,Z_FAULT*%
X102310000Y33424000D03*
%TO.P,R13,2*%
%TO.N,Net-(C8-Pad2)*%
X102310000Y35824000D03*
%TD*%
%TO.P,R45,1*%
%TO.N,Net-(C31-Pad2)*%
X10593000Y29294000D03*
%TO.P,R45,2*%
%TO.N,Net-(JP12-Pad2)*%
X10593000Y26894000D03*
%TD*%
D11*
%TO.P,JP15,1,A*%
%TO.N,+3.3V*%
X28595000Y74148000D03*
%TO.P,JP15,2,B*%
%TO.N,Net-(JP15-Pad2)*%
X31135000Y74148000D03*
%TD*%
D21*
%TO.P,J4-J2,1,Pin_1*%
%TO.N,GND*%
X41529000Y70358000D03*
D22*
%TO.P,J4-J2,2,Pin_2*%
%TO.N,RESET_OUT*%
X41529000Y67818000D03*
%TO.P,J4-J2,3,Pin_3*%
%TO.N,HOME_OUT*%
X44069000Y70358000D03*
%TO.P,J4-J2,4,Pin_4*%
%TO.N,START_OUT*%
X44069000Y67818000D03*
%TO.P,J4-J2,5,Pin_5*%
%TO.N,/MSP432E401Y/PH_2*%
X46609000Y70358000D03*
%TO.P,J4-J2,6,Pin_6*%
%TO.N,Y_HOME*%
X46609000Y67818000D03*
%TO.P,J4-J2,7,Pin_7*%
%TO.N,/MSP432E401Y/PH_3*%
X49149000Y70358000D03*
%TO.P,J4-J2,8,Pin_8*%
%TO.N,Y_FAULT*%
X49149000Y67818000D03*
%TO.P,J4-J2,9,Pin_9*%
%TO.N,/MSP432E401Y/RST*%
X51689000Y70358000D03*
%TO.P,J4-J2,10,Pin_10*%
%TO.N,/MSP432E401Y/PL_4*%
X51689000Y67818000D03*
%TO.P,J4-J2,11,Pin_11*%
%TO.N,DEMUX_S0*%
X54229000Y70358000D03*
%TO.P,J4-J2,12,Pin_12*%
%TO.N,/MSP432E401Y/PL_5*%
X54229000Y67818000D03*
%TO.P,J4-J2,13,Pin_13*%
%TO.N,DEMUX_S1*%
X56769000Y70358000D03*
%TO.P,J4-J2,14,Pin_14*%
%TO.N,/MSP432E401Y/PL_0*%
X56769000Y67818000D03*
%TO.P,J4-J2,15,Pin_15*%
%TO.N,DEMUX_S2*%
X59309000Y70358000D03*
%TO.P,J4-J2,16,Pin_16*%
%TO.N,/MSP432E401Y/PL_1*%
X59309000Y67818000D03*
%TO.P,J4-J2,17,Pin_17*%
%TO.N,/MSP432E401Y/PN_3*%
X61849000Y70358000D03*
%TO.P,J4-J2,18,Pin_18*%
%TO.N,/MSP432E401Y/PL_2*%
X61849000Y67818000D03*
%TO.P,J4-J2,19,Pin_19*%
%TO.N,/MSP432E401Y/PP_2*%
X64389000Y70358000D03*
%TO.P,J4-J2,20,Pin_20*%
%TO.N,/MSP432E401Y/PL_3*%
X64389000Y67818000D03*
%TD*%
D23*
%TO.P,J18,1,1*%
%TO.N,Net-(J18-Pad1)*%
X21417992Y84691114D03*
D24*
%TO.P,J18,2,2*%
%TO.N,Net-(J18-Pad2)*%
X25227992Y84691114D03*
%TO.P,J18,3,3*%
%TO.N,Net-(J18-Pad3)*%
X29037992Y84691114D03*
%TO.P,J18,4,4*%
%TO.N,Net-(J18-Pad4)*%
X32847992Y84691114D03*
%TD*%
D18*
%TO.P,C39,1*%
%TO.N,GND*%
X65814000Y11150000D03*
%TO.P,C39,2*%
%TO.N,Net-(C39-Pad2)*%
X65814000Y13950000D03*
%TD*%
D25*
%TO.P,LED1,1,ANODE_BLUE*%
%TO.N,Net-(LED1-Pad1)*%
X24511000Y30501000D03*
%TO.P,LED1,2,ANODE_RED*%
%TO.N,Net-(LED1-Pad2)*%
X23711000Y29231000D03*
%TO.P,LED1,3,COMMON_CATHODE*%
%TO.N,Net-(JP14-Pad2)*%
X24511000Y27961000D03*
%TO.P,LED1,4,ANODE_GREEN*%
%TO.N,Net-(LED1-Pad4)*%
X23711000Y26691000D03*
%TD*%
D26*
%TO.P,C28,1*%
%TO.N,+24V*%
X153162000Y22586000D03*
%TO.P,C28,2*%
%TO.N,GND*%
X153162000Y20086000D03*
%TD*%
D27*
%TO.P,U12,1,1*%
%TO.N,GND*%
X96774000Y11219500D03*
%TO.P,U12,2,2*%
%TO.N,LS_X_OUT*%
X96774000Y12616500D03*
%TD*%
D28*
%TO.P,C35,1*%
%TO.N,+5V*%
X148844000Y85155800D03*
%TO.P,C35,2*%
%TO.N,GND*%
X148844000Y83500200D03*
%TD*%
D23*
%TO.P,J4,1,1*%
%TO.N,/StepperDriver2/2B*%
X44214000Y92264000D03*
D24*
%TO.P,J4,2,2*%
%TO.N,/StepperDriver2/2A*%
X48024000Y92264000D03*
%TO.P,J4,3,3*%
%TO.N,/StepperDriver2/1B*%
X51834000Y92264000D03*
%TO.P,J4,4,4*%
%TO.N,/StepperDriver2/1A*%
X55644000Y92264000D03*
%TD*%
D14*
%TO.P,R17,1*%
%TO.N,Net-(J7-Pad2)*%
X92498000Y10902000D03*
%TO.P,R17,2*%
%TO.N,Net-(C13-Pad2)*%
X91398000Y10902000D03*
%TD*%
D11*
%TO.P,JP20,1,A*%
%TO.N,+3.3V*%
X60579000Y19772000D03*
%TO.P,JP20,2,B*%
%TO.N,Net-(JP20-Pad2)*%
X60579000Y17232000D03*
%TD*%
D16*
%TO.P,R67,1*%
%TO.N,Net-(J18-Pad3)*%
X27711414Y80275456D03*
%TO.P,R67,2*%
%TO.N,GND*%
X30111414Y80275456D03*
%TD*%
D23*
%TO.P,J16,1,1*%
%TO.N,Net-(J16-Pad1)*%
X4640753Y84691114D03*
D24*
%TO.P,J16,2,2*%
%TO.N,Net-(J16-Pad2)*%
X8450753Y84691114D03*
%TO.P,J16,3,3*%
%TO.N,Net-(J16-Pad3)*%
X12260753Y84691114D03*
%TO.P,J16,4,4*%
%TO.N,Net-(J16-Pad4)*%
X16070753Y84691114D03*
%TD*%
D16*
%TO.P,R63,1*%
%TO.N,Net-(J18-Pad1)*%
X19878516Y80275456D03*
%TO.P,R63,2*%
%TO.N,GND*%
X22278516Y80275456D03*
%TD*%
D29*
%TO.P,R54,1*%
%TO.N,Net-(JP16-Pad2)*%
X92390463Y81883312D03*
%TO.P,R54,2*%
%TO.N,Net-(IC6-Pad3)*%
X92390463Y83783312D03*
%TD*%
D30*
%TO.P,HS1,1*%
%TO.N,GND*%
X125349000Y44958000D03*
%TD*%
D23*
%TO.P,J14,1,1*%
%TO.N,Net-(IC5-Pad15)*%
X32063753Y94145650D03*
D24*
%TO.P,J14,2,2*%
%TO.N,Net-(IC5-Pad14)*%
X28253753Y94145650D03*
%TO.P,J14,3,3*%
%TO.N,Net-(IC5-Pad13)*%
X24443753Y94145650D03*
%TO.P,J14,4,4*%
%TO.N,Net-(IC5-Pad12)*%
X20633753Y94145650D03*
%TD*%
D31*
%TO.P,R43,1*%
%TO.N,Net-(D2-Pad1)*%
X135128000Y65952000D03*
%TO.P,R43,2*%
%TO.N,Net-(C30-Pad1)*%
X135128000Y67652000D03*
%TD*%
D32*
%TO.P,R25,1*%
%TO.N,Net-(C15-Pad2)*%
X16129000Y62024000D03*
%TO.P,R25,2*%
%TO.N,HOME_OUT*%
X16129000Y68024000D03*
%TD*%
D33*
%TO.P,IC1,1,CP1*%
%TO.N,Net-(C6-Pad2)*%
X53691574Y43065700D03*
%TO.P,IC1,2,CP2*%
%TO.N,Net-(C6-Pad1)*%
X53041563Y43065700D03*
%TO.P,IC1,3,VCP*%
%TO.N,Net-(C5-Pad1)*%
X52391551Y43065700D03*
%TO.P,IC1,4,VMA*%
%TO.N,Net-(C1-Pad1)*%
X51741540Y43065700D03*
%TO.P,IC1,5,AOUT1*%
%TO.N,/StepperDriver2/1A*%
X51091528Y43065700D03*
%TO.P,IC1,6,ISENA*%
%TO.N,Net-(IC1-Pad6)*%
X50441517Y43065700D03*
%TO.P,IC1,7,AOUT2*%
%TO.N,/StepperDriver2/2A*%
X49791506Y43065700D03*
%TO.P,IC1,8,BOUT2*%
%TO.N,/StepperDriver2/2B*%
X49141494Y43065700D03*
%TO.P,IC1,9,ISENB*%
%TO.N,Net-(IC1-Pad9)*%
X48491483Y43065700D03*
%TO.P,IC1,10,BOUT1*%
%TO.N,/StepperDriver2/1B*%
X47841472Y43065700D03*
%TO.P,IC1,11,VMB*%
%TO.N,Net-(C1-Pad1)*%
X47191460Y43065700D03*
%TO.P,IC1,12,AVREF*%
%TO.N,Net-(IC1-Pad12)*%
X46541449Y43065700D03*
%TO.P,IC1,13,BVREF*%
X45891437Y43065700D03*
%TO.P,IC1,14,GND_1*%
%TO.N,GND*%
X45241426Y43065700D03*
%TO.P,IC1,15,V3P3OUT*%
%TO.N,Net-(C2-Pad2)*%
X45241426Y37122100D03*
%TO.P,IC1,16,NRESET*%
%TO.N,XYZ_RESET*%
X45891437Y37122100D03*
%TO.P,IC1,17,NSLEEP*%
X46541449Y37122100D03*
%TO.P,IC1,18,NFAULT*%
%TO.N,Y_FAULT*%
X47191460Y37122100D03*
%TO.P,IC1,19,DECAY*%
%TO.N,XYZ_DECAY*%
X47841472Y37122100D03*
%TO.P,IC1,20,DIR*%
%TO.N,Y_DIR*%
X48491483Y37122100D03*
%TO.P,IC1,21,NENBL*%
%TO.N,Y_ENABLE*%
X49141494Y37122100D03*
%TO.P,IC1,22,STEP*%
%TO.N,Y_STEP*%
X49791506Y37122100D03*
%TO.P,IC1,23,NC*%
%TO.N,unconnected-(IC1-Pad23)*%
X50441517Y37122100D03*
%TO.P,IC1,24,MODE0*%
%TO.N,XY_MS0*%
X51091528Y37122100D03*
%TO.P,IC1,25,MODE1*%
%TO.N,XY_MS1*%
X51741540Y37122100D03*
%TO.P,IC1,26,MODE2*%
%TO.N,XY_MS2*%
X52391551Y37122100D03*
%TO.P,IC1,27,NHOME*%
%TO.N,Y_HOME*%
X53041563Y37122100D03*
%TO.P,IC1,28,GND_2*%
%TO.N,GND*%
X53691574Y37122100D03*
D34*
%TO.P,IC1,29,EPAD*%
X49466500Y40093900D03*
%TD*%
D18*
%TO.P,C16,1*%
%TO.N,GND*%
X76962000Y11150000D03*
%TO.P,C16,2*%
%TO.N,Net-(C16-Pad2)*%
X76962000Y13950000D03*
%TD*%
D35*
%TO.P,C31,1*%
%TO.N,GND*%
X8506000Y31750000D03*
%TO.P,C31,2*%
%TO.N,Net-(C31-Pad2)*%
X11306000Y31750000D03*
%TD*%
%TO.P,C15,1*%
%TO.N,GND*%
X8379000Y64242000D03*
%TO.P,C15,2*%
%TO.N,Net-(C15-Pad2)*%
X11179000Y64242000D03*
%TD*%
D36*
%TO.P,IC5,16,VCC*%
%TO.N,+3.3V*%
X36067779Y92065591D03*
%TO.P,IC5,15,A2_CHANNEL_IN/OUT*%
%TO.N,Net-(IC5-Pad15)*%
X36717779Y92065591D03*
%TO.P,IC5,14,A1_CHANNEL_IN/OUT*%
%TO.N,Net-(IC5-Pad14)*%
X37367779Y92065591D03*
%TO.P,IC5,13,A0_CHANNEL_IN/OUT*%
%TO.N,Net-(IC5-Pad13)*%
X38017779Y92065591D03*
%TO.P,IC5,12,A3_CHANNEL_IN/OUT*%
%TO.N,Net-(IC5-Pad12)*%
X38667779Y92065591D03*
%TO.P,IC5,11,S0_ADDRESS_SELECT*%
%TO.N,DEMUX_S0*%
X39317779Y92065591D03*
%TO.P,IC5,10,S1_ADDRESS_SELECT*%
%TO.N,DEMUX_S1*%
X39967779Y92065591D03*
%TO.P,IC5,9,S2_ADDRESS_SELECT*%
%TO.N,DEMUX_S2*%
X40617779Y92065591D03*
%TO.P,IC5,8,GND*%
%TO.N,GND*%
X40617779Y86189591D03*
%TO.P,IC5,7,VEE*%
X39967779Y86189591D03*
%TO.P,IC5,6,~{E}*%
X39317779Y86189591D03*
%TO.P,IC5,5,A5_CHANNEL_IN/OUT*%
%TO.N,Net-(IC5-Pad5)*%
X38667779Y86189591D03*
%TO.P,IC5,4,A7_CHANNEL_IN/OUT*%
%TO.N,Net-(IC5-Pad4)*%
X38017779Y86189591D03*
%TO.P,IC5,3,COM_OUT/IN_A*%
%TO.N,Net-(IC5-Pad3)*%
X37367779Y86189591D03*
%TO.P,IC5,2,A6_CHANNEL_IN/OUT*%
%TO.N,Net-(IC5-Pad2)*%
X36717779Y86189591D03*
%TO.P,IC5,1,A4_CHANNEL_IN/OUT*%
%TO.N,Net-(IC5-Pad1)*%
X36067779Y86189591D03*
%TD*%
D37*
%TO.P,R35,1*%
%TO.N,Net-(C19-Pad1)*%
X74234682Y48538900D03*
%TO.P,R35,2*%
%TO.N,Net-(C23-Pad1)*%
X76134682Y48538900D03*
%TD*%
D15*
%TO.P,R24,1*%
%TO.N,Net-(C15-Pad2)*%
X10593000Y61806000D03*
%TO.P,R24,2*%
%TO.N,Net-(JP5-Pad2)*%
X10593000Y59406000D03*
%TD*%
D38*
%TO.P,D3,1*%
%TO.N,Net-(D3-Pad1)*%
X151638000Y27314000D03*
%TO.P,D3,2*%
%TO.N,GND*%
X151638000Y31614000D03*
%TD*%
D12*
%TO.P,TP7,1,1*%
%TO.N,X_ENABLE*%
X90982800Y30002800D03*
%TD*%
D11*
%TO.P,JP10,1,A*%
%TO.N,+3.3V*%
X127782000Y21336000D03*
%TO.P,JP10,2,B*%
%TO.N,Net-(C29-Pad1)*%
X130322000Y21336000D03*
%TD*%
%TO.P,JP13,1,A*%
%TO.N,+3.3V*%
X105156000Y21042000D03*
%TO.P,JP13,2,B*%
%TO.N,Net-(JP13-Pad2)*%
X105156000Y18502000D03*
%TD*%
D35*
%TO.P,C14,1*%
%TO.N,GND*%
X8633000Y47986000D03*
%TO.P,C14,2*%
%TO.N,Net-(C14-Pad2)*%
X11433000Y47986000D03*
%TD*%
D16*
%TO.P,R6,1*%
%TO.N,Y_FAULT*%
X47455000Y34599000D03*
%TO.P,R6,2*%
%TO.N,Net-(C2-Pad2)*%
X45055000Y34599000D03*
%TD*%
D32*
%TO.P,R31,1*%
%TO.N,Net-(C17-Pad2)*%
X18161000Y15542000D03*
%TO.P,R31,2*%
%TO.N,COLOR_OUT*%
X18161000Y21542000D03*
%TD*%
D39*
%TO.P,R79,1*%
%TO.N,Net-(C39-Pad2)*%
X68913000Y19284000D03*
%TO.P,R79,2*%
%TO.N,FP_3_OUT*%
X62913000Y19284000D03*
%TD*%
D40*
%TO.P,U11,1,1*%
%TO.N,GND*%
X8699500Y34798000D03*
%TO.P,U11,2,2*%
%TO.N,START_OUT*%
X10096500Y34798000D03*
%TD*%
D28*
%TO.P,C34,1*%
%TO.N,GND*%
X38574010Y82964642D03*
%TO.P,C34,2*%
%TO.N,+3.3V*%
X38574010Y81309042D03*
%TD*%
D33*
%TO.P,IC2,1,CP1*%
%TO.N,Net-(C12-Pad2)*%
X110528074Y43501800D03*
%TO.P,IC2,2,CP2*%
%TO.N,Net-(C12-Pad1)*%
X109878063Y43501800D03*
%TO.P,IC2,3,VCP*%
%TO.N,Net-(C11-Pad1)*%
X109228051Y43501800D03*
%TO.P,IC2,4,VMA*%
%TO.N,Net-(C10-Pad2)*%
X108578040Y43501800D03*
%TO.P,IC2,5,AOUT1*%
%TO.N,/StepperDriver3/1A*%
X107928028Y43501800D03*
%TO.P,IC2,6,ISENA*%
%TO.N,Net-(IC2-Pad6)*%
X107278017Y43501800D03*
%TO.P,IC2,7,AOUT2*%
%TO.N,/StepperDriver3/2A*%
X106628006Y43501800D03*
%TO.P,IC2,8,BOUT2*%
%TO.N,/StepperDriver3/2B*%
X105977994Y43501800D03*
%TO.P,IC2,9,ISENB*%
%TO.N,Net-(IC2-Pad9)*%
X105327983Y43501800D03*
%TO.P,IC2,10,BOUT1*%
%TO.N,/StepperDriver3/1B*%
X104677972Y43501800D03*
%TO.P,IC2,11,VMB*%
%TO.N,Net-(C10-Pad2)*%
X104027960Y43501800D03*
%TO.P,IC2,12,AVREF*%
%TO.N,Net-(IC2-Pad12)*%
X103377949Y43501800D03*
%TO.P,IC2,13,BVREF*%
X102727937Y43501800D03*
%TO.P,IC2,14,GND_1*%
%TO.N,GND*%
X102077926Y43501800D03*
%TO.P,IC2,15,V3P3OUT*%
%TO.N,Net-(C8-Pad2)*%
X102077926Y37558200D03*
%TO.P,IC2,16,NRESET*%
%TO.N,XYZ_RESET*%
X102727937Y37558200D03*
%TO.P,IC2,17,NSLEEP*%
X103377949Y37558200D03*
%TO.P,IC2,18,NFAULT*%
%TO.N,Z_FAULT*%
X104027960Y37558200D03*
%TO.P,IC2,19,DECAY*%
%TO.N,XYZ_DECAY*%
X104677972Y37558200D03*
%TO.P,IC2,20,DIR*%
%TO.N,Z_DIR*%
X105327983Y37558200D03*
%TO.P,IC2,21,NENBL*%
%TO.N,Z_ENABLE*%
X105977994Y37558200D03*
%TO.P,IC2,22,STEP*%
%TO.N,Z_STEP*%
X106628006Y37558200D03*
%TO.P,IC2,23,NC*%
%TO.N,unconnected-(IC2-Pad23)*%
X107278017Y37558200D03*
%TO.P,IC2,24,MODE0*%
%TO.N,Z_MS0*%
X107928028Y37558200D03*
%TO.P,IC2,25,MODE1*%
%TO.N,Z_MS1*%
X108578040Y37558200D03*
%TO.P,IC2,26,MODE2*%
%TO.N,Z_MS2*%
X109228051Y37558200D03*
%TO.P,IC2,27,NHOME*%
%TO.N,Z_HOME*%
X109878063Y37558200D03*
%TO.P,IC2,28,GND_2*%
%TO.N,GND*%
X110528074Y37558200D03*
D34*
%TO.P,IC2,29,EPAD*%
X106303000Y40530000D03*
%TD*%
D16*
%TO.P,R81,1*%
%TO.N,Net-(C40-Pad2)*%
X57447000Y14383000D03*
%TO.P,R81,2*%
%TO.N,Net-(JP20-Pad2)*%
X59847000Y14383000D03*
%TD*%
%TO.P,R75,1*%
%TO.N,Net-(C38-Pad2)*%
X46172000Y14383000D03*
%TO.P,R75,2*%
%TO.N,Net-(JP18-Pad2)*%
X48572000Y14383000D03*
%TD*%
D11*
%TO.P,JP8,1,A*%
%TO.N,+3.3V*%
X116614000Y21042000D03*
%TO.P,JP8,2,B*%
%TO.N,Net-(JP8-Pad2)*%
X116614000Y18502000D03*
%TD*%
D39*
%TO.P,R28,1*%
%TO.N,Net-(C16-Pad2)*%
X80216000Y19284000D03*
%TO.P,R28,2*%
%TO.N,LS_Z_OUT*%
X74216000Y19284000D03*
%TD*%
D14*
%TO.P,R26,1*%
%TO.N,Net-(J8-Pad2)*%
X80814000Y10902000D03*
%TO.P,R26,2*%
%TO.N,Net-(C16-Pad2)*%
X79714000Y10902000D03*
%TD*%
D41*
%TO.P,D1,1*%
%TO.N,Net-(D1-Pad1)*%
X135112060Y11991913D03*
%TO.P,D1,2*%
%TO.N,GND*%
X135112060Y9891913D03*
%TD*%
D23*
%TO.P,J19,1,1*%
%TO.N,Net-(J19-Pad1)*%
X101044463Y82921000D03*
D24*
%TO.P,J19,2,2*%
%TO.N,Net-(J19-Pad2)*%
X104854463Y82921000D03*
%TO.P,J19,3,3*%
%TO.N,Net-(J19-Pad3)*%
X108664463Y82921000D03*
%TO.P,J19,4,4*%
%TO.N,Net-(J19-Pad4)*%
X112474463Y82921000D03*
%TD*%
D12*
%TO.P,TP3,1,1*%
%TO.N,Y_DIR*%
X40386000Y31780800D03*
%TD*%
D21*
%TO.P,J8-J6,1,Pin_1*%
%TO.N,GND*%
X105029000Y70358000D03*
D22*
%TO.P,J8-J6,2,Pin_2*%
%TO.N,MUX_OUT*%
X105029000Y67818000D03*
%TO.P,J8-J6,3,Pin_3*%
%TO.N,MUX_S0*%
X107569000Y70358000D03*
%TO.P,J8-J6,4,Pin_4*%
%TO.N,/MSP432E401Y/PK_4*%
X107569000Y67818000D03*
%TO.P,J8-J6,5,Pin_5*%
%TO.N,MUX_S1*%
X110109000Y70358000D03*
%TO.P,J8-J6,6,Pin_6*%
%TO.N,/MSP432E401Y/PK_5*%
X110109000Y67818000D03*
%TO.P,J8-J6,7,Pin_7*%
%TO.N,MUX_S2*%
X112649000Y70358000D03*
%TO.P,J8-J6,8,Pin_8*%
%TO.N,FP_2_OUT*%
X112649000Y67818000D03*
%TO.P,J8-J6,9,Pin_9*%
%TO.N,N/C*%
X115189000Y70358000D03*
%TO.P,J8-J6,10,Pin_10*%
%TO.N,FP_1_OUT*%
X115189000Y67818000D03*
%TO.P,J8-J6,11,Pin_11*%
%TO.N,MAG_IN2*%
X117729000Y70358000D03*
%TO.P,J8-J6,12,Pin_12*%
%TO.N,FP_3_OUT*%
X117729000Y67818000D03*
%TO.P,J8-J6,13,Pin_13*%
%TO.N,MAG_IN1*%
X120269000Y70358000D03*
%TO.P,J8-J6,14,Pin_14*%
%TO.N,Z_MS2*%
X120269000Y67818000D03*
%TO.P,J8-J6,15,Pin_15*%
%TO.N,/MSP432E401Y/PP_3*%
X122809000Y70358000D03*
%TO.P,J8-J6,16,Pin_16*%
%TO.N,Z_MS1*%
X122809000Y67818000D03*
%TO.P,J8-J6,17,Pin_17*%
%TO.N,/MSP432E401Y/PQ_1*%
X125349000Y70358000D03*
%TO.P,J8-J6,18,Pin_18*%
%TO.N,Z_MS0*%
X125349000Y67818000D03*
%TO.P,J8-J6,19,Pin_19*%
%TO.N,/MSP432E401Y/PM_6*%
X127889000Y70358000D03*
%TO.P,J8-J6,20,Pin_20*%
%TO.N,/MSP432E401Y/PK_7*%
X127889000Y67818000D03*
%TD*%
D11*
%TO.P,JP18,1,A*%
%TO.N,+3.3V*%
X49403000Y20026000D03*
%TO.P,JP18,2,B*%
%TO.N,Net-(JP18-Pad2)*%
X49403000Y17486000D03*
%TD*%
D14*
%TO.P,R71,1*%
%TO.N,Net-(J20-Pad2)*%
X35729000Y10902000D03*
%TO.P,R71,2*%
%TO.N,Net-(C37-Pad2)*%
X34629000Y10902000D03*
%TD*%
D42*
%TO.P,IC4,1,VIN*%
%TO.N,+24V*%
X146656000Y54551000D03*
%TO.P,IC4,2,OUTPUT*%
%TO.N,Net-(D4-Pad1)*%
X144956000Y54551000D03*
%TO.P,IC4,3,GROUND*%
%TO.N,GND*%
X143256000Y54551000D03*
%TO.P,IC4,4,FEEDBACK*%
%TO.N,Net-(D4-Pad1)*%
X141556000Y54551000D03*
%TO.P,IC4,5,~{ON}/OFF*%
%TO.N,GND*%
X139856000Y54551000D03*
D43*
%TO.P,IC4,6,GND_1*%
X143256000Y41336000D03*
D44*
%TO.P,IC4,7,GND_2*%
X143256000Y44831000D03*
%TD*%
D13*
%TO.P,J23,1,1*%
%TO.N,GND*%
X54178000Y4806000D03*
%TO.P,J23,2,2*%
%TO.N,Net-(J23-Pad2)*%
X57678000Y4806000D03*
%TD*%
D11*
%TO.P,JP11,1,A*%
%TO.N,+5V*%
X135128000Y72878000D03*
%TO.P,JP11,2,B*%
%TO.N,Net-(C30-Pad1)*%
X135128000Y70338000D03*
%TD*%
D16*
%TO.P,R72,1*%
%TO.N,Net-(C37-Pad2)*%
X34587000Y14383000D03*
%TO.P,R72,2*%
%TO.N,Net-(JP17-Pad2)*%
X36987000Y14383000D03*
%TD*%
D18*
%TO.P,C37,1*%
%TO.N,GND*%
X32131000Y11150000D03*
%TO.P,C37,2*%
%TO.N,Net-(C37-Pad2)*%
X32131000Y13950000D03*
%TD*%
D17*
%TO.P,R50,1*%
%TO.N,LED_B*%
X31369000Y30714000D03*
%TO.P,R50,2*%
%TO.N,Net-(LED1-Pad1)*%
X29469000Y30714000D03*
%TD*%
D45*
%TO.P,C30,1*%
%TO.N,Net-(C30-Pad1)*%
X162306000Y75533250D03*
%TO.P,C30,2*%
%TO.N,GND*%
X162306000Y66440050D03*
%TD*%
D16*
%TO.P,R48,1*%
%TO.N,Net-(C32-Pad2)*%
X102659000Y14383000D03*
%TO.P,R48,2*%
%TO.N,Net-(JP13-Pad2)*%
X105059000Y14383000D03*
%TD*%
D12*
%TO.P,TP4,1,1*%
%TO.N,Z_ENABLE*%
X96342200Y29723400D03*
%TD*%
D18*
%TO.P,C32,1*%
%TO.N,GND*%
X100076000Y11150000D03*
%TO.P,C32,2*%
%TO.N,Net-(C32-Pad2)*%
X100076000Y13950000D03*
%TD*%
D39*
%TO.P,R19,1*%
%TO.N,Net-(C13-Pad2)*%
X91900000Y19284000D03*
%TO.P,R19,2*%
%TO.N,LS_Y_OUT*%
X85900000Y19284000D03*
%TD*%
D27*
%TO.P,U13,1,1*%
%TO.N,GND*%
X94881700Y83698400D03*
%TO.P,U13,2,2*%
%TO.N,Net-(JP16-Pad2)*%
X94881700Y82301400D03*
%TD*%
D12*
%TO.P,TP14,1,1*%
%TO.N,Net-(C30-Pad1)*%
X171323000Y75672000D03*
%TD*%
D14*
%TO.P,R32,1*%
%TO.N,Net-(J9-Pad2)*%
X114624000Y10902000D03*
%TO.P,R32,2*%
%TO.N,Net-(C18-Pad2)*%
X113524000Y10902000D03*
%TD*%
D27*
%TO.P,U17,1,1*%
%TO.N,GND*%
X63020000Y11219500D03*
%TO.P,U17,2,2*%
%TO.N,FP_3_OUT*%
X63020000Y12616500D03*
%TD*%
D46*
%TO.P,U7,1,1*%
%TO.N,GND*%
X3225800Y19264000D03*
%TO.P,U7,2,2*%
%TO.N,Net-(R29-Pad1)*%
X8458200Y16764000D03*
%TO.P,U7,3,3*%
%TO.N,unconnected-(U7-Pad3)*%
X3225800Y14264000D03*
%TD*%
D16*
%TO.P,R57,1*%
%TO.N,Net-(J16-Pad2)*%
X7595753Y80275456D03*
%TO.P,R57,2*%
%TO.N,GND*%
X9995753Y80275456D03*
%TD*%
D40*
%TO.P,U4,1,1*%
%TO.N,GND*%
X8864600Y51046700D03*
%TO.P,U4,2,2*%
%TO.N,RESET_OUT*%
X10261600Y51046700D03*
%TD*%
D23*
%TO.P,J3,1,1*%
%TO.N,/StepperDriver1/2B*%
X60978000Y92264000D03*
D24*
%TO.P,J3,2,2*%
%TO.N,/StepperDriver1/2A*%
X64788000Y92264000D03*
%TO.P,J3,3,3*%
%TO.N,/StepperDriver1/1B*%
X68598000Y92264000D03*
%TO.P,J3,4,4*%
%TO.N,/StepperDriver1/1A*%
X72408000Y92264000D03*
%TD*%
D47*
%TO.P,C2,1*%
%TO.N,GND*%
X41592500Y39642800D03*
%TO.P,C2,2*%
%TO.N,Net-(C2-Pad2)*%
X41592500Y35642800D03*
%TD*%
D16*
%TO.P,R18,1*%
%TO.N,Net-(C13-Pad2)*%
X91356000Y14383000D03*
%TO.P,R18,2*%
%TO.N,Net-(JP3-Pad2)*%
X93756000Y14383000D03*
%TD*%
D48*
%TO.P,C23,1*%
%TO.N,Net-(C23-Pad1)*%
X75250482Y45744900D03*
%TO.P,C23,2*%
%TO.N,Net-(C19-Pad1)*%
X73594882Y45744900D03*
%TD*%
D16*
%TO.P,R70,1*%
%TO.N,Net-(J19-Pad4)*%
X111114611Y78212000D03*
%TO.P,R70,2*%
%TO.N,GND*%
X113514611Y78212000D03*
%TD*%
D49*
%TO.P,L2,1,1*%
%TO.N,Net-(C30-Pad1)*%
X146939000Y76365100D03*
%TO.P,L2,2,2*%
%TO.N,Net-(D4-Pad1)*%
X146939000Y61328300D03*
%TD*%
D48*
%TO.P,C26,1*%
%TO.N,+24V*%
X141543800Y57912000D03*
%TO.P,C26,2*%
%TO.N,GND*%
X139888200Y57912000D03*
%TD*%
D18*
%TO.P,C17,1*%
%TO.N,GND*%
X12192000Y18926000D03*
%TO.P,C17,2*%
%TO.N,Net-(C17-Pad2)*%
X12192000Y16126000D03*
%TD*%
D50*
%TO.P,R12,1*%
%TO.N,Net-(C8-Pad2)*%
X98020722Y43201812D03*
%TO.P,R12,2*%
%TO.N,Net-(IC2-Pad12)*%
X98020722Y45101812D03*
%TD*%
D21*
%TO.P,J1-J3,1,Pin_1*%
%TO.N,/MSP432E401Y/+5V*%
X41529000Y27178000D03*
D22*
%TO.P,J1-J3,2,Pin_2*%
%TO.N,+3.3V*%
X41529000Y24638000D03*
%TO.P,J1-J3,3,Pin_3*%
%TO.N,GND*%
X44069000Y27178000D03*
%TO.P,J1-J3,4,Pin_4*%
%TO.N,LED_G*%
X44069000Y24638000D03*
%TO.P,J1-J3,5,Pin_5*%
%TO.N,XYZ_RESET*%
X46609000Y27178000D03*
%TO.P,J1-J3,6,Pin_6*%
%TO.N,LED_R*%
X46609000Y24638000D03*
%TO.P,J1-J3,7,Pin_7*%
%TO.N,XYZ_DECAY*%
X49149000Y27178000D03*
%TO.P,J1-J3,8,Pin_8*%
%TO.N,LED_B*%
X49149000Y24638000D03*
%TO.P,J1-J3,9,Pin_9*%
%TO.N,Y_DIR*%
X51689000Y27178000D03*
%TO.P,J1-J3,10,Pin_10*%
%TO.N,COLOR_OUT*%
X51689000Y24638000D03*
%TO.P,J1-J3,11,Pin_11*%
%TO.N,Y_ENABLE*%
X54229000Y27178000D03*
%TO.P,J1-J3,12,Pin_12*%
%TO.N,NEXT_TURN_OUT*%
X54229000Y24638000D03*
%TO.P,J1-J3,13,Pin_13*%
%TO.N,Y_STEP*%
X56769000Y27178000D03*
%TO.P,J1-J3,14,Pin_14*%
%TO.N,X_FAULT*%
X56769000Y24638000D03*
%TO.P,J1-J3,15,Pin_15*%
%TO.N,XY_MS0*%
X59309000Y27178000D03*
%TO.P,J1-J3,16,Pin_16*%
%TO.N,X_STEP*%
X59309000Y24638000D03*
%TO.P,J1-J3,17,Pin_17*%
%TO.N,XY_MS1*%
X61849000Y27178000D03*
%TO.P,J1-J3,18,Pin_18*%
%TO.N,X_ENABLE*%
X61849000Y24638000D03*
%TO.P,J1-J3,19,Pin_19*%
%TO.N,XY_MS2*%
X64389000Y27178000D03*
%TO.P,J1-J3,20,Pin_20*%
%TO.N,X_DIR*%
X64389000Y24638000D03*
%TD*%
D51*
%TO.P,R23,1*%
%TO.N,Net-(R23-Pad1)*%
X8636000Y59902000D03*
%TO.P,R23,2*%
%TO.N,Net-(C15-Pad2)*%
X8636000Y61002000D03*
%TD*%
D39*
%TO.P,R73,1*%
%TO.N,Net-(C37-Pad2)*%
X35766000Y19284000D03*
%TO.P,R73,2*%
%TO.N,NEXT_TURN_OUT*%
X29766000Y19284000D03*
%TD*%
D12*
%TO.P,TP1,1,1*%
%TO.N,Y_ENABLE*%
X75666600Y24999000D03*
%TD*%
D39*
%TO.P,R34,1*%
%TO.N,Net-(C18-Pad2)*%
X114026000Y19284000D03*
%TO.P,R34,2*%
%TO.N,CAPTURE_OUT*%
X108026000Y19284000D03*
%TD*%
D26*
%TO.P,C19,1*%
%TO.N,Net-(C19-Pad1)*%
X62458600Y48895000D03*
%TO.P,C19,2*%
%TO.N,GND*%
X62458600Y51395000D03*
%TD*%
D48*
%TO.P,C5,1*%
%TO.N,Net-(C5-Pad1)*%
X54866300Y46024800D03*
%TO.P,C5,2*%
%TO.N,Net-(C1-Pad1)*%
X53210700Y46024800D03*
%TD*%
D26*
%TO.P,R16,1*%
%TO.N,U3TX*%
X117729000Y15220000D03*
D52*
%TO.P,R16,2*%
%TO.N,/PiConnector1/Rx_Pi*%
X127889000Y15220000D03*
%TD*%
D15*
%TO.P,R30,1*%
%TO.N,Net-(C17-Pad2)*%
X13387000Y14308000D03*
%TO.P,R30,2*%
%TO.N,Net-(JP7-Pad2)*%
X13387000Y11908000D03*
%TD*%
D27*
%TO.P,U16,1,1*%
%TO.N,GND*%
X40668000Y11219500D03*
%TO.P,U16,2,2*%
%TO.N,FP_2_OUT*%
X40668000Y12616500D03*
%TD*%
D14*
%TO.P,R77,1*%
%TO.N,Net-(J22-Pad2)*%
X69412000Y10902000D03*
%TO.P,R77,2*%
%TO.N,Net-(C39-Pad2)*%
X68312000Y10902000D03*
%TD*%
D53*
%TO.P,C21,1*%
%TO.N,Net-(C19-Pad1)*%
X76708000Y54178000D03*
%TO.P,C21,2*%
%TO.N,GND*%
X76708000Y53518000D03*
%TD*%
D11*
%TO.P,JP12,1,A*%
%TO.N,+3.3V*%
X15728000Y26924000D03*
%TO.P,JP12,2,B*%
%TO.N,Net-(JP12-Pad2)*%
X13188000Y26924000D03*
%TD*%
D16*
%TO.P,R41,1*%
%TO.N,Net-(C20-Pad2)*%
X76919000Y34853000D03*
%TO.P,R41,2*%
%TO.N,X_HOME*%
X74519000Y34853000D03*
%TD*%
D54*
%TO.P,R42,1*%
%TO.N,Net-(C29-Pad1)*%
X134620000Y20738000D03*
%TO.P,R42,2*%
%TO.N,Net-(D1-Pad1)*%
X134620000Y15838000D03*
%TD*%
D16*
%TO.P,R33,1*%
%TO.N,Net-(C18-Pad2)*%
X113228000Y14383000D03*
%TO.P,R33,2*%
%TO.N,Net-(JP8-Pad2)*%
X115628000Y14383000D03*
%TD*%
D55*
%TO.P,S2,1,COM*%
%TO.N,GND*%
X4826000Y66250000D03*
%TO.P,S2,2,NO*%
%TO.N,Net-(R23-Pad1)*%
X4826000Y59850000D03*
%TD*%
D13*
%TO.P,J2,1,1*%
%TO.N,/Electromagnet1/OUT1*%
X149380000Y90386000D03*
%TO.P,J2,2,2*%
%TO.N,/Electromagnet1/OUT2*%
X152880000Y90386000D03*
%TD*%
D39*
%TO.P,R49,1*%
%TO.N,Net-(C32-Pad2)*%
X102822000Y19284000D03*
%TO.P,R49,2*%
%TO.N,LS_X_OUT*%
X96822000Y19284000D03*
%TD*%
D11*
%TO.P,JP14,1,A*%
%TO.N,GND*%
X27031000Y23348000D03*
%TO.P,JP14,2,B*%
%TO.N,Net-(JP14-Pad2)*%
X24491000Y23348000D03*
%TD*%
D48*
%TO.P,C25,1*%
%TO.N,+24V*%
X139888200Y21336000D03*
%TO.P,C25,2*%
%TO.N,GND*%
X141543800Y21336000D03*
%TD*%
D55*
%TO.P,S1,1,COM*%
%TO.N,GND*%
X4826000Y49740000D03*
%TO.P,S1,2,NO*%
%TO.N,Net-(R20-Pad1)*%
X4826000Y43340000D03*
%TD*%
D56*
%TO.P,L1,1,1*%
%TO.N,Net-(C29-Pad1)*%
X146050000Y5118100D03*
%TO.P,L1,2,2*%
%TO.N,Net-(D3-Pad1)*%
X146050000Y15201900D03*
%TD*%
D28*
%TO.P,C33,1*%
%TO.N,GND*%
X90551000Y86464700D03*
%TO.P,C33,2*%
%TO.N,+3.3V*%
X90551000Y88120300D03*
%TD*%
D23*
%TO.P,J12,1,1*%
%TO.N,Net-(IC5-Pad5)*%
X15290753Y94145650D03*
D24*
%TO.P,J12,2,2*%
%TO.N,Net-(IC5-Pad4)*%
X11480753Y94145650D03*
%TO.P,J12,3,3*%
%TO.N,Net-(IC5-Pad2)*%
X7670753Y94145650D03*
%TO.P,J12,4,4*%
%TO.N,Net-(IC5-Pad1)*%
X3860753Y94145650D03*
%TD*%
D57*
%TO.P,R9,1*%
%TO.N,GND*%
X108688722Y52838612D03*
%TO.P,R9,2*%
%TO.N,Net-(IC2-Pad6)*%
X108688722Y48165012D03*
%TD*%
D11*
%TO.P,JP4,1,A*%
%TO.N,+3.3V*%
X15728000Y42926000D03*
%TO.P,JP4,2,B*%
%TO.N,Net-(JP4-Pad2)*%
X13188000Y42926000D03*
%TD*%
D50*
%TO.P,R5,1*%
%TO.N,Net-(C2-Pad2)*%
X41046400Y42210000D03*
%TO.P,R5,2*%
%TO.N,Net-(IC1-Pad12)*%
X41046400Y44110000D03*
%TD*%
D57*
%TO.P,R3,1*%
%TO.N,GND*%
X47688500Y52933600D03*
%TO.P,R3,2*%
%TO.N,Net-(IC1-Pad9)*%
X47688500Y48260000D03*
%TD*%
D11*
%TO.P,JP16,1,A*%
%TO.N,MUX_OUT*%
X94869000Y73660000D03*
%TO.P,JP16,2,B*%
%TO.N,Net-(JP16-Pad2)*%
X94869000Y76200000D03*
%TD*%
%TO.P,JP5,1,A*%
%TO.N,+3.3V*%
X15728000Y59436000D03*
%TO.P,JP5,2,B*%
%TO.N,Net-(JP5-Pad2)*%
X13188000Y59436000D03*
%TD*%
D17*
%TO.P,R51,1*%
%TO.N,LED_G*%
X31369000Y26396000D03*
%TO.P,R51,2*%
%TO.N,Net-(LED1-Pad4)*%
X29469000Y26396000D03*
%TD*%
D23*
%TO.P,J17,1,1*%
%TO.N,Net-(J17-Pad1)*%
X117545463Y82921000D03*
D24*
%TO.P,J17,2,2*%
%TO.N,Net-(J17-Pad2)*%
X121355463Y82921000D03*
%TO.P,J17,3,3*%
%TO.N,Net-(J17-Pad3)*%
X125165463Y82921000D03*
%TO.P,J17,4,4*%
%TO.N,Net-(J17-Pad4)*%
X128975463Y82921000D03*
%TD*%
D27*
%TO.P,U14,1,1*%
%TO.N,GND*%
X40643967Y82865667D03*
%TO.P,U14,2,2*%
%TO.N,Net-(JP15-Pad2)*%
X40643967Y81468667D03*
%TD*%
D26*
%TO.P,C1,1*%
%TO.N,Net-(C1-Pad1)*%
X42354500Y48584800D03*
%TO.P,C1,2*%
%TO.N,GND*%
X42354500Y51084800D03*
%TD*%
%TO.P,C27,1*%
%TO.N,+24V*%
X160528000Y58186000D03*
%TO.P,C27,2*%
%TO.N,GND*%
X160528000Y60686000D03*
%TD*%
D37*
%TO.P,R1,1*%
%TO.N,Net-(C1-Pad1)*%
X54104500Y49072800D03*
%TO.P,R1,2*%
%TO.N,Net-(C5-Pad1)*%
X56004500Y49072800D03*
%TD*%
D11*
%TO.P,JP9,1,A*%
%TO.N,+24V*%
X74676000Y56622000D03*
%TO.P,JP9,2,B*%
%TO.N,Net-(C19-Pad1)*%
X74676000Y54082000D03*
%TD*%
D12*
%TO.P,TP10,1,1*%
%TO.N,GND*%
X169926000Y23368000D03*
%TD*%
D40*
%TO.P,U1,1,1*%
%TO.N,GND*%
X124269500Y18796000D03*
%TO.P,U1,2,2*%
%TO.N,U3RX*%
X125666500Y18796000D03*
%TD*%
D16*
%TO.P,R69,1*%
%TO.N,Net-(J18-Pad4)*%
X31704789Y80275456D03*
%TO.P,R69,2*%
%TO.N,GND*%
X34104789Y80275456D03*
%TD*%
D15*
%TO.P,R38,1*%
%TO.N,Net-(IC3-Pad12)*%
X64187682Y44050900D03*
%TO.P,R38,2*%
%TO.N,GND*%
X64187682Y41650900D03*
%TD*%
D58*
%TO.P,C10,1*%
%TO.N,GND*%
X101576722Y46183812D03*
%TO.P,C10,2*%
%TO.N,Net-(C10-Pad2)*%
X102236722Y46183812D03*
%TD*%
D12*
%TO.P,TP9,1,1*%
%TO.N,X_DIR*%
X80238600Y30536200D03*
%TD*%
D15*
%TO.P,R4,1*%
%TO.N,Net-(IC1-Pad12)*%
X43205400Y44330800D03*
%TO.P,R4,2*%
%TO.N,GND*%
X43205400Y41930800D03*
%TD*%
D58*
%TO.P,C3,1*%
%TO.N,Net-(C1-Pad1)*%
X56908500Y51358800D03*
%TO.P,C3,2*%
%TO.N,GND*%
X56248500Y51358800D03*
%TD*%
D39*
%TO.P,R82,1*%
%TO.N,Net-(C40-Pad2)*%
X57892000Y19284000D03*
%TO.P,R82,2*%
%TO.N,FP_1_OUT*%
X51892000Y19284000D03*
%TD*%
D40*
%TO.P,U8,1,1*%
%TO.N,GND*%
X11747500Y21082000D03*
%TO.P,U8,2,2*%
%TO.N,COLOR_OUT*%
X13144500Y21082000D03*
%TD*%
D11*
%TO.P,JP7,1,A*%
%TO.N,+3.3V*%
X18141000Y12426000D03*
%TO.P,JP7,2,B*%
%TO.N,Net-(JP7-Pad2)*%
X15601000Y12426000D03*
%TD*%
D40*
%TO.P,U2,1,1*%
%TO.N,GND*%
X121221500Y18776000D03*
%TO.P,U2,2,2*%
%TO.N,U3TX*%
X119824500Y18776000D03*
%TD*%
D45*
%TO.P,C29,1*%
%TO.N,Net-(C29-Pad1)*%
X159258000Y5613400D03*
%TO.P,C29,2*%
%TO.N,GND*%
X159258000Y14706600D03*
%TD*%
D13*
%TO.P,J7,1,1*%
%TO.N,GND*%
X87912000Y4806000D03*
%TO.P,J7,2,2*%
%TO.N,Net-(J7-Pad2)*%
X91412000Y4806000D03*
%TD*%
D51*
%TO.P,R20,1*%
%TO.N,Net-(R20-Pad1)*%
X8636000Y43138000D03*
%TO.P,R20,2*%
%TO.N,Net-(C14-Pad2)*%
X8636000Y44238000D03*
%TD*%
D12*
%TO.P,TP12,1,1*%
%TO.N,GND*%
X169926000Y15240000D03*
%TD*%
D16*
%TO.P,R61,1*%
%TO.N,Net-(J16-Pad4)*%
X15571904Y80275456D03*
%TO.P,R61,2*%
%TO.N,GND*%
X17971904Y80275456D03*
%TD*%
%TO.P,R7,1*%
%TO.N,Net-(C2-Pad2)*%
X56345000Y34853000D03*
%TO.P,R7,2*%
%TO.N,Y_HOME*%
X53945000Y34853000D03*
%TD*%
D58*
%TO.P,C22,1*%
%TO.N,GND*%
X65964682Y45490900D03*
%TO.P,C22,2*%
%TO.N,Net-(C19-Pad1)*%
X66624682Y45490900D03*
%TD*%
D32*
%TO.P,R46,1*%
%TO.N,Net-(C31-Pad2)*%
X16129000Y29512000D03*
%TO.P,R46,2*%
%TO.N,START_OUT*%
X16129000Y35512000D03*
%TD*%
D57*
%TO.P,R37,1*%
%TO.N,GND*%
X67818682Y53161700D03*
%TO.P,R37,2*%
%TO.N,Net-(IC3-Pad9)*%
X67818682Y48488100D03*
%TD*%
D12*
%TO.P,TP11,1,1*%
%TO.N,GND*%
X169926000Y7310735D03*
%TD*%
D11*
%TO.P,JP1,1,A*%
%TO.N,+24V*%
X54013100Y56622000D03*
%TO.P,JP1,2,B*%
%TO.N,Net-(C1-Pad1)*%
X54013100Y54082000D03*
%TD*%
D18*
%TO.P,C38,1*%
%TO.N,GND*%
X43561000Y11150000D03*
%TO.P,C38,2*%
%TO.N,Net-(C38-Pad2)*%
X43561000Y13950000D03*
%TD*%
D57*
%TO.P,R10,1*%
%TO.N,GND*%
X105386722Y52838612D03*
%TO.P,R10,2*%
%TO.N,Net-(IC2-Pad9)*%
X105386722Y48165012D03*
%TD*%
D32*
%TO.P,R22,1*%
%TO.N,Net-(C14-Pad2)*%
X16129000Y45240000D03*
%TO.P,R22,2*%
%TO.N,RESET_OUT*%
X16129000Y51240000D03*
%TD*%
D12*
%TO.P,TP8,1,1*%
%TO.N,X_STEP*%
X85648800Y30256800D03*
%TD*%
D47*
%TO.P,C8,1*%
%TO.N,GND*%
X98528722Y40563812D03*
%TO.P,C8,2*%
%TO.N,Net-(C8-Pad2)*%
X98528722Y36563812D03*
%TD*%
D45*
%TO.P,C36,1*%
%TO.N,+5V*%
X139700000Y84232750D03*
%TO.P,C36,2*%
%TO.N,GND*%
X139700000Y93325950D03*
%TD*%
D41*
%TO.P,D2,1*%
%TO.N,Net-(D2-Pad1)*%
X135128000Y63534000D03*
%TO.P,D2,2*%
%TO.N,GND*%
X135128000Y61434000D03*
%TD*%
D11*
%TO.P,JP6,1,A*%
%TO.N,+3.3V*%
X82550000Y21042000D03*
%TO.P,JP6,2,B*%
%TO.N,Net-(JP6-Pad2)*%
X82550000Y18502000D03*
%TD*%
D26*
%TO.P,R15,1*%
%TO.N,U3RX*%
X117729000Y11918000D03*
D52*
%TO.P,R15,2*%
%TO.N,/PiConnector1/Tx_Pi*%
X127889000Y11918000D03*
%TD*%
D26*
%TO.P,C7,1*%
%TO.N,Net-(C10-Pad2)*%
X99036722Y50013812D03*
%TO.P,C7,2*%
%TO.N,GND*%
X99036722Y52513812D03*
%TD*%
D36*
%TO.P,IC6,16,VCC*%
%TO.N,+3.3V*%
X92147463Y92375312D03*
%TO.P,IC6,15,A2_CHANNEL_IN/OUT*%
%TO.N,Net-(IC6-Pad15)*%
X92797463Y92375312D03*
%TO.P,IC6,14,A1_CHANNEL_IN/OUT*%
%TO.N,Net-(IC6-Pad14)*%
X93447463Y92375312D03*
%TO.P,IC6,13,A0_CHANNEL_IN/OUT*%
%TO.N,Net-(IC6-Pad13)*%
X94097463Y92375312D03*
%TO.P,IC6,12,A3_CHANNEL_IN/OUT*%
%TO.N,Net-(IC6-Pad12)*%
X94747463Y92375312D03*
%TO.P,IC6,11,S0_ADDRESS_SELECT*%
%TO.N,MUX_S0*%
X95397463Y92375312D03*
%TO.P,IC6,10,S1_ADDRESS_SELECT*%
%TO.N,MUX_S1*%
X96047463Y92375312D03*
%TO.P,IC6,9,S2_ADDRESS_SELECT*%
%TO.N,MUX_S2*%
X96697463Y92375312D03*
%TO.P,IC6,8,GND*%
%TO.N,GND*%
X96697463Y86499312D03*
%TO.P,IC6,7,VEE*%
X96047463Y86499312D03*
%TO.P,IC6,6,~{E}*%
X95397463Y86499312D03*
%TO.P,IC6,5,A5_CHANNEL_IN/OUT*%
%TO.N,Net-(IC6-Pad5)*%
X94747463Y86499312D03*
%TO.P,IC6,4,A7_CHANNEL_IN/OUT*%
%TO.N,Net-(IC6-Pad4)*%
X94097463Y86499312D03*
%TO.P,IC6,3,COM_OUT/IN_A*%
%TO.N,Net-(IC6-Pad3)*%
X93447463Y86499312D03*
%TO.P,IC6,2,A6_CHANNEL_IN/OUT*%
%TO.N,Net-(IC6-Pad2)*%
X92797463Y86499312D03*
%TO.P,IC6,1,A4_CHANNEL_IN/OUT*%
%TO.N,Net-(IC6-Pad1)*%
X92147463Y86499312D03*
%TD*%
D47*
%TO.P,C20,1*%
%TO.N,GND*%
X62484682Y39108900D03*
%TO.P,C20,2*%
%TO.N,Net-(C20-Pad2)*%
X62484682Y35108900D03*
%TD*%
D11*
%TO.P,JP3,1,A*%
%TO.N,+3.3V*%
X94234000Y21042000D03*
%TO.P,JP3,2,B*%
%TO.N,Net-(JP3-Pad2)*%
X94234000Y18502000D03*
%TD*%
D16*
%TO.P,R66,1*%
%TO.N,Net-(J19-Pad2)*%
X103444361Y78212000D03*
%TO.P,R66,2*%
%TO.N,GND*%
X105844361Y78212000D03*
%TD*%
D14*
%TO.P,R80,1*%
%TO.N,Net-(J23-Pad2)*%
X58998000Y10902000D03*
%TO.P,R80,2*%
%TO.N,Net-(C40-Pad2)*%
X57898000Y10902000D03*
%TD*%
D16*
%TO.P,R78,1*%
%TO.N,Net-(C39-Pad2)*%
X68270000Y14383000D03*
%TO.P,R78,2*%
%TO.N,Net-(JP19-Pad2)*%
X70670000Y14383000D03*
%TD*%
D53*
%TO.P,C12,1*%
%TO.N,Net-(C12-Pad1)*%
X111990722Y44227812D03*
%TO.P,C12,2*%
%TO.N,Net-(C12-Pad2)*%
X111990722Y43567812D03*
%TD*%
D38*
%TO.P,D4,1*%
%TO.N,Net-(D4-Pad1)*%
X151638000Y51426000D03*
%TO.P,D4,2*%
%TO.N,GND*%
X151638000Y47126000D03*
%TD*%
D18*
%TO.P,C18,1*%
%TO.N,GND*%
X110772000Y11150000D03*
%TO.P,C18,2*%
%TO.N,Net-(C18-Pad2)*%
X110772000Y13950000D03*
%TD*%
D16*
%TO.P,R58,1*%
%TO.N,Net-(J17-Pad2)*%
X120179423Y78212000D03*
%TO.P,R58,2*%
%TO.N,GND*%
X122579423Y78212000D03*
%TD*%
D37*
%TO.P,R8,1*%
%TO.N,Net-(C10-Pad2)*%
X111802722Y48977812D03*
%TO.P,R8,2*%
%TO.N,Net-(C11-Pad1)*%
X113702722Y48977812D03*
%TD*%
D13*
%TO.P,J1,1,1*%
%TO.N,/PiConnector1/Rx_Pi*%
X121948000Y4806000D03*
%TO.P,J1,2,2*%
%TO.N,/PiConnector1/Tx_Pi*%
X125448000Y4806000D03*
%TD*%
D40*
%TO.P,U5,1,1*%
%TO.N,GND*%
X8864600Y67302700D03*
%TO.P,U5,2,2*%
%TO.N,HOME_OUT*%
X10261600Y67302700D03*
%TD*%
D59*
%TO.P,F1,1,1*%
%TO.N,Net-(F1-Pad1)*%
X167901000Y34793300D03*
%TO.P,F1,2,2*%
%TO.N,+24V*%
X157981000Y34793300D03*
%TO.P,F1,3,3*%
X157981000Y28733300D03*
%TO.P,F1,4,4*%
%TO.N,Net-(F1-Pad1)*%
X167901000Y28733300D03*
%TD*%
D16*
%TO.P,R60,1*%
%TO.N,Net-(J17-Pad3)*%
X124065520Y78212000D03*
%TO.P,R60,2*%
%TO.N,GND*%
X126465520Y78212000D03*
%TD*%
%TO.P,R68,1*%
%TO.N,Net-(J19-Pad3)*%
X107292463Y78212000D03*
%TO.P,R68,2*%
%TO.N,GND*%
X109692463Y78212000D03*
%TD*%
D57*
%TO.P,R2,1*%
%TO.N,GND*%
X50990500Y52933600D03*
%TO.P,R2,2*%
%TO.N,Net-(IC1-Pad6)*%
X50990500Y48260000D03*
%TD*%
D60*
%TO.P,IC7,1,IN1*%
%TO.N,MAG_IN2*%
X146312000Y83490000D03*
%TO.P,IC7,2,IN2*%
%TO.N,MAG_IN1*%
X146812000Y83490000D03*
%TO.P,IC7,3,GND*%
%TO.N,GND*%
X147312000Y83490000D03*
%TO.P,IC7,4,OUT2*%
%TO.N,/Electromagnet1/OUT2*%
X147312000Y85166000D03*
%TO.P,IC7,5,VM*%
%TO.N,+5V*%
X146812000Y85166000D03*
%TO.P,IC7,6,OUT1*%
%TO.N,/Electromagnet1/OUT1*%
X146312000Y85166000D03*
%TD*%
D33*
%TO.P,IC3,1,CP1*%
%TO.N,Net-(C24-Pad2)*%
X74583756Y42739800D03*
%TO.P,IC3,2,CP2*%
%TO.N,Net-(C24-Pad1)*%
X73933745Y42739800D03*
%TO.P,IC3,3,VCP*%
%TO.N,Net-(C23-Pad1)*%
X73283733Y42739800D03*
%TO.P,IC3,4,VMA*%
%TO.N,Net-(C19-Pad1)*%
X72633722Y42739800D03*
%TO.P,IC3,5,AOUT1*%
%TO.N,/StepperDriver1/1A*%
X71983710Y42739800D03*
%TO.P,IC3,6,ISENA*%
%TO.N,Net-(IC3-Pad6)*%
X71333699Y42739800D03*
%TO.P,IC3,7,AOUT2*%
%TO.N,/StepperDriver1/2A*%
X70683688Y42739800D03*
%TO.P,IC3,8,BOUT2*%
%TO.N,/StepperDriver1/2B*%
X70033676Y42739800D03*
%TO.P,IC3,9,ISENB*%
%TO.N,Net-(IC3-Pad9)*%
X69383665Y42739800D03*
%TO.P,IC3,10,BOUT1*%
%TO.N,/StepperDriver1/1B*%
X68733654Y42739800D03*
%TO.P,IC3,11,VMB*%
%TO.N,Net-(C19-Pad1)*%
X68083642Y42739800D03*
%TO.P,IC3,12,AVREF*%
%TO.N,Net-(IC3-Pad12)*%
X67433631Y42739800D03*
%TO.P,IC3,13,BVREF*%
X66783619Y42739800D03*
%TO.P,IC3,14,GND_1*%
%TO.N,GND*%
X66133608Y42739800D03*
%TO.P,IC3,15,V3P3OUT*%
%TO.N,Net-(C20-Pad2)*%
X66133608Y36796200D03*
%TO.P,IC3,16,NRESET*%
%TO.N,XYZ_RESET*%
X66783619Y36796200D03*
%TO.P,IC3,17,NSLEEP*%
X67433631Y36796200D03*
%TO.P,IC3,18,NFAULT*%
%TO.N,X_FAULT*%
X68083642Y36796200D03*
%TO.P,IC3,19,DECAY*%
%TO.N,XYZ_DECAY*%
X68733654Y36796200D03*
%TO.P,IC3,20,DIR*%
%TO.N,X_DIR*%
X69383665Y36796200D03*
%TO.P,IC3,21,NENBL*%
%TO.N,X_ENABLE*%
X70033676Y36796200D03*
%TO.P,IC3,22,STEP*%
%TO.N,X_STEP*%
X70683688Y36796200D03*
%TO.P,IC3,23,NC*%
%TO.N,unconnected-(IC3-Pad23)*%
X71333699Y36796200D03*
%TO.P,IC3,24,MODE0*%
%TO.N,XY_MS0*%
X71983710Y36796200D03*
%TO.P,IC3,25,MODE1*%
%TO.N,XY_MS1*%
X72633722Y36796200D03*
%TO.P,IC3,26,MODE2*%
%TO.N,XY_MS2*%
X73283733Y36796200D03*
%TO.P,IC3,27,NHOME*%
%TO.N,X_HOME*%
X73933745Y36796200D03*
%TO.P,IC3,28,GND_2*%
%TO.N,GND*%
X74583756Y36796200D03*
D34*
%TO.P,IC3,29,EPAD*%
X70358682Y39768000D03*
%TD*%
D13*
%TO.P,J22,1,1*%
%TO.N,GND*%
X65334000Y4806000D03*
%TO.P,J22,2,2*%
%TO.N,Net-(J22-Pad2)*%
X68834000Y4806000D03*
%TD*%
D27*
%TO.P,U9,1,1*%
%TO.N,GND*%
X108077000Y11219500D03*
%TO.P,U9,2,2*%
%TO.N,CAPTURE_OUT*%
X108077000Y12616500D03*
%TD*%
D14*
%TO.P,R47,1*%
%TO.N,Net-(J11-Pad2)*%
X102701000Y10902000D03*
%TO.P,R47,2*%
%TO.N,Net-(C32-Pad2)*%
X103801000Y10902000D03*
%TD*%
D13*
%TO.P,J11,1,1*%
%TO.N,GND*%
X99088000Y4806000D03*
%TO.P,J11,2,2*%
%TO.N,Net-(J11-Pad2)*%
X102588000Y4806000D03*
%TD*%
D16*
%TO.P,R55,1*%
%TO.N,Net-(J16-Pad1)*%
X3812141Y80275456D03*
%TO.P,R55,2*%
%TO.N,GND*%
X6212141Y80275456D03*
%TD*%
D18*
%TO.P,C40,1*%
%TO.N,GND*%
X54991000Y11150000D03*
%TO.P,C40,2*%
%TO.N,Net-(C40-Pad2)*%
X54991000Y13950000D03*
%TD*%
D58*
%TO.P,C4,1*%
%TO.N,GND*%
X44818500Y45516800D03*
%TO.P,C4,2*%
%TO.N,Net-(C1-Pad1)*%
X45478500Y45516800D03*
%TD*%
D27*
%TO.P,U18,1,1*%
%TO.N,GND*%
X51689000Y11219500D03*
%TO.P,U18,2,2*%
%TO.N,FP_1_OUT*%
X51689000Y12616500D03*
%TD*%
D23*
%TO.P,J5,1,1*%
%TO.N,/StepperDriver3/2B*%
X77733000Y92264000D03*
D24*
%TO.P,J5,2,2*%
%TO.N,/StepperDriver3/2A*%
X81543000Y92264000D03*
%TO.P,J5,3,3*%
%TO.N,/StepperDriver3/1B*%
X85353000Y92264000D03*
%TO.P,J5,4,4*%
%TO.N,/StepperDriver3/1A*%
X89163000Y92264000D03*
%TD*%
D16*
%TO.P,R62,1*%
%TO.N,Net-(J17-Pad4)*%
X127996677Y78212000D03*
%TO.P,R62,2*%
%TO.N,GND*%
X130396677Y78212000D03*
%TD*%
D55*
%TO.P,S3,1,COM*%
%TO.N,GND*%
X4826000Y33484000D03*
%TO.P,S3,2,NO*%
%TO.N,Net-(R44-Pad1)*%
X4826000Y27084000D03*
%TD*%
D61*
%TO.P,U10,1,VIN*%
%TO.N,+24V*%
X139852400Y24485600D03*
%TO.P,U10,2,OUT*%
%TO.N,Net-(D3-Pad1)*%
X141554200Y24485600D03*
%TO.P,U10,3,GND*%
%TO.N,GND*%
X143256000Y24485600D03*
%TO.P,U10,4,FB*%
%TO.N,Net-(D3-Pad1)*%
X144957800Y24485600D03*
%TO.P,U10,5,\u002AON/OFF*%
%TO.N,GND*%
X146659600Y24485600D03*
D62*
%TO.P,U10,6,TAB*%
X143256000Y32766000D03*
%TD*%
D27*
%TO.P,U6,1,1*%
%TO.N,GND*%
X74155300Y11219500D03*
%TO.P,U6,2,2*%
%TO.N,LS_Z_OUT*%
X74155300Y12616500D03*
%TD*%
D16*
%TO.P,R56,1*%
%TO.N,Net-(J17-Pad1)*%
X116400822Y78212000D03*
%TO.P,R56,2*%
%TO.N,GND*%
X118800822Y78212000D03*
%TD*%
D53*
%TO.P,C6,1*%
%TO.N,Net-(C6-Pad1)*%
X55054500Y43814800D03*
%TO.P,C6,2*%
%TO.N,Net-(C6-Pad2)*%
X55054500Y43154800D03*
%TD*%
D12*
%TO.P,TP6,1,1*%
%TO.N,N/C*%
X78105000Y81691800D03*
%TD*%
D23*
%TO.P,J15,1,1*%
%TO.N,Net-(IC6-Pad15)*%
X111694463Y92511000D03*
D24*
%TO.P,J15,2,2*%
%TO.N,Net-(IC6-Pad14)*%
X107884463Y92511000D03*
%TO.P,J15,3,3*%
%TO.N,Net-(IC6-Pad13)*%
X104074463Y92511000D03*
%TO.P,J15,4,4*%
%TO.N,Net-(IC6-Pad12)*%
X100264463Y92511000D03*
%TD*%
D15*
%TO.P,R21,1*%
%TO.N,Net-(C14-Pad2)*%
X10593000Y45296000D03*
%TO.P,R21,2*%
%TO.N,Net-(JP4-Pad2)*%
X10593000Y42896000D03*
%TD*%
D58*
%TO.P,C9,1*%
%TO.N,Net-(C10-Pad2)*%
X113589000Y51542000D03*
%TO.P,C9,2*%
%TO.N,GND*%
X114249000Y51542000D03*
%TD*%
D48*
%TO.P,C11,1*%
%TO.N,Net-(C11-Pad1)*%
X111802522Y46183812D03*
%TO.P,C11,2*%
%TO.N,Net-(C10-Pad2)*%
X110146922Y46183812D03*
%TD*%
D11*
%TO.P,JP19,1,A*%
%TO.N,+3.3V*%
X71247000Y21042000D03*
%TO.P,JP19,2,B*%
%TO.N,Net-(JP19-Pad2)*%
X71247000Y18502000D03*
%TD*%
D13*
%TO.P,J20,1,1*%
%TO.N,GND*%
X31778000Y4806000D03*
%TO.P,J20,2,2*%
%TO.N,Net-(J20-Pad2)*%
X35278000Y4806000D03*
%TD*%
D15*
%TO.P,R40,1*%
%TO.N,X_FAULT*%
X66242000Y32916000D03*
%TO.P,R40,2*%
%TO.N,Net-(C20-Pad2)*%
X66242000Y35316000D03*
%TD*%
D29*
%TO.P,R53,1*%
%TO.N,Net-(JP15-Pad2)*%
X36398166Y81115576D03*
%TO.P,R53,2*%
%TO.N,Net-(IC5-Pad3)*%
X36398166Y83015576D03*
%TD*%
D50*
%TO.P,R39,1*%
%TO.N,Net-(C20-Pad2)*%
X61976682Y42000900D03*
%TO.P,R39,2*%
%TO.N,Net-(IC3-Pad12)*%
X61976682Y43900900D03*
%TD*%
D16*
%TO.P,R59,1*%
%TO.N,Net-(J16-Pad3)*%
X11598225Y80275456D03*
%TO.P,R59,2*%
%TO.N,GND*%
X13998225Y80275456D03*
%TD*%
D39*
%TO.P,R76,1*%
%TO.N,Net-(C38-Pad2)*%
X46462000Y19284000D03*
%TO.P,R76,2*%
%TO.N,FP_2_OUT*%
X40462000Y19284000D03*
%TD*%
D27*
%TO.P,U3,1,1*%
%TO.N,GND*%
X85991700Y11219500D03*
%TO.P,U3,2,2*%
%TO.N,LS_Y_OUT*%
X85991700Y12616500D03*
%TD*%
%TO.P,U15,1,1*%
%TO.N,GND*%
X29337000Y11219500D03*
%TO.P,U15,2,2*%
%TO.N,NEXT_TURN_OUT*%
X29337000Y12616500D03*
%TD*%
D53*
%TO.P,C24,1*%
%TO.N,Net-(C24-Pad1)*%
X75946682Y43788900D03*
%TO.P,C24,2*%
%TO.N,Net-(C24-Pad2)*%
X75946682Y43128900D03*
%TD*%
D13*
%TO.P,J8,1,1*%
%TO.N,GND*%
X76482000Y4806000D03*
%TO.P,J8,2,2*%
%TO.N,Net-(J8-Pad2)*%
X79982000Y4806000D03*
%TD*%
D51*
%TO.P,R29,1*%
%TO.N,Net-(R29-Pad1)*%
X11430000Y12658000D03*
%TO.P,R29,2*%
%TO.N,Net-(C17-Pad2)*%
X11430000Y13758000D03*
%TD*%
%TO.P,R44,1*%
%TO.N,Net-(R44-Pad1)*%
X8636000Y27136000D03*
%TO.P,R44,2*%
%TO.N,Net-(C31-Pad2)*%
X8636000Y28236000D03*
%TD*%
D12*
%TO.P,TP5,1,1*%
%TO.N,N/C*%
X78105000Y76662600D03*
%TD*%
D57*
%TO.P,R36,1*%
%TO.N,GND*%
X71120682Y53161700D03*
%TO.P,R36,2*%
%TO.N,Net-(IC3-Pad6)*%
X71120682Y48488100D03*
%TD*%
D11*
%TO.P,JP17,1,A*%
%TO.N,+3.3V*%
X38227000Y19772000D03*
%TO.P,JP17,2,B*%
%TO.N,Net-(JP17-Pad2)*%
X38227000Y17232000D03*
%TD*%
D21*
%TO.P,J5-J7,1,Pin_1*%
%TO.N,N/C*%
X105029000Y27178000D03*
D22*
%TO.P,J5-J7,2,Pin_2*%
%TO.N,+3.3V*%
X105029000Y24638000D03*
%TO.P,J5-J7,3,Pin_3*%
%TO.N,GND*%
X107569000Y27178000D03*
%TO.P,J5-J7,4,Pin_4*%
%TO.N,X_HOME*%
X107569000Y24638000D03*
%TO.P,J5-J7,5,Pin_5*%
%TO.N,Z_FAULT*%
X110109000Y27178000D03*
%TO.P,J5-J7,6,Pin_6*%
%TO.N,/MSP432E401Y/PP_0*%
X110109000Y24638000D03*
%TO.P,J5-J7,7,Pin_7*%
%TO.N,Z_HOME*%
X112649000Y27178000D03*
%TO.P,J5-J7,8,Pin_8*%
%TO.N,CAPTURE_OUT*%
X112649000Y24638000D03*
%TO.P,J5-J7,9,Pin_9*%
%TO.N,LS_Z_OUT*%
X115189000Y27178000D03*
%TO.P,J5-J7,10,Pin_10*%
%TO.N,/MSP432E401Y/PD_4*%
X115189000Y24638000D03*
%TO.P,J5-J7,11,Pin_11*%
%TO.N,LS_Y_OUT*%
X117729000Y27178000D03*
%TO.P,J5-J7,12,Pin_12*%
%TO.N,/MSP432E401Y/PD_5*%
X117729000Y24638000D03*
%TO.P,J5-J7,13,Pin_13*%
%TO.N,LS_X_OUT*%
X120269000Y27178000D03*
%TO.P,J5-J7,14,Pin_14*%
%TO.N,/MSP432E401Y/PQ_0*%
X120269000Y24638000D03*
%TO.P,J5-J7,15,Pin_15*%
%TO.N,/MSP432E401Y/PK_3*%
X122809000Y27178000D03*
%TO.P,J5-J7,16,Pin_16*%
%TO.N,Z_DIR*%
X122809000Y24638000D03*
%TO.P,J5-J7,17,Pin_17*%
%TO.N,U3RX*%
X125349000Y27178000D03*
%TO.P,J5-J7,18,Pin_18*%
%TO.N,Z_ENABLE*%
X125349000Y24638000D03*
%TO.P,J5-J7,19,Pin_19*%
%TO.N,U3TX*%
X127889000Y27178000D03*
%TO.P,J5-J7,20,Pin_20*%
%TO.N,Z_STEP*%
X127889000Y24638000D03*
%TD*%
D16*
%TO.P,R27,1*%
%TO.N,Net-(C16-Pad2)*%
X79418000Y14383000D03*
%TO.P,R27,2*%
%TO.N,Net-(JP6-Pad2)*%
X81818000Y14383000D03*
%TD*%
D12*
%TO.P,TP2,1,1*%
%TO.N,Y_STEP*%
X36245800Y31323600D03*
%TD*%
D30*
%TO.P,HS2,1*%
%TO.N,GND*%
X28321000Y48494000D03*
%TD*%
D16*
%TO.P,R65,1*%
%TO.N,Net-(J18-Pad2)*%
X23922213Y80275456D03*
%TO.P,R65,2*%
%TO.N,GND*%
X26322213Y80275456D03*
%TD*%
D23*
%TO.P,J13,1,1*%
%TO.N,Net-(IC6-Pad5)*%
X117545463Y91111000D03*
D24*
%TO.P,J13,2,2*%
%TO.N,Net-(IC6-Pad4)*%
X121355463Y91111000D03*
%TO.P,J13,3,3*%
%TO.N,Net-(IC6-Pad2)*%
X125165463Y91111000D03*
%TO.P,J13,4,4*%
%TO.N,Net-(IC6-Pad1)*%
X128975463Y91111000D03*
%TD*%
D63*
%TO.P,J10,1,1*%
%TO.N,Net-(F1-Pad1)*%
X158922000Y46990000D03*
D64*
%TO.P,J10,2,2*%
%TO.N,GND*%
X164922000Y46990000D03*
D65*
%TO.P,J10,3,3*%
%TO.N,unconnected-(J10-Pad3)*%
X165922000Y51490000D03*
%TO.P,J10,4,4*%
%TO.N,unconnected-(J10-Pad4)*%
X165922000Y42490000D03*
%TD*%
D12*
%TO.P,TP13,1,1*%
%TO.N,Net-(F1-Pad1)*%
X162052000Y21082000D03*
%TD*%
D66*
%TO.N,GND*%
X28498800Y42474200D03*
D67*
X44132500Y46278800D03*
X109321600Y30434600D03*
X100814722Y47199812D03*
X97155000Y83546000D03*
D66*
X125349000Y45192000D03*
X22860000Y48392400D03*
X34163000Y42474200D03*
X106224922Y40618900D03*
D67*
X111658400Y30434600D03*
D66*
X65964482Y39674300D03*
X131013200Y45192000D03*
X25603200Y45522200D03*
X31267400Y51516600D03*
X131013200Y51186400D03*
X125349000Y51186400D03*
D67*
X65024682Y46252900D03*
X148844000Y82022000D03*
X33401000Y78034200D03*
D66*
X140411200Y35712400D03*
X34163000Y54386800D03*
X119710200Y51186400D03*
X31267400Y45522200D03*
D68*
X40526204Y84354635D03*
D66*
X125349000Y39273800D03*
X119710200Y39273800D03*
X119710200Y45192000D03*
X146050000Y35712400D03*
X53759100Y40132000D03*
D67*
X122809000Y16490000D03*
D66*
X140411200Y29794200D03*
X143154400Y45872400D03*
X128117600Y42321800D03*
X22860000Y42474200D03*
X25654000Y51516600D03*
X146050000Y29794200D03*
X102186322Y40618900D03*
X49568100Y40132000D03*
X70460282Y39674300D03*
X140411200Y48742600D03*
X22860000Y54386800D03*
X28498800Y48392400D03*
X110873122Y40618900D03*
X74651282Y39674300D03*
D67*
X76708000Y52070000D03*
D66*
X122504200Y48316200D03*
X45072300Y40132000D03*
X140411200Y42824400D03*
D67*
X132461000Y87102000D03*
D66*
X143154400Y32842200D03*
D67*
X29845000Y23348000D03*
D66*
X122453400Y42321800D03*
X28498800Y54386800D03*
X128117600Y48316200D03*
X146050000Y48742600D03*
X34163000Y48392400D03*
X146050000Y42824400D03*
X131013200Y39273800D03*
D67*
%TO.N,Net-(C2-Pad2)*%
X45008800Y33025400D03*
X55245000Y33254000D03*
%TO.N,Net-(C8-Pad2)*%
X112574000Y36631000D03*
X102235000Y34524000D03*
%TO.N,+3.3V*%
X90297000Y74910000D03*
X130937000Y73894000D03*
X133985000Y53320000D03*
X133985000Y58146000D03*
%TO.N,RESET_OUT*%
X31623000Y67798000D03*
%TO.N,HOME_OUT*%
X19939000Y68052000D03*
%TO.N,START_OUT*%
X31623000Y66274000D03*
%TO.N,/StepperDriver2/1A*%
X51752500Y45262800D03*
X39771000Y58166000D03*
X38735000Y58146000D03*
X51752500Y46532800D03*
%TO.N,/StepperDriver2/2A*%
X36195000Y58400000D03*
X35433000Y59162000D03*
X50228500Y45262800D03*
X50228500Y46532800D03*
%TO.N,/StepperDriver2/2B*%
X33883600Y58704800D03*
X48704500Y45262800D03*
X34691000Y57912000D03*
X48704500Y46532800D03*
%TO.N,/StepperDriver2/1B*%
X38755000Y54864000D03*
X47180500Y46532800D03*
X37719000Y54844000D03*
X47180500Y45262800D03*
%TO.N,XYZ_RESET*%
X41783000Y37826000D03*
X62611000Y37064000D03*
X98679000Y38842000D03*
%TO.N,Y_FAULT*%
X57785000Y34768695D03*
X47523400Y31259500D03*
X58801000Y58146000D03*
X58801000Y55098000D03*
%TO.N,XYZ_DECAY*%
X67741800Y33000000D03*
X48387000Y33000000D03*
X104521000Y36048000D03*
%TO.N,Y_ENABLE*%
X68707000Y24821200D03*
%TO.N,Y_HOME*%
X57785000Y55098000D03*
X57785000Y58146000D03*
%TO.N,/StepperDriver3/1A*%
X108688722Y45675812D03*
X100330000Y60452000D03*
X99568000Y61214000D03*
X108651222Y46691812D03*
%TO.N,/StepperDriver3/2A*%
X107164722Y46437812D03*
X87884000Y87884000D03*
X107164722Y45421812D03*
X98552000Y60452000D03*
X87884000Y86614000D03*
X97790000Y61214000D03*
%TO.N,/StepperDriver3/2B*%
X105386722Y46437812D03*
X95504000Y61214000D03*
X86614000Y84836000D03*
X86614000Y86106000D03*
X105386722Y45421812D03*
X96266000Y60452000D03*
%TO.N,/StepperDriver3/1B*%
X94742000Y60198000D03*
X103862722Y45675812D03*
X93980000Y60960000D03*
X103862722Y46691812D03*
%TO.N,Z_ENABLE*%
X104851200Y31222000D03*
X106502200Y33000000D03*
%TO.N,Z_HOME*%
X110333000Y35615000D03*
%TO.N,/StepperDriver1/1A*%
X72390000Y61214000D03*
X72390000Y45725400D03*
X72390000Y60198000D03*
X72390682Y46760900D03*
%TO.N,/StepperDriver1/2A*%
X71120000Y61214000D03*
X71120000Y86868000D03*
X70739000Y47097000D03*
X71120000Y88138000D03*
X70713600Y46030200D03*
X71120000Y60198000D03*
%TO.N,/StepperDriver1/2B*%
X69305182Y46055600D03*
X69342000Y84836000D03*
X69342000Y86106000D03*
X69342000Y61214000D03*
X69342682Y47014900D03*
X69342000Y60198000D03*
%TO.N,/StepperDriver1/1B*%
X67564000Y61214000D03*
X67564682Y45998900D03*
X67564682Y47014900D03*
X67564000Y60198000D03*
%TO.N,X_FAULT*%
X64389000Y32238000D03*
%TO.N,X_DIR*%
X69469000Y32746000D03*
%TO.N,X_ENABLE*%
X67132200Y26142000D03*
X70485000Y32746000D03*
X71145400Y27158000D03*
%TO.N,X_STEP*%
X71501000Y32746000D03*
%TO.N,X_HOME*%
X100584000Y28555000D03*
X74676000Y32746000D03*
%TO.N,Net-(C20-Pad2)*%
X75819000Y34778000D03*
X66167000Y34270000D03*
%TO.N,U3RX*%
X129159000Y18776000D03*
%TO.N,LS_Z_OUT*%
X101473000Y25888000D03*
%TO.N,DEMUX_S2*%
X43053000Y85070000D03*
%TO.N,DEMUX_S1*%
X43053000Y83800000D03*
%TO.N,DEMUX_S0*%
X42545000Y82784000D03*
%TO.N,MUX_S2*%
X109855000Y86340000D03*
X110617000Y81006000D03*
X109855000Y90658000D03*
X110617000Y75926000D03*
%TO.N,MUX_S1*%
X106299000Y85832000D03*
X106807000Y81006000D03*
X106299000Y89896000D03*
X106807000Y75926000D03*
%TO.N,MUX_S0*%
X102997000Y85832000D03*
X102997000Y81006000D03*
X102997000Y75926000D03*
X96139000Y90150000D03*
%TO.N,MAG_IN2*%
X132461000Y80752000D03*
X145923000Y82276000D03*
%TO.N,MAG_IN1*%
X133731000Y79990000D03*
X146939000Y82022000D03*
%TO.N,FP_1_OUT*%
X89789000Y55098000D03*
%TO.N,FP_2_OUT*%
X88519000Y55098000D03*
%TO.N,FP_3_OUT*%
X91059000Y55098000D03*
%TO.N,XY_MS1*%
X66090800Y29444000D03*
%TO.N,XY_MS0*%
X63373000Y31476000D03*
%TO.N,Z_MS2*%
X114427000Y55098000D03*
%TO.N,Z_MS1*%
X115755000Y55098000D03*
%TO.N,Z_MS0*%
X117221000Y55098000D03*
%TD*%
D69*
%TO.N,Net-(C2-Pad2)*%
X44011200Y35642800D02*
X45055000Y34599000D01*
X45008800Y34552800D02*
X45055000Y34599000D01*
X45008800Y33025400D02*
X45008800Y34552800D01*
X45055000Y35911000D02*
X45055000Y34599000D01*
%TO.N,GND*%
X8633000Y47986000D02*
X8633000Y50815100D01*
X122809000Y18776000D02*
X124249500Y18776000D01*
X126465520Y76841480D02*
X126619000Y76688000D01*
X139856000Y57879800D02*
X139888200Y57912000D01*
D70*
X151638000Y47126000D02*
X145551000Y47126000D01*
D69*
X138650000Y57912000D02*
X135128000Y61434000D01*
X139700000Y93325950D02*
X138684950Y93325950D01*
X6560000Y31750000D02*
X4826000Y33484000D01*
X102059967Y78212000D02*
X102059967Y76863033D01*
X110772000Y11150000D02*
X110772000Y5060000D01*
X109855000Y76688000D02*
X113665000Y76688000D01*
X14249400Y78135800D02*
X18313400Y78135800D01*
D70*
X139856000Y54551000D02*
X139856000Y49297800D01*
D69*
X32131000Y5159000D02*
X31778000Y4806000D01*
D71*
X110803000Y40548778D02*
X110803000Y37592000D01*
D69*
X6212141Y78299059D02*
X6375400Y78135800D01*
D70*
X143256000Y51536600D02*
X146050000Y48742600D01*
D69*
X76482000Y4806000D02*
X76482000Y10670000D01*
D71*
X143256000Y32766000D02*
X143256000Y41336000D01*
D69*
X113514611Y78212000D02*
X113514611Y76838389D01*
X147574000Y32854900D02*
X148814900Y31614000D01*
X96697463Y86499312D02*
X96697463Y84003537D01*
D71*
X102186322Y40618900D02*
X101803000Y41002222D01*
D69*
X42954000Y4806000D02*
X42954000Y10543000D01*
D71*
X153162000Y20086000D02*
X153878600Y20086000D01*
X44966500Y40237800D02*
X44966500Y43031900D01*
D70*
X143256000Y54551000D02*
X143256000Y51536600D01*
D69*
X26695400Y78135800D02*
X30505400Y78135800D01*
D71*
X74786145Y39539437D02*
X74786145Y36796200D01*
D69*
X97002600Y83698400D02*
X97155000Y83546000D01*
X109692463Y76850537D02*
X109855000Y76688000D01*
D71*
X65858682Y39780100D02*
X65858682Y42706000D01*
D69*
X126619000Y76688000D02*
X128872677Y76688000D01*
X43865400Y41930800D02*
X44966500Y43031900D01*
X76708000Y53518000D02*
X76708000Y52070000D01*
X30505400Y78135800D02*
X33299400Y78135800D01*
D71*
X74651282Y39674300D02*
X74786145Y39539437D01*
D69*
X139856000Y54551000D02*
X139856000Y57879800D01*
X62458600Y51395000D02*
X66051982Y51395000D01*
D70*
X143205200Y51536600D02*
X140411200Y48742600D01*
D69*
X71120682Y53161700D02*
X67818682Y53161700D01*
X3225800Y19264000D02*
X11854000Y19264000D01*
X65814000Y5286000D02*
X65334000Y4806000D01*
X147312000Y83490000D02*
X148833800Y83490000D01*
X101576722Y46183812D02*
X101576722Y46437812D01*
X138684950Y93325950D02*
X132461000Y87102000D01*
X97155000Y83546000D02*
X97155000Y78866967D01*
X99333967Y76688000D02*
X102235000Y76688000D01*
X18313400Y78135800D02*
X22631400Y78135800D01*
X52705000Y55352000D02*
X50990500Y53637500D01*
X9995753Y78325447D02*
X10185400Y78135800D01*
X44583100Y39642800D02*
X45072300Y40132000D01*
X118800822Y78212000D02*
X118800822Y76886178D01*
X9995753Y80275456D02*
X9995753Y78325447D01*
X105061922Y52513812D02*
X105386722Y52838612D01*
X22278516Y80275456D02*
X22278516Y78488684D01*
X13998225Y80275456D02*
X13998225Y78386975D01*
X1549400Y20940400D02*
X1549400Y30207400D01*
X27031000Y23348000D02*
X29845000Y23348000D01*
X88900000Y5794000D02*
X87912000Y4806000D01*
X41592500Y39642800D02*
X44583100Y39642800D01*
X100076000Y11150000D02*
X100076000Y5794000D01*
D70*
X143256000Y51536600D02*
X143205200Y51536600D01*
D69*
X105844361Y78212000D02*
X105844361Y76888639D01*
X22278516Y78488684D02*
X22631400Y78135800D01*
D71*
X45072300Y40132000D02*
X44966500Y40237800D01*
D69*
X4826000Y49740000D02*
X6580000Y47986000D01*
X114249000Y53498000D02*
X112395000Y55352000D01*
X90551000Y83772775D02*
X91365463Y82958312D01*
X65814000Y11150000D02*
X65814000Y5286000D01*
X126465520Y78212000D02*
X126465520Y76841480D01*
X63020000Y11219500D02*
X65744500Y11219500D01*
X30111414Y78529786D02*
X30505400Y78135800D01*
X105844361Y76888639D02*
X106045000Y76688000D01*
X122809000Y76688000D02*
X126619000Y76688000D01*
X118999000Y76688000D02*
X122809000Y76688000D01*
X159919000Y91278100D02*
X162629000Y88568100D01*
X34104789Y78737989D02*
X34104789Y80275456D01*
X32061500Y11219500D02*
X32131000Y11150000D01*
X6375400Y78135800D02*
X10185400Y78135800D01*
X76892500Y11219500D02*
X76962000Y11150000D01*
X10185400Y78135800D02*
X14249400Y78135800D01*
X97155000Y78866967D02*
X99333967Y76688000D01*
X94141612Y82958312D02*
X94881700Y83698400D01*
D70*
X162052000Y66440050D02*
X162052000Y62210000D01*
D69*
X122579423Y76917577D02*
X122809000Y76688000D01*
X148844000Y83500200D02*
X148844000Y82022000D01*
X110772000Y5060000D02*
X110518000Y4806000D01*
X11747500Y19370500D02*
X12192000Y18926000D01*
X108077000Y11219500D02*
X110702500Y11219500D01*
X94881700Y83698400D02*
X97002600Y83698400D01*
X65024682Y46252900D02*
X65202682Y46252900D01*
X45839700Y51084800D02*
X47688500Y52933600D01*
X13998225Y78386975D02*
X14249400Y78135800D01*
X135112060Y9891913D02*
X154443313Y9891913D01*
X11747500Y21082000D02*
X11747500Y19370500D01*
D70*
X162052000Y62210000D02*
X160528000Y60686000D01*
D69*
X74155300Y11219500D02*
X76892500Y11219500D01*
X32131000Y11150000D02*
X32131000Y5159000D01*
X39879980Y83708411D02*
X40526204Y84354635D01*
X39317779Y83708411D02*
X39317779Y86189591D01*
X162629000Y88568100D02*
X162629000Y81208100D01*
X66051982Y51395000D02*
X67818682Y53161700D01*
X6580000Y47986000D02*
X8633000Y47986000D01*
X17673636Y78775564D02*
X18313400Y78135800D01*
X95397463Y86499312D02*
X96047463Y86499312D01*
X99036722Y52513812D02*
X105061922Y52513812D01*
X96047463Y86499312D02*
X96697463Y86499312D01*
X42954000Y10543000D02*
X43561000Y11150000D01*
X40643967Y82865667D02*
X40160523Y82865667D01*
X4826000Y66250000D02*
X6834000Y64242000D01*
X43491500Y11219500D02*
X43561000Y11150000D01*
X118800822Y76886178D02*
X118999000Y76688000D01*
X113665000Y76688000D02*
X118999000Y76688000D01*
X98528722Y40563812D02*
X102131234Y40563812D01*
X102131234Y40563812D02*
X102186322Y40618900D01*
X8633000Y50815100D02*
X8864600Y51046700D01*
X143256000Y23048200D02*
X143256000Y24485600D01*
X106045000Y76688000D02*
X109855000Y76688000D01*
X91365463Y82958312D02*
X94141612Y82958312D01*
X114249000Y51542000D02*
X114249000Y53498000D01*
X8699500Y34798000D02*
X8699500Y31943500D01*
X65399082Y39108900D02*
X65964482Y39674300D01*
D71*
X110873122Y40618900D02*
X110803000Y40548778D01*
X110875000Y40618900D02*
X110803000Y40546900D01*
D69*
X8864600Y67302700D02*
X8864600Y64727600D01*
X55245000Y55352000D02*
X52705000Y55352000D01*
X6212141Y80275456D02*
X6212141Y78299059D01*
X109692463Y78212000D02*
X109692463Y76850537D01*
X17971904Y80499590D02*
X17673636Y80201322D01*
X110702500Y11219500D02*
X110772000Y11150000D01*
X39317779Y83708411D02*
X39879980Y83708411D01*
X54991000Y11150000D02*
X54991000Y5619000D01*
X112395000Y55352000D02*
X110109000Y55352000D01*
X30111414Y80275456D02*
X30111414Y78529786D01*
X42354500Y51084800D02*
X45839700Y51084800D01*
X44818500Y45592800D02*
X44132500Y46278800D01*
X85991700Y11219500D02*
X88830500Y11219500D01*
X121221500Y18776000D02*
X122809000Y18776000D01*
X11854000Y19264000D02*
X12192000Y18926000D01*
X100076000Y5794000D02*
X99088000Y4806000D01*
X113514611Y76838389D02*
X113665000Y76688000D01*
X100006500Y11219500D02*
X100076000Y11150000D01*
X50990500Y53637500D02*
X50990500Y52933600D01*
X40160523Y82865667D02*
X39317779Y83708411D01*
X146659600Y25323800D02*
X143256000Y28727400D01*
X148833800Y83490000D02*
X148844000Y83500200D01*
D71*
X65964482Y39674300D02*
X65858682Y39780100D01*
D69*
X148814900Y31614000D02*
X151638000Y31614000D01*
X141543800Y21336000D02*
X143256000Y23048200D01*
X96774000Y11219500D02*
X100006500Y11219500D01*
X64803582Y41650900D02*
X65858682Y42706000D01*
X8506000Y31750000D02*
X6560000Y31750000D01*
D71*
X101803000Y41002222D02*
X101803000Y43468000D01*
D69*
X99977722Y42851812D02*
X101800722Y42851812D01*
X122809000Y18776000D02*
X122809000Y16490000D01*
X29337000Y11219500D02*
X32061500Y11219500D01*
X6834000Y64242000D02*
X8379000Y64242000D01*
X139888200Y57912000D02*
X138650000Y57912000D01*
X39317779Y86189591D02*
X40617779Y86189591D01*
X124249500Y18776000D02*
X124269500Y18796000D01*
X122579423Y78212000D02*
X122579423Y76917577D01*
X1549400Y30207400D02*
X4826000Y33484000D01*
X145551000Y47126000D02*
X143256000Y44831000D01*
X8699500Y31943500D02*
X8506000Y31750000D01*
X101800722Y42851812D02*
X101803000Y42854090D01*
X33401000Y78034200D02*
X34104789Y78737989D01*
X26322213Y78508987D02*
X26695400Y78135800D01*
X143256000Y28727400D02*
X143256000Y32766000D01*
X65202682Y46252900D02*
X65964682Y45490900D01*
X110109000Y55352000D02*
X108688722Y53931722D01*
D71*
X53759100Y40132000D02*
X53966500Y39924600D01*
D69*
X8864600Y64727600D02*
X8379000Y64242000D01*
X76482000Y10670000D02*
X76962000Y11150000D01*
X56248500Y51358800D02*
X56248500Y54348500D01*
X26322213Y80275456D02*
X26322213Y78508987D01*
X128872677Y76688000D02*
X130396677Y78212000D01*
D71*
X143256000Y46062900D02*
X143256000Y44831000D01*
D69*
X17673636Y80201322D02*
X17673636Y78775564D01*
X43549500Y41930800D02*
X43865400Y41930800D01*
X102235000Y76688000D02*
X106045000Y76688000D01*
X88830500Y11219500D02*
X88900000Y11150000D01*
X22631400Y78135800D02*
X26695400Y78135800D01*
X101576722Y46437812D02*
X100814722Y47199812D01*
X90551000Y86464700D02*
X90551000Y83772775D01*
D70*
X139856000Y49297800D02*
X140411200Y48742600D01*
D69*
X146659600Y24485600D02*
X146659600Y25323800D01*
X96697463Y84003537D02*
X97155000Y83546000D01*
X154443313Y9891913D02*
X159258000Y14706600D01*
X102059967Y76863033D02*
X102235000Y76688000D01*
X47688500Y52933600D02*
X50990500Y52933600D01*
X38574010Y82964642D02*
X39317779Y83708411D01*
X33299400Y78135800D02*
X33401000Y78034200D01*
X109321600Y30434600D02*
X111658400Y30434600D01*
X3225800Y19264000D02*
X1549400Y20940400D01*
X40668000Y11219500D02*
X43491500Y11219500D01*
X143256000Y24485600D02*
X143256000Y32766000D01*
X56248500Y54348500D02*
X55245000Y55352000D01*
X54921500Y11219500D02*
X54991000Y11150000D01*
D71*
X153878600Y20086000D02*
X159258000Y14706600D01*
D69*
X108688722Y52838612D02*
X105386722Y52838612D01*
X44818500Y45516800D02*
X44818500Y45592800D01*
X88900000Y11150000D02*
X88900000Y5794000D01*
X62484682Y39108900D02*
X65399082Y39108900D01*
X108688722Y53931722D02*
X108688722Y52838612D01*
X65744500Y11219500D02*
X65814000Y11150000D01*
X54991000Y5619000D02*
X54178000Y4806000D01*
X51689000Y11219500D02*
X54921500Y11219500D01*
D71*
X53966500Y39924600D02*
X53966500Y37155900D01*
D69*
X64187682Y41650900D02*
X64803582Y41650900D01*
D71*
%TO.N,+24V*%
X157981000Y37483834D02*
X154702615Y40762219D01*
X150756857Y13101392D02*
X149716722Y12061257D01*
X154702615Y40762219D02*
X154702615Y56167471D01*
X155564463Y22586000D02*
X157981000Y25002537D01*
X149716722Y12061257D02*
X141418269Y12061257D01*
X136017000Y27888077D02*
X136017000Y54082000D01*
X133477000Y56622000D02*
X111506000Y56622000D01*
X146656000Y56868977D02*
X145612977Y57912000D01*
X139888200Y13604084D02*
X139888200Y21336000D01*
X139888200Y24449800D02*
X139852400Y24485600D01*
X73571100Y56622000D02*
X54013100Y56622000D01*
X111506000Y56622000D02*
X74676000Y56622000D01*
X146656000Y54551000D02*
X153086144Y54551000D01*
X136017000Y54082000D02*
X133477000Y56622000D01*
X157981000Y34793300D02*
X157981000Y37483834D01*
X151987929Y22586000D02*
X150756857Y21354928D01*
X157981000Y25002537D02*
X157981000Y28733300D01*
X139881821Y13597705D02*
X139888200Y13604084D01*
X139888200Y21336000D02*
X139888200Y24449800D01*
X139852400Y24485600D02*
X139419477Y24485600D01*
X156728851Y58193707D02*
X156736558Y58186000D01*
X145612977Y57912000D02*
X141543800Y57912000D01*
X150756857Y21354928D02*
X150756857Y13101392D01*
X141418269Y12061257D02*
X139881821Y13597705D01*
X157981000Y28733300D02*
X157981000Y34793300D01*
X139419477Y24485600D02*
X136017000Y27888077D01*
X153162000Y22586000D02*
X155564463Y22586000D01*
X153162000Y22586000D02*
X151987929Y22586000D01*
X146656000Y54551000D02*
X146656000Y56868977D01*
X156736558Y58186000D02*
X160528000Y58186000D01*
X153086144Y54551000D02*
X154702615Y56167471D01*
X154702615Y56167471D02*
X156728851Y58193707D01*
D69*
%TO.N,Net-(C2-Pad2)*%
X45241426Y36097426D02*
X45055000Y35911000D01*
X56345000Y34853000D02*
X56345000Y34354000D01*
X45241426Y37122100D02*
X45241426Y36097426D01*
X56345000Y34354000D02*
X55245000Y33254000D01*
X41592500Y35642800D02*
X44011200Y35642800D01*
X39033200Y35642800D02*
X41592500Y35642800D01*
X39162000Y42210000D02*
X38100000Y41148000D01*
X38100000Y41148000D02*
X38100000Y36576000D01*
X41046400Y42210000D02*
X39162000Y42210000D01*
X38100000Y36576000D02*
X39033200Y35642800D01*
%TO.N,Net-(C6-Pad1)*%
X54594500Y44294800D02*
X53341900Y44294800D01*
X53341900Y44294800D02*
X53041500Y43994400D01*
X55054500Y43814800D02*
X55054500Y43834800D01*
X53041500Y43994400D02*
X53041500Y43031900D01*
X55054500Y43834800D02*
X54594500Y44294800D01*
%TO.N,Net-(C6-Pad2)*%
X55054500Y43154800D02*
X53814400Y43154800D01*
X53814400Y43154800D02*
X53691500Y43031900D01*
%TO.N,Net-(C8-Pad2)*%
X96024188Y36563812D02*
X98528722Y36563812D01*
X102235000Y35749000D02*
X102310000Y35824000D01*
X112574000Y37910000D02*
X112574000Y36631000D01*
X95250000Y42672000D02*
X95250000Y37338000D01*
X95250000Y37338000D02*
X96024188Y36563812D01*
X98020722Y43201812D02*
X95779812Y43201812D01*
X102077926Y36056074D02*
X102310000Y35824000D01*
X101079812Y36563812D02*
X98528722Y36563812D01*
X102077926Y37558200D02*
X102077926Y36056074D01*
X101092000Y36576000D02*
X101079812Y36563812D01*
X102310000Y35824000D02*
X101844000Y35824000D01*
X101844000Y35824000D02*
X101092000Y36576000D01*
X95779812Y43201812D02*
X95250000Y42672000D01*
X102235000Y34524000D02*
X102235000Y35749000D01*
%TO.N,Net-(C12-Pad1)*%
X109878000Y43468000D02*
X109878000Y44322298D01*
X111687118Y44531416D02*
X111990722Y44227812D01*
X109878000Y44322298D02*
X110087118Y44531416D01*
X110087118Y44531416D02*
X111687118Y44531416D01*
%TO.N,Net-(C10-Pad2)*%
X102236722Y46183812D02*
X102236722Y46813812D01*
X102236722Y46813812D02*
X99036722Y50013812D01*
X108578000Y44295090D02*
X110146922Y45864012D01*
X104028000Y43468000D02*
X104028000Y44240534D01*
X111802722Y47839612D02*
X111802722Y48977812D01*
X110146922Y46183812D02*
X111802722Y47839612D01*
D70*
X110378812Y48977812D02*
X111802722Y48977812D01*
X113589000Y51542000D02*
X113589000Y51999000D01*
X109342812Y50013812D02*
X110378812Y48977812D01*
X113589000Y51999000D02*
X111506000Y54082000D01*
D69*
X110146922Y45864012D02*
X110146922Y46183812D01*
D70*
X113589000Y50764090D02*
X113589000Y51542000D01*
D69*
X104028000Y44240534D02*
X102236722Y46031812D01*
X108578000Y43468000D02*
X108578000Y44295090D01*
D70*
X109342812Y50013812D02*
X99036722Y50013812D01*
X111802722Y48977812D02*
X113589000Y50764090D01*
D69*
X102236722Y46031812D02*
X102236722Y46183812D01*
%TO.N,Net-(C12-Pad2)*%
X111890910Y43468000D02*
X111990722Y43567812D01*
X110528000Y43468000D02*
X111890910Y43468000D01*
%TO.N,Net-(C13-Pad2)*%
X90923000Y13950000D02*
X91356000Y14383000D01*
X91398000Y14341000D02*
X91356000Y14383000D01*
X88900000Y13950000D02*
X90923000Y13950000D01*
X91398000Y10902000D02*
X91398000Y14341000D01*
X91356000Y18740000D02*
X91900000Y19284000D01*
X91356000Y14383000D02*
X91356000Y18740000D01*
%TO.N,Net-(C14-Pad2)*%
X10593000Y45296000D02*
X16073000Y45296000D01*
X16073000Y45296000D02*
X16129000Y45240000D01*
X10593000Y45296000D02*
X9694000Y45296000D01*
X9694000Y45296000D02*
X8636000Y44238000D01*
X11433000Y47986000D02*
X11433000Y46136000D01*
X11433000Y46136000D02*
X10593000Y45296000D01*
%TO.N,Net-(C15-Pad2)*%
X11179000Y62392000D02*
X10593000Y61806000D01*
X11179000Y64242000D02*
X11179000Y62392000D01*
X9789000Y61002000D02*
X10593000Y61806000D01*
X16129000Y62024000D02*
X10811000Y62024000D01*
X8636000Y61002000D02*
X9789000Y61002000D01*
X10811000Y62024000D02*
X10593000Y61806000D01*
%TO.N,Net-(C16-Pad2)*%
X80216000Y15181000D02*
X79418000Y14383000D01*
X80216000Y19284000D02*
X80216000Y15181000D01*
X78985000Y13950000D02*
X79418000Y14383000D01*
X79714000Y10902000D02*
X79714000Y14087000D01*
X79714000Y14087000D02*
X79418000Y14383000D01*
X76962000Y13950000D02*
X78985000Y13950000D01*
%TO.N,+3.3V*%
X31135000Y71882000D02*
X30373000Y71882000D01*
X40924224Y87414461D02*
X41401848Y86936837D01*
X36067779Y89200482D02*
X36625606Y88642655D01*
X38574010Y79321010D02*
X31135000Y71882000D01*
X133985000Y58146000D02*
X130937000Y61194000D01*
X30373000Y72370000D02*
X30373000Y71882000D01*
X130937000Y61194000D02*
X130937000Y73894000D01*
X40674040Y79476801D02*
X39059215Y79476801D01*
X30373000Y71882000D02*
X17907000Y59416000D01*
X132334000Y25888000D02*
X133985000Y27539000D01*
X127782000Y21336000D02*
X132334000Y25888000D01*
X90551000Y88120300D02*
X89789000Y87358300D01*
X39053201Y87414461D02*
X40924224Y87414461D01*
X17887000Y59436000D02*
X15728000Y59436000D01*
X41401848Y86936837D02*
X41401848Y80204609D01*
X133985000Y27539000D02*
X133985000Y53320000D01*
X89789000Y75418000D02*
X90297000Y74910000D01*
X28595000Y74148000D02*
X30373000Y72370000D01*
X37825007Y88642655D02*
X39053201Y87414461D01*
X36067779Y92065591D02*
X36067779Y89200482D01*
X38574010Y79962006D02*
X38574010Y81309042D01*
X38574010Y81309042D02*
X38574010Y79321010D01*
X92147463Y92375312D02*
X92147463Y89970763D01*
X92147463Y89970763D02*
X90297000Y88120300D01*
X89789000Y87358300D02*
X89789000Y75418000D01*
X39059215Y79476801D02*
X38574010Y79962006D01*
X41401848Y80204609D02*
X40674040Y79476801D01*
X36625606Y88642655D02*
X37825007Y88642655D01*
X17907000Y59416000D02*
X17887000Y59436000D01*
%TO.N,RESET_OUT*%
X28067000Y67798000D02*
X31623000Y67798000D01*
X10261600Y51046700D02*
X15935700Y51046700D01*
X15935700Y51046700D02*
X16129000Y51240000D01*
X16129000Y51240000D02*
X16129000Y55860000D01*
X16129000Y55860000D02*
X28067000Y67798000D01*
%TO.N,HOME_OUT*%
X15407700Y67302700D02*
X16129000Y68024000D01*
X19911000Y68024000D02*
X19939000Y68052000D01*
X16129000Y68024000D02*
X19911000Y68024000D01*
X10261600Y67302700D02*
X15407700Y67302700D01*
%TO.N,Net-(C18-Pad2)*%
X113524000Y14087000D02*
X113228000Y14383000D01*
X112795000Y13950000D02*
X113228000Y14383000D01*
X113524000Y10902000D02*
X113524000Y14087000D01*
X113228000Y18486000D02*
X114026000Y19284000D01*
X110772000Y13950000D02*
X112795000Y13950000D01*
X113228000Y14383000D02*
X113228000Y18486000D01*
%TO.N,START_OUT*%
X15415000Y34798000D02*
X16129000Y35512000D01*
X19177000Y39096000D02*
X19177000Y57384000D01*
X19177000Y57384000D02*
X28067000Y66274000D01*
X10096500Y34798000D02*
X15415000Y34798000D01*
X28067000Y66274000D02*
X31623000Y66274000D01*
X16129000Y35512000D02*
X16129000Y36048000D01*
X16129000Y36048000D02*
X19177000Y39096000D01*
D72*
%TO.N,/StepperDriver2/1A*%
X55644000Y83330000D02*
X55644000Y92264000D01*
D70*
X51752500Y45019033D02*
X51752500Y45262800D01*
D72*
X45974000Y73660000D02*
X55644000Y83330000D01*
D70*
X51091500Y43031900D02*
X51091500Y44358033D01*
D72*
X38735000Y58146000D02*
X39751000Y58146000D01*
D70*
X39751000Y58146000D02*
X39771000Y58166000D01*
D72*
X38735000Y58146000D02*
X38735000Y71755000D01*
D70*
X51091500Y44358033D02*
X51752500Y45019033D01*
X51752500Y46532800D02*
X51752500Y45262800D01*
D72*
X40640000Y73660000D02*
X45974000Y73660000D01*
X38735000Y71755000D02*
X40640000Y73660000D01*
D69*
%TO.N,Net-(IC1-Pad6)*%
X50528805Y44537800D02*
X50990500Y44999495D01*
X50990500Y44999495D02*
X50990500Y48260000D01*
X50519500Y44537800D02*
X50528805Y44537800D01*
X50441500Y43031900D02*
X50441500Y44459800D01*
X50441500Y44459800D02*
X50519500Y44537800D01*
D72*
%TO.N,/StepperDriver2/2A*%
X35433000Y72771000D02*
X39370000Y76708000D01*
D70*
X49791500Y43031900D02*
X49791500Y44825800D01*
D72*
X41910000Y76708000D02*
X48024000Y82822000D01*
X39370000Y76708000D02*
X41910000Y76708000D01*
D70*
X49791500Y44825800D02*
X50228500Y45262800D01*
X50228500Y46532800D02*
X50228500Y45262800D01*
D72*
X35433000Y59162000D02*
X35433000Y72771000D01*
X48024000Y82822000D02*
X48024000Y92264000D01*
X35433000Y59162000D02*
X36195000Y58400000D01*
%TO.N,/StepperDriver2/2B*%
X41656000Y77978000D02*
X44214000Y80536000D01*
X44214000Y80536000D02*
X44214000Y92264000D01*
X33898200Y58704800D02*
X34691000Y57912000D01*
D70*
X49141500Y43031900D02*
X49141500Y44825800D01*
X48704500Y46532800D02*
X48704500Y45262800D01*
X33883600Y58704800D02*
X33898200Y58704800D01*
X49141500Y44825800D02*
X48704500Y45262800D01*
X33883600Y58704800D02*
X33909000Y58730200D01*
D72*
X33909000Y58730200D02*
X33909000Y73279000D01*
X38608000Y77978000D02*
X41656000Y77978000D01*
X33909000Y73279000D02*
X38608000Y77978000D01*
D69*
%TO.N,Net-(IC1-Pad9)*%
X48491500Y44450495D02*
X47979500Y44962495D01*
X47979500Y44962495D02*
X47979500Y47969000D01*
X47979500Y47969000D02*
X47688500Y48260000D01*
X48491500Y43031900D02*
X48491500Y44450495D01*
D72*
%TO.N,/StepperDriver2/1B*%
X37719000Y54844000D02*
X38735000Y54844000D01*
X43942000Y75184000D02*
X51834000Y83076000D01*
X37719000Y54844000D02*
X37719000Y72771000D01*
D70*
X47841500Y43031900D02*
X47841500Y44093800D01*
D72*
X51834000Y83076000D02*
X51834000Y92264000D01*
D70*
X38735000Y54844000D02*
X38755000Y54864000D01*
X47841500Y44093800D02*
X47180500Y44754800D01*
D72*
X37719000Y72771000D02*
X40132000Y75184000D01*
D70*
X47180500Y44754800D02*
X47180500Y45262800D01*
D72*
X40132000Y75184000D02*
X43942000Y75184000D01*
D70*
X47180500Y46532800D02*
X47180500Y45262800D01*
D69*
%TO.N,Net-(IC1-Pad12)*%
X43549500Y44330800D02*
X41742500Y44330800D01*
X45555100Y44330800D02*
X45891500Y43994400D01*
X45891500Y43994400D02*
X45891500Y43031900D01*
X46541500Y43031900D02*
X45891500Y43031900D01*
X43549500Y44330800D02*
X45555100Y44330800D01*
X41742500Y44330800D02*
X41592500Y44180800D01*
%TO.N,XYZ_RESET*%
X46541449Y37122100D02*
X46541449Y33067551D01*
X42311000Y38354000D02*
X41783000Y37826000D01*
X66866431Y37846000D02*
X63393000Y37846000D01*
X45891500Y37155900D02*
X45878518Y37142918D01*
X67433631Y36796200D02*
X67433631Y37278800D01*
X103403279Y37566721D02*
X103378000Y37592000D01*
X46541449Y37604700D02*
X45792149Y38354000D01*
X63393000Y37846000D02*
X62611000Y37064000D01*
X67433631Y37278800D02*
X66866431Y37846000D01*
X102616000Y38862000D02*
X98699000Y38862000D01*
X45891500Y37155900D02*
X46541500Y37155900D01*
X46609000Y33000000D02*
X46609000Y27178000D01*
X103378000Y38100000D02*
X102616000Y38862000D01*
X98699000Y38862000D02*
X98679000Y38842000D01*
X66783619Y36796200D02*
X67433631Y36796200D01*
X103378000Y37592000D02*
X103378000Y38100000D01*
X46541449Y37122100D02*
X46541449Y37604700D01*
X102728000Y37592000D02*
X103378000Y37592000D01*
X46541449Y33067551D02*
X46609000Y33000000D01*
X45792149Y38354000D02*
X42311000Y38354000D01*
%TO.N,Y_FAULT*%
X58801000Y58146000D02*
X58801000Y58166000D01*
X58801000Y55098000D02*
X58547000Y54844000D01*
X47455000Y35857000D02*
X47455000Y34599000D01*
X47191460Y37122100D02*
X47191460Y36120540D01*
X47455000Y31327900D02*
X47523400Y31259500D01*
X58547000Y54844000D02*
X58547000Y35530695D01*
X58801000Y58166000D02*
X49149000Y67818000D01*
X47191460Y36120540D02*
X47455000Y35857000D01*
X47455000Y34599000D02*
X47455000Y31327900D01*
X58547000Y35530695D02*
X57785000Y34768695D01*
%TO.N,XYZ_DECAY*%
X48387000Y33000000D02*
X48387000Y27940000D01*
X47841472Y36062528D02*
X47841472Y37122100D01*
X48387000Y35517000D02*
X47841472Y36062528D01*
X48387000Y27940000D02*
X49149000Y27178000D01*
X67741800Y33000000D02*
X68733654Y33991854D01*
X104677972Y37558200D02*
X104677972Y36204972D01*
X104677972Y36204972D02*
X104521000Y36048000D01*
X68733654Y33991854D02*
X68733654Y36796200D01*
X48387000Y33000000D02*
X48387000Y35517000D01*
%TO.N,Y_DIR*%
X49149000Y35540000D02*
X49149000Y29698000D01*
X48491483Y37122100D02*
X48491483Y36197517D01*
X49169000Y29698000D02*
X51689000Y27178000D01*
X48491483Y36197517D02*
X49149000Y35540000D01*
X49149000Y29698000D02*
X49169000Y29698000D01*
%TO.N,Y_ENABLE*%
X51435000Y28428000D02*
X52979000Y28428000D01*
X64685701Y26003000D02*
X55404000Y26003000D01*
X52979000Y28428000D02*
X54229000Y27178000D01*
X68707000Y24821200D02*
X65867501Y24821200D01*
X55404000Y26003000D02*
X54229000Y27178000D01*
X65867501Y24821200D02*
X64685701Y26003000D01*
X49141494Y36183902D02*
X49657000Y35668396D01*
X49657000Y30206000D02*
X51435000Y28428000D01*
X49657000Y35668396D02*
X49657000Y30206000D01*
X49141494Y37122100D02*
X49141494Y36183902D01*
%TO.N,Y_STEP*%
X49791506Y36170286D02*
X50165000Y35796792D01*
X49791506Y37122100D02*
X49791506Y36170286D01*
X50165000Y35796792D02*
X50165000Y30714000D01*
X50165000Y30714000D02*
X51689000Y29190000D01*
X54757000Y29190000D02*
X56769000Y27178000D01*
X51689000Y29190000D02*
X54757000Y29190000D01*
%TO.N,Y_HOME*%
X56281000Y58146000D02*
X46609000Y67818000D01*
X53945000Y34853000D02*
X58039000Y38947000D01*
X58039000Y40874000D02*
X58039000Y54844000D01*
X58039000Y38947000D02*
X58039000Y40874000D01*
X58039000Y54844000D02*
X57785000Y55098000D01*
X53041563Y37122100D02*
X53041563Y35756437D01*
X53041563Y35756437D02*
X53945000Y34853000D01*
X57785000Y58146000D02*
X56281000Y58146000D01*
D72*
%TO.N,/StepperDriver3/1A*%
X99568000Y61214000D02*
X89154000Y71628000D01*
D70*
X107928000Y44417323D02*
X107928000Y43468000D01*
X108688722Y46654312D02*
X108651222Y46691812D01*
D72*
X100330000Y60452000D02*
X99568000Y61214000D01*
D70*
X108688722Y45675812D02*
X108688722Y46654312D01*
X89154000Y71628000D02*
X89154000Y75438000D01*
X89154000Y75438000D02*
X89163000Y75447000D01*
D72*
X89163000Y75447000D02*
X89163000Y92264000D01*
D70*
X108688722Y45675812D02*
X108688722Y45178045D01*
X108688722Y45178045D02*
X107928000Y44417323D01*
D69*
%TO.N,Net-(IC2-Pad6)*%
X107926722Y45158507D02*
X107926722Y47403012D01*
X107926722Y47403012D02*
X108688722Y48165012D01*
X107278000Y44509785D02*
X107926722Y45158507D01*
X107278000Y43468000D02*
X107278000Y44509785D01*
D70*
%TO.N,/StepperDriver3/2A*%
X106628000Y43468000D02*
X106628000Y44885090D01*
D72*
X87884000Y87884000D02*
X87884000Y71120000D01*
D70*
X106628000Y44885090D02*
X107164722Y45421812D01*
X107164722Y45421812D02*
X107164722Y46437812D01*
D72*
X98552000Y60452000D02*
X97790000Y61214000D01*
X87884000Y71120000D02*
X97790000Y61214000D01*
D70*
%TO.N,/StepperDriver3/2B*%
X105978000Y43468000D02*
X105978000Y44830534D01*
X105386722Y45421812D02*
X105386722Y46437812D01*
X105978000Y44830534D02*
X105386722Y45421812D01*
D72*
X95504000Y61214000D02*
X86614000Y70104000D01*
X86614000Y86106000D02*
X86614000Y70104000D01*
X96266000Y60452000D02*
X95504000Y61214000D01*
D69*
%TO.N,Net-(IC2-Pad9)*%
X104624722Y47403012D02*
X105386722Y48165012D01*
X105328000Y44455500D02*
X104624722Y45158778D01*
X105328000Y43468000D02*
X105328000Y44455500D01*
X104624722Y45158778D02*
X104624722Y47403012D01*
D70*
%TO.N,/StepperDriver3/1B*%
X103862722Y45675812D02*
X103862722Y46691812D01*
D72*
X85353000Y70875000D02*
X85353000Y92264000D01*
D70*
X85344000Y70866000D02*
X85353000Y70875000D01*
D72*
X94742000Y60198000D02*
X93980000Y60960000D01*
X93980000Y60960000D02*
X85344000Y69596000D01*
X85344000Y69596000D02*
X85344000Y70866000D01*
D70*
X103862722Y45675812D02*
X103862722Y45178316D01*
X103862722Y45178316D02*
X104678000Y44363038D01*
X104678000Y44363038D02*
X104678000Y43468000D01*
D69*
%TO.N,Net-(IC2-Pad12)*%
X101906688Y45251812D02*
X102728000Y44430500D01*
X102728000Y44430500D02*
X102728000Y43468000D01*
X99977722Y45251812D02*
X101906688Y45251812D01*
X103378000Y43468000D02*
X102728000Y43468000D01*
X99827722Y45101812D02*
X99977722Y45251812D01*
X98020722Y45101812D02*
X99827722Y45101812D01*
%TO.N,Z_FAULT*%
X104027960Y36580265D02*
X103505000Y36057305D01*
X102310000Y33424000D02*
X103863000Y33424000D01*
X103505000Y36057305D02*
X103505000Y33782000D01*
X103863000Y33424000D02*
X110109000Y27178000D01*
X104027960Y37558200D02*
X104027960Y36580265D01*
X103505000Y33782000D02*
X103863000Y33424000D01*
%TO.N,Z_DIR*%
X121534722Y28533878D02*
X121190600Y28878000D01*
X122809000Y24638000D02*
X121534722Y25912278D01*
X121534722Y25912278D02*
X121534722Y28533878D01*
X105327983Y32595413D02*
X108951298Y28972098D01*
X109045396Y28878000D02*
X108951298Y28972098D01*
X105327983Y37558200D02*
X105327983Y32595413D01*
X121190600Y28878000D02*
X109045396Y28878000D01*
%TO.N,Z_ENABLE*%
X106502200Y33000000D02*
X108331000Y33000000D01*
X124079000Y25908000D02*
X125349000Y24638000D01*
X119530501Y32118200D02*
X124079000Y27569701D01*
X109212800Y32118200D02*
X119530501Y32118200D01*
X104851200Y31222000D02*
X103632000Y30002800D01*
X103632000Y30002800D02*
X96088200Y30002800D01*
X108331000Y33000000D02*
X108458000Y32873000D01*
X105977994Y35353006D02*
X108458000Y32873000D01*
X105977994Y37558200D02*
X105977994Y35353006D01*
X108458000Y32873000D02*
X109212800Y32118200D01*
X124079000Y27569701D02*
X124079000Y25908000D01*
%TO.N,Z_STEP*%
X106628006Y35464994D02*
X109524800Y32568200D01*
X129687000Y24638000D02*
X127889000Y24638000D01*
X131191000Y26142000D02*
X129687000Y24638000D01*
X127050800Y32568200D02*
X131191000Y28428000D01*
X109524800Y32568200D02*
X127050800Y32568200D01*
X106628006Y37558200D02*
X106628006Y35464994D01*
X131191000Y28428000D02*
X131191000Y26142000D01*
%TO.N,Z_HOME*%
X109878063Y36069937D02*
X110333000Y35615000D01*
X109878063Y36069937D02*
X109878063Y37558200D01*
X112469000Y35615000D02*
X112574000Y35510000D01*
X110333000Y35615000D02*
X112469000Y35615000D01*
D72*
%TO.N,/StepperDriver1/1A*%
X72408000Y61232000D02*
X72408000Y92264000D01*
D70*
X72390000Y61214000D02*
X72408000Y61232000D01*
D72*
X72408000Y61232000D02*
X72408000Y60216000D01*
D70*
X72408000Y60216000D02*
X72390000Y60198000D01*
X72390682Y45744900D02*
X71983682Y45337900D01*
X71983682Y45337900D02*
X71983682Y42706000D01*
X72390682Y45744900D02*
X72390682Y46760900D01*
D69*
%TO.N,Net-(IC3-Pad6)*%
X71333699Y42739800D02*
X71333699Y45624994D01*
X71602600Y45893895D02*
X71602600Y48006182D01*
X71602600Y48006182D02*
X71120682Y48488100D01*
X71333699Y45624994D02*
X71602600Y45893895D01*
D70*
%TO.N,/StepperDriver1/2A*%
X70713600Y47071600D02*
X70713600Y46030200D01*
D72*
X71120000Y61214000D02*
X71120000Y60198000D01*
D70*
X70713600Y46030200D02*
X70683682Y46000282D01*
X70683682Y46000282D02*
X70683682Y45307900D01*
D72*
X71120000Y61214000D02*
X71120000Y88138000D01*
D70*
X70683682Y42706000D02*
X70683682Y45307900D01*
D72*
%TO.N,/StepperDriver1/2B*%
X69342000Y61214000D02*
X69342000Y86106000D01*
D70*
X69305182Y46055600D02*
X69305182Y46036400D01*
D72*
X69342000Y60198000D02*
X69342000Y61214000D01*
D70*
X69342682Y47014900D02*
X69342682Y46093100D01*
X69342682Y46093100D02*
X69305182Y46055600D01*
X70033682Y45307900D02*
X70033682Y42706000D01*
X69305182Y46036400D02*
X70033682Y45307900D01*
D69*
%TO.N,Net-(IC3-Pad9)*%
X68580682Y47726100D02*
X68580682Y45236900D01*
X68580682Y45236900D02*
X69383682Y44433900D01*
X69383682Y44433900D02*
X69383682Y42706000D01*
X67818682Y48488100D02*
X68580682Y47726100D01*
D72*
%TO.N,/StepperDriver1/1B*%
X67564000Y60198000D02*
X67564000Y61214000D01*
D70*
X67818682Y45236900D02*
X67564682Y45490900D01*
D72*
X67564000Y61214000D02*
X67564000Y91230000D01*
D70*
X68733682Y44321900D02*
X67818682Y45236900D01*
X67564682Y47014900D02*
X67564682Y45998900D01*
X67564682Y45490900D02*
X67564682Y45998900D01*
D72*
X67564000Y91230000D02*
X68598000Y92264000D01*
D70*
X68733682Y42706000D02*
X68733682Y44321900D01*
D69*
%TO.N,Net-(IC3-Pad12)*%
X64037682Y43900900D02*
X64187682Y44050900D01*
X66401282Y44050900D02*
X66783682Y43668500D01*
X61976682Y43900900D02*
X64037682Y43900900D01*
X67433682Y42706000D02*
X66783682Y42706000D01*
X64187682Y44050900D02*
X66401282Y44050900D01*
X66783682Y43668500D02*
X66783682Y42706000D01*
%TO.N,X_FAULT*%
X66242000Y32916000D02*
X65067000Y32916000D01*
X67437000Y34111000D02*
X66242000Y32916000D01*
X65067000Y32916000D02*
X64389000Y32238000D01*
X67437000Y34787305D02*
X67437000Y34111000D01*
X68083642Y35433947D02*
X67437000Y34787305D01*
X68083642Y36796200D02*
X68083642Y35433947D01*
%TO.N,X_DIR*%
X69469000Y32746000D02*
X69383665Y32831335D01*
X69383665Y32831335D02*
X69383665Y36796200D01*
%TO.N,X_ENABLE*%
X70485000Y32746000D02*
X70485000Y34787305D01*
X70485000Y34787305D02*
X70033676Y35238629D01*
X70129400Y26142000D02*
X67132200Y26142000D01*
X71145400Y27158000D02*
X70129400Y26142000D01*
X70033676Y35238629D02*
X70033676Y36796200D01*
%TO.N,X_STEP*%
X70683688Y35604617D02*
X70683688Y36796200D01*
X71501000Y34787305D02*
X70683688Y35604617D01*
X71501000Y32746000D02*
X71501000Y34787305D01*
%TO.N,X_HOME*%
X73933745Y36155255D02*
X74519000Y35570000D01*
X74676000Y32746000D02*
X74676000Y33401000D01*
X73933745Y36796200D02*
X73933745Y36155255D01*
X100584000Y28555000D02*
X103251000Y25888000D01*
X74676000Y33401000D02*
X74519000Y33558000D01*
X74519000Y35570000D02*
X74519000Y34853000D01*
X103251000Y25888000D02*
X106319000Y25888000D01*
X74519000Y33558000D02*
X74519000Y34853000D01*
X106319000Y25888000D02*
X107569000Y24638000D01*
%TO.N,Net-(C17-Pad2)*%
X12192000Y16126000D02*
X12192000Y15503000D01*
X11430000Y13758000D02*
X12837000Y13758000D01*
X13387000Y14308000D02*
X16927000Y14308000D01*
X16927000Y14308000D02*
X18161000Y15542000D01*
X12192000Y15503000D02*
X13387000Y14308000D01*
X12837000Y13758000D02*
X13387000Y14308000D01*
%TO.N,Net-(C19-Pad1)*%
X68083682Y44031900D02*
X66624682Y45490900D01*
D70*
X74676000Y54082000D02*
X74676000Y48980218D01*
D69*
X68083682Y42706000D02*
X68083682Y44031900D01*
X64240682Y48304900D02*
X63048700Y48304900D01*
D70*
X71140000Y50546000D02*
X66212400Y50546000D01*
X74676000Y54082000D02*
X74772000Y54178000D01*
D69*
X73594882Y47899100D02*
X74234682Y48538900D01*
D70*
X74772000Y54178000D02*
X76708000Y54178000D01*
D69*
X64240682Y48304900D02*
X66624682Y45920900D01*
X63048700Y48304900D02*
X62458600Y48895000D01*
X73594882Y45744900D02*
X73594882Y47899100D01*
X72633682Y44783700D02*
X73594882Y45744900D01*
D70*
X64561400Y48895000D02*
X62458600Y48895000D01*
X74676000Y48980218D02*
X74234682Y48538900D01*
D69*
X72633682Y42706000D02*
X72633682Y44783700D01*
D70*
X66212400Y50546000D02*
X64561400Y48895000D01*
X74676000Y54082000D02*
X71140000Y50546000D01*
D69*
X66624682Y45920900D02*
X66624682Y45490900D01*
%TO.N,Net-(C20-Pad2)*%
X75819000Y34778000D02*
X76844000Y34778000D01*
X59436000Y40894000D02*
X59436000Y36068000D01*
X60542900Y42000900D02*
X59436000Y40894000D01*
X66167000Y35241000D02*
X66242000Y35316000D01*
X60395100Y35108900D02*
X62484682Y35108900D01*
X66242000Y35316000D02*
X62691782Y35316000D01*
X62691782Y35316000D02*
X62484682Y35108900D01*
X66167000Y34270000D02*
X66167000Y35241000D01*
X76844000Y34778000D02*
X76919000Y34853000D01*
X66133608Y36796200D02*
X66133608Y35424392D01*
X66133608Y35424392D02*
X66242000Y35316000D01*
X59436000Y36068000D02*
X60395100Y35108900D01*
X61976682Y42000900D02*
X60542900Y42000900D01*
%TO.N,Net-(C24-Pad1)*%
X75814482Y43768500D02*
X75899082Y43683900D01*
X73933682Y43668500D02*
X74033682Y43768500D01*
X73933682Y42706000D02*
X73933682Y43668500D01*
X74033682Y43768500D02*
X75814482Y43768500D01*
%TO.N,Net-(C24-Pad2)*%
X75523782Y42706000D02*
X75946682Y43128900D01*
X74583682Y42706000D02*
X75523782Y42706000D01*
%TO.N,Net-(C29-Pad1)*%
X145834100Y5334000D02*
X146050000Y5118100D01*
X134022000Y21336000D02*
X134620000Y20738000D01*
X158762700Y5118100D02*
X159258000Y5613400D01*
X146050000Y5118100D02*
X158762700Y5118100D01*
X135890000Y5334000D02*
X145834100Y5334000D01*
X132645000Y18763000D02*
X134620000Y20738000D01*
X130322000Y21336000D02*
X134022000Y21336000D01*
X135890000Y5334000D02*
X132645000Y8579000D01*
X132645000Y8579000D02*
X132645000Y18763000D01*
D70*
%TO.N,Net-(C30-Pad1)*%
X162306000Y75533250D02*
X171184250Y75533250D01*
D69*
X135128000Y67652000D02*
X135128000Y70338000D01*
D70*
X146939000Y76365100D02*
X140911900Y70338000D01*
X147770850Y75533250D02*
X146939000Y76365100D01*
X171184250Y75533250D02*
X171323000Y75672000D01*
X140911900Y70338000D02*
X135128000Y70338000D01*
X162306000Y75533250D02*
X147770850Y75533250D01*
D69*
%TO.N,Net-(C31-Pad2)*%
X10593000Y31037000D02*
X11306000Y31750000D01*
X10811000Y29512000D02*
X10593000Y29294000D01*
X8636000Y28236000D02*
X9535000Y28236000D01*
X10593000Y29294000D02*
X10593000Y31037000D01*
X16129000Y29512000D02*
X10811000Y29512000D01*
X9535000Y28236000D02*
X10593000Y29294000D01*
%TO.N,Net-(C32-Pad2)*%
X100076000Y13950000D02*
X102226000Y13950000D01*
X103801000Y13241000D02*
X102659000Y14383000D01*
X102226000Y13950000D02*
X102659000Y14383000D01*
X102659000Y14383000D02*
X102659000Y19121000D01*
X103801000Y10902000D02*
X103801000Y13241000D01*
X102659000Y19121000D02*
X102822000Y19284000D01*
%TO.N,Net-(C1-Pad1)*%
X54013100Y51021300D02*
X54013100Y49164200D01*
X54104500Y49072800D02*
X54104500Y46918600D01*
X51741500Y43994400D02*
X53210700Y45463600D01*
X45847000Y50018000D02*
X44413800Y48584800D01*
X54013100Y49164200D02*
X54104500Y49072800D01*
X43350500Y48584800D02*
X45478500Y46456800D01*
X54013100Y54082000D02*
X54013100Y51021300D01*
X42354500Y48584800D02*
X43350500Y48584800D01*
X54711600Y50322800D02*
X54013100Y51021300D01*
X45478500Y46456800D02*
X45478500Y45516800D01*
X56332500Y50322800D02*
X54711600Y50322800D01*
X44413800Y48584800D02*
X42354500Y48584800D01*
X47191500Y44001338D02*
X45676038Y45516800D01*
X54104500Y49072800D02*
X53159300Y50018000D01*
X45676038Y45516800D02*
X45478500Y45516800D01*
X54104500Y46918600D02*
X53210700Y46024800D01*
X51741500Y43031900D02*
X51741500Y43994400D01*
X56908500Y50898800D02*
X56332500Y50322800D01*
X53159300Y50018000D02*
X45847000Y50018000D01*
X56908500Y51358800D02*
X56908500Y50898800D01*
X47191500Y43031900D02*
X47191500Y44001338D01*
X53210700Y45463600D02*
X53210700Y46024800D01*
%TO.N,Net-(C5-Pad1)*%
X54866300Y47934600D02*
X56004500Y49072800D01*
X54866300Y46024800D02*
X54866300Y47934600D01*
X52391500Y43994400D02*
X54421900Y46024800D01*
X54421900Y46024800D02*
X54866300Y46024800D01*
X52391500Y43031900D02*
X52391500Y43994400D01*
%TO.N,Net-(C37-Pad2)*%
X34154000Y13950000D02*
X34587000Y14383000D01*
X35766000Y19284000D02*
X35766000Y15562000D01*
X32131000Y13950000D02*
X34154000Y13950000D01*
X35766000Y15562000D02*
X34587000Y14383000D01*
X34629000Y10902000D02*
X34629000Y14341000D01*
X34629000Y14341000D02*
X34587000Y14383000D01*
%TO.N,U3RX*%
X129139000Y18796000D02*
X129159000Y18776000D01*
X117729000Y11918000D02*
X119262305Y11918000D01*
X125666500Y18322195D02*
X125666500Y18796000D01*
X125666500Y18796000D02*
X129139000Y18796000D01*
X119262305Y11918000D02*
X125666500Y18322195D01*
%TO.N,Net-(C38-Pad2)*%
X46172000Y14383000D02*
X46172000Y18994000D01*
X43561000Y13950000D02*
X45739000Y13950000D01*
X46172000Y18994000D02*
X46462000Y19284000D01*
X46313000Y10902000D02*
X46313000Y14242000D01*
X45739000Y13950000D02*
X46172000Y14383000D01*
X46313000Y14242000D02*
X46172000Y14383000D01*
%TO.N,U3TX*%
X126619000Y25908000D02*
X126619000Y23348000D01*
X126619000Y23348000D02*
X124079000Y20808000D01*
X117729000Y16680500D02*
X119824500Y18776000D01*
X117729000Y15220000D02*
X117729000Y16680500D01*
X120015000Y18776000D02*
X119824500Y18776000D01*
X122047000Y20808000D02*
X120015000Y18776000D01*
X124079000Y20808000D02*
X122047000Y20808000D01*
X127889000Y27178000D02*
X126619000Y25908000D01*
%TO.N,LS_Y_OUT*%
X111379000Y28428000D02*
X116479000Y28428000D01*
X111379000Y26596299D02*
X111379000Y28428000D01*
X109761497Y25952198D02*
X110734899Y25952198D01*
X91821000Y23094000D02*
X108839000Y23094000D01*
X85900000Y12708200D02*
X85991700Y12616500D01*
X108839000Y25029701D02*
X109761497Y25952198D01*
X85900000Y19284000D02*
X85900000Y12708200D01*
X116479000Y28428000D02*
X117729000Y27178000D01*
X110734899Y25952198D02*
X111379000Y26596299D01*
X88011000Y19284000D02*
X91821000Y23094000D01*
X108839000Y23094000D02*
X108839000Y25029701D01*
X85900000Y19284000D02*
X88011000Y19284000D01*
%TO.N,Net-(D1-Pad1)*%
X135112060Y11991913D02*
X135112060Y15345940D01*
X135112060Y15345940D02*
X134620000Y15838000D01*
D73*
%TO.N,+5V*%
X139700000Y84232750D02*
X146609750Y84232750D01*
D70*
X135128000Y72878000D02*
X135128000Y74021000D01*
X135128000Y74021000D02*
X140335000Y79228000D01*
X140335000Y79228000D02*
X154868901Y79228000D01*
D73*
X146609750Y84232750D02*
X147920950Y84232750D01*
D70*
X154868901Y79228000D02*
X159919000Y84278099D01*
D73*
X147920950Y84232750D02*
X148844000Y85155800D01*
D70*
X135128000Y72878000D02*
X135128000Y79660750D01*
D69*
X146812000Y85166000D02*
X146812000Y84435000D01*
X146812000Y84435000D02*
X146609750Y84232750D01*
D70*
X135128000Y79660750D02*
X139700000Y84232750D01*
D69*
%TO.N,Net-(D2-Pad1)*%
X135128000Y63534000D02*
X135128000Y65952000D01*
%TO.N,Net-(LED1-Pad2)*%
X23711000Y29231000D02*
X25760000Y29231000D01*
X29469000Y28428000D02*
X26563000Y28428000D01*
X25760000Y29231000D02*
X26563000Y28428000D01*
%TO.N,Net-(LED1-Pad4)*%
X24006000Y26396000D02*
X23711000Y26691000D01*
X29469000Y26396000D02*
X24006000Y26396000D01*
%TO.N,LS_Z_OUT*%
X101473000Y25888000D02*
X83439000Y25888000D01*
X74216000Y19284000D02*
X74216000Y12677200D01*
X74216000Y12677200D02*
X74155300Y12616500D01*
X83439000Y25888000D02*
X76835000Y19284000D01*
X76835000Y19284000D02*
X74216000Y19284000D01*
%TO.N,LS_X_OUT*%
X109960604Y22586000D02*
X100124000Y22586000D01*
X111379000Y25126000D02*
X111379000Y24004396D01*
X100124000Y22586000D02*
X96822000Y19284000D01*
X118904000Y25813000D02*
X112066000Y25813000D01*
X120269000Y27178000D02*
X118904000Y25813000D01*
X96822000Y12664500D02*
X96774000Y12616500D01*
X111379000Y24004396D02*
X109960604Y22586000D01*
X112066000Y25813000D02*
X111379000Y25126000D01*
X96822000Y19284000D02*
X96822000Y12664500D01*
%TO.N,Net-(D3-Pad1)*%
X149122359Y24798359D02*
X149122359Y19707372D01*
X146050000Y16635013D02*
X146050000Y15201900D01*
X144957800Y16294100D02*
X144957800Y24485600D01*
X146050000Y15201900D02*
X144957800Y16294100D01*
X140813890Y20112169D02*
X145724158Y15201900D01*
X145724158Y15201900D02*
X146050000Y15201900D01*
X141554200Y24485600D02*
X140813890Y23745290D01*
X149122359Y19707372D02*
X146050000Y16635013D01*
X151638000Y27314000D02*
X149122359Y24798359D01*
X140813890Y23745290D02*
X140813890Y20112169D01*
%TO.N,/PiConnector1/Rx_Pi*%
X127889000Y15220000D02*
X121948000Y9279000D01*
X121948000Y9279000D02*
X121948000Y4806000D01*
%TO.N,/PiConnector1/Tx_Pi*%
X127889000Y7247000D02*
X125448000Y4806000D01*
X127889000Y11918000D02*
X127889000Y7247000D01*
D70*
%TO.N,Net-(D4-Pad1)*%
X144956000Y54551000D02*
X144956000Y53372611D01*
D74*
X141556000Y56091317D02*
X140718800Y56928517D01*
D70*
X141556000Y54551000D02*
X141556000Y56072070D01*
X141903104Y56419174D02*
X144348546Y56419174D01*
X144956000Y53372611D02*
X146902611Y51426000D01*
X144348546Y56419174D02*
X144956000Y55811720D01*
D69*
X143309543Y61328300D02*
X146939000Y61328300D01*
D70*
X146902611Y51426000D02*
X151638000Y51426000D01*
X144956000Y55811720D02*
X144956000Y54551000D01*
D74*
X140718800Y56928517D02*
X140718800Y58737557D01*
D69*
X141556000Y56072070D02*
X141556000Y56091317D01*
D74*
X140718800Y58737557D02*
X143309543Y61328300D01*
D70*
X141556000Y56072070D02*
X141903104Y56419174D01*
D71*
%TO.N,Net-(F1-Pad1)*%
X158922000Y41652349D02*
X158922000Y46990000D01*
X167901000Y28733300D02*
X167901000Y34793300D01*
X162052000Y21082000D02*
X167901000Y26931000D01*
X167901000Y26931000D02*
X167901000Y28733300D01*
X167901000Y34793300D02*
X165781049Y34793300D01*
X165781049Y34793300D02*
X158922000Y41652349D01*
D69*
%TO.N,Net-(IC5-Pad1)*%
X34364301Y86189591D02*
X36067779Y86189591D01*
X3860753Y89794447D02*
X6883400Y86771800D01*
X6883400Y86771800D02*
X33782092Y86771800D01*
X3860753Y94145650D02*
X3860753Y89794447D01*
X33782092Y86771800D02*
X34364301Y86189591D01*
%TO.N,Net-(IC5-Pad2)*%
X36590070Y87279800D02*
X36717779Y87152091D01*
X7670753Y94145650D02*
X7670753Y88697038D01*
X7670753Y88697038D02*
X9087991Y87279800D01*
X36717779Y86189591D02*
X36717779Y87152091D01*
X9087991Y87279800D02*
X36590070Y87279800D01*
%TO.N,Net-(R20-Pad1)*%
X8636000Y43138000D02*
X5028000Y43138000D01*
X5028000Y43138000D02*
X4826000Y43340000D01*
%TO.N,Net-(R23-Pad1)*%
X4826000Y59850000D02*
X8584000Y59850000D01*
X8584000Y59850000D02*
X8636000Y59902000D01*
%TO.N,Net-(IC5-Pad3)*%
X36398166Y84354715D02*
X37367779Y85324328D01*
X37367779Y85324328D02*
X37367779Y86189591D01*
X36398166Y83015576D02*
X36398166Y84354715D01*
%TO.N,Net-(IC5-Pad4)*%
X11480753Y88475592D02*
X12239890Y87716455D01*
X12239890Y87716455D02*
X37478415Y87716455D01*
X11480753Y88475592D02*
X11480753Y94145650D01*
X37478415Y87716455D02*
X38017779Y87177091D01*
X38017779Y86189591D02*
X38017779Y87177091D01*
%TO.N,Net-(IC5-Pad5)*%
X38667779Y87163487D02*
X37868533Y87962733D01*
X38667779Y86189591D02*
X38667779Y87163487D01*
X15290753Y94145650D02*
X15290753Y89032447D01*
X37714811Y88116455D02*
X37868533Y87962733D01*
X34494745Y88116455D02*
X37714811Y88116455D01*
X15290753Y89032447D02*
X16027400Y88295800D01*
X34315400Y88295800D02*
X34494745Y88116455D01*
X16027400Y88295800D02*
X34315400Y88295800D01*
%TO.N,DEMUX_S2*%
X40617779Y92065591D02*
X40617779Y89025418D01*
X40617779Y89025418D02*
X40878736Y88764461D01*
X41483412Y88764461D02*
X41747016Y88500857D01*
X42751848Y87496025D02*
X42751848Y85371152D01*
X42751848Y85371152D02*
X43053000Y85070000D01*
X41747016Y88500857D02*
X42751848Y87496025D01*
X40878736Y88764461D02*
X41483412Y88764461D01*
%TO.N,DEMUX_S1*%
X42301848Y87309629D02*
X42301848Y84551152D01*
X39967779Y92065591D02*
X39967779Y88618911D01*
X41297016Y88314461D02*
X42301848Y87309629D01*
X40272229Y88314461D02*
X41297016Y88314461D01*
X39967779Y88618911D02*
X40272229Y88314461D01*
X42301848Y84551152D02*
X43053000Y83800000D01*
%TO.N,DEMUX_S0*%
X39317779Y92065591D02*
X39317779Y88364031D01*
X41851848Y87123233D02*
X41851848Y83477152D01*
X39317779Y88364031D02*
X39817349Y87864461D01*
X41851848Y83477152D02*
X42545000Y82784000D01*
X39817349Y87864461D02*
X41110620Y87864461D01*
X41110620Y87864461D02*
X41851848Y87123233D01*
%TO.N,LED_R*%
X38989000Y25888000D02*
X36449000Y28428000D01*
X46609000Y24638000D02*
X45359000Y25888000D01*
X36449000Y28428000D02*
X31369000Y28428000D01*
X45359000Y25888000D02*
X38989000Y25888000D01*
%TO.N,Net-(IC5-Pad12)*%
X22871253Y96383150D02*
X20633753Y94145650D01*
X22947453Y96459350D02*
X22871253Y96383150D01*
X38667779Y92065591D02*
X38667779Y93053091D01*
X38667779Y93053091D02*
X35261520Y96459350D01*
X35261520Y96459350D02*
X22947453Y96459350D01*
%TO.N,Net-(IC5-Pad13)*%
X38017779Y92065591D02*
X38017779Y93053091D01*
X35061520Y96009350D02*
X26307453Y96009350D01*
X26307453Y96009350D02*
X26231253Y95933150D01*
X38017779Y93053091D02*
X35061520Y96009350D01*
X26231253Y95933150D02*
X24443753Y94145650D01*
%TO.N,Net-(IC5-Pad14)*%
X34861520Y95559350D02*
X29667453Y95559350D01*
X29667453Y95559350D02*
X29591253Y95483150D01*
X29591253Y95483150D02*
X28253753Y94145650D01*
X37367779Y93053091D02*
X34861520Y95559350D01*
X37367779Y92065591D02*
X37367779Y93053091D01*
%TO.N,LED_B*%
X45434000Y27474701D02*
X45434000Y26691299D01*
X43998101Y28910600D02*
X45434000Y27474701D01*
X45434000Y26691299D02*
X46237299Y25888000D01*
X33040000Y30714000D02*
X34843400Y28910600D01*
X47899000Y25888000D02*
X49149000Y24638000D01*
X31369000Y30714000D02*
X33040000Y30714000D01*
X34843400Y28910600D02*
X43998101Y28910600D01*
X46237299Y25888000D02*
X47899000Y25888000D01*
%TO.N,LED_G*%
X42779000Y23348000D02*
X40182800Y23348000D01*
X44069000Y24638000D02*
X42779000Y23348000D01*
X36626800Y26904000D02*
X31877000Y26904000D01*
X31877000Y26904000D02*
X31369000Y26396000D01*
X40182800Y23348000D02*
X36626800Y26904000D01*
%TO.N,Net-(IC5-Pad15)*%
X35549020Y94221850D02*
X31657353Y94221850D01*
X36717779Y92065591D02*
X36717779Y93053091D01*
X36717779Y93053091D02*
X35549020Y94221850D01*
%TO.N,Net-(IC6-Pad1)*%
X111116312Y89125312D02*
X93602463Y89125312D01*
X92147463Y86499312D02*
X92147463Y87648312D01*
X92147463Y87648312D02*
X92136463Y87659312D01*
X93602463Y89125312D02*
X92136463Y87659312D01*
X125747651Y94338812D02*
X116329812Y94338812D01*
X116329812Y94338812D02*
X111116312Y89125312D01*
X128975463Y91111000D02*
X125747651Y94338812D01*
%TO.N,Net-(IC6-Pad2)*%
X92797463Y87461812D02*
X92797463Y86499312D01*
X111428312Y88675312D02*
X94010963Y88675312D01*
X125165463Y91111000D02*
X122387651Y93888812D01*
X116641812Y93888812D02*
X111428312Y88675312D01*
X94010963Y88675312D02*
X92797463Y87461812D01*
X122387651Y93888812D02*
X116641812Y93888812D01*
%TO.N,Net-(IC6-Pad3)*%
X93447463Y86499312D02*
X93447463Y84840312D01*
X93447463Y84840312D02*
X92390463Y83783312D01*
%TO.N,Net-(IC6-Pad4)*%
X116953812Y93438812D02*
X111682312Y88167312D01*
X94777963Y88167312D02*
X94097463Y87486812D01*
X121355463Y91111000D02*
X119027651Y93438812D01*
X94097463Y86499312D02*
X94097463Y87486812D01*
X119027651Y93438812D02*
X116953812Y93438812D01*
X111682312Y88167312D02*
X94777963Y88167312D01*
%TO.N,Net-(IC6-Pad5)*%
X113103463Y87659312D02*
X94944963Y87659312D01*
X94944963Y87659312D02*
X94747463Y87461812D01*
X117545463Y91111000D02*
X116555151Y91111000D01*
X116555151Y91111000D02*
X113103463Y87659312D01*
X94747463Y87461812D02*
X94747463Y86499312D01*
%TO.N,MUX_S2*%
X110617000Y75926000D02*
X110617000Y72390000D01*
X109855000Y85070000D02*
X109855000Y86340000D01*
X98425000Y90658000D02*
X103251000Y90658000D01*
X96697463Y92375312D02*
X98414775Y90658000D01*
X110617000Y81006000D02*
X110617000Y84308000D01*
X110617000Y84308000D02*
X109855000Y85070000D01*
X110617000Y72390000D02*
X112649000Y70358000D01*
X98414775Y90658000D02*
X98425000Y90658000D01*
X103251000Y90658000D02*
X109855000Y90658000D01*
%TO.N,MUX_S1*%
X106807000Y84562000D02*
X106807000Y81006000D01*
X106807000Y75926000D02*
X106807000Y73660000D01*
X96047463Y91511537D02*
X97663000Y89896000D01*
X96047463Y92375312D02*
X96047463Y91511537D01*
X106807000Y73660000D02*
X110109000Y70358000D01*
X106299000Y85070000D02*
X106807000Y84562000D01*
X97663000Y89896000D02*
X106299000Y89896000D01*
X106299000Y85832000D02*
X106299000Y85070000D01*
%TO.N,MUX_S0*%
X102997000Y75926000D02*
X102997000Y74930000D01*
X102997000Y85832000D02*
X102997000Y81006000D01*
X102997000Y74930000D02*
X107569000Y70358000D01*
X95397463Y90891537D02*
X96139000Y90150000D01*
X95397463Y92375312D02*
X95397463Y90891537D01*
%TO.N,Net-(IC6-Pad12)*%
X94747463Y93362812D02*
X94747463Y92375312D01*
X100264463Y92511000D02*
X98512151Y94263312D01*
X98512151Y94263312D02*
X95647963Y94263312D01*
X95647963Y94263312D02*
X94747463Y93362812D01*
%TO.N,Net-(IC6-Pad13)*%
X104074463Y92511000D02*
X101306151Y95279312D01*
X94097463Y93137312D02*
X94097463Y94124812D01*
X94097463Y94124812D02*
X95251963Y95279312D01*
X101306151Y95279312D02*
X95251963Y95279312D01*
%TO.N,Net-(IC6-Pad14)*%
X93447463Y94111208D02*
X95074255Y95738000D01*
X93447463Y93137312D02*
X93447463Y94111208D01*
X104657463Y95738000D02*
X107884463Y92511000D01*
X95074255Y95738000D02*
X104657463Y95738000D01*
%TO.N,Net-(IC6-Pad15)*%
X111694463Y92511000D02*
X108017463Y96188000D01*
X92797463Y94097604D02*
X92797463Y92375312D01*
X94887859Y96188000D02*
X92797463Y94097604D01*
X108017463Y96188000D02*
X94887859Y96188000D01*
%TO.N,MAG_IN2*%
X132461000Y80752000D02*
X132461000Y78212000D01*
X132461000Y78212000D02*
X129921000Y75672000D01*
X129921000Y75672000D02*
X123043000Y75672000D01*
X146312000Y82665000D02*
X145923000Y82276000D01*
X146312000Y83490000D02*
X146312000Y82665000D01*
X123043000Y75672000D02*
X117729000Y70358000D01*
%TO.N,MAG_IN1*%
X125075000Y75164000D02*
X120269000Y70358000D01*
X133731000Y78720000D02*
X130175000Y75164000D01*
X146812000Y83490000D02*
X146812000Y82952500D01*
X146812000Y82952500D02*
X146812000Y82149000D01*
X146812000Y82149000D02*
X146939000Y82022000D01*
X133731000Y79990000D02*
X133731000Y78720000D01*
X130175000Y75164000D02*
X125075000Y75164000D01*
%TO.N,/Electromagnet1/OUT2*%
X147387000Y86377924D02*
X147387000Y85166000D01*
X151395076Y90386000D02*
X147387000Y86377924D01*
X152880000Y90386000D02*
X151395076Y90386000D01*
%TO.N,/Electromagnet1/OUT1*%
X146312000Y87318000D02*
X149380000Y90386000D01*
X146312000Y85166000D02*
X146312000Y87318000D01*
%TO.N,MUX_OUT*%
X100711000Y67818000D02*
X105029000Y67818000D01*
X94869000Y73660000D02*
X100711000Y67818000D01*
%TO.N,Net-(J7-Pad2)*%
X92498000Y5892000D02*
X92498000Y10902000D01*
X91412000Y4806000D02*
X92498000Y5892000D01*
%TO.N,Net-(J9-Pad2)*%
X114018000Y4806000D02*
X114624000Y5412000D01*
X114624000Y5412000D02*
X114624000Y10902000D01*
%TO.N,CAPTURE_OUT*%
X108077000Y19233000D02*
X108026000Y19284000D01*
X108026000Y19284000D02*
X108026000Y20015000D01*
X108026000Y20015000D02*
X112649000Y24638000D01*
X108077000Y12616500D02*
X108077000Y19233000D01*
%TO.N,Net-(J8-Pad2)*%
X80814000Y10902000D02*
X80814000Y5638000D01*
X80814000Y5638000D02*
X79982000Y4806000D01*
%TO.N,FP_1_OUT*%
X51892000Y19284000D02*
X54737000Y19284000D01*
X51892000Y19284000D02*
X51892000Y12819500D01*
X54737000Y19284000D02*
X57277000Y21824000D01*
X89789000Y44176000D02*
X89789000Y55098000D01*
X68090514Y21824000D02*
X72929800Y26663286D01*
X72929800Y26663286D02*
X72929800Y27316800D01*
X51892000Y12819500D02*
X51689000Y12616500D01*
X57277000Y21824000D02*
X68090514Y21824000D01*
X72929800Y27316800D02*
X89789000Y44176000D01*
%TO.N,FP_2_OUT*%
X45593000Y21570000D02*
X56386604Y21570000D01*
X43307000Y19284000D02*
X45593000Y21570000D01*
X56386604Y21570000D02*
X57090604Y22274000D01*
X88519000Y43471686D02*
X88519000Y55098000D01*
X40668000Y12616500D02*
X40668000Y19078000D01*
X57090604Y22274000D02*
X67974828Y22274000D01*
X72529800Y27482486D02*
X88519000Y43471686D01*
X67974828Y22274000D02*
X72529800Y26828972D01*
X40462000Y19284000D02*
X43307000Y19284000D01*
X72529800Y26828972D02*
X72529800Y27482486D01*
X40668000Y19078000D02*
X40462000Y19284000D01*
%TO.N,FP_3_OUT*%
X73329800Y26497600D02*
X73329800Y26954800D01*
X73329800Y26954800D02*
X91059000Y44684000D01*
X63020000Y19177000D02*
X62913000Y19284000D01*
X66116200Y19284000D02*
X73329800Y26497600D01*
X62913000Y19284000D02*
X66116200Y19284000D01*
X91059000Y44684000D02*
X91059000Y55098000D01*
X63020000Y12616500D02*
X63020000Y19177000D01*
%TO.N,Net-(J17-Pad1)*%
X117545463Y79356641D02*
X116400822Y78212000D01*
X117545463Y82921000D02*
X117545463Y79356641D01*
%TO.N,Net-(J17-Pad2)*%
X121355463Y79388040D02*
X120179423Y78212000D01*
X121355463Y82921000D02*
X121355463Y79388040D01*
%TO.N,Net-(J17-Pad3)*%
X125165463Y82921000D02*
X125165463Y79311943D01*
X125165463Y79311943D02*
X124065520Y78212000D01*
%TO.N,Net-(J17-Pad4)*%
X128975463Y82921000D02*
X128975463Y79190786D01*
X128975463Y79190786D02*
X127996677Y78212000D01*
%TO.N,Net-(JP3-Pad2)*%
X93756000Y18024000D02*
X94234000Y18502000D01*
X93756000Y14383000D02*
X93756000Y18024000D01*
%TO.N,Net-(JP4-Pad2)*%
X13158000Y42896000D02*
X13188000Y42926000D01*
X10593000Y42896000D02*
X13158000Y42896000D01*
%TO.N,Net-(JP5-Pad2)*%
X10593000Y59406000D02*
X13158000Y59406000D01*
X13158000Y59406000D02*
X13188000Y59436000D01*
%TO.N,Net-(JP6-Pad2)*%
X81818000Y14383000D02*
X81818000Y17770000D01*
X81818000Y17770000D02*
X82550000Y18502000D01*
%TO.N,COLOR_OUT*%
X51689000Y24638000D02*
X49521000Y22470000D01*
X44643208Y21893000D02*
X18512000Y21893000D01*
X18512000Y21893000D02*
X18161000Y21542000D01*
X45220208Y22470000D02*
X44643208Y21893000D01*
X13144500Y21082000D02*
X17701000Y21082000D01*
X17701000Y21082000D02*
X18161000Y21542000D01*
X49521000Y22470000D02*
X45220208Y22470000D01*
%TO.N,NEXT_TURN_OUT*%
X54229000Y22332000D02*
X53917000Y22020000D01*
X29337000Y12616500D02*
X29337000Y18855000D01*
X53917000Y22020000D02*
X45406604Y22020000D01*
X34290000Y21443000D02*
X32131000Y19284000D01*
X29337000Y18855000D02*
X29766000Y19284000D01*
X45406604Y22020000D02*
X44829604Y21443000D01*
X32131000Y19284000D02*
X29766000Y19284000D01*
X44829604Y21443000D02*
X34290000Y21443000D01*
X54229000Y24638000D02*
X54229000Y22332000D01*
%TO.N,Net-(JP12-Pad2)*%
X10593000Y26894000D02*
X13158000Y26894000D01*
X13158000Y26894000D02*
X13188000Y26924000D01*
%TO.N,Net-(LED1-Pad1)*%
X24724000Y30714000D02*
X24511000Y30501000D01*
X29469000Y30714000D02*
X24724000Y30714000D01*
%TO.N,Net-(J11-Pad2)*%
X102588000Y4806000D02*
X102588000Y10789000D01*
X102588000Y10789000D02*
X102701000Y10902000D01*
%TO.N,Net-(JP13-Pad2)*%
X105059000Y18405000D02*
X105156000Y18502000D01*
X105059000Y14383000D02*
X105059000Y18405000D01*
%TO.N,Net-(JP14-Pad2)*%
X22225000Y27158000D02*
X22225000Y25614000D01*
X22225000Y25614000D02*
X24491000Y23348000D01*
X23028000Y27961000D02*
X24511000Y27961000D01*
X22225000Y27158000D02*
X23028000Y27961000D01*
%TO.N,Net-(J18-Pad1)*%
X21417992Y84691114D02*
X21417992Y81814932D01*
X21417992Y81814932D02*
X19878516Y80275456D01*
%TO.N,Net-(J18-Pad2)*%
X25227992Y81581235D02*
X23922213Y80275456D01*
X25227992Y84691114D02*
X25227992Y81581235D01*
%TO.N,Net-(J18-Pad3)*%
X29037992Y84691114D02*
X29037992Y81602034D01*
X29037992Y81602034D02*
X27711414Y80275456D01*
%TO.N,Net-(J18-Pad4)*%
X32847992Y84691114D02*
X32847992Y81418659D01*
X32847992Y81418659D02*
X31704789Y80275456D01*
%TO.N,Net-(J19-Pad1)*%
X101044463Y82921000D02*
X101044463Y79596496D01*
X101044463Y79596496D02*
X99659967Y78212000D01*
%TO.N,Net-(J19-Pad2)*%
X104854463Y79622102D02*
X103444361Y78212000D01*
X104854463Y82921000D02*
X104854463Y79622102D01*
%TO.N,Net-(J19-Pad3)*%
X108664463Y79584000D02*
X107292463Y78212000D01*
X108664463Y82921000D02*
X108664463Y79584000D01*
%TO.N,Net-(J19-Pad4)*%
X112474463Y79571852D02*
X111114611Y78212000D01*
X112474463Y82921000D02*
X112474463Y79571852D01*
%TO.N,Net-(C11-Pad1)*%
X111802522Y47077612D02*
X113702722Y48977812D01*
X109228000Y43468000D02*
X109228000Y44308694D01*
X111040522Y45421812D02*
X111802522Y46183812D01*
X110341118Y45421812D02*
X111040522Y45421812D01*
X111802522Y46183812D02*
X111802522Y47077612D01*
X109228000Y44308694D02*
X110341118Y45421812D01*
%TO.N,Net-(J20-Pad2)*%
X35729000Y5257000D02*
X35278000Y4806000D01*
X35729000Y10902000D02*
X35729000Y5257000D01*
%TO.N,Net-(C23-Pad1)*%
X73283682Y42706000D02*
X73283682Y43778100D01*
X75250482Y45744900D02*
X75250482Y47654700D01*
X75250482Y47654700D02*
X76134682Y48538900D01*
X73283682Y43778100D02*
X75250482Y45744900D01*
%TO.N,Net-(C39-Pad2)*%
X68312000Y14341000D02*
X68270000Y14383000D01*
X68270000Y14383000D02*
X68270000Y18641000D01*
X68312000Y10902000D02*
X68312000Y14341000D01*
X67837000Y13950000D02*
X68270000Y14383000D01*
X65814000Y13950000D02*
X67837000Y13950000D01*
X68270000Y18641000D02*
X68913000Y19284000D01*
%TO.N,Net-(J21-Pad2)*%
X47413000Y5765000D02*
X47413000Y10902000D01*
X46454000Y4806000D02*
X47413000Y5765000D01*
%TO.N,Net-(J22-Pad2)*%
X69412000Y5384000D02*
X69412000Y10902000D01*
X68834000Y4806000D02*
X69412000Y5384000D01*
%TO.N,Net-(J23-Pad2)*%
X57678000Y4806000D02*
X58998000Y6126000D01*
X58998000Y6126000D02*
X58998000Y10902000D01*
%TO.N,Net-(C40-Pad2)*%
X57014000Y13950000D02*
X57447000Y14383000D01*
X57447000Y14383000D02*
X57447000Y18839000D01*
X54991000Y13950000D02*
X57014000Y13950000D01*
X57898000Y13932000D02*
X57447000Y14383000D01*
X57447000Y18839000D02*
X57892000Y19284000D01*
X57898000Y10902000D02*
X57898000Y13932000D01*
%TO.N,Net-(JP7-Pad2)*%
X15083000Y11908000D02*
X15601000Y12426000D01*
X13387000Y11908000D02*
X15083000Y11908000D01*
%TO.N,Net-(JP8-Pad2)*%
X115628000Y14383000D02*
X115628000Y17516000D01*
X115628000Y17516000D02*
X116614000Y18502000D01*
%TO.N,Net-(JP15-Pad2)*%
X36398166Y81115576D02*
X36812576Y81115576D01*
X37719000Y82022000D02*
X40090634Y82022000D01*
X40090634Y82022000D02*
X40643967Y81468667D01*
X36398166Y79411166D02*
X31135000Y74148000D01*
X36398166Y79411166D02*
X36398166Y81115576D01*
X36812576Y81115576D02*
X37719000Y82022000D01*
%TO.N,Net-(JP16-Pad2)*%
X94881700Y76212700D02*
X94869000Y76200000D01*
X94881700Y82301400D02*
X94881700Y76212700D01*
X94463612Y81883312D02*
X94881700Y82301400D01*
X92390463Y81883312D02*
X94463612Y81883312D01*
%TO.N,Net-(JP17-Pad2)*%
X38227000Y15623000D02*
X36987000Y14383000D01*
X38227000Y17232000D02*
X38227000Y15623000D01*
%TO.N,Net-(JP18-Pad2)*%
X48572000Y14383000D02*
X48572000Y16655000D01*
X48572000Y16655000D02*
X49403000Y17486000D01*
%TO.N,Net-(JP19-Pad2)*%
X70670000Y17925000D02*
X71247000Y18502000D01*
X70670000Y14383000D02*
X70670000Y17925000D01*
%TO.N,Net-(JP20-Pad2)*%
X59847000Y14383000D02*
X59847000Y16500000D01*
X59847000Y16500000D02*
X60579000Y17232000D01*
%TO.N,Net-(R29-Pad1)*%
X11430000Y12658000D02*
X10880000Y12658000D01*
X8458200Y15079800D02*
X8458200Y16764000D01*
X10880000Y12658000D02*
X8458200Y15079800D01*
%TO.N,Net-(R44-Pad1)*%
X4878000Y27136000D02*
X4826000Y27084000D01*
X8636000Y27136000D02*
X4878000Y27136000D01*
%TO.N,XY_MS2*%
X73283733Y36796200D02*
X73283733Y35789267D01*
X52391551Y37122100D02*
X52391551Y31687849D01*
X68399592Y27178000D02*
X64389000Y27178000D01*
X73533000Y35540000D02*
X73533000Y32311408D01*
X73533000Y32311408D02*
X68399592Y27178000D01*
X53365400Y30714000D02*
X60853000Y30714000D01*
X60853000Y30714000D02*
X64389000Y27178000D01*
X73283733Y35789267D02*
X73533000Y35540000D01*
X52391551Y31687849D02*
X53365400Y30714000D01*
%TO.N,XY_MS1*%
X73025000Y32439804D02*
X73025000Y35160396D01*
X51741540Y31398060D02*
X52933600Y30206000D01*
X73025000Y35160396D02*
X72633722Y35551674D01*
X58821000Y30206000D02*
X61849000Y27178000D01*
X52933600Y30206000D02*
X58821000Y30206000D01*
X51741540Y37122100D02*
X51741540Y31398060D01*
X72633722Y35551674D02*
X72633722Y36796200D01*
X66090800Y29444000D02*
X70029196Y29444000D01*
X70029196Y29444000D02*
X73025000Y32439804D01*
%TO.N,XY_MS0*%
X71424800Y31476000D02*
X63373000Y31476000D01*
X57003000Y29464000D02*
X57023000Y29464000D01*
X52552600Y29698000D02*
X56769000Y29698000D01*
X57023000Y29464000D02*
X59309000Y27178000D01*
X51091528Y37122100D02*
X51091528Y31159072D01*
X71983710Y35565290D02*
X72517000Y35032000D01*
X51091528Y31159072D02*
X52552600Y29698000D01*
X72517000Y32568200D02*
X71424800Y31476000D01*
X56769000Y29698000D02*
X57003000Y29464000D01*
X71983710Y36796200D02*
X71983710Y35565290D01*
X72517000Y35032000D02*
X72517000Y32568200D01*
%TO.N,Z_MS2*%
X114935000Y54844000D02*
X114681000Y55098000D01*
X109228051Y37558200D02*
X109228051Y34896949D01*
X109228051Y34896949D02*
X109855000Y34270000D01*
X115305000Y54474000D02*
X114935000Y54844000D01*
X109855000Y34270000D02*
X113157000Y34270000D01*
X114681000Y55098000D02*
X114427000Y55098000D01*
X113157000Y34270000D02*
X115305000Y36418000D01*
X115305000Y36418000D02*
X115305000Y54336000D01*
X115305000Y54336000D02*
X115305000Y54474000D01*
%TO.N,Z_MS1*%
X108578040Y35915294D02*
X108578040Y34910564D01*
X113343396Y33820000D02*
X115755000Y36231604D01*
X109668604Y33820000D02*
X113343396Y33820000D01*
X108578040Y34910564D02*
X109668604Y33820000D01*
X115755000Y36231604D02*
X115755000Y55098000D01*
X108578040Y37558200D02*
X108578040Y35915294D01*
%TO.N,Z_MS0*%
X109598208Y33254000D02*
X113919000Y33254000D01*
X116205000Y35540000D02*
X116205000Y54336000D01*
X116967000Y55098000D02*
X117221000Y55098000D01*
X116586000Y54717000D02*
X116967000Y55098000D01*
X116205000Y54336000D02*
X116586000Y54717000D01*
X107928028Y34924180D02*
X109598208Y33254000D01*
X107928028Y37558200D02*
X107928028Y34924180D01*
X113919000Y33254000D02*
X116205000Y35540000D01*
%TO.N,Net-(J16-Pad1)*%
X4675788Y83773617D02*
X5504400Y84602229D01*
X4640753Y81104068D02*
X3812141Y80275456D01*
X4640753Y84691114D02*
X4640753Y81104068D01*
%TO.N,Net-(J16-Pad2)*%
X8450753Y81130456D02*
X7595753Y80275456D01*
X8459400Y83747229D02*
X9314400Y84602229D01*
X8450753Y84691114D02*
X8450753Y81130456D01*
%TO.N,Net-(J16-Pad3)*%
X12260753Y80937984D02*
X11598225Y80275456D01*
X12260753Y84691114D02*
X12260753Y80937984D01*
%TO.N,Net-(J16-Pad4)*%
X16070753Y80774305D02*
X15571904Y80275456D01*
X16070753Y84691114D02*
X16070753Y80774305D01*
%TD*%
M02*
