M48
; DRILL file {KiCad (6.0.8)} date Sun Nov 13 00:22:18 2022
; FORMAT={-:-/ absolute / metric / decimal}
; #@! TF.CreationDate,2022-11-13T00:22:18-05:00
; #@! TF.GenerationSoftware,Kicad,Pcbnew,(6.0.8)
; #@! TF.FileFunction,MixedPlating,1,2
FMAT,2
METRIC
; #@! TA.AperFunction,Plated,PTH,ViaDrill
T1C0.400
; #@! TA.AperFunction,Plated,PTH,ViaDrill
T2C0.457
; #@! TA.AperFunction,Plated,PTH,ViaDrill
T3C0.500
; #@! TA.AperFunction,Plated,PTH,ViaDrill
T4C0.635
; #@! TA.AperFunction,Plated,PTH,ComponentDrill
T5C0.686
; #@! TA.AperFunction,Plated,PTH,ViaDrill
T6C0.762
; #@! TA.AperFunction,Plated,PTH,ComponentDrill
T7C0.800
; #@! TA.AperFunction,Plated,PTH,ComponentDrill
T8C0.910
; #@! TA.AperFunction,Plated,PTH,ComponentDrill
T9C0.914
; #@! TA.AperFunction,Plated,PTH,ViaDrill
T10C1.000
; #@! TA.AperFunction,Plated,PTH,ComponentDrill
T11C1.000
; #@! TA.AperFunction,Plated,PTH,ComponentDrill
T12C1.016
; #@! TA.AperFunction,Plated,PTH,ComponentDrill
T13C1.200
; #@! TA.AperFunction,Plated,PTH,ComponentDrill
T14C1.350
; #@! TA.AperFunction,Plated,PTH,ComponentDrill
T15C1.400
; #@! TA.AperFunction,Plated,PTH,ComponentDrill
T16C1.600
; #@! TA.AperFunction,Plated,PTH,ComponentDrill
T17C2.261
; #@! TA.AperFunction,Plated,PTH,ComponentDrill
T18C2.710
; #@! TA.AperFunction,Plated,PTH,ComponentDrill
T19C2.890
; #@! TA.AperFunction,Plated,PTH,ComponentDrill
T20C3.360
; #@! TA.AperFunction,NonPlated,NPTH,ComponentDrill
T21C1.700
%
G90
G05
T1
X26.289Y69.088
X31.623Y67.823
X31.623Y66.299
X33.401Y78.06
X36.538Y24.473
X41.783Y37.851
X45.009Y33.051
X45.263Y79.35
X46.609Y80.543
X47.447Y30.734
X47.981Y81.712
X48.37Y32.817
X50.265Y29.615
X55.245Y33.279
X57.785Y34.794
X59.563Y60.782
X59.563Y55.27
X60.985Y55.194
X61.163Y60.757
X62.611Y37.089
X64.389Y32.263
X64.897Y29.896
X66.167Y34.295
X66.904Y28.778
X67.132Y26.167
X67.564Y61.239
X67.564Y59.411
X68.006Y33.289
X68.335Y24.248
X69.317Y59.385
X69.342Y86.055
X69.342Y84.252
X69.342Y61.239
X69.469Y32.771
X70.485Y30.734
X70.891Y88.189
X70.891Y86.487
X70.891Y61.239
X70.891Y59.385
X71.145Y27.183
X71.501Y32.207
X72.39Y61.239
X72.415Y59.36
X74.524Y32.817
X75.819Y34.803
X78.575Y68.415
X80.95Y63.297
X86.309Y85.827
X86.309Y83.82
X87.503Y87.528
X87.503Y85.877
X88.519Y53.518
X90.322Y53.645
X92.278Y88.57
X92.304Y53.797
X94.259Y84.074
X97.815Y81.382
X98.069Y74.585
X98.679Y38.867
X99.289Y59.766
X100.584Y28.58
X100.889Y66.116
X101.473Y25.913
X102.235Y34.549
X104.328Y35.382
X104.851Y31.247
X106.147Y74.981
X106.502Y33.025
X109.322Y30.46
X110.333Y35.64
X111.658Y30.46
X113.716Y55.22
X114.312Y36.691
X115.755Y55.123
X118.389Y55.169
X121.535Y29.333
X122.809Y17.399
X129.057Y17.399
X132.774Y73.465
T2
X33.807Y58.369
X34.9Y57.277
X35.382Y59.614
X36.703Y58.293
X38.837Y62.738
X39.98Y61.595
X40.005Y54.178
X41.961Y54.178
X46.228Y46.38
X48.704Y46.558
X49.719Y45.979
X51.752Y46.558
X67.589Y46.939
X69.342Y46.939
X70.684Y46.858
X72.438Y46.965
X93.98Y60.985
X95.402Y59.512
X95.504Y61.239
X97.18Y59.715
X97.79Y61.239
X99.568Y61.239
X101.117Y59.792
X103.482Y46.584
X105.38Y47.196
X106.542Y47.083
X108.651Y46.717
X147.142Y21.26
X147.25Y10.649
T3
X35.585Y84.506
X38.075Y89.738
X42.57Y82.956
T4
X155.346Y80.289
T5
X50.114Y62.205
X50.241Y58.674
X55.194Y62.205
X55.321Y58.674
X57.48Y47.269
X57.48Y42.189
X77.927Y54.254
X78.765Y50.724
X82.525Y47.93
X82.525Y42.85
X83.007Y54.254
X83.845Y50.724
X105.41Y61.798
X110.49Y61.798
X113.817Y44.831
X113.817Y39.751
X114.046Y61.747
X119.126Y61.747
T6
X128.417Y57.602
X164.49Y80.035
T7
X13.188Y59.461
X13.188Y42.951
X13.188Y26.949
X15.728Y59.461
X15.728Y42.951
X15.728Y26.949
X16.388Y12.451
X18.928Y12.451
X24.491Y23.373
X27.031Y23.373
X28.595Y74.173
X31.135Y74.173
X34.849Y30.785
X38.633Y19.797
X38.633Y17.257
X42.355Y51.11
X42.355Y48.61
X45.009Y30.785
X49.403Y20.051
X49.403Y17.511
X54.077Y55.143
X56.617Y55.143
X60.579Y19.797
X60.579Y17.257
X62.509Y52.228
X62.509Y49.728
X71.247Y21.067
X71.247Y18.527
X74.676Y57.155
X74.676Y54.615
X76.86Y61.163
X82.55Y21.067
X82.55Y18.527
X83.82Y35.001
X87.02Y61.163
X93.497Y49.936
X93.497Y39.776
X93.98Y35.001
X94.234Y21.067
X94.234Y18.527
X96.469Y68.504
X99.009Y68.504
X99.06Y52.863
X99.06Y50.363
X105.156Y21.067
X105.156Y18.527
X111.506Y56.647
X111.506Y54.107
X116.614Y21.067
X116.614Y18.527
X118.77Y15.265
X118.77Y11.963
X127.782Y21.361
X128.93Y15.265
X128.93Y11.963
X130.322Y21.361
X132.232Y27.183
X132.232Y24.643
X135.026Y64.307
X135.026Y61.767
X139.588Y16.586
X142.088Y16.586
X155.62Y54.381
X158.12Y54.381
T8
X23.317Y29.307
X23.419Y26.869
X24.994Y30.476
X25.019Y27.961
T9
X138.49Y83.998
X140.99Y83.998
X142.99Y83.998
X145.49Y83.998
T10
X22.86Y54.412
X22.86Y48.418
X22.86Y42.5
X25.603Y45.548
X25.654Y51.542
X28.499Y54.412
X28.499Y48.418
X28.499Y42.5
X31.267Y51.542
X31.267Y45.548
X34.163Y54.412
X34.163Y48.418
X34.163Y42.5
X45.072Y40.157
X49.568Y40.157
X53.759Y40.157
X65.964Y39.7
X70.46Y39.7
X74.651Y39.7
X102.186Y40.644
X106.225Y40.644
X110.873Y40.644
X119.71Y51.212
X119.71Y45.217
X119.71Y39.299
X122.453Y42.347
X122.504Y48.342
X125.349Y51.212
X125.349Y45.217
X125.349Y39.299
X128.118Y48.342
X128.118Y42.347
X131.013Y51.212
X131.013Y45.217
X131.013Y39.299
X140.411Y48.768
X140.411Y42.85
X142.723Y36.043
X142.723Y30.124
X143.154Y45.898
X145.466Y33.172
X146.05Y48.768
X146.05Y42.85
X148.361Y36.043
X148.361Y30.124
T11
X41.529Y70.383
X41.529Y67.843
X41.529Y27.203
X41.529Y24.663
X44.069Y70.383
X44.069Y67.843
X44.069Y27.203
X44.069Y24.663
X46.609Y70.383
X46.609Y67.843
X46.609Y27.203
X46.609Y24.663
X49.149Y70.383
X49.149Y67.843
X49.149Y27.203
X49.149Y24.663
X51.689Y70.383
X51.689Y67.843
X51.689Y27.203
X51.689Y24.663
X54.229Y70.383
X54.229Y67.843
X54.229Y27.203
X54.229Y24.663
X56.769Y70.383
X56.769Y67.843
X56.769Y27.203
X56.769Y24.663
X59.309Y70.383
X59.309Y67.843
X59.309Y27.203
X59.309Y24.663
X61.849Y70.383
X61.849Y67.843
X61.849Y27.203
X61.849Y24.663
X64.389Y70.383
X64.389Y67.843
X64.389Y27.203
X64.389Y24.663
X105.029Y70.383
X105.029Y67.843
X105.029Y27.203
X105.029Y24.663
X107.569Y70.383
X107.569Y67.843
X107.569Y27.203
X107.569Y24.663
X110.109Y70.383
X110.109Y67.843
X110.109Y27.203
X110.109Y24.663
X112.649Y70.383
X112.649Y67.843
X112.649Y27.203
X112.649Y24.663
X115.189Y70.383
X115.189Y67.843
X115.189Y27.203
X115.189Y24.663
X117.729Y70.383
X117.729Y67.843
X117.729Y27.203
X117.729Y24.663
X120.269Y70.383
X120.269Y67.843
X120.269Y27.203
X120.269Y24.663
X122.809Y70.383
X122.809Y67.843
X122.809Y27.203
X122.809Y24.663
X125.349Y70.383
X125.349Y67.843
X125.349Y27.203
X125.349Y24.663
X127.889Y70.383
X127.889Y67.843
X127.889Y27.203
X127.889Y24.663
T12
X124.612Y6.629
X124.612Y4.089
X127.152Y6.629
X127.152Y4.089
X129.692Y6.629
X129.692Y4.089
X132.232Y6.629
X132.232Y4.089
X134.772Y6.629
X134.772Y4.089
T13
X4.826Y66.275
X4.826Y59.875
X4.826Y49.765
X4.826Y43.365
X4.826Y33.509
X4.826Y27.109
T14
X3.988Y94.107
X4.641Y84.717
X7.798Y94.107
X8.451Y84.717
X11.608Y94.107
X12.261Y84.717
X15.418Y94.107
X16.071Y84.717
X20.726Y93.955
X21.418Y84.717
X24.536Y93.955
X25.228Y84.717
X28.346Y93.955
X29.038Y84.717
X32.156Y93.955
X32.848Y84.717
X44.916Y92.391
X48.726Y92.391
X52.536Y92.391
X56.346Y92.391
X61.375Y92.366
X65.185Y92.366
X68.995Y92.366
X72.805Y92.366
X77.835Y92.518
X81.645Y92.518
X85.455Y92.518
X89.265Y92.518
X100.051Y93.777
X101.044Y82.946
X103.861Y93.777
X104.854Y82.946
X107.671Y93.777
X108.664Y82.946
X111.481Y93.777
X112.474Y82.946
X116.789Y93.701
X117.545Y82.946
X120.599Y93.701
X121.355Y82.946
X124.409Y93.701
X125.165Y82.946
X128.219Y93.701
X128.975Y82.946
T15
X31.778Y4.831
X35.278Y4.831
X42.954Y4.831
X46.454Y4.831
X54.178Y4.831
X57.678Y4.831
X65.334Y4.831
X68.834Y4.831
X76.482Y4.831
X76.99Y71.895
X79.982Y4.831
X80.49Y71.895
X87.912Y4.831
X91.412Y4.831
X99.088Y4.831
X102.588Y4.831
X110.518Y4.831
X114.018Y4.831
X166.268Y89.433
X169.768Y89.433
T16
X22.784Y9.855
X61.189Y79.781
X75.667Y24.638
X80.569Y30.562
X85.649Y30.282
X90.983Y30.028
X96.342Y29.749
X136.55Y78.257
X136.804Y35.839
X136.804Y29.997
X141.63Y78.003
X146.456Y5.867
X148.996Y75.463
X169.824Y52.603
X170.332Y80.543
T17
X135.42Y86.708
X148.56Y86.708
T18
X166.344Y42.697
T19
X167.344Y47.197
X167.344Y38.197
T20
X160.344Y42.697
T21
X169.344Y42.697
T0
M30
