%TF.GenerationSoftware,KiCad,Pcbnew,(6.0.9)*%
%TF.CreationDate,2022-11-21T23:05:52-05:00*%
%TF.ProjectId,Sensor_Board_2x8,53656e73-6f72-45f4-926f-6172645f3278,rev?*%
%TF.SameCoordinates,PX1728520PY19b87b58*%
%TF.FileFunction,Legend,Top*%
%TF.FilePolarity,Positive*%
%FSLAX46Y46*%
G04 Gerber Fmt 4.6, Leading zero omitted, Abs format (unit mm)*
G04 Created by KiCad (PCBNEW (6.0.9)) date 2022-11-21 23:05:52*
%MOMM*%
%LPD*%
G01*
G04 APERTURE LIST*
%TA.AperFunction,Profile*%
%ADD10C,0.200000*%
%TD*%
%ADD11C,0.254000*%
%ADD12C,0.150000*%
%ADD13C,0.100000*%
G04 APERTURE END LIST*
D10*
X0Y0D02*
X92720000Y0D01*
X92720000Y0D02*
X92720000Y406400000D01*
X92720000Y406400000D02*
X0Y406400000D01*
X0Y406400000D02*
X0Y0D01*
D11*
%TO.C,J15*%
X80574123Y180059393D02*
X81481266Y180059393D01*
X81662695Y179998917D01*
X81783647Y179877965D01*
X81844123Y179696536D01*
X81844123Y179575584D01*
X81844123Y181329393D02*
X81844123Y180603679D01*
X81844123Y180966536D02*
X80574123Y180966536D01*
X80755552Y180845584D01*
X80876504Y180724631D01*
X80936980Y180603679D01*
X80574123Y182478441D02*
X80574123Y181873679D01*
X81178885Y181813203D01*
X81118409Y181873679D01*
X81057933Y181994631D01*
X81057933Y182297012D01*
X81118409Y182417965D01*
X81178885Y182478441D01*
X81299838Y182538917D01*
X81602219Y182538917D01*
X81723171Y182478441D01*
X81783647Y182417965D01*
X81844123Y182297012D01*
X81844123Y181994631D01*
X81783647Y181873679D01*
X81723171Y181813203D01*
%TO.C,J1*%
X10556723Y369908667D02*
X11463866Y369908667D01*
X11645295Y369848191D01*
X11766247Y369727239D01*
X11826723Y369545810D01*
X11826723Y369424858D01*
X11826723Y371178667D02*
X11826723Y370452953D01*
X11826723Y370815810D02*
X10556723Y370815810D01*
X10738152Y370694858D01*
X10859104Y370573905D01*
X10919580Y370452953D01*
D12*
%TO.C,S3*%
X18970295Y268284839D02*
X19113152Y268237220D01*
X19351247Y268237220D01*
X19446485Y268284839D01*
X19494104Y268332458D01*
X19541723Y268427696D01*
X19541723Y268522934D01*
X19494104Y268618172D01*
X19446485Y268665791D01*
X19351247Y268713410D01*
X19160771Y268761029D01*
X19065533Y268808648D01*
X19017914Y268856267D01*
X18970295Y268951505D01*
X18970295Y269046743D01*
X19017914Y269141981D01*
X19065533Y269189600D01*
X19160771Y269237220D01*
X19398866Y269237220D01*
X19541723Y269189600D01*
X19875057Y269237220D02*
X20494104Y269237220D01*
X20160771Y268856267D01*
X20303628Y268856267D01*
X20398866Y268808648D01*
X20446485Y268761029D01*
X20494104Y268665791D01*
X20494104Y268427696D01*
X20446485Y268332458D01*
X20398866Y268284839D01*
X20303628Y268237220D01*
X20017914Y268237220D01*
X19922676Y268284839D01*
X19875057Y268332458D01*
%TO.C,S15*%
X66124104Y77764839D02*
X66266961Y77717220D01*
X66505057Y77717220D01*
X66600295Y77764839D01*
X66647914Y77812458D01*
X66695533Y77907696D01*
X66695533Y78002934D01*
X66647914Y78098172D01*
X66600295Y78145791D01*
X66505057Y78193410D01*
X66314580Y78241029D01*
X66219342Y78288648D01*
X66171723Y78336267D01*
X66124104Y78431505D01*
X66124104Y78526743D01*
X66171723Y78621981D01*
X66219342Y78669600D01*
X66314580Y78717220D01*
X66552676Y78717220D01*
X66695533Y78669600D01*
X67647914Y77717220D02*
X67076485Y77717220D01*
X67362200Y77717220D02*
X67362200Y78717220D01*
X67266961Y78574362D01*
X67171723Y78479124D01*
X67076485Y78431505D01*
X68552676Y78717220D02*
X68076485Y78717220D01*
X68028866Y78241029D01*
X68076485Y78288648D01*
X68171723Y78336267D01*
X68409819Y78336267D01*
X68505057Y78288648D01*
X68552676Y78241029D01*
X68600295Y78145791D01*
X68600295Y77907696D01*
X68552676Y77812458D01*
X68505057Y77764839D01*
X68409819Y77717220D01*
X68171723Y77717220D01*
X68076485Y77764839D01*
X68028866Y77812458D01*
%TO.C,S10*%
X66124104Y315914839D02*
X66266961Y315867220D01*
X66505057Y315867220D01*
X66600295Y315914839D01*
X66647914Y315962458D01*
X66695533Y316057696D01*
X66695533Y316152934D01*
X66647914Y316248172D01*
X66600295Y316295791D01*
X66505057Y316343410D01*
X66314580Y316391029D01*
X66219342Y316438648D01*
X66171723Y316486267D01*
X66124104Y316581505D01*
X66124104Y316676743D01*
X66171723Y316771981D01*
X66219342Y316819600D01*
X66314580Y316867220D01*
X66552676Y316867220D01*
X66695533Y316819600D01*
X67647914Y315867220D02*
X67076485Y315867220D01*
X67362200Y315867220D02*
X67362200Y316867220D01*
X67266961Y316724362D01*
X67171723Y316629124D01*
X67076485Y316581505D01*
X68266961Y316867220D02*
X68362200Y316867220D01*
X68457438Y316819600D01*
X68505057Y316771981D01*
X68552676Y316676743D01*
X68600295Y316486267D01*
X68600295Y316248172D01*
X68552676Y316057696D01*
X68505057Y315962458D01*
X68457438Y315914839D01*
X68362200Y315867220D01*
X68266961Y315867220D01*
X68171723Y315914839D01*
X68124104Y315962458D01*
X68076485Y316057696D01*
X68028866Y316248172D01*
X68028866Y316486267D01*
X68076485Y316676743D01*
X68124104Y316771981D01*
X68171723Y316819600D01*
X68266961Y316867220D01*
%TO.C,REF\u002A\u002A*%
X82886666Y403197620D02*
X82553333Y403673810D01*
X82315238Y403197620D02*
X82315238Y404197620D01*
X82696190Y404197620D01*
X82791428Y404150000D01*
X82839047Y404102381D01*
X82886666Y404007143D01*
X82886666Y403864286D01*
X82839047Y403769048D01*
X82791428Y403721429D01*
X82696190Y403673810D01*
X82315238Y403673810D01*
X83315238Y403721429D02*
X83648571Y403721429D01*
X83791428Y403197620D02*
X83315238Y403197620D01*
X83315238Y404197620D01*
X83791428Y404197620D01*
X84553333Y403721429D02*
X84220000Y403721429D01*
X84220000Y403197620D02*
X84220000Y404197620D01*
X84696190Y404197620D01*
X85220000Y404197620D02*
X85220000Y403959524D01*
X84981904Y404054762D02*
X85220000Y403959524D01*
X85458095Y404054762D01*
X85077142Y403769048D02*
X85220000Y403959524D01*
X85362857Y403769048D01*
X85981904Y404197620D02*
X85981904Y403959524D01*
X85743809Y404054762D02*
X85981904Y403959524D01*
X86220000Y404054762D01*
X85839047Y403769048D02*
X85981904Y403959524D01*
X86124761Y403769048D01*
%TO.C,S8*%
X18970295Y30134839D02*
X19113152Y30087220D01*
X19351247Y30087220D01*
X19446485Y30134839D01*
X19494104Y30182458D01*
X19541723Y30277696D01*
X19541723Y30372934D01*
X19494104Y30468172D01*
X19446485Y30515791D01*
X19351247Y30563410D01*
X19160771Y30611029D01*
X19065533Y30658648D01*
X19017914Y30706267D01*
X18970295Y30801505D01*
X18970295Y30896743D01*
X19017914Y30991981D01*
X19065533Y31039600D01*
X19160771Y31087220D01*
X19398866Y31087220D01*
X19541723Y31039600D01*
X20113152Y30658648D02*
X20017914Y30706267D01*
X19970295Y30753886D01*
X19922676Y30849124D01*
X19922676Y30896743D01*
X19970295Y30991981D01*
X20017914Y31039600D01*
X20113152Y31087220D01*
X20303628Y31087220D01*
X20398866Y31039600D01*
X20446485Y30991981D01*
X20494104Y30896743D01*
X20494104Y30849124D01*
X20446485Y30753886D01*
X20398866Y30706267D01*
X20303628Y30658648D01*
X20113152Y30658648D01*
X20017914Y30611029D01*
X19970295Y30563410D01*
X19922676Y30468172D01*
X19922676Y30277696D01*
X19970295Y30182458D01*
X20017914Y30134839D01*
X20113152Y30087220D01*
X20303628Y30087220D01*
X20398866Y30134839D01*
X20446485Y30182458D01*
X20494104Y30277696D01*
X20494104Y30468172D01*
X20446485Y30563410D01*
X20398866Y30611029D01*
X20303628Y30658648D01*
D11*
%TO.C,J13*%
X80574123Y274757849D02*
X81481266Y274757849D01*
X81662695Y274697373D01*
X81783647Y274576421D01*
X81844123Y274394992D01*
X81844123Y274274040D01*
X81844123Y276027849D02*
X81844123Y275302135D01*
X81844123Y275664992D02*
X80574123Y275664992D01*
X80755552Y275544040D01*
X80876504Y275423087D01*
X80936980Y275302135D01*
X80574123Y276451183D02*
X80574123Y277237373D01*
X81057933Y276814040D01*
X81057933Y276995468D01*
X81118409Y277116421D01*
X81178885Y277176897D01*
X81299838Y277237373D01*
X81602219Y277237373D01*
X81723171Y277176897D01*
X81783647Y277116421D01*
X81844123Y276995468D01*
X81844123Y276632611D01*
X81783647Y276511659D01*
X81723171Y276451183D01*
D12*
%TO.C,*%
D11*
%TO.C,J18*%
X80574123Y38011705D02*
X81481266Y38011705D01*
X81662695Y37951229D01*
X81783647Y37830277D01*
X81844123Y37648848D01*
X81844123Y37527896D01*
X81844123Y39281705D02*
X81844123Y38555991D01*
X81844123Y38918848D02*
X80574123Y38918848D01*
X80755552Y38797896D01*
X80876504Y38676943D01*
X80936980Y38555991D01*
X81118409Y40007420D02*
X81057933Y39886467D01*
X80997457Y39825991D01*
X80876504Y39765515D01*
X80816028Y39765515D01*
X80695076Y39825991D01*
X80634600Y39886467D01*
X80574123Y40007420D01*
X80574123Y40249324D01*
X80634600Y40370277D01*
X80695076Y40430753D01*
X80816028Y40491229D01*
X80876504Y40491229D01*
X80997457Y40430753D01*
X81057933Y40370277D01*
X81118409Y40249324D01*
X81118409Y40007420D01*
X81178885Y39886467D01*
X81239361Y39825991D01*
X81360314Y39765515D01*
X81602219Y39765515D01*
X81723171Y39825991D01*
X81783647Y39886467D01*
X81844123Y40007420D01*
X81844123Y40249324D01*
X81783647Y40370277D01*
X81723171Y40430753D01*
X81602219Y40491229D01*
X81360314Y40491229D01*
X81239361Y40430753D01*
X81178885Y40370277D01*
X81118409Y40249324D01*
D12*
%TO.C,REF\u002A\u002A*%
X7166666Y403197620D02*
X6833333Y403673810D01*
X6595238Y403197620D02*
X6595238Y404197620D01*
X6976190Y404197620D01*
X7071428Y404150000D01*
X7119047Y404102381D01*
X7166666Y404007143D01*
X7166666Y403864286D01*
X7119047Y403769048D01*
X7071428Y403721429D01*
X6976190Y403673810D01*
X6595238Y403673810D01*
X7595238Y403721429D02*
X7928571Y403721429D01*
X8071428Y403197620D02*
X7595238Y403197620D01*
X7595238Y404197620D01*
X8071428Y404197620D01*
X8833333Y403721429D02*
X8500000Y403721429D01*
X8500000Y403197620D02*
X8500000Y404197620D01*
X8976190Y404197620D01*
X9500000Y404197620D02*
X9500000Y403959524D01*
X9261904Y404054762D02*
X9500000Y403959524D01*
X9738095Y404054762D01*
X9357142Y403769048D02*
X9500000Y403959524D01*
X9642857Y403769048D01*
X10261904Y404197620D02*
X10261904Y403959524D01*
X10023809Y404054762D02*
X10261904Y403959524D01*
X10500000Y404054762D01*
X10119047Y403769048D02*
X10261904Y403959524D01*
X10404761Y403769048D01*
D11*
%TO.C,J11*%
X80574123Y369456305D02*
X81481266Y369456305D01*
X81662695Y369395829D01*
X81783647Y369274877D01*
X81844123Y369093448D01*
X81844123Y368972496D01*
X81844123Y370726305D02*
X81844123Y370000591D01*
X81844123Y370363448D02*
X80574123Y370363448D01*
X80755552Y370242496D01*
X80876504Y370121543D01*
X80936980Y370000591D01*
X81844123Y371935829D02*
X81844123Y371210115D01*
X81844123Y371572972D02*
X80574123Y371572972D01*
X80755552Y371452020D01*
X80876504Y371331067D01*
X80936980Y371210115D01*
D12*
%TO.C,S14*%
X66124104Y125394839D02*
X66266961Y125347220D01*
X66505057Y125347220D01*
X66600295Y125394839D01*
X66647914Y125442458D01*
X66695533Y125537696D01*
X66695533Y125632934D01*
X66647914Y125728172D01*
X66600295Y125775791D01*
X66505057Y125823410D01*
X66314580Y125871029D01*
X66219342Y125918648D01*
X66171723Y125966267D01*
X66124104Y126061505D01*
X66124104Y126156743D01*
X66171723Y126251981D01*
X66219342Y126299600D01*
X66314580Y126347220D01*
X66552676Y126347220D01*
X66695533Y126299600D01*
X67647914Y125347220D02*
X67076485Y125347220D01*
X67362200Y125347220D02*
X67362200Y126347220D01*
X67266961Y126204362D01*
X67171723Y126109124D01*
X67076485Y126061505D01*
X68505057Y126013886D02*
X68505057Y125347220D01*
X68266961Y126394839D02*
X68028866Y125680553D01*
X68647914Y125680553D01*
%TO.C,S2*%
X18970295Y315914839D02*
X19113152Y315867220D01*
X19351247Y315867220D01*
X19446485Y315914839D01*
X19494104Y315962458D01*
X19541723Y316057696D01*
X19541723Y316152934D01*
X19494104Y316248172D01*
X19446485Y316295791D01*
X19351247Y316343410D01*
X19160771Y316391029D01*
X19065533Y316438648D01*
X19017914Y316486267D01*
X18970295Y316581505D01*
X18970295Y316676743D01*
X19017914Y316771981D01*
X19065533Y316819600D01*
X19160771Y316867220D01*
X19398866Y316867220D01*
X19541723Y316819600D01*
X19922676Y316771981D02*
X19970295Y316819600D01*
X20065533Y316867220D01*
X20303628Y316867220D01*
X20398866Y316819600D01*
X20446485Y316771981D01*
X20494104Y316676743D01*
X20494104Y316581505D01*
X20446485Y316438648D01*
X19875057Y315867220D01*
X20494104Y315867220D01*
D11*
%TO.C,J5*%
X10556723Y180511755D02*
X11463866Y180511755D01*
X11645295Y180451279D01*
X11766247Y180330327D01*
X11826723Y180148898D01*
X11826723Y180027946D01*
X10556723Y181721279D02*
X10556723Y181116517D01*
X11161485Y181056041D01*
X11101009Y181116517D01*
X11040533Y181237469D01*
X11040533Y181539850D01*
X11101009Y181660803D01*
X11161485Y181721279D01*
X11282438Y181781755D01*
X11584819Y181781755D01*
X11705771Y181721279D01*
X11766247Y181660803D01*
X11826723Y181539850D01*
X11826723Y181237469D01*
X11766247Y181116517D01*
X11705771Y181056041D01*
%TO.C,J17*%
X80574123Y85360937D02*
X81481266Y85360937D01*
X81662695Y85300461D01*
X81783647Y85179509D01*
X81844123Y84998080D01*
X81844123Y84877128D01*
X81844123Y86630937D02*
X81844123Y85905223D01*
X81844123Y86268080D02*
X80574123Y86268080D01*
X80755552Y86147128D01*
X80876504Y86026175D01*
X80936980Y85905223D01*
X80574123Y87054271D02*
X80574123Y87900937D01*
X81844123Y87356652D01*
D12*
%TO.C,S5*%
X18970295Y173024839D02*
X19113152Y172977220D01*
X19351247Y172977220D01*
X19446485Y173024839D01*
X19494104Y173072458D01*
X19541723Y173167696D01*
X19541723Y173262934D01*
X19494104Y173358172D01*
X19446485Y173405791D01*
X19351247Y173453410D01*
X19160771Y173501029D01*
X19065533Y173548648D01*
X19017914Y173596267D01*
X18970295Y173691505D01*
X18970295Y173786743D01*
X19017914Y173881981D01*
X19065533Y173929600D01*
X19160771Y173977220D01*
X19398866Y173977220D01*
X19541723Y173929600D01*
X20446485Y173977220D02*
X19970295Y173977220D01*
X19922676Y173501029D01*
X19970295Y173548648D01*
X20065533Y173596267D01*
X20303628Y173596267D01*
X20398866Y173548648D01*
X20446485Y173501029D01*
X20494104Y173405791D01*
X20494104Y173167696D01*
X20446485Y173072458D01*
X20398866Y173024839D01*
X20303628Y172977220D01*
X20065533Y172977220D01*
X19970295Y173024839D01*
X19922676Y173072458D01*
%TO.C,REF\u002A\u002A*%
X7166666Y13797620D02*
X6833333Y14273810D01*
X6595238Y13797620D02*
X6595238Y14797620D01*
X6976190Y14797620D01*
X7071428Y14750000D01*
X7119047Y14702381D01*
X7166666Y14607143D01*
X7166666Y14464286D01*
X7119047Y14369048D01*
X7071428Y14321429D01*
X6976190Y14273810D01*
X6595238Y14273810D01*
X7595238Y14321429D02*
X7928571Y14321429D01*
X8071428Y13797620D02*
X7595238Y13797620D01*
X7595238Y14797620D01*
X8071428Y14797620D01*
X8833333Y14321429D02*
X8500000Y14321429D01*
X8500000Y13797620D02*
X8500000Y14797620D01*
X8976190Y14797620D01*
X9500000Y14797620D02*
X9500000Y14559524D01*
X9261904Y14654762D02*
X9500000Y14559524D01*
X9738095Y14654762D01*
X9357142Y14369048D02*
X9500000Y14559524D01*
X9642857Y14369048D01*
X10261904Y14797620D02*
X10261904Y14559524D01*
X10023809Y14654762D02*
X10261904Y14559524D01*
X10500000Y14654762D01*
X10119047Y14369048D02*
X10261904Y14559524D01*
X10404761Y14369048D01*
D11*
%TO.C,J8*%
X10556723Y38464067D02*
X11463866Y38464067D01*
X11645295Y38403591D01*
X11766247Y38282639D01*
X11826723Y38101210D01*
X11826723Y37980258D01*
X11101009Y39250258D02*
X11040533Y39129305D01*
X10980057Y39068829D01*
X10859104Y39008353D01*
X10798628Y39008353D01*
X10677676Y39068829D01*
X10617200Y39129305D01*
X10556723Y39250258D01*
X10556723Y39492162D01*
X10617200Y39613115D01*
X10677676Y39673591D01*
X10798628Y39734067D01*
X10859104Y39734067D01*
X10980057Y39673591D01*
X11040533Y39613115D01*
X11101009Y39492162D01*
X11101009Y39250258D01*
X11161485Y39129305D01*
X11221961Y39068829D01*
X11342914Y39008353D01*
X11584819Y39008353D01*
X11705771Y39068829D01*
X11766247Y39129305D01*
X11826723Y39250258D01*
X11826723Y39492162D01*
X11766247Y39613115D01*
X11705771Y39673591D01*
X11584819Y39734067D01*
X11342914Y39734067D01*
X11221961Y39673591D01*
X11161485Y39613115D01*
X11101009Y39492162D01*
D12*
%TO.C,S11*%
X66124104Y268284839D02*
X66266961Y268237220D01*
X66505057Y268237220D01*
X66600295Y268284839D01*
X66647914Y268332458D01*
X66695533Y268427696D01*
X66695533Y268522934D01*
X66647914Y268618172D01*
X66600295Y268665791D01*
X66505057Y268713410D01*
X66314580Y268761029D01*
X66219342Y268808648D01*
X66171723Y268856267D01*
X66124104Y268951505D01*
X66124104Y269046743D01*
X66171723Y269141981D01*
X66219342Y269189600D01*
X66314580Y269237220D01*
X66552676Y269237220D01*
X66695533Y269189600D01*
X67647914Y268237220D02*
X67076485Y268237220D01*
X67362200Y268237220D02*
X67362200Y269237220D01*
X67266961Y269094362D01*
X67171723Y268999124D01*
X67076485Y268951505D01*
X68600295Y268237220D02*
X68028866Y268237220D01*
X68314580Y268237220D02*
X68314580Y269237220D01*
X68219342Y269094362D01*
X68124104Y268999124D01*
X68028866Y268951505D01*
%TO.C,S4*%
X18970295Y220654839D02*
X19113152Y220607220D01*
X19351247Y220607220D01*
X19446485Y220654839D01*
X19494104Y220702458D01*
X19541723Y220797696D01*
X19541723Y220892934D01*
X19494104Y220988172D01*
X19446485Y221035791D01*
X19351247Y221083410D01*
X19160771Y221131029D01*
X19065533Y221178648D01*
X19017914Y221226267D01*
X18970295Y221321505D01*
X18970295Y221416743D01*
X19017914Y221511981D01*
X19065533Y221559600D01*
X19160771Y221607220D01*
X19398866Y221607220D01*
X19541723Y221559600D01*
X20398866Y221273886D02*
X20398866Y220607220D01*
X20160771Y221654839D02*
X19922676Y220940553D01*
X20541723Y220940553D01*
D11*
%TO.C,J10*%
X63007704Y12125477D02*
X63007704Y11218334D01*
X62947228Y11036905D01*
X62826276Y10915953D01*
X62644847Y10855477D01*
X62523895Y10855477D01*
X64277704Y10855477D02*
X63551990Y10855477D01*
X63914847Y10855477D02*
X63914847Y12125477D01*
X63793895Y11944048D01*
X63672942Y11823096D01*
X63551990Y11762620D01*
X65063895Y12125477D02*
X65184847Y12125477D01*
X65305800Y12065000D01*
X65366276Y12004524D01*
X65426752Y11883572D01*
X65487228Y11641667D01*
X65487228Y11339286D01*
X65426752Y11097381D01*
X65366276Y10976429D01*
X65305800Y10915953D01*
X65184847Y10855477D01*
X65063895Y10855477D01*
X64942942Y10915953D01*
X64882466Y10976429D01*
X64821990Y11097381D01*
X64761514Y11339286D01*
X64761514Y11641667D01*
X64821990Y11883572D01*
X64882466Y12004524D01*
X64942942Y12065000D01*
X65063895Y12125477D01*
%TO.C,J3*%
X10556723Y275210211D02*
X11463866Y275210211D01*
X11645295Y275149735D01*
X11766247Y275028783D01*
X11826723Y274847354D01*
X11826723Y274726402D01*
X10556723Y275694021D02*
X10556723Y276480211D01*
X11040533Y276056878D01*
X11040533Y276238306D01*
X11101009Y276359259D01*
X11161485Y276419735D01*
X11282438Y276480211D01*
X11584819Y276480211D01*
X11705771Y276419735D01*
X11766247Y276359259D01*
X11826723Y276238306D01*
X11826723Y275875449D01*
X11766247Y275754497D01*
X11705771Y275694021D01*
%TO.C,J7*%
X10556723Y85813299D02*
X11463866Y85813299D01*
X11645295Y85752823D01*
X11766247Y85631871D01*
X11826723Y85450442D01*
X11826723Y85329490D01*
X10556723Y86297109D02*
X10556723Y87143775D01*
X11826723Y86599490D01*
%TO.C,J16*%
X80574123Y132710165D02*
X81481266Y132710165D01*
X81662695Y132649689D01*
X81783647Y132528737D01*
X81844123Y132347308D01*
X81844123Y132226356D01*
X81844123Y133980165D02*
X81844123Y133254451D01*
X81844123Y133617308D02*
X80574123Y133617308D01*
X80755552Y133496356D01*
X80876504Y133375403D01*
X80936980Y133254451D01*
X80574123Y135068737D02*
X80574123Y134826832D01*
X80634600Y134705880D01*
X80695076Y134645403D01*
X80876504Y134524451D01*
X81118409Y134463975D01*
X81602219Y134463975D01*
X81723171Y134524451D01*
X81783647Y134584927D01*
X81844123Y134705880D01*
X81844123Y134947784D01*
X81783647Y135068737D01*
X81723171Y135129213D01*
X81602219Y135189689D01*
X81299838Y135189689D01*
X81178885Y135129213D01*
X81118409Y135068737D01*
X81057933Y134947784D01*
X81057933Y134705880D01*
X81118409Y134584927D01*
X81178885Y134524451D01*
X81299838Y134463975D01*
%TO.C,J2*%
X10556723Y322559439D02*
X11463866Y322559439D01*
X11645295Y322498963D01*
X11766247Y322378011D01*
X11826723Y322196582D01*
X11826723Y322075630D01*
X10677676Y323103725D02*
X10617200Y323164201D01*
X10556723Y323285153D01*
X10556723Y323587534D01*
X10617200Y323708487D01*
X10677676Y323768963D01*
X10798628Y323829439D01*
X10919580Y323829439D01*
X11101009Y323768963D01*
X11826723Y323043249D01*
X11826723Y323829439D01*
D12*
%TO.C,S6*%
X18970295Y125394839D02*
X19113152Y125347220D01*
X19351247Y125347220D01*
X19446485Y125394839D01*
X19494104Y125442458D01*
X19541723Y125537696D01*
X19541723Y125632934D01*
X19494104Y125728172D01*
X19446485Y125775791D01*
X19351247Y125823410D01*
X19160771Y125871029D01*
X19065533Y125918648D01*
X19017914Y125966267D01*
X18970295Y126061505D01*
X18970295Y126156743D01*
X19017914Y126251981D01*
X19065533Y126299600D01*
X19160771Y126347220D01*
X19398866Y126347220D01*
X19541723Y126299600D01*
X20398866Y126347220D02*
X20208390Y126347220D01*
X20113152Y126299600D01*
X20065533Y126251981D01*
X19970295Y126109124D01*
X19922676Y125918648D01*
X19922676Y125537696D01*
X19970295Y125442458D01*
X20017914Y125394839D01*
X20113152Y125347220D01*
X20303628Y125347220D01*
X20398866Y125394839D01*
X20446485Y125442458D01*
X20494104Y125537696D01*
X20494104Y125775791D01*
X20446485Y125871029D01*
X20398866Y125918648D01*
X20303628Y125966267D01*
X20113152Y125966267D01*
X20017914Y125918648D01*
X19970295Y125871029D01*
X19922676Y125775791D01*
%TO.C,S1*%
X18970295Y363544839D02*
X19113152Y363497220D01*
X19351247Y363497220D01*
X19446485Y363544839D01*
X19494104Y363592458D01*
X19541723Y363687696D01*
X19541723Y363782934D01*
X19494104Y363878172D01*
X19446485Y363925791D01*
X19351247Y363973410D01*
X19160771Y364021029D01*
X19065533Y364068648D01*
X19017914Y364116267D01*
X18970295Y364211505D01*
X18970295Y364306743D01*
X19017914Y364401981D01*
X19065533Y364449600D01*
X19160771Y364497220D01*
X19398866Y364497220D01*
X19541723Y364449600D01*
X20494104Y363497220D02*
X19922676Y363497220D01*
X20208390Y363497220D02*
X20208390Y364497220D01*
X20113152Y364354362D01*
X20017914Y364259124D01*
X19922676Y364211505D01*
%TO.C,S9*%
X66600295Y363544839D02*
X66743152Y363497220D01*
X66981247Y363497220D01*
X67076485Y363544839D01*
X67124104Y363592458D01*
X67171723Y363687696D01*
X67171723Y363782934D01*
X67124104Y363878172D01*
X67076485Y363925791D01*
X66981247Y363973410D01*
X66790771Y364021029D01*
X66695533Y364068648D01*
X66647914Y364116267D01*
X66600295Y364211505D01*
X66600295Y364306743D01*
X66647914Y364401981D01*
X66695533Y364449600D01*
X66790771Y364497220D01*
X67028866Y364497220D01*
X67171723Y364449600D01*
X67647914Y363497220D02*
X67838390Y363497220D01*
X67933628Y363544839D01*
X67981247Y363592458D01*
X68076485Y363735315D01*
X68124104Y363925791D01*
X68124104Y364306743D01*
X68076485Y364401981D01*
X68028866Y364449600D01*
X67933628Y364497220D01*
X67743152Y364497220D01*
X67647914Y364449600D01*
X67600295Y364401981D01*
X67552676Y364306743D01*
X67552676Y364068648D01*
X67600295Y363973410D01*
X67647914Y363925791D01*
X67743152Y363878172D01*
X67933628Y363878172D01*
X68028866Y363925791D01*
X68076485Y363973410D01*
X68124104Y364068648D01*
D11*
%TO.C,J6*%
X10556723Y133162527D02*
X11463866Y133162527D01*
X11645295Y133102051D01*
X11766247Y132981099D01*
X11826723Y132799670D01*
X11826723Y132678718D01*
X10556723Y134311575D02*
X10556723Y134069670D01*
X10617200Y133948718D01*
X10677676Y133888241D01*
X10859104Y133767289D01*
X11101009Y133706813D01*
X11584819Y133706813D01*
X11705771Y133767289D01*
X11766247Y133827765D01*
X11826723Y133948718D01*
X11826723Y134190622D01*
X11766247Y134311575D01*
X11705771Y134372051D01*
X11584819Y134432527D01*
X11282438Y134432527D01*
X11161485Y134372051D01*
X11101009Y134311575D01*
X11040533Y134190622D01*
X11040533Y133948718D01*
X11101009Y133827765D01*
X11161485Y133767289D01*
X11282438Y133706813D01*
D12*
%TO.C,S7*%
X18970295Y77764839D02*
X19113152Y77717220D01*
X19351247Y77717220D01*
X19446485Y77764839D01*
X19494104Y77812458D01*
X19541723Y77907696D01*
X19541723Y78002934D01*
X19494104Y78098172D01*
X19446485Y78145791D01*
X19351247Y78193410D01*
X19160771Y78241029D01*
X19065533Y78288648D01*
X19017914Y78336267D01*
X18970295Y78431505D01*
X18970295Y78526743D01*
X19017914Y78621981D01*
X19065533Y78669600D01*
X19160771Y78717220D01*
X19398866Y78717220D01*
X19541723Y78669600D01*
X19875057Y78717220D02*
X20541723Y78717220D01*
X20113152Y77717220D01*
D11*
%TO.C,J9*%
X31763466Y11947677D02*
X31763466Y11040534D01*
X31702990Y10859105D01*
X31582038Y10738153D01*
X31400609Y10677677D01*
X31279657Y10677677D01*
X32428704Y10677677D02*
X32670609Y10677677D01*
X32791561Y10738153D01*
X32852038Y10798629D01*
X32972990Y10980058D01*
X33033466Y11221962D01*
X33033466Y11705772D01*
X32972990Y11826724D01*
X32912514Y11887200D01*
X32791561Y11947677D01*
X32549657Y11947677D01*
X32428704Y11887200D01*
X32368228Y11826724D01*
X32307752Y11705772D01*
X32307752Y11403391D01*
X32368228Y11282439D01*
X32428704Y11221962D01*
X32549657Y11161486D01*
X32791561Y11161486D01*
X32912514Y11221962D01*
X32972990Y11282439D01*
X33033466Y11403391D01*
%TO.C,J12*%
X80574123Y322107077D02*
X81481266Y322107077D01*
X81662695Y322046601D01*
X81783647Y321925649D01*
X81844123Y321744220D01*
X81844123Y321623268D01*
X81844123Y323377077D02*
X81844123Y322651363D01*
X81844123Y323014220D02*
X80574123Y323014220D01*
X80755552Y322893268D01*
X80876504Y322772315D01*
X80936980Y322651363D01*
X80695076Y323860887D02*
X80634600Y323921363D01*
X80574123Y324042315D01*
X80574123Y324344696D01*
X80634600Y324465649D01*
X80695076Y324526125D01*
X80816028Y324586601D01*
X80936980Y324586601D01*
X81118409Y324526125D01*
X81844123Y323800411D01*
X81844123Y324586601D01*
%TO.C,J14*%
X80574123Y227408621D02*
X81481266Y227408621D01*
X81662695Y227348145D01*
X81783647Y227227193D01*
X81844123Y227045764D01*
X81844123Y226924812D01*
X81844123Y228678621D02*
X81844123Y227952907D01*
X81844123Y228315764D02*
X80574123Y228315764D01*
X80755552Y228194812D01*
X80876504Y228073859D01*
X80936980Y227952907D01*
X80997457Y229767193D02*
X81844123Y229767193D01*
X80513647Y229464812D02*
X81420790Y229162431D01*
X81420790Y229948621D01*
D12*
%TO.C,S13*%
X66124104Y173024839D02*
X66266961Y172977220D01*
X66505057Y172977220D01*
X66600295Y173024839D01*
X66647914Y173072458D01*
X66695533Y173167696D01*
X66695533Y173262934D01*
X66647914Y173358172D01*
X66600295Y173405791D01*
X66505057Y173453410D01*
X66314580Y173501029D01*
X66219342Y173548648D01*
X66171723Y173596267D01*
X66124104Y173691505D01*
X66124104Y173786743D01*
X66171723Y173881981D01*
X66219342Y173929600D01*
X66314580Y173977220D01*
X66552676Y173977220D01*
X66695533Y173929600D01*
X67647914Y172977220D02*
X67076485Y172977220D01*
X67362200Y172977220D02*
X67362200Y173977220D01*
X67266961Y173834362D01*
X67171723Y173739124D01*
X67076485Y173691505D01*
X67981247Y173977220D02*
X68600295Y173977220D01*
X68266961Y173596267D01*
X68409819Y173596267D01*
X68505057Y173548648D01*
X68552676Y173501029D01*
X68600295Y173405791D01*
X68600295Y173167696D01*
X68552676Y173072458D01*
X68505057Y173024839D01*
X68409819Y172977220D01*
X68124104Y172977220D01*
X68028866Y173024839D01*
X67981247Y173072458D01*
%TO.C,S16*%
X66124104Y30134839D02*
X66266961Y30087220D01*
X66505057Y30087220D01*
X66600295Y30134839D01*
X66647914Y30182458D01*
X66695533Y30277696D01*
X66695533Y30372934D01*
X66647914Y30468172D01*
X66600295Y30515791D01*
X66505057Y30563410D01*
X66314580Y30611029D01*
X66219342Y30658648D01*
X66171723Y30706267D01*
X66124104Y30801505D01*
X66124104Y30896743D01*
X66171723Y30991981D01*
X66219342Y31039600D01*
X66314580Y31087220D01*
X66552676Y31087220D01*
X66695533Y31039600D01*
X67647914Y30087220D02*
X67076485Y30087220D01*
X67362200Y30087220D02*
X67362200Y31087220D01*
X67266961Y30944362D01*
X67171723Y30849124D01*
X67076485Y30801505D01*
X68505057Y31087220D02*
X68314580Y31087220D01*
X68219342Y31039600D01*
X68171723Y30991981D01*
X68076485Y30849124D01*
X68028866Y30658648D01*
X68028866Y30277696D01*
X68076485Y30182458D01*
X68124104Y30134839D01*
X68219342Y30087220D01*
X68409819Y30087220D01*
X68505057Y30134839D01*
X68552676Y30182458D01*
X68600295Y30277696D01*
X68600295Y30515791D01*
X68552676Y30611029D01*
X68505057Y30658648D01*
X68409819Y30706267D01*
X68219342Y30706267D01*
X68124104Y30658648D01*
X68076485Y30611029D01*
X68028866Y30515791D01*
D11*
%TO.C,J4*%
X10556723Y227860983D02*
X11463866Y227860983D01*
X11645295Y227800507D01*
X11766247Y227679555D01*
X11826723Y227498126D01*
X11826723Y227377174D01*
X10980057Y229010031D02*
X11826723Y229010031D01*
X10496247Y228707650D02*
X11403390Y228405269D01*
X11403390Y229191459D01*
D12*
%TO.C,S12*%
X66124104Y220654839D02*
X66266961Y220607220D01*
X66505057Y220607220D01*
X66600295Y220654839D01*
X66647914Y220702458D01*
X66695533Y220797696D01*
X66695533Y220892934D01*
X66647914Y220988172D01*
X66600295Y221035791D01*
X66505057Y221083410D01*
X66314580Y221131029D01*
X66219342Y221178648D01*
X66171723Y221226267D01*
X66124104Y221321505D01*
X66124104Y221416743D01*
X66171723Y221511981D01*
X66219342Y221559600D01*
X66314580Y221607220D01*
X66552676Y221607220D01*
X66695533Y221559600D01*
X67647914Y220607220D02*
X67076485Y220607220D01*
X67362200Y220607220D02*
X67362200Y221607220D01*
X67266961Y221464362D01*
X67171723Y221369124D01*
X67076485Y221321505D01*
X68028866Y221511981D02*
X68076485Y221559600D01*
X68171723Y221607220D01*
X68409819Y221607220D01*
X68505057Y221559600D01*
X68552676Y221511981D01*
X68600295Y221416743D01*
X68600295Y221321505D01*
X68552676Y221178648D01*
X67981247Y220607220D01*
X68600295Y220607220D01*
D13*
%TO.C,J15*%
X83702000Y185290088D02*
X90902000Y185290088D01*
X90902000Y176890088D02*
X83702000Y176890088D01*
X83702000Y176890088D02*
X83702000Y185290088D01*
X90902000Y185290088D02*
X90902000Y176890088D01*
%TO.C,J1*%
X1441800Y374687000D02*
X8641800Y374687000D01*
X8641800Y374687000D02*
X8641800Y366287000D01*
X1441800Y366287000D02*
X1441800Y374687000D01*
X8641800Y366287000D02*
X1441800Y366287000D01*
%TO.C,J13*%
X83702000Y279988544D02*
X90902000Y279988544D01*
X83702000Y271588544D02*
X83702000Y279988544D01*
X90902000Y271588544D02*
X83702000Y271588544D01*
X90902000Y279988544D02*
X90902000Y271588544D01*
%TO.C,J18*%
X90902000Y43242400D02*
X90902000Y34842400D01*
X83702000Y43242400D02*
X90902000Y43242400D01*
X83702000Y34842400D02*
X83702000Y43242400D01*
X90902000Y34842400D02*
X83702000Y34842400D01*
%TO.C,J11*%
X83702000Y374687000D02*
X90902000Y374687000D01*
X83702000Y366287000D02*
X83702000Y374687000D01*
X90902000Y374687000D02*
X90902000Y366287000D01*
X90902000Y366287000D02*
X83702000Y366287000D01*
%TO.C,J5*%
X1441800Y176890088D02*
X1441800Y185290088D01*
X8641800Y185290088D02*
X8641800Y176890088D01*
X8641800Y176890088D02*
X1441800Y176890088D01*
X1441800Y185290088D02*
X8641800Y185290088D01*
%TO.C,J17*%
X90902000Y82191632D02*
X83702000Y82191632D01*
X83702000Y90591632D02*
X90902000Y90591632D01*
X90902000Y90591632D02*
X90902000Y82191632D01*
X83702000Y82191632D02*
X83702000Y90591632D01*
%TO.C,J8*%
X8641800Y34842400D02*
X1441800Y34842400D01*
X1441800Y34842400D02*
X1441800Y43242400D01*
X8641800Y43242400D02*
X8641800Y34842400D01*
X1441800Y43242400D02*
X8641800Y43242400D01*
%TO.C,J10*%
X59833200Y9061000D02*
X68233200Y9061000D01*
X68233200Y9061000D02*
X68233200Y1861000D01*
X68233200Y1861000D02*
X59833200Y1861000D01*
X59833200Y1861000D02*
X59833200Y9061000D01*
%TO.C,J3*%
X8641800Y271588544D02*
X1441800Y271588544D01*
X1441800Y279988544D02*
X8641800Y279988544D01*
X1441800Y271588544D02*
X1441800Y279988544D01*
X8641800Y279988544D02*
X8641800Y271588544D01*
%TO.C,J7*%
X8641800Y90591632D02*
X8641800Y82191632D01*
X1441800Y82191632D02*
X1441800Y90591632D01*
X1441800Y90591632D02*
X8641800Y90591632D01*
X8641800Y82191632D02*
X1441800Y82191632D01*
%TO.C,J16*%
X83702000Y129540860D02*
X83702000Y137940860D01*
X90902000Y137940860D02*
X90902000Y129540860D01*
X83702000Y137940860D02*
X90902000Y137940860D01*
X90902000Y129540860D02*
X83702000Y129540860D01*
%TO.C,J2*%
X8641800Y327337772D02*
X8641800Y318937772D01*
X1441800Y318937772D02*
X1441800Y327337772D01*
X8641800Y318937772D02*
X1441800Y318937772D01*
X1441800Y327337772D02*
X8641800Y327337772D01*
%TO.C,J6*%
X1441800Y129540860D02*
X1441800Y137940860D01*
X8641800Y137940860D02*
X8641800Y129540860D01*
X8641800Y129540860D02*
X1441800Y129540860D01*
X1441800Y137940860D02*
X8641800Y137940860D01*
%TO.C,J9*%
X27986800Y9061000D02*
X36386800Y9061000D01*
X27986800Y1861000D02*
X27986800Y9061000D01*
X36386800Y9061000D02*
X36386800Y1861000D01*
X36386800Y1861000D02*
X27986800Y1861000D01*
%TO.C,J12*%
X90902000Y318937772D02*
X83702000Y318937772D01*
X83702000Y327337772D02*
X90902000Y327337772D01*
X90902000Y327337772D02*
X90902000Y318937772D01*
X83702000Y318937772D02*
X83702000Y327337772D01*
%TO.C,J14*%
X83702000Y224239316D02*
X83702000Y232639316D01*
X90902000Y232639316D02*
X90902000Y224239316D01*
X90902000Y224239316D02*
X83702000Y224239316D01*
X83702000Y232639316D02*
X90902000Y232639316D01*
%TO.C,J4*%
X1441800Y224239316D02*
X1441800Y232639316D01*
X1441800Y232639316D02*
X8641800Y232639316D01*
X8641800Y224239316D02*
X1441800Y224239316D01*
X8641800Y232639316D02*
X8641800Y224239316D01*
%TD*%
M02*
