M48
; DRILL file {KiCad (6.0.8)} date Fri Oct 28 23:02:04 2022
; FORMAT={-:-/ absolute / metric / decimal}
; #@! TF.CreationDate,2022-10-28T23:02:04-04:00
; #@! TF.GenerationSoftware,Kicad,Pcbnew,(6.0.8)
; #@! TF.FileFunction,MixedPlating,1,2
FMAT,2
METRIC
; #@! TA.AperFunction,Plated,PTH,ViaDrill
T1C0.400
; #@! TA.AperFunction,Plated,PTH,ViaDrill
T2C0.500
; #@! TA.AperFunction,Plated,PTH,ViaDrill
T3C0.508
; #@! TA.AperFunction,Plated,PTH,ComponentDrill
T4C0.800
; #@! TA.AperFunction,Plated,PTH,ComponentDrill
T5C0.910
; #@! TA.AperFunction,Plated,PTH,ComponentDrill
T6C0.914
; #@! TA.AperFunction,Plated,PTH,ViaDrill
T7C1.000
; #@! TA.AperFunction,Plated,PTH,ComponentDrill
T8C1.000
; #@! TA.AperFunction,Plated,PTH,ComponentDrill
T9C1.200
; #@! TA.AperFunction,Plated,PTH,ComponentDrill
T10C1.350
; #@! TA.AperFunction,Plated,PTH,ComponentDrill
T11C1.400
; #@! TA.AperFunction,Plated,PTH,ComponentDrill
T12C1.600
; #@! TA.AperFunction,Plated,PTH,ComponentDrill
T13C2.261
; #@! TA.AperFunction,Plated,PTH,ComponentDrill
T14C2.710
; #@! TA.AperFunction,Plated,PTH,ComponentDrill
T15C2.890
; #@! TA.AperFunction,Plated,PTH,ComponentDrill
T16C3.360
%
G90
G05
T1
X19.939Y68.077
X29.845Y23.373
X31.623Y67.823
X31.623Y66.299
X33.401Y78.06
X33.884Y58.73
X35.433Y59.187
X35.458Y57.206
X36.703Y57.887
X37.719Y54.869
X38.735Y58.171
X39.629Y54.869
X40.747Y58.171
X41.783Y37.851
X42.545Y82.809
X43.104Y86.284
X43.104Y84.582
X44.133Y46.304
X45.009Y33.051
X47.18Y46.558
X47.523Y31.285
X48.387Y33.025
X48.704Y46.558
X50.228Y46.558
X51.752Y46.558
X55.245Y33.279
X57.785Y58.171
X57.785Y55.123
X57.785Y34.794
X59.842Y58.171
X59.842Y55.123
X62.611Y37.089
X64.389Y32.263
X64.897Y29.896
X65.025Y46.278
X66.116Y28.829
X66.167Y34.295
X67.132Y26.167
X67.564Y61.239
X67.564Y59.411
X67.742Y33.025
X69.139Y24.841
X69.317Y59.385
X69.342Y86.055
X69.342Y84.252
X69.342Y61.239
X69.469Y32.771
X70.485Y30.734
X70.891Y88.189
X70.891Y86.487
X70.891Y61.239
X70.891Y59.385
X71.145Y27.183
X71.501Y32.207
X72.39Y61.239
X72.415Y59.36
X74.676Y32.771
X75.819Y34.803
X76.708Y52.095
X86.563Y84.049
X86.614Y86.131
X87.884Y87.909
X87.884Y85.242
X88.519Y55.118
X90.297Y74.935
X90.322Y55.118
X92.304Y55.118
X93.98Y60.985
X95.402Y59.512
X95.504Y61.239
X96.139Y90.175
X97.155Y83.571
X97.18Y59.715
X97.79Y61.239
X98.679Y38.867
X99.289Y59.766
X99.568Y61.239
X100.584Y28.58
X100.815Y47.225
X101.117Y59.792
X101.473Y25.913
X102.235Y34.549
X102.997Y85.857
X102.997Y81.031
X102.997Y75.951
X103.863Y46.717
X104.521Y36.073
X104.851Y31.247
X105.387Y46.463
X106.299Y89.921
X106.299Y85.857
X106.502Y33.025
X106.807Y81.031
X106.807Y75.951
X107.165Y46.463
X108.651Y46.717
X109.322Y30.46
X109.855Y90.683
X109.855Y86.365
X110.333Y35.64
X110.617Y81.031
X110.617Y75.951
X111.658Y30.46
X112.574Y36.656
X113.716Y55.22
X115.755Y55.123
X118.389Y55.169
X122.809Y16.515
X129.159Y18.801
X130.937Y73.919
X132.461Y87.127
X132.461Y80.777
X133.731Y80.015
X133.985Y58.171
X133.985Y53.345
X145.923Y82.301
X146.761Y80.62
X148.844Y82.047
T2
X40.526Y84.38
T3
X67.589Y46.939
X69.342Y46.939
X70.764Y46.939
X72.39Y46.965
T4
X13.188Y59.461
X13.188Y42.951
X13.188Y26.949
X15.601Y12.451
X15.728Y59.461
X15.728Y42.951
X15.728Y26.949
X18.141Y12.451
X24.491Y23.373
X27.031Y23.373
X28.595Y74.173
X31.135Y74.173
X38.227Y19.797
X38.227Y17.257
X42.355Y51.11
X42.355Y48.61
X49.403Y20.051
X49.403Y17.511
X54.013Y56.647
X54.013Y54.107
X60.579Y19.797
X60.579Y17.257
X62.459Y51.42
X62.459Y48.92
X71.247Y21.067
X71.247Y18.527
X74.676Y56.647
X74.676Y54.107
X82.55Y21.067
X82.55Y18.527
X94.234Y21.067
X94.234Y18.527
X94.869Y76.225
X94.869Y73.685
X99.037Y52.539
X99.037Y50.039
X105.156Y21.067
X105.156Y18.527
X111.506Y56.647
X111.506Y54.107
X116.614Y21.067
X116.614Y18.527
X117.729Y15.245
X117.729Y11.943
X127.782Y21.361
X127.889Y15.245
X127.889Y11.943
X130.322Y21.361
X135.128Y72.903
X135.128Y70.363
X153.162Y22.611
X153.162Y20.111
X160.528Y60.711
X160.528Y58.211
T5
X23.711Y29.256
X23.711Y26.716
X24.511Y30.526
X24.511Y27.986
T6
X159.919Y91.303
X159.919Y88.803
X159.919Y86.803
X159.919Y84.303
T7
X22.86Y54.412
X22.86Y48.418
X22.86Y42.5
X25.603Y45.548
X25.654Y51.542
X28.499Y54.412
X28.499Y48.418
X28.499Y42.5
X31.267Y51.542
X31.267Y45.548
X34.163Y54.412
X34.163Y48.418
X34.163Y42.5
X45.072Y40.157
X49.568Y40.157
X53.759Y40.157
X65.964Y39.7
X70.46Y39.7
X74.651Y39.7
X102.186Y40.644
X106.225Y40.644
X110.873Y40.644
X119.71Y51.212
X119.71Y45.217
X119.71Y39.299
X122.453Y42.347
X122.504Y48.342
X125.349Y51.212
X125.349Y45.217
X125.349Y39.299
X128.118Y48.342
X128.118Y42.347
X131.013Y51.212
X131.013Y45.217
X131.013Y39.299
X140.411Y48.768
X140.411Y42.85
X140.411Y35.738
X140.411Y29.82
X143.154Y45.898
X143.154Y32.868
X146.05Y48.768
X146.05Y42.85
X146.05Y35.738
X146.05Y29.82
T8
X41.529Y70.383
X41.529Y67.843
X41.529Y27.203
X41.529Y24.663
X44.069Y70.383
X44.069Y67.843
X44.069Y27.203
X44.069Y24.663
X46.609Y70.383
X46.609Y67.843
X46.609Y27.203
X46.609Y24.663
X49.149Y70.383
X49.149Y67.843
X49.149Y27.203
X49.149Y24.663
X51.689Y70.383
X51.689Y67.843
X51.689Y27.203
X51.689Y24.663
X54.229Y70.383
X54.229Y67.843
X54.229Y27.203
X54.229Y24.663
X56.769Y70.383
X56.769Y67.843
X56.769Y27.203
X56.769Y24.663
X59.309Y70.383
X59.309Y67.843
X59.309Y27.203
X59.309Y24.663
X61.849Y70.383
X61.849Y67.843
X61.849Y27.203
X61.849Y24.663
X64.389Y70.383
X64.389Y67.843
X64.389Y27.203
X64.389Y24.663
X105.029Y70.383
X105.029Y67.843
X105.029Y27.203
X105.029Y24.663
X107.569Y70.383
X107.569Y67.843
X107.569Y27.203
X107.569Y24.663
X110.109Y70.383
X110.109Y67.843
X110.109Y27.203
X110.109Y24.663
X112.649Y70.383
X112.649Y67.843
X112.649Y27.203
X112.649Y24.663
X115.189Y70.383
X115.189Y67.843
X115.189Y27.203
X115.189Y24.663
X117.729Y70.383
X117.729Y67.843
X117.729Y27.203
X117.729Y24.663
X120.269Y70.383
X120.269Y67.843
X120.269Y27.203
X120.269Y24.663
X122.809Y70.383
X122.809Y67.843
X122.809Y27.203
X122.809Y24.663
X125.349Y70.383
X125.349Y67.843
X125.349Y27.203
X125.349Y24.663
X127.889Y70.383
X127.889Y67.843
X127.889Y27.203
X127.889Y24.663
T9
X4.826Y66.275
X4.826Y59.875
X4.826Y49.765
X4.826Y43.365
X4.826Y33.509
X4.826Y27.109
T10
X3.861Y94.171
X4.641Y84.717
X7.671Y94.171
X8.451Y84.717
X11.481Y94.171
X12.261Y84.717
X15.291Y94.171
X16.071Y84.717
X20.634Y94.171
X21.418Y84.717
X24.444Y94.171
X25.228Y84.717
X28.254Y94.171
X29.038Y84.717
X32.064Y94.171
X32.848Y84.717
X44.214Y92.289
X48.024Y92.289
X51.834Y92.289
X55.644Y92.289
X60.978Y92.289
X64.788Y92.289
X68.598Y92.289
X72.408Y92.289
X77.733Y92.289
X81.543Y92.289
X85.353Y92.289
X89.163Y92.289
X100.264Y92.536
X101.044Y82.946
X104.074Y92.536
X104.854Y82.946
X107.884Y92.536
X108.664Y82.946
X111.694Y92.536
X112.474Y82.946
X117.545Y91.136
X117.545Y82.946
X121.355Y91.136
X121.355Y82.946
X125.165Y91.136
X125.165Y82.946
X128.975Y91.136
X128.975Y82.946
T11
X31.778Y4.831
X35.278Y4.831
X42.954Y4.831
X46.454Y4.831
X54.178Y4.831
X57.678Y4.831
X65.334Y4.831
X68.834Y4.831
X76.482Y4.831
X79.982Y4.831
X87.912Y4.831
X91.412Y4.831
X99.088Y4.831
X102.588Y4.831
X110.518Y4.831
X114.018Y4.831
X121.948Y4.831
X125.448Y4.831
X149.38Y90.411
X152.88Y90.411
T12
X36.246Y31.349
X40.386Y31.806
X75.667Y25.024
X78.105Y81.717
X78.105Y76.688
X80.239Y30.562
X85.649Y30.282
X90.983Y30.028
X96.342Y29.749
X135.89Y5.359
X162.052Y21.107
X169.926Y23.393
X169.926Y15.265
X169.926Y7.336
X171.323Y75.697
T13
X162.629Y94.373
X162.629Y81.233
T14
X164.922Y47.015
T15
X165.922Y51.515
X165.922Y42.515
T16
X158.922Y47.015
T0
M30
