M48
; DRILL file {KiCad (6.0.9)} date Mon Nov 21 23:38:40 2022
; FORMAT={3:3/ absolute / metric / suppress trailing zeros}
; #@! TF.CreationDate,2022-11-21T23:38:40-05:00
; #@! TF.GenerationSoftware,Kicad,Pcbnew,(6.0.9)
; #@! TF.FileFunction,MixedPlating,1,2
FMAT,2
METRIC,LZ
; #@! TA.AperFunction,Plated,PTH,ComponentDrill
T1C1.400
; #@! TA.AperFunction,Plated,PTH,ComponentDrill
T2C5.300
%
G90
G05
T1
X004242Y372237
X004242Y368737
X004242Y324888
X004242Y321388
X004242Y277539
X004242Y274039
X004242Y230189
X004242Y226689
X004242Y18284
X004242Y17934
X004242Y135491
X004242Y131991
X004242Y088142
X004242Y084642
X004242Y040792
X004242Y037292
X007058Y356482
X007058Y308852
X007058Y261222
X007058Y213592
X007058Y165962
X007058Y118332
X007058Y070702
X007058Y023072
X030437Y004661
X033928Y383352
X033928Y335722
X033928Y288092
X033928Y240462
X033928Y192832
X033928Y145202
X033928Y097572
X033928Y049942
X033937Y004661
X054688Y356482
X054688Y308852
X054688Y261222
X054688Y213592
X054688Y165962
X054688Y118332
X054688Y070702
X054688Y023072
X062283Y004661
X065783Y004661
X081558Y383352
X081558Y335722
X081558Y288092
X081558Y240462
X081558Y192832
X081558Y145202
X081558Y097572
X081558Y049942
X086502Y372237
X086502Y368737
X086502Y324888
X086502Y321388
X086502Y277539
X086502Y274039
X086502Y230189
X086502Y226689
X086502Y18284
X086502Y17934
X086502Y135491
X086502Y131991
X086502Y088142
X086502Y084642
X086502Y040792
X086502Y037292
T2
X0085Y3979
X0085Y0085
X08422Y3979
X08422Y0085
T0
M30
