M48
; DRILL file {KiCad (6.0.9)} date Sun Nov 13 16:26:46 2022
; FORMAT={3:3/ absolute / metric / suppress trailing zeros}
; #@! TF.CreationDate,2022-11-13T16:26:46-05:00
; #@! TF.GenerationSoftware,Kicad,Pcbnew,(6.0.9)
; #@! TF.FileFunction,MixedPlating,1,2
FMAT,2
METRIC,LZ
; #@! TA.AperFunction,Plated,PTH,ViaDrill
T1C0.400
; #@! TA.AperFunction,Plated,PTH,ViaDrill
T2C0.457
; #@! TA.AperFunction,Plated,PTH,ViaDrill
T3C0.500
; #@! TA.AperFunction,Plated,PTH,ViaDrill
T4C0.508
; #@! TA.AperFunction,Plated,PTH,ViaDrill
T5C0.635
; #@! TA.AperFunction,Plated,PTH,ComponentDrill
T6C0.686
; #@! TA.AperFunction,Plated,PTH,ViaDrill
T7C0.762
; #@! TA.AperFunction,Plated,PTH,ComponentDrill
T8C0.800
; #@! TA.AperFunction,Plated,PTH,ComponentDrill
T9C0.910
; #@! TA.AperFunction,Plated,PTH,ComponentDrill
T10C0.914
; #@! TA.AperFunction,Plated,PTH,ViaDrill
T11C1.000
; #@! TA.AperFunction,Plated,PTH,ComponentDrill
T12C1.000
; #@! TA.AperFunction,Plated,PTH,ComponentDrill
T13C1.016
; #@! TA.AperFunction,Plated,PTH,ComponentDrill
T14C1.200
; #@! TA.AperFunction,Plated,PTH,ComponentDrill
T15C1.350
; #@! TA.AperFunction,Plated,PTH,ComponentDrill
T16C1.400
; #@! TA.AperFunction,Plated,PTH,ComponentDrill
T17C1.600
; #@! TA.AperFunction,Plated,PTH,ComponentDrill
T18C2.261
; #@! TA.AperFunction,Plated,PTH,ComponentDrill
T19C2.710
; #@! TA.AperFunction,Plated,PTH,ComponentDrill
T20C2.890
; #@! TA.AperFunction,Plated,PTH,ComponentDrill
T21C2.900
; #@! TA.AperFunction,NonPlated,NPTH,ComponentDrill
T22C1.700
%
G90
G05
T1
X026289Y069088
X031623Y067823
X031623Y066299
X033401Y07806
X041783Y037851
X045009Y033051
X045263Y07935
X046609Y080543
X047447Y030734
X047981Y081712
X048371Y032817
X050265Y029615
X055245Y033279
X057785Y034794
X059563Y060782
X059563Y05527
X060985Y055194
X061163Y060757
X062611Y037089
X064389Y032263
X064897Y029896
X066167Y034295
X066904Y028778
X067132Y026167
X067564Y061239
X067564Y059411
X068006Y033289
X068335Y024248
X069317Y059385
X069342Y086055
X069342Y084252
X069342Y061239
X069469Y032771
X070485Y030734
X070891Y088189
X070891Y086487
X070891Y061239
X070891Y059385
X071145Y027183
X071501Y032207
X07239Y061239
X072415Y05936
X074524Y032817
X075819Y034803
X078575Y068415
X08095Y063297
X086309Y085827
X086309Y08382
X087503Y087528
X087503Y085877
X088519Y053518
X090322Y053645
X092278Y08857
X092304Y053797
X094259Y084074
X097815Y081382
X098069Y074585
X098679Y038867
X099289Y059766
X100584Y02858
X100889Y066116
X101473Y025913
X102235Y034549
X104328Y035382
X104851Y031247
X106147Y074981
X106502Y033025
X110333Y03564
X113716Y05522
X114312Y036691
X115755Y055123
X118389Y055169
X121535Y029333
X122809Y017399
X129057Y017399
X132774Y073465
T2
X033807Y058369
X0349Y057277
X035382Y059614
X036703Y058293
X038837Y062738
X03998Y061595
X040005Y054178
X041961Y054178
X046228Y04638
X048705Y046558
X049719Y045979
X051753Y046558
X067589Y046939
X069342Y046939
X070684Y046858
X072438Y046965
X09398Y060985
X095402Y059512
X095504Y061239
X09718Y059715
X09779Y061239
X099568Y061239
X101117Y059792
X103482Y046584
X10538Y047196
X106542Y047083
X108651Y046717
X147142Y02126
X14725Y010649
T3
X035585Y084506
X038075Y089738
X04257Y082956
T4
X108712Y03109
X111989Y031039
T5
X155346Y080289
T6
X050114Y062205
X050241Y058674
X055194Y062205
X055321Y058674
X05748Y047269
X05748Y042189
X077927Y054254
X078765Y050724
X082525Y04793
X082525Y04285
X083007Y054254
X083845Y050724
X10541Y061798
X11049Y061798
X113817Y044831
X113817Y039751
X114046Y061747
X119126Y061747
T7
X128417Y057602
X16449Y080035
T8
X013188Y059461
X013188Y042951
X013188Y026949
X015728Y059461
X015728Y042951
X015728Y026949
X016388Y012451
X018928Y012451
X024491Y023373
X027031Y023373
X028595Y074173
X031135Y074173
X034849Y030785
X038405Y019797
X038405Y017257
X042355Y05111
X042355Y04861
X045009Y030785
X049403Y020051
X049403Y017511
X054077Y055143
X056617Y055143
X060579Y019797
X060579Y017257
X062509Y052228
X062509Y049728
X071247Y021067
X071247Y018527
X074676Y057155
X074676Y054615
X07686Y061163
X08255Y021067
X08255Y018527
X08382Y035001
X08702Y061163
X093497Y049936
X093497Y039776
X09398Y035001
X094234Y021067
X094234Y018527
X096469Y068504
X099009Y068504
X09906Y052863
X09906Y050363
X105156Y021067
X105156Y018527
X111506Y056647
X111506Y054107
X116614Y021067
X116614Y018527
X118694Y01524
X11872Y011989
X127782Y021361
X128854Y01524
X12888Y011989
X130322Y021361
X132232Y027183
X132232Y024643
X135026Y064307
X135026Y061767
X139588Y016586
X142088Y016586
X15562Y054381
X15812Y054381
T9
X023317Y029307
X023419Y026869
X024994Y030476
X025019Y027961
T10
X13849Y083998
X14099Y083998
X14299Y083998
X14549Y083998
T11
X02286Y054412
X02286Y048418
X02286Y0425
X025603Y045548
X025654Y051542
X028499Y054412
X028499Y048418
X028499Y0425
X031267Y051542
X031267Y045548
X034163Y054412
X034163Y048418
X034163Y0425
X045072Y040157
X049568Y040157
X053759Y040157
X065964Y0397
X07046Y0397
X074651Y0397
X102186Y040644
X106225Y040644
X110873Y040644
X11971Y051212
X11971Y045217
X11971Y039299
X122453Y042347
X122504Y048342
X125349Y051212
X125349Y045217
X125349Y039299
X128118Y048342
X128118Y042347
X131013Y051212
X131013Y045217
X131013Y039299
X140411Y048768
X140411Y04285
X142723Y036043
X142723Y030124
X143154Y045898
X145466Y033172
X14605Y048768
X14605Y04285
X148361Y036043
X148361Y030124
T12
X041529Y070383
X041529Y067843
X041529Y027203
X041529Y024663
X044069Y070383
X044069Y067843
X044069Y027203
X044069Y024663
X046609Y070383
X046609Y067843
X046609Y027203
X046609Y024663
X049149Y070383
X049149Y067843
X049149Y027203
X049149Y024663
X051689Y070383
X051689Y067843
X051689Y027203
X051689Y024663
X054229Y070383
X054229Y067843
X054229Y027203
X054229Y024663
X056769Y070383
X056769Y067843
X056769Y027203
X056769Y024663
X059309Y070383
X059309Y067843
X059309Y027203
X059309Y024663
X061849Y070383
X061849Y067843
X061849Y027203
X061849Y024663
X064389Y070383
X064389Y067843
X064389Y027203
X064389Y024663
X105029Y070383
X105029Y067843
X105029Y027203
X105029Y024663
X107569Y070383
X107569Y067843
X107569Y027203
X107569Y024663
X110109Y070383
X110109Y067843
X110109Y027203
X110109Y024663
X112649Y070383
X112649Y067843
X112649Y027203
X112649Y024663
X115189Y070383
X115189Y067843
X115189Y027203
X115189Y024663
X117729Y070383
X117729Y067843
X117729Y027203
X117729Y024663
X120269Y070383
X120269Y067843
X120269Y027203
X120269Y024663
X122809Y070383
X122809Y067843
X122809Y027203
X122809Y024663
X125349Y070383
X125349Y067843
X125349Y027203
X125349Y024663
X127889Y070383
X127889Y067843
X127889Y027203
X127889Y024663
T13
X124612Y006629
X124612Y004089
X127152Y006629
X127152Y004089
X129692Y006629
X129692Y004089
X132232Y006629
X132232Y004089
X134772Y006629
X134772Y004089
T14
X004826Y066275
X004826Y059875
X004826Y049765
X004826Y043365
X004826Y033509
X004826Y027109
T15
X003988Y094107
X004641Y084717
X007798Y094107
X008451Y084717
X011608Y094107
X012261Y084717
X015418Y094107
X016071Y084717
X020726Y093955
X021418Y084717
X024536Y093955
X025228Y084717
X028346Y093955
X029038Y084717
X032156Y093955
X032848Y084717
X044916Y092391
X048726Y092391
X052536Y092391
X056346Y092391
X061375Y092366
X065185Y092366
X068995Y092366
X072805Y092366
X077835Y092518
X081645Y092518
X085455Y092518
X089265Y092518
X100051Y093777
X101044Y082946
X103861Y093777
X104854Y082946
X107671Y093777
X108664Y082946
X111481Y093777
X112474Y082946
X116789Y093701
X117545Y082946
X120599Y093701
X121355Y082946
X124409Y093701
X125165Y082946
X128219Y093701
X128975Y082946
T16
X031778Y004831
X035278Y004831
X042954Y004831
X046454Y004831
X054178Y004831
X057678Y004831
X065334Y004831
X068834Y004831
X076482Y004831
X07699Y071895
X079982Y004831
X08049Y071895
X087912Y004831
X091412Y004831
X099088Y004831
X102588Y004831
X110518Y004831
X114018Y004831
X166268Y089433
X169768Y089433
T17
X022784Y009855
X061189Y079781
X075667Y024638
X080569Y030562
X085649Y030282
X090983Y030028
X096342Y029749
X13655Y078257
X136804Y035839
X136804Y029997
X14163Y078003
X146456Y005867
X148996Y075463
X169824Y052603
X170332Y080543
T18
X13542Y086708
X14856Y086708
T19
X166344Y042697
T20
X167344Y047197
X167344Y038197
T21
X160344Y042697
T22
X169344Y042697
T0
M30
