%TF.GenerationSoftware,KiCad,Pcbnew,(6.0.9)*%
%TF.CreationDate,2022-11-13T16:26:21-05:00*%
%TF.ProjectId,Top_Level,546f705f-4c65-4766-956c-2e6b69636164,rev?*%
%TF.SameCoordinates,PX33ef500PY821a7e8*%
%TF.FileFunction,Soldermask,Bot*%
%TF.FilePolarity,Negative*%
%FSLAX46Y46*%
G04 Gerber Fmt 4.6, Leading zero omitted, Abs format (unit mm)*
G04 Created by KiCad (PCBNEW (6.0.9)) date 2022-11-13 16:26:21*
%MOMM*%
%LPD*%
G01*
G04 APERTURE LIST*
G04 Aperture macros list*
%AMRoundRect*
0 Rectangle with rounded corners*
0 $1 Rounding radius*
0 $2 $3 $4 $5 $6 $7 $8 $9 X,Y pos of 4 corners*
0 Add a 4 corners polygon primitive as box body*
4,1,4,$2,$3,$4,$5,$6,$7,$8,$9,$2,$3,0*
0 Add four circle primitives for the rounded corners*
1,1,$1+$1,$2,$3*
1,1,$1+$1,$4,$5*
1,1,$1+$1,$6,$7*
1,1,$1+$1,$8,$9*
0 Add four rect primitives between the rounded corners*
20,1,$1+$1,$2,$3,$4,$5,0*
20,1,$1+$1,$4,$5,$6,$7,0*
20,1,$1+$1,$6,$7,$8,$9,0*
20,1,$1+$1,$8,$9,$2,$3,0*%
G04 Aperture macros list end*
%TA.AperFunction,Profile*%
%ADD10C,0.304800*%
%TD*%
%ADD11C,1.704800*%
%ADD12C,3.104800*%
%ADD13C,2.404800*%
%ADD14C,1.904800*%
%ADD15C,1.371600*%
%ADD16RoundRect,0.152400X1.012500X1.012500X-1.012500X1.012500X-1.012500X-1.012500X1.012500X-1.012500X0*%
%ADD17C,2.329800*%
%ADD18RoundRect,0.152400X-1.012500X-1.012500X1.012500X-1.012500X1.012500X1.012500X-1.012500X1.012500X0*%
%ADD19RoundRect,0.152400X0.850000X-0.850000X0.850000X0.850000X-0.850000X0.850000X-0.850000X-0.850000X0*%
%ADD20O,2.004800X2.004800*%
%ADD21C,1.654800*%
%ADD22O,1.904800X1.904800*%
%ADD23C,2.004800*%
%ADD24C,5.344800*%
%ADD25C,4.369800*%
%ADD26C,4.639800*%
%ADD27C,2.104800*%
%ADD28C,1.828800*%
%ADD29C,1.727200*%
%ADD30C,3.073400*%
G04 APERTURE END LIST*
D10*
X0Y25400D02*
X173990000Y25400D01*
X173990000Y25400D02*
X173990000Y97815400D01*
X173990000Y97815400D02*
X0Y97815400D01*
X0Y97815400D02*
X0Y25400D01*
X0Y25400D02*
X173990000Y25400D01*
X173990000Y25400D02*
X173990000Y97815400D01*
X173990000Y97815400D02*
X0Y97815400D01*
X0Y97815400D02*
X0Y25400D01*
D11*
%TO.C,JP13*%
X105156000Y21067400D03*
X105156000Y18527400D03*
%TD*%
D12*
%TO.C,TP14*%
X148996400Y75463400D03*
%TD*%
%TO.C,TP16*%
X136550400Y78257400D03*
%TD*%
D13*
%TO.C,J8*%
X76482000Y4831400D03*
X79982000Y4831400D03*
%TD*%
D12*
%TO.C,TP17*%
X141630400Y78003400D03*
%TD*%
D13*
%TO.C,J9*%
X110518000Y4831400D03*
X114018000Y4831400D03*
%TD*%
D12*
%TO.C,TP5*%
X96342200Y29748800D03*
%TD*%
D13*
%TO.C,J2*%
X166268400Y89433400D03*
X169768400Y89433400D03*
%TD*%
D11*
%TO.C,JP19*%
X71247000Y21067400D03*
X71247000Y18527400D03*
%TD*%
D12*
%TO.C,TP12*%
X22783800Y9855200D03*
%TD*%
D14*
%TO.C,C28*%
X142087600Y16586200D03*
X139587600Y16586200D03*
%TD*%
D15*
%TO.C,C6*%
X57480200Y42189400D03*
X57480200Y47269400D03*
%TD*%
D16*
%TO.C,J15*%
X111480600Y93776800D03*
D17*
X107670600Y93776800D03*
X103860600Y93776800D03*
X100050600Y93776800D03*
%TD*%
D18*
%TO.C,J16*%
X4640753Y84716514D03*
D17*
X8450753Y84716514D03*
X12260753Y84716514D03*
X16070753Y84716514D03*
%TD*%
D15*
%TO.C,C24*%
X82524600Y42849800D03*
X82524600Y47929800D03*
%TD*%
D11*
%TO.C,JP11*%
X135026400Y61767400D03*
X135026400Y64307400D03*
%TD*%
D19*
%TO.C,J5-J1*%
X105029000Y27203400D03*
D20*
X105029000Y24663400D03*
X107569000Y27203400D03*
X107569000Y24663400D03*
X110109000Y27203400D03*
X110109000Y24663400D03*
X112649000Y27203400D03*
X112649000Y24663400D03*
X115189000Y27203400D03*
X115189000Y24663400D03*
X117729000Y27203400D03*
X117729000Y24663400D03*
X120269000Y27203400D03*
X120269000Y24663400D03*
X122809000Y27203400D03*
X122809000Y24663400D03*
X125349000Y27203400D03*
X125349000Y24663400D03*
X127889000Y27203400D03*
X127889000Y24663400D03*
%TD*%
D18*
%TO.C,J17*%
X117545463Y82946400D03*
D17*
X121355463Y82946400D03*
X125165463Y82946400D03*
X128975463Y82946400D03*
%TD*%
D18*
%TO.C,J3*%
X61375400Y92365600D03*
D17*
X65185400Y92365600D03*
X68995400Y92365600D03*
X72805400Y92365600D03*
%TD*%
D13*
%TO.C,J23*%
X54178000Y4831400D03*
X57678000Y4831400D03*
%TD*%
%TO.C,J24*%
X76990000Y71894800D03*
X80490000Y71894800D03*
%TD*%
D15*
%TO.C,C9*%
X110490000Y61798200D03*
X105410000Y61798200D03*
%TD*%
D14*
%TO.C,C27*%
X155620400Y54381400D03*
X158120400Y54381400D03*
%TD*%
D19*
%TO.C,J4-J1*%
X41529000Y70383400D03*
D20*
X41529000Y67843400D03*
X44069000Y70383400D03*
X44069000Y67843400D03*
X46609000Y70383400D03*
X46609000Y67843400D03*
X49149000Y70383400D03*
X49149000Y67843400D03*
X51689000Y70383400D03*
X51689000Y67843400D03*
X54229000Y70383400D03*
X54229000Y67843400D03*
X56769000Y70383400D03*
X56769000Y67843400D03*
X59309000Y70383400D03*
X59309000Y67843400D03*
X61849000Y70383400D03*
X61849000Y67843400D03*
X64389000Y70383400D03*
X64389000Y67843400D03*
%TD*%
D11*
%TO.C,JP3*%
X94234000Y21067400D03*
X94234000Y18527400D03*
%TD*%
D19*
%TO.C,J1-J1*%
X41529000Y27203400D03*
D20*
X41529000Y24663400D03*
X44069000Y27203400D03*
X44069000Y24663400D03*
X46609000Y27203400D03*
X46609000Y24663400D03*
X49149000Y27203400D03*
X49149000Y24663400D03*
X51689000Y27203400D03*
X51689000Y24663400D03*
X54229000Y27203400D03*
X54229000Y24663400D03*
X56769000Y27203400D03*
X56769000Y24663400D03*
X59309000Y27203400D03*
X59309000Y24663400D03*
X61849000Y27203400D03*
X61849000Y24663400D03*
X64389000Y27203400D03*
X64389000Y24663400D03*
%TD*%
D12*
%TO.C,TP6*%
X136804400Y35839400D03*
%TD*%
D11*
%TO.C,JP5*%
X15728000Y59461400D03*
X13188000Y59461400D03*
%TD*%
D12*
%TO.C,TP7*%
X85648800Y30282200D03*
%TD*%
D16*
%TO.C,J13*%
X15417800Y94107000D03*
D17*
X11607800Y94107000D03*
X7797800Y94107000D03*
X3987800Y94107000D03*
%TD*%
D11*
%TO.C,JP12*%
X15728000Y26949400D03*
X13188000Y26949400D03*
%TD*%
%TO.C,JP10*%
X127782000Y21361400D03*
X130322000Y21361400D03*
%TD*%
D21*
%TO.C,LED1*%
X24993600Y30475600D03*
X23317200Y29307200D03*
X25019000Y27961000D03*
X23418800Y26868800D03*
%TD*%
D11*
%TO.C,JP17*%
X38404800Y19797400D03*
X38404800Y17257400D03*
%TD*%
D12*
%TO.C,TP10*%
X61188600Y79781400D03*
%TD*%
D14*
%TO.C,R18*%
X118694200Y15240000D03*
D22*
X128854200Y15240000D03*
%TD*%
D23*
%TO.C,J10*%
X169344400Y42697400D03*
D24*
X160344400Y42697400D03*
D25*
X166344400Y42697400D03*
D26*
X167344400Y47197400D03*
X167344400Y38197400D03*
%TD*%
D12*
%TO.C,TP4*%
X136804400Y29997400D03*
%TD*%
D18*
%TO.C,J5*%
X77834600Y92518000D03*
D17*
X81644600Y92518000D03*
X85454600Y92518000D03*
X89264600Y92518000D03*
%TD*%
D27*
%TO.C,S2*%
X4826000Y66275400D03*
X4826000Y59875400D03*
%TD*%
D19*
%TO.C,J8-J1*%
X105029000Y70383400D03*
D20*
X105029000Y67843400D03*
X107569000Y70383400D03*
X107569000Y67843400D03*
X110109000Y70383400D03*
X110109000Y67843400D03*
X112649000Y70383400D03*
X112649000Y67843400D03*
X115189000Y70383400D03*
X115189000Y67843400D03*
X117729000Y70383400D03*
X117729000Y67843400D03*
X120269000Y70383400D03*
X120269000Y67843400D03*
X122809000Y70383400D03*
X122809000Y67843400D03*
X125349000Y70383400D03*
X125349000Y67843400D03*
X127889000Y70383400D03*
X127889000Y67843400D03*
%TD*%
D14*
%TO.C,C7*%
X99060000Y50362800D03*
X99060000Y52862800D03*
%TD*%
D12*
%TO.C,TP8*%
X90982800Y30028200D03*
%TD*%
D28*
%TO.C,J1*%
X124612400Y4089400D03*
X124612400Y6629400D03*
X127152400Y4089400D03*
X127152400Y6629400D03*
X129692400Y4089400D03*
X129692400Y6629400D03*
X132232400Y4089400D03*
X132232400Y6629400D03*
X134772400Y4089400D03*
X134772400Y6629400D03*
%TD*%
D15*
%TO.C,C22*%
X83007200Y54254400D03*
X77927200Y54254400D03*
%TD*%
D11*
%TO.C,JP1*%
X56616600Y55143400D03*
X54076600Y55143400D03*
%TD*%
%TO.C,JP7*%
X18928400Y12451400D03*
X16388400Y12451400D03*
%TD*%
%TO.C,JP2*%
X111506000Y56647400D03*
X111506000Y54107400D03*
%TD*%
D18*
%TO.C,J19*%
X101044463Y82946400D03*
D17*
X104854463Y82946400D03*
X108664463Y82946400D03*
X112474463Y82946400D03*
%TD*%
D13*
%TO.C,J11*%
X99088000Y4831400D03*
X102588000Y4831400D03*
%TD*%
D14*
%TO.C,C1*%
X42354500Y48610200D03*
X42354500Y51110200D03*
%TD*%
%TO.C,R86*%
X87020400Y61163200D03*
D22*
X76860400Y61163200D03*
%TD*%
D11*
%TO.C,JP16*%
X99009200Y68503800D03*
X96469200Y68503800D03*
%TD*%
D15*
%TO.C,C21*%
X78765400Y50723800D03*
X83845400Y50723800D03*
%TD*%
D11*
%TO.C,JP21*%
X132232400Y27183400D03*
X132232400Y24643400D03*
%TD*%
D15*
%TO.C,C10*%
X119126000Y61747400D03*
X114046000Y61747400D03*
%TD*%
D12*
%TO.C,TP11*%
X170332400Y80543400D03*
%TD*%
D15*
%TO.C,C12*%
X113817400Y39751000D03*
X113817400Y44831000D03*
%TD*%
D27*
%TO.C,S1*%
X4826000Y49765400D03*
X4826000Y43365400D03*
%TD*%
D14*
%TO.C,R17*%
X118719600Y11988800D03*
D22*
X128879600Y11988800D03*
%TD*%
D29*
%TO.C,J6*%
X145490302Y83998400D03*
X142990302Y83998400D03*
X140990301Y83998400D03*
X138490301Y83998400D03*
D30*
X148560301Y86708400D03*
X135420302Y86708400D03*
%TD*%
D27*
%TO.C,S3*%
X4826000Y33509400D03*
X4826000Y27109400D03*
%TD*%
D14*
%TO.C,R7*%
X45008800Y30784800D03*
D22*
X34848800Y30784800D03*
%TD*%
D15*
%TO.C,C4*%
X50114200Y62204600D03*
X55194200Y62204600D03*
%TD*%
%TO.C,C3*%
X55321200Y58674000D03*
X50241200Y58674000D03*
%TD*%
D12*
%TO.C,TP15*%
X146456400Y5867400D03*
%TD*%
D16*
%TO.C,J14*%
X128219200Y93700600D03*
D17*
X124409200Y93700600D03*
X120599200Y93700600D03*
X116789200Y93700600D03*
%TD*%
D11*
%TO.C,JP4*%
X15728000Y42951400D03*
X13188000Y42951400D03*
%TD*%
D14*
%TO.C,R43*%
X93980000Y35001200D03*
D22*
X83820000Y35001200D03*
%TD*%
D18*
%TO.C,J4*%
X44916200Y92391000D03*
D17*
X48726200Y92391000D03*
X52536200Y92391000D03*
X56346200Y92391000D03*
%TD*%
D12*
%TO.C,TP2*%
X75666600Y24638000D03*
%TD*%
%TO.C,TP9*%
X80568800Y30561600D03*
%TD*%
D13*
%TO.C,J20*%
X31778000Y4831400D03*
X35278000Y4831400D03*
%TD*%
D11*
%TO.C,JP8*%
X116614000Y21067400D03*
X116614000Y18527400D03*
%TD*%
%TO.C,JP6*%
X82550000Y21067400D03*
X82550000Y18527400D03*
%TD*%
D13*
%TO.C,J22*%
X65334000Y4831400D03*
X68834000Y4831400D03*
%TD*%
D12*
%TO.C,TP13*%
X169824400Y52603400D03*
%TD*%
D13*
%TO.C,J7*%
X87912000Y4831400D03*
X91412000Y4831400D03*
%TD*%
D11*
%TO.C,JP9*%
X74676000Y57155400D03*
X74676000Y54615400D03*
%TD*%
%TO.C,JP20*%
X60579000Y19797400D03*
X60579000Y17257400D03*
%TD*%
%TO.C,JP18*%
X49403000Y20051400D03*
X49403000Y17511400D03*
%TD*%
D13*
%TO.C,J21*%
X42954000Y4831400D03*
X46454000Y4831400D03*
%TD*%
D14*
%TO.C,R15*%
X93497400Y39776400D03*
D22*
X93497400Y49936400D03*
%TD*%
D11*
%TO.C,JP14*%
X27031000Y23373400D03*
X24491000Y23373400D03*
%TD*%
D16*
%TO.C,J12*%
X32156400Y93954600D03*
D17*
X28346400Y93954600D03*
X24536400Y93954600D03*
X20726400Y93954600D03*
%TD*%
D14*
%TO.C,C19*%
X62509400Y49727800D03*
X62509400Y52227800D03*
%TD*%
D11*
%TO.C,JP15*%
X28595000Y74173400D03*
X31135000Y74173400D03*
%TD*%
D18*
%TO.C,J18*%
X21417992Y84716514D03*
D17*
X25227992Y84716514D03*
X29037992Y84716514D03*
X32847992Y84716514D03*
%TD*%
G36*
X167000179Y40616869D02*
G01*
X167000686Y40614934D01*
X167000076Y40613958D01*
X166967498Y40585388D01*
X166964428Y40538546D01*
X166995430Y40503195D01*
X167034737Y40498020D01*
X167036324Y40496802D01*
X167036063Y40494819D01*
X167034866Y40494075D01*
X166744483Y40436314D01*
X166655847Y40406226D01*
X166653885Y40406616D01*
X166653242Y40408510D01*
X166653885Y40409624D01*
X166689537Y40440890D01*
X166692607Y40487732D01*
X166661557Y40523139D01*
X166630243Y40529367D01*
X166542470Y40523614D01*
X166540676Y40524499D01*
X166540545Y40526495D01*
X166542099Y40527596D01*
X166753432Y40553170D01*
X166998249Y40617397D01*
X167000179Y40616869D01*
G37*
G36*
X166744483Y44958486D02*
G01*
X167034937Y44900710D01*
X167036441Y44899391D01*
X167036051Y44897429D01*
X167034937Y44896786D01*
X166988432Y44887538D01*
X166962351Y44848507D01*
X166971523Y44802391D01*
X167002908Y44778309D01*
X167003673Y44776461D01*
X167002455Y44774874D01*
X167001142Y44774799D01*
X166798252Y44832594D01*
X166566087Y44865635D01*
X166564513Y44866869D01*
X166564795Y44868849D01*
X166566500Y44869611D01*
X166630109Y44865442D01*
X166674968Y44880670D01*
X166695731Y44922772D01*
X166680593Y44967365D01*
X166654261Y44984959D01*
X166653376Y44986753D01*
X166654487Y44988416D01*
X166656015Y44988516D01*
X166744483Y44958486D01*
G37*
M02*
