M48
; DRILL file {KiCad (6.0.9)} date Mon Nov 21 01:31:06 2022
; FORMAT={3:3/ absolute / metric / suppress trailing zeros}
; #@! TF.CreationDate,2022-11-21T01:31:06-05:00
; #@! TF.GenerationSoftware,Kicad,Pcbnew,(6.0.9)
; #@! TF.FileFunction,MixedPlating,1,2
FMAT,2
METRIC,LZ
; #@! TA.AperFunction,Plated,PTH,ComponentDrill
T1C1.400
%
G90
G05
T1
X004242Y372237
X004242Y368737
X004242Y324888
X004242Y321388
X004242Y277539
X004242Y274039
X004242Y230189
X004242Y226689
X004242Y18284
X004242Y17934
X004242Y135491
X004242Y131991
X004242Y088142
X004242Y084642
X004242Y040792
X004242Y037292
X008328Y356482
X008328Y308852
X008328Y261222
X008328Y213592
X008328Y165962
X008328Y118332
X008328Y070702
X008328Y023072
X031707Y004661
X035198Y383352
X035198Y335722
X035198Y288092
X035198Y240462
X035198Y192832
X035198Y145202
X035198Y097572
X035198Y049942
X035207Y004661
X041412Y372237
X041412Y368737
X041412Y324888
X041412Y321388
X041412Y277539
X041412Y274039
X041412Y230189
X041412Y226689
X041412Y18284
X041412Y17934
X041412Y135491
X041412Y131991
X041412Y088142
X041412Y084642
X041412Y040792
X041412Y037292
T0
M30
