%TF.GenerationSoftware,KiCad,Pcbnew,(6.0.9)*%
%TF.CreationDate,2022-11-21T01:31:03-05:00*%
%TF.ProjectId,Sensor_Board_2x16,53656e73-6f72-45f4-926f-6172645f3278,rev?*%
%TF.SameCoordinates,PX1728520PY19b87b58*%
%TF.FileFunction,Legend,Top*%
%TF.FilePolarity,Positive*%
%FSLAX46Y46*%
G04 Gerber Fmt 4.6, Leading zero omitted, Abs format (unit mm)*
G04 Created by KiCad (PCBNEW (6.0.9)) date 2022-11-21 01:31:03*
%MOMM*%
%LPD*%
G01*
G04 APERTURE LIST*
%TA.AperFunction,Profile*%
%ADD10C,0.200000*%
%TD*%
%ADD11C,0.150000*%
%ADD12C,0.254000*%
%ADD13C,0.100000*%
G04 APERTURE END LIST*
D10*
X0Y0D02*
X47630000Y0D01*
X47630000Y0D02*
X47630000Y406400000D01*
X47630000Y406400000D02*
X0Y406400000D01*
X0Y406400000D02*
X0Y0D01*
D11*
%TO.C,S3*%
X20240295Y268284839D02*
X20383152Y268237220D01*
X20621247Y268237220D01*
X20716485Y268284839D01*
X20764104Y268332458D01*
X20811723Y268427696D01*
X20811723Y268522934D01*
X20764104Y268618172D01*
X20716485Y268665791D01*
X20621247Y268713410D01*
X20430771Y268761029D01*
X20335533Y268808648D01*
X20287914Y268856267D01*
X20240295Y268951505D01*
X20240295Y269046743D01*
X20287914Y269141981D01*
X20335533Y269189600D01*
X20430771Y269237220D01*
X20668866Y269237220D01*
X20811723Y269189600D01*
X21145057Y269237220D02*
X21764104Y269237220D01*
X21430771Y268856267D01*
X21573628Y268856267D01*
X21668866Y268808648D01*
X21716485Y268761029D01*
X21764104Y268665791D01*
X21764104Y268427696D01*
X21716485Y268332458D01*
X21668866Y268284839D01*
X21573628Y268237220D01*
X21287914Y268237220D01*
X21192676Y268284839D01*
X21145057Y268332458D01*
%TO.C,S8*%
X20240295Y30134839D02*
X20383152Y30087220D01*
X20621247Y30087220D01*
X20716485Y30134839D01*
X20764104Y30182458D01*
X20811723Y30277696D01*
X20811723Y30372934D01*
X20764104Y30468172D01*
X20716485Y30515791D01*
X20621247Y30563410D01*
X20430771Y30611029D01*
X20335533Y30658648D01*
X20287914Y30706267D01*
X20240295Y30801505D01*
X20240295Y30896743D01*
X20287914Y30991981D01*
X20335533Y31039600D01*
X20430771Y31087220D01*
X20668866Y31087220D01*
X20811723Y31039600D01*
X21383152Y30658648D02*
X21287914Y30706267D01*
X21240295Y30753886D01*
X21192676Y30849124D01*
X21192676Y30896743D01*
X21240295Y30991981D01*
X21287914Y31039600D01*
X21383152Y31087220D01*
X21573628Y31087220D01*
X21668866Y31039600D01*
X21716485Y30991981D01*
X21764104Y30896743D01*
X21764104Y30849124D01*
X21716485Y30753886D01*
X21668866Y30706267D01*
X21573628Y30658648D01*
X21383152Y30658648D01*
X21287914Y30611029D01*
X21240295Y30563410D01*
X21192676Y30468172D01*
X21192676Y30277696D01*
X21240295Y30182458D01*
X21287914Y30134839D01*
X21383152Y30087220D01*
X21573628Y30087220D01*
X21668866Y30134839D01*
X21716485Y30182458D01*
X21764104Y30277696D01*
X21764104Y30468172D01*
X21716485Y30563410D01*
X21668866Y30611029D01*
X21573628Y30658648D01*
%TO.C,S2*%
X20240295Y315914839D02*
X20383152Y315867220D01*
X20621247Y315867220D01*
X20716485Y315914839D01*
X20764104Y315962458D01*
X20811723Y316057696D01*
X20811723Y316152934D01*
X20764104Y316248172D01*
X20716485Y316295791D01*
X20621247Y316343410D01*
X20430771Y316391029D01*
X20335533Y316438648D01*
X20287914Y316486267D01*
X20240295Y316581505D01*
X20240295Y316676743D01*
X20287914Y316771981D01*
X20335533Y316819600D01*
X20430771Y316867220D01*
X20668866Y316867220D01*
X20811723Y316819600D01*
X21192676Y316771981D02*
X21240295Y316819600D01*
X21335533Y316867220D01*
X21573628Y316867220D01*
X21668866Y316819600D01*
X21716485Y316771981D01*
X21764104Y316676743D01*
X21764104Y316581505D01*
X21716485Y316438648D01*
X21145057Y315867220D01*
X21764104Y315867220D01*
%TO.C,S5*%
X20240295Y173024839D02*
X20383152Y172977220D01*
X20621247Y172977220D01*
X20716485Y173024839D01*
X20764104Y173072458D01*
X20811723Y173167696D01*
X20811723Y173262934D01*
X20764104Y173358172D01*
X20716485Y173405791D01*
X20621247Y173453410D01*
X20430771Y173501029D01*
X20335533Y173548648D01*
X20287914Y173596267D01*
X20240295Y173691505D01*
X20240295Y173786743D01*
X20287914Y173881981D01*
X20335533Y173929600D01*
X20430771Y173977220D01*
X20668866Y173977220D01*
X20811723Y173929600D01*
X21716485Y173977220D02*
X21240295Y173977220D01*
X21192676Y173501029D01*
X21240295Y173548648D01*
X21335533Y173596267D01*
X21573628Y173596267D01*
X21668866Y173548648D01*
X21716485Y173501029D01*
X21764104Y173405791D01*
X21764104Y173167696D01*
X21716485Y173072458D01*
X21668866Y173024839D01*
X21573628Y172977220D01*
X21335533Y172977220D01*
X21240295Y173024839D01*
X21192676Y173072458D01*
%TO.C,S4*%
X20240295Y220654839D02*
X20383152Y220607220D01*
X20621247Y220607220D01*
X20716485Y220654839D01*
X20764104Y220702458D01*
X20811723Y220797696D01*
X20811723Y220892934D01*
X20764104Y220988172D01*
X20716485Y221035791D01*
X20621247Y221083410D01*
X20430771Y221131029D01*
X20335533Y221178648D01*
X20287914Y221226267D01*
X20240295Y221321505D01*
X20240295Y221416743D01*
X20287914Y221511981D01*
X20335533Y221559600D01*
X20430771Y221607220D01*
X20668866Y221607220D01*
X20811723Y221559600D01*
X21668866Y221273886D02*
X21668866Y220607220D01*
X21430771Y221654839D02*
X21192676Y220940553D01*
X21811723Y220940553D01*
%TO.C,S6*%
X20240295Y125394839D02*
X20383152Y125347220D01*
X20621247Y125347220D01*
X20716485Y125394839D01*
X20764104Y125442458D01*
X20811723Y125537696D01*
X20811723Y125632934D01*
X20764104Y125728172D01*
X20716485Y125775791D01*
X20621247Y125823410D01*
X20430771Y125871029D01*
X20335533Y125918648D01*
X20287914Y125966267D01*
X20240295Y126061505D01*
X20240295Y126156743D01*
X20287914Y126251981D01*
X20335533Y126299600D01*
X20430771Y126347220D01*
X20668866Y126347220D01*
X20811723Y126299600D01*
X21668866Y126347220D02*
X21478390Y126347220D01*
X21383152Y126299600D01*
X21335533Y126251981D01*
X21240295Y126109124D01*
X21192676Y125918648D01*
X21192676Y125537696D01*
X21240295Y125442458D01*
X21287914Y125394839D01*
X21383152Y125347220D01*
X21573628Y125347220D01*
X21668866Y125394839D01*
X21716485Y125442458D01*
X21764104Y125537696D01*
X21764104Y125775791D01*
X21716485Y125871029D01*
X21668866Y125918648D01*
X21573628Y125966267D01*
X21383152Y125966267D01*
X21287914Y125918648D01*
X21240295Y125871029D01*
X21192676Y125775791D01*
%TO.C,S1*%
X20240295Y363544839D02*
X20383152Y363497220D01*
X20621247Y363497220D01*
X20716485Y363544839D01*
X20764104Y363592458D01*
X20811723Y363687696D01*
X20811723Y363782934D01*
X20764104Y363878172D01*
X20716485Y363925791D01*
X20621247Y363973410D01*
X20430771Y364021029D01*
X20335533Y364068648D01*
X20287914Y364116267D01*
X20240295Y364211505D01*
X20240295Y364306743D01*
X20287914Y364401981D01*
X20335533Y364449600D01*
X20430771Y364497220D01*
X20668866Y364497220D01*
X20811723Y364449600D01*
X21764104Y363497220D02*
X21192676Y363497220D01*
X21478390Y363497220D02*
X21478390Y364497220D01*
X21383152Y364354362D01*
X21287914Y364259124D01*
X21192676Y364211505D01*
%TO.C,S7*%
X20240295Y77764839D02*
X20383152Y77717220D01*
X20621247Y77717220D01*
X20716485Y77764839D01*
X20764104Y77812458D01*
X20811723Y77907696D01*
X20811723Y78002934D01*
X20764104Y78098172D01*
X20716485Y78145791D01*
X20621247Y78193410D01*
X20430771Y78241029D01*
X20335533Y78288648D01*
X20287914Y78336267D01*
X20240295Y78431505D01*
X20240295Y78526743D01*
X20287914Y78621981D01*
X20335533Y78669600D01*
X20430771Y78717220D01*
X20668866Y78717220D01*
X20811723Y78669600D01*
X21145057Y78717220D02*
X21811723Y78717220D01*
X21383152Y77717220D01*
D12*
%TO.C,J15*%
X35484123Y132710165D02*
X36391266Y132710165D01*
X36572695Y132649689D01*
X36693647Y132528737D01*
X36754123Y132347308D01*
X36754123Y132226356D01*
X36754123Y133980165D02*
X36754123Y133254451D01*
X36754123Y133617308D02*
X35484123Y133617308D01*
X35665552Y133496356D01*
X35786504Y133375403D01*
X35846980Y133254451D01*
X35484123Y135129213D02*
X35484123Y134524451D01*
X36088885Y134463975D01*
X36028409Y134524451D01*
X35967933Y134645403D01*
X35967933Y134947784D01*
X36028409Y135068737D01*
X36088885Y135129213D01*
X36209838Y135189689D01*
X36512219Y135189689D01*
X36633171Y135129213D01*
X36693647Y135068737D01*
X36754123Y134947784D01*
X36754123Y134645403D01*
X36693647Y134524451D01*
X36633171Y134463975D01*
%TO.C,J1*%
X10556723Y369908667D02*
X11463866Y369908667D01*
X11645295Y369848191D01*
X11766247Y369727239D01*
X11826723Y369545810D01*
X11826723Y369424858D01*
X11826723Y371178667D02*
X11826723Y370452953D01*
X11826723Y370815810D02*
X10556723Y370815810D01*
X10738152Y370694858D01*
X10859104Y370573905D01*
X10919580Y370452953D01*
%TO.C,J10*%
X35484123Y369456305D02*
X36391266Y369456305D01*
X36572695Y369395829D01*
X36693647Y369274877D01*
X36754123Y369093448D01*
X36754123Y368972496D01*
X36754123Y370726305D02*
X36754123Y370000591D01*
X36754123Y370363448D02*
X35484123Y370363448D01*
X35665552Y370242496D01*
X35786504Y370121543D01*
X35846980Y370000591D01*
X35484123Y371512496D02*
X35484123Y371633448D01*
X35544600Y371754400D01*
X35605076Y371814877D01*
X35726028Y371875353D01*
X35967933Y371935829D01*
X36270314Y371935829D01*
X36512219Y371875353D01*
X36633171Y371814877D01*
X36693647Y371754400D01*
X36754123Y371633448D01*
X36754123Y371512496D01*
X36693647Y371391543D01*
X36633171Y371331067D01*
X36512219Y371270591D01*
X36270314Y371210115D01*
X35967933Y371210115D01*
X35726028Y371270591D01*
X35605076Y371331067D01*
X35544600Y371391543D01*
X35484123Y371512496D01*
%TO.C,J5*%
X10556723Y180511755D02*
X11463866Y180511755D01*
X11645295Y180451279D01*
X11766247Y180330327D01*
X11826723Y180148898D01*
X11826723Y180027946D01*
X10556723Y181721279D02*
X10556723Y181116517D01*
X11161485Y181056041D01*
X11101009Y181116517D01*
X11040533Y181237469D01*
X11040533Y181539850D01*
X11101009Y181660803D01*
X11161485Y181721279D01*
X11282438Y181781755D01*
X11584819Y181781755D01*
X11705771Y181721279D01*
X11766247Y181660803D01*
X11826723Y181539850D01*
X11826723Y181237469D01*
X11766247Y181116517D01*
X11705771Y181056041D01*
%TO.C,J13*%
X35484123Y227408621D02*
X36391266Y227408621D01*
X36572695Y227348145D01*
X36693647Y227227193D01*
X36754123Y227045764D01*
X36754123Y226924812D01*
X36754123Y228678621D02*
X36754123Y227952907D01*
X36754123Y228315764D02*
X35484123Y228315764D01*
X35665552Y228194812D01*
X35786504Y228073859D01*
X35846980Y227952907D01*
X35484123Y229101955D02*
X35484123Y229888145D01*
X35967933Y229464812D01*
X35967933Y229646240D01*
X36028409Y229767193D01*
X36088885Y229827669D01*
X36209838Y229888145D01*
X36512219Y229888145D01*
X36633171Y229827669D01*
X36693647Y229767193D01*
X36754123Y229646240D01*
X36754123Y229283383D01*
X36693647Y229162431D01*
X36633171Y229101955D01*
%TO.C,J8*%
X10556723Y38464067D02*
X11463866Y38464067D01*
X11645295Y38403591D01*
X11766247Y38282639D01*
X11826723Y38101210D01*
X11826723Y37980258D01*
X11101009Y39250258D02*
X11040533Y39129305D01*
X10980057Y39068829D01*
X10859104Y39008353D01*
X10798628Y39008353D01*
X10677676Y39068829D01*
X10617200Y39129305D01*
X10556723Y39250258D01*
X10556723Y39492162D01*
X10617200Y39613115D01*
X10677676Y39673591D01*
X10798628Y39734067D01*
X10859104Y39734067D01*
X10980057Y39673591D01*
X11040533Y39613115D01*
X11101009Y39492162D01*
X11101009Y39250258D01*
X11161485Y39129305D01*
X11221961Y39068829D01*
X11342914Y39008353D01*
X11584819Y39008353D01*
X11705771Y39068829D01*
X11766247Y39129305D01*
X11826723Y39250258D01*
X11826723Y39492162D01*
X11766247Y39613115D01*
X11705771Y39673591D01*
X11584819Y39734067D01*
X11342914Y39734067D01*
X11221961Y39673591D01*
X11161485Y39613115D01*
X11101009Y39492162D01*
%TO.C,J3*%
X10556723Y275210211D02*
X11463866Y275210211D01*
X11645295Y275149735D01*
X11766247Y275028783D01*
X11826723Y274847354D01*
X11826723Y274726402D01*
X10556723Y275694021D02*
X10556723Y276480211D01*
X11040533Y276056878D01*
X11040533Y276238306D01*
X11101009Y276359259D01*
X11161485Y276419735D01*
X11282438Y276480211D01*
X11584819Y276480211D01*
X11705771Y276419735D01*
X11766247Y276359259D01*
X11826723Y276238306D01*
X11826723Y275875449D01*
X11766247Y275754497D01*
X11705771Y275694021D01*
%TO.C,J7*%
X10556723Y85813299D02*
X11463866Y85813299D01*
X11645295Y85752823D01*
X11766247Y85631871D01*
X11826723Y85450442D01*
X11826723Y85329490D01*
X10556723Y86297109D02*
X10556723Y87143775D01*
X11826723Y86599490D01*
%TO.C,J11*%
X35484123Y322107077D02*
X36391266Y322107077D01*
X36572695Y322046601D01*
X36693647Y321925649D01*
X36754123Y321744220D01*
X36754123Y321623268D01*
X36754123Y323377077D02*
X36754123Y322651363D01*
X36754123Y323014220D02*
X35484123Y323014220D01*
X35665552Y322893268D01*
X35786504Y322772315D01*
X35846980Y322651363D01*
X36754123Y324586601D02*
X36754123Y323860887D01*
X36754123Y324223744D02*
X35484123Y324223744D01*
X35665552Y324102792D01*
X35786504Y323981839D01*
X35846980Y323860887D01*
%TO.C,J2*%
X10556723Y322559439D02*
X11463866Y322559439D01*
X11645295Y322498963D01*
X11766247Y322378011D01*
X11826723Y322196582D01*
X11826723Y322075630D01*
X10677676Y323103725D02*
X10617200Y323164201D01*
X10556723Y323285153D01*
X10556723Y323587534D01*
X10617200Y323708487D01*
X10677676Y323768963D01*
X10798628Y323829439D01*
X10919580Y323829439D01*
X11101009Y323768963D01*
X11826723Y323043249D01*
X11826723Y323829439D01*
%TO.C,J12*%
X35484123Y274757849D02*
X36391266Y274757849D01*
X36572695Y274697373D01*
X36693647Y274576421D01*
X36754123Y274394992D01*
X36754123Y274274040D01*
X36754123Y276027849D02*
X36754123Y275302135D01*
X36754123Y275664992D02*
X35484123Y275664992D01*
X35665552Y275544040D01*
X35786504Y275423087D01*
X35846980Y275302135D01*
X35605076Y276511659D02*
X35544600Y276572135D01*
X35484123Y276693087D01*
X35484123Y276995468D01*
X35544600Y277116421D01*
X35605076Y277176897D01*
X35726028Y277237373D01*
X35846980Y277237373D01*
X36028409Y277176897D01*
X36754123Y276451183D01*
X36754123Y277237373D01*
%TO.C,J16*%
X35484123Y85360937D02*
X36391266Y85360937D01*
X36572695Y85300461D01*
X36693647Y85179509D01*
X36754123Y84998080D01*
X36754123Y84877128D01*
X36754123Y86630937D02*
X36754123Y85905223D01*
X36754123Y86268080D02*
X35484123Y86268080D01*
X35665552Y86147128D01*
X35786504Y86026175D01*
X35846980Y85905223D01*
X35484123Y87719509D02*
X35484123Y87477604D01*
X35544600Y87356652D01*
X35605076Y87296175D01*
X35786504Y87175223D01*
X36028409Y87114747D01*
X36512219Y87114747D01*
X36633171Y87175223D01*
X36693647Y87235699D01*
X36754123Y87356652D01*
X36754123Y87598556D01*
X36693647Y87719509D01*
X36633171Y87779985D01*
X36512219Y87840461D01*
X36209838Y87840461D01*
X36088885Y87779985D01*
X36028409Y87719509D01*
X35967933Y87598556D01*
X35967933Y87356652D01*
X36028409Y87235699D01*
X36088885Y87175223D01*
X36209838Y87114747D01*
%TO.C,J6*%
X10556723Y133162527D02*
X11463866Y133162527D01*
X11645295Y133102051D01*
X11766247Y132981099D01*
X11826723Y132799670D01*
X11826723Y132678718D01*
X10556723Y134311575D02*
X10556723Y134069670D01*
X10617200Y133948718D01*
X10677676Y133888241D01*
X10859104Y133767289D01*
X11101009Y133706813D01*
X11584819Y133706813D01*
X11705771Y133767289D01*
X11766247Y133827765D01*
X11826723Y133948718D01*
X11826723Y134190622D01*
X11766247Y134311575D01*
X11705771Y134372051D01*
X11584819Y134432527D01*
X11282438Y134432527D01*
X11161485Y134372051D01*
X11101009Y134311575D01*
X11040533Y134190622D01*
X11040533Y133948718D01*
X11101009Y133827765D01*
X11161485Y133767289D01*
X11282438Y133706813D01*
%TO.C,J9*%
X33033466Y11947677D02*
X33033466Y11040534D01*
X32972990Y10859105D01*
X32852038Y10738153D01*
X32670609Y10677677D01*
X32549657Y10677677D01*
X33698704Y10677677D02*
X33940609Y10677677D01*
X34061561Y10738153D01*
X34122038Y10798629D01*
X34242990Y10980058D01*
X34303466Y11221962D01*
X34303466Y11705772D01*
X34242990Y11826724D01*
X34182514Y11887200D01*
X34061561Y11947677D01*
X33819657Y11947677D01*
X33698704Y11887200D01*
X33638228Y11826724D01*
X33577752Y11705772D01*
X33577752Y11403391D01*
X33638228Y11282439D01*
X33698704Y11221962D01*
X33819657Y11161486D01*
X34061561Y11161486D01*
X34182514Y11221962D01*
X34242990Y11282439D01*
X34303466Y11403391D01*
%TO.C,J14*%
X35484123Y180059393D02*
X36391266Y180059393D01*
X36572695Y179998917D01*
X36693647Y179877965D01*
X36754123Y179696536D01*
X36754123Y179575584D01*
X36754123Y181329393D02*
X36754123Y180603679D01*
X36754123Y180966536D02*
X35484123Y180966536D01*
X35665552Y180845584D01*
X35786504Y180724631D01*
X35846980Y180603679D01*
X35907457Y182417965D02*
X36754123Y182417965D01*
X35423647Y182115584D02*
X36330790Y181813203D01*
X36330790Y182599393D01*
%TO.C,J17*%
X35484123Y38011705D02*
X36391266Y38011705D01*
X36572695Y37951229D01*
X36693647Y37830277D01*
X36754123Y37648848D01*
X36754123Y37527896D01*
X36754123Y39281705D02*
X36754123Y38555991D01*
X36754123Y38918848D02*
X35484123Y38918848D01*
X35665552Y38797896D01*
X35786504Y38676943D01*
X35846980Y38555991D01*
X35484123Y39705039D02*
X35484123Y40551705D01*
X36754123Y40007420D01*
%TO.C,J4*%
X10556723Y227860983D02*
X11463866Y227860983D01*
X11645295Y227800507D01*
X11766247Y227679555D01*
X11826723Y227498126D01*
X11826723Y227377174D01*
X10980057Y229010031D02*
X11826723Y229010031D01*
X10496247Y228707650D02*
X11403390Y228405269D01*
X11403390Y229191459D01*
D13*
%TO.C,J15*%
X45812000Y129540860D02*
X38612000Y129540860D01*
X38612000Y137940860D02*
X45812000Y137940860D01*
X45812000Y137940860D02*
X45812000Y129540860D01*
X38612000Y129540860D02*
X38612000Y137940860D01*
%TO.C,J1*%
X8641800Y366287000D02*
X1441800Y366287000D01*
X1441800Y366287000D02*
X1441800Y374687000D01*
X8641800Y374687000D02*
X8641800Y366287000D01*
X1441800Y374687000D02*
X8641800Y374687000D01*
%TO.C,J10*%
X38612000Y374687000D02*
X45812000Y374687000D01*
X38612000Y366287000D02*
X38612000Y374687000D01*
X45812000Y374687000D02*
X45812000Y366287000D01*
X45812000Y366287000D02*
X38612000Y366287000D01*
%TO.C,J5*%
X1441800Y176890088D02*
X1441800Y185290088D01*
X8641800Y185290088D02*
X8641800Y176890088D01*
X8641800Y176890088D02*
X1441800Y176890088D01*
X1441800Y185290088D02*
X8641800Y185290088D01*
%TO.C,J13*%
X38612000Y232639316D02*
X45812000Y232639316D01*
X45812000Y224239316D02*
X38612000Y224239316D01*
X45812000Y232639316D02*
X45812000Y224239316D01*
X38612000Y224239316D02*
X38612000Y232639316D01*
%TO.C,J8*%
X8641800Y34842400D02*
X1441800Y34842400D01*
X1441800Y34842400D02*
X1441800Y43242400D01*
X8641800Y43242400D02*
X8641800Y34842400D01*
X1441800Y43242400D02*
X8641800Y43242400D01*
%TO.C,J3*%
X8641800Y271588544D02*
X1441800Y271588544D01*
X1441800Y279988544D02*
X8641800Y279988544D01*
X1441800Y271588544D02*
X1441800Y279988544D01*
X8641800Y279988544D02*
X8641800Y271588544D01*
%TO.C,J7*%
X8641800Y90591632D02*
X8641800Y82191632D01*
X1441800Y82191632D02*
X1441800Y90591632D01*
X1441800Y90591632D02*
X8641800Y90591632D01*
X8641800Y82191632D02*
X1441800Y82191632D01*
%TO.C,J11*%
X38612000Y318937772D02*
X38612000Y327337772D01*
X45812000Y327337772D02*
X45812000Y318937772D01*
X38612000Y327337772D02*
X45812000Y327337772D01*
X45812000Y318937772D02*
X38612000Y318937772D01*
%TO.C,J2*%
X8641800Y327337772D02*
X8641800Y318937772D01*
X1441800Y318937772D02*
X1441800Y327337772D01*
X8641800Y318937772D02*
X1441800Y318937772D01*
X1441800Y327337772D02*
X8641800Y327337772D01*
%TO.C,J12*%
X45812000Y279988544D02*
X45812000Y271588544D01*
X45812000Y271588544D02*
X38612000Y271588544D01*
X38612000Y271588544D02*
X38612000Y279988544D01*
X38612000Y279988544D02*
X45812000Y279988544D01*
%TO.C,J16*%
X38612000Y82191632D02*
X38612000Y90591632D01*
X45812000Y90591632D02*
X45812000Y82191632D01*
X38612000Y90591632D02*
X45812000Y90591632D01*
X45812000Y82191632D02*
X38612000Y82191632D01*
%TO.C,J6*%
X1441800Y129540860D02*
X1441800Y137940860D01*
X8641800Y137940860D02*
X8641800Y129540860D01*
X8641800Y129540860D02*
X1441800Y129540860D01*
X1441800Y137940860D02*
X8641800Y137940860D01*
%TO.C,J9*%
X29256800Y9061000D02*
X37656800Y9061000D01*
X29256800Y1861000D02*
X29256800Y9061000D01*
X37656800Y9061000D02*
X37656800Y1861000D01*
X37656800Y1861000D02*
X29256800Y1861000D01*
%TO.C,J14*%
X45812000Y185290088D02*
X45812000Y176890088D01*
X38612000Y176890088D02*
X38612000Y185290088D01*
X45812000Y176890088D02*
X38612000Y176890088D01*
X38612000Y185290088D02*
X45812000Y185290088D01*
%TO.C,J17*%
X45812000Y34842400D02*
X38612000Y34842400D01*
X38612000Y34842400D02*
X38612000Y43242400D01*
X38612000Y43242400D02*
X45812000Y43242400D01*
X45812000Y43242400D02*
X45812000Y34842400D01*
%TO.C,J4*%
X1441800Y224239316D02*
X1441800Y232639316D01*
X1441800Y232639316D02*
X8641800Y232639316D01*
X8641800Y224239316D02*
X1441800Y224239316D01*
X8641800Y232639316D02*
X8641800Y224239316D01*
%TD*%
M02*
