M48
; DRILL file {KiCad (6.0.9)} date Mon Nov 21 19:13:33 2022
; FORMAT={3:3/ absolute / metric / suppress trailing zeros}
; #@! TF.CreationDate,2022-11-21T19:13:33-05:00
; #@! TF.GenerationSoftware,Kicad,Pcbnew,(6.0.9)
; #@! TF.FileFunction,MixedPlating,1,2
FMAT,2
METRIC,LZ
; #@! TA.AperFunction,Plated,PTH,ComponentDrill
T1C1.400
%
G90
G05
T1
X004242Y372237
X004242Y368737
X004242Y324888
X004242Y321388
X004242Y277539
X004242Y274039
X004242Y230189
X004242Y226689
X004242Y18284
X004242Y17934
X004242Y135491
X004242Y131991
X004242Y088142
X004242Y084642
X004242Y040792
X004242Y037292
X008328Y356482
X008328Y308852
X008328Y261222
X008328Y213592
X008328Y165962
X008328Y118332
X008328Y070702
X008328Y023072
X031707Y004661
X035198Y383352
X035198Y335722
X035198Y288092
X035198Y240462
X035198Y192832
X035198Y145202
X035198Y097572
X035198Y049942
X035207Y004661
X055958Y356482
X055958Y308852
X055958Y261222
X055958Y213592
X055958Y165962
X055958Y118332
X055958Y070702
X055958Y023072
X079337Y004661
X082828Y383352
X082828Y335722
X082828Y288092
X082828Y240462
X082828Y192832
X082828Y145202
X082828Y097572
X082828Y049942
X082837Y004661
X089042Y372237
X089042Y368737
X089042Y324888
X089042Y321388
X089042Y277539
X089042Y274039
X089042Y230189
X089042Y226689
X089042Y18284
X089042Y17934
X089042Y135491
X089042Y131991
X089042Y088142
X089042Y084642
X089042Y040792
X089042Y037292
T0
M30
