%TF.GenerationSoftware,KiCad,Pcbnew,(6.0.7)*%
%TF.CreationDate,2022-10-28T20:16:44-04:00*%
%TF.ProjectId,Top_Level,546f705f-4c65-4766-956c-2e6b69636164,rev?*%
%TF.SameCoordinates,PX33f5838PY820f690*%
%TF.FileFunction,Soldermask,Bot*%
%TF.FilePolarity,Negative*%
%FSLAX46Y46*%
G04 Gerber Fmt 4.6, Leading zero omitted, Abs format (unit mm)*
G04 Created by KiCad (PCBNEW (6.0.7)) date 2022-10-28 20:16:44*
%MOMM*%
%LPD*%
G01*
G04 APERTURE LIST*
G04 Aperture macros list*
%AMRoundRect*
0 Rectangle with rounded corners*
0 $1 Rounding radius*
0 $2 $3 $4 $5 $6 $7 $8 $9 X,Y pos of 4 corners*
0 Add a 4 corners polygon primitive as box body*
4,1,4,$2,$3,$4,$5,$6,$7,$8,$9,$2,$3,0*
0 Add four circle primitives for the rounded corners*
1,1,$1+$1,$2,$3*
1,1,$1+$1,$4,$5*
1,1,$1+$1,$6,$7*
1,1,$1+$1,$8,$9*
0 Add four rect primitives between the rounded corners*
20,1,$1+$1,$2,$3,$4,$5,0*
20,1,$1+$1,$4,$5,$6,$7,0*
20,1,$1+$1,$6,$7,$8,$9,0*
20,1,$1+$1,$8,$9,$2,$3,0*%
G04 Aperture macros list end*
%TA.AperFunction,Profile*%
%ADD10C,0.279400*%
%TD*%
%ADD11C,1.704800*%
%ADD12C,3.104800*%
%ADD13C,2.404800*%
%ADD14C,1.727200*%
%ADD15C,3.073400*%
%ADD16RoundRect,0.152400X0.850000X-0.850000X0.850000X0.850000X-0.850000X0.850000X-0.850000X-0.850000X0*%
%ADD17O,2.004800X2.004800*%
%ADD18RoundRect,0.152400X-1.012500X-1.012500X1.012500X-1.012500X1.012500X1.012500X-1.012500X1.012500X0*%
%ADD19C,2.329800*%
%ADD20C,1.504800*%
%ADD21C,1.904800*%
%ADD22RoundRect,0.152400X1.012500X1.012500X-1.012500X1.012500X-1.012500X-1.012500X1.012500X-1.012500X0*%
%ADD23O,1.904800X1.904800*%
%ADD24C,2.104800*%
%ADD25C,5.344800*%
%ADD26C,4.369800*%
%ADD27C,4.639800*%
%ADD28C,1.804800*%
%ADD29C,1.104800*%
%ADD30C,1.304800*%
%ADD31C,1.193800*%
G04 APERTURE END LIST*
D10*
X0Y0D02*
X173990000Y0D01*
X173990000Y0D02*
X173990000Y97790000D01*
X173990000Y97790000D02*
X0Y97790000D01*
X0Y97790000D02*
X0Y0D01*
X0Y0D02*
X173990000Y0D01*
X173990000Y0D02*
X173990000Y97790000D01*
X173990000Y97790000D02*
X0Y97790000D01*
X0Y97790000D02*
X0Y0D01*
D11*
%TO.C,JP2*%
X111506000Y56622000D03*
X111506000Y54082000D03*
%TD*%
D12*
%TO.C,TP15*%
X135890000Y5334000D03*
%TD*%
D13*
%TO.C,J21*%
X42954000Y4806000D03*
X46454000Y4806000D03*
%TD*%
%TO.C,J9*%
X110518000Y4806000D03*
X114018000Y4806000D03*
%TD*%
D14*
%TO.C,J6*%
X159919000Y84278099D03*
X159919000Y86778099D03*
X159919000Y88778100D03*
X159919000Y91278100D03*
D15*
X162629000Y81208100D03*
X162629000Y94348099D03*
%TD*%
D11*
%TO.C,JP15*%
X28595000Y74148000D03*
X31135000Y74148000D03*
%TD*%
D16*
%TO.C,J4-J2*%
X41529000Y70358000D03*
D17*
X41529000Y67818000D03*
X44069000Y70358000D03*
X44069000Y67818000D03*
X46609000Y70358000D03*
X46609000Y67818000D03*
X49149000Y70358000D03*
X49149000Y67818000D03*
X51689000Y70358000D03*
X51689000Y67818000D03*
X54229000Y70358000D03*
X54229000Y67818000D03*
X56769000Y70358000D03*
X56769000Y67818000D03*
X59309000Y70358000D03*
X59309000Y67818000D03*
X61849000Y70358000D03*
X61849000Y67818000D03*
X64389000Y70358000D03*
X64389000Y67818000D03*
%TD*%
D18*
%TO.C,J18*%
X21417992Y84691114D03*
D19*
X25227992Y84691114D03*
X29037992Y84691114D03*
X32847992Y84691114D03*
%TD*%
D20*
%TO.C,LED1*%
X24511000Y30501000D03*
X23711000Y29231000D03*
X24511000Y27961000D03*
X23711000Y26691000D03*
%TD*%
D21*
%TO.C,C28*%
X153162000Y22586000D03*
X153162000Y20086000D03*
%TD*%
D18*
%TO.C,J4*%
X44214000Y92264000D03*
D19*
X48024000Y92264000D03*
X51834000Y92264000D03*
X55644000Y92264000D03*
%TD*%
D11*
%TO.C,JP20*%
X60579000Y19772000D03*
X60579000Y17232000D03*
%TD*%
D18*
%TO.C,J16*%
X4640753Y84691114D03*
D19*
X8450753Y84691114D03*
X12260753Y84691114D03*
X16070753Y84691114D03*
%TD*%
D22*
%TO.C,J14*%
X32063753Y94145650D03*
D19*
X28253753Y94145650D03*
X24443753Y94145650D03*
X20633753Y94145650D03*
%TD*%
D12*
%TO.C,TP7*%
X90982800Y30002800D03*
%TD*%
D11*
%TO.C,JP10*%
X127782000Y21336000D03*
X130322000Y21336000D03*
%TD*%
%TO.C,JP13*%
X105156000Y21042000D03*
X105156000Y18502000D03*
%TD*%
%TO.C,JP8*%
X116614000Y21042000D03*
X116614000Y18502000D03*
%TD*%
D18*
%TO.C,J19*%
X101044463Y82921000D03*
D19*
X104854463Y82921000D03*
X108664463Y82921000D03*
X112474463Y82921000D03*
%TD*%
D12*
%TO.C,TP3*%
X40386000Y31780800D03*
%TD*%
D16*
%TO.C,J8-J6*%
X105029000Y70358000D03*
D17*
X105029000Y67818000D03*
X107569000Y70358000D03*
X107569000Y67818000D03*
X110109000Y70358000D03*
X110109000Y67818000D03*
X112649000Y70358000D03*
X112649000Y67818000D03*
X115189000Y70358000D03*
X115189000Y67818000D03*
X117729000Y70358000D03*
X117729000Y67818000D03*
X120269000Y70358000D03*
X120269000Y67818000D03*
X122809000Y70358000D03*
X122809000Y67818000D03*
X125349000Y70358000D03*
X125349000Y67818000D03*
X127889000Y70358000D03*
X127889000Y67818000D03*
%TD*%
D11*
%TO.C,JP18*%
X49403000Y20026000D03*
X49403000Y17486000D03*
%TD*%
D13*
%TO.C,J23*%
X54178000Y4806000D03*
X57678000Y4806000D03*
%TD*%
D11*
%TO.C,JP11*%
X135128000Y72878000D03*
X135128000Y70338000D03*
%TD*%
D12*
%TO.C,TP4*%
X96342200Y29723400D03*
%TD*%
%TO.C,TP14*%
X171323000Y75672000D03*
%TD*%
D18*
%TO.C,J3*%
X60978000Y92264000D03*
D19*
X64788000Y92264000D03*
X68598000Y92264000D03*
X72408000Y92264000D03*
%TD*%
D16*
%TO.C,J1-J3*%
X41529000Y27178000D03*
D17*
X41529000Y24638000D03*
X44069000Y27178000D03*
X44069000Y24638000D03*
X46609000Y27178000D03*
X46609000Y24638000D03*
X49149000Y27178000D03*
X49149000Y24638000D03*
X51689000Y27178000D03*
X51689000Y24638000D03*
X54229000Y27178000D03*
X54229000Y24638000D03*
X56769000Y27178000D03*
X56769000Y24638000D03*
X59309000Y27178000D03*
X59309000Y24638000D03*
X61849000Y27178000D03*
X61849000Y24638000D03*
X64389000Y27178000D03*
X64389000Y24638000D03*
%TD*%
D12*
%TO.C,TP1*%
X75666600Y24999000D03*
%TD*%
D21*
%TO.C,C19*%
X62458600Y48895000D03*
X62458600Y51395000D03*
%TD*%
%TO.C,R16*%
X117729000Y15220000D03*
D23*
X127889000Y15220000D03*
%TD*%
D11*
%TO.C,JP12*%
X15728000Y26924000D03*
X13188000Y26924000D03*
%TD*%
D24*
%TO.C,S2*%
X4826000Y66250000D03*
X4826000Y59850000D03*
%TD*%
D13*
%TO.C,J2*%
X149380000Y90386000D03*
X152880000Y90386000D03*
%TD*%
D11*
%TO.C,JP14*%
X27031000Y23348000D03*
X24491000Y23348000D03*
%TD*%
D24*
%TO.C,S1*%
X4826000Y49740000D03*
X4826000Y43340000D03*
%TD*%
D19*
%TO.C,J12*%
X3860753Y94145650D03*
X7670753Y94145650D03*
X11480753Y94145650D03*
D22*
X15290753Y94145650D03*
%TD*%
D11*
%TO.C,JP4*%
X15728000Y42926000D03*
X13188000Y42926000D03*
%TD*%
%TO.C,JP16*%
X94869000Y73660000D03*
X94869000Y76200000D03*
%TD*%
%TO.C,JP5*%
X15728000Y59436000D03*
X13188000Y59436000D03*
%TD*%
D18*
%TO.C,J17*%
X117545463Y82921000D03*
D19*
X121355463Y82921000D03*
X125165463Y82921000D03*
X128975463Y82921000D03*
%TD*%
D21*
%TO.C,C1*%
X42354500Y48584800D03*
X42354500Y51084800D03*
%TD*%
%TO.C,C27*%
X160528000Y58186000D03*
X160528000Y60686000D03*
%TD*%
D11*
%TO.C,JP9*%
X74676000Y56622000D03*
X74676000Y54082000D03*
%TD*%
D12*
%TO.C,TP10*%
X169926000Y23368000D03*
%TD*%
%TO.C,TP9*%
X80238600Y30536200D03*
%TD*%
D11*
%TO.C,JP7*%
X18141000Y12426000D03*
X15601000Y12426000D03*
%TD*%
D13*
%TO.C,J7*%
X87912000Y4806000D03*
X91412000Y4806000D03*
%TD*%
D12*
%TO.C,TP12*%
X169926000Y15240000D03*
%TD*%
%TO.C,TP11*%
X169926000Y7310735D03*
%TD*%
D11*
%TO.C,JP1*%
X54013100Y56622000D03*
X54013100Y54082000D03*
%TD*%
D12*
%TO.C,TP8*%
X85648800Y30256800D03*
%TD*%
D11*
%TO.C,JP6*%
X82550000Y21042000D03*
X82550000Y18502000D03*
%TD*%
D21*
%TO.C,R15*%
X117729000Y11918000D03*
D23*
X127889000Y11918000D03*
%TD*%
D21*
%TO.C,C7*%
X99036722Y50013812D03*
X99036722Y52513812D03*
%TD*%
D11*
%TO.C,JP3*%
X94234000Y21042000D03*
X94234000Y18502000D03*
%TD*%
D13*
%TO.C,J1*%
X121948000Y4806000D03*
X125448000Y4806000D03*
%TD*%
%TO.C,J22*%
X65334000Y4806000D03*
X68834000Y4806000D03*
%TD*%
%TO.C,J11*%
X99088000Y4806000D03*
X102588000Y4806000D03*
%TD*%
D18*
%TO.C,J5*%
X77733000Y92264000D03*
D19*
X81543000Y92264000D03*
X85353000Y92264000D03*
X89163000Y92264000D03*
%TD*%
D24*
%TO.C,S3*%
X4826000Y33484000D03*
X4826000Y27084000D03*
%TD*%
D12*
%TO.C,TP6*%
X78105000Y81691800D03*
%TD*%
D22*
%TO.C,J15*%
X111694463Y92511000D03*
D19*
X107884463Y92511000D03*
X104074463Y92511000D03*
X100264463Y92511000D03*
%TD*%
D11*
%TO.C,JP19*%
X71247000Y21042000D03*
X71247000Y18502000D03*
%TD*%
D13*
%TO.C,J20*%
X31778000Y4806000D03*
X35278000Y4806000D03*
%TD*%
%TO.C,J8*%
X76482000Y4806000D03*
X79982000Y4806000D03*
%TD*%
D12*
%TO.C,TP5*%
X78105000Y76662600D03*
%TD*%
D11*
%TO.C,JP17*%
X38227000Y19772000D03*
X38227000Y17232000D03*
%TD*%
D16*
%TO.C,J5-J7*%
X105029000Y27178000D03*
D17*
X105029000Y24638000D03*
X107569000Y27178000D03*
X107569000Y24638000D03*
X110109000Y27178000D03*
X110109000Y24638000D03*
X112649000Y27178000D03*
X112649000Y24638000D03*
X115189000Y27178000D03*
X115189000Y24638000D03*
X117729000Y27178000D03*
X117729000Y24638000D03*
X120269000Y27178000D03*
X120269000Y24638000D03*
X122809000Y27178000D03*
X122809000Y24638000D03*
X125349000Y27178000D03*
X125349000Y24638000D03*
X127889000Y27178000D03*
X127889000Y24638000D03*
%TD*%
D12*
%TO.C,TP2*%
X36245800Y31323600D03*
%TD*%
D18*
%TO.C,J13*%
X117545463Y91111000D03*
D19*
X121355463Y91111000D03*
X125165463Y91111000D03*
X128975463Y91111000D03*
%TD*%
D25*
%TO.C,J10*%
X158922000Y46990000D03*
D26*
X164922000Y46990000D03*
D27*
X165922000Y51490000D03*
X165922000Y42490000D03*
%TD*%
D12*
%TO.C,TP13*%
X162052000Y21082000D03*
%TD*%
D28*
X28498800Y42474200D03*
D29*
X44132500Y46278800D03*
X109321600Y30434600D03*
X100814722Y47199812D03*
X97155000Y83546000D03*
D28*
X125349000Y45192000D03*
X22860000Y48392400D03*
X34163000Y42474200D03*
X106224922Y40618900D03*
D29*
X111658400Y30434600D03*
D28*
X65964482Y39674300D03*
X131013200Y45192000D03*
X25603200Y45522200D03*
X31267400Y51516600D03*
X131013200Y51186400D03*
X125349000Y51186400D03*
D29*
X65024682Y46252900D03*
X148844000Y82022000D03*
X33401000Y78034200D03*
D28*
X140411200Y35712400D03*
X34163000Y54386800D03*
X119710200Y51186400D03*
X31267400Y45522200D03*
D30*
X40526204Y84354635D03*
D28*
X125349000Y39273800D03*
X119710200Y39273800D03*
X119710200Y45192000D03*
X146050000Y35712400D03*
X53759100Y40132000D03*
D29*
X122809000Y16490000D03*
D28*
X140411200Y29794200D03*
X143154400Y45872400D03*
X128117600Y42321800D03*
X22860000Y42474200D03*
X25654000Y51516600D03*
X146050000Y29794200D03*
X102186322Y40618900D03*
X49568100Y40132000D03*
X70460282Y39674300D03*
X140411200Y48742600D03*
X22860000Y54386800D03*
X28498800Y48392400D03*
X110873122Y40618900D03*
X74651282Y39674300D03*
D29*
X76708000Y52070000D03*
D28*
X122504200Y48316200D03*
X45072300Y40132000D03*
X140411200Y42824400D03*
D29*
X132461000Y87102000D03*
D28*
X143154400Y32842200D03*
D29*
X29845000Y23348000D03*
D28*
X122453400Y42321800D03*
X28498800Y54386800D03*
X128117600Y48316200D03*
X146050000Y48742600D03*
X34163000Y48392400D03*
X146050000Y42824400D03*
X131013200Y39273800D03*
D29*
X45008800Y33025400D03*
X55245000Y33254000D03*
X112574000Y36631000D03*
X102235000Y34524000D03*
X90297000Y74910000D03*
X130937000Y73894000D03*
X133985000Y53320000D03*
X133985000Y58146000D03*
X31623000Y67798000D03*
X19939000Y68052000D03*
X31623000Y66274000D03*
X40747000Y58146000D03*
X38735000Y58146000D03*
X51752500Y46532800D03*
X36703000Y57861200D03*
X35433000Y59162000D03*
X50228500Y46532800D03*
X33883600Y58704800D03*
X35458400Y57180800D03*
X48704500Y46532800D03*
X47180500Y46532800D03*
X39629400Y54844000D03*
X37719000Y54844000D03*
X41783000Y37826000D03*
X62611000Y37064000D03*
X98679000Y38842000D03*
X57785000Y34768695D03*
X47523400Y31259500D03*
X58801000Y58146000D03*
X58801000Y55098000D03*
X67741800Y33000000D03*
X48387000Y33000000D03*
X104521000Y36048000D03*
X68707000Y24821200D03*
X57785000Y55098000D03*
X57785000Y58146000D03*
X101117400Y59766200D03*
X99568000Y61214000D03*
X108651222Y46691812D03*
X107164722Y46437812D03*
X87884000Y87884000D03*
X99288600Y59740800D03*
X87884000Y85217000D03*
X97790000Y61214000D03*
X105386722Y46437812D03*
X95504000Y61214000D03*
X86563200Y84023200D03*
X86614000Y86106000D03*
X97180400Y59690000D03*
X95402400Y59486800D03*
X93980000Y60960000D03*
X103862722Y46691812D03*
X104851200Y31222000D03*
X106502200Y33000000D03*
X110333000Y35615000D03*
X72390000Y61214000D03*
X72415400Y59334400D03*
D31*
X72390000Y46939200D03*
D29*
X70891400Y61214000D03*
X70891400Y86461600D03*
X70891400Y88163400D03*
D31*
X70764400Y46913800D03*
D29*
X70891400Y59359800D03*
X69342000Y86029800D03*
X69342000Y84226400D03*
X69342000Y61214000D03*
D31*
X69342000Y46913800D03*
D29*
X69316600Y59359800D03*
X67564000Y61214000D03*
D31*
X67589400Y46913800D03*
D29*
X67564000Y59385200D03*
X64389000Y32238000D03*
X69469000Y32746000D03*
X67132200Y26142000D03*
X70485000Y30708600D03*
X71145400Y27158000D03*
X71501000Y32181800D03*
X100584000Y28555000D03*
X74676000Y32746000D03*
X75819000Y34778000D03*
X66167000Y34270000D03*
X129159000Y18776000D03*
X101473000Y25888000D03*
X43103800Y86258400D03*
X43103800Y84556600D03*
X42545000Y82784000D03*
X109855000Y86340000D03*
X110617000Y81006000D03*
X109855000Y90658000D03*
X110617000Y75926000D03*
X106299000Y85832000D03*
X106807000Y81006000D03*
X106299000Y89896000D03*
X106807000Y75926000D03*
X102997000Y85832000D03*
X102997000Y81006000D03*
X102997000Y75926000D03*
X96139000Y90150000D03*
X132461000Y80752000D03*
X145923000Y82276000D03*
X133731000Y79990000D03*
X146761200Y80594200D03*
X90322400Y55092600D03*
X88519000Y55092600D03*
X92303600Y55092600D03*
X66116200Y28803600D03*
X64897000Y29870400D03*
X113715800Y55194200D03*
X115755000Y55098000D03*
X118389400Y55143400D03*
G36*
X23903842Y27524015D02*
G01*
X23916476Y27503154D01*
X24032684Y27382818D01*
X24172667Y27291215D01*
X24329469Y27232901D01*
X24380823Y27226049D01*
X24382408Y27224829D01*
X24382144Y27222847D01*
X24381073Y27222134D01*
X24335907Y27210117D01*
X24312338Y27169457D01*
X24321019Y27129308D01*
X24320407Y27127403D01*
X24318453Y27126981D01*
X24317368Y27127825D01*
X24299073Y27157103D01*
X24181199Y27275803D01*
X24039945Y27365445D01*
X23882352Y27421561D01*
X23840798Y27426516D01*
X23839197Y27427714D01*
X23839434Y27429700D01*
X23840494Y27430427D01*
X23885488Y27443075D01*
X23908496Y27484075D01*
X23900176Y27522556D01*
X23900788Y27524461D01*
X23902742Y27524883D01*
X23903842Y27524015D01*
G37*
G36*
X24321387Y28796757D02*
G01*
X24321559Y28795483D01*
X24312561Y28749619D01*
X24338773Y28710610D01*
X24378665Y28700812D01*
X24380109Y28699428D01*
X24379632Y28697486D01*
X24378397Y28696881D01*
X24349865Y28693882D01*
X24191500Y28639971D01*
X24049016Y28552314D01*
X23929491Y28435267D01*
X23903450Y28394860D01*
X23901671Y28393945D01*
X23899990Y28395029D01*
X23899801Y28396301D01*
X23908158Y28442284D01*
X23881394Y28480936D01*
X23843157Y28490328D01*
X23841713Y28491712D01*
X23842190Y28493654D01*
X23843453Y28494262D01*
X23861888Y28495940D01*
X24020988Y28547634D01*
X24164685Y28633295D01*
X24285828Y28748658D01*
X24317930Y28796975D01*
X24319722Y28797864D01*
X24321387Y28796757D01*
G37*
G36*
X23903842Y30064015D02*
G01*
X23916476Y30043154D01*
X24032684Y29922818D01*
X24172667Y29831215D01*
X24329469Y29772901D01*
X24380823Y29766049D01*
X24382408Y29764829D01*
X24382144Y29762847D01*
X24381073Y29762134D01*
X24335907Y29750117D01*
X24312338Y29709457D01*
X24321019Y29669308D01*
X24320407Y29667403D01*
X24318453Y29666981D01*
X24317368Y29667825D01*
X24299073Y29697103D01*
X24181199Y29815803D01*
X24039945Y29905445D01*
X23882352Y29961561D01*
X23840798Y29966516D01*
X23839197Y29967714D01*
X23839434Y29969700D01*
X23840494Y29970427D01*
X23885488Y29983075D01*
X23908496Y30024075D01*
X23900176Y30062556D01*
X23900788Y30064461D01*
X23902742Y30064883D01*
X23903842Y30064015D01*
G37*
G36*
X165577779Y44909469D02*
G01*
X165578286Y44907534D01*
X165577676Y44906558D01*
X165545098Y44877988D01*
X165542028Y44831146D01*
X165573030Y44795795D01*
X165612337Y44790620D01*
X165613924Y44789402D01*
X165613663Y44787419D01*
X165612466Y44786675D01*
X165322083Y44728914D01*
X165233447Y44698826D01*
X165231485Y44699216D01*
X165230842Y44701110D01*
X165231485Y44702224D01*
X165267137Y44733490D01*
X165270207Y44780332D01*
X165239157Y44815739D01*
X165207843Y44821967D01*
X165120070Y44816214D01*
X165118276Y44817099D01*
X165118145Y44819095D01*
X165119699Y44820196D01*
X165331032Y44845770D01*
X165575849Y44909997D01*
X165577779Y44909469D01*
G37*
G36*
X165322083Y49251086D02*
G01*
X165612537Y49193310D01*
X165614041Y49191991D01*
X165613651Y49190029D01*
X165612537Y49189386D01*
X165566032Y49180138D01*
X165539951Y49141107D01*
X165549123Y49094991D01*
X165580508Y49070909D01*
X165581273Y49069061D01*
X165580055Y49067474D01*
X165578742Y49067399D01*
X165375852Y49125194D01*
X165143687Y49158235D01*
X165142113Y49159469D01*
X165142395Y49161449D01*
X165144100Y49162211D01*
X165207709Y49158042D01*
X165252568Y49173270D01*
X165273331Y49215372D01*
X165258193Y49259965D01*
X165231861Y49277559D01*
X165230976Y49279353D01*
X165232087Y49281016D01*
X165233615Y49281116D01*
X165322083Y49251086D01*
G37*
M02*
